<svg width="1920" height="487" viewBox="0 0 1920 487" fill="none" xmlns="http://www.w3.org/2000/svg">
<g opacity="0.3">
<path d="M648.673 486.339C639.202 486.339 629.983 485.942 621.124 485.151C602.543 483.49 585.377 480.079 570.102 475.013C553.684 469.57 539.284 462.153 527.299 452.97C503.212 434.511 491.161 412.404 479.506 391.025C477.216 386.827 474.849 382.487 472.445 378.275C456.045 349.569 435.255 324.423 408.892 301.403C356.303 255.48 282.344 216.289 195.009 188.065C94.0064 155.427 -14.5879 139.168 -110.772 142.286C-167.304 144.119 -241.999 161.55 -275.382 191.319C-295.193 208.987 -296.791 228.594 -279.999 248.016L-280.332 248.098C-289.137 237.912 -292.973 227.7 -291.731 217.747C-290.591 208.616 -285.198 199.69 -275.697 191.218C-260.587 177.742 -235.668 165.799 -203.633 156.678C-174.032 148.25 -141.063 143.069 -110.794 142.088C-60.4578 140.458 -6.92279 144.076 48.3233 152.843C98.4032 160.792 147.82 172.585 195.199 187.895C282.586 216.134 356.589 255.347 409.208 301.297C435.585 324.333 456.386 349.492 472.797 378.214C475.204 382.426 477.571 386.769 479.857 390.967C491.502 412.33 503.545 434.421 527.6 452.853C550.862 470.681 582.351 481.481 621.186 484.952C674.966 489.759 740.274 479.704 795.879 458.051C876.011 426.849 931.624 381.433 985.408 337.514C994.836 329.816 1004.58 321.855 1014.23 314.169C1039.29 294.208 1073.22 268.344 1113.55 245.302C1154.77 221.749 1196.65 204.445 1241.6 192.398C1269.12 185.024 1298.28 180.056 1328.27 177.633C1355.97 175.393 1385.3 175.254 1415.43 177.216C1467.11 180.584 1522.78 190.096 1585.64 206.294C1709.42 238.192 1833.05 276.908 1953.12 321.371C2067.25 363.63 2179.18 411.451 2285.8 463.498L2285.55 463.643C2064.53 355.75 1828.99 269.225 1585.48 206.47C1447.91 171.015 1338.69 166.598 1241.77 192.572C1143.17 218.996 1074.29 266.681 1014.54 314.276C1004.89 321.961 995.143 329.921 985.716 337.619C931.917 381.554 876.286 426.984 796.099 458.208C770.187 468.298 741.036 476.168 711.801 480.966C696.357 483.501 681.005 485.159 666.166 485.894C660.252 486.193 654.415 486.339 648.673 486.339Z" fill="#FFE492"/>
<path d="M657.934 475.392C633.781 475.392 611.408 472.94 591.414 468.099C569.118 462.701 549.878 454.336 534.226 443.239C532.841 442.256 531.466 441.239 530.14 440.215C506.309 421.836 493.723 400.017 481.555 378.916C479.093 374.651 476.55 370.24 473.971 365.96C458.607 340.475 440.108 318.013 417.409 297.294C414.613 294.744 411.719 292.188 408.799 289.698C355.436 244.17 280.877 205.475 193.182 177.795C91.4504 145.714 -17.4517 130.127 -113.464 133.909C-169.586 136.143 -243.936 153.859 -277.462 183.4C-297.537 201.089 -299.809 220.735 -284.039 240.214L-284.376 240.293C-292.642 230.083 -296.038 219.852 -294.466 209.886C-293.023 200.734 -287.41 191.788 -277.777 183.298C-262.513 169.846 -237.667 157.889 -205.933 148.721C-176.602 140.247 -143.776 134.917 -113.497 133.714C-63.2227 131.734 -9.62904 135.005 45.793 143.437C95.9937 151.074 145.645 162.578 193.365 177.627C281.111 205.323 355.711 244.041 409.106 289.594C412.027 292.086 414.925 294.644 417.721 297.197C440.434 317.929 458.945 340.402 474.315 365.901C476.898 370.182 479.441 374.593 481.903 378.859C494.068 399.947 506.643 421.75 530.441 440.104C531.763 441.124 533.137 442.14 534.519 443.122C566.865 466.06 611.309 475.392 658.047 475.392C658.304 475.392 658.557 475.392 658.813 475.392C658.52 475.391 658.227 475.392 657.934 475.392ZM667.904 475.256C711.355 474.065 756.192 465.159 794.657 451.91C877.629 423.214 937.261 378.892 994.932 336.03C997.307 334.264 999.681 332.501 1002.06 330.738C1007.27 326.868 1013.45 322.287 1019.76 317.669C1048.06 296.958 1082.32 272.861 1121.77 251.171C1163.74 228.091 1205.68 210.965 1249.97 198.811C1277.18 191.351 1305.94 186.095 1335.44 183.191C1362.78 180.5 1391.67 179.74 1421.3 180.93C1472.49 182.988 1527.53 190.79 1589.57 204.783C1650.06 218.405 1699.78 231.228 1746.05 245.137C1811.59 264.861 1874.02 287.587 1926.45 307.215C2048.34 352.979 2167.93 404.944 2281.91 461.669L2281.66 461.811C2167.69 405.095 2048.11 353.133 1926.24 307.375C1873.82 287.749 1811.4 265.027 1745.87 245.309C1699.62 231.404 1649.91 218.585 1589.43 204.967C1454.29 174.482 1346.47 172.581 1250.14 198.986C1150.15 226.422 1078.95 274.694 1020.06 317.786C1013.74 322.404 1007.57 326.984 1002.35 330.855C999.978 332.616 997.603 334.381 995.229 336.148C937.539 379.023 877.885 423.361 794.855 452.079C774.267 459.169 752.359 464.802 729.738 468.818C708.681 472.553 687.924 474.712 667.904 475.256Z" fill="#FFE492"/>
<path d="M668.145 464.697C665.24 464.697 662.352 464.663 659.487 464.595C635.356 464.026 613.024 461.073 593.113 455.814C571.338 450.062 552.472 441.543 537.043 430.491C535.672 429.506 534.306 428.487 532.987 427.463C509.423 409.174 496.314 387.646 483.64 366.83C480.998 362.491 478.265 358.004 475.495 353.65C459.373 328.25 440.386 305.968 417.442 285.529C414.602 283.002 411.664 280.468 408.699 277.997C354.563 232.866 279.403 194.668 191.35 167.531C88.8926 136.006 -20.3173 121.091 -116.161 125.537C-170.124 128.079 -244.259 144.786 -279.507 175.454C-299.871 193.173 -302.835 212.871 -288.08 232.419L-288.421 232.491C-296.152 222.25 -299.102 211.995 -297.196 202.012C-295.445 192.831 -289.597 183.862 -279.818 175.352C-264.392 161.932 -239.627 149.971 -208.197 140.76C-179.142 132.244 -146.466 126.77 -116.194 125.343C-65.9783 123.016 -12.326 125.939 43.2682 134.035C93.5935 141.364 143.476 152.576 191.533 167.363C279.638 194.517 354.838 232.737 409.007 277.894C411.971 280.366 414.914 282.901 417.753 285.432C440.708 305.882 459.706 328.178 475.835 353.591C478.605 357.948 481.339 362.435 483.98 366.774C496.651 387.578 509.75 409.09 533.284 427.358C534.603 428.382 535.962 429.398 537.332 430.379C600.027 475.287 711.135 470.466 793.433 445.768C879.867 419.601 944.101 376.11 1006.22 334.051L1006.86 333.619C1012.87 329.542 1019.1 325.329 1025.29 321.168C1090.63 277.272 1162.45 232.161 1258.33 205.219C1285.25 197.672 1313.62 192.129 1342.63 188.746C1369.62 185.599 1398.07 184.218 1427.19 184.64C1477.97 185.375 1532.37 191.468 1593.51 203.269C1657.76 215.627 1706.12 226.986 1750.29 240.101C1813.23 258.826 1874.19 282.488 1927.98 303.365C2047.74 350.097 2165.51 402.74 2278.03 459.83L2277.77 459.971C2165.27 402.887 2047.51 350.249 1927.76 303.522C1873.98 282.649 1813.03 258.991 1750.11 240.271C1705.95 227.159 1657.62 215.804 1593.39 203.451C1460.86 177.872 1354.45 178.487 1258.5 205.389C1162.68 232.313 1090.89 277.405 1025.57 321.285C1019.38 325.446 1013.16 329.662 1007.14 333.736L1006.51 334.168C975.549 355.127 943.54 376.8 908.974 396.158C870.128 417.912 832.392 434.194 793.609 445.934C753.033 458.11 708.834 464.697 668.145 464.697Z" fill="#FFE492"/>
<path d="M2273.89 458.128C2162.85 400.676 2046.91 347.362 1929.29 299.667C1924.31 297.662 1919.32 295.647 1914.31 293.626C1863.37 273.062 1810.69 251.798 1754.36 235.233C1699.71 219.207 1644.32 209.408 1597.35 201.936C1467.69 181.184 1362.69 184.317 1266.88 211.792C1168.54 240.08 1092.33 287.046 1031.1 324.785C1027.43 327.05 1023.76 329.319 1020.09 331.59C1017.37 333.267 1014.66 334.944 1011.94 336.619C977.081 358.129 945.368 377.36 910.329 394.909C870.3 414.955 831.718 429.637 792.37 439.794C755.495 449.313 716.103 454.35 679.463 454.352C672.787 454.352 666.21 454.186 659.747 453.848C636.151 452.614 614.306 449.149 594.82 443.548C573.558 437.437 555.066 428.755 539.849 417.744C538.49 416.757 537.134 415.737 535.822 414.711C512.537 396.517 498.918 375.293 485.75 354.768C482.914 350.347 479.979 345.773 477.011 341.335C460.12 316.016 440.642 293.912 417.471 273.758C414.587 271.25 411.601 268.739 408.596 266.29C353.684 221.556 277.926 183.854 189.517 157.258C86.3347 126.291 -23.1792 112.049 -118.854 117.154C-184.261 120.713 -251.144 141.402 -281.504 167.464C-302.187 185.22 -305.855 204.981 -292.118 224.611L-292.463 224.679C-299.655 214.401 -302.162 204.115 -299.912 194.107C-297.842 184.892 -291.752 175.894 -281.815 167.361C-266.229 153.979 -241.544 142.018 -210.429 132.774C-181.652 124.223 -149.145 118.606 -118.891 116.961C-68.734 114.283 -15.0268 116.861 40.7396 124.62C91.1859 131.64 141.306 142.563 189.7 157.086C278.165 183.698 353.962 221.421 408.908 266.183C411.916 268.634 414.902 271.147 417.786 273.654C440.972 293.82 460.457 315.936 477.359 341.267C480.327 345.707 483.262 350.278 486.098 354.701C499.259 375.214 512.871 396.426 536.126 414.598C537.438 415.622 538.79 416.64 540.146 417.625C605.596 464.988 716.84 459.072 792.212 439.616C882.138 416.401 950.952 373.948 1011.67 336.49C1014.38 334.813 1017.1 333.136 1019.81 331.461C1023.48 329.19 1027.15 326.921 1030.83 324.656C1065.78 303.115 1100.29 282.181 1138.24 262.892C1181.87 240.707 1223.9 223.937 1266.71 211.62C1293.35 203.98 1321.31 198.15 1349.82 194.294C1376.47 190.688 1404.48 188.687 1433.09 188.343C1483.54 187.737 1537.31 192.123 1597.46 201.748C1644.45 209.224 1699.86 219.027 1754.54 235.063C1810.89 251.634 1863.58 272.904 1914.54 293.472C1919.54 295.493 1924.54 297.508 1929.52 299.513C2047.14 347.212 2163.1 400.532 2274.15 457.989L2273.89 458.128Z" fill="#FFE492"/>
<path d="M2270.01 456.286C2158.33 397.369 2044.22 343.377 1930.82 295.813C1924.04 292.967 1917.1 290.034 1910.38 287.198C1862.31 266.888 1812.6 245.886 1758.61 230.194C1704.69 214.581 1648.84 206.38 1601.31 200.419C1474.81 184.399 1371.2 190.047 1275.26 218.194C1183.75 245.139 1112.05 285.658 1042.72 324.842L1035.1 329.143C1029.09 332.542 1022.87 336.054 1016.74 339.5C947.34 378.458 877.863 414.972 791.132 433.649C770.086 438.181 748.475 441.322 726.894 442.989C703.719 444.777 681.208 444.802 659.982 443.063C636.928 441.173 615.578 437.204 596.525 431.264C575.79 424.801 557.668 415.961 542.667 404.993C541.315 404 539.97 402.978 538.67 401.954C515.671 383.868 501.561 362.956 487.916 342.732C484.871 338.219 481.72 333.552 478.54 329.02C460.864 303.779 440.903 281.853 417.512 261.988C414.588 259.506 411.558 257.014 408.505 254.585C352.82 210.248 276.465 173.042 187.693 146.988C83.7814 116.581 -26.0404 103.01 -121.55 108.777C-186.36 112.774 -252.939 133.608 -283.453 159.443C-304.48 177.244 -308.874 197.081 -296.159 216.81L-296.508 216.875C-303.161 206.552 -305.217 196.227 -302.619 186.189C-300.223 176.935 -293.88 167.902 -283.768 159.342C-268.012 146.005 -243.416 134.056 -212.631 124.784C-184.139 116.202 -151.808 110.45 -121.594 108.586C-71.4962 105.56 -17.734 107.79 38.2083 115.213C88.7791 121.925 139.13 132.557 187.865 146.818C276.689 172.885 353.087 210.115 408.806 254.478C411.858 256.909 414.892 259.403 417.816 261.885C441.221 281.759 461.194 303.697 478.877 328.952C482.057 333.484 485.208 338.153 488.253 342.666C501.89 362.878 515.993 383.78 538.967 401.845C540.264 402.865 541.608 403.885 542.957 404.878C606.832 451.582 712.964 450.271 790.989 433.469C877.651 414.808 947.098 378.308 1016.47 339.367C1022.6 335.921 1028.82 332.409 1034.83 329.01L1042.45 324.709C1076.48 305.476 1111.67 285.586 1149.89 267.083C1193.18 246.128 1234.13 230.081 1275.08 218.022C1301.44 210.287 1329.01 204.169 1357 199.842C1383.32 195.773 1410.9 193.151 1438.97 192.046C1489.21 190.07 1542.33 192.748 1601.39 200.227C1648.94 206.192 1704.82 214.395 1758.77 230.022C1812.8 245.72 1862.52 266.728 1910.61 287.044C1917.32 289.879 1924.26 292.811 1931.05 295.659C2044.45 343.227 2158.58 397.223 2270.26 456.146L2270.01 456.286Z" fill="#FFE492"/>
<path d="M2266.12 454.445C2155.41 394.874 2043.11 340.205 1932.35 291.961C1924.03 288.336 1915.49 284.566 1907.24 280.921C1861.76 260.829 1814.73 240.054 1762.85 225.16C1709.19 209.814 1653.08 203.276 1605.27 198.906C1482.28 187.491 1380.07 195.656 1283.63 224.601C1199.47 249.967 1130.37 285.916 1063.54 320.681C1056.51 324.339 1049.24 328.121 1042.15 331.786C1033.83 336.089 1027.47 339.359 1021.54 342.384C989.769 358.579 951.942 377.225 912.246 392.735C870.179 409.17 830.157 420.545 789.89 427.51C768.715 431.173 747.196 433.483 725.927 434.374C703.089 435.332 680.976 434.628 660.209 432.281C637.708 429.738 616.856 425.264 598.225 418.985C578.021 412.176 560.276 403.178 545.481 392.245C544.147 391.254 542.81 390.23 541.513 389.202C518.818 371.237 504.235 350.648 490.129 330.736C486.857 326.118 483.475 321.343 480.063 316.706C461.593 291.535 441.144 269.788 417.544 250.219C414.576 247.759 411.502 245.29 408.406 242.88C351.947 198.94 274.992 162.23 185.861 136.718C81.2272 106.87 -28.9023 93.9731 -124.244 100.399C-178.493 104.136 -249.348 121.35 -285.351 151.381C-306.756 169.237 -311.893 189.164 -300.201 209.007L-300.549 209.065C-306.665 198.69 -308.262 188.32 -305.302 178.243C-302.568 168.942 -295.962 159.869 -285.659 151.276C-269.735 137.994 -245.23 126.064 -214.786 116.773C-186.58 108.166 -154.443 102.283 -124.288 100.206C-74.2482 96.8323 -20.4274 98.7144 35.6834 105.801C86.3752 112.204 136.961 122.546 186.033 136.546C275.215 162.072 352.215 198.803 408.707 242.769C411.803 245.179 414.88 247.651 417.848 250.114C441.459 269.693 461.919 291.451 480.401 316.633C483.815 321.273 487.197 326.048 490.469 330.666C504.565 350.567 519.144 371.145 541.813 389.091C543.11 390.117 544.444 391.139 545.778 392.128C598.917 431.399 690.133 444.556 789.776 427.32C880.014 411.713 953.624 376.731 1021.29 342.24C1027.22 339.214 1033.57 335.945 1041.89 331.641C1048.98 327.977 1056.25 324.195 1063.28 320.536C1096.18 303.422 1130.2 285.725 1166.49 269.153C1207.51 250.413 1245.78 235.782 1283.46 224.427C1309.57 216.59 1336.73 210.185 1364.19 205.393C1390.2 200.853 1417.35 197.611 1444.87 195.752C1494.98 192.371 1547.47 193.338 1605.34 198.709C1653.17 203.083 1709.31 209.622 1763.02 224.982C1814.93 239.886 1861.98 260.667 1907.47 280.764C1915.72 284.409 1924.26 288.179 1932.58 291.805C2043.35 340.055 2155.66 394.727 2266.38 454.303L2266.12 454.445Z" fill="#FFE492"/>
<path d="M2262.24 452.605C2152.48 392.374 2042.01 337.028 1933.87 288.107C1924.67 283.946 1915.23 279.578 1906.09 275.355C1862.56 255.236 1817.56 234.434 1767.09 220.122C1713.39 204.959 1657.16 200.122 1609.23 197.39C1491.81 190.516 1388.04 201.512 1292 231.004C1215.53 254.593 1149.98 286.151 1086.58 316.671C1073.78 322.835 1060.54 329.21 1047.67 335.286C1039.79 339.005 1032.82 342.271 1026.33 345.269C996.173 359.196 956.055 377.054 913.186 391.647C870.112 406.309 829.372 416.032 788.639 421.37C744.213 427.192 699.874 427.235 660.42 421.497C638.484 418.305 618.126 413.329 599.912 406.706C580.248 399.555 562.88 390.4 548.286 379.501C546.964 378.508 545.637 377.482 544.348 376.454C521.975 358.626 506.938 338.374 492.399 318.791C488.882 314.054 485.247 309.156 481.579 304.397C462.299 279.293 441.363 257.722 417.572 238.456C414.561 236.017 411.442 233.57 408.302 231.182C351.07 187.638 273.518 151.423 184.028 126.455C78.6723 97.1687 -31.765 84.944 -126.942 92.0286C-191.443 96.9342 -255.846 117.533 -287.195 143.285C-309.011 161.204 -314.906 181.235 -304.244 201.211L-304.595 201.264C-310.168 190.825 -311.304 180.4 -307.974 170.281C-304.896 160.927 -298.007 151.808 -287.503 143.177C-271.41 129.958 -247.001 118.055 -216.912 108.756C-189.003 100.132 -157.067 94.1198 -126.993 91.8332C-77.012 88.112 -23.1326 89.6482 33.1505 96.3967C83.9668 102.491 134.787 112.544 184.196 126.279C273.738 151.262 351.334 187.497 408.603 231.068C411.743 233.456 414.861 235.905 417.876 238.346C441.678 257.624 462.625 279.205 481.916 304.321C485.584 309.08 489.219 313.979 492.736 318.717C507.268 338.29 522.297 358.532 544.648 376.342C545.938 377.37 547.26 378.392 548.583 379.385C600.81 418.403 690.516 434.026 788.551 421.18C877.924 409.467 955.535 377.702 1026.09 345.123C1032.57 342.125 1039.55 338.861 1047.42 335.142C1060.29 329.065 1073.53 322.692 1086.33 316.528C1149.74 286.002 1215.31 254.437 1291.82 230.838C1317.7 222.889 1344.46 216.199 1371.37 210.95C1397.1 205.931 1423.81 202.067 1450.75 199.466C1500.84 194.628 1552.7 193.888 1609.27 197.199C1657.22 199.933 1713.5 204.772 1767.26 219.952C1817.76 234.273 1862.78 255.084 1906.33 275.21C1915.46 279.434 1924.91 283.8 1934.11 287.961C2042.25 336.885 2152.74 392.235 2262.5 452.47L2262.24 452.605Z" fill="#FFE492"/>
<path d="M2258.35 450.763C2149.58 389.868 2040.92 333.848 1935.4 284.255C1925.71 279.697 1915.73 274.872 1906.09 270.205C1864.15 249.916 1820.78 228.936 1771.33 215.085C1717.41 200.052 1661.13 196.938 1613.19 195.875C1500.21 193.186 1397.88 206.771 1300.38 237.408C1231.99 258.996 1171.04 286.319 1112.08 312.74C1091.81 321.826 1072.66 330.408 1053.19 338.786C1045.27 342.197 1038.05 345.261 1031.13 348.152C986.446 366.787 949.271 380.261 914.133 390.553C870.051 403.465 828.596 411.537 787.398 415.227C771.415 416.657 755.491 417.371 739.857 417.371C712.142 417.371 685.325 415.135 660.637 410.706C615.958 402.691 579.105 387.902 551.101 366.75C549.782 365.747 548.467 364.721 547.192 363.697C525.16 346.024 509.701 326.132 494.752 306.893C490.963 302.018 487.05 296.98 483.104 292.08C463 267.035 441.572 245.644 417.61 226.684C414.554 224.267 411.392 221.841 408.208 219.475C350.203 176.327 272.049 140.609 182.2 116.183C76.1227 87.4592 -34.6187 75.9048 -129.63 83.6481C-194.399 89.0364 -256.944 109.245 -288.964 135.133C-311.223 153.127 -317.899 173.277 -308.277 193.405L-308.633 193.454C-313.656 182.943 -314.323 172.456 -310.611 162.283C-307.174 152.867 -299.997 143.697 -289.268 135.025C-273.007 121.878 -248.704 110.015 -218.981 100.716C-191.373 92.0774 -159.661 85.9484 -129.685 83.4546C-79.7631 79.3856 -25.825 80.5739 30.6266 86.9862C81.5675 92.7732 132.618 102.537 182.368 116.007C272.269 140.449 350.466 176.187 408.508 219.359C411.692 221.728 414.854 224.153 417.914 226.573C441.891 245.542 463.329 266.945 483.441 292C487.387 296.9 491.304 301.94 495.089 306.815C510.031 326.044 525.482 345.928 547.496 363.586C548.771 364.608 550.082 365.634 551.401 366.635C603.694 406.137 689.689 423.777 787.335 415.031C880.288 406.706 962.619 376.473 1030.9 347.996C1037.82 345.105 1045.04 342.043 1052.96 338.632C1072.43 330.254 1091.58 321.674 1111.85 312.588C1170.81 286.161 1231.78 258.834 1300.19 237.238C1325.88 229.166 1352.24 222.189 1378.56 216.498C1404.05 210.987 1430.32 206.501 1456.64 203.169C1506.84 196.815 1558.06 194.365 1613.21 195.678C1661.19 196.741 1717.51 199.858 1771.5 214.909C1820.99 228.77 1864.37 249.76 1906.33 270.056C1915.98 274.723 1925.95 279.549 1935.64 284.105C2041.16 333.701 2149.83 389.728 2258.61 450.627L2258.35 450.763Z" fill="#FFE492"/>
<path d="M2254.47 448.923C2145.15 386.491 2041.28 331.368 1936.93 280.401C1926.97 275.538 1917.17 270.572 1906.79 265.315C1866.22 244.763 1824.26 223.513 1775.58 210.049C1720.98 195.021 1662.23 193.771 1617.15 194.361C1509.31 195.588 1408.43 211.765 1308.75 243.815C1248.94 263.138 1193.72 286.342 1140.32 308.785C1112.25 320.579 1085.74 331.718 1058.71 342.289C1050.68 345.43 1043.23 348.291 1035.92 351.037C990.63 368.032 952.231 380.239 915.071 389.456C869.967 400.643 827.797 407.063 786.152 409.084C764.754 410.122 743.503 409.927 722.988 408.504C701.268 406.997 680.361 404.106 660.85 399.914C617.603 390.621 581.626 375.175 553.915 354.004C552.607 352.999 551.303 351.971 550.035 350.947C528.373 333.455 512.526 313.942 497.2 295.073C493.111 290.038 488.883 284.832 484.629 279.77C463.681 254.779 441.771 233.566 417.643 214.919C414.54 212.523 411.333 210.119 408.113 207.774C349.335 165.023 270.584 129.801 180.375 105.917C97.1142 83.9629 11.2515 72.5082 -67.4847 72.5082C-89.7436 72.5082 -111.416 73.4228 -132.32 75.2736C-196.308 81.0508 -258.461 101.332 -290.668 126.942C-313.399 145.02 -320.885 165.307 -312.315 185.607L-312.674 185.65C-317.148 175.057 -317.334 164.498 -313.231 154.266C-309.427 144.782 -301.938 135.551 -290.975 126.833C-274.546 113.767 -250.356 101.953 -221.015 92.6638C-193.318 83.8945 -162.669 77.8143 -132.386 75.0821C-82.5218 70.6652 -28.5251 71.5075 28.0987 77.5818C79.1605 83.058 130.45 92.5309 180.537 105.739C270.796 129.637 349.595 164.879 408.41 207.655C411.634 210 414.844 212.406 417.947 214.804C442.086 233.46 464.008 254.683 484.966 279.686C489.22 284.748 493.452 289.954 497.541 294.991C512.86 313.852 528.699 333.357 550.343 350.835C551.611 351.858 552.915 352.886 554.219 353.888C606.04 393.478 690.561 413.523 786.123 408.887C882.82 404.194 970.302 375.418 1035.72 350.873C1043.02 348.127 1050.47 345.265 1058.5 342.127C1085.53 331.559 1112.03 320.419 1140.1 308.626C1193.51 286.182 1248.73 262.972 1308.56 243.643C1359.89 227.142 1410.25 215.116 1462.53 206.877C1512.96 198.93 1563.54 194.771 1617.15 194.161C1647.74 193.761 1672.7 194.457 1695.69 196.348C1725.38 198.791 1751.57 203.214 1775.75 209.871C1824.48 223.346 1866.46 244.608 1907.05 265.17C1917.43 270.428 1927.23 275.392 1937.18 280.254C2041.54 331.223 2145.42 386.351 2254.74 448.786L2254.47 448.923Z" fill="#FFE492"/>
<path d="M2250.58 447.081C2142.27 383.966 2040.17 328.186 1938.45 276.547C1928.39 271.438 1918.47 266.175 1907.97 260.603C1868.61 239.726 1827.91 218.136 1779.82 205.01C1724.77 190.053 1666.09 190.651 1621.11 192.842C1519.35 197.628 1419.91 216.396 1317.12 250.215C1266.48 266.959 1218.26 286.119 1171.63 304.651C1134.76 319.299 1099.95 333.136 1064.23 345.783C1056.16 348.644 1048.24 351.381 1040.71 353.914C995.335 369.166 954.544 380.429 916.009 388.348C869.868 397.831 826.984 402.603 784.907 402.936C763.498 403.104 742.331 402.072 722.006 399.865C700.7 397.551 680.196 393.934 661.063 389.11C619.3 378.582 584.195 362.48 556.726 341.249C555.436 340.246 554.139 339.216 552.875 338.186C531.62 320.908 515.429 301.807 499.769 283.336C495.339 278.11 490.755 272.704 486.15 267.449C464.345 242.505 441.947 221.472 417.676 203.144C414.529 200.769 411.279 198.387 408.014 196.063C348.463 153.709 269.111 118.984 178.544 95.6403C71.0268 68.0442 -40.3338 57.8345 -135.016 66.8911C-198.176 73.0377 -259.915 93.3712 -292.301 118.69C-315.546 136.864 -323.863 157.303 -316.359 177.801L-316.718 177.838C-320.632 167.154 -320.331 156.512 -315.821 146.21C-311.633 136.647 -303.825 127.35 -292.605 118.579C-276.015 105.608 -251.946 93.852 -223 84.5823C-195.622 75.8149 -165.222 69.6312 -135.082 66.6976C-85.2731 61.9348 -31.2214 62.4273 25.571 68.1654C76.7574 73.3367 128.277 82.5204 178.701 95.4624C269.324 118.817 348.719 153.565 408.304 195.944C411.572 198.267 414.826 200.652 417.973 203.028C442.258 221.366 464.664 242.409 486.479 267.363C491.089 272.619 495.669 278.024 500.102 283.252C515.755 301.716 531.939 320.808 553.179 338.075C554.443 339.103 555.74 340.133 557.026 341.134C609.393 381.605 690.32 403.487 784.899 402.736C861.642 402.13 942.866 386.562 1040.52 353.743C1048.04 351.211 1055.95 348.476 1064.02 345.615C1099.73 332.97 1134.55 319.137 1171.4 304.489C1218.04 285.955 1266.27 266.791 1316.93 250.043C1368.75 232.991 1418.3 220.084 1468.42 210.58C1519.18 200.953 1569.12 195.084 1621.08 192.641C1666.1 190.446 1724.85 189.85 1779.99 204.83C1828.13 217.972 1868.85 239.572 1908.23 260.458C1918.73 266.03 1928.65 271.291 1938.71 276.398C2040.43 328.039 2142.53 383.824 2250.85 446.943L2250.58 447.081Z" fill="#FFE492"/>
<path d="M2246.7 445.24C2139.39 381.439 2039.07 324.998 1939.98 272.695C1929.93 267.385 1919.99 261.867 1909.48 256.026C1871.24 234.775 1831.69 212.802 1784.07 199.974C1728.5 185.071 1669.91 187.524 1625.08 191.325C1529.32 199.29 1434.13 220.037 1325.5 256.62C1284.75 270.402 1244.93 285.521 1206.43 300.142C1159.66 317.9 1115.49 334.674 1069.75 349.283C1061.51 351.918 1053.35 354.447 1045.51 356.796C999.316 370.621 957.265 380.581 916.949 387.242C894.368 390.973 872.076 393.676 850.693 395.276C827.884 396.982 805.332 397.492 783.663 396.793C739.699 395.372 698.522 389.153 661.281 378.31C621.061 366.599 586.832 349.842 559.546 328.5C558.263 327.49 556.977 326.458 555.721 325.434C534.92 308.409 518.439 289.762 502.504 271.731C497.679 266.272 492.692 260.628 487.676 255.136C464.992 230.233 442.107 209.378 417.712 191.376C414.52 189.021 411.223 186.66 407.918 184.36C347.593 142.401 267.644 108.172 176.718 85.3737C68.4825 58.3425 -43.1822 48.8051 -137.707 58.5165C-238.918 69.076 -337.542 114.701 -320.395 170.001L-320.758 170.032C-325.048 156.199 -322.535 142.571 -313.29 129.524C-304.848 117.608 -290.995 106.393 -272.114 96.1952C-254.56 86.7125 -233.499 78.5255 -209.522 71.8611C-186.717 65.523 -161.908 60.8402 -137.78 58.323C-88.0299 53.2122 -33.9196 53.3588 23.045 58.7608C74.356 63.6252 126.11 72.5197 176.872 85.1978C267.849 108.011 347.846 142.26 408.207 184.243C411.516 186.545 414.813 188.906 418.008 191.263C442.414 209.273 465.311 230.14 488.006 255.052C493.022 260.544 498.009 266.188 502.834 271.649C518.765 289.674 535.239 308.313 556.028 325.328C557.281 326.352 558.564 327.384 559.846 328.393C612.289 369.408 691.784 393.629 783.685 396.599C861.487 399.111 947.071 386.038 1045.33 356.628C1053.17 354.279 1061.32 351.752 1069.56 349.117C1115.29 334.512 1159.46 317.739 1206.22 299.984C1244.73 285.361 1284.55 270.24 1325.3 256.456C1433.98 219.858 1529.21 199.102 1625.02 191.132C1655.14 188.577 1680.08 187.761 1703.52 188.564C1733.47 189.59 1759.87 193.264 1784.23 199.798C1831.9 212.64 1871.47 234.627 1909.74 255.889C1920.25 261.729 1930.18 267.246 1940.24 272.554C2039.33 324.861 2139.66 381.304 2246.96 445.109L2246.7 445.24Z" fill="#FFE492"/>
<path d="M2242.81 443.399C2136.53 378.902 2037.97 321.805 1941.51 268.841C1931.53 263.36 1921.67 257.62 1911.23 251.54C1874.02 229.884 1835.54 207.488 1788.31 194.935C1731.53 179.908 1670.22 184.811 1629.04 189.807C1517.27 203.198 1417.11 234.332 1333.87 263.024C1303.96 273.379 1274.12 284.347 1245.25 294.953C1187.36 316.231 1132.68 336.328 1075.28 352.784C1066.83 355.205 1058.44 357.525 1050.31 359.681C1003.22 372.148 959.904 380.802 917.899 386.133C870.282 392.178 824.705 393.699 782.426 390.65C738.992 387.517 698.307 379.731 661.506 367.506C622.905 354.685 589.552 337.274 562.365 315.754C561.097 314.743 559.818 313.71 558.569 312.681C538.285 295.969 521.599 277.835 505.459 260.296C500.171 254.548 494.701 248.607 489.205 242.824C465.297 217.608 442.591 197.523 417.753 179.609C414.518 177.275 411.18 174.938 407.827 172.657C346.722 131.097 266.172 97.3639 174.887 75.1053C65.9335 48.6408 -46.0391 39.7738 -140.402 50.1399C-241.976 61.446 -338.586 106.452 -324.435 162.201L-324.798 162.226C-328.308 148.395 -325.271 134.781 -315.773 121.763C-307.068 109.835 -293.133 98.6088 -274.352 88.3991C-256.838 78.8773 -235.887 70.6297 -212.078 63.8812C-189.409 57.4552 -164.647 52.6376 -140.476 49.9464C-90.7805 44.4878 -36.6152 44.2884 20.5179 49.3523C71.9534 53.9099 123.942 62.5151 175.041 74.9275C266.381 97.1978 346.975 130.95 408.109 172.536C411.462 174.819 414.803 177.158 418.042 179.491C442.895 197.413 465.609 217.51 489.527 242.736C495.023 248.519 500.494 254.462 505.781 260.21C521.917 277.743 538.6 295.872 558.869 312.576C560.119 313.604 561.394 314.636 562.661 315.646C615.511 357.478 693.573 384.046 782.47 390.457C862.199 396.206 949.754 386.081 1050.14 359.505C1058.27 357.351 1066.67 355.033 1075.1 352.612C1132.49 336.16 1187.16 316.066 1245.05 294.791C1273.91 284.184 1303.75 273.214 1333.67 262.858C1389.64 243.566 1436.2 229.313 1480.2 218.003C1531.98 204.689 1580.64 195.404 1628.95 189.615C1658.41 186.043 1684.08 184.424 1707.43 184.671C1737.51 184.987 1764.02 188.286 1788.47 194.759C1835.77 207.328 1874.26 229.737 1911.49 251.407C1921.94 257.485 1931.8 263.226 1941.77 268.702C2038.24 321.668 2136.8 378.769 2243.09 443.268L2242.81 443.399Z" fill="#FFE492"/>
<path d="M2238.93 441.556C2133.67 376.362 2036.88 318.605 1943.04 264.985C1933.2 259.362 1923.46 253.422 1913.15 247.133C1876.92 225.041 1839.47 202.196 1792.56 189.897C1735.16 174.905 1674.01 181.798 1633 188.288C1531.74 204.179 1441.41 234.437 1342.25 269.427C1324.36 275.761 1306.27 282.299 1288.78 288.623C1221.49 312.943 1151.92 338.091 1080.8 356.282C1072.16 358.494 1063.51 360.607 1055.1 362.562C1007.69 373.569 961.846 381.124 918.841 385.02C870.124 389.433 823.811 389.259 781.176 384.506C738.351 379.731 698.16 370.375 661.718 356.698C624.84 342.857 592.355 324.793 565.167 303.007C563.911 301.995 562.643 300.959 561.401 299.931C541.729 283.61 524.937 266.065 508.698 249.099C502.846 242.986 496.797 236.665 490.718 230.515C465.876 205.325 442.698 185.411 417.775 167.845C414.503 165.539 411.117 163.221 407.717 160.958C345.85 119.789 264.707 86.5523 173.055 64.837C63.3869 38.9393 -48.8897 30.7446 -143.099 41.7634C-241.449 53.3921 -339.842 96.8187 -328.48 154.399L-328.843 154.419C-331.573 140.587 -328.011 126.989 -318.261 114C-309.296 102.058 -295.277 90.8226 -276.598 80.6012C-242.134 61.7452 -193.505 47.5191 -143.18 41.57C-93.5432 35.7654 -39.3193 35.2182 17.986 39.9439C69.5461 44.1967 121.766 52.5107 173.201 64.6572C264.905 86.3842 346.096 119.642 408.003 160.831C411.407 163.096 414.792 165.414 418.068 167.722C443.002 185.298 466.191 205.219 491.041 230.419C497.119 236.572 503.172 242.892 509.024 249.005C525.259 265.968 542.047 283.508 561.709 299.822C562.947 300.85 564.215 301.884 565.472 302.896C619.864 346.483 694.478 374.636 781.246 384.312C861.591 393.271 953.675 385.893 1054.95 362.382C1063.35 360.427 1071.99 358.317 1080.63 356.106C1151.73 337.921 1221.29 312.777 1288.56 288.461C1306.06 282.136 1324.15 275.599 1342.04 269.265C1385.44 253.948 1435.95 236.38 1486.08 221.712C1538.52 206.37 1586.54 195.377 1632.89 188.103C1662.07 183.484 1687.74 181.088 1711.35 180.779C1741.12 180.389 1768.49 183.398 1792.71 189.723C1813.72 195.232 1834.87 203.454 1857.37 214.86C1877.23 224.931 1895.63 236.153 1913.42 247.004C1923.72 253.291 1933.46 259.231 1943.3 264.852C2037.15 318.474 2133.94 376.233 2239.2 441.429L2238.93 441.556Z" fill="#FFE492"/>
<path d="M2235.04 439.715C2130.82 373.817 2035.8 315.402 1944.57 261.132C1934.9 255.386 1925.33 249.267 1915.2 242.79C1879.92 220.238 1843.44 196.919 1796.8 184.862C1753.22 173.63 1700.93 174.255 1636.96 186.773C1547.51 204.177 1467.56 233.288 1382.9 264.111C1372.36 267.949 1361.47 271.916 1350.62 275.835C1346.37 277.373 1342.12 278.915 1337.88 280.455C1257.22 309.711 1173.81 339.963 1086.32 359.784C1077.47 361.789 1068.59 363.695 1059.9 365.446C1011.45 375.204 964.307 381.415 919.797 383.905C869.955 386.692 822.898 384.828 779.941 378.363C737.783 372.017 698.087 361.092 661.956 345.89C626.935 331.156 595.322 312.441 567.992 290.26C566.746 289.246 565.49 288.208 564.255 287.178C545.33 271.369 528.593 254.532 512.401 238.25C505.847 231.656 499.064 224.837 492.253 218.2C466.451 193.027 442.803 173.286 417.822 156.076C414.502 153.789 411.077 151.495 407.632 149.253C344.981 108.482 263.237 75.7402 171.226 54.5683C60.8473 29.2393 -51.7408 21.7149 -145.793 33.3866C-242.336 45.4667 -340.59 89.249 -332.519 146.599L-332.885 146.614C-334.831 132.781 -330.749 119.198 -320.746 106.242C-311.516 94.2874 -297.417 83.0379 -278.837 72.8086C-244.52 53.9136 -196.059 39.4764 -145.877 33.197C-96.2953 27.0445 -42.0165 26.1494 15.4574 30.539C67.1421 34.483 119.6 42.5077 171.373 54.3885C263.435 75.5741 345.23 108.334 407.907 149.126C411.351 151.367 414.785 153.666 418.104 155.952C443.096 173.173 466.759 192.92 492.568 218.102C499.383 224.739 506.162 231.56 512.72 238.154C528.904 254.432 545.642 271.266 564.559 287.069C565.794 288.099 567.047 289.135 568.293 290.149C623.865 335.249 697.083 365.684 780.036 378.169C861.924 390.493 956.038 386.149 1059.77 365.258C1068.45 363.507 1077.33 361.604 1086.17 359.6C1173.64 339.787 1257.03 309.541 1337.67 280.289C1341.92 278.747 1346.16 277.207 1350.41 275.669C1361.26 271.75 1372.15 267.783 1382.69 263.946C1467.37 233.118 1547.35 203.999 1636.83 186.588C1665.73 180.932 1691.39 177.76 1715.27 176.886C1745.16 175.794 1772.64 178.418 1796.96 184.684C1817.85 190.084 1838.73 198.343 1860.81 209.935C1880.28 220.162 1898.18 231.601 1915.48 242.663C1925.62 249.138 1935.18 255.255 1944.84 260.999C2036.08 315.271 2131.1 373.688 2235.32 439.588L2235.04 439.715Z" fill="#FFE492"/>
<path d="M2231.16 437.874C2136.03 376.467 2040.12 315.705 1946.09 257.278C1936.52 251.364 1927.03 245.011 1916.99 238.286C1884.33 216.408 1847.3 191.613 1801.05 179.826C1756.95 168.613 1704.58 170.39 1640.92 185.255C1565.23 202.872 1498.24 228.775 1427.33 256.2C1405.12 264.787 1382.15 273.67 1358.99 282.238C1318.56 297.226 1274.82 313.086 1228.97 327.531C1179.87 343.002 1135.01 354.695 1091.83 363.283C1082.76 365.087 1073.63 366.785 1064.68 368.327C1015.2 376.854 966.785 381.707 920.768 382.751C869.827 383.904 822.026 380.362 778.688 372.216C698.659 356.988 628.713 325.125 570.795 277.512C569.561 276.496 568.315 275.456 567.087 274.426C549.123 259.315 532.678 243.373 516.777 227.955C509.291 220.698 501.553 213.193 493.767 205.89C466.983 180.723 442.859 161.155 417.848 144.31C414.481 142.043 411.011 139.77 407.526 137.552C344.113 97.1744 261.768 64.9308 169.398 44.3002C58.3047 19.538 -54.5875 12.6878 -148.485 25.0103C-245.615 37.8292 -341.407 81.0311 -336.56 138.799L-336.926 138.807C-338.088 124.97 -333.478 111.402 -323.23 98.4799C-313.733 86.5092 -299.553 75.248 -281.079 65.0109C-263.675 55.366 -243.047 46.9327 -219.769 39.9438C-197.169 33.1601 -173.218 28.0709 -148.577 24.8188C-99.0504 18.3204 -44.713 17.0774 12.9295 21.1289C64.7387 24.7699 117.427 32.5034 169.537 44.1184C261.962 64.7607 344.355 97.0239 407.805 137.421C411.289 139.641 414.766 141.916 418.134 144.183C443.155 161.038 467.29 180.613 494.085 205.788C501.871 213.093 509.61 220.598 517.095 227.857C532.997 243.273 549.438 259.213 567.395 274.319C568.619 275.351 569.868 276.388 571.099 277.405C628.973 324.981 698.857 356.818 778.809 372.031C861.165 387.51 959.98 386.165 1064.57 368.139C1073.51 366.597 1082.64 364.901 1091.7 363.099C1188.25 343.901 1276.58 312.547 1358.78 282.076C1381.94 273.508 1404.9 264.627 1427.11 256.039C1498.04 228.609 1565.04 202.7 1640.77 185.075C1704.52 170.187 1757 168.41 1801.2 179.648C1821.92 184.927 1842.49 193.202 1864.09 204.942C1883.13 215.294 1900.49 226.921 1917.28 238.162C1927.32 244.888 1936.8 251.239 1946.37 257.149C2040.4 315.578 2136.31 376.34 2231.44 437.749L2231.16 437.874Z" fill="#FFE492"/>
<path d="M2227.27 436.033C2133.6 374.286 2039.51 312.848 1947.62 253.424C1938.35 247.446 1929.15 240.981 1919.4 234.137C1887.54 211.749 1851.43 186.373 1805.29 174.786C1760.67 163.593 1708.2 166.52 1644.87 183.733C1578.53 201.741 1517.57 227.167 1458.63 251.759C1429.07 264.09 1398.5 276.84 1367.36 288.639C1318.2 307.28 1276.84 321.5 1237.2 333.392C1188.31 348.056 1142.56 358.977 1097.35 366.779C1088.07 368.382 1078.69 369.871 1069.48 371.206C1021.46 378.158 974.314 381.676 929.209 381.678C926.703 381.678 924.212 381.666 921.72 381.644C869.574 381.191 821.033 375.949 777.446 366.068C756.407 361.272 735.804 355.184 716.212 347.972C697.797 341.194 679.701 333.211 662.425 324.244C631.343 308.112 602.287 288.654 573.605 264.762C572.374 263.734 571.146 262.704 569.926 261.67C553.284 247.573 537.54 232.837 522.316 218.585C513.526 210.359 504.439 201.852 495.287 193.571C467.107 168.058 443.235 149.234 417.877 132.537C414.466 130.292 410.952 128.04 407.423 125.844C343.241 85.8665 260.298 54.1193 167.569 34.0301C55.7651 9.83661 -57.4349 3.65877 -151.179 16.632C-246.487 29.8594 -342.155 73.3896 -340.598 130.995L-340.964 130.997C-341.69 104.165 -321.754 78.6508 -283.315 57.2131C-265.94 47.5232 -245.421 39.0294 -222.323 31.9623C-199.848 25.0868 -175.944 19.8646 -151.271 16.4405C-101.803 9.59427 -47.4065 8.00534 10.4045 11.7187C62.3384 15.0548 115.261 22.4991 167.705 33.8463C260.492 53.9492 343.482 85.716 407.705 125.717C411.234 127.915 414.755 130.169 418.166 132.414C443.536 149.12 467.418 167.951 495.605 193.473C504.758 201.756 513.849 210.264 522.635 218.49C537.859 232.739 553.6 247.473 570.238 261.567C571.458 262.6 572.682 263.63 573.913 264.656C634.86 315.428 701.483 348.541 777.589 365.888C882.999 389.786 994.447 381.869 1069.38 371.018C1078.59 369.684 1087.96 368.196 1097.24 366.594C1201.22 348.648 1296.1 315.422 1367.15 288.48C1398.29 276.686 1428.85 263.935 1458.4 251.607C1517.37 227.011 1578.33 201.576 1644.71 183.561C1673.04 175.858 1698.69 171.129 1723.1 169.104C1753.22 166.606 1780.92 168.459 1805.44 174.612C1826.1 179.801 1846.48 188.142 1867.72 200.111C1886.44 210.656 1903.35 222.533 1919.7 234.021C1929.44 240.864 1938.63 247.327 1947.9 253.301C2039.79 312.725 2133.88 374.163 2227.56 435.91L2227.27 436.033Z" fill="#FFE492"/>
<path d="M2223.39 434.192L1949.15 249.572C1940.19 243.543 1931.3 236.982 1921.88 230.038C1890.81 207.121 1855.58 181.147 1809.53 169.751C1765 158.732 1710.94 162.926 1648.83 182.218C1589.13 200.763 1534.68 225.426 1482.02 249.277C1447.7 264.824 1412.2 280.899 1375.74 295.047C1266.13 337.571 1170.34 362.687 1074.28 374.091C1034.43 378.82 995.114 381.201 956.99 381.201C945.434 381.201 933.995 380.982 922.676 380.544C869.299 378.48 820.018 371.542 776.207 359.925C735.602 349.156 698.457 333.955 662.659 313.45C634.072 297.076 606.669 277.555 576.423 252.017C560.458 238.54 545 224.536 530.051 210.994C496.217 180.349 461.233 148.661 417.921 120.772C351.485 77.9959 264.281 44.4506 165.737 23.7614C53.2257 0.138649 -60.282 -5.36883 -153.872 8.25525C-244.483 21.4455 -342.829 63.0389 -344.639 123.195L-345.006 123.191C-344.196 96.3027 -323.637 70.792 -285.553 49.4168C-251.119 30.0897 -204.388 15.4044 -153.967 8.06567C-104.554 0.873502 -50.0997 -1.0633 7.87616 2.31194C59.9346 5.34125 113.092 12.4982 165.873 23.5797C214.633 33.8168 260.943 47.2923 303.519 63.633C346.45 80.1105 385.036 99.291 418.199 120.643C461.53 148.542 496.525 180.238 530.366 210.891C545.315 224.431 560.773 238.432 576.734 251.908C620.863 289.17 683.438 335.1 776.372 359.745C882.951 388.008 997.155 383.04 1074.19 373.895C1170.21 362.499 1265.95 337.393 1375.52 294.885C1411.97 280.743 1447.46 264.668 1481.78 249.125C1534.45 225.269 1588.92 200.601 1648.65 182.046C1710.86 162.721 1765.04 158.523 1809.69 169.571C1830.31 174.674 1850.49 183.088 1871.4 195.297C1889.8 206.044 1906.26 218.183 1922.18 229.921C1931.59 236.865 1940.49 243.422 1949.44 249.449L2223.68 434.069L2223.39 434.192Z" fill="#FFE492"/>
<path d="M2221.18 419.999C2151.35 368.595 2091.43 326.882 2032.62 288.73C2004.08 270.197 1974.92 251.954 1945.97 234.509C1937.21 229.233 1928.54 223.62 1919.35 217.676C1896.27 202.739 1872.4 187.293 1844.93 175.831C1830.18 169.665 1815.98 165.25 1801.52 162.334C1757.14 153.295 1705.07 159.271 1646.75 180.099C1616.57 190.862 1589.09 203.11 1566.19 213.672C1541.95 224.853 1518.03 237.183 1494.9 249.107C1461.66 266.247 1427.28 283.969 1390.33 299.19C1367.84 308.479 1345.05 316.78 1322.58 323.862C1277.62 338.032 1229.36 349.707 1179.15 358.565C1148.13 363.976 1116.95 368.067 1086.5 370.721C1060.26 373 1033.96 374.315 1008.35 374.63C970.012 375.103 932.661 373.299 897.333 369.263C859.769 364.971 824.221 358.121 791.677 348.9C762.658 340.678 735.247 330.326 707.881 317.249C656.885 292.901 616.21 264.748 586.473 242.941C571.865 232.178 557.601 221.202 543.806 210.588C504.084 180.019 466.564 151.147 419.614 125.429C381.321 104.591 337.631 86.6087 289.746 71.9781C252.948 60.7345 212.926 51.5391 170.793 44.6459C160.758 43.0062 150.531 41.4778 140.408 40.1078C96.8206 34.2192 47.752 30.3847 -5.43133 28.7098C-59.0506 26.9821 -105.441 28.4772 -147.244 33.285C-170.877 35.9821 -193.773 40.2133 -215.307 45.8596C-291.328 65.7944 -340.143 99.2595 -345.889 135.381L-346.347 135.359C-344.815 125.73 -340.319 116.245 -332.988 107.165C-326.022 98.5403 -316.456 90.2224 -304.555 82.4419C-282.069 67.7449 -251.276 55.0179 -215.508 45.6387C-193.942 39.9827 -171.009 35.7456 -147.339 33.0446C-105.492 28.2329 -59.0653 26.7358 -5.40203 28.4655C47.8106 30.1404 96.9048 33.9788 140.521 39.8713C150.656 41.2433 160.886 42.7716 170.929 44.4133C213.095 51.3104 253.15 60.5136 289.977 71.767C337.895 86.4074 381.621 104.405 419.932 125.257C466.913 150.99 504.439 179.87 544.176 210.447C557.967 221.061 572.231 232.035 586.836 242.796C616.558 264.593 657.214 292.733 708.181 317.065C735.518 330.128 762.9 340.471 791.886 348.683C855.577 366.728 928.4 375.376 1008.33 374.385C1033.93 374.071 1060.2 372.755 1086.43 370.479C1116.86 367.825 1148.01 363.738 1179 358.33C1229.19 349.479 1277.41 337.811 1322.34 323.649C1344.8 316.572 1367.58 308.276 1390.04 298.995C1426.98 283.782 1461.35 266.063 1494.58 248.929C1517.71 237.003 1541.63 224.669 1565.89 213.484C1588.8 202.917 1616.29 190.665 1646.5 179.894C1672.46 170.62 1697.6 164.214 1721.22 160.85C1750.24 156.719 1777.31 157.141 1801.68 162.105C1816.19 165.031 1830.42 169.457 1845.21 175.637C1872.72 187.117 1896.6 202.573 1919.7 217.52C1928.89 223.461 1937.56 229.074 1946.31 234.347C1975.27 251.794 2004.43 270.038 2032.98 288.576C2091.79 326.731 2151.71 368.448 2221.55 419.856L2221.18 419.999Z" fill="#FFE492"/>
<path d="M2218.97 405.803C2154.22 353.528 2093.46 309.785 2033.19 272.075C2003.81 253.655 1973.39 235.948 1942.79 219.447C1934.67 215.069 1926.66 210.519 1918.17 205.704C1892.76 191.282 1866.48 176.37 1837.05 166.053C1822.19 160.821 1807.95 157.178 1793.51 154.915C1738.22 146.245 1682.06 162.67 1644.67 177.975C1618.19 188.787 1594 201.011 1569.49 213.631C1548.05 224.677 1527.87 236.56 1506.51 249.138C1474.8 267.811 1442.02 287.118 1404.92 303.33C1382.9 313.002 1359.92 321.365 1336.62 328.186C1293.22 340.893 1245.7 350.761 1191.33 358.356C1160.9 362.605 1129.75 365.632 1098.72 367.35C1072.54 368.782 1046.41 369.294 1021.04 368.866C983.313 368.237 946.431 365.407 911.417 360.457C874.645 355.256 839.559 347.657 807.136 337.872C778.728 329.3 751.3 318.664 723.281 305.358C672.395 281.227 628.804 254.476 596.517 233.865C584.565 226.235 572.803 218.558 561.426 211.131C516.121 181.557 473.328 153.621 421.307 130.086C382.428 112.497 338.778 97.6238 291.578 85.8818C255.865 76.9971 218.012 70.3405 175.861 65.5307C166.133 64.4226 156.237 63.4239 146.45 62.562C103.464 58.7959 57.5864 57.3711 2.08012 55.8975C-37.931 54.7815 -90.3082 54.0467 -140.626 58.3112C-164.457 60.2929 -187.493 63.7346 -209.1 68.5366C-285.172 85.4479 -336.776 114.991 -347.145 147.566L-347.688 147.518C-344.939 138.879 -339.37 130.407 -331.144 122.333C-323.303 114.641 -313 107.265 -300.524 100.405C-276.814 87.373 -245.274 76.2584 -209.312 68.2649C-187.665 63.4532 -164.585 60.0056 -140.714 58.02C-90.3485 53.7496 -37.931 54.4864 2.10575 55.6024C57.6304 57.076 103.522 58.5007 146.538 62.2688C156.332 63.1327 166.236 64.1314 175.975 65.2395C218.166 70.0551 256.056 76.7177 291.809 85.6121C339.057 97.3658 382.743 112.251 421.662 129.858C473.72 153.41 516.531 181.354 561.851 210.94C573.224 218.364 584.986 226.041 596.938 233.669C629.218 254.272 672.791 281.014 723.647 305.134C751.633 318.425 779.032 329.05 807.407 337.612C871.161 356.853 943.049 367.268 1021.06 368.569C1046.4 368.995 1072.51 368.485 1098.66 367.053C1129.66 365.337 1160.79 362.313 1191.19 358.066C1245.51 350.48 1293 340.62 1336.36 327.924C1359.63 321.111 1382.58 312.76 1404.57 303.097C1441.64 286.899 1474.41 267.599 1506.11 248.937C1527.48 236.353 1547.66 224.468 1569.12 213.416C1593.63 200.788 1617.83 188.56 1644.34 177.736C1668.58 167.814 1692.48 160.676 1715.39 156.518C1743.17 151.475 1769.51 150.84 1793.67 154.628C1808.16 156.901 1822.45 160.555 1837.36 165.803C1866.84 176.14 1893.14 191.065 1918.58 205.499C1927.06 210.312 1935.08 214.86 1943.19 219.236C1973.8 235.743 2004.22 253.456 2033.62 271.882C2093.89 309.601 2154.68 353.352 2219.43 405.638L2218.97 405.803Z" fill="#FFE492"/>
<path d="M2216.76 391.606C2156.16 337.753 2096.31 293.206 2033.77 255.422C2003.53 237.115 1971.85 219.946 1939.62 204.387C1932.73 201.061 1925.63 197.531 1918.77 194.118C1890.45 180.019 1861.16 165.442 1829.18 156.278C1814.17 151.947 1799.88 149.074 1785.51 147.496C1730.33 141.44 1677.34 159.573 1642.59 175.849C1619.05 186.836 1597.52 199.29 1576.7 211.335L1572.8 213.59C1553.9 224.517 1536.17 236.502 1517.4 249.191C1487.5 269.398 1456.59 290.29 1419.51 307.469C1397.93 317.539 1374.77 325.964 1350.67 332.511C1308.64 343.927 1261.88 352.073 1203.5 358.147C1173.31 361.288 1142.17 363.25 1110.93 363.977C1084.81 364.561 1058.84 364.268 1033.73 363.101C957.701 359.585 886.663 347.386 822.587 326.843C794.887 317.963 767.44 307.047 738.681 293.468C690.012 270.537 646.725 246.967 606.563 224.791C601.177 221.818 595.85 218.865 590.563 215.935C535.709 185.547 483.899 156.842 423.011 134.75C383.26 120.326 339.654 108.565 293.41 99.7896C259.46 93.348 222.665 88.974 180.932 86.4177C171.527 85.845 161.96 85.374 152.496 85.0183C128.687 84.1388 103.434 83.9962 76.6981 83.8457C55.2233 83.7245 33.0193 83.5994 9.58787 83.0893C-35.6665 82.0203 -86.9555 80.8105 -134.016 83.3434C-158.298 84.6509 -181.473 87.3011 -202.9 91.2216C-278.943 105.137 -333.339 130.761 -348.409 159.766L-349.028 159.674C-345.057 152.027 -338.417 144.567 -329.298 137.502C-320.577 130.745 -309.541 124.308 -296.497 118.368C-271.549 107.009 -239.254 97.5108 -203.112 90.8971C-181.637 86.9669 -158.415 84.3108 -134.086 83.0014C-86.9774 80.4665 -35.6628 81.6783 9.60985 82.7473C33.0266 83.2555 55.2306 83.3825 76.6981 83.5037C103.445 83.6542 128.705 83.7968 152.536 84.6783C162.008 85.0359 171.585 85.5069 180.998 86.0796C222.783 88.6379 259.621 93.0177 293.619 99.4691C339.918 108.254 383.571 120.029 423.366 134.468C484.31 156.58 536.145 185.298 591.021 215.701C596.308 218.631 601.639 221.582 607.021 224.556C647.175 246.729 690.448 270.293 739.102 293.216C767.832 306.78 795.25 317.685 822.917 326.554C886.909 347.071 957.855 359.253 1033.78 362.765C1058.87 363.93 1084.81 364.223 1110.9 363.639C1142.1 362.912 1173.22 360.952 1203.37 357.815C1261.69 351.746 1308.41 343.61 1350.37 332.21C1374.43 325.677 1397.54 317.267 1419.08 307.215C1456.12 290.058 1487.01 269.177 1516.89 248.982C1535.67 236.287 1553.41 224.296 1572.33 213.361L1576.22 211.106C1597.05 199.055 1618.59 186.594 1642.17 175.595C1677.02 159.266 1730.2 141.08 1785.63 147.164C1800.07 148.749 1814.41 151.632 1829.48 155.98C1861.53 165.164 1890.85 179.758 1919.21 193.872C1926.06 197.285 1933.16 200.814 1940.04 204.139C1972.29 219.705 2003.98 236.885 2034.24 255.201C2096.81 293.001 2156.68 337.563 2217.3 391.434L2216.76 391.606Z" fill="#FFE492"/>
<path d="M2214.55 377.407C2158.91 322.741 2098.28 276.095 2034.34 238.77C2003.26 220.579 1970.32 203.945 1936.45 189.33C1931.56 187.219 1926.55 185.028 1921.7 182.91C1889.69 168.914 1856.59 154.44 1821.33 146.505C1806.19 143.064 1791.86 140.963 1777.52 140.079C1722.5 136.694 1672.65 156.506 1640.52 173.722C1620.57 184.358 1602.57 196.186 1585.15 207.625C1582.14 209.605 1579.13 211.581 1576.11 213.549C1559.55 224.361 1544.06 236.439 1527.66 249.224C1499.79 270.961 1470.96 293.437 1434.1 311.613C1412.45 322.286 1389.76 330.537 1364.71 336.842C1312.32 350.028 1259.97 354.908 1215.67 357.945C1185.7 359.998 1154.57 360.897 1123.14 360.611C1097.1 360.347 1071.29 359.247 1046.42 357.343C972.673 351.713 902.565 337.743 838.045 315.82C811.199 306.701 783.737 295.503 754.084 281.585C724.131 267.561 696.218 254.065 669.222 241.014C650.876 232.143 633.545 223.765 616.621 215.726C552.647 185.339 494.049 158.623 424.729 139.419C384.124 128.171 340.563 119.517 295.253 113.699C262.779 109.528 228.066 107.498 186.014 107.304C176.942 107.269 167.701 107.326 158.552 107.474C144.655 107.715 130.277 108.217 115.06 108.75C85.8582 109.773 52.7537 110.931 17.0955 110.283C3.5166 110.034 -10.3371 109.685 -23.7364 109.345C-58.2002 108.471 -93.8365 107.568 -127.41 108.375C-152.065 108.969 -175.383 110.83 -196.708 113.906C-272.622 124.86 -329.807 146.568 -349.681 171.973L-350.358 171.823C-345.155 165.17 -337.446 158.724 -327.447 152.664C-317.844 146.843 -306.075 141.346 -292.474 136.325C-266.265 126.651 -233.22 118.769 -196.905 113.529C-175.53 110.445 -152.16 108.578 -127.45 107.984C-93.8402 107.175 -58.1892 108.08 -23.7071 108.954C-10.3114 109.294 3.54225 109.644 17.1175 109.892C52.7428 110.541 85.8215 109.384 115.009 108.361C130.233 107.828 144.614 107.326 158.527 107.085C167.687 106.937 176.935 106.88 186.018 106.915C228.129 107.107 262.893 109.143 295.422 113.32C340.786 119.146 384.406 127.81 425.062 139.073C456.375 147.746 488.106 158.736 522.067 172.667C552.472 185.138 582.047 198.783 617.105 215.435C634.029 223.475 651.36 231.854 669.709 240.725C696.702 253.774 724.615 267.269 754.561 281.292C784.184 295.196 811.617 306.383 838.43 315.492C902.862 337.385 972.87 351.336 1046.51 356.958C1071.36 358.86 1097.14 359.958 1123.14 360.222C1154.54 360.508 1185.64 359.611 1215.56 357.558C1259.81 354.527 1312.1 349.653 1364.39 336.49C1389.37 330.203 1412.01 321.973 1433.6 311.327C1470.39 293.183 1499.2 270.725 1527.05 249.006C1543.46 236.212 1558.95 224.128 1575.54 213.305C1578.55 211.337 1581.56 209.361 1584.57 207.383C1602 195.936 1620.02 184.1 1639.99 173.451C1660.9 162.25 1682.34 153.633 1703.73 147.84C1729.07 140.978 1753.92 138.238 1777.59 139.696C1792 140.584 1806.4 142.694 1821.6 146.15C1856.95 154.106 1890.1 168.598 1922.15 182.611C1927 184.729 1932.01 186.92 1936.89 189.029C1970.79 203.656 2003.75 220.305 2034.86 238.51C2068.81 258.33 2102.06 280.911 2133.68 305.626C2161.63 327.471 2189.05 351.56 2215.17 377.224L2214.55 377.407Z" fill="#FFE492"/>
<path d="M2212.33 363.204C2160.84 306.971 2101.15 259.502 2034.92 222.117C2002.98 204.04 1968.79 187.944 1933.29 174.271C1931.6 173.62 1929.91 172.969 1928.22 172.317C1891.3 158.081 1853.13 143.36 1813.49 136.733C1798.13 134.165 1783.75 132.834 1769.55 132.662C1714.75 132.001 1668.02 153.468 1638.47 171.592C1621.08 182.194 1605.64 193.815 1590.71 205.053C1587.02 207.832 1583.2 210.705 1579.44 213.504C1565.09 224.163 1551.75 236.282 1537.62 249.115C1511.94 272.456 1485.38 296.591 1448.71 315.752C1427.49 326.837 1404.61 335.151 1378.76 341.171C1327.84 353.028 1276.13 356.141 1227.84 357.74C1198.06 358.725 1166.94 358.557 1135.34 357.241C1109.4 356.127 1083.75 354.222 1059.11 351.58C987.871 343.957 918.694 328.217 853.507 304.793C827.401 295.414 800.705 284.262 769.499 269.698C710.189 242.094 666.148 222.652 626.701 206.659C548.243 174.852 488.362 156.138 426.48 144.087C385.051 136.02 341.534 130.475 297.129 127.606C266.322 125.616 233.628 125.794 191.125 128.188C182.416 128.685 173.505 129.269 164.638 129.928C156.262 130.559 147.754 131.282 138.745 132.046C105.479 134.87 67.7725 138.072 24.6177 137.474C1.8714 137.159 -21.3622 136.297 -43.83 135.465C-69.3645 134.519 -95.7675 133.54 -120.8 133.407C-145.899 133.274 -169.359 134.345 -190.512 136.592C-266.174 144.627 -326.154 162.422 -350.956 184.192L-351.659 183.963C-345.218 178.307 -336.439 172.876 -325.568 167.82C-315.074 162.938 -302.58 158.382 -288.429 154.276C-260.942 146.298 -227.137 140.032 -190.673 136.16C-169.462 133.909 -145.95 132.834 -120.793 132.967C-95.7382 133.1 -69.3206 134.079 -43.775 135.027C-21.3145 135.859 1.90802 136.721 24.6359 137.036C67.7139 137.632 105.38 134.435 138.609 131.614C147.623 130.848 156.138 130.127 164.517 129.494C173.395 128.835 182.314 128.251 191.03 127.753C233.599 125.356 266.348 125.177 297.221 127.172C341.688 130.045 385.267 135.597 426.755 143.677C488.721 155.743 548.664 174.476 627.192 206.311C666.653 222.31 710.71 241.758 770.034 269.37C801.218 283.922 827.885 295.062 853.962 304.432C919.061 327.822 988.135 343.541 1059.26 351.152C1083.87 353.79 1109.49 355.692 1135.4 356.806C1166.96 358.119 1198.04 358.287 1227.78 357.304C1276 355.707 1327.62 352.602 1378.43 340.772C1404.18 334.776 1426.98 326.489 1448.12 315.443C1484.71 296.323 1511.25 272.214 1536.91 248.898C1551.04 236.057 1564.39 223.928 1578.76 213.253C1582.53 210.457 1586.35 207.584 1590.03 204.805C1604.97 193.557 1620.42 181.928 1637.84 171.308C1657.12 159.48 1677.34 150.125 1697.93 143.499C1722.05 135.738 1746.15 131.949 1769.56 132.228C1783.85 132.4 1798.29 133.739 1813.73 136.319C1853.5 142.969 1891.73 157.71 1928.7 171.967C1930.39 172.62 1932.08 173.272 1933.77 173.921C1969.31 187.61 2003.54 203.726 2035.51 221.821C2101.8 259.24 2161.54 306.746 2213.07 363.019L2212.33 363.204Z" fill="#FFE492"/>
<path d="M1246.07 357.537C1244.01 357.537 1241.99 357.535 1239.99 357.529C1210.37 357.463 1179.26 356.232 1147.54 353.867C1121.69 351.903 1096.2 349.192 1071.79 345.813C1036.91 340.993 1001.9 334.067 967.733 325.227C934.739 316.69 901.51 306.105 868.966 293.763C837.078 281.671 807.293 268.198 784.906 257.81C732.525 233.572 682.687 213.313 636.777 197.593C562.419 172.135 496.155 156.616 428.235 148.753C387.261 144.01 343.3 141.508 300.973 141.508C300.317 141.508 299.665 141.508 299.009 141.51C262.647 141.576 228.125 145.18 196.24 149.066C187.941 150.084 179.357 151.196 170.724 152.375C165.994 153.027 161.256 153.7 156.244 154.411C120.89 159.436 80.8164 165.129 32.1325 164.662C2.48324 164.376 -27.7999 162.739 -57.0865 161.154C-75.9965 160.13 -95.5477 159.072 -114.198 158.433C-139.835 157.556 -163.427 157.837 -184.327 159.274C-259.586 164.441 -322.362 178.325 -352.256 196.415L-352.945 196.092C-337.611 186.815 -314.546 178.782 -284.391 172.216C-255.592 165.946 -221.029 161.302 -184.444 158.791C-163.49 157.352 -139.835 157.067 -114.139 157.948C-95.4707 158.588 -75.9085 159.647 -56.9912 160.671C-27.723 162.256 2.54184 163.894 32.1508 164.177C80.7101 164.644 120.714 158.959 156.009 153.944C161.025 153.231 165.763 152.558 170.497 151.905C179.137 150.727 187.729 149.613 196.035 148.595C227.975 144.704 262.556 141.094 299.005 141.025C342.006 140.945 386.755 143.455 428.43 148.28C463.483 152.339 497.467 158.314 532.316 166.546C565.878 174.475 600.21 184.497 637.268 197.187C683.215 212.918 733.089 233.193 785.503 257.447C807.872 267.828 837.635 281.292 869.49 293.37C935.527 318.414 1003.67 335.9 1072.02 345.346C1096.4 348.721 1121.85 351.428 1147.67 353.39C1179.35 355.751 1210.41 356.982 1239.99 357.047C1286.28 357.148 1340.03 356.316 1392.46 345.048C1418.99 339.346 1441.95 331.006 1462.64 319.555C1498.98 299.445 1523.06 273.633 1546.36 248.669C1558.35 235.829 1569.67 223.7 1581.97 213.201C1585.92 209.838 1589.9 206.372 1593.74 203.021C1606.74 191.697 1620.18 179.99 1635.67 169.169C1653.36 156.719 1672.35 146.621 1692.11 139.155C1715.01 130.499 1738.36 125.656 1761.5 124.761C1775.79 124.208 1790.29 124.773 1805.83 126.489C1847.38 131.074 1888.57 144.395 1930.62 158.812C1967.28 171.383 2003.77 187.399 2036.14 205.131C2072.1 224.771 2105.89 247.812 2136.56 273.611C2163.88 296.597 2188.91 321.899 2210.95 348.815L2210.11 349.01C2162.78 291.207 2104.03 242.914 2035.49 205.473C2003.16 187.767 1966.73 171.774 1930.13 159.225C1888.15 144.833 1847.04 131.537 1805.64 126.967C1790.19 125.261 1775.77 124.7 1761.57 125.249C1719.04 126.897 1674.59 142.599 1636.4 169.466C1620.94 180.268 1607.51 191.965 1594.52 203.277C1590.68 206.63 1586.69 210.098 1582.75 213.461C1570.47 223.941 1559.15 236.06 1547.18 248.888C1535.75 261.137 1523.93 273.803 1510.37 285.979C1494.99 299.783 1479.6 310.876 1463.3 319.895C1442.52 331.397 1419.46 339.774 1392.8 345.504C1369.29 350.558 1344.02 353.898 1315.55 355.72C1291.43 357.254 1267.22 357.537 1246.07 357.537Z" fill="#FFE492"/>
<path d="M1304.82 358.516C1286.14 358.516 1268.19 357.922 1252.14 357.32C1222.62 356.214 1191.52 353.917 1159.73 350.493C1133.98 347.681 1108.66 344.167 1084.45 340.045C1018.18 328.782 952.74 310.033 884.41 282.732C854.61 270.828 826.518 258.019 800.306 245.921C748.555 222.107 696.929 202.798 646.853 188.527C573.206 167.538 504.301 156.381 430.002 153.414C387.667 151.724 343.025 152.413 300.896 155.408C265.633 157.913 232.39 163.96 201.356 169.937C193.591 171.439 185.333 173.081 176.814 174.815C174.685 175.25 172.538 175.694 170.362 176.142C134.619 183.514 94.1755 191.855 42.271 191.855C41.3953 191.855 40.5233 191.853 39.6403 191.847C4.52426 191.658 -31.3282 188.984 -66.0045 186.396C-79.7519 185.37 -93.9683 184.311 -107.609 183.453C-134.254 181.78 -157.33 181.286 -178.16 181.946C-253.921 184.35 -317.869 194.075 -353.601 208.634L-354.213 208.205C-336.549 201.009 -311.007 194.761 -280.357 190.137C-250.21 185.589 -214.892 182.572 -178.223 181.409C-157.334 180.746 -134.199 181.241 -107.496 182.918C-93.8401 183.776 -79.62 184.837 -65.869 185.861C-31.2256 188.445 4.59388 191.116 39.6439 191.306C92.6294 191.595 133.732 183.115 169.992 175.636C172.164 175.188 174.315 174.744 176.444 174.307C184.97 172.571 193.232 170.929 201.004 169.426C232.089 163.438 265.395 157.383 300.753 154.87C342.948 151.872 387.664 151.18 430.067 152.873C466.887 154.342 501.992 157.813 537.387 163.481C573.84 169.319 609.799 177.353 647.318 188.048C697.457 202.338 749.149 221.671 800.955 245.509C827.156 257.603 855.23 270.404 885.004 282.297C953.242 309.56 1018.58 328.282 1084.75 339.527C1108.92 343.641 1134.21 347.151 1159.92 349.96C1191.67 353.38 1222.72 355.674 1252.2 356.777C1301.8 358.633 1354.57 359.587 1406.48 349.313C1433.8 343.905 1456.91 335.513 1477.15 323.656C1513.19 302.534 1535.63 273.725 1555.42 248.306C1565.38 235.516 1574.79 223.436 1585.17 213.138C1588.92 209.423 1592.69 205.583 1596.33 201.869C1607.74 190.25 1619.53 178.237 1633.48 167.017C1649.63 153.946 1667.39 143.105 1686.28 134.795C1707.97 125.251 1730.56 119.357 1753.43 117.279C1767.73 115.98 1782.28 115.772 1797.92 116.64C1841.61 119.069 1886 131.073 1927.46 143.685C1965.75 155.329 2003.54 170.8 2036.77 188.425C2073.73 207.973 2107.78 231.244 2137.98 257.587C2164.98 281.145 2188.82 307.053 2208.83 334.594L2207.89 334.788C2165.36 276.246 2105.94 225.766 2036.06 188.804C2002.9 171.213 1965.18 155.771 1926.97 144.15C1885.6 131.568 1841.33 119.593 1797.82 117.174C1782.27 116.31 1767.81 116.517 1753.61 117.807C1711.38 121.643 1669.02 139.223 1634.33 167.31C1620.4 178.507 1608.62 190.508 1597.23 202.116C1593.59 205.831 1589.82 209.671 1586.07 213.391C1575.71 223.665 1566.31 235.733 1556.36 248.509C1536.53 273.967 1514.06 302.824 1477.89 324.015C1457.55 335.937 1434.3 344.376 1406.83 349.815C1383 354.533 1357.28 357.265 1328.21 358.162C1320.36 358.416 1312.53 358.516 1304.82 358.516Z" fill="#FFE492"/>
<path d="M1341.7 360.633C1341.43 360.633 1341.17 360.633 1340.9 360.633C1314.5 360.598 1288.58 358.874 1264.28 357.111C1234.81 354.973 1203.73 351.609 1171.92 347.118C1146.29 343.462 1121.13 339.14 1097.13 334.278C1033.5 321.404 970.818 301.522 899.865 271.704C874.312 260.968 849.166 249.408 824.844 238.231C821.803 236.832 818.758 235.434 815.713 234.037C763.695 210.228 710.277 191.867 656.947 179.464C583.92 162.483 510.269 155.486 431.786 158.075C388.752 159.496 344.15 163.38 302.801 169.305C270.177 173.982 241.106 181.485 206.489 190.808C199.472 192.705 191.979 194.754 182.914 197.255L182.409 197.396C164.92 202.255 145.098 207.76 122.865 211.946C97.33 216.754 72.5575 219.068 47.1549 219.041C7.54311 218.988 -32.8821 215.056 -71.9735 211.251C-81.5513 210.318 -91.4588 209.355 -101.022 208.483C-128.447 205.987 -151.662 204.727 -171.994 204.631C-246.857 204.279 -313.55 210.197 -354.968 220.864L-355.444 220.337C-335.157 215.111 -307.79 210.87 -276.305 208.071C-244.762 205.266 -208.686 203.875 -171.983 204.047C-151.593 204.142 -128.319 205.405 -100.835 207.907C-91.2646 208.778 -81.3571 209.742 -71.7757 210.674C-32.7318 214.473 7.64204 218.402 47.1585 218.455C47.3344 218.455 47.5139 218.455 47.6898 218.455C104.215 218.455 147.278 206.494 181.903 196.876L182.412 196.735C191.481 194.232 198.974 192.184 205.994 190.286C240.67 180.948 269.792 173.431 302.519 168.741C343.937 162.803 388.612 158.914 431.72 157.491C470.126 156.225 506.352 157.19 542.476 160.446C581.402 163.954 618.992 169.999 657.387 178.929C710.819 191.355 764.329 209.746 816.431 233.593C819.476 234.991 822.521 236.39 825.562 237.789C849.873 248.963 875.012 260.519 900.542 271.247C971.405 301.028 1033.99 320.882 1097.52 333.734C1121.48 338.591 1146.61 342.904 1172.2 346.557C1203.97 351.043 1235 354.4 1264.43 356.534C1317.15 360.361 1368.75 363.015 1420.53 353.603C1448.62 348.494 1471.9 340.049 1491.67 327.783C1527.39 305.626 1546.91 274.925 1564.13 247.835C1572.19 235.153 1579.8 223.172 1588.39 213.105C1591.7 209.232 1595.01 205.225 1598.22 201.35C1608.24 189.232 1618.61 176.705 1631.32 164.892C1645.95 151.194 1662.49 139.608 1680.46 130.458C1700.96 120.029 1722.79 113.087 1745.37 109.827C1759.37 107.806 1773.66 106.821 1789.01 106.821C1789.34 106.821 1789.68 106.821 1790.01 106.823C1837.74 106.956 1886.86 118.522 1924.32 128.584C1964.22 139.303 2003.33 154.227 2037.41 171.743C2075.37 191.2 2109.7 214.7 2139.42 241.591C2166.09 265.722 2188.74 292.237 2206.72 320.404L2205.68 320.593C2178.92 278.683 2127.86 218.914 2036.65 172.167C2002.65 154.69 1963.63 139.802 1923.82 129.107C1886.47 119.074 1837.51 107.541 1790.01 107.41C1774.37 107.361 1759.87 108.342 1745.66 110.394C1703.83 116.435 1663.56 135.893 1632.27 165.184C1619.59 176.969 1609.24 189.483 1599.22 201.586C1596.02 205.464 1592.7 209.472 1589.39 213.348C1580.83 223.389 1573.22 235.354 1565.17 248.023C1547.92 275.161 1528.37 305.922 1492.51 328.164C1472.6 340.512 1449.17 349.014 1420.88 354.156C1396.91 358.512 1371 360.633 1341.7 360.633Z" fill="#FFE492"/>
<path d="M1371.03 363.384C1365.34 363.384 1359.53 363.286 1353.58 363.091C1327.53 362.237 1302.22 359.675 1276.43 356.899C1246.53 353.682 1216.33 349.379 1184.11 343.742C1158.61 339.243 1133.61 334.119 1109.8 328.508C1049.39 314.296 989.41 293.374 915.32 260.673C896.919 252.552 878.526 244.035 860.737 235.797C851.053 231.314 841.043 226.676 831.124 222.148C778.487 198.179 723.285 180.769 667.049 170.399C592.746 156.697 516.381 154.188 433.581 162.728C389.837 167.241 345.275 174.318 304.718 183.193C272.137 190.322 243.756 200.335 213.707 210.935L211.63 211.668C206.936 213.33 202.191 215.014 197.387 216.719C194.621 217.702 191.836 218.691 189.026 219.687C171.505 225.935 152.58 232.453 130.878 237.47C105.681 243.294 80.7579 246.16 54.6774 246.23C11.2588 246.343 -33.0283 240.961 -75.8534 235.75C-81.9649 235.006 -88.289 234.238 -94.4263 233.509C-123.2 230.089 -145.884 228.12 -165.823 227.311C-239.404 224.327 -308.845 226.43 -356.345 233.083L-356.649 232.469C-309.024 225.799 -239.441 223.688 -165.732 226.678C-145.737 227.489 -122.995 229.463 -94.1662 232.889C-88.0253 233.62 -81.7011 234.388 -75.5859 235.133C-33.2847 240.279 10.4417 245.597 53.2851 245.597C53.7468 245.597 54.2085 245.597 54.6738 245.595C110.088 245.446 149.535 233.005 188.37 219.16C191.181 218.163 193.965 217.174 196.732 216.191C201.535 214.485 206.276 212.802 210.974 211.139L213.051 210.406C243.151 199.788 271.58 189.758 304.267 182.605C344.897 173.712 389.536 166.624 433.358 162.103C516.366 153.541 592.937 156.058 667.441 169.797C723.816 180.195 779.146 197.644 831.901 221.665C841.819 226.195 851.833 230.831 861.517 235.317C879.299 243.552 897.688 252.068 916.078 260.182C990.08 292.846 1049.98 313.739 1110.28 327.927C1134.06 333.529 1159.02 338.647 1184.48 343.139C1216.65 348.767 1246.81 353.065 1276.67 356.276C1321.99 361.152 1378.4 367.223 1434.57 357.873C1463.45 353.067 1486.88 344.569 1506.19 331.893C1541.57 308.675 1557.97 276.019 1572.45 247.209C1578.74 234.693 1584.68 222.871 1591.61 213.06C1594.31 209.237 1597.02 205.283 1599.63 201.459C1608.41 188.632 1617.49 175.369 1629.15 162.756C1642.3 148.42 1657.61 136.09 1674.64 126.107C1693.94 114.795 1715.03 106.807 1737.3 102.365C1751.6 99.5135 1766.25 97.7565 1782.1 96.9923C1803.32 95.9682 1825.91 97.0627 1851.16 100.33C1872.52 103.098 1895.42 107.394 1921.17 113.466C1962.7 123.259 2003.11 137.638 2038.04 155.046C2077.02 174.412 2111.61 198.144 2140.85 225.58C2167.18 250.285 2188.64 277.408 2204.61 306.199L2203.47 306.378C2169.74 245.597 2110.7 192.017 2037.23 155.511C2002.39 138.15 1962.09 123.812 1920.68 114.048C1865.2 100.966 1821.21 95.7454 1782.21 97.6256C1766.46 98.3839 1751.92 100.129 1737.72 102.959C1684.72 113.527 1650 141.463 1630.22 163.035C1618.59 175.618 1609.52 188.865 1600.75 201.676C1598.13 205.502 1595.42 209.458 1592.72 213.283C1585.81 223.064 1579.88 234.873 1573.6 247.373C1559.1 276.245 1542.66 308.97 1507.11 332.294C1487.65 345.069 1464.03 353.636 1434.92 358.481C1415.19 361.764 1394.15 363.384 1371.03 363.384Z" fill="#FFE492"/>
<path d="M1396.43 366.539C1357.68 366.539 1320.43 361.229 1288.56 356.687C1258.58 352.414 1228.4 347.075 1196.28 340.366C1170.93 335.03 1146.09 329.1 1122.46 322.739C1051.62 303.691 988.461 276.351 930.767 249.643C918.987 244.19 907.086 238.569 895.581 233.134C879.606 225.586 863.085 217.782 846.531 210.261C793.106 186.056 736.119 169.594 677.158 161.333C600.884 150.649 521.796 152.624 435.376 167.376C390.88 174.971 346.363 185.241 306.634 197.077C275.991 206.204 250.065 217.727 222.618 229.927C220.672 230.79 218.723 231.658 216.762 232.526L215.7 232.999C209.028 235.968 202.128 239.036 195.134 242.116C178.374 249.529 159.919 257.196 138.572 263.054C113.792 269.853 88.8111 273.244 62.192 273.42C15.4683 273.73 -32.153 266.724 -78.2024 259.948C-81.4304 259.473 -84.6437 259 -87.8424 258.533C-118.21 254.089 -140.363 251.454 -159.665 249.988C-231.399 244.544 -303.595 242.831 -357.742 245.292L-357.852 244.61C-303.617 242.144 -231.315 243.858 -159.485 249.31C-140.128 250.78 -117.928 253.42 -87.5053 257.872C-84.3066 258.34 -81.0933 258.813 -77.8616 259.289C-31.9001 266.052 15.6296 273.041 62.1737 272.736C119.981 272.353 160.692 256.458 194.313 241.588C201.308 238.508 208.207 235.44 214.879 232.473L215.942 232C217.902 231.131 219.851 230.265 221.797 229.401C249.292 217.18 275.262 205.637 306.007 196.479C345.809 184.622 390.411 174.334 434.984 166.725C475.955 159.733 514.439 155.695 552.629 154.381C595.23 152.918 637.235 155.034 677.48 160.673C736.629 168.959 793.784 185.468 847.359 209.74C863.924 217.264 880.449 225.07 896.428 232.62C907.933 238.055 919.826 243.674 931.602 249.125C989.237 275.804 1052.32 303.115 1123.03 322.127C1146.63 328.479 1171.43 334.401 1196.75 339.728C1228.81 346.428 1258.95 351.76 1288.89 356.026C1334.86 362.577 1392.07 370.731 1448.6 362.151C1478.26 357.648 1501.84 349.098 1520.69 336.011C1555.71 311.7 1568.81 277.035 1580.37 246.449C1585.01 234.16 1589.4 222.553 1594.81 213.021C1596.81 209.495 1598.82 205.852 1600.76 202.329C1608.36 188.546 1616.22 174.293 1626.96 160.626C1638.66 145.641 1652.73 132.563 1668.79 121.757C1686.91 109.563 1707.24 100.53 1729.21 94.9073C1743.48 91.2565 1758.18 88.7256 1774.16 87.1679C1795.69 85.0708 1819.58 85.1412 1845.17 87.377C1867.57 89.3353 1892.07 93.0272 1917.99 98.3529C1961.14 107.22 2002.86 121.051 2038.66 138.352C2078.65 157.628 2113.51 181.589 2142.27 209.572C2168.25 234.852 2188.52 262.585 2202.49 291.998L2201.24 292.166C2171.64 229.841 2113.6 175.395 2037.8 138.86C2002.12 121.616 1960.53 107.83 1917.53 98.992C1861.79 87.5373 1814.97 83.8884 1774.39 87.8422C1758.53 89.3881 1743.93 91.9014 1729.77 95.5249C1677.49 108.903 1645.65 138.453 1628.15 160.89C1617.43 174.521 1609.58 188.755 1601.99 202.52C1600.05 206.044 1598.04 209.689 1596.04 213.218C1590.65 222.719 1586.26 234.31 1581.63 246.584C1576.06 261.299 1569.76 277.975 1560.61 293.611C1550.13 311.525 1537.4 325.53 1521.71 336.427C1512.64 342.728 1502.21 348.091 1490.71 352.367C1478.35 356.966 1464.3 360.48 1448.95 362.81C1431.38 365.477 1413.75 366.539 1396.43 366.539Z" fill="#FFE492"/>
<path d="M1419.33 370C1406.52 370 1393.1 369.335 1378.92 368.008C1351 365.395 1324.28 360.654 1300.7 356.473C1270.98 351.202 1239.94 344.645 1208.46 336.986C1183.27 330.822 1158.6 324.087 1135.12 316.965C1067.75 296.548 1009.71 269.399 946.214 238.61C940.572 235.873 934.841 233.083 929.301 230.382C907.482 219.752 884.923 208.76 861.938 198.374C807.626 173.886 748.859 158.374 687.267 152.268C609.575 144.566 525.427 151.211 437.172 172.021C391.884 182.7 347.407 196.162 308.55 210.955C279.293 222.093 255.209 235.225 229.711 249.128C227.121 250.541 224.519 251.958 221.903 253.381C215.392 256.926 208.379 260.731 201.245 264.54C186.285 272.555 168.053 281.688 146.27 288.632C121.886 296.407 96.8426 300.325 69.7142 300.609C20.052 301.131 -30.5005 292.359 -79.3895 283.877L-81.2509 283.555C-105.188 279.404 -130.51 275.21 -153.498 272.663C-223.569 264.902 -296.596 259.514 -359.123 257.491L-359.039 256.76C-296.446 258.785 -223.353 264.177 -153.22 271.946C-130.166 274.5 -104.8 278.7 -80.8258 282.857L-78.9645 283.18C-30.1817 291.642 20.2682 300.392 69.6886 299.874C126.763 299.276 166.181 282.288 200.274 264.019C207.408 260.212 214.414 256.406 220.925 252.863C223.541 251.442 226.142 250.023 228.733 248.612C254.275 234.685 278.402 221.53 307.755 210.355C346.685 195.533 391.247 182.046 436.618 171.347C478.026 161.585 518.773 154.858 557.722 151.356C602.225 147.355 645.896 147.418 687.523 151.543C749.35 157.672 808.334 173.239 862.829 197.812C885.831 208.207 908.402 219.202 930.232 229.838C935.772 232.537 941.503 235.328 947.145 238.064C1010.58 268.825 1068.56 295.944 1135.81 316.326C1159.25 323.436 1183.89 330.161 1209.04 336.318C1240.48 343.965 1271.46 350.512 1301.14 355.776C1347.66 364.027 1405.56 374.293 1462.65 366.427C1493.1 362.231 1516.84 353.63 1535.22 340.129C1569.85 314.692 1579.87 276.353 1587.92 245.546C1591.06 233.546 1594.02 222.212 1598.03 212.988C1599.3 210.079 1600.58 207.083 1601.81 204.185C1608.22 189.128 1614.86 173.558 1624.81 158.501C1640.17 135.07 1669.35 103.725 1721.14 87.4587C1735.45 82.9675 1750.2 79.6607 1766.25 77.3506C1808.24 71.2196 1858.23 73.2034 1914.84 83.2431C1959.61 91.1838 2002.64 104.468 2039.3 121.661C2080.3 140.845 2115.43 165.036 2143.71 193.569C2156.69 206.655 2168.15 220.633 2177.8 235.113C2187.01 248.944 2194.61 263.307 2200.38 277.803L2199.04 277.955C2173.59 214.082 2116.53 158.771 2038.39 122.21C2001.87 105.081 1959 91.8483 1914.4 83.9369C1858.06 73.9421 1808.33 71.9643 1766.61 78.0561C1750.68 80.3486 1736.03 83.63 1721.84 88.088C1670.41 104.241 1641.39 135.425 1626.1 158.741C1616.18 173.759 1609.56 189.308 1603.15 204.345C1601.91 207.244 1600.64 210.242 1599.37 213.152C1595.37 222.345 1592.41 233.663 1589.28 245.645C1585.23 261.148 1580.64 278.718 1572.79 295.301C1563.77 314.356 1551.84 329.161 1536.33 340.559C1527.48 347.061 1517.12 352.545 1505.56 356.856C1493.1 361.502 1478.78 364.961 1462.99 367.134C1449.14 369.046 1434.67 370 1419.33 370Z" fill="#FFE492"/>
<path d="M1440.44 373.655C1425.08 373.655 1408.89 372.594 1391.6 370.465C1363.58 367.02 1336.62 361.301 1312.83 356.255C1282.88 349.903 1251.87 342.283 1220.64 333.604C1195.62 326.617 1171.1 319.077 1147.79 311.191C1083.62 289.507 1028.59 261.559 970.323 231.973C967.44 230.509 964.556 229.043 961.665 227.578C934.57 213.834 906.555 199.622 877.349 186.488C822.092 161.689 761.544 147.125 697.387 143.201C616.8 138.27 529.857 149.529 438.967 176.662C393.504 190.233 347.868 207.34 310.466 224.83C282.224 238.036 259.573 252.895 235.592 268.628C232.752 270.49 229.905 272.359 227.036 274.231C221.306 277.978 214.487 282.42 207.349 286.964C194.129 295.401 176.117 306.123 153.964 314.189C129.969 322.927 104.87 327.381 77.2325 327.801C54.5155 328.104 29.4463 326.234 0.588436 322.08C-24.1877 318.516 -48.154 313.856 -74.6742 308.579C-98.8824 303.703 -124.432 298.667 -147.354 295.34C-215.252 285.486 -286.971 276.858 -360.516 269.689L-360.252 268.921C-286.664 276.092 -214.904 284.728 -146.969 294.586C-123.985 297.922 -98.3988 302.966 -74.1613 307.847C-29.7093 316.694 25.6137 327.709 77.1922 327.019C136.161 326.12 174.058 306.994 206.224 286.46C213.358 281.92 220.173 277.479 225.9 273.735C228.769 271.862 231.616 269.994 234.452 268.133C258.473 252.375 281.165 237.49 309.499 224.241C346.978 206.716 392.701 189.576 438.252 175.98C529.417 148.765 616.661 137.476 697.555 142.425C728.571 144.322 759.038 148.73 788.101 155.523C819.285 162.811 849.63 173.03 878.294 185.892C907.533 199.04 935.566 213.26 962.677 227.013C965.567 228.481 968.455 229.944 971.338 231.408C1029.55 260.968 1084.53 288.889 1148.57 310.532C1171.86 318.406 1196.33 325.936 1221.32 332.912C1252.5 341.577 1283.47 349.188 1313.37 355.53C1360.37 365.497 1418.86 377.902 1476.69 370.708C1508.02 366.811 1531.91 358.157 1549.73 344.253C1584.05 317.697 1590.16 277.129 1595.07 244.534C1596.83 232.876 1598.49 221.865 1601.24 212.961C1601.81 211.124 1602.38 209.277 1602.95 207.42C1608.08 190.649 1613.4 173.306 1622.63 156.381C1635.82 132.037 1662.2 99.0273 1713.06 80.015C1727.25 74.7108 1742.05 70.63 1758.32 67.5381C1780.93 63.2013 1806.13 61.1629 1833.21 61.4756C1857.93 61.7609 1884.33 64.0026 1911.67 68.1362C1958.05 75.1466 2002.4 87.8834 2039.92 104.969C2081.93 124.059 2117.33 148.485 2145.14 177.565C2157.9 190.907 2168.94 205.172 2177.97 219.963C2186.62 234.129 2193.45 248.814 2198.26 263.611L2196.82 263.744C2175.84 199.266 2118.3 141.612 2038.97 105.563C2001.61 88.5518 1957.45 75.8678 1911.27 68.8847C1854.32 60.2737 1801.61 60.0626 1758.81 68.271C1742.66 71.3394 1727.97 75.3889 1713.9 80.6521C1663.39 99.5335 1637.15 132.373 1624.04 156.596C1614.83 173.476 1609.52 190.794 1604.39 207.543C1603.82 209.4 1603.25 211.249 1602.69 213.086C1599.94 221.957 1598.29 232.954 1596.53 244.595C1591.6 277.284 1585.47 317.968 1550.93 344.695C1542.34 351.396 1532.07 357.005 1520.41 361.362C1507.86 366.048 1493.26 369.449 1477.02 371.47C1465.3 372.924 1453.16 373.655 1440.44 373.655Z" fill="#FFE492"/>
<path d="M1460.27 377.46C1442.77 377.46 1424.24 375.952 1404.27 372.922C1376.01 368.636 1348.88 361.942 1324.95 356.038C1294.71 348.576 1263.71 339.889 1232.81 330.223C1207.97 322.425 1183.62 314.077 1160.44 305.417C1103.36 284.099 1054.59 257.982 1002.94 230.332C994.499 225.811 985.768 221.138 977.106 216.543C946.658 200.4 920.658 187.089 892.749 174.602C836.507 149.474 774.182 135.858 707.5 134.13C623.711 131.959 533.961 147.829 440.748 181.298C394.442 197.926 348.847 218.31 312.365 238.698C284.881 254.058 263.395 270.778 240.649 288.479C237.831 290.672 235.002 292.872 232.155 295.075C227.084 299.005 220.372 304.184 213.443 309.377C184.285 331.282 146.19 353.834 84.7408 354.987C82.8245 355.02 80.9009 355.036 78.981 355.036C30.9969 355.036 -17.9911 344.906 -68.1076 333.596L-71.2366 332.885C-96.0604 327.232 -119.51 321.895 -141.216 318.01C-223.015 303.367 -302.125 291.008 -361.907 281.877L-361.479 281.077C-301.682 290.212 -222.55 302.574 -140.721 317.222C-118.957 321.117 -95.4815 326.462 -70.6248 332.12L-67.4993 332.832C-15.5472 344.556 35.1886 355.014 84.6858 354.158C145.454 353.017 183.23 330.639 212.172 308.898C219.097 303.709 225.802 298.534 230.873 294.606C233.72 292.401 236.545 290.203 239.363 288.01C262.145 270.281 283.664 253.534 311.236 238.126C347.792 217.695 393.479 197.269 439.876 180.608C482.939 165.145 526.017 153.272 567.912 145.315C615.98 136.186 662.971 132.145 707.573 133.3C774.599 135.035 837.239 148.718 893.746 173.963C921.695 186.469 947.721 199.794 978.198 215.951C986.863 220.546 995.595 225.221 1004.04 229.741C1055.63 257.365 1104.37 283.456 1161.33 304.731C1184.48 313.382 1208.79 321.715 1233.6 329.501C1264.45 339.156 1295.4 347.83 1325.6 355.28C1373.01 366.977 1432.01 381.533 1490.73 374.98C1522.82 371.398 1546.87 362.693 1564.23 348.369C1598.11 320.603 1600.15 277.753 1601.79 243.322C1602.32 232.089 1602.83 221.476 1604.45 212.926L1604.48 212.73C1608.11 193.583 1611.85 173.785 1620.45 154.251C1627.89 137.213 1638.25 121.894 1651.25 108.717C1665.91 93.8621 1683.98 81.698 1704.96 72.5612C1719 66.4478 1733.86 61.5911 1750.37 57.7156C1794.99 47.1833 1849.66 45.5573 1908.49 53.0172C1932.16 56.0192 1955.51 60.567 1977.9 66.5318C2000.41 72.5318 2021.49 79.8471 2040.54 88.2706C2083.57 107.269 2119.24 131.926 2146.56 161.556C2171.12 188.189 2188.26 218.57 2196.14 249.412L2194.6 249.524C2177.74 183.512 2121.23 124.97 2039.54 88.9097C2001.35 72.0198 1955.9 59.8869 1908.13 53.8302C1849.64 46.4133 1795.31 48.0218 1751.01 58.4817C1734.62 62.3279 1719.89 67.1455 1705.95 73.21C1666.77 90.2699 1637.73 118.36 1621.97 154.444C1613.4 173.928 1609.66 193.698 1606.04 212.818L1606 213.014C1604.39 221.533 1603.88 232.13 1603.35 243.348C1601.7 277.884 1599.66 320.863 1565.53 348.825C1557.16 355.731 1546.96 361.462 1535.23 365.855C1522.58 370.593 1507.72 373.937 1491.04 375.799C1481.11 376.905 1470.88 377.46 1460.27 377.46Z" fill="#FFE492"/>
<path d="M85.8798 382.246C64.4233 382.246 41.0578 380.016 14.6879 375.462C-11.5136 370.938 -37.4256 364.692 -61.5275 358.617C-65.8913 357.511 -70.2222 356.407 -74.5238 355.31C-95.9363 349.852 -116.162 344.696 -135.064 340.68C-210.437 324.671 -282.281 310.283 -351.762 296.372L-363.274 294.066L-362.696 293.243L-351.183 295.549C-281.699 309.464 -209.843 323.853 -134.456 339.865C-115.502 343.891 -95.2512 349.053 -73.813 354.519C-69.5151 355.615 -65.1842 356.72 -60.824 357.824C-11.3487 370.293 41.2154 382.377 92.1966 381.3C154.866 379.908 192.422 353.868 218.136 331.34C224.724 325.578 231.07 319.836 235.863 315.478C238.508 313.076 241.135 310.676 243.755 308.282C265.483 288.435 286.005 269.688 312.994 252.013C348.62 228.685 394.262 204.971 441.521 185.241C485.365 166.936 529.608 152.474 573.026 142.256C622.828 130.536 671.471 124.453 717.605 124.178C787.024 123.627 851.499 136.365 909.215 162.036C941.209 176.284 969.895 191.696 993.74 204.894C1006.71 212.077 1019.69 219.439 1032.24 226.559C1076.66 251.765 1122.59 277.827 1174.1 298.936C1197.11 308.368 1221.27 317.507 1245.88 326.096C1276.35 336.703 1307.29 346.44 1337.85 355.035C1385.61 368.469 1445.05 385.189 1504.77 379.256C1537.64 375.99 1561.84 367.234 1578.74 352.488C1612.18 323.464 1609.92 278.266 1608.1 241.95C1607.57 231.21 1607.06 221.065 1607.67 212.898C1609.04 194.485 1611.11 173.087 1618.28 152.128C1624.33 134.368 1633.45 118.301 1645.4 104.374C1658.92 88.6196 1676.25 75.4118 1696.89 65.1161C1710.57 58.2933 1725.9 52.5024 1742.45 47.9018C1766.06 41.3155 1792.57 37.1741 1821.22 35.595C1848.06 34.1155 1876.35 34.8933 1905.32 37.9051C1929.74 40.4458 1953.82 44.6243 1976.88 50.3272C2000.08 56.0653 2021.71 63.2145 2041.17 71.5754C2063.6 81.2027 2084.22 92.5714 2102.47 105.367C2119.75 117.49 2135.07 131.01 2148 145.551C2172.19 172.754 2188.11 203.763 2194.03 235.219L2192.39 235.307C2179.67 167.757 2124.18 108.33 2040.13 72.2614C2001.64 55.7233 1953.66 43.8288 1905 38.7689C1844.84 32.5129 1788.9 35.9409 1743.21 48.6816C1726.79 53.2451 1711.58 58.991 1698.01 65.7591C1659.12 85.1584 1632.83 114.269 1619.9 152.286C1612.75 173.188 1610.68 194.55 1609.31 212.933C1608.71 221.071 1609.21 231.201 1609.75 241.926C1610.64 259.842 1611.66 280.15 1608.26 299.782C1604.31 322.563 1595.12 339.953 1580.15 352.948C1572 360.058 1561.88 365.911 1550.07 370.344C1537.32 375.132 1522.18 378.421 1505.08 380.12C1496.45 380.978 1487.83 381.366 1479.26 381.366C1427.93 381.366 1378.2 367.377 1337.08 355.811C1306.48 347.202 1275.49 337.451 1244.99 326.829C1220.33 318.228 1196.14 309.075 1173.1 299.63C1121.48 278.477 1075.5 252.388 1031.04 227.159C1018.49 220.041 1005.52 212.681 992.557 205.502C968.744 192.32 940.099 176.929 908.163 162.709C850.759 137.175 786.661 124.51 717.631 125.053C609.223 125.702 508.199 158.515 442.539 185.929C395.376 205.619 349.825 229.283 314.277 252.564C287.368 270.187 266.875 288.904 245.181 308.72C242.561 311.114 239.93 313.514 237.285 315.918C232.488 320.278 226.139 326.024 219.547 331.791C208.753 341.249 191.807 355.015 169.361 365.335C158.46 370.346 146.86 374.284 134.882 377.041C121.527 380.116 107.186 381.843 92.2662 382.174C90.1521 382.222 88.0233 382.246 85.8798 382.246Z" fill="#FFE492"/>
<path d="M92.7689 409.456C71.2867 409.456 47.9689 407.054 21.7381 402.152C-5.4196 397.079 -32.2696 389.945 -54.9499 383.634C-61.9188 381.692 -68.8732 379.722 -75.6003 377.816C-94.4041 372.49 -112.167 367.458 -128.915 363.35C-189.06 348.594 -248.813 334.188 -306.602 320.255C-325.717 315.647 -345.481 310.882 -364.637 306.254L-363.919 305.408C-344.763 310.036 -324.999 314.8 -305.884 319.409C-248.095 333.342 -188.335 347.75 -128.186 362.507C-111.394 366.627 -93.609 371.664 -74.7832 376.997C-68.0597 378.903 -61.1054 380.871 -54.1438 382.813C-7.10506 395.896 47.4559 409.745 99.7012 408.441C163.847 406.804 199.876 378.369 224.102 353.781C230.313 347.482 236.318 341.157 240.854 336.352C243.184 333.885 245.5 331.421 247.812 328.962C268.594 306.848 288.223 285.961 314.757 265.903C349.269 239.816 394.875 212.816 443.167 189.878C510.42 158.07 614.364 119.271 727.634 115.063C799.669 112.315 865.969 124.108 924.685 150.117C951.066 161.809 977.154 175.294 1009.28 193.847C1025.52 203.222 1041.63 212.939 1057.21 222.334C1097.74 246.778 1139.65 272.054 1186.88 293.152C1209.75 303.375 1233.74 313.317 1258.17 322.702C1287.76 334.055 1318.68 344.855 1350.09 354.803C1398.34 369.991 1458.38 388.895 1518.82 383.544C1551.95 380.671 1576.99 371.613 1593.25 356.623C1626.22 326.284 1619.15 276.651 1613.98 240.41C1612.53 230.24 1611.16 220.634 1610.89 212.885C1610.29 195.663 1610.34 172.954 1616.12 150.02C1626.09 110.277 1650.55 79.2099 1688.81 57.6862C1702.22 50.1031 1717.61 43.5149 1734.52 38.1032C1758.59 30.395 1785.74 25.21 1815.23 22.6947C1843.02 20.326 1872.26 20.3631 1902.14 22.8061C1927.36 24.913 1952.16 28.7318 1975.85 34.1533C1999.78 39.6295 2021.96 46.6067 2041.8 54.8914C2064.73 64.464 2085.68 75.8718 2104.06 88.8002C2121.49 101.052 2136.75 114.764 2149.44 129.559C2173.26 157.335 2187.94 188.969 2191.92 221.04L2190.18 221.101C2181.62 152.009 2127.15 91.6946 2040.73 55.6243C2001.55 39.2602 1952.23 27.9305 1901.88 23.7247C1839.81 18.653 1782.25 23.9006 1735.42 38.9006C1718.64 44.2673 1703.39 50.8028 1690.08 58.3253C1652.07 79.7064 1627.77 110.598 1617.85 150.145C1612.09 173.017 1612.04 195.68 1612.63 212.869C1612.91 220.591 1614.27 230.185 1615.72 240.342C1618.39 259.075 1621.42 280.309 1619.69 301.04C1617.67 325.178 1609.52 343.513 1594.76 357.09C1586.82 364.413 1576.78 370.393 1564.91 374.865C1552.05 379.714 1536.64 382.942 1519.11 384.463C1491.92 386.869 1462.66 384.707 1429.65 377.853C1400.96 371.894 1373.47 363.24 1349.21 355.606C1317.76 345.645 1286.79 334.829 1257.16 323.46C1232.69 314.062 1208.67 304.106 1185.76 293.869C1138.44 272.728 1096.48 247.425 1055.9 222.956C1040.33 213.563 1024.23 203.851 1008.01 194.484C975.934 175.964 949.894 162.504 923.575 150.84C865.207 124.98 799.328 113.257 727.751 115.988C614.969 120.18 511.369 158.859 444.317 190.571C396.121 213.463 350.61 240.406 316.172 266.439C289.71 286.44 270.111 307.298 249.362 329.378C247.05 331.839 244.734 334.303 242.404 336.77C237.864 341.58 231.855 347.91 225.637 354.215C201.198 379.022 164.807 407.71 99.7782 409.37C97.4662 409.426 95.1248 409.456 92.7689 409.456Z" fill="#FFE492"/>
<path d="M99.7962 436.666C41.0986 436.666 -20.49 417.437 -75.0876 400.389C-91.8651 395.151 -107.712 390.203 -122.771 386.018L-366 318.441L-365.154 317.575L-121.925 385.152C-106.825 389.347 -90.9601 394.301 -74.1606 399.547C-17.4525 417.253 46.8254 437.323 107.205 435.584C172.765 433.698 207.302 402.869 230.067 376.225C237.512 367.51 244.701 358.643 251.655 350.067C270.675 326.614 290.34 302.362 316.512 279.791C337.294 261.869 363.111 243.074 391.17 225.439C421.952 206.093 454.91 188.343 489.121 172.684C526.842 155.421 565.197 141.14 603.116 130.241C645.058 118.186 686.377 110.316 725.934 106.847C805.176 99.8988 877.247 110.443 940.14 138.189C992.407 161.245 1036.83 189.756 1079.79 217.329C1117.19 241.329 1155.85 266.144 1199.64 287.357C1250.21 311.857 1304.95 334.467 1362.33 354.556C1410.68 371.483 1470.85 392.552 1532.86 387.816C1585.24 383.818 1615.52 365.126 1625.43 330.67C1633.87 301.362 1625.84 266.595 1619.4 238.661C1617.2 229.141 1615.13 220.149 1614.11 212.857C1608.49 172.659 1612.07 139.475 1625.06 111.412C1633.16 93.9027 1645.12 78.2949 1660.6 65.0226C1677.89 50.1966 1700.09 37.837 1726.59 28.2878C1749.5 20.0266 1775.33 14.0266 1803.36 10.454C1830.04 7.05334 1858.12 5.91393 1886.84 7.06702C1943.32 9.33412 1998.57 20.3882 2042.41 38.1908C2065.84 47.7067 2087.12 59.1555 2105.65 72.2168C2123.21 84.5959 2138.42 98.5014 2150.86 113.55C2174.3 141.899 2187.76 174.16 2189.79 206.843L2187.96 206.876C2183.64 137.277 2128.81 74.5073 2041.3 38.9706C1948.36 1.2312 1816.43 -2.92189 1727.6 29.0989C1639.61 60.8187 1603.08 120.903 1615.93 212.785C1616.94 220.053 1619.02 229.033 1621.21 238.542C1627.67 266.536 1635.71 301.377 1627.24 330.818C1622.62 346.854 1613.35 359.741 1599.67 369.124C1591.97 374.399 1582.7 378.711 1572.1 381.936C1560.82 385.367 1547.7 387.672 1533.12 388.786C1527.16 389.241 1521.09 389.47 1514.93 389.47C1492.45 389.47 1468.52 386.438 1442.29 380.298C1412.74 373.379 1384.23 363.396 1361.32 355.375C1303.86 335.257 1249.05 312.617 1198.4 288.082C1154.51 266.824 1115.81 241.979 1078.37 217.954C1035.47 190.417 991.099 161.941 938.964 138.944C876.492 111.387 804.915 100.911 726.22 107.812C567.032 121.77 403.053 207.013 318.058 280.307C291.956 302.816 272.317 327.035 253.322 350.456C246.364 359.036 239.172 367.909 231.719 376.631C216.605 394.321 201.678 406.987 184.743 416.489C174.172 422.419 162.704 427.094 150.657 430.383C137.261 434.04 122.671 436.119 107.289 436.563C104.805 436.631 102.302 436.666 99.7962 436.666Z" fill="#FFE492"/>
</g>
</svg>
