<svg width="448" height="32" viewBox="0 0 448 32" fill="none" xmlns="http://www.w3.org/2000/svg">
<path d="M420.976 16.6333C420.363 16.6597 419.743 16.6778 419.141 16.7173C418.751 16.742 418.584 16.6696 418.323 16.6317C418.236 16.6185 418.143 16.5922 418.063 16.5955C417.455 16.6218 416.848 16.6514 416.24 16.6811C416.054 16.7453 415.937 16.8309 415.652 16.8621C415.373 16.8918 415.044 16.8918 414.734 16.9066C414.325 16.9247 413.916 16.9428 413.507 16.9593C413.302 16.9675 413.135 16.9988 413.067 17.058C413.054 17.0679 413.191 17.0926 413.265 17.1074C413.513 17.1568 413.755 17.2128 414.027 17.2506C414.288 17.2868 414.61 17.2276 414.889 17.2737C415.515 17.3774 415.521 17.3757 415.999 17.356C416.408 17.3379 416.817 17.3181 417.226 17.305C417.307 17.3017 417.4 17.3263 417.486 17.3395C417.747 17.3757 417.914 17.458 418.298 17.4268C418.59 17.4021 418.912 17.3971 419.216 17.384C419.47 17.4317 419.706 17.486 419.978 17.5239C420.232 17.5601 420.307 17.5881 420.171 17.6358C420.047 17.6803 419.873 17.6984 419.644 17.7017C419.439 17.7033 419.234 17.7181 419.03 17.7264C418.924 17.7313 418.825 17.7346 418.726 17.7395C418.336 17.7576 418.336 17.7576 417.623 17.6523C417.344 17.6111 417.028 17.6687 416.761 17.6292C416.581 17.6029 416.426 17.5634 416.253 17.5354C416.178 17.5239 416.061 17.5222 415.968 17.5255C415.658 17.5371 415.348 17.5453 415.05 17.5667C414.84 17.5815 414.716 17.6276 414.74 17.6737C414.747 17.6918 414.895 17.7181 414.982 17.7198C415.18 17.7231 415.391 17.7 415.583 17.7115C415.769 17.7231 415.961 17.756 416.098 17.7922C416.377 17.8679 416.693 17.8004 416.959 17.8202C417.238 17.8416 417.468 17.9074 417.734 17.947C417.802 17.9568 417.933 17.9404 418.038 17.9354C418.342 17.9239 418.646 17.914 418.949 17.9025C419.204 17.9502 419.476 17.993 419.706 18.0474C420.121 18.1461 420.567 18.184 421.107 18.1362C421.41 18.1099 421.708 18.1198 421.949 18.184C422.197 18.2498 422.483 18.2433 422.799 18.2301C423.09 18.2169 423.388 18.1807 423.685 18.2268C424.33 18.3288 424.336 18.3338 425.099 18.2943C425.328 18.2828 425.501 18.2795 425.675 18.3173C425.836 18.3519 426.01 18.3815 426.177 18.4144C426.481 18.4029 426.791 18.3914 427.095 18.3782C427.485 18.3601 427.702 18.3832 427.795 18.4754C427.851 18.5313 427.876 18.5824 428.012 18.6202C428.173 18.6663 428.347 18.6646 428.582 18.6515C428.805 18.64 428.967 18.6219 429.06 18.5626C429.097 18.5379 429.171 18.5149 429.239 18.4951C429.295 18.4803 429.382 18.4573 429.432 18.4605C429.525 18.4671 429.648 18.4852 429.679 18.5066C429.983 18.7058 429.983 18.7075 430.293 18.7651C430.634 18.8293 430.987 18.8869 431.297 18.9593C431.576 19.0235 431.855 18.9955 432.159 18.9955C432.388 18.9955 432.537 19.0383 432.519 19.0811C432.506 19.1058 432.419 19.142 432.345 19.1453C431.737 19.1782 431.124 19.2062 430.51 19.2293C430.436 19.2326 430.343 19.2029 430.256 19.1881C430.082 19.1585 429.927 19.1124 429.741 19.1025C429.556 19.0926 429.339 19.1173 429.134 19.1256C428.929 19.1338 428.713 19.1552 428.527 19.142C428.341 19.1289 428.192 19.0811 428.018 19.0499C427.938 19.035 427.826 19.0136 427.758 19.0186C427.305 19.0581 426.971 19.0038 426.648 18.9313C426.58 18.9165 426.462 18.9066 426.376 18.9099C425.656 18.9379 424.944 18.9708 424.225 19.0021C423.933 19.0153 423.698 18.9577 423.636 18.8605C423.605 18.8062 423.543 18.7519 423.543 18.6976C423.543 18.5988 423.202 18.5445 422.954 18.556C422.545 18.5725 422.129 18.5856 421.726 18.6103C421.398 18.6301 421.119 18.6103 420.896 18.5511C420.635 18.4836 420.338 18.4968 420.04 18.5149C419.817 18.528 419.755 18.5823 419.767 18.719C419.78 18.8293 419.674 18.8638 419.272 18.8819C418.763 18.905 418.249 18.928 417.734 18.9461C417.654 18.9494 417.561 18.9215 417.48 18.9066C417.307 18.877 417.152 18.8293 416.966 18.8194C416.78 18.8079 416.563 18.8326 416.358 18.8424C416.154 18.8507 415.937 18.8737 415.751 18.8622C415.565 18.8507 415.41 18.8013 415.242 18.77C415.162 18.7552 415.063 18.7338 414.982 18.7371C414.573 18.7503 414.164 18.77 413.755 18.7881C413.296 18.8079 413.296 18.8079 412.645 18.7058C412.347 18.6597 412.05 18.6959 411.759 18.7091C411.449 18.7223 411.157 18.7289 410.916 18.663C410.754 18.6202 410.575 18.5939 410.383 18.6021C409.868 18.6219 409.36 18.6466 408.845 18.6663C408.758 18.6696 408.641 18.6614 408.572 18.6466C408.244 18.5774 407.922 18.5231 407.463 18.5577C407.066 18.5873 406.638 18.5889 406.242 18.6169C406.025 18.6317 405.925 18.6844 405.969 18.7256C405.994 18.747 406.124 18.7717 406.211 18.7717C406.409 18.7733 406.626 18.7486 406.812 18.7585C407.196 18.7782 407.388 18.9165 407.891 18.8786C408.188 18.8556 408.498 18.8474 408.808 18.8408C408.889 18.8391 408.975 18.8704 409.062 18.8869C409.31 18.9313 409.527 18.9889 409.887 18.9593C410.184 18.9363 410.5 18.9297 410.804 18.9165C411.288 18.8951 411.288 18.8968 411.914 18.9972C412.211 19.0449 412.509 19.0071 412.8 18.9955C413.017 18.9873 413.221 18.9708 413.395 18.9939C413.662 19.0285 413.854 19.1075 414.182 19.1025C414.492 19.0976 414.796 19.0745 415.106 19.0663C415.298 19.0614 415.478 19.0877 415.633 19.1322C415.794 19.1766 415.968 19.1964 416.178 19.1865C416.482 19.1733 416.792 19.1568 417.102 19.1486C417.189 19.147 417.288 19.1618 417.369 19.175C417.542 19.2046 417.709 19.2392 417.877 19.2704C418.181 19.2606 418.491 19.2573 418.788 19.2375C419.018 19.2227 419.179 19.2293 419.365 19.2622C419.6 19.3067 419.792 19.3857 420.177 19.3478C420.369 19.3297 420.592 19.3346 420.784 19.3182C421.02 19.2968 421.181 19.305 421.348 19.3544C421.664 19.4482 422.061 19.4499 422.47 19.4136C422.917 19.3741 423.251 19.4202 423.586 19.4927C423.939 19.5684 423.939 19.5667 424.212 19.7495C424.293 19.8021 424.522 19.8268 424.714 19.817C425.036 19.8005 425.316 19.8087 425.551 19.8713C425.799 19.9388 426.096 19.9305 426.4 19.9124C426.803 19.8877 427.206 19.8663 427.535 19.9618C427.696 20.0079 427.87 20.0194 428.086 20.0079C428.7 19.9783 429.32 19.9602 429.921 19.924C430.287 19.9009 430.498 19.9536 430.746 19.998C431.08 20.0589 431.446 20.1133 431.446 20.2433C431.446 20.2647 431.533 20.2894 431.607 20.3059C431.769 20.3404 431.942 20.37 432.109 20.403C432.357 20.4524 432.599 20.4935 432.94 20.4672C433.238 20.4458 433.554 20.4392 433.857 20.4244C434.161 20.4096 434.44 20.4013 434.713 20.4639C435.029 20.5347 435.364 20.6022 435.723 20.6548C435.977 20.6927 436.312 20.6285 436.585 20.6795C436.752 20.7108 436.913 20.747 437.093 20.7733C437.168 20.7849 437.286 20.7766 437.385 20.7733C437.589 20.7668 437.8 20.7618 437.998 20.7454C438.228 20.7273 438.401 20.7306 438.575 20.7684C438.736 20.803 438.897 20.8507 439.083 20.8606C439.362 20.8754 439.672 20.8096 439.951 20.8853C440.094 20.9232 440.273 20.9594 440.459 20.9709C440.645 20.9824 440.862 20.9577 441.061 20.9594C441.147 20.9594 441.253 20.9857 441.302 21.0071C441.333 21.0186 441.29 21.0499 441.247 21.0664C441.191 21.0861 441.11 21.1125 441.03 21.1158C440.416 21.1454 439.802 21.1701 439.189 21.1981C438.823 21.2145 438.823 21.2145 438.085 21.1108C437.912 21.0861 437.719 21.0911 437.502 21.1026C437.211 21.1174 436.914 21.1454 436.61 21.1158C436.213 21.0038 435.723 20.9939 435.203 21.0367C434.986 21.0548 434.787 21.0548 434.626 21.0236C434.285 20.961 433.926 20.9034 433.622 20.8293C433.386 20.7717 433.275 20.7668 433.176 20.8458C433.145 20.8705 433.114 20.8968 433.12 20.9199C433.157 21.0022 433.225 21.0828 433.262 21.1651C433.275 21.1882 433.225 21.2145 433.194 21.2392C433.095 21.3084 432.965 21.3034 432.748 21.2458C432.531 21.1882 432.271 21.1503 431.923 21.1767C431.626 21.1997 431.304 21.1964 431.006 21.2211C430.547 21.2573 430.225 21.2046 429.896 21.1339C429.828 21.119 429.711 21.1108 429.624 21.1141C428.7 21.152 427.783 21.1948 426.859 21.2326C426.661 21.2409 426.481 21.2162 426.326 21.1717C426.165 21.1273 425.985 21.1042 425.787 21.1125C424.968 21.147 424.15 21.1783 423.332 21.2211C422.997 21.2392 422.731 21.2178 422.501 21.1602C422.328 21.1174 422.166 21.1042 421.949 21.1092C421.714 21.1141 421.547 21.1306 421.429 21.1783C421.317 21.2244 421.398 21.2524 421.646 21.2886C421.912 21.3281 422.16 21.3791 422.414 21.4252C422.619 21.4186 422.824 21.4055 423.022 21.4071C423.109 21.4071 423.189 21.4367 423.276 21.4532C423.524 21.5009 423.753 21.5487 424.107 21.5223C424.404 21.4993 424.72 21.4944 425.024 21.4795C425.446 21.4614 425.446 21.4614 426.128 21.5651C426.301 21.5915 426.487 21.5898 426.71 21.575C426.902 21.5635 427.101 21.5865 427.237 21.6359C427.293 21.6557 427.274 21.6886 427.157 21.7973C427.157 21.8779 427.287 21.8417 427.33 21.789C427.398 21.7133 427.268 21.6886 427.02 21.7298C426.847 21.7594 426.76 21.8022 426.803 21.8368C426.828 21.8549 426.946 21.8779 427.157 21.7973C427.702 21.6985 428.117 21.687 428.514 21.6606C428.75 21.6458 428.898 21.6524 429.084 21.6952C429.308 21.7462 429.531 21.8005 429.896 21.7742C430.293 21.7446 430.715 21.7413 431.118 21.7166C431.49 21.6935 431.682 21.766 431.917 21.8088C432.202 21.8598 432.519 21.8022 432.779 21.8318C433.052 21.8615 433.244 21.9339 433.56 21.947C434.019 21.9026 434.31 21.9849 434.657 22.0392C434.93 22.0804 435.252 22.0442 435.544 22.0261C435.872 22.0063 436.145 22.0244 436.374 22.0837C436.635 22.1512 436.926 22.1364 437.224 22.1215C437.918 22.0886 437.943 22.0837 438.345 22.1742C438.637 22.2401 438.916 22.2104 439.207 22.2022C439.461 22.2466 439.709 22.2944 439.976 22.3339C440.044 22.3438 440.174 22.3273 440.28 22.3224C440.583 22.3092 440.893 22.296 441.197 22.2829C441.402 22.2746 441.618 22.2499 441.804 22.2598C441.99 22.2713 442.145 22.3191 442.313 22.3504C442.48 22.3816 442.654 22.4129 442.815 22.4458C443.063 22.4952 443.298 22.5364 443.645 22.5117C443.943 22.4903 444.253 22.4837 444.563 22.4689C444.953 22.4508 444.941 22.4557 445.666 22.5545C446.057 22.6088 446.46 22.543 446.856 22.5364C447.055 22.5331 447.247 22.5512 447.383 22.5989C447.439 22.6187 447.421 22.6516 447.439 22.6796C446.416 22.724 445.387 22.7619 444.377 22.8162C443.986 22.8376 443.782 22.7783 443.571 22.729C443.224 22.6499 442.765 22.7652 442.437 22.6631C442.238 22.6022 441.953 22.5676 441.612 22.5973C441.414 22.6137 441.203 22.6121 440.999 22.6269C440.478 22.6631 440.001 22.6648 439.585 22.5512C439.443 22.5117 439.238 22.4903 439.089 22.4524C438.916 22.4113 438.748 22.3882 438.544 22.3964C437.62 22.4359 436.703 22.4754 435.785 22.5182C435.705 22.5215 435.624 22.5462 435.556 22.5643C435.382 22.6104 435.438 22.6467 435.717 22.6763C435.81 22.6862 435.885 22.7076 435.971 22.724C436.139 22.7553 436.294 22.8047 436.48 22.8162C436.666 22.8277 436.883 22.8047 437.087 22.7965C437.292 22.7882 437.509 22.7635 437.695 22.7734C437.881 22.7849 438.036 22.8327 438.209 22.8623C438.29 22.8771 438.389 22.9018 438.47 22.9002C438.879 22.8903 439.282 22.8722 439.691 22.8574C439.945 22.9018 440.162 22.966 440.466 22.9808C440.658 22.9907 440.862 22.9726 441.061 22.9759C441.147 22.9775 441.259 23.0022 441.302 23.0236C441.327 23.0368 441.247 23.0697 441.185 23.0862C440.949 23.1487 440.627 23.1372 440.335 23.1569C440.019 23.1783 439.734 23.1718 439.492 23.1076C439.331 23.0648 439.151 23.0417 438.953 23.05C438.438 23.0714 437.93 23.0961 437.416 23.1142C437.329 23.1175 437.223 23.1026 437.143 23.0911C436.492 22.9907 436.492 22.9874 436.033 23.0088C435.358 23.0401 435.358 23.0401 434.905 22.9528C434.818 22.9364 434.725 22.9051 434.651 22.9068C433.932 22.9331 433.219 22.9594 432.506 22.9973C432.271 23.0088 432.109 23.0088 431.936 22.966C431.787 22.9298 431.614 22.8886 431.428 22.8788C431.235 22.8689 431.025 22.8936 430.82 22.9018C430.616 22.91 430.399 22.9314 430.219 22.9183C430.033 22.9051 429.872 22.859 429.71 22.8261C429.543 22.7915 429.363 22.7931 429.134 22.8063C428.427 22.8442 428.421 22.8393 427.721 22.7372C427.64 22.7257 427.535 22.7125 427.448 22.7158C426.933 22.7355 426.425 22.7602 425.911 22.78C425.712 22.7882 425.52 22.7668 425.384 22.7191C425.328 22.6993 425.347 22.6664 425.309 22.6022C425.266 22.5874 425.315 22.6137 425.328 22.6384C425.421 22.6351 425.533 22.6384 425.601 22.6252C425.774 22.594 425.861 22.5528 425.818 22.5182C425.793 22.5001 425.675 22.4771 425.601 22.4771C425.464 22.4771 425.347 22.5133 425.309 22.6022C424.919 22.6565 424.503 22.6681 424.1 22.6944C423.865 22.7109 423.716 22.7026 423.53 22.6598C423.307 22.6072 423.078 22.5561 422.712 22.5824C422.315 22.6121 421.894 22.617 421.485 22.6401C421.013 22.6664 420.809 22.5182 420.412 22.5215C420.003 22.5248 419.594 22.5528 419.185 22.5726C418.825 22.589 418.825 22.589 418.081 22.482C417.809 22.4425 417.486 22.5001 417.22 22.459C417.04 22.4326 416.885 22.3932 416.712 22.3652C416.637 22.3536 416.519 22.3536 416.426 22.3569C415.912 22.3767 415.391 22.3899 414.895 22.4261C414.331 22.4689 413.903 22.4228 413.501 22.3257C412.992 22.3438 412.478 22.3536 411.976 22.3849C411.61 22.408 411.399 22.3536 411.151 22.3092C411.064 22.2944 410.99 22.2697 410.897 22.2631C410.804 22.2565 410.692 22.2697 410.593 22.2746C410.184 22.2927 409.763 22.301 409.366 22.3306C408.876 22.3685 408.69 22.2335 408.312 22.217C408.058 22.2977 407.922 22.408 407.419 22.4162C407.01 22.4228 406.601 22.4491 406.192 22.4672C405.988 22.4755 405.783 22.4853 405.578 22.4936C405.25 22.5084 405.095 22.5726 405.163 22.6713C405.2 22.7257 405.231 22.78 405.262 22.8343C405.324 22.9314 405.169 23.0137 404.909 23.0253C404.19 23.0565 403.477 23.0895 402.758 23.1174C402.566 23.1257 402.38 23.0977 402.225 23.0532C402.064 23.0088 401.884 22.989 401.685 22.9973C400.966 23.0286 400.254 23.0615 399.535 23.0895C399.454 23.0928 399.349 23.0763 399.268 23.0631C399.094 23.0335 398.927 22.9989 398.76 22.9677C398.351 22.9825 397.948 22.9923 397.545 23.0121C396.894 23.0417 396.894 23.0434 396.416 22.9528C396.33 22.9364 396.243 22.9051 396.162 22.9068C395.852 22.9133 395.549 22.9298 395.239 22.9446C394.328 22.9874 394.327 22.9874 394.061 22.938C393.819 22.8919 393.602 22.836 393.236 22.8623C392.84 22.8919 392.418 22.9018 392.009 22.9183C391.705 22.9298 391.402 22.943 391.098 22.9463C391.017 22.9479 390.931 22.9166 390.844 22.9002C390.596 22.8491 390.354 22.808 390.013 22.836C389.815 22.8524 389.604 22.8557 389.399 22.864C388.866 22.887 388.866 22.887 387.992 22.7882C387.905 22.7783 387.8 22.7668 387.713 22.7718C386.994 22.8014 386.281 22.8343 385.562 22.8623C385.475 22.8656 385.37 22.8557 385.283 22.8475C384.304 22.752 384.304 22.752 383.263 22.7981C382.866 22.8146 382.853 22.8211 382.438 22.7339C382.252 22.696 382.097 22.6779 381.88 22.6895C381.062 22.729 380.238 22.7553 379.425 22.8014C379.06 22.8211 378.849 22.7718 378.601 22.7273C378.514 22.7125 378.421 22.6796 378.347 22.6812C377.529 22.7125 376.71 22.7504 375.892 22.7816C375.818 22.7849 375.725 22.752 375.638 22.7372C375.471 22.7076 375.309 22.6631 375.123 22.6532C374.931 22.6434 374.72 22.6681 374.51 22.6763C373.995 22.6977 373.995 22.696 373.4 22.5989C373.319 22.5858 373.214 22.5676 373.134 22.5709C372.315 22.6039 371.491 22.6318 370.679 22.6796C370.214 22.7059 369.898 22.6582 369.569 22.589C369.501 22.5742 369.383 22.5676 369.297 22.5709C368.373 22.6088 367.455 22.6516 366.532 22.6895C366.34 22.6977 366.154 22.6697 365.999 22.6269C365.751 22.5594 365.459 22.5676 365.15 22.5824C364.437 22.617 364.43 22.6154 364.009 22.5364C363.922 22.5199 363.848 22.4985 363.755 22.4903C363.668 22.482 363.556 22.487 363.463 22.4903C363.054 22.5067 362.645 22.5248 362.236 22.5429C361.827 22.5611 361.411 22.5709 361.009 22.5989C360.513 22.6335 360.277 22.5265 359.93 22.4771C359.422 22.4985 358.901 22.5117 358.399 22.5462C358.015 22.5726 357.835 22.5001 357.581 22.4623C357.494 22.4491 357.401 22.4211 357.32 22.4244C356.397 22.4606 355.473 22.5001 354.556 22.5446C354.332 22.5545 354.184 22.5413 353.998 22.5018C353.582 22.4129 353.564 22.4162 352.87 22.4491C352.566 22.4639 352.274 22.4771 352.014 22.4096C351.785 22.3487 351.506 22.3339 351.177 22.3536C350.774 22.3783 350.359 22.3915 349.95 22.408C349.541 22.4261 349.132 22.4508 348.723 22.459C348.394 22.4672 348.196 22.3899 347.935 22.3504C347.855 22.3388 347.743 22.3372 347.65 22.3405C347.241 22.3553 346.82 22.3668 346.423 22.3948C345.939 22.4294 345.673 22.3388 345.332 22.2862C345.257 22.2746 345.133 22.2812 345.04 22.2862C344.321 22.3158 343.608 22.3487 342.889 22.38C342.635 22.3355 342.375 22.2927 342.121 22.2483C341.712 22.2648 341.302 22.2829 340.893 22.2993C340.583 22.3125 340.267 22.3174 339.976 22.3421C339.598 22.375 339.412 22.2977 339.158 22.2598C339.071 22.2466 338.978 22.2187 338.897 22.222C338.383 22.2401 337.868 22.2598 337.36 22.2878C336.876 22.3158 336.684 22.1676 336.288 22.1693C335.879 22.1709 335.457 22.1923 335.06 22.222C334.602 22.2565 334.279 22.2038 333.951 22.1331C333.882 22.1182 333.765 22.11 333.678 22.1133C333.163 22.1331 332.655 22.1578 332.141 22.1775C332.054 22.1808 331.948 22.1726 331.862 22.1627C330.882 22.0656 330.882 22.0639 330.455 22.0837C330.151 22.0969 329.841 22.1133 329.531 22.1215C329.444 22.1248 329.339 22.11 329.258 22.0968C328.613 21.9964 328.613 21.9948 328.148 22.0145C327.739 22.0326 327.33 22.0507 326.921 22.0689C326.667 22.0244 326.407 21.9816 326.152 21.9372C325.644 21.9586 325.123 21.975 324.621 22.0047C324.386 22.0178 324.231 22.0129 324.051 21.9717C323.828 21.9224 323.605 21.8647 323.233 21.8927C322.836 21.9224 322.415 21.9256 322.012 21.9503C321.528 21.98 321.33 21.8302 320.939 21.8318C320.53 21.8335 320.109 21.8549 319.712 21.8845C319.253 21.9191 318.931 21.8664 318.602 21.7956C318.534 21.7808 318.416 21.7726 318.33 21.7759C317.201 21.8236 316.079 21.8713 314.951 21.9223C314.257 21.9536 314.257 21.9553 312.937 21.8647C312.844 21.8582 312.744 21.8516 312.651 21.8549C312.242 21.8697 311.821 21.8812 311.424 21.9092C310.94 21.9438 310.674 21.8549 310.333 21.8005C310.259 21.789 310.141 21.7956 310.042 21.7989C309.732 21.8104 309.428 21.8252 309.118 21.8384C308.709 21.8565 308.3 21.8746 307.891 21.8927C307.637 21.8499 307.376 21.8055 307.122 21.7627C306.614 21.7841 306.093 21.7956 305.591 21.8302C305.207 21.8565 305.027 21.7874 304.773 21.7479C304.686 21.7347 304.593 21.7067 304.512 21.7084C303.589 21.7446 302.665 21.7824 301.748 21.8285C301.37 21.8483 301.196 21.7742 300.942 21.7363C300.855 21.7248 300.756 21.7034 300.675 21.7067C300.062 21.7298 299.448 21.7577 298.834 21.7857C298.487 21.8022 298.487 21.8022 297.731 21.7001C297.644 21.6886 297.545 21.6771 297.458 21.6804C295.512 21.7627 293.571 21.8499 291.625 21.9322C291.427 21.9405 291.247 21.9158 291.092 21.8713C290.931 21.8269 290.751 21.8038 290.552 21.8121C289.734 21.8466 288.91 21.8779 288.098 21.9207C287.763 21.9388 287.496 21.9174 287.267 21.8598C287.094 21.817 286.932 21.8005 286.715 21.8104C286.306 21.8302 285.897 21.8466 285.488 21.8647C285.079 21.8828 284.67 21.901 284.261 21.9191C283.852 21.9372 283.436 21.9471 283.033 21.975C282.537 22.0096 282.296 21.9075 281.955 21.8565C281.341 21.8812 280.727 21.9059 280.12 21.9322C279.302 21.9668 278.483 22.0047 277.665 22.0376C277.591 22.0409 277.498 22.0112 277.411 21.9964C277.157 21.9553 276.971 21.8977 276.593 21.9158C274.758 22.003 272.911 22.0771 271.07 22.1627C270.685 22.1808 270.518 22.11 270.257 22.0722C270.171 22.0606 270.072 22.0376 269.991 22.0409C268.968 22.082 267.945 22.1281 266.923 22.1726C266.507 22.1907 266.507 22.1907 265.813 22.0886C265.732 22.0771 265.627 22.0623 265.54 22.0656C264.207 22.1215 262.881 22.1808 261.548 22.2384C261.35 22.2466 261.17 22.2236 261.009 22.1792C260.854 22.1347 260.668 22.11 260.476 22.1182C259.248 22.1709 258.015 22.222 256.794 22.2796C256.465 22.296 256.192 22.2812 255.957 22.222C255.789 22.1792 255.622 22.161 255.411 22.1709C253.57 22.2516 251.729 22.329 249.888 22.4146C249.535 22.431 249.287 22.3997 249.064 22.3454C248.884 22.3026 248.729 22.2944 248.506 22.301C248.27 22.3092 248.128 22.3273 247.997 22.3767C247.83 22.4409 247.725 22.5215 247.328 22.5265C246.919 22.5314 246.503 22.5512 246.101 22.5792C245.716 22.6072 245.536 22.5331 245.295 22.4886C245.115 22.4573 244.948 22.4524 244.718 22.4672C244.507 22.4804 244.377 22.5084 244.253 22.561C243.981 22.673 243.956 22.673 243.621 22.6022C243.441 22.5643 243.28 22.5347 243.082 22.5413C242.263 22.5742 241.445 22.6104 240.627 22.6483C240.156 22.6697 240.15 22.673 239.796 22.5907C239.623 22.5495 239.455 22.5298 239.251 22.5396C237.001 22.6384 234.751 22.7339 232.5 22.8376C232.153 22.8541 231.918 22.8195 231.67 22.7701C231.589 22.7536 231.508 22.7306 231.416 22.724C231.323 22.7174 231.217 22.724 231.118 22.7273C229.481 22.7981 227.839 22.8656 226.208 22.9446C225.836 22.9627 225.638 22.91 225.384 22.8672C225.297 22.8524 225.223 22.8294 225.13 22.8228C225.037 22.8179 224.925 22.8294 224.826 22.8343C223.19 22.9051 221.547 22.9726 219.917 23.0516C219.526 23.0697 219.359 23.0006 219.105 22.9644C219.018 22.9512 218.925 22.9265 218.844 22.9298C218.33 22.9479 217.821 22.9726 217.307 22.994C216.08 23.0483 214.852 23.0993 213.625 23.1553C213.154 23.1767 212.949 23.0302 212.552 23.0368C212.038 23.045 211.53 23.0779 211.015 23.101C210.606 23.1191 210.197 23.1356 209.788 23.1553C209.385 23.1734 209.385 23.1734 208.38 23.0779C208.294 23.0697 208.188 23.0582 208.102 23.0615C206.67 23.1224 205.232 23.1833 203.806 23.2491C203.477 23.264 203.204 23.2557 202.969 23.1948C202.802 23.152 202.628 23.1306 202.423 23.1405C200.272 23.2343 198.128 23.3282 195.977 23.4203C195.896 23.4236 195.791 23.4072 195.71 23.394C195.537 23.3644 195.369 23.3298 195.202 23.2985C195.078 23.3364 194.917 23.371 194.836 23.4138C194.725 23.4714 194.576 23.4878 194.34 23.4977C194.105 23.5076 193.956 23.5043 193.77 23.4615C193.547 23.4088 193.317 23.3677 192.952 23.3841C190.701 23.4878 188.451 23.5817 186.201 23.6837C185.829 23.7002 185.656 23.6277 185.395 23.5899C185.308 23.5784 185.209 23.5603 185.129 23.5636C184.205 23.6014 183.288 23.6426 182.364 23.6821C179.804 23.794 177.244 23.901 174.69 24.0195C174.225 24.0409 173.909 23.9998 173.58 23.929C173.512 23.9142 173.394 23.9059 173.308 23.9092C169.725 24.064 166.142 24.2204 162.565 24.3767C162.373 24.385 162.187 24.3586 162.032 24.3158C161.871 24.2714 161.691 24.25 161.492 24.2582C159.856 24.329 158.22 24.3998 156.583 24.4722C156.174 24.4903 156.168 24.492 155.746 24.4129C155.659 24.3965 155.566 24.3652 155.498 24.3685C155.356 24.3767 155.219 24.4179 155.12 24.4739C155.021 24.5331 154.866 24.5496 154.636 24.5611C154.401 24.5726 154.246 24.5677 154.066 24.5282C153.837 24.4788 153.626 24.4311 153.254 24.4475C148.549 24.6582 143.844 24.8607 139.139 25.0698C138.761 25.0862 138.588 25.0171 138.327 24.9792C138.24 24.9677 138.154 24.9512 138.061 24.9479C137.962 24.9446 137.856 24.9545 137.757 24.9595C130.083 25.2936 122.409 25.6294 114.735 25.9636C114.276 25.9834 114.282 25.9834 113.78 26.1348C113.718 26.1529 113.637 26.1776 113.55 26.1809C111.201 26.2862 108.846 26.3883 106.49 26.4904C105.467 26.5348 104.444 26.5809 103.422 26.6237C103.056 26.6385 103.056 26.6385 102.182 26.8163C102.108 26.8311 102.021 26.8509 101.934 26.8542C97.8426 27.0336 93.7513 27.213 89.6539 27.3892C89.3316 27.4023 89.0713 27.432 88.9225 27.511C88.8171 27.5669 88.6807 27.5999 88.4762 27.6097C85.6123 27.7348 82.7485 27.8616 79.8784 27.9834C79.5375 27.9982 79.3329 28.0443 79.1655 28.1135C79.1097 28.1365 79.0601 28.1628 78.9795 28.1793C78.9051 28.1941 78.7936 28.1991 78.7006 28.204C76.2458 28.311 73.7912 28.4213 71.3302 28.5234C70.9645 28.5382 70.8156 28.5991 70.6359 28.6633C70.5739 28.6847 70.5305 28.7143 70.4499 28.7291C70.3693 28.7423 70.2515 28.7423 70.1523 28.7456C68.1067 28.8345 66.0612 28.925 64.0155 29.0139C63.6188 29.0057 63.532 29.1011 63.3398 29.1588C63.2716 29.1785 63.2221 29.2049 63.1416 29.218C63.0548 29.2312 62.943 29.2295 62.8377 29.2328C61.2012 29.3036 59.5647 29.3793 57.922 29.4452C57.5439 29.46 57.4695 29.5439 57.2649 29.6016C57.1967 29.6197 57.1286 29.6477 57.048 29.6526C56.0252 29.7003 55.0024 29.7448 53.9796 29.7876C53.6387 29.8024 53.6387 29.8008 53.0374 29.9637C52.9692 29.9818 52.8885 30.0016 52.8018 30.0065C51.2706 30.0757 49.7334 30.1415 48.1961 30.209C47.9977 30.2172 47.8614 30.2567 47.7622 30.3127C47.663 30.3687 47.5204 30.4049 47.3221 30.4131C46.0947 30.4674 44.8672 30.5234 43.6398 30.5728C43.2989 30.586 43.0758 30.6271 42.927 30.7012C42.8155 30.7572 42.6791 30.7851 42.4621 30.795C41.2348 30.8477 40.0074 30.9053 38.7738 30.9514C38.4143 30.9646 38.2283 31.0205 38.0795 31.0897C37.9617 31.1456 37.8253 31.1654 37.596 31.1753C35.3458 31.2708 33.0895 31.3662 30.8455 31.4716C30.4674 31.4897 30.2751 31.4321 30.0272 31.3909C29.6739 31.3333 29.3454 31.2707 29.3454 31.1423C29.3454 31.1226 29.24 31.0995 29.1656 31.0831C28.6139 30.9596 28.6139 30.9596 28.5271 30.8279C28.4775 30.7473 28.4217 30.665 28.3784 30.5827C28.2978 30.4477 28.0993 30.4131 27.529 30.4378C27.3245 30.446 27.1199 30.4575 26.9154 30.4641C26.6116 30.4757 26.3823 30.4213 26.3265 30.3226C26.2955 30.2682 26.2584 30.2139 26.2274 30.1596C26.5373 30.1464 26.531 30.1448 27.0765 29.9456C27.3059 29.8617 27.306 29.8617 26.8659 29.7777C26.6985 29.7464 26.5373 29.7119 26.3575 29.6822C26.2769 29.6691 26.1716 29.6608 26.0848 29.6641C25.5703 29.6839 25.062 29.7069 24.5537 29.73C23.7355 29.7662 23.7354 29.7662 22.9047 29.5983C22.8365 29.5851 22.7311 29.5604 22.7435 29.5472C22.8117 29.4863 22.9791 29.46 23.1898 29.4534C23.4998 29.4435 23.8035 29.4271 24.1073 29.4139C24.3118 29.4057 24.5164 29.3958 24.7209 29.3876C24.9131 29.325 25.1116 29.2641 25.2913 29.1999C25.5765 29.1011 25.5764 29.0978 25.1859 29.0287C24.9379 28.9826 24.6714 28.9415 24.4172 28.8987C24.1135 28.9118 23.8035 28.9266 23.4998 28.9382C23.1155 28.953 22.9605 28.9217 22.8613 28.8147C22.7745 28.7209 22.8799 28.6402 23.1774 28.6205C23.4812 28.6007 23.7664 28.5876 23.9214 28.5036C24.0702 28.4229 24.3305 28.3917 24.6528 28.3851C24.8574 28.3801 25.062 28.3686 25.2665 28.3587C25.5331 28.3456 25.6757 28.2616 25.6199 28.1678C25.5889 28.1069 25.5269 28.0558 25.2851 28.0427C24.2127 27.9851 24.2003 27.9867 23.6672 27.8748C23.6176 27.8649 23.5805 27.8353 23.5991 27.8205C23.6301 27.7958 23.6983 27.7595 23.7727 27.7546C24.4855 27.7184 25.1984 27.6855 25.9112 27.6608C26.1468 27.6526 26.3204 27.641 26.401 27.5801C26.5125 27.4962 26.4629 27.4188 26.246 27.3612C26.1778 27.3431 26.0661 27.32 25.9917 27.3217C25.1735 27.3513 24.3615 27.3892 23.5432 27.4188C23.4688 27.4221 23.3325 27.3941 23.3015 27.3727C23.2395 27.3332 23.3325 27.2805 23.5494 27.2624C23.8346 27.2377 24.1259 27.2361 24.3181 27.1538C24.5846 27.0369 24.9131 26.9299 25.2107 26.818C25.2603 26.7982 25.341 26.7603 25.3224 26.757C25.1674 26.7208 24.9876 26.6928 24.8264 26.6583C24.5537 26.6007 24.5536 26.52 24.6156 26.4426C24.6652 26.3801 24.8512 26.3554 25.0805 26.3554C25.1797 26.3554 25.3037 26.3554 25.3843 26.3406C25.595 26.3044 25.6632 26.2583 25.5578 26.2237C25.4959 26.2039 25.3843 26.176 25.31 26.1793C23.9834 26.2336 22.6505 26.2863 21.3302 26.3537C20.9397 26.3735 20.76 26.3109 20.5245 26.2665C20.3447 26.2319 20.1772 26.2188 19.9541 26.2434C19.7433 26.2665 19.5388 26.2533 19.4086 26.199C19.3033 26.1546 19.4892 26.1167 19.9913 26.0739C20.0843 26.0657 20.1896 26.0607 20.2578 26.0443C20.9769 25.8665 20.9768 25.8648 21.4728 25.8418C21.9563 25.8204 21.9564 25.8188 22.2105 25.7233C22.3283 25.6788 22.4584 25.6344 22.57 25.5883C22.6134 25.5702 22.6878 25.5373 22.663 25.5274C22.5267 25.4764 22.3406 25.4648 22.1237 25.4764C21.6402 25.5043 21.0699 25.4813 20.8158 25.6377C20.7166 25.6969 20.5616 25.7134 20.3385 25.7233C18.0945 25.8188 15.8504 25.9208 13.6002 26.013C13.2345 26.0278 13.0672 26.0887 12.9247 26.1562C12.8007 26.2122 12.6643 26.2286 12.4287 26.2385C12.1932 26.2484 12.0071 26.2533 11.8707 26.199C11.7902 26.1661 11.8584 26.12 12.0443 26.0739C12.3109 26.0081 12.2613 25.9258 12.1745 25.8484C12.1125 25.7974 11.9203 25.7611 11.7158 25.7644C11.412 25.771 11.1208 25.7891 10.8666 25.7233C10.7178 25.6854 10.5318 25.6591 10.3645 25.6261C10.0421 25.5587 9.71977 25.4895 9.26725 25.534C8.95731 25.5175 8.74035 25.4583 8.49239 25.4122C8.07707 25.3364 8.03988 25.3249 8.33742 25.2443C8.67216 25.1537 8.41176 25.0352 8.59773 24.9463C8.79609 24.8508 9.06893 24.7669 9.31069 24.678C9.37267 24.6549 9.42849 24.6335 9.49048 24.6105C9.3479 24.5776 9.21775 24.5364 9.05038 24.5134C8.83342 24.4837 8.72184 24.4475 8.73423 24.3455C8.69084 24.3307 8.70931 24.3685 8.7589 24.3784C8.81469 24.3883 8.95117 24.38 9.01936 24.3685C9.19293 24.3372 9.27962 24.2961 9.23623 24.2615C9.21143 24.2434 9.09374 24.2204 9.01936 24.2204C8.88298 24.2204 8.76522 24.2566 8.72803 24.3455C8.03376 24.413 7.31458 24.4459 6.59551 24.4722C6.52112 24.4755 6.4282 24.4426 6.34141 24.4261C6.05626 24.3702 6.05623 24.3718 5.21938 24.3553C5.1326 24.3537 5.01488 24.3307 4.97149 24.3076C4.79172 24.2072 4.79797 24.0969 4.71119 23.9899C4.87236 23.9208 5.0334 23.8533 5.20077 23.7858C5.53551 23.6492 5.96952 23.529 6.22987 23.3792C6.17409 23.2985 6.09969 23.2179 6.37244 23.152C7.14729 23.0697 7.14114 23.0697 7.3519 22.9907C7.95319 22.7668 8.54824 22.5413 9.17433 22.3207C9.3417 22.2631 9.34172 22.2318 9.04418 22.2071C8.95119 22.2006 8.85188 22.1989 8.7527 22.2022C8.44276 22.2137 8.13282 22.2433 7.82908 22.2368C7.52533 22.2318 7.30217 22.1594 7.05422 22.115C6.80007 22.0689 6.54593 22.0211 6.29177 21.9734C6.00043 21.9783 5.70914 22.0244 5.41779 21.9503C5.19463 21.8927 4.9157 21.8516 4.66155 21.8038C4.85371 21.6787 5.2133 21.5832 5.49225 21.473C5.7464 21.3725 5.75246 21.3742 6.43433 21.2968C6.75667 21.2606 6.86826 21.0746 6.59551 21.0203C6.26697 20.9544 5.91991 20.8935 5.58517 20.831C5.29382 20.8359 4.99634 20.8804 4.71739 20.8063C4.50043 20.7503 4.25243 20.7124 3.8929 20.7338C3.28541 20.7701 2.66554 20.7882 2.05186 20.8178C1.84109 20.8277 1.61167 20.8211 1.51869 20.7651C1.4567 20.7256 1.63648 20.6713 1.84104 20.6598C2.15098 20.6433 2.4299 20.6236 2.58487 20.5413C2.73364 20.459 3.00636 20.4342 3.3287 20.4227C3.41549 20.4194 3.51474 20.3997 3.55813 20.3799C3.78129 20.2844 4.02926 20.2021 4.50658 20.2054C4.70494 20.1725 4.81025 20.1314 4.74826 20.0918C4.71107 20.0704 4.58096 20.0425 4.50658 20.0458C3.99207 20.0622 3.47759 20.0787 2.97548 20.1083C2.73992 20.1215 2.56006 20.1248 2.41129 20.0754C2.30591 20.0425 2.36169 19.998 2.56005 19.9503C2.73362 19.9091 2.78327 19.8614 2.77087 19.8054C2.73987 19.6754 2.55387 19.6375 1.95878 19.6458C1.53106 19.6523 1.42568 19.6309 1.33269 19.519C1.3079 19.4927 1.24602 19.4564 1.28941 19.4383C1.55596 19.3264 1.72954 19.1881 2.23165 19.1355C2.43001 19.1157 2.64069 19.1157 2.76466 19.0729C2.88864 19.0301 3.00027 18.9807 3.13045 18.9396C3.29162 18.8902 3.40309 18.8441 3.3287 18.8128C3.20473 18.7569 3.00643 18.7519 2.77707 18.7717C2.57871 18.7881 2.36795 18.7898 2.16339 18.7996C1.79766 18.8177 1.50018 18.775 1.45679 18.7025C1.33901 18.5116 1.215 18.3223 1.10962 18.1313C1.09722 18.1083 1.12813 18.0786 1.17772 18.0589C1.35129 17.9897 1.53733 17.9239 1.71709 17.8564C1.92785 17.779 2.26265 17.7939 2.54779 17.779C2.95072 17.7576 2.95058 17.7593 3.48988 17.6012C3.70064 17.5387 4.06639 17.5634 4.28335 17.5074C4.35154 17.4893 4.45692 17.4597 4.43832 17.4432C4.41353 17.4218 4.28962 17.4054 4.19663 17.3955C4.10985 17.3856 4.00449 17.3807 3.91151 17.3856C2.78332 17.4334 1.66136 17.4844 0.533168 17.5305C0.341003 17.5387 0.130236 17.5025 0.062049 17.4515C-0.00613831 17.4037 0.0123977 17.3461 0 17.2918C0.179767 17.2243 0.38425 17.1617 0.539221 17.0893C0.656999 17.0333 0.793398 17.0086 1.02895 17.0053C1.3389 17.0004 1.64267 16.9807 1.98981 16.9658C2.63449 16.7255 3.26673 16.4737 3.961 16.2333C4.23995 16.1362 4.17187 16.0374 4.22766 15.9337C4.28345 15.8382 4.69875 15.8531 4.97769 15.8251C5.20085 15.802 5.27514 15.7494 5.18836 15.7131C5.13877 15.6917 5.02725 15.667 4.94047 15.667C4.7359 15.667 4.53135 15.6819 4.32679 15.6901C4.12222 15.6983 3.88668 15.6934 3.71931 15.7214C3.55814 15.7477 3.4527 15.8037 3.34732 15.8514C3.22954 15.9041 3.07468 15.9222 2.83912 15.9255C2.53538 15.9288 2.23165 15.9436 1.92791 15.9551C1.59317 15.8909 1.24596 15.8284 0.923623 15.7609C0.861634 15.7477 0.84917 15.7099 0.855369 15.6852C0.867766 15.621 0.774808 15.5814 0.570246 15.5502C0.396678 15.5238 0.254092 15.486 0.0929222 15.4531C0.216899 15.4086 0.353322 15.3658 0.452504 15.3181C0.669464 15.2176 0.942243 15.1452 1.41336 15.1485C1.59932 15.0843 1.74805 15.0053 1.98981 14.9609C2.21916 14.9181 2.60971 14.9608 2.78328 14.8637C2.87006 14.816 3.00031 14.7617 3.16768 14.7419C3.43423 14.7106 3.78136 14.7271 3.93633 14.6349C4.02931 14.5823 4.16563 14.5345 4.3454 14.5213C4.54996 14.5065 4.76067 14.5032 4.90944 14.472C4.99003 14.4555 5.07682 14.4292 5.07682 14.4061C5.07682 14.3913 4.95294 14.3683 4.86616 14.3584C4.78557 14.3469 4.68007 14.3386 4.58709 14.3419C4.27715 14.3518 3.97341 14.3699 3.66347 14.3798C3.57668 14.3831 3.47753 14.3715 3.38455 14.3617C3.1118 14.3353 3.13036 14.3024 3.34732 14.2432C3.56428 14.1855 3.71933 14.1114 3.8991 14.044C4.09746 14.0324 4.34538 14.0374 4.48176 14.0061C4.71111 13.9551 4.87224 13.881 5.05821 13.8168C5.26277 13.8069 5.47352 13.8036 5.66568 13.7855C5.74627 13.7789 5.78349 13.7427 5.85168 13.7213C5.97566 13.6802 6.08112 13.6209 6.24849 13.6012C6.52124 13.5715 6.85597 13.583 7.01714 13.4925C7.11012 13.4398 7.25264 13.3839 7.42621 13.3806C7.90972 13.374 8.11429 13.2834 8.36224 13.1978C8.54821 13.1336 8.94495 13.1666 9.14951 13.1024C9.28588 13.0612 9.38513 13.0102 9.5215 12.9707C9.57729 12.9542 9.69503 12.946 9.78801 12.9411C10.2963 12.9164 10.8108 12.8982 11.3191 12.8719C11.3997 12.867 11.4741 12.8423 11.5361 12.8225C11.6663 12.7797 11.7468 12.7205 11.908 12.6925C12.0691 12.6645 12.2985 12.6645 12.4968 12.6563C13.1353 12.6316 13.1849 12.6382 13.4763 12.4982C13.7119 12.3847 14.2884 12.4653 14.4806 12.3402C14.5922 12.2678 14.7966 12.2085 15.1624 12.2003C15.6769 12.1888 16.1852 12.1575 16.6997 12.1361C17.1584 12.1163 17.1522 12.1163 17.6481 11.9632C17.8713 11.8941 18.1999 11.904 18.4912 11.8908C18.8012 11.8777 19.0863 11.8579 19.2351 11.7756C19.3838 11.6949 19.6565 11.6686 19.9727 11.6571C20.264 11.6455 20.5926 11.6538 20.822 11.5879C21.3799 11.4299 21.3737 11.4283 21.7642 11.4118C22.3779 11.3855 22.9916 11.3591 23.6053 11.3311C24.0144 11.313 24.4421 11.3097 24.8264 11.2735C25.1054 11.2472 25.2293 11.155 25.4091 11.0908C25.9174 11.0661 26.4257 11.0414 26.934 11.0184C27.6468 10.9854 28.3659 10.9558 29.085 10.9245C29.3949 10.862 29.4384 10.7237 29.9591 10.7171C30.269 10.7138 30.5728 10.6924 30.8827 10.6793C31.3972 10.6562 31.9055 10.6266 32.42 10.6151C32.8105 10.6068 32.8786 10.5179 33.0832 10.462C33.1514 10.4422 33.2134 10.4142 33.294 10.4093C34.0998 10.3632 34.9304 10.3533 35.7177 10.2858C35.7983 10.2793 35.8727 10.2447 35.8913 10.22C35.9037 10.2068 35.7983 10.1821 35.7301 10.1706C35.6495 10.1575 35.5442 10.1443 35.4574 10.1476C32.8973 10.2579 30.3372 10.3698 27.7771 10.4801C27.4176 10.4966 27.4176 10.4949 26.5435 10.676C26.4691 10.6908 26.3823 10.7072 26.2893 10.7122C25.8801 10.7319 25.4648 10.7435 25.0619 10.7682C24.7334 10.7879 24.4607 10.7682 24.2252 10.7089C24.0578 10.6661 23.8841 10.6529 23.6734 10.6562C23.4378 10.6612 23.2829 10.6793 23.1466 10.7237C22.9668 10.7846 22.8738 10.8636 22.4957 10.8801C20.7538 10.9509 19.0118 11.0299 17.2761 11.1056C17.0344 11.0826 16.9166 11.048 16.9786 11.0069C17.0158 10.9822 17.0902 10.9492 17.1646 10.9459C17.8774 10.9114 18.5965 10.8818 19.3094 10.8488C19.4085 10.8439 19.5449 10.8472 19.6007 10.8307C19.8734 10.7566 19.9727 10.6365 20.4872 10.6282C20.7848 10.6233 21.0885 10.5986 21.3736 10.5756C21.4542 10.569 21.5286 10.5344 21.5472 10.5097C21.5534 10.4965 21.4542 10.4718 21.3798 10.4603C21.1071 10.4126 20.791 10.4702 20.5183 10.4373C20.4253 10.4258 20.295 10.4093 20.2764 10.3896C20.264 10.3714 20.3694 10.3418 20.4438 10.3237C20.512 10.3072 20.6049 10.2924 20.6979 10.2875C21.5161 10.2496 22.3345 10.2101 23.1528 10.1805C23.4875 10.169 23.723 10.1278 23.8718 10.0521C23.9834 9.99612 24.1197 9.9665 24.3305 9.95826C25.7624 9.89736 27.1943 9.82987 28.6325 9.7739C28.992 9.76073 29.178 9.70641 29.3268 9.63563C29.4446 9.57966 29.581 9.5599 29.8103 9.55003C31.8621 9.46443 33.9015 9.36896 35.9533 9.28665C36.3315 9.27183 36.4431 9.20105 36.6353 9.14014C36.7035 9.11874 36.7467 9.0924 36.8335 9.07924C36.9203 9.06607 37.0319 9.0677 37.1373 9.06441C38.7738 8.99362 40.4104 8.91791 42.0531 8.85207C42.4374 8.83725 42.5117 8.75494 42.71 8.69732C42.7782 8.67921 42.8402 8.64959 42.9208 8.64465C44.1482 8.58869 45.3755 8.53601 46.6029 8.48169C47.4212 8.44547 48.2394 8.40925 49.0576 8.37469C49.4606 8.35822 49.4606 8.35657 50.0061 8.20019C50.0681 8.18208 50.1549 8.16068 50.2355 8.15574C52.5911 8.05038 54.9404 7.94999 57.2959 7.84628C57.4943 7.83805 57.6368 7.80017 57.736 7.7442C57.8352 7.68824 57.9779 7.65038 58.1701 7.64214C60.0111 7.55984 61.8521 7.47918 63.6994 7.40182C64.0341 7.38865 64.2696 7.34914 64.4184 7.27506C64.53 7.21909 64.6664 7.18947 64.8771 7.18124C66.7182 7.10222 68.5593 7.01826 70.4066 6.94254C70.7599 6.92772 70.9334 6.87176 71.107 6.80592C71.169 6.78287 71.2186 6.74501 71.293 6.74171C72.2104 6.69562 73.1216 6.64788 74.0452 6.61661C74.4296 6.60344 74.5598 6.5343 74.7148 6.46845C74.8387 6.41577 74.9813 6.39767 75.2169 6.39109C75.7314 6.37627 76.2397 6.3483 76.7418 6.32031C76.8162 6.31538 76.9092 6.27916 76.9154 6.25611C76.9278 6.21331 76.7851 6.18368 76.5496 6.16886C74.0948 6.27586 71.634 6.38285 69.1792 6.48985C68.7763 6.50796 68.7763 6.50797 68.2308 6.66435C68.1688 6.68246 68.0819 6.70386 67.9952 6.7088C65.6396 6.81251 63.2903 6.91457 60.9347 7.01827C60.7364 7.0265 60.5938 7.06436 60.4946 7.12033C60.3955 7.1763 60.2528 7.21416 60.0606 7.22239C57.8104 7.32116 55.5603 7.42158 53.3039 7.51541C52.9692 7.52858 52.7337 7.56642 52.5849 7.64214C52.4733 7.69811 52.3369 7.72775 52.1262 7.73599C49.9752 7.82817 47.8303 7.92528 45.6731 8.01417C45.4561 8.0224 45.2951 7.97466 45.3074 7.93022C45.3136 7.90717 45.4065 7.86933 45.4809 7.86604C46.6029 7.81171 47.7188 7.75574 48.847 7.71458C49.2251 7.70142 49.3366 7.62898 49.5288 7.56808C49.5907 7.54668 49.6404 7.51869 49.721 7.50717C49.8077 7.494 49.9193 7.49565 50.0247 7.49236C52.684 7.37549 55.3434 7.25697 58.0089 7.14668C58.3932 7.13022 58.4675 7.04954 58.6659 6.99193C58.734 6.97218 58.7961 6.94255 58.8767 6.93926C59.6949 6.89976 60.5131 6.86518 61.3314 6.83061C62.7633 6.76806 64.1952 6.7055 65.6334 6.64295C66.0487 6.62484 66.0487 6.62484 66.5818 6.4701C66.6438 6.45199 66.7306 6.42896 66.8112 6.42567C70.5987 6.25941 74.3863 6.09315 78.1738 5.92853C78.3721 5.9203 78.5147 5.88244 78.6139 5.82648C78.713 5.77215 78.8556 5.73265 79.0478 5.72277C84.168 5.49889 89.2821 5.27501 94.4023 5.05443C94.7371 5.03961 94.9726 5.00504 95.1213 4.92767C95.2267 4.8717 95.3693 4.84208 95.58 4.8322C101.209 4.58693 106.837 4.34166 112.472 4.09474C116.259 3.93013 120.047 3.76222 123.834 3.6009C124.182 3.58609 124.367 3.53505 124.541 3.46755C124.597 3.44451 124.653 3.40664 124.727 3.40335C125.539 3.3622 126.351 3.32434 127.163 3.28648C127.417 3.33093 127.671 3.37374 127.926 3.41818C128.118 3.35563 128.304 3.29143 128.496 3.22887C129.723 3.18113 130.932 3.10706 132.172 3.08401C132.252 3.08237 132.339 3.11365 132.426 3.13011C133.002 3.23381 133.331 3.22558 133.697 3.08731C133.827 3.03792 133.938 2.99348 134.137 2.98525C134.751 2.95562 135.371 2.93586 135.978 2.90129C136.307 2.88319 136.579 2.89964 136.815 2.9589C136.982 3.0017 137.156 3.01982 137.36 3.00994C138.489 2.96056 139.611 2.91282 140.739 2.86014C140.819 2.85685 140.894 2.82885 140.956 2.8091C141.086 2.7663 141.197 2.72022 141.321 2.67577C141.489 2.70376 141.675 2.72516 141.811 2.76138C141.985 2.80418 142.146 2.80417 142.381 2.79264C146.882 2.59346 151.388 2.39922 155.889 2.19839C156.273 2.18193 156.44 2.25107 156.701 2.28729C156.788 2.30046 156.874 2.31691 156.967 2.3202C157.066 2.3235 157.172 2.31363 157.271 2.30869C160.649 2.16054 164.028 2.01402 167.406 1.86587C167.853 1.84612 167.853 1.84612 168.516 1.94818C168.596 1.96135 168.702 1.97616 168.789 1.97122C170.326 1.90703 171.863 1.83789 173.394 1.77205C173.593 1.76382 173.76 1.79015 173.94 1.82801C174.293 1.90209 174.318 1.90209 174.578 1.79345C174.702 1.74242 174.832 1.71113 175.037 1.69631C175.26 1.67985 175.44 1.68481 175.613 1.71444C175.861 1.75559 176.041 1.82472 176.419 1.80661C178.056 1.72924 179.698 1.66505 181.329 1.58604C181.701 1.56793 181.899 1.62389 182.147 1.66505C182.234 1.67986 182.314 1.70291 182.407 1.70785C182.5 1.71279 182.612 1.70125 182.711 1.69631C184.757 1.60742 186.808 1.52019 188.848 1.42472C189.232 1.40661 189.4 1.47738 189.66 1.51359C189.747 1.52676 189.846 1.54982 189.927 1.54653C191.154 1.4955 192.388 1.44116 193.615 1.38684C194.055 1.36709 194.055 1.36873 194.724 1.46915C194.805 1.48232 194.91 1.49549 194.997 1.49219C196.429 1.43129 197.867 1.36873 199.299 1.30618C199.739 1.28643 199.739 1.28643 201.01 1.37203C201.103 1.37861 201.202 1.3885 201.295 1.38521C202.932 1.31443 204.574 1.24528 206.211 1.16956C206.539 1.15474 206.812 1.16791 207.048 1.22717C207.215 1.26997 207.389 1.28809 207.593 1.27821C209.434 1.19755 211.282 1.12018 213.117 1.03458C213.47 1.01812 213.699 1.05432 213.947 1.10206C214.028 1.11852 214.108 1.14157 214.201 1.14816C214.294 1.15474 214.4 1.14815 214.499 1.14322C216.34 1.06255 218.187 0.986836 220.022 0.899591C220.394 0.881483 220.592 0.937448 220.84 0.978602C220.927 0.993417 221.02 1.02305 221.094 1.0214C221.813 0.993419 222.532 0.968735 223.245 0.927582C223.63 0.904536 223.797 0.980245 224.057 1.01646C224.144 1.02798 224.243 1.05269 224.324 1.04939C225.861 0.985195 227.399 0.917708 228.93 0.848571C229.147 0.838694 229.308 0.853496 229.481 0.896295C229.711 0.95391 229.977 0.976956 230.312 0.958849C231.025 0.920988 231.744 0.894657 232.463 0.86338C232.885 0.845273 232.885 0.845279 234.174 0.930878C234.267 0.937462 234.366 0.947332 234.459 0.944039C235.686 0.891363 236.92 0.840336 238.141 0.782722C238.47 0.76626 238.743 0.781071 238.978 0.840332C239.145 0.883132 239.313 0.901249 239.524 0.891372C240.652 0.841988 241.774 0.7926 242.902 0.743216C243.311 0.725109 243.72 0.693824 244.129 0.693824C244.427 0.69547 244.644 0.774481 244.91 0.813988C244.985 0.825511 245.109 0.812358 245.208 0.809065C246.64 0.746512 248.078 0.688892 249.504 0.618108C249.876 0.600001 250.074 0.655966 250.322 0.697119C250.409 0.711935 250.502 0.741567 250.576 0.73992C251.091 0.721813 251.599 0.697119 252.113 0.675719C252.727 0.649381 253.347 0.629627 253.954 0.593412C254.45 0.563782 254.636 0.706991 255.033 0.711929C255.337 0.716867 255.647 0.688888 255.95 0.675719C256.564 0.649381 257.178 0.619754 257.792 0.596708C258.008 0.588477 258.176 0.562128 258.244 0.502867C258.257 0.491344 258.151 0.466662 258.083 0.451847C257.259 0.283942 257.258 0.283934 256.428 0.320148C255.913 0.343194 255.405 0.366244 254.89 0.385998C254.804 0.38929 254.705 0.376122 254.618 0.366245C254.37 0.338261 254.395 0.305341 254.605 0.246081C254.816 0.18682 254.977 0.114396 255.157 0.0469049C255.411 0.0897044 255.659 0.132489 255.913 0.175288C256.118 0.167057 256.323 0.157195 256.527 0.148964C257.55 0.106165 258.573 0.0617161 259.595 0.0222089C259.67 0.0189166 259.763 0.0518441 259.85 0.0683054C260.098 0.116043 260.321 0.157185 260.68 0.139078C261.598 0.0913401 262.521 0.0567713 263.439 0.0156179C263.842 -0.00248952 263.842 -0.00248791 264.548 0.0995723C264.629 0.111095 264.734 0.124265 264.821 0.120973C265.745 0.0831118 266.662 0.0419633 267.586 0.00245611C267.784 -0.00577455 267.976 0.0156244 268.119 0.0633622C268.175 0.0831158 268.162 0.116032 268.398 0.385998C269.129 0.604934 269.631 0.581899 270.14 0.562145C270.357 0.553915 270.549 0.545676 270.691 0.512753C270.766 0.494646 270.859 0.468304 270.859 0.446904C270.859 0.430443 270.722 0.4041 270.636 0.400807C270.022 0.367885 269.439 0.437032 268.838 0.451847C268.559 0.458432 268.317 0.400816 268.268 0.306987C268.255 0.280649 268.237 0.252666 268.218 0.226328C268.199 0.19999 268.187 0.172007 268.169 0.145669C267.927 0.137438 267.784 0.167064 267.679 0.223032C267.592 0.269124 267.468 0.3218 267.301 0.346492C267.133 0.37283 266.904 0.367901 266.699 0.376132C266.501 0.384362 266.284 0.405759 266.098 0.394237C265.912 0.381067 265.763 0.333322 265.59 0.303691C265.509 0.288876 265.41 0.267484 265.329 0.270777C264.617 0.298761 263.91 0.326735 263.203 0.36295C262.831 0.382703 262.645 0.313576 262.41 0.270777C262.224 0.237854 262.038 0.246074 262.007 0.321796C261.926 0.502871 262.211 0.578589 262.844 0.54402C263.364 0.51439 263.835 0.509467 264.245 0.621404C264.3 0.636219 264.431 0.642801 264.511 0.639509C265.019 0.619755 265.521 0.595061 266.03 0.575307C266.123 0.572015 266.222 0.578589 266.309 0.585173C267.573 0.674065 267.573 0.67572 268.001 0.655966C268.206 0.646089 268.404 0.637858 268.385 0.387646C268.776 0.119326 269.396 0.101222 269.997 0.0617145C270.388 0.0370225 270.555 0.109456 270.809 0.147317C270.896 0.160486 270.989 0.186819 271.07 0.183527C272.402 0.129204 273.729 0.0715816 275.055 0.0106747C275.279 0.000797921 275.44 0.0106763 275.613 0.0534758C275.836 0.107798 276.084 0.142374 276.438 0.122621C277.144 0.0831134 277.863 0.058427 278.582 0.0255044C278.948 0.00904305 278.948 0.00902618 279.686 0.111086C279.766 0.122609 279.872 0.135779 279.959 0.132487C280.678 0.104503 281.391 0.0699443 282.104 0.040314C282.302 0.0320833 282.482 0.0551267 282.637 0.0995723C282.792 0.144018 282.978 0.167061 283.17 0.158831C283.889 0.1292 284.602 0.0962881 285.314 0.0666577C285.401 0.0633654 285.507 0.0748876 285.587 0.0864105C286.343 0.188471 286.343 0.188454 286.691 0.171993C287.199 0.147301 287.72 0.13579 288.222 0.102868C288.711 0.0699451 288.966 0.165413 289.3 0.218089C290.218 0.180228 291.141 0.14896 292.053 0.102868C292.424 0.0831142 292.623 0.137432 292.871 0.180231C292.958 0.195046 293.044 0.226326 293.125 0.22468C293.435 0.218095 293.739 0.199991 294.043 0.186822C294.346 0.173653 294.656 0.160486 294.96 0.147317C295.307 0.195054 295.536 0.30699 296.032 0.269129C296.33 0.246083 296.646 0.241145 296.95 0.227976C297.253 0.214806 297.563 0.201639 297.867 0.18847C298.072 0.180239 298.282 0.175294 298.481 0.160478C298.847 0.135786 299.026 0.216457 299.287 0.252672C299.374 0.264194 299.473 0.283935 299.553 0.280643C300.167 0.257597 300.787 0.237845 301.388 0.199984C301.853 0.170354 302.169 0.219744 302.498 0.288882C302.566 0.303697 302.684 0.311927 302.77 0.308634C303.489 0.28065 304.202 0.246072 304.915 0.216441C305.107 0.208211 305.293 0.234548 305.448 0.277347C305.61 0.321793 305.789 0.343209 305.988 0.334978C306.7 0.305348 307.42 0.272415 308.133 0.242785C308.219 0.239493 308.325 0.252664 308.405 0.265833C309.099 0.367894 309.099 0.369541 309.509 0.349788C309.608 0.344849 309.713 0.341544 309.812 0.336606C310.321 0.31356 310.848 0.305341 311.343 0.265833C311.914 0.221388 312.329 0.277359 312.732 0.371188C313.24 0.351435 313.761 0.339909 314.257 0.306987C314.629 0.282295 314.827 0.344845 315.075 0.385998C315.162 0.400813 315.255 0.430443 315.329 0.427151C316.048 0.399167 316.767 0.374484 317.474 0.33333C317.858 0.310285 318.026 0.384347 318.286 0.422208C318.373 0.435377 318.466 0.458435 318.546 0.455143C318.956 0.441974 319.365 0.42221 319.774 0.404103C320.251 0.382703 320.251 0.384348 320.883 0.484762C321.181 0.5325 321.479 0.494637 321.77 0.483114C322.08 0.469945 322.371 0.460071 322.619 0.527563C322.774 0.570362 322.96 0.596701 323.152 0.590117C323.561 0.575302 323.977 0.560494 324.38 0.535802C324.702 0.516048 324.981 0.52921 325.216 0.590117C325.384 0.632916 325.557 0.654329 325.762 0.644452C326.679 0.604945 327.603 0.563776 328.52 0.525915C328.601 0.522623 328.713 0.537444 328.787 0.552259C328.961 0.581889 329.128 0.614805 329.295 0.647727C329.698 0.632912 330.114 0.626345 330.51 0.603299C330.932 0.580253 331.316 0.57202 331.645 0.662557C331.713 0.682311 331.812 0.71028 331.893 0.708633C332.203 0.702049 332.506 0.685592 332.81 0.672423C333.114 0.659254 333.424 0.646087 333.727 0.632918C334.081 0.674071 334.304 0.792591 334.8 0.75473C335.098 0.731684 335.414 0.726746 335.717 0.713577C336.021 0.700408 336.331 0.685594 336.635 0.674071C336.734 0.670779 336.846 0.662543 336.932 0.669128C337.025 0.675712 337.106 0.698763 337.186 0.715224C337.434 0.762962 337.664 0.810706 338.017 0.782722C338.315 0.759676 338.631 0.754736 338.935 0.73992C339.35 0.721813 339.35 0.721816 340.038 0.825523C340.317 0.868322 340.633 0.812356 340.9 0.848571C341.079 0.873263 341.234 0.914407 341.408 0.942392C341.482 0.953915 341.6 0.958846 341.687 0.955553C342.096 0.940738 342.511 0.92593 342.914 0.901238C343.243 0.881485 343.516 0.901236 343.745 0.960497C343.912 1.0033 344.08 1.02141 344.29 1.01154C345.313 0.965445 346.336 0.925925 347.353 0.874895C347.7 0.856787 347.979 0.884779 348.171 0.944039C348.499 1.0461 348.964 0.925934 349.305 1.00824C349.516 1.05927 349.727 1.11854 350.111 1.09384C350.818 1.05104 351.537 1.02798 352.25 0.998354C352.504 1.0428 352.758 1.08726 353.018 1.1317C353.427 1.11359 353.837 1.09547 354.246 1.07901C354.549 1.06584 354.859 1.05103 355.163 1.03951C355.262 1.03622 355.368 1.02963 355.461 1.03786C355.554 1.04609 355.628 1.0675 355.715 1.08396C356.143 1.16462 356.142 1.16627 356.849 1.13335C357.153 1.11853 357.444 1.10866 357.698 1.1745C357.934 1.23541 358.213 1.24692 358.535 1.22882C359.143 1.19589 359.757 1.1712 360.376 1.14816C360.569 1.13993 360.748 1.16791 360.909 1.21071C361.151 1.2782 361.449 1.27162 361.753 1.25351C362.155 1.23047 362.552 1.20743 362.893 1.29961C362.961 1.31936 363.067 1.34733 363.141 1.34569C363.649 1.33252 364.164 1.32265 364.66 1.29137C365.156 1.26009 365.397 1.36215 365.738 1.41154C366.247 1.39014 366.761 1.36873 367.269 1.34733C367.369 1.3424 367.486 1.32759 367.573 1.33582C367.939 1.37039 368.15 1.49385 368.652 1.45598C368.943 1.43458 369.259 1.42801 369.563 1.42307C369.644 1.42142 369.749 1.44939 369.805 1.47079C369.836 1.48232 369.805 1.51359 369.768 1.53005C369.656 1.57614 369.52 1.61896 369.42 1.66669C369.408 1.67328 369.526 1.7029 369.594 1.71607C369.761 1.7457 369.954 1.74077 370.177 1.7276C370.369 1.71608 370.567 1.73912 370.704 1.78851C370.759 1.80826 370.741 1.84118 370.623 1.94982C370.623 2.03048 370.753 1.99426 370.797 1.94159C370.865 1.86586 370.735 1.84117 370.487 1.88233C370.313 1.91196 370.226 1.95476 370.27 1.98933C370.295 2.00744 370.412 2.03048 370.623 1.94982C371.168 1.85106 371.578 1.83296 371.987 1.81485C372.092 1.80991 372.216 1.79344 372.291 1.80332C372.557 1.84282 372.805 1.89057 373.065 1.93501C373.363 1.92514 373.642 1.90043 373.933 1.96463C374.342 2.05517 374.361 2.04694 374.758 2.02884C374.962 2.01896 375.167 2.01074 375.371 2.00251C375.576 1.99428 375.737 2.01897 375.917 2.05683C376.283 2.1342 376.314 2.13419 376.555 2.02884C376.698 1.96464 376.797 1.94324 376.977 1.97287C377.572 2.07329 377.578 2.07987 378.086 2.05024C378.508 2.02554 378.905 2.01896 379.215 2.11279C379.425 2.17864 379.494 2.16382 379.661 2.09468C380.107 1.91196 380.312 1.91525 381.149 2.04694C381.539 2.10949 381.942 2.04201 382.339 2.03378C382.674 2.02719 382.909 2.06669 382.934 2.1704C382.953 2.2346 383.008 2.2807 383.232 2.3021C383.318 2.31033 383.424 2.32185 383.51 2.31856C384.025 2.2988 384.533 2.27575 385.048 2.25271C385.308 2.24118 385.451 2.16383 385.401 2.06177C385.345 1.95313 385.444 1.9136 385.816 1.88233C386.04 1.86422 386.219 1.86753 386.399 1.89716C386.598 1.93008 386.542 1.95971 386.368 2.01897C385.953 2.16383 386.002 2.2527 386.536 2.35312C386.721 2.38769 386.87 2.41898 386.914 2.47001C386.938 2.49635 386.914 2.53091 386.969 2.55067C387.273 2.66096 387.695 2.73175 388.166 2.78442C388.618 2.73998 388.928 2.81404 389.275 2.8733C389.548 2.91939 389.87 2.8799 390.162 2.86344C390.49 2.84533 390.763 2.85849 390.999 2.9194C391.166 2.9622 391.34 2.98194 391.544 2.97371C391.953 2.95561 392.369 2.94409 392.771 2.91775C393.119 2.89471 393.379 2.92763 393.596 2.9836C393.869 3.05438 394.173 3.00664 394.458 3.01652C394.842 3.02804 395.034 3.17454 395.536 3.13503C395.834 3.11199 396.144 3.10376 396.454 3.09717C396.534 3.09553 396.633 3.12352 396.702 3.14327C397.03 3.23381 397.415 3.22887 397.836 3.20253C398.127 3.18442 398.412 3.16797 398.698 3.23052C399.169 3.33587 399.69 3.42806 400.185 3.52518C400.254 3.60091 400.204 3.68978 400.557 3.73423C400.743 3.75727 400.917 3.79185 401.059 3.82972C401.233 3.87416 401.394 3.88569 401.617 3.87416C402.02 3.85112 402.442 3.84616 402.839 3.81653C403.204 3.7902 403.434 3.84453 403.657 3.89556C403.836 3.93672 404.004 3.95646 404.221 3.92683C404.444 3.89885 404.605 3.91695 404.785 3.96139C405.039 4.0223 405.058 4.01573 405.901 4.03383C405.988 4.03548 406.093 4.06016 406.142 4.08156C406.167 4.09308 406.112 4.12602 406.068 4.14248C406.012 4.16224 405.925 4.18527 405.845 4.19021C404.927 4.23301 404.004 4.27087 403.086 4.31367C402.993 4.31861 402.894 4.33014 402.826 4.3466C402.752 4.36471 402.659 4.38939 402.659 4.41243C402.659 4.42889 402.783 4.44865 402.869 4.46018C403.142 4.49804 403.465 4.44043 403.731 4.48323C403.911 4.51121 404.06 4.55071 404.239 4.57705C404.314 4.58857 404.432 4.58693 404.525 4.58364C404.835 4.57211 405.138 4.55566 405.448 4.54578C405.535 4.54413 405.634 4.5606 405.715 4.57377C406.31 4.67254 406.31 4.67253 406.824 4.65113C407.029 4.6429 407.246 4.61821 407.438 4.62809C407.624 4.63796 407.785 4.68241 407.953 4.71039C408.3 4.76965 408.628 4.82727 408.653 4.95566C408.665 5.00505 408.87 5.04784 409.074 5.05113C409.273 5.05443 409.484 5.03633 409.688 5.02646C410.172 5.0067 410.172 5.0067 410.798 5.10712C410.971 5.1351 411.157 5.13839 411.38 5.12193C411.467 5.11534 411.573 5.12193 411.666 5.13016C411.969 5.15486 411.969 5.18612 411.771 5.24539C411.492 5.33263 411.517 5.34087 412.298 5.41494C412.595 5.44293 412.825 5.49561 413.073 5.5417C413.476 5.61577 413.47 5.61576 413.203 5.71288C413.141 5.73428 413.085 5.75733 413.023 5.78038C412.843 5.84458 412.701 5.91371 412.329 5.9203C411.92 5.92688 411.511 5.95323 411.102 5.97134C410.705 5.98944 410.599 6.02893 410.637 6.14087C410.68 6.27586 410.761 6.29067 411.474 6.28903C411.678 6.28903 411.858 6.30219 412.013 6.34664C411.938 6.39931 411.802 6.44047 411.604 6.45035C411.095 6.47504 410.581 6.49644 410.073 6.51784C409.663 6.53595 409.254 6.55405 408.845 6.57216C408.591 6.58368 408.43 6.66929 408.498 6.76476C408.535 6.81909 408.566 6.87341 408.597 6.92773C408.665 7.03637 408.796 7.06437 409.211 7.05943C409.316 7.05778 409.415 7.0446 409.515 7.04789C409.918 7.05942 410.11 7.19604 410.593 7.16806C410.996 7.14501 411.418 7.14008 411.814 7.11045C412.18 7.08411 412.385 7.14338 412.639 7.18783C412.726 7.20265 412.819 7.23391 412.893 7.23226C413.408 7.21415 413.922 7.19606 414.424 7.16478C414.66 7.15161 414.802 7.16149 414.988 7.20099C415.435 7.29647 415.447 7.29153 416.11 7.2619C416.594 7.23885 416.6 7.24214 417.22 7.34256C417.393 7.37054 417.579 7.37054 417.803 7.35737C418.094 7.34091 418.398 7.31457 418.701 7.33926C418.794 7.34585 418.912 7.36561 418.943 7.38701C418.962 7.40182 418.875 7.43804 418.801 7.44956C418.255 7.53516 417.617 7.52035 417.021 7.55491C416.835 7.56479 416.649 7.53351 416.494 7.48907C416.333 7.44462 416.16 7.42652 415.949 7.43475C415.54 7.45286 415.125 7.46438 414.722 7.49071C414.375 7.51376 414.133 7.47589 413.891 7.42486C413.81 7.4084 413.717 7.37712 413.637 7.37877C412.719 7.41169 411.796 7.44462 410.885 7.49071C410.519 7.51047 410.308 7.4578 410.06 7.41335C409.973 7.39853 409.887 7.36725 409.806 7.3689C409.496 7.37549 409.192 7.39359 408.882 7.40676C407.754 7.45614 406.632 7.50553 405.504 7.55162C405.43 7.55491 405.337 7.52034 405.25 7.50552C405.082 7.47589 404.909 7.44791 404.735 7.41992C404.425 7.43309 404.122 7.44955 403.812 7.45943C403.589 7.46601 403.39 7.48907 403.359 7.55162C403.341 7.59277 403.545 7.63063 403.762 7.62734C403.973 7.62404 404.184 7.60429 404.357 7.62569C405.219 7.73104 405.219 7.73269 405.758 7.71129C406.229 7.69154 406.18 7.67507 406.595 7.7656C406.775 7.80511 406.936 7.82817 407.141 7.81829C407.649 7.79525 408.163 7.7722 408.678 7.75244C408.758 7.74915 408.864 7.76562 408.944 7.77879C409.552 7.87755 409.552 7.88084 410.054 7.85615C410.711 7.82652 410.736 7.81829 411.176 7.9187C411.48 7.98784 411.759 7.9401 412.05 7.93681C412.385 8.00101 412.75 8.05863 413.054 8.13106C413.414 8.21666 413.792 8.20183 414.201 8.17714C414.505 8.15903 414.802 8.15245 415.05 8.21994C415.286 8.28249 415.571 8.28909 415.893 8.27263C416.185 8.25781 416.482 8.22653 416.786 8.26274C416.867 8.27262 416.99 8.29732 416.984 8.31213C416.978 8.33518 416.897 8.3681 416.817 8.37798C416.247 8.44547 415.621 8.44382 415.019 8.4751C414.939 8.48004 414.833 8.46192 414.753 8.44875C414.579 8.41912 414.412 8.38456 414.244 8.35328C413.941 8.36316 413.631 8.36645 413.333 8.3862C413.104 8.40102 412.93 8.39938 412.763 8.35988C412.608 8.32366 412.441 8.27921 412.255 8.26768C412.069 8.25616 411.852 8.28085 411.647 8.29073C411.443 8.30061 411.207 8.29566 411.046 8.322C410.885 8.34834 410.785 8.40596 410.68 8.45205C410.562 8.50308 410.401 8.51955 410.165 8.52449C409.949 8.52943 409.775 8.52284 409.614 8.47675C409.546 8.45699 409.453 8.44217 409.36 8.429C409.273 8.41748 409.174 8.39936 409.093 8.40266C408.169 8.44052 407.252 8.48169 406.328 8.52119C405.87 8.54095 405.876 8.54093 404.921 8.44381C404.835 8.43558 404.729 8.42406 404.642 8.42735C404.128 8.44711 403.62 8.47016 403.105 8.4932C402.584 8.51625 402.591 8.51295 401.704 8.40925C401.543 8.38949 401.307 8.41584 401.115 8.41254C400.712 8.40431 400.514 8.26604 400.043 8.29238C399.64 8.31542 399.218 8.32036 398.815 8.34999C398.45 8.37633 398.239 8.31872 397.991 8.27427C397.904 8.25946 397.811 8.22653 397.737 8.22983C396.813 8.26604 395.896 8.30719 394.668 8.31213C394.365 8.31213 394.501 8.34671 394.699 8.35823C394.985 8.37634 395.078 8.34177 394.923 8.27592C394.811 8.22983 394.65 8.20677 394.52 8.21829C394.451 8.22488 394.365 8.25616 394.668 8.31213C394.991 8.37469 394.972 8.40925 395.028 8.429C395.164 8.47674 395.357 8.49649 395.555 8.48991C395.865 8.47838 396.169 8.46193 396.479 8.45205C396.565 8.44876 396.671 8.46028 396.751 8.47345C397.433 8.57551 397.439 8.5821 398.165 8.54259C398.394 8.53107 398.561 8.53107 398.741 8.56235C398.989 8.60515 399.169 8.67757 399.547 8.65452C400.049 8.62324 400.564 8.60515 401.078 8.58704C401.159 8.58375 401.245 8.61338 401.338 8.62655C401.592 8.66606 401.778 8.74013 402.157 8.70886C402.448 8.68416 402.764 8.67756 403.074 8.67263C403.155 8.67098 403.279 8.69732 403.316 8.71872C403.39 8.75658 403.297 8.80104 403.086 8.83232C403 8.84548 402.882 8.84219 402.783 8.84713C402.374 8.86523 401.964 8.88498 401.555 8.89979C401.338 8.90802 401.134 8.93273 401.109 8.99363C401.09 9.03479 401.314 9.07099 401.524 9.0677C401.834 9.06276 402.144 9.0496 402.442 9.0282C402.969 8.99198 403.427 9.00185 403.855 9.10556C404.159 9.17799 404.14 9.15166 404.463 9.36566C404.543 9.41998 404.785 9.42492 404.996 9.42162C405.504 9.41339 405.74 9.43809 405.696 9.48912C405.64 9.55167 405.461 9.57142 405.231 9.57965C404.822 9.59282 404.413 9.61423 404.004 9.63233C403.905 9.63727 403.793 9.64714 403.7 9.64385C403.607 9.64056 403.52 9.6208 403.44 9.60599C403.266 9.57471 403.117 9.52697 402.931 9.51544C402.746 9.50392 402.529 9.52862 402.324 9.53849C402.119 9.54672 401.902 9.57142 401.717 9.55989C401.531 9.54837 401.376 9.499 401.208 9.46937C401.128 9.45455 401.028 9.43149 400.948 9.43314C400.539 9.44631 400.13 9.46772 399.721 9.48418C399.218 9.50558 399.218 9.50558 398.611 9.40352C398.437 9.37389 398.258 9.37554 398.028 9.38871C397.532 9.41505 397.526 9.4101 396.621 9.31462C396.534 9.30474 396.429 9.29323 396.342 9.29816C395.418 9.33603 394.501 9.37717 393.584 9.41668C392.796 9.45125 392.796 9.45126 392.362 9.61588C392.04 9.73769 392.034 9.73768 392.35 9.79365C392.604 9.83974 392.833 9.90723 393.112 9.93192C393.373 9.95497 393.695 9.88089 393.98 9.95662C394.123 9.99448 394.309 10.0356 394.489 10.0422C394.774 10.0505 395.078 10.0027 395.35 10.0751C395.487 10.1113 395.691 10.1492 395.865 10.1509C396.169 10.1542 396.479 10.1278 396.782 10.1163C396.875 10.113 396.981 10.113 397.067 10.1212C397.16 10.1311 397.241 10.1509 397.321 10.1673C397.569 10.2233 397.836 10.2496 398.158 10.2216C398.685 10.1756 399.156 10.1986 399.566 10.3039C399.621 10.3188 399.758 10.3204 399.844 10.3138C400.068 10.2974 400.26 10.2957 400.427 10.327C400.495 10.3402 400.594 10.3632 400.582 10.378C400.563 10.4027 400.489 10.4356 400.409 10.4439C399.826 10.4998 399.2 10.5064 398.598 10.5361C398.518 10.5394 398.419 10.5179 398.338 10.5031C398.165 10.4735 398.016 10.4241 397.83 10.4126C397.644 10.4011 397.427 10.4225 397.222 10.4307C397.018 10.4389 396.801 10.4636 396.615 10.4538C396.429 10.4422 396.255 10.4011 396.107 10.3649C395.933 10.3237 395.766 10.3188 395.536 10.3352C395.239 10.3566 394.929 10.3599 394.625 10.3714C394.458 10.3402 394.29 10.3056 394.117 10.276C394.036 10.2611 393.937 10.243 393.85 10.2447C393.441 10.2579 393.032 10.2776 392.623 10.2957C392.214 10.3138 392.214 10.3138 391.519 10.2118C391.439 10.2003 391.333 10.1871 391.247 10.1904C390.732 10.2101 390.224 10.2348 389.709 10.2546C389.511 10.2628 389.331 10.2397 389.17 10.1953C389.015 10.1509 388.829 10.1262 388.637 10.1344C387.819 10.169 387 10.2019 386.182 10.243C385.854 10.2595 385.575 10.2447 385.351 10.1854C385.091 10.1179 384.8 10.1344 384.496 10.1476C383.808 10.1805 383.802 10.1788 383.362 10.0949C383.275 10.0784 383.188 10.0471 383.108 10.0488C382.395 10.0735 381.676 10.0965 380.969 10.136C380.597 10.1574 380.399 10.0998 380.151 10.057C380.064 10.0422 379.971 10.0109 379.897 10.0142C379.382 10.0323 378.867 10.0488 378.365 10.0817C377.863 10.1146 377.671 9.96156 377.293 9.96321C376.778 9.96485 376.27 10.0027 375.762 10.0258C375.353 10.0439 374.944 10.062 374.535 10.0801C374.125 10.0982 373.716 10.113 373.307 10.1344C373.09 10.1459 372.929 10.1311 372.749 10.0899C372.52 10.0356 372.247 9.99284 371.999 9.94346C371.621 9.87267 371.621 9.87266 371.162 9.89242C371.063 9.89735 370.958 9.90064 370.859 9.90558C370.109 9.94179 370.109 9.93851 369.154 9.8348C369.111 9.82987 368.999 9.84798 368.956 9.86115C368.825 9.90395 368.708 9.95003 368.59 9.99448C368.423 9.96814 368.218 9.95333 368.106 9.91546C367.79 9.80847 367.294 9.95497 366.972 9.84961C366.854 9.81011 366.65 9.77554 366.464 9.76566C366.271 9.75578 366.054 9.77883 365.856 9.78871C365.342 9.8134 365.342 9.81176 364.901 9.95826C364.678 10.0307 364.356 10.0175 364.065 10.034C363.761 10.0521 363.47 10.062 363.215 9.99448C362.986 9.93357 362.707 9.91876 362.379 9.93851C361.976 9.9632 361.56 9.97801 361.151 9.99283C361.064 9.99612 360.959 9.98789 360.872 9.97802C359.924 9.8809 359.924 9.87925 359.465 9.90065C359.26 9.91053 359.05 9.91381 358.851 9.92863C358.517 9.95496 358.263 9.9204 358.021 9.86772C357.94 9.85126 357.847 9.82 357.767 9.82164C357.357 9.82987 356.955 9.84469 356.552 9.8595C356.242 9.87102 355.932 9.87761 355.634 9.90065C355.138 9.93852 354.897 9.8315 354.556 9.78212C354.047 9.80352 353.533 9.81834 353.025 9.84797C352.789 9.86114 352.634 9.85621 352.454 9.8167C352.225 9.76732 352.014 9.71135 351.642 9.73604C351.146 9.76896 350.626 9.78049 350.117 9.80024C349.776 9.74921 349.528 9.64549 349.039 9.68335C348.741 9.7064 348.425 9.71134 348.121 9.72451C347.712 9.74261 347.303 9.75909 346.894 9.77884C346.454 9.7986 346.46 9.79366 345.784 9.69654C345.394 9.63892 344.991 9.70312 344.594 9.71299C344.284 9.72122 344.129 9.79694 344.204 9.89406C344.278 9.99119 344.111 10.0669 343.825 10.0801C343.113 10.1114 342.393 10.1443 341.681 10.1722C341.594 10.1755 341.488 10.164 341.408 10.1525C340.645 10.0488 340.645 10.0505 340.304 10.0653C339.796 10.09 339.275 10.1031 338.773 10.1344C338.426 10.1558 338.172 10.1212 337.949 10.0653C337.775 10.0225 337.614 10.0126 337.391 10.0225C334.936 10.1328 332.481 10.2348 330.033 10.3484C329.667 10.3649 329.457 10.3171 329.209 10.2727C329.122 10.2579 329.041 10.2266 328.954 10.2266C328.75 10.2266 328.545 10.2414 328.341 10.2513C327.423 10.2908 326.506 10.3385 325.582 10.3682C325.192 10.3813 325.086 10.457 324.919 10.5196C324.789 10.5673 324.64 10.5871 324.411 10.5937C324.188 10.6003 324.026 10.592 323.853 10.5492C323.63 10.4933 323.375 10.4587 323.028 10.4817C322.625 10.5081 322.216 10.5196 321.801 10.5377C321.59 10.5459 321.429 10.5756 321.361 10.6348C321.348 10.6447 321.479 10.6694 321.553 10.6842C321.801 10.7336 322.036 10.7912 322.315 10.8258C322.601 10.8603 322.91 10.8208 323.208 10.8109C323.313 10.8077 323.413 10.7978 323.512 10.7994C323.605 10.8011 323.716 10.8093 323.785 10.8241C324.107 10.8982 324.448 10.9492 324.894 10.9048C325.278 10.9262 325.477 11.0628 325.967 11.0266C326.264 11.0052 326.574 10.9953 326.884 10.9871C326.965 10.9855 327.051 11.0151 327.138 11.0299C327.386 11.0711 327.584 11.1369 327.956 11.1089C328.353 11.0793 328.775 11.0743 329.178 11.0513C329.401 11.0381 329.562 11.0497 329.735 11.0925C329.959 11.1468 330.213 11.1879 330.56 11.1616C330.857 11.1385 331.174 11.1336 331.477 11.1188C331.874 11.1007 331.874 11.1023 332.581 11.2044C332.661 11.2159 332.767 11.2291 332.853 11.2258C333.368 11.206 333.876 11.1813 334.391 11.1616C334.589 11.1533 334.781 11.1747 334.918 11.2225C334.973 11.2422 334.955 11.2752 334.973 11.3032C333.951 11.3476 332.928 11.3855 331.911 11.4398C331.527 11.4612 331.353 11.3937 331.099 11.3558C331.012 11.3427 330.919 11.3147 330.839 11.318C330.12 11.346 329.407 11.3756 328.694 11.4118C328.471 11.4233 328.304 11.4167 328.136 11.369C327.708 11.2422 327.188 11.3114 326.704 11.3295C326.332 11.3427 326.215 11.3937 326.258 11.5023C326.314 11.6307 326.537 11.6702 327.107 11.6472C327.312 11.639 327.516 11.6274 327.721 11.6209C327.919 11.6143 328.099 11.6357 328.26 11.6801C328.415 11.7246 328.601 11.7476 328.793 11.741C329.202 11.7262 329.618 11.7114 330.014 11.6867C330.343 11.667 330.616 11.6834 330.845 11.7443C331.099 11.8118 331.397 11.797 331.694 11.7822C332.389 11.7492 332.395 11.7509 332.829 11.8332C332.915 11.8497 333.002 11.881 333.083 11.8793C333.796 11.8546 334.515 11.8332 335.215 11.7937C335.581 11.774 335.792 11.8266 336.034 11.8694C336.12 11.8842 336.207 11.9172 336.288 11.9139C336.802 11.8958 337.317 11.8777 337.819 11.8464C338.054 11.8316 338.197 11.8414 338.389 11.8809C338.848 11.9781 338.86 11.9748 339.511 11.9435C339.709 11.9336 339.926 11.9155 340.112 11.9287C340.298 11.9418 340.447 11.9896 340.621 12.0192C340.701 12.0324 340.8 12.0505 340.887 12.0472C341.296 12.034 341.705 12.0143 342.114 11.9962C342.499 11.9781 342.499 11.9797 343.218 12.0818C343.509 12.1246 343.813 12.0884 344.104 12.0752C344.421 12.0604 344.706 12.0604 344.947 12.1246C345.189 12.1888 345.481 12.1855 345.791 12.1723C346.082 12.1591 346.379 12.1229 346.677 12.1674C347.359 12.2694 347.359 12.2711 347.78 12.2513C348.394 12.2233 349.001 12.197 349.621 12.1723C349.702 12.169 349.807 12.1888 349.888 12.2019C350.061 12.2316 350.21 12.2809 350.396 12.2925C350.582 12.3056 350.799 12.2859 350.997 12.276C351.636 12.2447 351.679 12.2332 352.107 12.3419C352.467 12.4308 352.913 12.3024 353.248 12.4044C353.44 12.462 353.7 12.5081 354.06 12.4801C354.357 12.4571 354.667 12.4505 354.977 12.4373C355.467 12.4159 355.467 12.4176 356.087 12.5164C356.167 12.5295 356.273 12.546 356.353 12.5427C356.762 12.5295 357.178 12.518 357.575 12.4884C358.039 12.4538 358.337 12.5164 358.684 12.5773C358.957 12.625 359.279 12.5855 359.571 12.569C359.887 12.5526 360.172 12.5575 360.407 12.6217C360.655 12.6875 360.947 12.6793 361.257 12.6661C361.548 12.6546 361.845 12.6168 362.143 12.6628C362.781 12.7649 362.781 12.7649 363.246 12.7452C363.656 12.727 364.065 12.7073 364.474 12.6941C364.554 12.6908 364.654 12.7122 364.734 12.7271C364.908 12.7567 365.056 12.8061 365.242 12.8176C365.428 12.8291 365.645 12.8077 365.85 12.7995C366.054 12.7913 366.271 12.7666 366.457 12.7764C366.643 12.7863 366.817 12.8275 366.966 12.8637C367.139 12.9065 367.3 12.9114 367.536 12.895C367.834 12.8736 368.143 12.8686 368.447 12.8571C368.615 12.8884 368.788 12.9196 368.949 12.9542C369.117 12.9904 369.296 12.9871 369.526 12.9756C370.288 12.9361 370.294 12.9411 370.933 13.0431C371.224 13.0892 371.528 13.0513 371.819 13.0398C372.129 13.0267 372.421 13.0201 372.662 13.0859C372.898 13.1485 373.189 13.1567 373.499 13.1369C373.698 13.1238 373.908 13.1156 374.113 13.1106C374.206 13.109 374.318 13.1155 374.386 13.1287C374.714 13.1979 375.037 13.2604 375.489 13.216C375.886 13.2291 376.084 13.3641 376.562 13.3378C376.964 13.3147 377.386 13.3098 377.783 13.2801C378.148 13.2538 378.409 13.2999 378.595 13.3575C378.93 13.4596 379.401 13.3213 379.735 13.4217C379.928 13.4793 380.175 13.5254 380.547 13.5007C380.956 13.4744 381.087 13.509 381.204 13.6127C381.273 13.6719 381.26 13.7197 381.136 13.7658C381.012 13.8135 380.876 13.8053 380.678 13.751C380.448 13.6901 380.176 13.6785 379.847 13.6917C379.525 13.7049 379.326 13.6193 379.06 13.5863C378.793 13.5518 378.477 13.6094 378.198 13.5649C377.541 13.4612 377.541 13.4612 377.095 13.481C376.791 13.4942 376.475 13.5007 376.177 13.5238C375.824 13.5518 375.595 13.5007 375.353 13.4546C375.266 13.4382 375.179 13.4069 375.105 13.4086C374.392 13.4332 373.673 13.4563 372.966 13.4974C372.594 13.5188 372.396 13.4596 372.148 13.4184C372.061 13.4036 371.968 13.374 371.894 13.3773C371.28 13.4003 370.673 13.43 370.059 13.4579C369.941 13.5024 369.811 13.5452 369.699 13.5929C369.582 13.6423 369.421 13.6637 369.185 13.6621C368.794 13.6621 368.41 13.7312 368.02 13.644C367.617 13.5551 367.586 13.56 367.195 13.5814C366.699 13.6094 366.172 13.6028 365.707 13.667C365.627 13.6785 365.54 13.7098 365.54 13.7328C365.534 13.7477 365.664 13.7691 365.745 13.7822C366.017 13.8217 366.333 13.7641 366.606 13.8053C366.786 13.8316 366.935 13.8711 367.115 13.8991C367.189 13.9106 367.3 13.909 367.4 13.9073C367.505 13.9057 367.604 13.8942 367.703 13.8958C367.796 13.8975 367.896 13.9073 367.97 13.9221C368.311 13.9847 368.67 14.0423 368.974 14.1164C369.272 14.1888 369.551 14.1394 369.848 14.1362C371.038 14.2514 371.038 14.253 371.838 14.2168C372.036 14.2086 372.241 14.1987 372.446 14.2004C372.532 14.2004 372.613 14.23 372.7 14.2464C372.948 14.2958 373.183 14.3403 373.53 14.3139C373.828 14.2909 374.144 14.2859 374.448 14.2711C374.857 14.253 374.857 14.253 375.551 14.3567C375.725 14.3831 375.911 14.3798 376.134 14.3666C376.326 14.3551 376.524 14.3798 376.661 14.4275C376.716 14.4473 376.698 14.4802 376.717 14.5082C376.103 14.5345 375.483 14.5526 374.888 14.5921C374.504 14.6168 374.33 14.546 374.076 14.5082C373.989 14.495 373.896 14.467 373.815 14.4703C373.208 14.495 372.601 14.523 371.993 14.5559C371.919 14.5592 371.826 14.5971 371.819 14.6201C371.807 14.6629 371.962 14.7041 372.185 14.7024C372.483 14.7008 372.774 14.6728 373.041 14.7403C373.264 14.7995 373.543 14.8259 373.871 14.7995C374.07 14.7847 374.28 14.7847 374.479 14.7716C375.006 14.732 375.483 14.7403 375.88 14.8522C376.183 14.8818 376.481 14.8539 376.772 14.8391C376.989 14.8275 377.2 14.816 377.355 14.8473C377.684 14.9131 378.006 14.979 378.458 14.9345C378.948 14.9806 379.32 15.0777 379.729 15.1567C379.921 15.1946 380.07 15.216 380.293 15.1913C380.386 15.1814 380.498 15.1814 380.597 15.1765C380.802 15.1683 381.018 15.1436 381.204 15.1534C381.39 15.165 381.545 15.2127 381.713 15.2423C381.793 15.2572 381.886 15.2819 381.967 15.2802C382.277 15.272 382.581 15.2555 382.884 15.2423C383.188 15.2308 383.492 15.2193 383.796 15.2078C384.05 15.2506 384.31 15.2934 384.564 15.3362C384.973 15.3181 385.383 15.3 385.786 15.2835C386.238 15.2637 386.238 15.2654 386.889 15.3675C387.18 15.4135 387.49 15.3839 387.769 15.3625C388.234 15.3279 388.544 15.3905 388.873 15.4564C388.941 15.4695 389.065 15.4777 389.145 15.4712C389.468 15.4481 389.746 15.4662 389.982 15.5271C390.149 15.5699 390.317 15.5897 390.521 15.5815C391.234 15.5502 391.947 15.5173 392.66 15.4893C392.747 15.486 392.846 15.5008 392.926 15.514C393.559 15.6144 393.565 15.6193 394.03 15.593C394.445 15.5699 394.83 15.56 395.158 15.6506C395.226 15.6703 395.332 15.6983 395.406 15.6967C395.914 15.6802 396.429 15.6621 396.931 15.6341C397.16 15.621 397.322 15.6259 397.501 15.6638C397.731 15.7115 397.935 15.7691 398.313 15.7477C399.361 15.6868 399.367 15.6967 400.607 15.8103C400.694 15.8185 400.811 15.8053 400.911 15.7987C401.121 15.7823 401.276 15.8053 401.462 15.8432C401.878 15.9288 401.89 15.9239 402.287 15.9057C402.591 15.8909 402.907 15.8876 403.204 15.8629C403.663 15.8267 403.967 15.8909 404.308 15.9518C404.58 15.9996 404.896 15.9601 405.188 15.9452C405.504 15.9288 405.789 15.9337 406.025 15.9963C406.186 16.0391 406.359 16.0621 406.564 16.0539C407.277 16.0243 407.99 15.9913 408.703 15.9617C408.789 15.9584 408.895 15.9716 408.975 15.9831C409.682 16.0852 409.682 16.0901 410.383 16.0523C410.606 16.0407 410.792 16.0374 410.959 16.072C411.12 16.1049 411.294 16.1362 411.461 16.1675C411.765 16.156 412.075 16.1527 412.372 16.1329C412.602 16.1181 412.763 16.1247 412.943 16.1593C413.178 16.2037 413.376 16.281 413.748 16.2432C413.941 16.2251 414.164 16.23 414.356 16.2136C414.585 16.1922 414.74 16.2053 414.92 16.2481C415.143 16.2992 415.372 16.3518 415.732 16.3255C416.129 16.2959 416.55 16.2909 416.953 16.2679C417.176 16.2547 417.331 16.2679 417.511 16.3107C417.734 16.365 417.989 16.3996 418.336 16.3782C419.042 16.337 419.048 16.3452 419.736 16.449C419.91 16.4753 420.096 16.472 420.319 16.4588C420.511 16.4473 420.71 16.472 420.846 16.5197C420.976 16.5724 420.964 16.6053 420.976 16.6333ZM365.738 1.78686C365.534 1.79509 365.329 1.80496 365.032 1.66175C365.013 1.63706 365.026 1.60743 364.982 1.58604C364.883 1.54159 364.728 1.51031 364.542 1.50538C364.207 1.49879 363.804 1.55475 363.81 1.59755C363.817 1.63376 363.922 1.66504 364.127 1.69467C364.213 1.70619 364.282 1.72595 364.362 1.73911C364.598 1.77698 364.784 1.85106 365.125 1.8132C365.063 1.71114 365.094 1.76217 365.125 1.8132C365.094 1.87576 365.187 1.9202 365.41 1.93831C365.472 1.94325 365.565 1.93995 365.614 1.93007C365.807 1.89386 365.838 1.84448 365.695 1.71444C365.67 1.73584 365.689 1.77369 365.745 1.78356C365.8 1.79344 365.937 1.78522 366.005 1.7737C366.178 1.74242 366.265 1.70126 366.222 1.66669C366.197 1.64859 366.079 1.62554 366.005 1.62554C365.875 1.62554 365.757 1.66175 365.738 1.78686ZM415.862 20.8771C415.41 20.9083 414.889 20.8968 414.437 20.961C414.356 20.9725 414.275 21.0022 414.269 21.0252C414.263 21.04 414.387 21.0614 414.461 21.073C414.629 21.0993 414.815 21.0911 415.032 21.0828C415.36 21.0713 415.552 21.147 415.806 21.1849C415.887 21.1964 415.992 21.2046 416.079 21.2013C416.581 21.1816 417.077 21.1602 417.579 21.1372C417.666 21.1322 417.759 21.1207 417.834 21.1059C418.081 21.0581 418.057 21.0269 417.815 20.9907C417.548 20.9511 417.338 20.8853 417.065 20.854C416.674 20.8096 416.278 20.8688 415.862 20.8771ZM380.659 22.0787C380.355 22.0919 380.058 22.1051 379.754 22.1182C379.655 22.1232 379.549 22.1248 379.456 22.1314C379.264 22.1429 379.122 22.1775 379.029 22.2318C379.171 22.2746 379.345 22.2993 379.537 22.2944C379.841 22.2845 380.138 22.2631 380.442 22.2582C380.771 22.2516 380.963 22.3257 381.217 22.3635C381.297 22.375 381.397 22.3767 381.49 22.3783C381.948 22.3849 382.227 22.2993 382.141 22.1792C382.079 22.0853 381.843 22.0294 381.558 22.0409C381.26 22.0524 380.957 22.0656 380.659 22.0787ZM417.982 18.4441C418.057 18.4161 418.137 18.3963 418.174 18.3716C418.286 18.2877 418.243 18.2251 418.038 18.1593C417.79 18.0786 417.486 18.133 417.207 18.1412C417.139 18.1428 417.065 18.1774 417.028 18.1988C417.003 18.2136 417.003 18.2449 417.04 18.2531C417.344 18.319 417.666 18.3799 417.982 18.4441ZM364.207 13.5814C363.91 13.5946 363.606 13.6045 363.308 13.6226C363.234 13.6275 363.166 13.6588 363.122 13.6802C363.042 13.7197 363.129 13.774 363.383 13.7789C363.674 13.7855 363.978 13.7575 364.282 13.7444C364.666 13.7279 364.895 13.667 364.753 13.6143C364.616 13.5633 364.43 13.5534 364.207 13.5814ZM37.9059 10.0636C38.1043 10.0554 38.3088 10.0488 38.5072 10.0373C38.6931 10.0258 38.8358 9.98954 38.9288 9.93522C38.7738 9.89242 38.6002 9.86937 38.4081 9.87431C38.1043 9.88419 37.8068 9.89736 37.5093 9.91382C37.3233 9.92369 37.1436 9.95991 37.1002 10.0159C37.0568 10.0587 37.472 10.0834 37.9059 10.0636ZM337.992 9.81011C338.073 9.82492 338.153 9.85456 338.234 9.85456C338.432 9.85456 338.637 9.84468 338.823 9.82821C338.904 9.82163 338.965 9.792 339.003 9.76896C339.027 9.75414 339.021 9.72781 338.984 9.71464C338.804 9.63563 338.085 9.66361 337.967 9.75415C337.955 9.77061 337.986 9.792 337.992 9.81011ZM318.435 0.795883C318.453 0.822222 318.46 0.848556 318.485 0.874895C318.534 0.924278 318.67 0.960501 318.869 0.985193C319.024 0.944039 319.104 0.897955 319.098 0.848571C319.092 0.822233 319.073 0.795878 319.049 0.76954C318.999 0.720156 318.863 0.683954 318.664 0.659262C318.509 0.698769 318.435 0.744853 318.435 0.795883ZM432.308 22.3652C432.252 22.3866 432.196 22.408 432.134 22.4277C432.302 22.4755 432.457 22.4903 432.574 22.4639C432.649 22.4475 432.692 22.4228 432.748 22.4014C432.581 22.3536 432.432 22.3405 432.308 22.3652ZM428.452 22.589C428.533 22.6039 428.607 22.6236 428.694 22.6335C428.837 22.6499 428.967 22.622 429.066 22.5627C428.985 22.5479 428.911 22.5281 428.824 22.5182C428.682 22.5018 428.551 22.5298 428.452 22.589ZM430.894 22.2878C430.851 22.3273 430.938 22.3602 431.167 22.3882C431.223 22.3668 431.297 22.3471 431.335 22.324C431.397 22.2862 431.291 22.2516 431.068 22.2253C431.006 22.245 430.95 22.2664 430.894 22.2878ZM417.809 20.5133C417.765 20.5528 417.852 20.5857 418.081 20.6137C418.137 20.5923 418.212 20.5725 418.249 20.5495C418.311 20.5116 418.205 20.4771 417.982 20.4507C417.92 20.4705 417.865 20.4919 417.809 20.5133ZM399.981 8.86523C399.925 8.88663 399.869 8.90803 399.807 8.92778C399.975 8.97552 400.13 8.99033 400.247 8.96399C400.322 8.94753 400.365 8.92284 400.421 8.90144C400.254 8.8537 400.105 8.84054 399.981 8.86523ZM382.903 2.68564C383.052 2.69716 383.176 2.67413 383.281 2.61322C383.201 2.59841 383.126 2.57865 383.039 2.56877C382.897 2.55231 382.767 2.5803 382.667 2.63956C382.748 2.65603 382.829 2.67083 382.903 2.68564ZM373.834 2.2988C373.778 2.3202 373.723 2.3416 373.661 2.36136C373.828 2.4091 373.983 2.42391 374.101 2.39757C374.175 2.38111 374.218 2.35641 374.274 2.33501C374.107 2.28728 373.958 2.27576 373.834 2.2988ZM312.335 0.794236C312.28 0.815635 312.224 0.837036 312.162 0.856789C312.329 0.904527 312.484 0.919338 312.602 0.893C312.676 0.876538 312.72 0.851845 312.775 0.830446C312.608 0.782708 312.459 0.77119 312.335 0.794236ZM6.11819 14.1872C6.0376 14.1724 5.95709 14.1576 5.8827 14.1411C5.70294 14.1855 5.64716 14.2267 5.74635 14.258C5.80833 14.2777 5.90125 14.2892 5.98183 14.3041C6.1678 14.2596 6.21117 14.2201 6.11819 14.1872Z" fill="#FFE492"/>
</svg>
