<svg width="327" height="37" viewBox="0 0 327 37" fill="none" xmlns="http://www.w3.org/2000/svg">
<path d="M306.861 19.4061C306.413 19.4367 305.961 19.4577 305.523 19.5036C305.239 19.5323 305.117 19.4482 304.927 19.4042C304.864 19.3889 304.796 19.3583 304.737 19.3621C304.294 19.3927 303.851 19.4272 303.409 19.4616C303.273 19.5361 303.187 19.6356 302.979 19.6719C302.776 19.7063 302.536 19.7063 302.311 19.7235C302.012 19.7446 301.714 19.7656 301.416 19.7847C301.267 19.7943 301.145 19.8306 301.095 19.8994C301.086 19.9109 301.185 19.9396 301.24 19.9568C301.42 20.0142 301.597 20.0792 301.795 20.1231C301.985 20.1652 302.22 20.0964 302.424 20.1499C302.88 20.2704 302.884 20.2685 303.232 20.2455C303.531 20.2245 303.829 20.2016 304.127 20.1863C304.186 20.1824 304.254 20.2111 304.317 20.2264C304.507 20.2685 304.629 20.3641 304.909 20.3278C305.121 20.2991 305.356 20.2933 305.577 20.278C305.763 20.3335 305.934 20.3966 306.133 20.4406C306.318 20.4826 306.373 20.5151 306.273 20.5706C306.183 20.6222 306.056 20.6433 305.889 20.6471C305.74 20.649 305.591 20.6662 305.442 20.6757C305.365 20.6815 305.293 20.6853 305.22 20.691C304.936 20.7121 304.936 20.7121 304.416 20.5897C304.213 20.5419 303.982 20.6088 303.788 20.5629C303.657 20.5323 303.544 20.4865 303.418 20.454C303.363 20.4406 303.278 20.4386 303.21 20.4425C302.984 20.4559 302.758 20.4654 302.541 20.4903C302.387 20.5075 302.297 20.561 302.315 20.6146C302.32 20.6356 302.428 20.6662 302.491 20.6681C302.636 20.6719 302.789 20.6452 302.93 20.6585C303.065 20.6719 303.205 20.7102 303.305 20.7522C303.508 20.8402 303.738 20.7618 303.933 20.7847C304.136 20.8096 304.303 20.8861 304.497 20.932C304.547 20.9434 304.642 20.9243 304.719 20.9186C304.94 20.9052 305.162 20.8937 305.383 20.8803C305.568 20.9358 305.767 20.9855 305.934 21.0486C306.237 21.1633 306.562 21.2073 306.956 21.1518C307.177 21.1213 307.394 21.1327 307.57 21.2073C307.751 21.2838 307.959 21.2761 308.189 21.2608C308.402 21.2455 308.618 21.2035 308.835 21.257C309.305 21.3756 309.31 21.3813 309.866 21.3354C310.033 21.322 310.159 21.3182 310.286 21.3622C310.403 21.4023 310.53 21.4368 310.652 21.475C310.873 21.4616 311.099 21.4482 311.32 21.4329C311.605 21.4119 311.763 21.4387 311.831 21.5457C311.872 21.6108 311.89 21.67 311.989 21.714C312.107 21.7675 312.233 21.7656 312.405 21.7503C312.568 21.7369 312.685 21.7159 312.753 21.6471C312.78 21.6184 312.834 21.5916 312.884 21.5687C312.924 21.5515 312.988 21.5247 313.024 21.5285C313.092 21.5362 313.182 21.5572 313.205 21.5821C313.426 21.8134 313.426 21.8153 313.652 21.8823C313.9 21.9568 314.158 22.0238 314.384 22.1079C314.587 22.1825 314.791 22.15 315.012 22.15C315.179 22.15 315.288 22.1997 315.274 22.2494C315.265 22.2781 315.202 22.3201 315.148 22.3239C314.705 22.3622 314.257 22.3947 313.81 22.4215C313.756 22.4253 313.688 22.3909 313.625 22.3737C313.498 22.3392 313.385 22.2857 313.25 22.2742C313.114 22.2628 312.956 22.2914 312.807 22.301C312.658 22.3106 312.5 22.3354 312.364 22.3201C312.229 22.3048 312.12 22.2494 311.994 22.2131C311.935 22.1958 311.854 22.171 311.804 22.1767C311.474 22.2226 311.23 22.1595 310.995 22.0754C310.945 22.0582 310.86 22.0467 310.796 22.0505C310.272 22.083 309.753 22.1213 309.228 22.1576C309.016 22.1729 308.844 22.106 308.799 21.9932C308.776 21.9301 308.731 21.867 308.731 21.8039C308.731 21.6891 308.483 21.626 308.302 21.6394C308.004 21.6586 307.701 21.6738 307.407 21.7025C307.168 21.7255 306.965 21.7025 306.802 21.6337C306.612 21.5553 306.395 21.5706 306.178 21.5916C306.016 21.6069 305.971 21.67 305.98 21.8287C305.989 21.9568 305.912 21.997 305.618 22.018C305.248 22.0448 304.872 22.0716 304.497 22.0926C304.439 22.0964 304.371 22.0639 304.312 22.0467C304.186 22.0123 304.073 21.9568 303.937 21.9454C303.802 21.932 303.643 21.9607 303.494 21.9721C303.345 21.9817 303.187 22.0085 303.052 21.9951C302.916 21.9817 302.803 21.9243 302.681 21.888C302.622 21.8708 302.55 21.8459 302.491 21.8498C302.193 21.8651 301.895 21.888 301.597 21.909C301.262 21.932 301.262 21.932 300.788 21.8134C300.571 21.7599 300.354 21.802 300.142 21.8173C299.916 21.8326 299.703 21.8402 299.527 21.7637C299.41 21.714 299.279 21.6834 299.139 21.693C298.764 21.7159 298.393 21.7446 298.018 21.7675C297.955 21.7714 297.869 21.7618 297.819 21.7446C297.58 21.6643 297.345 21.6012 297.01 21.6413C296.721 21.6758 296.409 21.6777 296.12 21.7102C295.962 21.7274 295.89 21.7886 295.921 21.8364C295.939 21.8612 296.034 21.8899 296.098 21.8899C296.242 21.8918 296.4 21.8631 296.536 21.8746C296.816 21.8976 296.956 22.0582 297.322 22.0142C297.539 21.9874 297.765 21.9779 297.991 21.9702C298.05 21.9683 298.113 22.0046 298.176 22.0238C298.357 22.0754 298.515 22.1423 298.777 22.1079C298.994 22.0811 299.224 22.0735 299.446 22.0582C299.798 22.0333 299.798 22.0352 300.255 22.1519C300.472 22.2073 300.688 22.1633 300.901 22.15C301.059 22.1404 301.208 22.1213 301.335 22.1481C301.529 22.1882 301.669 22.28 301.908 22.2742C302.134 22.2685 302.356 22.2417 302.582 22.2322C302.722 22.2264 302.853 22.257 302.966 22.3087C303.083 22.3603 303.21 22.3832 303.363 22.3717C303.585 22.3565 303.811 22.3373 304.037 22.3278C304.1 22.3259 304.172 22.3431 304.231 22.3584C304.357 22.3928 304.479 22.4329 304.601 22.4693C304.823 22.4578 305.049 22.454 305.266 22.431C305.433 22.4138 305.55 22.4215 305.686 22.4597C305.858 22.5113 305.998 22.6031 306.278 22.5592C306.418 22.5381 306.581 22.5438 306.721 22.5247C306.892 22.4999 307.01 22.5094 307.132 22.5668C307.362 22.6758 307.651 22.6777 307.95 22.6356C308.275 22.5897 308.519 22.6433 308.763 22.7274C309.021 22.8154 309.021 22.8134 309.219 23.0257C309.278 23.0869 309.445 23.1156 309.585 23.1041C309.82 23.085 310.024 23.0945 310.195 23.1672C310.376 23.2456 310.593 23.236 310.814 23.215C311.108 23.1863 311.402 23.1615 311.641 23.2724C311.759 23.3259 311.885 23.3393 312.043 23.3259C312.491 23.2915 312.943 23.2704 313.381 23.2284C313.648 23.2016 313.801 23.2628 313.982 23.3144C314.226 23.3852 314.492 23.4483 314.492 23.5993C314.492 23.6242 314.556 23.6528 314.61 23.672C314.727 23.7121 314.854 23.7465 314.976 23.7848C315.157 23.8421 315.333 23.8899 315.581 23.8594C315.798 23.8345 316.029 23.8268 316.25 23.8096C316.471 23.7924 316.675 23.7829 316.874 23.8555C317.104 23.9377 317.348 24.0161 317.61 24.0773C317.795 24.1213 318.039 24.0467 318.238 24.106C318.36 24.1423 318.478 24.1844 318.609 24.215C318.663 24.2284 318.749 24.2188 318.821 24.215C318.97 24.2073 319.124 24.2016 319.269 24.1825C319.436 24.1615 319.562 24.1653 319.689 24.2093C319.806 24.2494 319.924 24.3049 320.059 24.3163C320.263 24.3335 320.488 24.2571 320.692 24.345C320.796 24.389 320.927 24.4311 321.062 24.4445C321.198 24.4578 321.356 24.4291 321.501 24.4311C321.564 24.4311 321.641 24.4617 321.677 24.4865C321.699 24.4999 321.668 24.5362 321.636 24.5553C321.596 24.5783 321.537 24.6089 321.478 24.6127C321.031 24.6471 320.583 24.6758 320.136 24.7083C319.869 24.7274 319.869 24.7274 319.332 24.607C319.205 24.5783 319.065 24.584 318.907 24.5974C318.695 24.6146 318.478 24.6471 318.256 24.6127C317.967 24.4827 317.61 24.4712 317.231 24.5209C317.073 24.542 316.928 24.542 316.81 24.5056C316.562 24.433 316.3 24.3661 316.078 24.28C315.907 24.2131 315.825 24.2074 315.753 24.2991C315.731 24.3278 315.708 24.3584 315.712 24.3852C315.74 24.4808 315.789 24.5745 315.816 24.6701C315.825 24.6968 315.789 24.7274 315.767 24.7561C315.694 24.8364 315.6 24.8307 315.441 24.7638C315.283 24.6968 315.093 24.6529 314.84 24.6835C314.624 24.7102 314.389 24.7064 314.172 24.7351C313.837 24.7772 313.602 24.716 313.363 24.6338C313.313 24.6165 313.227 24.607 313.164 24.6108C312.491 24.6548 311.822 24.7045 311.149 24.7485C311.004 24.758 310.873 24.7294 310.76 24.6777C310.643 24.6261 310.512 24.5993 310.367 24.6089C309.771 24.649 309.174 24.6854 308.578 24.7351C308.334 24.7561 308.139 24.7312 307.972 24.6643C307.846 24.6146 307.728 24.5993 307.57 24.6051C307.398 24.6108 307.276 24.6299 307.191 24.6854C307.109 24.7389 307.168 24.7714 307.349 24.8135C307.543 24.8594 307.724 24.9187 307.909 24.9722C308.058 24.9645 308.207 24.9492 308.352 24.9511C308.415 24.9511 308.474 24.9856 308.537 25.0047C308.718 25.0601 308.885 25.1156 309.143 25.085C309.359 25.0582 309.59 25.0525 309.811 25.0353C310.118 25.0142 310.118 25.0143 310.616 25.1347C310.742 25.1653 310.878 25.1634 311.04 25.1462C311.18 25.1328 311.325 25.1596 311.424 25.2169C311.465 25.2399 311.452 25.2781 311.366 25.4043C311.366 25.498 311.46 25.4559 311.492 25.3948C311.542 25.3068 311.447 25.2781 311.266 25.3259C311.14 25.3603 311.076 25.4101 311.108 25.4502C311.126 25.4712 311.212 25.498 311.366 25.4043C311.763 25.2896 312.066 25.2762 312.355 25.2456C312.527 25.2284 312.635 25.236 312.771 25.2858C312.934 25.345 313.096 25.4081 313.363 25.3776C313.652 25.3431 313.959 25.3393 314.253 25.3106C314.524 25.2838 314.664 25.368 314.836 25.4177C315.044 25.477 315.274 25.4101 315.464 25.4445C315.663 25.4789 315.803 25.563 316.033 25.5783C316.368 25.5267 316.58 25.6223 316.833 25.6854C317.032 25.7332 317.267 25.6911 317.479 25.6701C317.719 25.6471 317.917 25.6682 318.085 25.737C318.274 25.8154 318.487 25.7982 318.704 25.781C319.21 25.7428 319.228 25.737 319.521 25.8422C319.734 25.9187 319.937 25.8842 320.15 25.8747C320.335 25.9263 320.516 25.9817 320.71 26.0276C320.76 26.0391 320.854 26.02 320.931 26.0143C321.153 25.999 321.379 25.9837 321.6 25.9684C321.749 25.9588 321.907 25.9301 322.043 25.9416C322.178 25.955 322.291 26.0104 322.413 26.0468C322.535 26.0831 322.662 26.1194 322.779 26.1577C322.96 26.215 323.132 26.2628 323.385 26.2342C323.602 26.2093 323.828 26.2017 324.054 26.1844C324.338 26.1634 324.329 26.1691 324.858 26.2839C325.143 26.347 325.436 26.2705 325.725 26.2628C325.87 26.259 326.01 26.2801 326.109 26.3355C326.15 26.3584 326.137 26.3967 326.15 26.4292C325.405 26.4808 324.655 26.5248 323.918 26.5879C323.633 26.6127 323.484 26.5439 323.331 26.4865C323.078 26.3948 322.743 26.5286 322.504 26.4101C322.359 26.3393 322.151 26.2992 321.903 26.3336C321.758 26.3527 321.605 26.3508 321.455 26.368C321.076 26.4101 320.728 26.412 320.425 26.28C320.321 26.2342 320.172 26.2093 320.064 26.1653C319.937 26.1175 319.815 26.0907 319.666 26.1003C318.993 26.1462 318.324 26.1921 317.655 26.2418C317.597 26.2456 317.538 26.2743 317.488 26.2953C317.362 26.3489 317.402 26.3909 317.606 26.4254C317.673 26.4368 317.728 26.4617 317.791 26.4808C317.913 26.5171 318.026 26.5745 318.161 26.5879C318.297 26.6013 318.455 26.5745 318.604 26.5649C318.753 26.5554 318.912 26.5267 319.047 26.5382C319.183 26.5516 319.296 26.607 319.422 26.6414C319.481 26.6586 319.553 26.6873 319.612 26.6854C319.91 26.6739 320.204 26.6529 320.502 26.6357C320.687 26.6873 320.845 26.7619 321.067 26.7791C321.207 26.7906 321.356 26.7695 321.501 26.7734C321.564 26.7753 321.645 26.804 321.677 26.8288C321.695 26.8441 321.636 26.8823 321.591 26.9015C321.419 26.9741 321.184 26.9607 320.972 26.9837C320.742 27.0085 320.534 27.0009 320.357 26.9263C320.24 26.8766 320.109 26.8498 319.964 26.8594C319.589 26.8843 319.219 26.913 318.844 26.934C318.78 26.9378 318.704 26.9206 318.645 26.9072C318.171 26.7906 318.17 26.7868 317.836 26.8116C317.344 26.8479 317.344 26.8479 317.014 26.7466C316.951 26.7275 316.883 26.6911 316.828 26.6931C316.304 26.7237 315.785 26.7542 315.265 26.7982C315.093 26.8116 314.976 26.8116 314.849 26.7619C314.741 26.7198 314.614 26.672 314.479 26.6605C314.339 26.6491 314.185 26.6778 314.036 26.6873C313.887 26.6969 313.729 26.7217 313.598 26.7064C313.462 26.6911 313.345 26.6376 313.227 26.5994C313.105 26.5592 312.974 26.5611 312.807 26.5764C312.292 26.6204 312.287 26.6147 311.777 26.4961C311.718 26.4827 311.641 26.4674 311.578 26.4713C311.203 26.4942 310.832 26.5229 310.457 26.5458C310.313 26.5554 310.173 26.5305 310.073 26.4751C310.033 26.4521 310.046 26.4139 310.019 26.3393C309.988 26.3221 310.024 26.3527 310.033 26.3814C310.1 26.3776 310.182 26.3814 310.232 26.3661C310.358 26.3298 310.421 26.2819 310.39 26.2418C310.372 26.2208 310.286 26.194 310.232 26.194C310.132 26.194 310.046 26.2361 310.019 26.3393C309.734 26.4024 309.432 26.4158 309.138 26.4464C308.966 26.4655 308.858 26.456 308.722 26.4062C308.56 26.3451 308.392 26.2858 308.126 26.3164C307.837 26.3508 307.529 26.3565 307.231 26.3833C306.888 26.4139 306.739 26.2418 306.449 26.2456C306.151 26.2494 305.853 26.282 305.555 26.3049C305.293 26.324 305.293 26.324 304.751 26.1997C304.552 26.1538 304.317 26.2208 304.122 26.173C303.991 26.1424 303.878 26.0965 303.752 26.064C303.698 26.0506 303.612 26.0506 303.544 26.0544C303.169 26.0774 302.79 26.0927 302.428 26.1347C302.017 26.1844 301.705 26.1309 301.411 26.0181C301.041 26.0391 300.666 26.0506 300.3 26.0869C300.033 26.1137 299.88 26.0506 299.699 25.999C299.636 25.9818 299.581 25.9531 299.514 25.9454C299.446 25.9378 299.364 25.9531 299.292 25.9588C298.994 25.9798 298.687 25.9894 298.397 26.0238C298.041 26.0678 297.905 25.911 297.629 25.8919C297.444 25.9856 297.345 26.1137 296.979 26.1232C296.681 26.1309 296.382 26.1615 296.084 26.1825C295.935 26.1921 295.786 26.2036 295.637 26.2131C295.397 26.2303 295.284 26.3049 295.334 26.4196C295.361 26.4827 295.384 26.5458 295.406 26.6089C295.451 26.7217 295.338 26.8173 295.149 26.8307C294.625 26.8671 294.105 26.9053 293.581 26.9378C293.441 26.9473 293.305 26.9148 293.192 26.8632C293.075 26.8116 292.944 26.7887 292.799 26.7982C292.275 26.8345 291.755 26.8728 291.231 26.9053C291.172 26.9091 291.096 26.89 291.037 26.8747C290.91 26.8403 290.788 26.8001 290.666 26.7638C290.368 26.781 290.074 26.7925 289.781 26.8154C289.306 26.8498 289.306 26.8517 288.958 26.7466C288.895 26.7275 288.832 26.6911 288.773 26.6931C288.547 26.7007 288.326 26.7198 288.1 26.737C287.436 26.7867 287.436 26.7867 287.241 26.7294C287.065 26.6758 286.907 26.6108 286.64 26.6414C286.351 26.6758 286.044 26.6873 285.746 26.7064C285.524 26.7198 285.303 26.7351 285.081 26.7389C285.023 26.7409 284.96 26.7045 284.896 26.6854C284.716 26.6261 284.539 26.5783 284.291 26.6108C284.146 26.63 283.993 26.6338 283.843 26.6433C283.455 26.6701 283.455 26.6701 282.818 26.5554C282.754 26.5439 282.678 26.5305 282.614 26.5363C282.09 26.5707 281.571 26.6089 281.046 26.6414C280.983 26.6453 280.906 26.6338 280.843 26.6242C280.129 26.5133 280.129 26.5133 279.37 26.5669C279.081 26.586 279.072 26.5936 278.769 26.4923C278.634 26.4483 278.521 26.4273 278.363 26.4407C277.766 26.4865 277.165 26.5171 276.573 26.5707C276.307 26.5936 276.153 26.5363 275.972 26.4846C275.909 26.4674 275.841 26.4292 275.787 26.4311C275.191 26.4674 274.594 26.5114 273.998 26.5477C273.943 26.5516 273.876 26.5133 273.812 26.4961C273.69 26.4617 273.573 26.4101 273.437 26.3986C273.297 26.3871 273.144 26.4158 272.99 26.4254C272.615 26.4502 272.615 26.4483 272.181 26.3355C272.122 26.3202 272.046 26.2992 271.987 26.303C271.39 26.3412 270.789 26.3737 270.198 26.4292C269.859 26.4598 269.628 26.4043 269.389 26.324C269.339 26.3068 269.253 26.2992 269.19 26.303C268.517 26.347 267.848 26.3967 267.175 26.4407C267.035 26.4502 266.899 26.4177 266.786 26.368C266.605 26.2896 266.393 26.2992 266.167 26.3164C265.647 26.3565 265.643 26.3546 265.336 26.2628C265.272 26.2437 265.218 26.2189 265.15 26.2093C265.087 26.1997 265.006 26.2055 264.938 26.2093C264.64 26.2284 264.342 26.2494 264.043 26.2705C263.745 26.2915 263.442 26.303 263.149 26.3355C262.787 26.3757 262.615 26.2514 262.362 26.194C261.992 26.2188 261.612 26.2341 261.246 26.2743C260.966 26.3049 260.835 26.2208 260.65 26.1768C260.587 26.1615 260.519 26.129 260.46 26.1328C259.787 26.1749 259.114 26.2208 258.445 26.2724C258.282 26.2839 258.174 26.2686 258.038 26.2227C257.736 26.1194 257.722 26.1233 257.216 26.1615C256.994 26.1787 256.782 26.194 256.592 26.1156C256.425 26.0449 256.222 26.0276 255.982 26.0506C255.689 26.0793 255.386 26.0946 255.088 26.1137C254.789 26.1347 254.491 26.1634 254.193 26.173C253.954 26.1825 253.809 26.0927 253.619 26.0468C253.56 26.0334 253.479 26.0315 253.411 26.0353C253.113 26.0525 252.806 26.0659 252.517 26.0984C252.164 26.1385 251.97 26.0334 251.721 25.9722C251.667 25.9588 251.577 25.9665 251.509 25.9722C250.985 26.0066 250.465 26.0449 249.941 26.0812C249.756 26.0296 249.566 25.9799 249.381 25.9282C249.083 25.9473 248.784 25.9684 248.486 25.9875C248.26 26.0028 248.03 26.0085 247.817 26.0372C247.542 26.0754 247.406 25.9856 247.221 25.9416C247.158 25.9263 247.09 25.8938 247.031 25.8976C246.656 25.9187 246.281 25.9416 245.911 25.9741C245.558 26.0066 245.418 25.8345 245.129 25.8364C244.831 25.8383 244.523 25.8632 244.234 25.8976C243.9 25.9378 243.665 25.8766 243.425 25.7944C243.376 25.7772 243.29 25.7676 243.227 25.7714C242.852 25.7944 242.481 25.8231 242.106 25.846C242.043 25.8498 241.966 25.8403 241.903 25.8288C241.189 25.716 241.189 25.7141 240.877 25.737C240.656 25.7523 240.43 25.7714 240.204 25.781C240.141 25.7848 240.064 25.7676 240.005 25.7523C239.535 25.6357 239.535 25.6338 239.196 25.6567C238.898 25.6777 238.6 25.6988 238.301 25.7198C238.116 25.6682 237.926 25.6185 237.741 25.5668C237.371 25.5917 236.991 25.6108 236.625 25.6452C236.453 25.6605 236.34 25.6548 236.209 25.607C236.047 25.5496 235.884 25.4827 235.613 25.5152C235.324 25.5496 235.016 25.5535 234.723 25.5821C234.37 25.6166 234.226 25.4426 233.941 25.4445C233.643 25.4464 233.336 25.4712 233.046 25.5056C232.712 25.5458 232.477 25.4846 232.238 25.4024C232.188 25.3852 232.102 25.3756 232.039 25.3795C231.216 25.4349 230.399 25.4903 229.576 25.5496C229.07 25.5859 229.07 25.5879 228.108 25.4827C228.04 25.4751 227.968 25.4674 227.9 25.4712C227.602 25.4884 227.294 25.5018 227.005 25.5343C226.653 25.5745 226.458 25.4712 226.21 25.4081C226.156 25.3947 226.07 25.4024 225.997 25.4062C225.772 25.4196 225.55 25.4368 225.324 25.4521C225.026 25.4732 224.728 25.4942 224.43 25.5152C224.244 25.4655 224.055 25.4139 223.869 25.3642C223.499 25.389 223.119 25.4024 222.753 25.4426C222.473 25.4731 222.342 25.3928 222.157 25.347C222.094 25.3317 222.026 25.2992 221.967 25.3011C221.294 25.3431 220.621 25.3871 219.952 25.4406C219.676 25.4636 219.55 25.3775 219.364 25.3336C219.301 25.3202 219.229 25.2953 219.17 25.2991C218.723 25.3259 218.275 25.3584 217.828 25.3909C217.575 25.41 217.575 25.41 217.024 25.2915C216.961 25.2781 216.888 25.2647 216.825 25.2685C215.406 25.3642 213.992 25.4655 212.573 25.5611C212.428 25.5707 212.297 25.542 212.185 25.4904C212.067 25.4387 211.936 25.412 211.791 25.4215C211.195 25.4617 210.594 25.498 210.002 25.5477C209.758 25.5688 209.564 25.5439 209.397 25.477C209.27 25.4272 209.153 25.4081 208.994 25.4196C208.696 25.4426 208.398 25.4617 208.1 25.4827C207.802 25.5037 207.503 25.5248 207.205 25.5458C206.907 25.5668 206.604 25.5783 206.31 25.6108C205.949 25.651 205.773 25.5324 205.524 25.4732C205.077 25.5018 204.629 25.5305 204.187 25.5611C203.59 25.6013 202.994 25.6452 202.397 25.6835C202.343 25.6873 202.275 25.6529 202.212 25.6357C202.027 25.5879 201.891 25.521 201.616 25.542C200.278 25.6433 198.932 25.7294 197.59 25.8288C197.31 25.8498 197.188 25.7676 196.998 25.7236C196.935 25.7102 196.862 25.6835 196.803 25.6873C196.058 25.7351 195.312 25.7886 194.567 25.8403C194.264 25.8613 194.264 25.8613 193.758 25.7427C193.699 25.7294 193.622 25.7121 193.559 25.716C192.588 25.781 191.621 25.8498 190.649 25.9167C190.505 25.9263 190.374 25.8995 190.256 25.8479C190.143 25.7963 190.008 25.7676 189.868 25.7772C188.973 25.8384 188.074 25.8976 187.184 25.9645C186.944 25.9837 186.745 25.9665 186.574 25.8976C186.452 25.8479 186.33 25.8269 186.176 25.8383C184.834 25.932 183.492 26.0219 182.15 26.1214C181.892 26.1405 181.712 26.1041 181.549 26.041C181.418 25.9913 181.305 25.9818 181.142 25.9894C180.971 25.999 180.867 26.02 180.772 26.0774C180.65 26.1519 180.573 26.2456 180.284 26.2514C179.986 26.2571 179.683 26.2801 179.389 26.3126C179.109 26.3451 178.978 26.259 178.802 26.2074C178.671 26.1711 178.549 26.1653 178.382 26.1825C178.228 26.1978 178.133 26.2303 178.043 26.2915C177.844 26.4215 177.826 26.4215 177.582 26.3393C177.451 26.2953 177.333 26.2609 177.189 26.2686C176.592 26.3068 175.996 26.3489 175.399 26.3929C175.056 26.4177 175.051 26.4215 174.794 26.3259C174.667 26.2781 174.545 26.2552 174.396 26.2666C172.756 26.3814 171.116 26.4923 169.476 26.6127C169.223 26.6319 169.051 26.5917 168.87 26.5343C168.811 26.5152 168.753 26.4884 168.685 26.4808C168.617 26.4732 168.54 26.4808 168.468 26.4846C167.275 26.5668 166.078 26.6453 164.889 26.737C164.618 26.7581 164.474 26.6969 164.288 26.6472C164.225 26.63 164.171 26.6032 164.103 26.5955C164.035 26.5898 163.954 26.6032 163.882 26.6089C162.689 26.6911 161.491 26.7695 160.303 26.8613C160.018 26.8824 159.896 26.802 159.711 26.76C159.648 26.7447 159.58 26.716 159.521 26.7198C159.146 26.7408 158.776 26.7695 158.401 26.7944C157.506 26.8575 156.611 26.9168 155.717 26.9818C155.373 27.0066 155.224 26.8365 154.935 26.8441C154.56 26.8537 154.189 26.8919 153.814 26.9187C153.516 26.9397 153.218 26.9588 152.92 26.9818C152.626 27.0028 152.626 27.0028 151.894 26.8919C151.831 26.8823 151.754 26.869 151.691 26.8728C150.647 26.9435 149.599 27.0143 148.559 27.0908C148.32 27.108 148.121 27.0984 147.949 27.0277C147.827 26.978 147.701 26.9531 147.552 26.9646C145.984 27.0735 144.42 27.1826 142.852 27.2896C142.794 27.2935 142.717 27.2743 142.658 27.259C142.532 27.2246 142.41 27.1845 142.288 27.1481C142.197 27.1921 142.08 27.2323 142.021 27.282C141.94 27.3489 141.831 27.368 141.66 27.3795C141.488 27.391 141.38 27.3871 141.244 27.3374C141.081 27.2762 140.914 27.2284 140.648 27.2475C139.007 27.368 137.367 27.477 135.727 27.5956C135.456 27.6147 135.329 27.5305 135.139 27.4866C135.076 27.4732 135.004 27.4522 134.945 27.456C134.272 27.5 133.603 27.5478 132.93 27.5936C131.064 27.7237 129.198 27.848 127.336 27.9856C126.997 28.0105 126.767 27.9627 126.527 27.8805C126.477 27.8632 126.392 27.8537 126.328 27.8575C123.717 28.0372 121.105 28.2189 118.498 28.4005C118.358 28.4101 118.222 28.3795 118.109 28.3298C117.992 28.2782 117.861 28.2533 117.716 28.2629C116.523 28.3451 115.33 28.4273 114.137 28.5114C113.839 28.5325 113.835 28.5344 113.527 28.4426C113.464 28.4235 113.396 28.3872 113.347 28.391C113.243 28.4005 113.143 28.4483 113.071 28.5133C112.999 28.5822 112.886 28.6013 112.719 28.6147C112.547 28.6281 112.434 28.6223 112.303 28.5765C112.136 28.5191 111.982 28.4636 111.711 28.4828C108.281 28.7275 104.852 28.9627 101.422 29.2055C101.147 29.2246 101.02 29.1443 100.83 29.1004C100.767 29.087 100.704 29.0678 100.636 29.064C100.564 29.0602 100.487 29.0717 100.415 29.0774C94.8208 29.4656 89.227 29.8556 83.633 30.2438C83.2987 30.2667 83.3032 30.2667 82.9372 30.4426C82.892 30.4637 82.8332 30.4923 82.7699 30.4962C81.0574 30.6185 79.3404 30.7371 77.6234 30.8556C76.8779 30.9073 76.1323 30.9608 75.3868 31.0105C75.1202 31.0277 75.1202 31.0277 74.4831 31.2342C74.4288 31.2514 74.3655 31.2744 74.3023 31.2782C71.3201 31.4866 68.3378 31.695 65.3511 31.8996C65.1161 31.9149 64.9264 31.9494 64.8179 32.0411C64.7411 32.1061 64.6417 32.1444 64.4926 32.1559C62.4051 32.3012 60.3176 32.4484 58.2255 32.5899C57.977 32.6071 57.8278 32.6607 57.7058 32.741C57.6651 32.7677 57.629 32.7983 57.5702 32.8174C57.516 32.8346 57.4347 32.8404 57.3669 32.8461C55.5776 32.9704 53.7883 33.0985 51.9945 33.2171C51.7279 33.2343 51.6194 33.305 51.4883 33.3796C51.4432 33.4044 51.4115 33.4389 51.3528 33.4561C51.294 33.4714 51.2082 33.4714 51.1359 33.4752C49.6448 33.5784 48.1537 33.6836 46.6626 33.7869C46.3734 33.7773 46.3101 33.8882 46.1701 33.9551C46.1203 33.9781 46.0843 34.0087 46.0255 34.024C45.9623 34.0392 45.8808 34.0373 45.804 34.0412C44.6111 34.1234 43.4183 34.2113 42.2209 34.2878C41.9453 34.305 41.891 34.4025 41.7419 34.4695C41.6922 34.4905 41.6426 34.523 41.5838 34.5287C40.8383 34.5842 40.0927 34.6358 39.3472 34.6855C39.0987 34.7027 39.0986 34.7008 38.6604 34.8901C38.6106 34.9112 38.5519 34.9341 38.4886 34.9398C37.3725 35.0202 36.252 35.0966 35.1314 35.175C34.9868 35.1846 34.8874 35.2305 34.8151 35.2955C34.7428 35.3605 34.6389 35.4026 34.4943 35.4121C33.5996 35.4752 32.7049 35.5402 31.8102 35.5976C31.5617 35.6129 31.3991 35.6607 31.2906 35.7467C31.2093 35.8117 31.1099 35.8442 30.9518 35.8557C30.0571 35.9169 29.1625 35.9838 28.2633 36.0374C28.0012 36.0527 27.8656 36.1177 27.7571 36.198C27.6713 36.263 27.5719 36.2859 27.4047 36.2974C25.7645 36.4083 24.1198 36.5192 22.4841 36.6416C22.2085 36.6626 22.0683 36.5957 21.8876 36.5479C21.6301 36.481 21.3906 36.4083 21.3906 36.2592C21.3906 36.2362 21.3138 36.2094 21.2596 36.1903C20.8574 36.0469 20.8574 36.0469 20.7942 35.894C20.758 35.8003 20.7174 35.7047 20.6857 35.6091C20.627 35.4523 20.4823 35.4121 20.0666 35.4408C19.9175 35.4504 19.7684 35.4637 19.6193 35.4714C19.3979 35.4848 19.2307 35.4217 19.1901 35.3069C19.1675 35.2439 19.1404 35.1808 19.1178 35.1177C19.3437 35.1024 19.3392 35.1005 19.7368 34.8691C19.904 34.7716 19.9041 34.7716 19.5832 34.6741C19.4612 34.6377 19.3437 34.5976 19.2127 34.5631C19.1539 34.5479 19.0772 34.5383 19.0139 34.5421C18.6389 34.5651 18.2684 34.5918 17.8978 34.6186C17.3014 34.6607 17.3013 34.6607 16.6959 34.4656C16.6461 34.4503 16.5693 34.4217 16.5784 34.4064C16.6281 34.3356 16.7501 34.305 16.9037 34.2974C17.1296 34.2859 17.351 34.2668 17.5724 34.2515C17.7215 34.2419 17.8706 34.2305 18.0197 34.2209C18.1598 34.1482 18.3045 34.0775 18.4355 34.0029C18.6434 33.8882 18.6433 33.8844 18.3586 33.8041C18.1779 33.7505 17.9836 33.7027 17.7983 33.653C17.5769 33.6683 17.351 33.6855 17.1296 33.6989C16.8495 33.7161 16.7365 33.6798 16.6642 33.5555C16.6009 33.4465 16.6778 33.3528 16.8946 33.3299C17.116 33.3069 17.324 33.2916 17.4369 33.1941C17.5454 33.1004 17.7351 33.0641 17.9701 33.0564C18.1192 33.0507 18.2683 33.0373 18.4174 33.0259C18.6117 33.0106 18.7157 32.913 18.675 32.804C18.6524 32.7333 18.6072 32.674 18.431 32.6587C17.6493 32.5918 17.6402 32.5937 17.2516 32.4637C17.2155 32.4522 17.1884 32.4178 17.202 32.4006C17.2246 32.3719 17.2743 32.3299 17.3285 32.3241C17.8481 32.2821 18.3677 32.2438 18.8874 32.2151C19.0591 32.2056 19.1856 32.1922 19.2444 32.1214C19.3257 32.0239 19.2895 31.934 19.1314 31.8671C19.0817 31.8461 19.0003 31.8193 18.9461 31.8212C18.3496 31.8557 17.7577 31.8996 17.1613 31.934C17.107 31.9379 17.0077 31.9054 16.9851 31.8805C16.9399 31.8346 17.0076 31.7734 17.1658 31.7524C17.3736 31.7237 17.586 31.7218 17.7261 31.6262C17.9204 31.4904 18.1598 31.3662 18.3767 31.2362C18.4129 31.2132 18.4717 31.1692 18.4581 31.1654C18.3452 31.1233 18.2141 31.0908 18.0966 31.0507C17.8978 30.9837 17.8978 30.8901 17.943 30.8002C17.9791 30.7275 18.1147 30.6989 18.2819 30.6989C18.3541 30.6989 18.4445 30.6989 18.5033 30.6816C18.6569 30.6396 18.7066 30.586 18.6298 30.5459C18.5846 30.5229 18.5033 30.4904 18.4491 30.4943C17.4821 30.5574 16.5106 30.6185 15.5481 30.6969C15.2635 30.7199 15.1325 30.6472 14.9608 30.5956C14.8298 30.5554 14.7077 30.5401 14.545 30.5688C14.3914 30.5956 14.2424 30.5803 14.1475 30.5172C14.0707 30.4656 14.2062 30.4216 14.5722 30.3719C14.64 30.3623 14.7167 30.3566 14.7664 30.3375C15.2906 30.131 15.2906 30.1291 15.6521 30.1023C16.0045 30.0774 16.0046 30.0755 16.1898 29.9646C16.2757 29.913 16.3705 29.8614 16.4518 29.8078C16.4835 29.7868 16.5378 29.7485 16.5197 29.7371C16.4203 29.6778 16.2847 29.6644 16.1265 29.6778C15.7741 29.7103 15.3584 29.6835 15.1732 29.8652C15.1009 29.934 14.9879 29.9531 14.8252 29.9646C13.1895 30.0755 11.5538 30.1941 9.91357 30.3011C9.64698 30.3184 9.52505 30.3891 9.42113 30.4675C9.33076 30.5325 9.23133 30.5516 9.05962 30.5631C8.88792 30.5746 8.7523 30.5803 8.65289 30.5172C8.59415 30.479 8.64387 30.4254 8.77942 30.3719C8.97372 30.2954 8.93755 30.1998 8.8743 30.1099C8.82911 30.0507 8.68904 30.0086 8.53993 30.0124C8.31852 30.0201 8.10621 30.0411 7.92095 29.9646C7.81251 29.9206 7.67693 29.89 7.55493 29.8518C7.31996 29.7734 7.08499 29.6931 6.75514 29.7447C6.52922 29.7256 6.37107 29.6568 6.19033 29.6032C5.88759 29.5153 5.86048 29.5019 6.07737 29.4082C6.32137 29.303 6.13155 29.1654 6.26711 29.0621C6.4117 28.9512 6.61058 28.8537 6.7868 28.7505C6.83199 28.7237 6.87267 28.6988 6.91786 28.6721C6.81393 28.6338 6.71906 28.586 6.59706 28.5592C6.43891 28.5248 6.35758 28.4828 6.36661 28.3642C6.33498 28.347 6.34845 28.391 6.38459 28.4024C6.42526 28.4139 6.52474 28.4044 6.57445 28.391C6.70096 28.3547 6.76416 28.3068 6.73253 28.2667C6.71445 28.2457 6.62867 28.2189 6.57445 28.2189C6.47504 28.2189 6.3892 28.261 6.36209 28.3642C5.85602 28.4426 5.33179 28.4809 4.80764 28.5114C4.75342 28.5153 4.68568 28.477 4.62242 28.4579C4.41457 28.3929 4.41454 28.3948 3.80455 28.3757C3.74129 28.3738 3.65548 28.347 3.62385 28.3202C3.49281 28.2036 3.49737 28.0755 3.43411 27.9512C3.55159 27.8709 3.66898 27.7925 3.79098 27.7141C4.03498 27.5554 4.35134 27.4158 4.54112 27.2418C4.50045 27.1481 4.44622 27.0544 4.64504 26.978C5.20985 26.8824 5.20537 26.8824 5.35899 26.7906C5.79729 26.5305 6.23104 26.2686 6.68741 26.0124C6.80941 25.9454 6.80943 25.9091 6.59254 25.8804C6.52476 25.8728 6.45237 25.8709 6.38007 25.8747C6.15415 25.8881 5.92823 25.9225 5.70682 25.9148C5.48541 25.9091 5.32275 25.825 5.14201 25.7733C4.95675 25.7198 4.7715 25.6644 4.58624 25.6089C4.37387 25.6146 4.16154 25.6682 3.94917 25.5821C3.7865 25.5152 3.58318 25.4674 3.39792 25.412C3.538 25.2666 3.80011 25.1557 4.00344 25.0276C4.1887 24.911 4.19312 24.9129 4.69016 24.823C4.92512 24.781 5.00645 24.5649 4.80764 24.5018C4.56816 24.4253 4.31518 24.3546 4.07118 24.2819C3.85881 24.2876 3.64196 24.3393 3.43863 24.2532C3.28048 24.1882 3.09971 24.1442 2.83763 24.1691C2.39482 24.2112 1.94298 24.2322 1.49565 24.2666C1.34202 24.2781 1.17479 24.2705 1.10701 24.2054C1.06183 24.1596 1.19287 24.0965 1.34198 24.0831C1.56791 24.0639 1.77122 24.041 1.88418 23.9454C1.99263 23.8498 2.19142 23.8211 2.42638 23.8077C2.48964 23.8039 2.56199 23.7809 2.59362 23.758C2.75628 23.6471 2.93704 23.5515 3.28496 23.5553C3.42955 23.5171 3.50632 23.4693 3.46113 23.4234C3.43402 23.3985 3.33918 23.366 3.28496 23.3699C2.90993 23.389 2.5349 23.4081 2.1689 23.4425C1.9972 23.4578 1.86609 23.4616 1.75765 23.4043C1.68084 23.366 1.7215 23.3144 1.86609 23.259C1.99261 23.2112 2.0288 23.1557 2.01976 23.0907C1.99717 22.9396 1.86158 22.8957 1.42781 22.9052C1.11603 22.9129 1.03921 22.888 0.971434 22.758C0.95336 22.7274 0.908255 22.6853 0.939884 22.6643C1.13418 22.5343 1.26071 22.3737 1.62671 22.3125C1.7713 22.2895 1.92487 22.2895 2.01524 22.2398C2.10561 22.1901 2.18698 22.1327 2.28187 22.0849C2.39935 22.0276 2.4806 21.9741 2.42638 21.9377C2.33601 21.8727 2.19147 21.867 2.02428 21.8899C1.87969 21.909 1.72606 21.9109 1.57695 21.9224C1.31036 21.9434 1.09352 21.8937 1.06189 21.8096C0.976041 21.5878 0.885645 21.3679 0.80883 21.1461C0.799793 21.1194 0.822324 21.0849 0.858472 21.062C0.98499 20.9817 1.1206 20.9052 1.25163 20.8268C1.40526 20.7369 1.6493 20.7541 1.85715 20.7369C2.15086 20.7121 2.15076 20.714 2.54387 20.5304C2.69749 20.4578 2.9641 20.4865 3.12225 20.4214C3.17195 20.4004 3.24877 20.366 3.23521 20.3469C3.21714 20.322 3.12681 20.3029 3.05904 20.2914C2.99578 20.2799 2.91898 20.2742 2.8512 20.2799C2.02884 20.3354 1.21101 20.3947 0.38864 20.4482C0.248566 20.4578 0.0949327 20.4157 0.0452292 20.3564C-0.00447438 20.301 0.00903701 20.234 0 20.1709C0.131037 20.0926 0.28009 20.0199 0.393053 19.9358C0.478904 19.8708 0.578329 19.8421 0.750032 19.8382C0.975957 19.8325 1.19739 19.8096 1.45042 19.7924C1.92035 19.5132 2.3812 19.2207 2.88728 18.9415C3.09061 18.8287 3.04098 18.7139 3.08165 18.5935C3.12232 18.4826 3.42504 18.4998 3.62837 18.4673C3.79104 18.4405 3.84519 18.3793 3.78193 18.3373C3.74578 18.3124 3.66449 18.2837 3.60124 18.2837C3.45212 18.2837 3.30302 18.3009 3.15391 18.3105C3.0048 18.3201 2.8331 18.3143 2.7111 18.3468C2.59362 18.3774 2.51676 18.4424 2.43995 18.4979C2.3541 18.5591 2.24121 18.5801 2.06951 18.5839C1.8481 18.5878 1.62671 18.605 1.4053 18.6183C1.1613 18.5438 0.908215 18.4711 0.673253 18.3927C0.628068 18.3774 0.618982 18.3335 0.623501 18.3048C0.632538 18.2302 0.564778 18.1843 0.415667 18.148C0.289149 18.1174 0.185215 18.0734 0.0677334 18.0352C0.158104 17.9835 0.257546 17.9338 0.329842 17.8784C0.48799 17.7617 0.686826 17.6776 1.03023 17.6814C1.16579 17.6069 1.2742 17.5151 1.45042 17.4635C1.61761 17.4137 1.90229 17.4634 2.0288 17.3506C2.09206 17.2952 2.187 17.2321 2.309 17.2091C2.5033 17.1728 2.75633 17.192 2.86929 17.0849C2.93707 17.0237 3.03644 16.9682 3.16748 16.9529C3.31659 16.9357 3.47018 16.9319 3.57862 16.8956C3.63736 16.8765 3.70063 16.8459 3.70063 16.8191C3.70063 16.8019 3.61033 16.7751 3.54707 16.7636C3.48833 16.7503 3.41143 16.7407 3.34365 16.7445C3.11772 16.756 2.89632 16.777 2.6704 16.7885C2.60714 16.7923 2.53486 16.7789 2.46709 16.7675C2.26827 16.7369 2.2818 16.6986 2.43995 16.6298C2.5981 16.5629 2.71112 16.4768 2.84216 16.3984C2.98675 16.385 3.16746 16.3908 3.26687 16.3545C3.43405 16.2952 3.55151 16.2091 3.68706 16.1346C3.83617 16.1231 3.98979 16.1193 4.12986 16.0982C4.18861 16.0906 4.21574 16.0485 4.26544 16.0237C4.35581 15.9759 4.43269 15.907 4.55469 15.8841C4.7535 15.8497 4.9975 15.863 5.11498 15.7579C5.18276 15.6967 5.28664 15.6317 5.41316 15.6279C5.7656 15.6202 5.91472 15.515 6.09546 15.4156C6.23101 15.341 6.52021 15.3793 6.66932 15.3047C6.76872 15.2569 6.84106 15.1976 6.94047 15.1517C6.98114 15.1326 7.06696 15.1231 7.13474 15.1173C7.50525 15.0887 7.88028 15.0676 8.25079 15.037C8.30954 15.0313 8.3638 15.0026 8.40899 14.9797C8.50387 14.93 8.56255 14.8611 8.68003 14.8286C8.79751 14.7961 8.96467 14.7961 9.10927 14.7866C9.57467 14.7579 9.61086 14.7655 9.82323 14.603C9.99493 14.471 10.4152 14.5647 10.5553 14.4194C10.6366 14.3353 10.7857 14.2665 11.0522 14.2569C11.4273 14.2435 11.7978 14.2072 12.1728 14.1823C12.5072 14.1594 12.5027 14.1594 12.8642 13.9816C13.0268 13.9012 13.2664 13.9127 13.4787 13.8974C13.7047 13.8821 13.9125 13.8592 14.0209 13.7636C14.1294 13.6699 14.3282 13.6393 14.5586 13.6259C14.771 13.6125 15.0105 13.6221 15.1777 13.5456C15.5844 13.3621 15.5799 13.3601 15.8645 13.341C16.3119 13.3104 16.7592 13.2798 17.2065 13.2473C17.5047 13.2263 17.8165 13.2225 18.0966 13.1804C18.3 13.1498 18.3903 13.0427 18.5213 12.9682C18.8919 12.9395 19.2624 12.9108 19.6329 12.884C20.1525 12.8458 20.6766 12.8114 21.2008 12.775C21.4267 12.7024 21.4584 12.5418 21.838 12.5341C22.0639 12.5303 22.2853 12.5054 22.5112 12.4902C22.8863 12.4634 23.2568 12.429 23.6318 12.4156C23.9165 12.406 23.9661 12.3028 24.1152 12.2377C24.1649 12.2148 24.2101 12.1823 24.2689 12.1766C24.8563 12.123 25.4617 12.1116 26.0356 12.0332C26.0943 12.0255 26.1485 11.9854 26.1621 11.9567C26.1711 11.9414 26.0943 11.9127 26.0446 11.8993C25.9859 11.884 25.9091 11.8687 25.8458 11.8726C23.9797 12.0007 22.1136 12.1307 20.2474 12.2588C19.9854 12.2779 19.9854 12.276 19.3483 12.4863C19.294 12.5035 19.2307 12.5226 19.1629 12.5284C18.8647 12.5513 18.562 12.5647 18.2683 12.5934C18.0288 12.6164 17.8301 12.5934 17.6584 12.5246C17.5364 12.4748 17.4098 12.4596 17.2561 12.4634C17.0844 12.4691 16.9715 12.4902 16.8721 12.5418C16.7411 12.6125 16.6733 12.7043 16.3977 12.7234C15.128 12.8056 13.8582 12.8974 12.593 12.9854C12.4168 12.9586 12.331 12.9185 12.3761 12.8707C12.4032 12.842 12.4575 12.8037 12.5117 12.7999C13.0313 12.7598 13.5555 12.7253 14.0751 12.6871C14.1474 12.6814 14.2468 12.6852 14.2875 12.666C14.4863 12.58 14.5586 12.4404 14.9337 12.4309C15.1506 12.4251 15.3719 12.3965 15.5798 12.3697C15.6385 12.362 15.6928 12.3219 15.7063 12.2932C15.7108 12.2779 15.6385 12.2492 15.5843 12.2358C15.3855 12.1804 15.1551 12.2473 14.9563 12.2091C14.8885 12.1957 14.7936 12.1766 14.78 12.1536C14.771 12.1326 14.8478 12.0982 14.902 12.0771C14.9517 12.058 15.0195 12.0408 15.0872 12.0351C15.6837 11.9911 16.2802 11.9452 16.8767 11.9108C17.1207 11.8974 17.2923 11.8496 17.4008 11.7616C17.4821 11.6966 17.5815 11.6622 17.7351 11.6527C18.7789 11.5819 19.8227 11.5035 20.8709 11.4385C21.133 11.4232 21.2686 11.3601 21.3771 11.2779C21.4629 11.2129 21.5623 11.1899 21.7295 11.1785C23.2252 11.079 24.7117 10.9681 26.2073 10.8725C26.483 10.8553 26.5643 10.7731 26.7044 10.7024C26.7541 10.6775 26.7857 10.6469 26.8489 10.6316C26.9122 10.6163 26.9935 10.6182 27.0703 10.6144C28.2632 10.5322 29.4562 10.4442 30.6536 10.3678C30.9337 10.3505 30.9879 10.2549 31.1325 10.188C31.1822 10.167 31.2274 10.1326 31.2861 10.1268C32.1808 10.0618 33.0754 10.0006 33.9701 9.93754C34.5665 9.89547 35.163 9.8534 35.7594 9.81325C36.0531 9.79412 36.0531 9.7922 36.4507 9.61055C36.4959 9.58952 36.5592 9.56466 36.618 9.55892C38.335 9.43655 40.0475 9.31994 41.7645 9.19948C41.9091 9.18992 42.013 9.14592 42.0853 9.0809C42.1576 9.01589 42.2616 8.97192 42.4017 8.96236C43.7437 8.86675 45.0856 8.77307 46.4322 8.6832C46.6762 8.6679 46.8478 8.62201 46.9563 8.53597C47.0376 8.47096 47.137 8.43655 47.2906 8.42699C48.6326 8.33521 49.9747 8.23768 51.3212 8.14972C51.5788 8.13252 51.7052 8.06751 51.8317 7.99103C51.8769 7.96426 51.9131 7.92028 51.9673 7.91646C52.6361 7.86292 53.3003 7.80747 53.9735 7.77114C54.2537 7.75584 54.3486 7.67553 54.4616 7.59905C54.5519 7.53786 54.6559 7.51683 54.8276 7.50918C55.2026 7.49198 55.5731 7.45948 55.9391 7.42698C55.9933 7.42124 56.0611 7.37917 56.0656 7.3524C56.0747 7.30269 55.9707 7.26827 55.799 7.25106C54.0097 7.37534 52.2159 7.49962 50.4266 7.6239C50.1329 7.64494 50.1328 7.64495 49.7352 7.8266C49.69 7.84763 49.6267 7.87249 49.5635 7.87822C47.8464 7.99869 46.134 8.11724 44.4169 8.2377C44.2723 8.24726 44.1684 8.29123 44.0961 8.35624C44.0238 8.42126 43.9198 8.46523 43.7797 8.47479C42.1395 8.58952 40.4994 8.70616 38.8546 8.81515C38.6106 8.83044 38.439 8.8744 38.3305 8.96236C38.2492 9.02737 38.1498 9.0618 37.9961 9.07136C36.4282 9.17844 34.8647 9.29124 33.2923 9.39449C33.1342 9.40405 33.0168 9.3486 33.0258 9.29697C33.0303 9.2702 33.098 9.22624 33.1522 9.22242C33.9701 9.15932 34.7835 9.0943 35.6058 9.0465C35.8815 9.0312 35.9627 8.94707 36.1028 8.87632C36.148 8.85147 36.1842 8.81896 36.2429 8.80558C36.3062 8.79028 36.3875 8.7922 36.4643 8.78837C38.4027 8.65262 40.3412 8.51495 42.2842 8.38684C42.5644 8.36772 42.6185 8.27402 42.7631 8.2071C42.8128 8.18415 42.858 8.14974 42.9167 8.14592C43.5132 8.10003 44.1096 8.05987 44.7061 8.01972C45.7498 7.94706 46.7936 7.8744 47.8419 7.80174C48.1446 7.7807 48.1446 7.78069 48.5332 7.60096C48.5784 7.57993 48.6417 7.55318 48.7005 7.54935C51.4613 7.35623 54.2221 7.16311 56.9829 6.9719C57.1275 6.96234 57.2314 6.91837 57.3037 6.85335C57.376 6.79026 57.4799 6.74437 57.62 6.73289C61.3523 6.47285 65.08 6.2128 68.8123 5.95658C69.0563 5.93937 69.228 5.89921 69.3364 5.80935C69.4132 5.74433 69.5172 5.70993 69.6708 5.69845C73.7736 5.41355 77.8764 5.12866 81.9837 4.84185C84.7445 4.65064 87.5054 4.45561 90.2662 4.26822C90.5192 4.25102 90.6547 4.19173 90.7812 4.11333C90.8219 4.08657 90.8626 4.04258 90.9168 4.03876C91.5087 3.99096 92.1006 3.94699 92.6926 3.90301C92.8778 3.95464 93.0631 4.00436 93.2483 4.05599C93.3884 3.98333 93.524 3.90875 93.6641 3.83609C94.5588 3.78064 95.4398 3.6946 96.3435 3.66783C96.4023 3.66592 96.4655 3.70225 96.5288 3.72137C96.949 3.84183 97.1885 3.83227 97.4551 3.67166C97.55 3.61429 97.6313 3.56267 97.7759 3.55311C98.2232 3.51869 98.6752 3.49575 99.118 3.45559C99.3575 3.43456 99.5562 3.45367 99.7279 3.52251C99.8499 3.57222 99.9765 3.59327 100.126 3.5818C100.948 3.52443 101.766 3.46898 102.588 3.40779C102.647 3.40397 102.701 3.37145 102.746 3.3485C102.841 3.29879 102.922 3.24526 103.013 3.19364C103.135 3.22614 103.27 3.251 103.37 3.29307C103.496 3.34278 103.614 3.34277 103.786 3.32939C107.066 3.09803 110.351 2.8724 113.631 2.63913C113.911 2.62001 114.034 2.70033 114.223 2.74239C114.287 2.75769 114.35 2.7768 114.418 2.78062C114.49 2.78445 114.567 2.77298 114.639 2.76725C117.102 2.59516 119.564 2.42497 122.027 2.25289C122.352 2.22994 122.352 2.22994 122.836 2.34849C122.894 2.36379 122.971 2.381 123.034 2.37526C124.155 2.30069 125.276 2.22039 126.392 2.14391C126.536 2.13435 126.658 2.16494 126.789 2.20891C127.047 2.29496 127.065 2.29497 127.255 2.16877C127.345 2.10949 127.44 2.07315 127.589 2.05594C127.752 2.03682 127.883 2.04257 128.009 2.07699C128.19 2.12479 128.321 2.20509 128.597 2.18406C129.79 2.09419 130.987 2.01962 132.175 1.92784C132.446 1.90681 132.591 1.97182 132.772 2.01962C132.835 2.03683 132.894 2.0636 132.962 2.06934C133.029 2.07507 133.111 2.06167 133.183 2.05594C134.674 1.95269 136.17 1.85137 137.656 1.74046C137.936 1.71943 138.058 1.80164 138.248 1.8437C138.311 1.859 138.384 1.88578 138.442 1.88196C139.337 1.82268 140.236 1.75957 141.131 1.69647C141.452 1.67352 141.452 1.67543 141.94 1.79207C141.998 1.80737 142.075 1.82267 142.139 1.81884C143.182 1.7481 144.231 1.67544 145.274 1.60278C145.595 1.57983 145.595 1.57984 146.522 1.67927C146.589 1.68691 146.662 1.6984 146.729 1.69458C147.922 1.61236 149.12 1.53204 150.313 1.44408C150.552 1.42687 150.751 1.44217 150.923 1.511C151.045 1.56072 151.171 1.58176 151.32 1.57029C152.662 1.4766 154.009 1.38673 155.346 1.2873C155.604 1.26818 155.771 1.31023 155.952 1.36568C156.01 1.3848 156.069 1.41158 156.137 1.41923C156.205 1.42687 156.282 1.41922 156.354 1.41348C157.696 1.31979 159.042 1.23184 160.38 1.1305C160.651 1.10947 160.796 1.17447 160.976 1.22228C161.04 1.23948 161.107 1.2739 161.161 1.27199C161.686 1.23949 162.21 1.21082 162.729 1.16301C163.01 1.13624 163.132 1.22418 163.321 1.26625C163.385 1.27963 163.457 1.30833 163.516 1.30451C164.636 1.22993 165.757 1.15155 166.873 1.07124C167.031 1.05977 167.148 1.07696 167.275 1.12667C167.442 1.1936 167.637 1.22037 167.881 1.19933C168.4 1.15535 168.924 1.12477 169.448 1.08844C169.756 1.06741 169.756 1.06741 170.696 1.16684C170.763 1.17449 170.836 1.18595 170.903 1.18213C171.798 1.12094 172.697 1.06167 173.587 0.99475C173.827 0.97563 174.026 0.992834 174.197 1.06167C174.319 1.11138 174.441 1.13243 174.595 1.12095C175.417 1.06359 176.235 1.00622 177.058 0.948862C177.356 0.92783 177.654 0.891491 177.952 0.891491C178.169 0.893403 178.327 0.985179 178.522 1.03107C178.576 1.04445 178.666 1.02917 178.739 1.02535C179.782 0.952691 180.831 0.885762 181.87 0.803543C182.141 0.78251 182.286 0.847517 182.466 0.895319C182.53 0.912527 182.597 0.946947 182.652 0.945034C183.027 0.924002 183.397 0.895318 183.772 0.870461C184.219 0.839867 184.671 0.816922 185.114 0.774857C185.476 0.740439 185.611 0.906785 185.9 0.912521C186.122 0.918257 186.348 0.885757 186.569 0.870461C187.016 0.839867 187.464 0.805454 187.911 0.778685C188.069 0.769124 188.191 0.738518 188.241 0.669683C188.25 0.656299 188.173 0.62763 188.123 0.610421C187.523 0.415389 187.522 0.41538 186.917 0.457446C186.542 0.484215 186.171 0.510988 185.796 0.533933C185.733 0.537757 185.661 0.522462 185.598 0.510989C185.417 0.478484 185.435 0.440246 185.589 0.371412C185.742 0.302577 185.86 0.218453 185.991 0.140058C186.176 0.189772 186.357 0.239468 186.542 0.289182C186.691 0.279622 186.84 0.268166 186.989 0.258606C187.735 0.208892 188.48 0.157262 189.226 0.111372C189.28 0.107548 189.348 0.145795 189.411 0.164916C189.592 0.220366 189.755 0.268155 190.017 0.247122C190.685 0.191672 191.359 0.151518 192.027 0.103716C192.321 0.0826833 192.321 0.0826852 192.836 0.201234C192.895 0.214618 192.972 0.229916 193.035 0.226092C193.708 0.182114 194.377 0.134318 195.05 0.0884279C195.195 0.0788676 195.335 0.103724 195.439 0.159174C195.48 0.182119 195.471 0.220353 195.642 0.533933C196.175 0.788239 196.541 0.761483 196.912 0.738539C197.07 0.728978 197.21 0.719408 197.314 0.681167C197.368 0.660134 197.436 0.629536 197.436 0.604679C197.436 0.585558 197.337 0.55496 197.273 0.551135C196.826 0.512894 196.401 0.593212 195.963 0.610421C195.76 0.618069 195.583 0.551146 195.547 0.442157C195.538 0.411564 195.525 0.379061 195.511 0.348468C195.498 0.317874 195.489 0.285371 195.475 0.254778C195.299 0.245217 195.195 0.279629 195.118 0.34464C195.055 0.398178 194.964 0.459364 194.842 0.488045C194.72 0.518639 194.553 0.512913 194.404 0.522473C194.26 0.532033 194.101 0.556888 193.966 0.543503C193.83 0.528206 193.722 0.472747 193.595 0.438329C193.537 0.421121 193.464 0.396273 193.406 0.400097C192.886 0.432603 192.371 0.465096 191.856 0.507161C191.585 0.530106 191.449 0.449811 191.277 0.400097C191.142 0.361856 191.006 0.371404 190.984 0.45936C190.925 0.669688 191.133 0.757639 191.594 0.717485C191.973 0.683068 192.317 0.677349 192.615 0.80737C192.656 0.824579 192.75 0.832225 192.809 0.828401C193.18 0.805456 193.546 0.776772 193.916 0.753827C193.984 0.750003 194.056 0.757639 194.12 0.765287C195.041 0.868539 195.041 0.870462 195.353 0.847517C195.502 0.836044 195.647 0.826483 195.633 0.535847C195.918 0.224179 196.37 0.20315 196.808 0.15726C197.093 0.128579 197.215 0.212714 197.4 0.256692C197.463 0.271988 197.531 0.302576 197.59 0.298752C198.561 0.235653 199.528 0.168721 200.495 0.0979743C200.658 0.0865019 200.775 0.0979762 200.902 0.14769C201.064 0.210789 201.245 0.250951 201.503 0.228006C202.018 0.182116 202.542 0.153441 203.066 0.1152C203.333 0.096079 203.333 0.0960594 203.87 0.214608C203.929 0.227993 204.006 0.24329 204.069 0.239466C204.593 0.206961 205.113 0.166819 205.633 0.132402C205.777 0.122842 205.908 0.149608 206.021 0.201234C206.134 0.25286 206.27 0.279626 206.41 0.270066C206.934 0.235648 207.454 0.197419 207.973 0.163002C208.036 0.159178 208.113 0.172561 208.172 0.185946C208.723 0.304494 208.723 0.304475 208.976 0.285354C209.347 0.256673 209.726 0.243303 210.092 0.205062C210.449 0.16682 210.635 0.277711 210.879 0.338898C211.547 0.29492 212.221 0.2586 212.885 0.205062C213.156 0.182117 213.301 0.24521 213.481 0.294924C213.545 0.312132 213.608 0.348466 213.666 0.346554C213.892 0.338905 214.114 0.317876 214.335 0.30258C214.557 0.287283 214.783 0.271988 215.004 0.256692C215.257 0.312142 215.424 0.442161 215.786 0.398183C216.003 0.371414 216.233 0.365678 216.454 0.350381C216.676 0.335085 216.902 0.31979 217.123 0.304494C217.272 0.294933 217.426 0.289188 217.571 0.27198C217.837 0.243299 217.968 0.337002 218.158 0.379067C218.221 0.392452 218.293 0.415382 218.352 0.411558C218.8 0.384789 219.251 0.361846 219.69 0.317868C220.029 0.28345 220.259 0.34082 220.499 0.421127C220.548 0.438336 220.634 0.447895 220.697 0.444071C221.221 0.411566 221.741 0.371401 222.261 0.336984C222.401 0.327423 222.536 0.358016 222.649 0.40773C222.767 0.459356 222.898 0.484231 223.042 0.474671C223.562 0.440254 224.086 0.402001 224.606 0.367584C224.669 0.363759 224.746 0.379059 224.805 0.394355C225.311 0.512904 225.311 0.514818 225.609 0.491873C225.681 0.486137 225.758 0.482298 225.83 0.476562C226.201 0.449793 226.585 0.440245 226.946 0.394355C227.362 0.342729 227.665 0.407743 227.959 0.516731C228.329 0.493786 228.709 0.480399 229.07 0.442157C229.341 0.413476 229.486 0.486131 229.667 0.533933C229.73 0.551142 229.798 0.585559 229.852 0.581735C230.376 0.54923 230.9 0.520559 231.415 0.472757C231.695 0.445988 231.817 0.532016 232.007 0.575993C232.07 0.59129 232.138 0.618073 232.197 0.614249C232.495 0.598952 232.793 0.575996 233.092 0.554963C233.44 0.530106 233.439 0.532017 233.9 0.648653C234.117 0.704103 234.334 0.660124 234.547 0.646739C234.773 0.631443 234.985 0.619974 235.166 0.698369C235.279 0.748083 235.414 0.778677 235.554 0.771029C235.852 0.75382 236.155 0.73662 236.449 0.707939C236.684 0.684994 236.887 0.700282 237.059 0.771029C237.181 0.820743 237.307 0.845615 237.456 0.834142C238.125 0.788253 238.798 0.740433 239.467 0.696455C239.526 0.692631 239.607 0.709846 239.661 0.727055C239.788 0.761472 239.91 0.799705 240.032 0.837947C240.326 0.820738 240.628 0.81311 240.918 0.78634C241.225 0.759571 241.505 0.750008 241.745 0.855172C241.794 0.878117 241.866 0.910605 241.925 0.908693C242.151 0.901045 242.373 0.881929 242.594 0.866633C242.815 0.851336 243.041 0.836041 243.263 0.820745C243.52 0.868547 243.683 1.00621 244.044 0.962237C244.261 0.935468 244.492 0.929731 244.713 0.914435C244.935 0.899138 245.161 0.881931 245.382 0.868547C245.454 0.864723 245.536 0.855157 245.599 0.862805C245.667 0.870453 245.725 0.897228 245.784 0.916349C245.965 0.971799 246.132 1.02726 246.39 0.99475C246.606 0.967981 246.837 0.962243 247.058 0.945034C247.361 0.924002 247.361 0.924005 247.863 1.04447C248.066 1.09418 248.296 1.02917 248.491 1.07124C248.622 1.09992 248.735 1.14771 248.861 1.18022C248.915 1.1936 249.001 1.19933 249.064 1.1955C249.363 1.1783 249.665 1.1611 249.959 1.13241C250.199 1.10947 250.397 1.13241 250.565 1.20125C250.687 1.25096 250.809 1.272 250.962 1.26053C251.708 1.20699 252.453 1.16109 253.194 1.10181C253.447 1.08078 253.651 1.1133 253.791 1.18213C254.03 1.30068 254.369 1.1611 254.618 1.2567C254.771 1.31598 254.925 1.38482 255.205 1.35614C255.72 1.30642 256.244 1.27964 256.764 1.24522C256.949 1.29685 257.135 1.34848 257.324 1.40011C257.623 1.37908 257.921 1.35803 258.219 1.33891C258.44 1.32361 258.666 1.30641 258.888 1.29302C258.96 1.2892 259.037 1.28155 259.105 1.29111C259.172 1.30067 259.227 1.32553 259.29 1.34465C259.602 1.43834 259.602 1.44027 260.117 1.40202C260.338 1.38481 260.551 1.37334 260.736 1.44983C260.908 1.52057 261.111 1.53395 261.346 1.51292C261.789 1.47467 262.236 1.44599 262.688 1.41923C262.828 1.40967 262.959 1.44217 263.076 1.49189C263.253 1.57028 263.47 1.56263 263.691 1.5416C263.985 1.51483 264.274 1.48807 264.522 1.59515C264.572 1.61809 264.649 1.65058 264.703 1.64867C265.074 1.63337 265.449 1.6219 265.81 1.58558C266.172 1.54925 266.348 1.66779 266.596 1.72515C266.967 1.7003 267.342 1.67544 267.712 1.65058C267.785 1.64484 267.871 1.62764 267.934 1.63721C268.2 1.67736 268.354 1.82076 268.72 1.77678C268.932 1.75193 269.163 1.74429 269.384 1.73855C269.443 1.73664 269.52 1.76913 269.56 1.79399C269.583 1.80737 269.56 1.8437 269.533 1.86282C269.452 1.91636 269.353 1.96608 269.28 2.02153C269.271 2.02918 269.357 2.06359 269.407 2.07888C269.529 2.1133 269.669 2.10758 269.832 2.09228C269.972 2.0789 270.116 2.10566 270.216 2.16303C270.256 2.18597 270.243 2.22421 270.157 2.35041C270.157 2.4441 270.252 2.40202 270.283 2.34084C270.333 2.25288 270.238 2.2242 270.057 2.272C269.931 2.30642 269.868 2.35614 269.899 2.39629C269.917 2.41733 270.003 2.4441 270.157 2.35041C270.554 2.23568 270.853 2.21466 271.151 2.19363C271.228 2.18789 271.318 2.16876 271.372 2.18023C271.567 2.22612 271.747 2.28158 271.937 2.3332C272.154 2.32173 272.357 2.29304 272.57 2.36761C272.868 2.47277 272.882 2.46321 273.171 2.44218C273.32 2.43071 273.469 2.42117 273.618 2.41161C273.767 2.40205 273.885 2.43072 274.016 2.4747C274.282 2.56456 274.305 2.56455 274.481 2.44218C274.585 2.36761 274.657 2.34276 274.788 2.37718C275.222 2.49381 275.227 2.50146 275.597 2.46704C275.904 2.43836 276.194 2.43071 276.42 2.5397C276.573 2.61618 276.623 2.59898 276.745 2.51867C277.07 2.30643 277.219 2.31025 277.829 2.46321C278.114 2.53587 278.408 2.45748 278.697 2.44792C278.941 2.44028 279.113 2.48616 279.131 2.60662C279.144 2.68119 279.185 2.73474 279.348 2.75959C279.411 2.76915 279.488 2.78253 279.551 2.77871C279.926 2.75576 280.296 2.72899 280.671 2.70222C280.861 2.68884 280.965 2.59899 280.929 2.48044C280.888 2.35424 280.961 2.30833 281.232 2.272C281.394 2.25097 281.525 2.25481 281.657 2.28923C281.801 2.32747 281.76 2.36189 281.634 2.43072C281.331 2.59898 281.367 2.70222 281.756 2.81886C281.891 2.85901 282 2.89535 282.031 2.95463C282.05 2.98522 282.032 3.02537 282.072 3.04832C282.294 3.17643 282.601 3.25866 282.944 3.31984C283.274 3.26822 283.5 3.35424 283.753 3.42308C283.952 3.47662 284.187 3.43074 284.399 3.41162C284.639 3.39058 284.837 3.40587 285.009 3.47662C285.131 3.52634 285.258 3.54927 285.407 3.53971C285.705 3.51868 286.008 3.5053 286.301 3.47471C286.554 3.44794 286.744 3.48618 286.902 3.5512C287.101 3.63341 287.323 3.57796 287.531 3.58943C287.811 3.60281 287.951 3.77298 288.317 3.72709C288.534 3.70032 288.76 3.69077 288.986 3.68312C289.044 3.68121 289.117 3.71372 289.166 3.73666C289.406 3.84183 289.686 3.83609 289.993 3.80549C290.206 3.78446 290.413 3.76535 290.621 3.83801C290.965 3.96038 291.344 4.06746 291.706 4.18028C291.755 4.26823 291.719 4.37146 291.977 4.42309C292.112 4.44986 292.239 4.49003 292.343 4.53401C292.469 4.58563 292.587 4.59902 292.749 4.58564C293.043 4.55887 293.35 4.55311 293.64 4.51869C293.906 4.4881 294.073 4.55122 294.236 4.61049C294.367 4.6583 294.489 4.68123 294.647 4.64681C294.81 4.61431 294.927 4.63533 295.058 4.68696C295.244 4.7577 295.257 4.75007 295.872 4.7711C295.935 4.77301 296.012 4.80168 296.048 4.82654C296.066 4.83992 296.025 4.87818 295.994 4.8973C295.953 4.92025 295.89 4.947 295.831 4.95274C295.162 5.00245 294.489 5.04643 293.82 5.09614C293.753 5.10188 293.68 5.11528 293.631 5.1344C293.576 5.15543 293.509 5.1841 293.509 5.21086C293.509 5.22999 293.599 5.25294 293.662 5.26632C293.861 5.3103 294.096 5.24338 294.29 5.29309C294.421 5.3256 294.53 5.37148 294.661 5.40207C294.715 5.41546 294.801 5.41355 294.869 5.40973C295.095 5.39634 295.316 5.37723 295.542 5.36575C295.605 5.36384 295.677 5.38297 295.736 5.39827C296.17 5.51299 296.17 5.51299 296.545 5.48813C296.694 5.47857 296.852 5.44989 296.992 5.46136C297.128 5.47283 297.245 5.52446 297.367 5.55696C297.62 5.6258 297.86 5.69272 297.878 5.84186C297.887 5.89922 298.036 5.94893 298.185 5.95275C298.33 5.95658 298.483 5.93556 298.632 5.92409C298.985 5.90114 298.985 5.90114 299.441 6.01778C299.568 6.05028 299.703 6.0541 299.866 6.03498C299.929 6.02733 300.006 6.03499 300.074 6.04455C300.295 6.07323 300.295 6.10955 300.151 6.17839C299.947 6.27973 299.965 6.28929 300.535 6.37534C300.752 6.40784 300.919 6.46903 301.1 6.52257C301.393 6.60861 301.389 6.6086 301.195 6.72141C301.149 6.74627 301.109 6.77304 301.063 6.79981C300.932 6.87438 300.828 6.95468 300.557 6.96233C300.259 6.96998 299.961 7.00059 299.663 7.02162C299.374 7.04265 299.297 7.08852 299.324 7.21854C299.355 7.37534 299.414 7.39255 299.934 7.39064C300.083 7.39064 300.214 7.40593 300.327 7.45755C300.273 7.51874 300.173 7.56654 300.029 7.57802C299.658 7.6067 299.283 7.63156 298.913 7.65642C298.614 7.67745 298.316 7.69847 298.018 7.71951C297.833 7.73289 297.715 7.83233 297.765 7.94323C297.792 8.00633 297.815 8.06942 297.837 8.13252C297.887 8.25872 297.982 8.29123 298.285 8.2855C298.361 8.28359 298.434 8.26828 298.506 8.2721C298.8 8.28549 298.94 8.44418 299.292 8.41168C299.586 8.38491 299.893 8.37918 300.182 8.34476C300.449 8.31417 300.598 8.38302 300.783 8.43465C300.847 8.45185 300.914 8.48816 300.969 8.48625C301.344 8.46522 301.719 8.4442 302.085 8.40787C302.256 8.39258 302.36 8.40404 302.496 8.44993C302.821 8.56083 302.83 8.5551 303.314 8.52068C303.666 8.49391 303.671 8.49773 304.122 8.61437C304.249 8.64688 304.385 8.64687 304.547 8.63157C304.76 8.61245 304.981 8.58186 305.202 8.61054C305.27 8.61819 305.356 8.64114 305.379 8.666C305.392 8.68321 305.329 8.72528 305.275 8.73866C304.877 8.83809 304.412 8.82088 303.978 8.86104C303.842 8.87251 303.707 8.83617 303.594 8.78455C303.476 8.73292 303.35 8.7119 303.196 8.72146C302.898 8.74249 302.595 8.75587 302.302 8.78646C302.048 8.81323 301.872 8.76925 301.696 8.70997C301.637 8.69085 301.57 8.65452 301.511 8.65643C300.842 8.69467 300.169 8.73292 299.505 8.78646C299.238 8.80941 299.084 8.74823 298.904 8.6966C298.84 8.67939 298.777 8.64306 298.718 8.64497C298.492 8.65262 298.271 8.67365 298.045 8.68894C297.223 8.74631 296.405 8.80367 295.582 8.85721C295.528 8.86103 295.461 8.82087 295.397 8.80366C295.275 8.76925 295.149 8.73674 295.022 8.70423C294.796 8.71953 294.575 8.73865 294.349 8.75012C294.186 8.75777 294.042 8.78455 294.019 8.85721C294.006 8.90501 294.155 8.94898 294.313 8.94516C294.466 8.94133 294.62 8.91838 294.747 8.94324C295.375 9.06561 295.375 9.06753 295.768 9.04267C296.111 9.01973 296.075 9.0006 296.378 9.10576C296.509 9.15165 296.626 9.17844 296.775 9.16696C297.146 9.14019 297.521 9.11342 297.896 9.09048C297.955 9.08665 298.032 9.10578 298.09 9.12107C298.533 9.2358 298.533 9.23962 298.899 9.21094C299.378 9.17652 299.396 9.16696 299.717 9.2836C299.938 9.3639 300.142 9.30845 300.354 9.30463C300.598 9.3792 300.865 9.44613 301.086 9.53026C301.348 9.62969 301.624 9.61246 301.922 9.58378C302.143 9.56275 302.36 9.5551 302.541 9.6335C302.713 9.70616 302.921 9.71382 303.155 9.6947C303.368 9.67749 303.585 9.64115 303.806 9.68321C303.865 9.69469 303.955 9.72338 303.951 9.74059C303.946 9.76735 303.887 9.8056 303.829 9.81707C303.413 9.89547 302.957 9.89355 302.518 9.92988C302.46 9.93562 302.383 9.91458 302.324 9.89928C302.198 9.86486 302.076 9.82472 301.954 9.78839C301.732 9.79986 301.506 9.80367 301.289 9.82662C301.122 9.84383 300.996 9.84193 300.874 9.79604C300.761 9.75398 300.639 9.70234 300.503 9.68896C300.368 9.67557 300.209 9.70426 300.06 9.71573C299.911 9.7272 299.74 9.72145 299.622 9.75205C299.505 9.78264 299.432 9.84957 299.355 9.90311C299.27 9.96238 299.152 9.98151 298.98 9.98725C298.822 9.99299 298.696 9.98533 298.578 9.93179C298.529 9.90885 298.461 9.89163 298.393 9.87634C298.33 9.86295 298.257 9.84191 298.199 9.84574C297.525 9.88971 296.857 9.93753 296.183 9.98342C295.849 10.0064 295.854 10.0064 295.158 9.89354C295.094 9.88398 295.018 9.8706 294.954 9.87442C294.579 9.89737 294.209 9.92414 293.834 9.95091C293.454 9.97768 293.459 9.97385 292.813 9.85339C292.695 9.83045 292.523 9.86104 292.383 9.85722C292.09 9.84766 291.945 9.68705 291.602 9.71764C291.308 9.74441 291.001 9.75014 290.707 9.78456C290.44 9.81515 290.287 9.74824 290.106 9.69661C290.043 9.6794 289.975 9.64116 289.921 9.64498C289.247 9.68705 288.579 9.73485 287.684 9.74059C287.463 9.74059 287.562 9.78074 287.707 9.79413C287.915 9.81516 287.982 9.77501 287.869 9.69853C287.788 9.64499 287.671 9.6182 287.576 9.63158C287.526 9.63923 287.463 9.67558 287.684 9.74059C287.919 9.81324 287.906 9.85339 287.946 9.87634C288.046 9.93179 288.186 9.95473 288.33 9.94708C288.556 9.9337 288.778 9.91458 289.004 9.90311C289.067 9.89928 289.144 9.91267 289.202 9.92797C289.699 10.0465 289.704 10.0542 290.233 10.0083C290.4 9.9949 290.522 9.99489 290.653 10.0312C290.834 10.0809 290.965 10.1651 291.24 10.1383C291.606 10.102 291.981 10.0809 292.356 10.0599C292.415 10.0561 292.478 10.0905 292.546 10.1058C292.731 10.1517 292.867 10.2377 293.143 10.2014C293.355 10.1727 293.585 10.1651 293.811 10.1593C293.87 10.1574 293.96 10.188 293.987 10.2129C294.042 10.2568 293.974 10.3085 293.82 10.3448C293.757 10.3601 293.671 10.3563 293.599 10.362C293.301 10.383 293.002 10.406 292.704 10.4232C292.546 10.4327 292.397 10.4614 292.379 10.5322C292.365 10.58 292.528 10.622 292.682 10.6182C292.908 10.6125 293.133 10.5972 293.35 10.5723C293.734 10.5303 294.069 10.5417 294.381 10.6622C294.602 10.7463 294.588 10.7157 294.823 10.9643C294.882 11.0274 295.058 11.0331 295.212 11.0293C295.583 11.0198 295.754 11.0485 295.723 11.1077C295.682 11.1804 295.551 11.2033 295.384 11.2129C295.085 11.2282 294.787 11.253 294.489 11.2741C294.417 11.2798 294.335 11.2913 294.268 11.2874C294.2 11.2836 294.137 11.2607 294.078 11.2435C293.951 11.2071 293.843 11.1517 293.707 11.1383C293.572 11.1249 293.414 11.1536 293.265 11.1651C293.115 11.1746 292.957 11.2033 292.822 11.1899C292.686 11.1765 292.573 11.1192 292.451 11.0848C292.392 11.0676 292.32 11.0408 292.261 11.0427C291.963 11.058 291.665 11.0829 291.367 11.102C291.001 11.1268 291.001 11.1268 290.558 11.0083C290.431 10.9739 290.3 10.9758 290.133 10.9911C289.772 11.0217 289.767 11.0159 289.108 10.905C289.044 10.8936 288.967 10.8802 288.904 10.8859C288.231 10.9299 287.562 10.9777 286.893 11.0236C286.32 11.0637 286.32 11.0638 286.003 11.255C285.768 11.3965 285.764 11.3964 285.994 11.4615C286.179 11.515 286.347 11.5934 286.55 11.6221C286.74 11.6488 286.975 11.5628 287.183 11.6507C287.287 11.6947 287.422 11.7425 287.553 11.7502C287.761 11.7597 287.982 11.7043 288.181 11.7884C288.281 11.8305 288.43 11.8745 288.556 11.8764C288.778 11.8802 289.004 11.8496 289.225 11.8362C289.293 11.8324 289.37 11.8324 289.433 11.842C289.501 11.8534 289.559 11.8764 289.618 11.8955C289.799 11.9605 289.993 11.9911 290.228 11.9586C290.612 11.9051 290.956 11.9318 291.254 12.0542C291.294 12.0714 291.394 12.0733 291.457 12.0657C291.62 12.0466 291.76 12.0446 291.882 12.081C291.932 12.0963 292.004 12.123 291.995 12.1402C291.981 12.1689 291.927 12.2072 291.868 12.2167C291.444 12.2817 290.987 12.2894 290.549 12.3238C290.49 12.3276 290.418 12.3028 290.359 12.2855C290.233 12.2511 290.124 12.1938 289.989 12.1804C289.853 12.167 289.695 12.1919 289.546 12.2014C289.397 12.211 289.239 12.2397 289.103 12.2282C288.967 12.2148 288.841 12.167 288.732 12.1249C288.606 12.0771 288.484 12.0714 288.317 12.0905C288.1 12.1154 287.874 12.1192 287.653 12.1326C287.531 12.0963 287.409 12.0561 287.282 12.0217C287.223 12.0045 287.151 11.9834 287.088 11.9854C286.79 12.0007 286.491 12.0236 286.193 12.0446C285.895 12.0657 285.895 12.0657 285.389 11.9471C285.33 11.9337 285.253 11.9184 285.19 11.9223C284.815 11.9452 284.444 11.9739 284.069 11.9968C283.925 12.0064 283.794 11.9796 283.676 11.928C283.563 11.8764 283.428 11.8477 283.288 11.8572C282.691 11.8974 282.095 11.9356 281.498 11.9834C281.259 12.0026 281.055 11.9854 280.893 11.9165C280.703 11.8381 280.491 11.8573 280.269 11.8726C279.768 11.9108 279.763 11.9089 279.442 11.8114C279.379 11.7922 279.316 11.7559 279.257 11.7578C278.738 11.7865 278.213 11.8133 277.698 11.8592C277.427 11.884 277.283 11.8171 277.102 11.7674C277.039 11.7502 276.971 11.7138 276.917 11.7177C276.542 11.7387 276.166 11.7578 275.8 11.7961C275.434 11.8343 275.294 11.6565 275.019 11.6584C274.644 11.6603 274.273 11.7043 273.903 11.7311C273.604 11.7521 273.306 11.7731 273.008 11.7942C272.71 11.8152 272.412 11.8324 272.113 11.8572C271.955 11.8706 271.838 11.8534 271.707 11.8056C271.54 11.7425 271.341 11.6928 271.16 11.6355C270.884 11.5532 270.884 11.5532 270.55 11.5762C270.478 11.5819 270.401 11.5857 270.329 11.5915C269.782 11.6335 269.782 11.6297 269.086 11.5093C269.054 11.5035 268.973 11.5246 268.941 11.5399C268.846 11.5896 268.761 11.6431 268.675 11.6947C268.553 11.6641 268.404 11.6469 268.322 11.6029C268.092 11.4787 267.73 11.6488 267.495 11.5265C267.41 11.4806 267.26 11.4404 267.125 11.4289C266.985 11.4175 266.827 11.4442 266.682 11.4557C266.307 11.4844 266.307 11.4825 265.986 11.6527C265.824 11.7368 265.589 11.7215 265.376 11.7406C265.155 11.7616 264.943 11.7731 264.757 11.6947C264.59 11.624 264.387 11.6068 264.147 11.6297C263.854 11.6584 263.551 11.6756 263.253 11.6928C263.189 11.6966 263.112 11.6871 263.049 11.6756C262.358 11.5628 262.358 11.5609 262.024 11.5857C261.874 11.5972 261.721 11.601 261.576 11.6182C261.332 11.6488 261.147 11.6087 260.971 11.5475C260.912 11.5284 260.844 11.4921 260.785 11.494C260.487 11.5035 260.194 11.5207 259.9 11.5379C259.674 11.5513 259.448 11.559 259.231 11.5857C258.87 11.6297 258.693 11.5054 258.445 11.4481C258.074 11.4729 257.699 11.4901 257.329 11.5245C257.157 11.5398 257.044 11.5341 256.913 11.4882C256.746 11.4309 256.592 11.3659 256.321 11.3945C255.96 11.4328 255.58 11.4462 255.21 11.4691C254.961 11.4098 254.78 11.2894 254.423 11.3333C254.207 11.3601 253.976 11.3658 253.755 11.3811C253.457 11.4022 253.158 11.4213 252.86 11.4443C252.539 11.4672 252.544 11.4615 252.051 11.3486C251.767 11.2817 251.473 11.3563 251.184 11.3678C250.958 11.3773 250.845 11.4653 250.899 11.5781C250.953 11.6909 250.831 11.7789 250.623 11.7942C250.104 11.8305 249.58 11.8687 249.06 11.9012C248.997 11.905 248.92 11.8917 248.861 11.8783C248.305 11.7578 248.305 11.7597 248.057 11.777C247.686 11.8056 247.307 11.8209 246.941 11.8572C246.688 11.8821 246.502 11.842 246.34 11.777C246.213 11.7272 246.096 11.7158 245.933 11.7272C244.144 11.8553 242.354 11.9739 240.57 12.1058C240.303 12.1249 240.15 12.0695 239.969 12.0179C239.906 12.0007 239.847 11.9643 239.783 11.9643C239.634 11.9643 239.485 11.9815 239.336 11.993C238.667 12.0389 237.999 12.0943 237.325 12.1288C237.041 12.1441 236.964 12.232 236.842 12.3047C236.747 12.3601 236.639 12.3831 236.471 12.3907C236.309 12.3984 236.191 12.3888 236.065 12.3391C235.902 12.2741 235.717 12.2339 235.464 12.2607C235.17 12.2913 234.872 12.3047 234.569 12.3257C234.415 12.3353 234.298 12.3697 234.248 12.4385C234.239 12.45 234.334 12.4787 234.388 12.4959C234.569 12.5533 234.741 12.6202 234.944 12.6603C235.152 12.7005 235.378 12.6546 235.595 12.6431C235.672 12.6393 235.744 12.6278 235.816 12.6297C235.884 12.6316 235.965 12.6412 236.015 12.6584C236.25 12.7445 236.498 12.8037 236.824 12.7521C237.104 12.777 237.249 12.9357 237.606 12.8936C237.823 12.8687 238.048 12.8573 238.274 12.8477C238.333 12.8458 238.396 12.8802 238.46 12.8974C238.64 12.9452 238.785 13.0217 239.056 12.9892C239.345 12.9548 239.652 12.9491 239.946 12.9223C240.109 12.907 240.226 12.9204 240.353 12.9701C240.515 13.0332 240.701 13.081 240.954 13.0504C241.171 13.0236 241.401 13.0179 241.623 13.0007C241.912 12.9796 241.912 12.9815 242.427 13.1001C242.486 13.1135 242.562 13.1288 242.626 13.125C243.001 13.102 243.371 13.0733 243.746 13.0504C243.891 13.0408 244.031 13.0657 244.13 13.1211C244.171 13.1441 244.157 13.1823 244.171 13.2148C243.425 13.2665 242.68 13.3104 241.939 13.3735C241.659 13.3984 241.532 13.32 241.347 13.276C241.284 13.2607 241.216 13.2282 241.157 13.232C240.633 13.2645 240.113 13.299 239.594 13.341C239.431 13.3544 239.309 13.3468 239.187 13.2913C238.875 13.1441 238.496 13.2244 238.143 13.2454C237.872 13.2607 237.786 13.32 237.818 13.4462C237.859 13.5953 238.021 13.6412 238.437 13.6145C238.586 13.6049 238.735 13.5915 238.884 13.5839C239.029 13.5762 239.16 13.6011 239.277 13.6527C239.39 13.7043 239.526 13.7311 239.666 13.7234C239.964 13.7062 240.267 13.689 240.556 13.6603C240.796 13.6374 240.994 13.6565 241.162 13.7273C241.347 13.8057 241.564 13.7884 241.781 13.7712C242.287 13.733 242.291 13.7349 242.608 13.8305C242.671 13.8496 242.734 13.886 242.793 13.8841C243.312 13.8554 243.837 13.8305 244.347 13.7846C244.614 13.7617 244.767 13.8229 244.944 13.8726C245.007 13.8898 245.07 13.928 245.129 13.9242C245.504 13.9032 245.879 13.8821 246.245 13.8458C246.417 13.8286 246.521 13.8401 246.661 13.886C246.995 13.9988 247.004 13.9949 247.478 13.9586C247.623 13.9471 247.781 13.9261 247.917 13.9414C248.052 13.9567 248.161 14.0122 248.287 14.0466C248.346 14.0619 248.418 14.0829 248.482 14.0791C248.78 14.0638 249.078 14.0408 249.376 14.0198C249.656 13.9988 249.656 14.0007 250.181 14.1192C250.393 14.169 250.614 14.1269 250.827 14.1116C251.057 14.0944 251.265 14.0944 251.441 14.169C251.617 14.2435 251.83 14.2397 252.056 14.2244C252.268 14.2091 252.485 14.1671 252.702 14.2187C253.199 14.3372 253.199 14.3391 253.506 14.3162C253.954 14.2837 254.396 14.2531 254.848 14.2244C254.907 14.2206 254.984 14.2435 255.042 14.2588C255.169 14.2932 255.277 14.3506 255.413 14.364C255.549 14.3793 255.707 14.3563 255.851 14.3449C256.317 14.3085 256.348 14.2951 256.66 14.4213C256.922 14.5246 257.248 14.3755 257.492 14.494C257.632 14.5609 257.821 14.6145 258.083 14.582C258.3 14.5552 258.526 14.5475 258.752 14.5322C259.109 14.5074 259.109 14.5093 259.561 14.624C259.62 14.6393 259.696 14.6584 259.755 14.6546C260.053 14.6393 260.356 14.6259 260.645 14.5915C260.984 14.5514 261.201 14.624 261.454 14.6948C261.653 14.7502 261.888 14.7043 262.1 14.6852C262.331 14.6661 262.539 14.6718 262.71 14.7464C262.891 14.8229 263.104 14.8133 263.329 14.798C263.542 14.7846 263.759 14.7407 263.976 14.7942C264.441 14.9127 264.441 14.9127 264.78 14.8898C265.078 14.8688 265.376 14.8458 265.674 14.8305C265.733 14.8267 265.806 14.8516 265.864 14.8688C265.991 14.9032 266.099 14.9606 266.235 14.9739C266.37 14.9873 266.529 14.9625 266.678 14.9529C266.827 14.9433 266.985 14.9147 267.12 14.9261C267.256 14.9376 267.383 14.9854 267.491 15.0275C267.617 15.0772 267.735 15.0829 267.907 15.0638C268.124 15.0389 268.349 15.0332 268.571 15.0198C268.693 15.0562 268.819 15.0925 268.937 15.1326C269.059 15.1747 269.19 15.1709 269.357 15.1575C269.913 15.1116 269.917 15.1173 270.383 15.2359C270.595 15.2894 270.817 15.2454 271.029 15.2321C271.255 15.2168 271.467 15.2091 271.643 15.2856C271.815 15.3583 272.028 15.3678 272.253 15.3449C272.398 15.3296 272.552 15.32 272.701 15.3143C272.769 15.3124 272.85 15.32 272.9 15.3353C273.139 15.4156 273.374 15.4883 273.704 15.4367C273.993 15.452 274.138 15.6088 274.486 15.5782C274.779 15.5514 275.087 15.5456 275.376 15.5112C275.642 15.4806 275.832 15.5342 275.968 15.6011C276.212 15.7197 276.555 15.559 276.799 15.6757C276.939 15.7426 277.12 15.7961 277.391 15.7675C277.689 15.7369 277.784 15.777 277.87 15.8975C277.92 15.9663 277.911 16.0218 277.82 16.0753C277.73 16.1307 277.631 16.1212 277.486 16.0581C277.319 15.9873 277.12 15.9739 276.88 15.9892C276.645 16.0045 276.501 15.9051 276.307 15.8669C276.112 15.8267 275.882 15.8937 275.679 15.842C275.2 15.7216 275.2 15.7216 274.874 15.7445C274.653 15.7598 274.422 15.7675 274.206 15.7942C273.948 15.8267 273.781 15.7674 273.605 15.7139C273.541 15.6948 273.478 15.6585 273.424 15.6604C272.904 15.689 272.38 15.7158 271.865 15.7636C271.594 15.7885 271.449 15.7197 271.268 15.6718C271.205 15.6546 271.137 15.6202 271.083 15.624C270.636 15.6508 270.193 15.6852 269.746 15.7177C269.66 15.7694 269.565 15.8191 269.484 15.8745C269.398 15.9319 269.28 15.9567 269.109 15.9548C268.824 15.9548 268.544 16.0351 268.259 15.9338C267.965 15.8306 267.943 15.8363 267.658 15.8611C267.297 15.8936 266.913 15.886 266.574 15.9606C266.515 15.974 266.452 16.0103 266.452 16.037C266.447 16.0542 266.542 16.0791 266.601 16.0944C266.8 16.1403 267.03 16.0734 267.229 16.1212C267.36 16.1518 267.468 16.1977 267.599 16.2302C267.654 16.2435 267.735 16.2416 267.807 16.2397C267.884 16.2378 267.956 16.2244 268.029 16.2264C268.096 16.2283 268.169 16.2397 268.223 16.2569C268.472 16.3296 268.734 16.3965 268.955 16.4826C269.172 16.5667 269.375 16.5093 269.592 16.5055C270.46 16.6394 270.46 16.6413 271.043 16.5992C271.187 16.5896 271.336 16.5782 271.485 16.5801C271.549 16.5801 271.607 16.6145 271.671 16.6336C271.851 16.691 272.023 16.7426 272.276 16.712C272.493 16.6852 272.723 16.6795 272.945 16.6623C273.243 16.6413 273.243 16.6413 273.749 16.7617C273.876 16.7923 274.011 16.7885 274.174 16.7732C274.314 16.7598 274.458 16.7885 274.558 16.844C274.599 16.8669 274.585 16.9051 274.599 16.9376C274.151 16.9682 273.699 16.9893 273.266 17.0352C272.985 17.0638 272.859 16.9816 272.674 16.9376C272.61 16.9223 272.543 16.8898 272.484 16.8937C272.041 16.9223 271.598 16.9548 271.156 16.9931C271.101 16.9969 271.034 17.0409 271.029 17.0677C271.02 17.1174 271.133 17.1652 271.296 17.1633C271.512 17.1613 271.725 17.1288 271.919 17.2072C272.082 17.2761 272.285 17.3067 272.525 17.2761C272.669 17.2589 272.823 17.2589 272.967 17.2436C273.352 17.1977 273.699 17.2072 273.989 17.3373C274.21 17.3717 274.427 17.3392 274.639 17.322C274.797 17.3086 274.951 17.2952 275.064 17.3315C275.303 17.408 275.538 17.4845 275.868 17.4329C276.225 17.4864 276.496 17.5992 276.795 17.691C276.935 17.735 277.043 17.7598 277.206 17.7312C277.274 17.7197 277.355 17.7197 277.427 17.7139C277.576 17.7044 277.734 17.6757 277.87 17.6872C278.005 17.7005 278.118 17.756 278.241 17.7904C278.299 17.8076 278.367 17.8363 278.426 17.8344C278.652 17.8248 278.873 17.8057 279.094 17.7904C279.316 17.777 279.537 17.7637 279.759 17.7503C279.944 17.8 280.134 17.8497 280.319 17.8994C280.617 17.8784 280.915 17.8573 281.209 17.8382C281.539 17.8153 281.539 17.8172 282.013 17.9357C282.226 17.9893 282.452 17.9549 282.655 17.93C282.994 17.8898 283.22 17.9625 283.459 18.039C283.509 18.0543 283.599 18.0639 283.658 18.0562C283.893 18.0294 284.096 18.0505 284.268 18.1212C284.39 18.1709 284.512 18.1939 284.661 18.1843C285.181 18.148 285.701 18.1097 286.22 18.0772C286.283 18.0734 286.356 18.0906 286.414 18.1059C286.875 18.2226 286.88 18.2283 287.219 18.1977C287.521 18.1709 287.802 18.1594 288.041 18.2646C288.091 18.2876 288.168 18.3201 288.222 18.3182C288.592 18.299 288.967 18.278 289.333 18.2455C289.501 18.2302 289.618 18.2359 289.749 18.2799C289.916 18.3354 290.065 18.4023 290.341 18.3774C291.105 18.3067 291.109 18.3181 292.013 18.4501C292.076 18.4596 292.162 18.4444 292.234 18.4367C292.388 18.4176 292.501 18.4444 292.636 18.4883C292.939 18.5878 292.948 18.582 293.237 18.561C293.459 18.5438 293.689 18.54 293.906 18.5113C294.24 18.4692 294.462 18.5438 294.71 18.6145C294.909 18.67 295.14 18.6241 295.352 18.6069C295.582 18.5878 295.79 18.5935 295.962 18.6661C296.08 18.7159 296.206 18.7426 296.355 18.7331C296.875 18.6987 297.394 18.6604 297.914 18.626C297.977 18.6222 298.054 18.6375 298.113 18.6509C298.628 18.7694 298.628 18.7751 299.139 18.7312C299.301 18.7178 299.437 18.714 299.559 18.7541C299.676 18.7924 299.803 18.8287 299.925 18.865C300.146 18.8516 300.372 18.8478 300.589 18.8249C300.756 18.8077 300.874 18.8153 301.005 18.8555C301.176 18.9071 301.321 18.9969 301.592 18.953C301.732 18.9319 301.895 18.9377 302.035 18.9186C302.202 18.8937 302.315 18.909 302.446 18.9587C302.609 19.018 302.776 19.0792 303.038 19.0486C303.327 19.0141 303.634 19.0084 303.928 18.9816C304.091 18.9663 304.204 18.9816 304.335 19.0314C304.498 19.0945 304.683 19.1346 304.936 19.1098C305.451 19.062 305.455 19.0715 305.957 19.192C306.083 19.2226 306.219 19.2187 306.382 19.2034C306.522 19.1901 306.666 19.2187 306.766 19.2742C306.861 19.3354 306.852 19.3736 306.861 19.4061ZM266.596 2.16111C266.447 2.17067 266.298 2.18214 266.081 2.01579C266.068 1.98711 266.077 1.9527 266.045 1.92784C265.973 1.87622 265.86 1.83989 265.724 1.83415C265.48 1.82651 265.186 1.8915 265.191 1.94122C265.196 1.98328 265.272 2.01961 265.421 2.05402C265.485 2.06741 265.534 2.09036 265.593 2.10565C265.765 2.14963 265.9 2.23569 266.149 2.19171C266.104 2.07316 266.126 2.13244 266.149 2.19171C266.126 2.26437 266.194 2.316 266.357 2.33703C266.402 2.34277 266.47 2.33893 266.506 2.32746C266.646 2.2854 266.669 2.22805 266.565 2.07699C266.547 2.10185 266.56 2.14581 266.601 2.15728C266.641 2.16876 266.741 2.15921 266.791 2.14582C266.917 2.10949 266.98 2.06169 266.949 2.02153C266.931 2.0005 266.845 1.97373 266.791 1.97373C266.696 1.97373 266.61 2.01579 266.596 2.16111ZM303.133 24.3355C302.803 24.3718 302.424 24.3584 302.094 24.433C302.035 24.4464 301.976 24.4808 301.972 24.5075C301.967 24.5248 302.058 24.5496 302.112 24.563C302.234 24.5936 302.369 24.584 302.527 24.5745C302.767 24.5611 302.907 24.649 303.092 24.693C303.151 24.7064 303.228 24.716 303.291 24.7121C303.657 24.6892 304.018 24.6643 304.384 24.6376C304.448 24.6318 304.516 24.6184 304.57 24.6012C304.751 24.5458 304.732 24.5095 304.556 24.4674C304.362 24.4215 304.208 24.345 304.01 24.3087C303.725 24.2571 303.436 24.3259 303.133 24.3355ZM277.472 25.7313C277.251 25.7466 277.034 25.7619 276.813 25.7772C276.74 25.7829 276.663 25.7848 276.596 25.7925C276.456 25.8058 276.352 25.846 276.284 25.9091C276.388 25.9588 276.514 25.9875 276.655 25.9818C276.876 25.9703 277.093 25.9454 277.314 25.9397C277.554 25.932 277.694 26.0181 277.879 26.0621C277.938 26.0755 278.01 26.0774 278.078 26.0793C278.412 26.0869 278.616 25.9875 278.552 25.8479C278.507 25.7389 278.335 25.6739 278.128 25.6873C277.911 25.7007 277.689 25.716 277.472 25.7313ZM304.678 21.5094C304.732 21.4769 304.791 21.454 304.818 21.4253C304.9 21.3278 304.868 21.2551 304.719 21.1786C304.538 21.0849 304.317 21.148 304.113 21.1576C304.064 21.1595 304.01 21.1996 303.982 21.2245C303.964 21.2417 303.964 21.2781 303.991 21.2876C304.213 21.3641 304.448 21.4348 304.678 21.5094ZM265.48 15.8611C265.263 15.8764 265.042 15.8879 264.825 15.9089C264.771 15.9147 264.721 15.951 264.69 15.9759C264.631 16.0218 264.694 16.0848 264.879 16.0906C265.092 16.0982 265.313 16.0657 265.534 16.0504C265.815 16.0313 265.982 15.9606 265.878 15.8994C265.778 15.8401 265.643 15.8286 265.48 15.8611ZM27.6306 11.775C27.7752 11.7655 27.9243 11.7578 28.0689 11.7444C28.2044 11.7311 28.3085 11.689 28.3762 11.6259C28.2633 11.5762 28.1367 11.5494 27.9966 11.5551C27.7752 11.5666 27.5584 11.5819 27.3415 11.601C27.2059 11.6125 27.0749 11.6546 27.0433 11.7196C27.0117 11.7693 27.3143 11.798 27.6306 11.775ZM246.371 11.4806C246.43 11.4978 246.489 11.5322 246.548 11.5322C246.692 11.5322 246.841 11.5207 246.977 11.5016C247.036 11.494 247.081 11.4595 247.108 11.4328C247.126 11.4156 247.122 11.385 247.094 11.3697C246.963 11.2779 246.439 11.3104 246.353 11.4156C246.344 11.4347 246.367 11.4595 246.371 11.4806ZM232.116 1.01004C232.129 1.04063 232.134 1.07122 232.152 1.10181C232.188 1.15918 232.287 1.20125 232.432 1.22993C232.545 1.18213 232.604 1.1286 232.599 1.07124C232.595 1.04064 232.581 1.01003 232.563 0.979439C232.527 0.922076 232.427 0.880026 232.283 0.851345C232.17 0.897234 232.116 0.950764 232.116 1.01004ZM315.12 26.064C315.08 26.0888 315.039 26.1137 314.994 26.1366C315.116 26.1921 315.229 26.2093 315.315 26.1787C315.369 26.1596 315.401 26.1309 315.441 26.106C315.319 26.0506 315.211 26.0353 315.12 26.064ZM312.31 26.324C312.369 26.3412 312.423 26.3642 312.486 26.3756C312.59 26.3948 312.685 26.3623 312.757 26.2934C312.699 26.2762 312.644 26.2533 312.581 26.2418C312.477 26.2227 312.382 26.2552 312.31 26.324ZM314.09 25.9741C314.059 26.02 314.122 26.0582 314.289 26.0908C314.33 26.0659 314.384 26.0429 314.411 26.0162C314.456 25.9722 314.379 25.9321 314.217 25.9015C314.172 25.9244 314.131 25.9493 314.09 25.9741ZM304.552 23.9129C304.52 23.9588 304.583 23.997 304.751 24.0295C304.791 24.0047 304.845 23.9817 304.873 23.955C304.918 23.911 304.841 23.8708 304.678 23.8402C304.633 23.8632 304.592 23.888 304.552 23.9129ZM291.557 10.383C291.516 10.4079 291.475 10.4328 291.43 10.4557C291.552 10.5112 291.665 10.5284 291.751 10.4978C291.805 10.4786 291.837 10.45 291.877 10.4251C291.755 10.3696 291.647 10.3544 291.557 10.383ZM279.108 3.2051C279.216 3.21848 279.307 3.19173 279.384 3.12098C279.325 3.10377 279.271 3.08082 279.207 3.06935C279.103 3.05023 279.009 3.08274 278.936 3.15158C278.995 3.1707 279.054 3.18789 279.108 3.2051ZM272.497 2.75577C272.457 2.78062 272.416 2.80548 272.371 2.82842C272.493 2.88388 272.606 2.90108 272.692 2.87049C272.746 2.85136 272.778 2.82268 272.818 2.79783C272.696 2.74237 272.588 2.729 272.497 2.75577ZM227.669 1.00812C227.629 1.03298 227.588 1.05784 227.543 1.08078C227.665 1.13623 227.778 1.15344 227.864 1.12284C227.918 1.10372 227.95 1.07504 227.99 1.05018C227.868 0.994734 227.76 0.981355 227.669 1.00812ZM4.45971 16.5648C4.40097 16.5476 4.34228 16.5304 4.28806 16.5113C4.15702 16.5629 4.11637 16.6107 4.18866 16.647C4.23385 16.6699 4.30157 16.6833 4.36031 16.7005C4.49587 16.6489 4.52748 16.603 4.45971 16.5648Z" fill="#FFE492"/>
</svg>
