<svg width="315" height="25" viewBox="0 0 315 25" fill="none" xmlns="http://www.w3.org/2000/svg">
<path d="M293.764 12.8376C293.336 12.8577 292.903 12.8714 292.484 12.9015C292.211 12.9203 292.095 12.8652 291.913 12.8364C291.852 12.8264 291.787 12.8063 291.731 12.8088C291.307 12.8288 290.883 12.8514 290.459 12.874C290.33 12.9228 290.247 12.988 290.048 13.0118C289.854 13.0343 289.625 13.0343 289.408 13.0456C289.123 13.0594 288.837 13.0732 288.552 13.0857C288.409 13.092 288.292 13.1158 288.245 13.1609C288.236 13.1684 288.331 13.1872 288.383 13.1985C288.556 13.2361 288.725 13.2787 288.915 13.3075C289.097 13.335 289.322 13.2899 289.516 13.325C289.953 13.404 289.958 13.4027 290.291 13.3877C290.576 13.3739 290.862 13.3589 291.147 13.3488C291.203 13.3463 291.268 13.3651 291.329 13.3751C291.51 13.4027 291.627 13.4654 291.896 13.4415C292.099 13.4228 292.324 13.419 292.536 13.409C292.713 13.4453 292.877 13.4867 293.068 13.5155C293.245 13.543 293.297 13.5643 293.202 13.6007C293.115 13.6345 292.994 13.6483 292.834 13.6508C292.691 13.6521 292.549 13.6633 292.406 13.6696C292.332 13.6733 292.263 13.6759 292.194 13.6796C291.921 13.6934 291.921 13.6934 291.424 13.6132C291.229 13.5819 291.009 13.6257 290.823 13.5957C290.697 13.5756 290.589 13.5455 290.468 13.5242C290.416 13.5155 290.334 13.5142 290.269 13.5167C290.053 13.5255 289.836 13.5318 289.629 13.548C289.482 13.5593 289.395 13.5944 289.413 13.6295C289.417 13.6433 289.521 13.6633 289.581 13.6646C289.72 13.6671 289.867 13.6495 290.001 13.6583C290.131 13.6671 290.265 13.6921 290.36 13.7197C290.555 13.7773 290.775 13.726 290.961 13.741C291.156 13.7573 291.316 13.8074 291.502 13.8375C291.549 13.845 291.64 13.8325 291.714 13.8287C291.926 13.8199 292.138 13.8124 292.35 13.8037C292.527 13.84 292.717 13.8726 292.877 13.9139C293.167 13.9891 293.479 14.0179 293.855 13.9816C294.067 13.9615 294.275 13.969 294.443 14.0179C294.616 14.068 294.815 14.063 295.036 14.053C295.239 14.043 295.447 14.0154 295.654 14.0505C296.104 14.1282 296.109 14.1319 296.641 14.1019C296.801 14.0931 296.922 14.0906 297.043 14.1194C297.155 14.1457 297.277 14.1683 297.393 14.1933C297.605 14.1845 297.822 14.1758 298.034 14.1658C298.306 14.152 298.457 14.1695 298.522 14.2397C298.561 14.2823 298.579 14.3211 298.674 14.3499C298.786 14.385 298.907 14.3838 299.072 14.3737C299.227 14.365 299.34 14.3512 299.405 14.3061C299.431 14.2873 299.483 14.2697 299.53 14.2547C299.569 14.2434 299.63 14.2259 299.664 14.2284C299.729 14.2334 299.816 14.2472 299.837 14.2635C300.049 14.4151 300.049 14.4163 300.266 14.4602C300.504 14.5091 300.75 14.5529 300.966 14.608C301.161 14.6569 301.356 14.6356 301.568 14.6356C301.728 14.6356 301.832 14.6682 301.819 14.7008C301.81 14.7196 301.749 14.7471 301.697 14.7496C301.273 14.7747 300.845 14.796 300.417 14.8135C300.365 14.816 300.3 14.7935 300.24 14.7822C300.119 14.7596 300.01 14.7246 299.881 14.717C299.751 14.7095 299.599 14.7283 299.457 14.7346C299.314 14.7409 299.163 14.7572 299.033 14.7471C298.903 14.7371 298.799 14.7008 298.678 14.677C298.622 14.6657 298.544 14.6494 298.496 14.6532C298.181 14.6832 297.947 14.6419 297.722 14.5867C297.675 14.5755 297.592 14.568 297.532 14.5705C297.03 14.5918 296.533 14.6168 296.031 14.6406C295.828 14.6506 295.663 14.6068 295.62 14.5329C295.598 14.4915 295.555 14.4502 295.555 14.4088C295.555 14.3336 295.317 14.2923 295.144 14.3011C294.859 14.3136 294.569 14.3236 294.288 14.3424C294.058 14.3574 293.864 14.3424 293.708 14.2973C293.526 14.2459 293.319 14.256 293.111 14.2697C292.955 14.2798 292.912 14.3211 292.921 14.4251C292.929 14.5091 292.856 14.5354 292.575 14.5492C292.22 14.5667 291.861 14.5842 291.502 14.598C291.446 14.6005 291.381 14.5792 291.324 14.568C291.203 14.5454 291.095 14.5091 290.965 14.5015C290.836 14.4928 290.684 14.5116 290.542 14.5191C290.399 14.5253 290.247 14.5429 290.118 14.5341C289.988 14.5253 289.88 14.4878 289.763 14.464C289.707 14.4527 289.637 14.4364 289.581 14.4389C289.296 14.4489 289.01 14.464 288.725 14.4777C288.405 14.4928 288.405 14.4928 287.95 14.4151C287.743 14.38 287.535 14.4076 287.332 14.4176C287.116 14.4276 286.912 14.4326 286.744 14.3825C286.631 14.3499 286.506 14.3299 286.372 14.3362C286.013 14.3512 285.658 14.37 285.299 14.385C285.238 14.3875 285.156 14.3813 285.109 14.37C284.879 14.3174 284.654 14.276 284.334 14.3023C284.057 14.3249 283.759 14.3261 283.482 14.3474C283.331 14.3587 283.261 14.3988 283.292 14.4301C283.309 14.4464 283.4 14.4652 283.46 14.4652C283.599 14.4665 283.75 14.4477 283.88 14.4552C284.148 14.4702 284.282 14.5755 284.633 14.5466C284.84 14.5291 285.057 14.5228 285.273 14.5178C285.329 14.5166 285.39 14.5404 285.45 14.5529C285.623 14.5867 285.775 14.6306 286.026 14.608C286.233 14.5905 286.454 14.5855 286.666 14.5755C287.003 14.5592 287.003 14.5604 287.44 14.6369C287.648 14.6732 287.855 14.6444 288.059 14.6356C288.21 14.6294 288.353 14.6168 288.474 14.6344C288.66 14.6607 288.794 14.7208 289.023 14.717C289.24 14.7133 289.451 14.6957 289.668 14.6895C289.802 14.6857 289.927 14.7058 290.035 14.7396C290.148 14.7734 290.269 14.7885 290.416 14.7809C290.628 14.7709 290.844 14.7584 291.061 14.7521C291.121 14.7509 291.19 14.7622 291.247 14.7722C291.368 14.7947 291.484 14.821 291.601 14.8448C291.813 14.8373 292.03 14.8348 292.237 14.8198C292.397 14.8085 292.51 14.8135 292.639 14.8386C292.804 14.8724 292.938 14.9326 293.206 14.9037C293.34 14.89 293.496 14.8937 293.63 14.8812C293.794 14.8649 293.907 14.8712 294.024 14.9088C294.244 14.9802 294.521 14.9814 294.807 14.9539C295.118 14.9238 295.352 14.9589 295.585 15.014C295.832 15.0716 295.832 15.0704 296.022 15.2095C296.078 15.2496 296.238 15.2684 296.372 15.2608C296.597 15.2483 296.792 15.2546 296.957 15.3022C297.13 15.3536 297.337 15.3473 297.549 15.3335C297.83 15.3147 298.111 15.2984 298.341 15.3711C298.453 15.4062 298.574 15.4149 298.726 15.4062C299.154 15.3836 299.587 15.3698 300.006 15.3423C300.261 15.3247 300.408 15.3648 300.581 15.3987C300.815 15.445 301.07 15.4864 301.07 15.5853C301.07 15.6016 301.131 15.6204 301.183 15.633C301.295 15.6593 301.416 15.6818 301.533 15.7069C301.706 15.7445 301.875 15.7758 302.113 15.7557C302.32 15.7395 302.541 15.7344 302.753 15.7232C302.965 15.7119 303.16 15.7056 303.35 15.7532C303.57 15.8071 303.804 15.8585 304.055 15.8986C304.232 15.9274 304.466 15.8785 304.656 15.9174C304.773 15.9412 304.885 15.9687 305.011 15.9888C305.063 15.9976 305.145 15.9913 305.214 15.9888C305.357 15.9838 305.504 15.98 305.642 15.9675C305.803 15.9537 305.924 15.9562 306.045 15.985C306.157 16.0114 306.27 16.0477 306.399 16.0552C306.594 16.0665 306.81 16.0164 307.005 16.074C307.104 16.1028 307.23 16.1304 307.36 16.1392C307.49 16.1479 307.641 16.1291 307.779 16.1304C307.84 16.1304 307.913 16.1504 307.948 16.1667C307.97 16.1755 307.939 16.1993 307.909 16.2118C307.87 16.2269 307.814 16.2469 307.758 16.2494C307.329 16.272 306.901 16.2908 306.473 16.3121C306.218 16.3246 306.218 16.3246 305.703 16.2457C305.582 16.2269 305.448 16.2306 305.296 16.2394C305.093 16.2507 304.885 16.272 304.674 16.2494C304.397 16.1642 304.055 16.1567 303.692 16.1893C303.54 16.203 303.402 16.2031 303.289 16.1792C303.051 16.1316 302.8 16.0878 302.589 16.0314C302.424 15.9876 302.346 15.9838 302.277 16.0439C302.255 16.0627 302.234 16.0828 302.238 16.1003C302.264 16.163 302.312 16.2244 302.338 16.287C302.346 16.3045 302.312 16.3246 302.29 16.3434C302.221 16.396 302.13 16.3922 301.979 16.3484C301.827 16.3045 301.646 16.2757 301.403 16.2958C301.196 16.3133 300.971 16.3108 300.763 16.3296C300.443 16.3572 300.218 16.3171 299.989 16.2632C299.941 16.2519 299.859 16.2457 299.798 16.2482C299.154 16.277 298.514 16.3096 297.869 16.3384C297.731 16.3446 297.605 16.3258 297.497 16.292C297.385 16.2582 297.259 16.2406 297.121 16.2469C296.55 16.2732 295.979 16.297 295.408 16.3296C295.174 16.3434 294.988 16.3271 294.828 16.2832C294.707 16.2507 294.595 16.2406 294.443 16.2444C294.279 16.2482 294.162 16.2607 294.08 16.297C294.002 16.3321 294.058 16.3534 294.231 16.381C294.417 16.411 294.59 16.4499 294.768 16.485C294.91 16.48 295.053 16.4699 295.192 16.4712C295.252 16.4712 295.308 16.4937 295.369 16.5063C295.542 16.5426 295.702 16.5789 295.949 16.5589C296.156 16.5414 296.377 16.5376 296.589 16.5263C296.883 16.5125 296.883 16.5125 297.359 16.5915C297.48 16.6115 297.61 16.6103 297.765 16.599C297.899 16.5902 298.038 16.6078 298.133 16.6453C298.172 16.6604 298.159 16.6854 298.077 16.7681C298.077 16.8295 298.168 16.802 298.198 16.7619C298.246 16.7042 298.155 16.6854 297.982 16.7168C297.861 16.7393 297.8 16.7719 297.83 16.7982C297.848 16.812 297.93 16.8295 298.077 16.7681C298.458 16.693 298.747 16.6842 299.024 16.6641C299.189 16.6529 299.292 16.6579 299.422 16.6904C299.578 16.7293 299.734 16.7706 299.989 16.7506C300.266 16.728 300.56 16.7255 300.841 16.7067C301.1 16.6892 301.235 16.7443 301.399 16.7769C301.598 16.8158 301.819 16.7719 302 16.7945C302.191 16.817 302.325 16.8721 302.545 16.8822C302.865 16.8483 303.069 16.911 303.311 16.9523C303.501 16.9836 303.726 16.9561 303.929 16.9423C304.159 16.9273 304.349 16.941 304.509 16.9862C304.691 17.0375 304.894 17.0262 305.102 17.015C305.586 16.9899 305.603 16.9861 305.885 17.0551C306.088 17.1052 306.283 17.0826 306.486 17.0764C306.663 17.1102 306.836 17.1465 307.022 17.1766C307.07 17.1841 307.161 17.1716 307.234 17.1678C307.446 17.1578 307.663 17.1478 307.874 17.1378C308.017 17.1315 308.169 17.1127 308.298 17.1202C308.428 17.129 308.536 17.1653 308.653 17.1891C308.77 17.2129 308.891 17.2367 309.004 17.2618C309.177 17.2994 309.341 17.3307 309.583 17.3119C309.791 17.2956 310.007 17.2906 310.223 17.2793C310.496 17.2656 310.487 17.2693 310.993 17.3445C311.266 17.3858 311.547 17.3357 311.824 17.3307C311.962 17.3282 312.096 17.342 312.191 17.3783C312.23 17.3934 312.217 17.4184 312.23 17.4397C311.517 17.4736 310.799 17.5024 310.093 17.5437C309.821 17.56 309.678 17.5149 309.531 17.4773C309.289 17.4172 308.969 17.5049 308.74 17.4272C308.601 17.3808 308.402 17.3545 308.164 17.3771C308.026 17.3896 307.879 17.3883 307.736 17.3996C307.373 17.4272 307.04 17.4284 306.75 17.342C306.65 17.3119 306.508 17.2956 306.404 17.2668C306.283 17.2355 306.166 17.2179 306.023 17.2242C305.379 17.2543 304.738 17.2843 304.098 17.3169C304.042 17.3194 303.986 17.3382 303.938 17.352C303.817 17.3871 303.856 17.4147 304.051 17.4372C304.115 17.4447 304.167 17.461 304.228 17.4735C304.345 17.4973 304.453 17.5349 304.583 17.5437C304.712 17.5525 304.864 17.5349 305.007 17.5287C305.149 17.5224 305.301 17.5036 305.431 17.5111C305.56 17.5199 305.668 17.5562 305.789 17.5788C305.846 17.5901 305.915 17.6089 305.971 17.6076C306.257 17.6001 306.538 17.5863 306.823 17.575C307.001 17.6089 307.152 17.6577 307.364 17.669C307.498 17.6765 307.641 17.6627 307.779 17.6652C307.84 17.6665 307.918 17.6853 307.948 17.7016C307.965 17.7116 307.909 17.7367 307.866 17.7492C307.701 17.7968 307.477 17.788 307.273 17.8031C307.053 17.8194 306.854 17.8144 306.685 17.7655C306.572 17.7329 306.447 17.7154 306.309 17.7216C305.949 17.7379 305.595 17.7567 305.236 17.7705C305.175 17.773 305.102 17.7617 305.045 17.753C304.591 17.6765 304.591 17.674 304.271 17.6903C303.8 17.7141 303.8 17.7141 303.484 17.6477C303.423 17.6352 303.358 17.6114 303.307 17.6126C302.805 17.6327 302.307 17.6527 301.81 17.6815C301.646 17.6903 301.533 17.6903 301.412 17.6577C301.308 17.6302 301.187 17.5988 301.057 17.5913C300.923 17.5838 300.776 17.6026 300.633 17.6089C300.491 17.6151 300.339 17.6314 300.214 17.6214C300.084 17.6114 299.971 17.5763 299.859 17.5512C299.742 17.5249 299.617 17.5262 299.457 17.5362C298.964 17.565 298.959 17.5613 298.47 17.4836C298.414 17.4748 298.341 17.4648 298.28 17.4673C297.921 17.4823 297.566 17.5011 297.207 17.5162C297.069 17.5224 296.935 17.5061 296.84 17.4698C296.801 17.4548 296.814 17.4297 296.788 17.3808C296.758 17.3695 296.792 17.3896 296.801 17.4084C296.866 17.4059 296.944 17.4084 296.991 17.3984C297.112 17.3746 297.173 17.3432 297.142 17.3169C297.125 17.3031 297.043 17.2856 296.991 17.2856C296.896 17.2856 296.814 17.3132 296.788 17.3808C296.515 17.4222 296.225 17.431 295.944 17.451C295.78 17.4635 295.676 17.4573 295.546 17.4247C295.391 17.3846 295.231 17.3457 294.975 17.3658C294.698 17.3883 294.404 17.3921 294.119 17.4097C293.79 17.4297 293.647 17.3169 293.371 17.3194C293.085 17.3219 292.8 17.3432 292.514 17.3583C292.263 17.3708 292.263 17.3708 291.744 17.2894C291.554 17.2593 291.329 17.3031 291.143 17.2718C291.017 17.2518 290.909 17.2217 290.788 17.2004C290.736 17.1916 290.654 17.1916 290.589 17.1941C290.23 17.2092 289.867 17.2192 289.521 17.2468C289.127 17.2793 288.829 17.2443 288.547 17.1703C288.193 17.1841 287.834 17.1916 287.483 17.2154C287.228 17.233 287.081 17.1916 286.908 17.1578C286.847 17.1465 286.796 17.1277 286.731 17.1227C286.666 17.1177 286.588 17.1277 286.519 17.1315C286.233 17.1453 285.939 17.1515 285.662 17.1741C285.32 17.2029 285.191 17.1002 284.927 17.0876C284.749 17.149 284.654 17.233 284.304 17.2392C284.018 17.2443 283.733 17.2643 283.447 17.2781C283.305 17.2844 283.162 17.2919 283.019 17.2981C282.79 17.3094 282.682 17.3583 282.729 17.4335C282.755 17.4748 282.777 17.5161 282.799 17.5575C282.842 17.6314 282.734 17.6941 282.552 17.7028C282.05 17.7266 281.553 17.7517 281.051 17.773C280.917 17.7793 280.787 17.758 280.679 17.7241C280.567 17.6903 280.441 17.6753 280.303 17.6815C279.801 17.7053 279.303 17.7304 278.802 17.7517C278.745 17.7542 278.672 17.7417 278.616 17.7317C278.495 17.7091 278.378 17.6828 278.261 17.659C277.976 17.6703 277.694 17.6778 277.413 17.6928C276.959 17.7154 276.959 17.7166 276.626 17.6477C276.565 17.6352 276.505 17.6114 276.449 17.6126C276.232 17.6176 276.02 17.6302 275.804 17.6414C275.168 17.674 275.168 17.674 274.982 17.6364C274.813 17.6013 274.662 17.5588 274.407 17.5788C274.13 17.6014 273.836 17.6089 273.55 17.6214C273.338 17.6302 273.126 17.6402 272.914 17.6427C272.858 17.644 272.798 17.6201 272.737 17.6076C272.564 17.5688 272.395 17.5374 272.157 17.5588C272.019 17.5713 271.872 17.5738 271.729 17.5801C271.357 17.5976 271.357 17.5976 270.747 17.5224C270.687 17.5149 270.613 17.5061 270.553 17.5099C270.051 17.5324 269.553 17.5575 269.052 17.5788C268.991 17.5813 268.918 17.5738 268.857 17.5675C268.174 17.4948 268.174 17.4949 267.447 17.5299C267.17 17.5425 267.161 17.5475 266.872 17.4811C266.742 17.4522 266.634 17.4385 266.482 17.4472C265.911 17.4773 265.336 17.4974 264.769 17.5324C264.514 17.5475 264.367 17.5099 264.194 17.476C264.133 17.4648 264.069 17.4397 264.017 17.441C263.446 17.4648 262.875 17.4936 262.304 17.5174C262.252 17.5199 262.187 17.4949 262.126 17.4836C262.009 17.461 261.897 17.4272 261.767 17.4197C261.633 17.4122 261.486 17.431 261.339 17.4372C260.98 17.4535 260.98 17.4523 260.565 17.3783C260.508 17.3683 260.435 17.3545 260.379 17.357C259.808 17.3821 259.232 17.4034 258.666 17.4397C258.341 17.4598 258.121 17.4234 257.891 17.3708C257.844 17.3595 257.762 17.3545 257.701 17.357C257.057 17.3858 256.416 17.4184 255.772 17.4472C255.638 17.4535 255.508 17.4322 255.4 17.3996C255.227 17.3483 255.024 17.3545 254.807 17.3658C254.31 17.3921 254.305 17.3909 254.011 17.3307C253.951 17.3182 253.899 17.3019 253.834 17.2956C253.773 17.2894 253.696 17.2931 253.631 17.2956C253.345 17.3082 253.06 17.3219 252.774 17.3357C252.489 17.3495 252.199 17.357 251.918 17.3783C251.572 17.4046 251.407 17.3232 251.165 17.2856C250.81 17.3019 250.447 17.3119 250.097 17.3382C249.828 17.3583 249.703 17.3031 249.526 17.2743C249.465 17.2643 249.4 17.243 249.344 17.2455C248.699 17.2731 248.055 17.3031 247.415 17.337C247.259 17.3445 247.155 17.3345 247.025 17.3044C246.736 17.2367 246.723 17.2393 246.238 17.2643C246.026 17.2756 245.823 17.2856 245.641 17.2342C245.481 17.1879 245.287 17.1766 245.057 17.1916C244.776 17.2104 244.486 17.2205 244.201 17.233C243.915 17.2468 243.63 17.2656 243.344 17.2718C243.115 17.2781 242.977 17.2192 242.795 17.1891C242.739 17.1804 242.661 17.1791 242.596 17.1816C242.31 17.1929 242.016 17.2017 241.74 17.223C241.402 17.2493 241.216 17.1804 240.978 17.1403C240.926 17.1315 240.84 17.1365 240.775 17.1403C240.273 17.1628 239.776 17.1879 239.274 17.2117C239.096 17.1778 238.915 17.1453 238.737 17.1115C238.452 17.124 238.166 17.1378 237.881 17.1503C237.665 17.1603 237.444 17.1641 237.241 17.1829C236.977 17.2079 236.847 17.149 236.67 17.1202C236.609 17.1102 236.544 17.0889 236.488 17.0914C236.129 17.1052 235.77 17.1202 235.415 17.1415C235.078 17.1628 234.944 17.05 234.667 17.0513C234.382 17.0526 234.087 17.0688 233.811 17.0914C233.49 17.1177 233.265 17.0776 233.036 17.0237C232.989 17.0125 232.906 17.0062 232.846 17.0087C232.487 17.0237 232.132 17.0425 231.773 17.0576C231.713 17.0601 231.639 17.0538 231.579 17.0463C230.895 16.9724 230.895 16.9711 230.597 16.9862C230.385 16.9962 230.168 17.0087 229.952 17.015C229.892 17.0175 229.818 17.0062 229.762 16.9962C229.312 16.9197 229.312 16.9185 228.987 16.9335C228.702 16.9473 228.416 16.9611 228.131 16.9749C227.954 16.941 227.772 16.9085 227.595 16.8746C227.24 16.8909 226.876 16.9034 226.526 16.926C226.362 16.936 226.254 16.9323 226.128 16.9009C225.972 16.8634 225.817 16.8195 225.557 16.8408C225.28 16.8634 224.986 16.8659 224.705 16.8847C224.368 16.9072 224.229 16.7932 223.957 16.7945C223.671 16.7957 223.377 16.812 223.1 16.8345C222.78 16.8609 222.555 16.8208 222.326 16.7669C222.278 16.7556 222.196 16.7493 222.136 16.7519C221.348 16.7882 220.565 16.8245 219.778 16.8634C219.294 16.8872 219.294 16.8884 218.372 16.8195C218.307 16.8145 218.238 16.8095 218.173 16.812C217.888 16.8233 217.594 16.832 217.317 16.8533C216.979 16.8796 216.793 16.812 216.555 16.7706C216.504 16.7619 216.421 16.7669 216.352 16.7694C216.136 16.7782 215.924 16.7894 215.708 16.7995C215.422 16.8132 215.137 16.827 214.851 16.8408C214.674 16.8082 214.492 16.7744 214.315 16.7418C213.96 16.7581 213.597 16.7669 213.246 16.7932C212.978 16.8132 212.853 16.7606 212.675 16.7305C212.615 16.7205 212.55 16.6992 212.494 16.7005C211.849 16.728 211.205 16.7569 210.564 16.7919C210.301 16.807 210.179 16.7506 210.002 16.7218C209.942 16.713 209.872 16.6967 209.816 16.6992C209.388 16.7168 208.96 16.7381 208.531 16.7594C208.289 16.7719 208.289 16.7719 207.761 16.6942C207.701 16.6854 207.632 16.6767 207.571 16.6792C206.213 16.7418 204.859 16.8082 203.501 16.8709C203.362 16.8771 203.237 16.8584 203.129 16.8245C203.016 16.7907 202.891 16.7732 202.752 16.7794C202.181 16.8057 201.606 16.8295 201.039 16.8621C200.806 16.8759 200.62 16.8596 200.46 16.8157C200.339 16.7832 200.226 16.7706 200.075 16.7782C199.789 16.7932 199.504 16.8057 199.218 16.8195C198.933 16.8333 198.647 16.8471 198.362 16.8609C198.076 16.8746 197.786 16.8822 197.505 16.9035C197.159 16.9298 196.991 16.8521 196.753 16.8132C196.324 16.832 195.896 16.8508 195.472 16.8709C194.901 16.8972 194.33 16.926 193.759 16.9511C193.707 16.9536 193.642 16.931 193.582 16.9197C193.405 16.8884 193.275 16.8446 193.011 16.8584C191.73 16.9248 190.441 16.9811 189.157 17.0463C188.889 17.0601 188.772 17.0062 188.59 16.9774C188.53 16.9686 188.46 16.9511 188.404 16.9536C187.69 16.9849 186.977 17.02 186.263 17.0538C185.973 17.0676 185.973 17.0676 185.489 16.9899C185.432 16.9811 185.359 16.9699 185.298 16.9724C184.368 17.015 183.443 17.0601 182.513 17.1039C182.374 17.1102 182.249 17.0927 182.136 17.0588C182.028 17.025 181.898 17.0062 181.764 17.0125C180.908 17.0526 180.047 17.0914 179.195 17.1353C178.965 17.1478 178.775 17.1365 178.611 17.0914C178.494 17.0588 178.377 17.045 178.23 17.0526C176.945 17.1139 175.661 17.1728 174.376 17.238C174.129 17.2505 173.956 17.2267 173.801 17.1854C173.675 17.1528 173.567 17.1465 173.411 17.1515C173.247 17.1578 173.148 17.1716 173.057 17.2092C172.94 17.258 172.866 17.3194 172.589 17.3232C172.304 17.327 172.014 17.342 171.733 17.3633C171.465 17.3846 171.339 17.3282 171.171 17.2944C171.045 17.2706 170.928 17.2668 170.768 17.2781C170.621 17.2881 170.53 17.3094 170.444 17.3495C170.254 17.4347 170.236 17.4347 170.003 17.3808C169.877 17.352 169.765 17.3295 169.626 17.3345C169.055 17.3595 168.484 17.3871 167.913 17.4159C167.585 17.4322 167.58 17.4347 167.334 17.3721C167.213 17.3407 167.096 17.3257 166.953 17.3332C165.383 17.4084 163.813 17.4811 162.243 17.56C162 17.5725 161.836 17.5462 161.663 17.5086C161.607 17.4961 161.55 17.4786 161.486 17.4735C161.421 17.4685 161.347 17.4735 161.278 17.476C160.136 17.5299 158.99 17.5813 157.852 17.6414C157.592 17.6552 157.454 17.6151 157.277 17.5826C157.216 17.5713 157.164 17.5537 157.099 17.5487C157.034 17.545 156.957 17.5537 156.887 17.5575C155.745 17.6114 154.599 17.6628 153.461 17.7229C153.189 17.7367 153.072 17.684 152.895 17.6565C152.834 17.6465 152.769 17.6277 152.713 17.6302C152.354 17.6439 151.999 17.6627 151.64 17.679C150.784 17.7204 149.927 17.7592 149.071 17.8018C148.742 17.8181 148.599 17.7066 148.322 17.7116C147.963 17.7179 147.609 17.7429 147.25 17.7605C146.964 17.7743 146.679 17.7868 146.393 17.8018C146.112 17.8156 146.112 17.8156 145.411 17.7429C145.351 17.7367 145.277 17.7279 145.217 17.7304C144.217 17.7768 143.214 17.8231 142.219 17.8732C141.99 17.8845 141.799 17.8783 141.635 17.8319C141.518 17.7993 141.397 17.783 141.254 17.7905C139.753 17.862 138.257 17.9334 136.756 18.0036C136.699 18.0061 136.626 17.9935 136.57 17.9835C136.449 17.9609 136.332 17.9346 136.215 17.9108C136.128 17.9397 136.016 17.966 135.96 17.9985C135.882 18.0424 135.778 18.0549 135.614 18.0624C135.449 18.07 135.346 18.0675 135.216 18.0349C135.06 17.9948 134.9 17.9634 134.645 17.976C133.075 18.0549 131.504 18.1263 129.934 18.204C129.675 18.2166 129.554 18.1614 129.372 18.1326C129.311 18.1238 129.242 18.1101 129.186 18.1126C128.541 18.1414 127.901 18.1727 127.257 18.2028C125.47 18.288 123.684 18.3694 121.901 18.4596C121.577 18.4759 121.356 18.4446 121.127 18.3907C121.08 18.3794 120.997 18.3732 120.937 18.3757C118.437 18.4935 115.936 18.6125 113.44 18.7315C113.306 18.7378 113.177 18.7177 113.068 18.6852C112.956 18.6513 112.831 18.635 112.692 18.6413C111.55 18.6952 110.408 18.7491 109.266 18.8042C108.981 18.818 108.976 18.8192 108.682 18.7591C108.622 18.7465 108.557 18.7227 108.509 18.7253C108.41 18.7315 108.315 18.7628 108.245 18.8054C108.176 18.8505 108.068 18.8631 107.908 18.8718C107.744 18.8806 107.635 18.8769 107.51 18.8468C107.35 18.8092 107.203 18.7729 106.943 18.7854C103.66 18.9458 100.377 19.0999 97.0937 19.259C96.8299 19.2715 96.7087 19.2189 96.527 19.1901C96.4665 19.1813 96.406 19.1688 96.3411 19.1663C96.2719 19.1638 96.1983 19.1713 96.1291 19.1751C90.7739 19.4294 85.4188 19.685 80.0637 19.9394C79.7436 19.9544 79.7479 19.9544 79.3975 20.0697C79.3542 20.0835 79.298 20.1022 79.2374 20.1047C77.598 20.1849 75.9543 20.2626 74.3105 20.3403C73.5968 20.3741 72.8831 20.4092 72.1693 20.4418C71.9141 20.4531 71.9141 20.4531 71.3042 20.5884C71.2523 20.5997 71.1917 20.6147 71.1311 20.6172C68.2762 20.7538 65.4212 20.8904 62.562 21.0244C62.337 21.0344 62.1554 21.057 62.0516 21.1171C61.978 21.1597 61.8829 21.1848 61.7401 21.1923C59.7417 21.2875 57.7433 21.384 55.7405 21.4767C55.5026 21.488 55.3598 21.5231 55.243 21.5757C55.204 21.5933 55.1694 21.6133 55.1132 21.6258C55.0613 21.6371 54.9834 21.6409 54.9186 21.6446C53.2056 21.7261 51.4927 21.81 49.7754 21.8877C49.5202 21.899 49.4163 21.9453 49.2909 21.9942C49.2476 22.0105 49.2173 22.0331 49.1611 22.0443C49.1048 22.0543 49.0227 22.0543 48.9535 22.0569C47.526 22.1245 46.0986 22.1934 44.6711 22.2611C44.3942 22.2548 44.3337 22.3275 44.1996 22.3713C44.152 22.3864 44.1174 22.4064 44.0612 22.4165C44.0007 22.4265 43.9227 22.4252 43.8492 22.4277C42.7072 22.4816 41.5652 22.5392 40.4189 22.5894C40.1551 22.6006 40.1031 22.6645 39.9604 22.7084C39.9128 22.7222 39.8653 22.7435 39.8091 22.7472C39.0953 22.7836 38.3816 22.8174 37.6679 22.85C37.43 22.8612 37.43 22.86 37.0104 22.984C36.9628 22.9978 36.9065 23.0129 36.8459 23.0166C35.7775 23.0692 34.7048 23.1194 33.632 23.1707C33.4936 23.177 33.3984 23.2071 33.3292 23.2497C33.26 23.2923 33.1605 23.3198 33.0221 23.3261C32.1656 23.3674 31.3091 23.41 30.4526 23.4476C30.2147 23.4577 30.059 23.489 29.9552 23.5454C29.8773 23.588 29.7822 23.6093 29.6308 23.6168C28.7743 23.6569 27.9178 23.7007 27.057 23.7358C26.8061 23.7458 26.6763 23.7884 26.5725 23.8411C26.4903 23.8837 26.3951 23.8987 26.2351 23.9062C24.6649 23.9789 23.0904 24.0515 21.5245 24.1317C21.2606 24.1455 21.1265 24.1017 20.9535 24.0703C20.7069 24.0265 20.4777 23.9789 20.4777 23.8811C20.4777 23.8661 20.4042 23.8486 20.3522 23.836C19.9673 23.7421 19.9673 23.7421 19.9067 23.6418C19.8721 23.5804 19.8332 23.5178 19.8029 23.4552C19.7466 23.3524 19.6082 23.3261 19.2102 23.3449C19.0675 23.3512 18.9247 23.3599 18.782 23.3649C18.57 23.3737 18.41 23.3324 18.3711 23.2572C18.3494 23.2158 18.3235 23.1745 18.3019 23.1331C18.5182 23.1231 18.5138 23.1219 18.8944 22.9703C19.0545 22.9064 19.0546 22.9064 18.7474 22.8425C18.6307 22.8187 18.5182 22.7923 18.3927 22.7698C18.3365 22.7598 18.263 22.7535 18.2024 22.756C17.8434 22.771 17.4887 22.7886 17.134 22.8061C16.563 22.8337 16.5629 22.8337 15.9833 22.7059C15.9357 22.6959 15.8622 22.6771 15.8708 22.667C15.9184 22.6207 16.0352 22.6006 16.1823 22.5956C16.3985 22.5881 16.6105 22.5756 16.8224 22.5655C16.9652 22.5593 17.1079 22.5518 17.2507 22.5455C17.3848 22.4979 17.5233 22.4515 17.6487 22.4027C17.8477 22.3275 17.8476 22.325 17.5751 22.2724C17.4021 22.2373 17.2161 22.2059 17.0387 22.1734C16.8268 22.1834 16.6105 22.1947 16.3985 22.2034C16.1303 22.2147 16.0222 22.1909 15.953 22.1095C15.8924 22.038 15.966 21.9767 16.1736 21.9616C16.3856 21.9466 16.5846 21.9366 16.6928 21.8727C16.7966 21.8113 16.9782 21.7875 17.2032 21.7824C17.3459 21.7787 17.4886 21.7699 17.6314 21.7624C17.8174 21.7524 17.9169 21.6885 17.878 21.6171C17.8564 21.5707 17.8131 21.5319 17.6444 21.5218C16.896 21.478 16.8873 21.4792 16.5153 21.394C16.4807 21.3865 16.4548 21.364 16.4678 21.3527C16.4894 21.3339 16.537 21.3063 16.5889 21.3026C17.0864 21.275 17.5838 21.25 18.0813 21.2312C18.2457 21.2249 18.3668 21.2161 18.423 21.1698C18.5009 21.1059 18.4663 21.047 18.3149 21.0031C18.2673 20.9893 18.1894 20.9718 18.1375 20.973C17.5665 20.9956 16.9998 21.0244 16.4288 21.047C16.3769 21.0495 16.2818 21.0282 16.2602 21.0119C16.2169 20.9818 16.2818 20.9417 16.4332 20.9279C16.6322 20.9091 16.8355 20.9079 16.9696 20.8452C17.1556 20.7563 17.3848 20.6749 17.5924 20.5897C17.627 20.5746 17.6833 20.5458 17.6704 20.5433C17.5622 20.5157 17.4368 20.4944 17.3243 20.4681C17.134 20.4242 17.1339 20.3629 17.1772 20.304C17.2118 20.2564 17.3416 20.2376 17.5016 20.2376C17.5708 20.2376 17.6573 20.2376 17.7136 20.2263C17.8606 20.1987 17.9082 20.1636 17.8347 20.1373C17.7914 20.1223 17.7136 20.101 17.6617 20.1035C16.736 20.1449 15.8059 20.1849 14.8846 20.2363C14.612 20.2513 14.4867 20.2037 14.3223 20.1699C14.1969 20.1436 14.08 20.1336 13.9243 20.1524C13.7772 20.1699 13.6345 20.1599 13.5437 20.1185C13.4701 20.0847 13.5999 20.0559 13.9503 20.0233C14.0151 20.017 14.0886 20.0133 14.1362 20.0008C14.638 19.8654 14.638 19.8642 14.984 19.8466C15.3214 19.8304 15.3215 19.8291 15.4989 19.7564C15.5811 19.7226 15.6718 19.6888 15.7497 19.6537C15.78 19.6399 15.8319 19.6148 15.8146 19.6073C15.7195 19.5685 15.5897 19.5597 15.4383 19.5685C15.1009 19.5898 14.7029 19.5722 14.5256 19.6913C14.4564 19.7364 14.3482 19.7489 14.1925 19.7564C12.6266 19.8291 11.0607 19.9068 9.49047 19.977C9.23526 19.9882 9.11853 20.0346 9.01904 20.086C8.93253 20.1286 8.83734 20.1411 8.67297 20.1486C8.50859 20.1561 8.37876 20.1599 8.2836 20.1185C8.22736 20.0935 8.27496 20.0584 8.40473 20.0233C8.59073 19.9732 8.55611 19.9105 8.49555 19.8517C8.45229 19.8128 8.3182 19.7853 8.17545 19.7878C7.9635 19.7928 7.76025 19.8066 7.58289 19.7564C7.47908 19.7276 7.34928 19.7076 7.23249 19.6825C7.00756 19.6311 6.78261 19.5785 6.46684 19.6123C6.25056 19.5998 6.09916 19.5547 5.92613 19.5196C5.63631 19.462 5.61036 19.4532 5.81799 19.3918C6.05158 19.3229 5.86986 19.2327 5.99963 19.165C6.13806 19.0924 6.32845 19.0285 6.49715 18.9608C6.54041 18.9433 6.57935 18.927 6.62261 18.9094C6.52312 18.8844 6.4323 18.8531 6.3155 18.8355C6.16411 18.813 6.08624 18.7854 6.09489 18.7077C6.06461 18.6964 6.0775 18.7252 6.11211 18.7328C6.15104 18.7403 6.24627 18.734 6.29386 18.7253C6.41497 18.7015 6.47547 18.6701 6.44519 18.6438C6.42789 18.63 6.34576 18.6125 6.29386 18.6125C6.19869 18.6125 6.11652 18.6401 6.09056 18.7077C5.60609 18.7591 5.10423 18.7841 4.60246 18.8042C4.55055 18.8067 4.4857 18.7816 4.42514 18.7691C4.22616 18.7265 4.22614 18.7278 3.64217 18.7152C3.58161 18.714 3.49947 18.6964 3.46919 18.6789C3.34374 18.6025 3.3481 18.5185 3.28754 18.4371C3.40001 18.3844 3.51239 18.3331 3.62918 18.2817C3.86277 18.1777 4.16563 18.0862 4.34731 17.9722C4.30838 17.9108 4.25646 17.8494 4.44679 17.7993C4.9875 17.7367 4.98321 17.7367 5.13028 17.6765C5.54987 17.5061 5.96511 17.3345 6.402 17.1666C6.51879 17.1227 6.51881 17.0989 6.31117 17.0801C6.24629 17.0751 6.17699 17.0739 6.10778 17.0764C5.89149 17.0851 5.67521 17.1077 5.46326 17.1027C5.2513 17.0989 5.09558 17.0438 4.92255 17.01C4.7452 16.9749 4.56785 16.9385 4.3905 16.9022C4.1872 16.906 3.98393 16.941 3.78062 16.8847C3.6249 16.8408 3.43026 16.8095 3.2529 16.7731C3.387 16.6779 3.63793 16.6052 3.83258 16.5213C4.00993 16.4449 4.01416 16.4461 4.48998 16.3872C4.71492 16.3597 4.79278 16.2181 4.60246 16.1767C4.3732 16.1266 4.13101 16.0803 3.89742 16.0326C3.69412 16.0364 3.48653 16.0702 3.29187 16.0139C3.14048 15.9713 2.96741 15.9424 2.71653 15.9587C2.29261 15.9863 1.86006 16.0001 1.43182 16.0226C1.28475 16.0301 1.12465 16.0251 1.05977 15.9825C1.01651 15.9525 1.14196 15.9111 1.28471 15.9023C1.50099 15.8898 1.69562 15.8748 1.80377 15.8121C1.90758 15.7495 2.09789 15.7307 2.32282 15.7219C2.38338 15.7194 2.45264 15.7044 2.48292 15.6893C2.63865 15.6167 2.81169 15.554 3.14476 15.5565C3.28318 15.5315 3.35667 15.5001 3.31342 15.4701C3.28746 15.4538 3.19667 15.4325 3.14476 15.435C2.78573 15.4475 2.42672 15.4601 2.07634 15.4826C1.91196 15.4926 1.78645 15.4951 1.68263 15.4575C1.6091 15.4325 1.64803 15.3987 1.78645 15.3623C1.90756 15.331 1.94221 15.2947 1.93356 15.2521C1.91193 15.1531 1.78213 15.1243 1.36687 15.1305C1.0684 15.1355 0.994859 15.1192 0.929974 15.034C0.912672 15.014 0.869491 14.9864 0.899771 14.9727C1.08577 14.8875 1.2069 14.7822 1.55728 14.7421C1.6957 14.7271 1.84271 14.7271 1.92923 14.6945C2.01574 14.6619 2.09364 14.6243 2.18448 14.593C2.29695 14.5554 2.37473 14.5203 2.32282 14.4965C2.23631 14.4539 2.09794 14.4502 1.93789 14.4652C1.79947 14.4777 1.6524 14.479 1.50965 14.4865C1.25444 14.5003 1.04685 14.4677 1.01657 14.4126C0.934385 14.2672 0.847846 14.1232 0.77431 13.9778C0.765659 13.9603 0.787228 13.9377 0.821833 13.9227C0.942952 13.8701 1.07277 13.8199 1.19822 13.7686C1.34529 13.7097 1.57891 13.721 1.77789 13.7097C2.05906 13.6934 2.05896 13.6946 2.4353 13.5744C2.58237 13.5267 2.83759 13.5455 2.98899 13.5029C3.03657 13.4892 3.11011 13.4666 3.09713 13.4541C3.07983 13.4378 2.99336 13.4253 2.92848 13.4177C2.86792 13.4102 2.7944 13.4065 2.72952 13.4102C1.94225 13.4466 1.15932 13.4854 0.372053 13.5205C0.237958 13.5267 0.0908811 13.4992 0.0432988 13.4603C-0.00428342 13.424 0.00865132 13.3801 0 13.3388C0.125444 13.2874 0.268136 13.2398 0.376277 13.1847C0.458465 13.1421 0.553646 13.1233 0.718021 13.1208C0.934304 13.117 1.14628 13.102 1.38852 13.0907C1.83839 12.9078 2.27958 12.7161 2.76405 12.5332C2.9587 12.4592 2.9112 12.384 2.95013 12.3051C2.98906 12.2324 3.27886 12.2437 3.47352 12.2224C3.62924 12.2049 3.68108 12.1648 3.62052 12.1372C3.58592 12.1209 3.5081 12.1021 3.44754 12.1021C3.30479 12.1021 3.16205 12.1134 3.0193 12.1197C2.87655 12.1259 2.71219 12.1222 2.5954 12.1435C2.48293 12.1635 2.40935 12.2061 2.33581 12.2425C2.25363 12.2826 2.14556 12.2964 1.98119 12.2989C1.76923 12.3014 1.55728 12.3126 1.34533 12.3214C1.11174 12.2725 0.869453 12.2249 0.644519 12.1736C0.601262 12.1635 0.592565 12.1347 0.59689 12.1159C0.605542 12.0671 0.540674 12.037 0.397927 12.0132C0.276808 11.9931 0.17731 11.9643 0.0648426 11.9393C0.151356 11.9054 0.246554 11.8728 0.315765 11.8365C0.467163 11.7601 0.657513 11.705 0.986263 11.7075C1.11603 11.6586 1.21982 11.5985 1.38852 11.5646C1.54857 11.5321 1.8211 11.5646 1.94222 11.4907C2.00278 11.4544 2.09367 11.413 2.21046 11.398C2.39646 11.3742 2.63869 11.3867 2.74684 11.3165C2.81172 11.2765 2.90685 11.2401 3.03229 11.2301C3.17504 11.2188 3.32207 11.2163 3.42589 11.1925C3.48212 11.18 3.54269 11.1599 3.54269 11.1424C3.54269 11.1311 3.45624 11.1136 3.39568 11.106C3.33945 11.0973 3.26583 11.091 3.20095 11.0935C2.98466 11.101 2.77271 11.1148 2.55643 11.1223C2.49587 11.1248 2.42668 11.1161 2.36179 11.1086C2.17146 11.0885 2.18442 11.0634 2.33581 11.0183C2.48721 10.9745 2.59541 10.9181 2.72086 10.8667C2.85928 10.858 3.03228 10.8617 3.12744 10.8379C3.28749 10.7991 3.39993 10.7427 3.5297 10.6938C3.67245 10.6863 3.81951 10.6838 3.95361 10.67C4.00984 10.665 4.03581 10.6374 4.0834 10.6212C4.16991 10.5898 4.24351 10.5447 4.3603 10.5297C4.55063 10.5071 4.78421 10.5159 4.89668 10.447C4.96156 10.4069 5.06101 10.3643 5.18213 10.3618C5.51953 10.3568 5.66228 10.2879 5.83531 10.2227C5.96508 10.1738 6.24193 10.1989 6.38468 10.15C6.47984 10.1187 6.54909 10.0799 6.64426 10.0498C6.68319 10.0373 6.76535 10.031 6.83023 10.0273C7.18494 10.0085 7.54395 9.99467 7.89866 9.97462C7.95489 9.97086 8.00684 9.95208 8.0501 9.93704C8.14094 9.90447 8.19711 9.85935 8.30957 9.83805C8.42204 9.81675 8.58207 9.81676 8.72049 9.81049C9.16603 9.7917 9.20067 9.7967 9.40398 9.6902C9.56835 9.60375 9.97069 9.66515 10.1048 9.56992C10.1826 9.51479 10.3253 9.46969 10.5805 9.46342C10.9396 9.45465 11.2943 9.43084 11.6533 9.41456C11.9734 9.39952 11.9691 9.39951 12.3151 9.28299C12.4709 9.23037 12.7002 9.23789 12.9035 9.22787C13.1198 9.21784 13.3187 9.20281 13.4225 9.14017C13.5263 9.07877 13.7167 9.05871 13.9373 9.04994C14.1406 9.04117 14.3699 9.04745 14.5299 8.99733C14.9192 8.87704 14.9149 8.87578 15.1874 8.86325C15.6157 8.84321 16.0439 8.82316 16.4721 8.80186C16.7576 8.78808 17.0561 8.78557 17.3243 8.75801C17.5189 8.73796 17.6054 8.6678 17.7309 8.61893C18.0856 8.60014 18.4403 8.58134 18.795 8.5638C19.2924 8.53874 19.7942 8.51619 20.296 8.49238C20.5122 8.44477 20.5426 8.33952 20.9059 8.33451C21.1222 8.33201 21.3342 8.31572 21.5505 8.3057C21.9095 8.28815 22.2642 8.2656 22.6232 8.25683C22.8957 8.25056 22.9432 8.1829 23.086 8.1403C23.1336 8.12526 23.1769 8.10397 23.2331 8.10021C23.7954 8.06513 24.375 8.05761 24.9244 8.00624C24.9806 8.00123 25.0325 7.97491 25.0455 7.95612C25.0542 7.94609 24.9806 7.92731 24.9331 7.91854C24.8768 7.90851 24.8033 7.89849 24.7428 7.901C22.9563 7.98494 21.1698 8.07015 19.3833 8.15409C19.1324 8.16662 19.1324 8.16536 18.5225 8.30319C18.4706 8.31446 18.41 8.32699 18.3451 8.33075C18.0596 8.34578 17.7698 8.35457 17.4886 8.37336C17.2594 8.3884 17.0691 8.37335 16.9047 8.32824C16.7879 8.29566 16.6667 8.28565 16.5197 8.28815C16.3553 8.29191 16.2472 8.3057 16.1521 8.33953C16.0266 8.38589 15.9617 8.44602 15.6978 8.45855C14.4823 8.51243 13.2667 8.57257 12.0556 8.63021C11.8869 8.61267 11.8047 8.58636 11.8479 8.55503C11.8739 8.53624 11.9258 8.51118 11.9777 8.50867C12.4752 8.48236 12.9769 8.45981 13.4744 8.43475C13.5436 8.43099 13.6387 8.43349 13.6777 8.42096C13.868 8.36458 13.9373 8.27311 14.2963 8.26685C14.504 8.26309 14.7159 8.2443 14.9149 8.22676C14.9711 8.22175 15.023 8.19543 15.036 8.17664C15.0403 8.16662 14.9711 8.14781 14.9192 8.13904C14.7289 8.10271 14.5083 8.14657 14.318 8.12152C14.2531 8.11275 14.1622 8.10021 14.1492 8.08518C14.1406 8.07139 14.2141 8.04884 14.266 8.03505C14.3136 8.02252 14.3784 8.01125 14.4433 8.00749C15.0143 7.97868 15.5854 7.9486 16.1564 7.92605C16.39 7.91728 16.5543 7.88595 16.6581 7.82831C16.736 7.78571 16.8311 7.76317 16.9782 7.7569C17.9774 7.71054 18.9766 7.65917 19.9802 7.61657C20.2311 7.60655 20.3609 7.56521 20.4647 7.51133C20.5469 7.46873 20.6421 7.45369 20.8021 7.44617C22.2339 7.38102 23.657 7.30835 25.0888 7.2457C25.3527 7.23443 25.4306 7.18055 25.5647 7.13419C25.6123 7.1179 25.6425 7.09785 25.703 7.08783C25.7636 7.07781 25.8414 7.07905 25.915 7.07654C27.057 7.02267 28.199 6.96504 29.3453 6.91492C29.6135 6.90365 29.6653 6.84099 29.8038 6.79714C29.8513 6.78335 29.8946 6.76081 29.9509 6.75705C30.8073 6.71445 31.6638 6.67436 32.5203 6.63301C33.0913 6.60544 33.6622 6.57787 34.2332 6.55156C34.5144 6.53903 34.5144 6.53777 34.8951 6.41874C34.9383 6.40496 34.9989 6.38867 35.0552 6.38491C36.6989 6.30472 38.3383 6.22831 39.982 6.14937C40.1205 6.14311 40.2199 6.11427 40.2891 6.07167C40.3584 6.02907 40.4579 6.00025 40.592 5.99399C41.8767 5.93134 43.1614 5.86995 44.4505 5.81106C44.6841 5.80104 44.8484 5.77097 44.9522 5.71458C45.0301 5.67198 45.1252 5.64944 45.2723 5.64317C46.557 5.58303 47.8418 5.51912 49.1309 5.46148C49.3774 5.45021 49.4985 5.40761 49.6196 5.35749C49.6629 5.33995 49.6975 5.31113 49.7494 5.30863C50.3896 5.27355 51.0255 5.23721 51.67 5.2134C51.9382 5.20338 52.029 5.15075 52.1372 5.10063C52.2237 5.06054 52.3232 5.04676 52.4876 5.04175C52.8466 5.03047 53.2013 5.00918 53.5517 4.98788C53.6036 4.98412 53.6685 4.95655 53.6728 4.93901C53.6815 4.90644 53.5819 4.88388 53.4176 4.8726C51.7046 4.95404 49.9874 5.03548 48.2744 5.11692C47.9932 5.1307 47.9932 5.13071 47.6126 5.24974C47.5693 5.26353 47.5087 5.27982 47.4481 5.28358C45.8044 5.36251 44.165 5.44019 42.5213 5.51913C42.3828 5.5254 42.2834 5.55421 42.2141 5.59681C42.1449 5.63941 42.0454 5.66823 41.9113 5.6745C40.3411 5.74967 38.7709 5.82611 37.1963 5.89752C36.9628 5.90755 36.7984 5.93635 36.6946 5.99399C36.6167 6.03659 36.5216 6.05915 36.3745 6.06542C34.8735 6.13558 33.3768 6.2095 31.8714 6.27716C31.72 6.28342 31.6076 6.24709 31.6163 6.21326C31.6206 6.19571 31.6854 6.16691 31.7373 6.1644C32.5203 6.12306 33.2989 6.08045 34.0862 6.04913C34.3501 6.0391 34.4279 5.98397 34.562 5.93761C34.6052 5.92132 34.6399 5.90002 34.6961 5.89125C34.7567 5.88123 34.8345 5.88249 34.9081 5.87998C36.7638 5.79102 38.6195 5.70081 40.4796 5.61686C40.7477 5.60434 40.7996 5.54293 40.938 5.49908C40.9856 5.48404 41.0289 5.4615 41.0851 5.45899C41.6561 5.42892 42.2271 5.4026 42.798 5.37629C43.7973 5.32868 44.7965 5.28107 45.8 5.23345C46.0898 5.21967 46.0899 5.21967 46.4619 5.10189C46.5051 5.08811 46.5657 5.07058 46.622 5.06807C49.2649 4.94152 51.908 4.81497 54.5509 4.68968C54.6894 4.68341 54.7888 4.65459 54.858 4.61199C54.9272 4.57065 55.0267 4.54058 55.1608 4.53306C58.7338 4.36266 62.3025 4.19225 65.8755 4.02435C66.1091 4.01307 66.2734 3.98676 66.3772 3.92787C66.4508 3.88527 66.5502 3.86272 66.6973 3.85521C70.625 3.66852 74.5527 3.48183 78.4847 3.29389C81.1277 3.16859 83.7707 3.04079 86.4137 2.918C86.6559 2.90672 86.7857 2.86787 86.9068 2.8165C86.9457 2.79896 86.9847 2.77014 87.0366 2.76764C87.6032 2.73631 88.1699 2.7075 88.7365 2.67868C88.9139 2.71251 89.0912 2.74509 89.2686 2.77892C89.4027 2.73131 89.5325 2.68244 89.6666 2.63483C90.5231 2.5985 91.3666 2.54211 92.2317 2.52457C92.2879 2.52332 92.3484 2.54713 92.409 2.55966C92.8113 2.63859 93.0406 2.63233 93.2958 2.52708C93.3866 2.48949 93.4645 2.45566 93.6029 2.4494C94.0311 2.42684 94.4638 2.41181 94.8877 2.38549C95.117 2.37171 95.3072 2.38424 95.4716 2.42934C95.5884 2.46192 95.7096 2.47571 95.8523 2.46819C96.6396 2.4306 97.4225 2.39427 98.2098 2.35417C98.266 2.35166 98.3179 2.33036 98.3611 2.31532C98.452 2.28274 98.5299 2.24767 98.6164 2.21384C98.7332 2.23514 98.863 2.25143 98.9581 2.279C99.0792 2.31157 99.1917 2.31157 99.356 2.3028C102.496 2.15119 105.641 2.00334 108.782 1.85048C109.05 1.83795 109.167 1.89058 109.348 1.91815C109.409 1.92817 109.469 1.94069 109.534 1.9432C109.604 1.9457 109.677 1.93819 109.746 1.93443C112.104 1.82167 114.461 1.71015 116.819 1.59738C117.13 1.58235 117.13 1.58235 117.593 1.66003C117.649 1.67005 117.723 1.68133 117.783 1.67757C118.856 1.62871 119.929 1.57609 120.997 1.52597C121.136 1.51971 121.253 1.53975 121.378 1.56857C121.625 1.62495 121.642 1.62495 121.823 1.54226C121.91 1.50342 122.001 1.4796 122.144 1.46832C122.299 1.45579 122.425 1.45957 122.546 1.48212C122.719 1.51344 122.844 1.56606 123.108 1.55228C124.25 1.49339 125.397 1.44453 126.534 1.38439C126.794 1.3706 126.932 1.4132 127.105 1.44453C127.166 1.4558 127.222 1.47334 127.287 1.4771C127.352 1.48086 127.43 1.47208 127.499 1.46832C128.926 1.40066 130.358 1.33427 131.781 1.2616C132.049 1.24782 132.166 1.30168 132.348 1.32925C132.408 1.33927 132.478 1.35682 132.534 1.35432C133.39 1.31548 134.251 1.27412 135.108 1.23277C135.415 1.21773 135.415 1.21899 135.882 1.29542C135.938 1.30544 136.012 1.31547 136.072 1.31296C137.072 1.2666 138.075 1.21899 139.074 1.17138C139.381 1.15634 139.381 1.15634 140.268 1.2215C140.333 1.22651 140.402 1.23404 140.467 1.23153C141.609 1.17765 142.755 1.12502 143.897 1.06739C144.127 1.05611 144.317 1.06613 144.481 1.11124C144.598 1.14381 144.719 1.1576 144.862 1.15008C146.147 1.08869 147.436 1.0298 148.716 0.96465C148.963 0.952121 149.123 0.979675 149.296 1.01601C149.352 1.02854 149.408 1.04608 149.473 1.0511C149.538 1.05611 149.612 1.05109 149.681 1.04733C150.966 0.985939 152.255 0.928306 153.535 0.8619C153.794 0.848117 153.933 0.890715 154.106 0.922039C154.167 0.933315 154.231 0.95587 154.283 0.954617C154.785 0.933317 155.287 0.914529 155.784 0.883205C156.052 0.865664 156.169 0.923289 156.351 0.950854C156.411 0.959625 156.481 0.978428 156.537 0.975923C157.61 0.927057 158.683 0.87569 159.751 0.823066C159.902 0.815548 160.015 0.826814 160.136 0.859391C160.296 0.903245 160.482 0.920786 160.716 0.907004C161.213 0.878186 161.715 0.858144 162.217 0.834338C162.511 0.820556 162.511 0.82056 163.41 0.885714C163.475 0.890725 163.545 0.898238 163.609 0.895732C164.466 0.855637 165.327 0.816798 166.179 0.772945C166.408 0.760415 166.598 0.771689 166.763 0.816795C166.88 0.849372 166.996 0.863162 167.143 0.855644C167.931 0.818055 168.714 0.780464 169.501 0.742875C169.786 0.729093 170.072 0.70528 170.357 0.70528C170.565 0.706533 170.717 0.766673 170.903 0.796744C170.954 0.805514 171.041 0.795502 171.11 0.792996C172.109 0.745384 173.113 0.701526 174.108 0.647649C174.367 0.633867 174.506 0.676465 174.679 0.707789C174.739 0.719065 174.804 0.74162 174.856 0.740367C175.215 0.726584 175.57 0.707788 175.929 0.6915C176.357 0.671453 176.79 0.656417 177.214 0.628852C177.56 0.606299 177.689 0.715302 177.966 0.719061C178.178 0.72282 178.394 0.701523 178.606 0.6915C179.035 0.671453 179.463 0.648902 179.891 0.63136C180.043 0.625096 180.159 0.60504 180.207 0.559934C180.216 0.551163 180.142 0.532377 180.095 0.5211C179.519 0.393299 179.519 0.393293 178.94 0.420858C178.58 0.438399 178.226 0.455943 177.867 0.470979C177.806 0.473485 177.737 0.463462 177.676 0.455944C177.503 0.434644 177.521 0.409587 177.668 0.364481C177.815 0.319375 177.927 0.26425 178.053 0.212879C178.23 0.245455 178.403 0.27802 178.581 0.310597C178.723 0.304332 178.866 0.296826 179.009 0.290561C179.723 0.257984 180.436 0.224152 181.15 0.194081C181.202 0.191575 181.267 0.216638 181.327 0.229168C181.5 0.265503 181.656 0.296818 181.907 0.283036C182.547 0.2467 183.192 0.220388 183.832 0.189064C184.113 0.175282 184.113 0.175283 184.606 0.252966C184.662 0.261737 184.736 0.271761 184.796 0.269255C185.441 0.240437 186.081 0.209117 186.726 0.179046C186.864 0.172782 186.998 0.189069 187.098 0.225405C187.137 0.24044 187.128 0.265495 187.292 0.470979C187.803 0.637622 188.153 0.620089 188.508 0.605053C188.659 0.598789 188.793 0.592518 188.893 0.567459C188.945 0.553676 189.01 0.533626 189.01 0.517338C189.01 0.504808 188.915 0.484757 188.854 0.482251C188.426 0.457192 188.019 0.509823 187.599 0.5211C187.405 0.526112 187.236 0.482258 187.202 0.41084C187.193 0.390792 187.18 0.369493 187.167 0.349446C187.154 0.329399 187.145 0.3081 187.132 0.288053C186.964 0.281788 186.864 0.304337 186.791 0.346938C186.73 0.38202 186.644 0.422115 186.527 0.440909C186.41 0.460956 186.25 0.457204 186.107 0.463469C185.969 0.469734 185.817 0.48602 185.688 0.47725C185.558 0.467226 185.454 0.430884 185.333 0.408331C185.277 0.397055 185.207 0.380772 185.151 0.383278C184.654 0.404578 184.161 0.425871 183.668 0.453436C183.408 0.468471 183.278 0.415855 183.114 0.383278C182.984 0.358219 182.854 0.364476 182.833 0.422112C182.776 0.559937 182.975 0.617569 183.417 0.591257C183.78 0.568704 184.109 0.564957 184.394 0.650158C184.433 0.661434 184.524 0.666444 184.58 0.663938C184.935 0.648903 185.285 0.630107 185.64 0.615071C185.705 0.612566 185.774 0.617569 185.835 0.622581C186.717 0.690241 186.717 0.6915 187.016 0.676465C187.158 0.668947 187.297 0.662682 187.284 0.472233C187.556 0.268002 187.989 0.254222 188.408 0.224151C188.681 0.205357 188.798 0.260489 188.975 0.289307C189.036 0.29933 189.101 0.319374 189.157 0.316868C190.087 0.275521 191.012 0.231661 191.938 0.185302C192.094 0.177784 192.206 0.185303 192.327 0.21788C192.483 0.259227 192.656 0.285545 192.903 0.270509C193.396 0.240439 193.898 0.221649 194.399 0.19659C194.655 0.18406 194.655 0.184047 195.169 0.26173C195.226 0.270501 195.299 0.280525 195.36 0.278019C195.861 0.256719 196.359 0.230415 196.856 0.207862C196.995 0.201597 197.12 0.219137 197.228 0.252966C197.337 0.286796 197.466 0.304336 197.6 0.298071C198.102 0.275518 198.6 0.250467 199.097 0.227913C199.158 0.225407 199.231 0.234178 199.287 0.242948C199.815 0.320631 199.815 0.320618 200.057 0.308089C200.412 0.289295 200.775 0.280534 201.126 0.255475C201.468 0.230416 201.645 0.303081 201.878 0.343175C202.519 0.314357 203.163 0.290557 203.799 0.255475C204.059 0.240439 204.197 0.281783 204.37 0.31436C204.431 0.325636 204.491 0.349445 204.547 0.348192C204.764 0.34318 204.976 0.3294 205.188 0.319376C205.4 0.309353 205.616 0.29933 205.828 0.289307C206.07 0.325642 206.23 0.410842 206.576 0.382024C206.784 0.364483 207.004 0.360724 207.216 0.3507C207.428 0.340677 207.645 0.330654 207.857 0.320631C207.999 0.314366 208.146 0.310602 208.285 0.299325C208.54 0.280531 208.665 0.341933 208.847 0.369498C208.908 0.378268 208.977 0.393294 209.033 0.390788C209.461 0.373247 209.894 0.358212 210.314 0.329395C210.638 0.306841 210.859 0.344435 211.088 0.397059C211.135 0.408335 211.218 0.4146 211.278 0.412094C211.78 0.390794 212.277 0.364474 212.775 0.341921C212.909 0.335656 213.039 0.355703 213.147 0.38828C213.259 0.422109 213.385 0.43841 213.523 0.432145C214.021 0.409592 214.522 0.384526 215.02 0.361973C215.08 0.359467 215.154 0.369492 215.21 0.379516C215.695 0.457199 215.695 0.458453 215.98 0.443418C216.049 0.439659 216.123 0.437143 216.192 0.433384C216.547 0.415843 216.915 0.409587 217.261 0.379516C217.659 0.345686 217.948 0.388288 218.23 0.459707C218.584 0.444671 218.948 0.435899 219.294 0.41084C219.553 0.392045 219.692 0.439655 219.865 0.470979C219.925 0.482255 219.99 0.504809 220.042 0.502303C220.544 0.481002 221.045 0.462215 221.539 0.430891C221.807 0.41335 221.924 0.469722 222.105 0.49854C222.166 0.508564 222.231 0.526114 222.287 0.523608C222.572 0.513585 222.858 0.498542 223.144 0.48476C223.477 0.468471 223.476 0.469723 223.918 0.546153C224.125 0.582489 224.333 0.553669 224.536 0.544899C224.753 0.534875 224.956 0.52736 225.129 0.578731C225.237 0.611308 225.367 0.631356 225.501 0.626344C225.786 0.615067 226.076 0.603796 226.357 0.585002C226.582 0.569966 226.777 0.579985 226.941 0.626344C227.058 0.658921 227.179 0.675219 227.322 0.667701C227.962 0.63763 228.607 0.606295 229.247 0.577477C229.303 0.574971 229.381 0.586252 229.433 0.597528C229.554 0.620081 229.671 0.645135 229.788 0.670194C230.069 0.658917 230.359 0.653919 230.635 0.636377C230.93 0.618836 231.198 0.612569 231.427 0.681482C231.475 0.696517 231.544 0.717806 231.6 0.716553C231.816 0.711541 232.028 0.699015 232.24 0.688991C232.452 0.678968 232.669 0.668945 232.88 0.658922C233.127 0.690246 233.283 0.780457 233.629 0.751639C233.837 0.734098 234.057 0.730339 234.269 0.720315C234.481 0.710292 234.697 0.699016 234.909 0.690246C234.978 0.68774 235.056 0.681471 235.117 0.686483C235.182 0.691495 235.238 0.70904 235.294 0.721569C235.467 0.757905 235.627 0.794245 235.874 0.772945C236.082 0.755403 236.302 0.751643 236.514 0.740367C236.804 0.726584 236.804 0.726587 237.284 0.805523C237.479 0.8381 237.699 0.795501 237.885 0.823066C238.011 0.84186 238.119 0.873177 238.24 0.894478C238.292 0.903248 238.374 0.907002 238.435 0.904496C238.72 0.893219 239.01 0.881948 239.291 0.863154C239.52 0.848118 239.711 0.863152 239.871 0.908258C239.988 0.940835 240.104 0.954625 240.251 0.947107C240.965 0.912024 241.679 0.881944 242.388 0.843102C242.631 0.82932 242.825 0.850625 242.959 0.895732C243.189 0.973415 243.513 0.881951 243.751 0.944599C243.898 0.98344 244.045 1.02855 244.313 1.00975C244.806 0.977178 245.308 0.959627 245.806 0.937074C245.983 0.970903 246.16 1.00474 246.342 1.03857C246.627 1.02479 246.913 1.011 247.198 0.998467C247.41 0.988443 247.627 0.977168 247.839 0.968397C247.908 0.965892 247.981 0.960879 248.046 0.967143C248.111 0.973408 248.163 0.9897 248.224 1.00223C248.522 1.06362 248.522 1.06488 249.015 1.03982C249.227 1.02855 249.431 1.02103 249.608 1.07115C249.772 1.11751 249.967 1.12627 250.192 1.11249C250.616 1.08743 251.044 1.06864 251.477 1.0511C251.611 1.04483 251.736 1.06613 251.849 1.09871C252.017 1.15008 252.225 1.14507 252.437 1.13129C252.718 1.11375 252.995 1.09621 253.233 1.16637C253.28 1.18141 253.354 1.2027 253.406 1.20144C253.76 1.19142 254.12 1.18391 254.466 1.1601C254.812 1.1363 254.98 1.21398 255.218 1.25157C255.573 1.23528 255.932 1.21899 256.287 1.2027C256.356 1.19894 256.438 1.18767 256.499 1.19394C256.754 1.22025 256.901 1.31422 257.251 1.2854C257.455 1.26911 257.675 1.2641 257.887 1.26035C257.943 1.25909 258.017 1.28038 258.056 1.29667C258.078 1.30544 258.056 1.32925 258.03 1.34177C257.952 1.37686 257.857 1.40944 257.788 1.44578C257.779 1.45079 257.861 1.47334 257.909 1.48336C258.026 1.50591 258.16 1.50216 258.315 1.49214C258.449 1.48337 258.588 1.50091 258.683 1.5385C258.722 1.55353 258.709 1.57859 258.627 1.66128C258.627 1.72268 258.718 1.69511 258.748 1.65501C258.796 1.59738 258.705 1.57858 258.532 1.60991C258.411 1.63246 258.35 1.66504 258.38 1.69135C258.398 1.70514 258.48 1.72268 258.627 1.66128C259.007 1.58611 259.293 1.57233 259.579 1.55855C259.652 1.55479 259.739 1.54225 259.79 1.54977C259.976 1.57984 260.15 1.61618 260.331 1.65001C260.539 1.64249 260.733 1.62369 260.937 1.67256C261.222 1.74147 261.235 1.73521 261.512 1.72142C261.655 1.71391 261.798 1.70765 261.94 1.70139C262.083 1.69512 262.195 1.71391 262.321 1.74273C262.576 1.80162 262.598 1.80161 262.766 1.72142C262.866 1.67256 262.935 1.65627 263.061 1.67883C263.476 1.75526 263.48 1.76027 263.835 1.73771C264.129 1.71892 264.406 1.71391 264.622 1.78533C264.769 1.83544 264.817 1.82417 264.934 1.77154C265.245 1.63247 265.388 1.63497 265.972 1.7352C266.244 1.78282 266.526 1.73145 266.802 1.72519C267.036 1.72017 267.2 1.75024 267.218 1.82918C267.231 1.87804 267.27 1.91313 267.425 1.92942C267.486 1.93568 267.559 1.94445 267.62 1.94194C267.979 1.92691 268.334 1.90936 268.693 1.89182C268.874 1.88305 268.974 1.82417 268.939 1.74649C268.9 1.6638 268.969 1.63371 269.229 1.60991C269.385 1.59613 269.51 1.59864 269.636 1.6212C269.774 1.64626 269.735 1.66881 269.614 1.71391C269.324 1.82417 269.359 1.89182 269.731 1.96825C269.861 1.99456 269.964 2.01838 269.995 2.05722C270.012 2.07727 269.995 2.10358 270.034 2.11861C270.246 2.20256 270.54 2.25645 270.868 2.29654C271.184 2.26271 271.401 2.31908 271.643 2.36419C271.833 2.39927 272.058 2.36921 272.261 2.35668C272.491 2.3429 272.681 2.35292 272.845 2.39928C272.962 2.43185 273.083 2.44688 273.226 2.44062C273.511 2.42683 273.801 2.41807 274.082 2.39802C274.325 2.38048 274.506 2.40554 274.658 2.44814C274.848 2.50202 275.06 2.46568 275.259 2.4732C275.527 2.48197 275.661 2.59347 276.012 2.5634C276.219 2.54586 276.436 2.5396 276.652 2.53459C276.708 2.53334 276.777 2.55464 276.825 2.56967C277.054 2.63859 277.322 2.63483 277.617 2.61478C277.82 2.601 278.019 2.58847 278.218 2.63609C278.546 2.71627 278.91 2.78644 279.256 2.86037C279.304 2.918 279.269 2.98565 279.515 3.01948C279.645 3.03702 279.766 3.06334 279.866 3.09216C279.987 3.12599 280.099 3.13476 280.255 3.12599C280.536 3.10845 280.831 3.10468 281.107 3.08213C281.363 3.06208 281.523 3.10344 281.678 3.14228C281.804 3.17361 281.921 3.18863 282.072 3.16608C282.228 3.14478 282.34 3.15856 282.466 3.19239C282.643 3.23875 282.656 3.23374 283.244 3.24753C283.305 3.24878 283.378 3.26756 283.413 3.28385C283.43 3.29262 283.391 3.3177 283.361 3.33023C283.322 3.34526 283.261 3.36279 283.205 3.36655C282.565 3.39913 281.921 3.42795 281.28 3.46052C281.215 3.46428 281.146 3.47306 281.099 3.48559C281.047 3.49937 280.982 3.51816 280.982 3.5357C280.982 3.54823 281.068 3.56327 281.129 3.57204C281.319 3.60086 281.544 3.557 281.73 3.58958C281.856 3.61088 281.959 3.64094 282.085 3.66099C282.137 3.66976 282.219 3.66851 282.284 3.66601C282.5 3.65724 282.712 3.64471 282.928 3.63719C282.989 3.63594 283.058 3.64848 283.114 3.6585C283.53 3.73368 283.53 3.73367 283.889 3.71738C284.031 3.71112 284.183 3.69232 284.317 3.69984C284.447 3.70736 284.559 3.74119 284.676 3.76249C284.918 3.80759 285.147 3.85145 285.165 3.94918C285.173 3.98677 285.316 4.01934 285.459 4.02184C285.597 4.02435 285.744 4.01058 285.887 4.00306C286.225 3.98803 286.225 3.98802 286.661 4.06445C286.783 4.08575 286.912 4.08826 287.068 4.07573C287.129 4.07071 287.202 4.07573 287.267 4.082C287.479 4.10079 287.479 4.12459 287.341 4.1697C287.146 4.2361 287.163 4.24237 287.708 4.29876C287.916 4.32006 288.076 4.36015 288.249 4.39524C288.53 4.45162 288.526 4.45161 288.34 4.52553C288.297 4.54182 288.258 4.55937 288.214 4.57691C288.089 4.62577 287.989 4.67839 287.73 4.68341C287.444 4.68842 287.159 4.70847 286.873 4.72225C286.597 4.73604 286.523 4.7661 286.549 4.8513C286.579 4.95404 286.635 4.96532 287.133 4.96407C287.276 4.96407 287.401 4.97409 287.509 5.00792C287.457 5.04801 287.362 5.07934 287.224 5.08685C286.869 5.10565 286.51 5.12194 286.155 5.13823C285.87 5.15201 285.584 5.16579 285.299 5.17957C285.122 5.18834 285.009 5.2535 285.057 5.32617C285.083 5.36752 285.104 5.40886 285.126 5.45021C285.173 5.53291 285.264 5.55421 285.554 5.55045C285.628 5.5492 285.697 5.53917 285.766 5.54168C286.047 5.55045 286.181 5.65444 286.519 5.63314C286.8 5.6156 287.094 5.61184 287.371 5.58929C287.626 5.56924 287.769 5.61436 287.946 5.64819C288.007 5.65946 288.072 5.68326 288.124 5.68201C288.483 5.66822 288.842 5.65445 289.192 5.63065C289.356 5.62062 289.456 5.62814 289.586 5.65821C289.897 5.73088 289.906 5.72712 290.369 5.70457C290.706 5.68702 290.71 5.68953 291.143 5.76596C291.264 5.78726 291.394 5.78725 291.549 5.77723C291.753 5.7647 291.965 5.74466 292.177 5.76345C292.242 5.76846 292.324 5.7835 292.345 5.79979C292.358 5.81107 292.298 5.83863 292.246 5.8474C291.865 5.91256 291.42 5.90128 291.004 5.92759C290.875 5.93511 290.745 5.9113 290.637 5.87747C290.524 5.84364 290.403 5.82987 290.256 5.83613C289.971 5.84991 289.681 5.85868 289.4 5.87873C289.157 5.89627 288.989 5.86745 288.82 5.82861C288.764 5.81608 288.699 5.79227 288.643 5.79352C288.002 5.81858 287.358 5.84364 286.722 5.87873C286.467 5.89376 286.32 5.85367 286.147 5.81984C286.086 5.80857 286.026 5.78476 285.969 5.78601C285.753 5.79102 285.541 5.8048 285.325 5.81483C284.538 5.85241 283.755 5.89 282.967 5.92509C282.915 5.92759 282.851 5.90128 282.79 5.89C282.673 5.86745 282.552 5.84614 282.431 5.82484C282.215 5.83487 282.003 5.8474 281.786 5.85491C281.631 5.85993 281.492 5.87747 281.471 5.92509C281.458 5.95641 281.6 5.98522 281.752 5.98272C281.899 5.98021 282.046 5.96517 282.167 5.98146C282.768 6.06165 282.768 6.06291 283.145 6.04662C283.473 6.03158 283.439 6.01905 283.729 6.08796C283.854 6.11803 283.967 6.13558 284.109 6.12806C284.464 6.11052 284.823 6.09298 285.182 6.07794C285.238 6.07544 285.312 6.08797 285.368 6.09799C285.792 6.17317 285.792 6.17567 286.142 6.15688C286.601 6.13433 286.618 6.12806 286.925 6.20449C287.137 6.25712 287.332 6.22078 287.535 6.21827C287.769 6.26714 288.024 6.311 288.236 6.36613C288.487 6.43128 288.751 6.41999 289.036 6.4012C289.248 6.38742 289.456 6.38241 289.629 6.43378C289.793 6.48139 289.992 6.48641 290.217 6.47388C290.42 6.4626 290.628 6.43879 290.84 6.46635C290.896 6.47387 290.983 6.49267 290.978 6.50395C290.974 6.52149 290.918 6.54655 290.862 6.55407C290.464 6.60544 290.027 6.60418 289.607 6.62799C289.551 6.63175 289.477 6.61796 289.421 6.60794C289.3 6.58539 289.183 6.55908 289.066 6.53527C288.855 6.54279 288.638 6.54529 288.431 6.56033C288.271 6.5716 288.149 6.57036 288.033 6.54029C287.924 6.51273 287.808 6.47889 287.678 6.47012C287.548 6.46135 287.397 6.48014 287.254 6.48766C287.111 6.49518 286.947 6.49141 286.835 6.51146C286.722 6.53151 286.653 6.57537 286.579 6.61045C286.497 6.64929 286.385 6.66183 286.22 6.66559C286.069 6.66934 285.948 6.66433 285.835 6.62924C285.788 6.61421 285.723 6.60293 285.658 6.5929C285.597 6.58413 285.528 6.57035 285.472 6.57285C284.827 6.60167 284.187 6.63301 283.543 6.66308C283.223 6.67811 283.227 6.6781 282.561 6.60418C282.5 6.59791 282.427 6.58914 282.366 6.59165C282.007 6.60669 281.652 6.62423 281.293 6.64177C280.93 6.65931 280.934 6.65681 280.316 6.57787C280.203 6.56283 280.039 6.58288 279.905 6.58038C279.624 6.57411 279.485 6.46887 279.156 6.48891C278.875 6.50646 278.581 6.51021 278.3 6.53277C278.045 6.55281 277.898 6.50896 277.725 6.47513C277.664 6.46386 277.599 6.4388 277.547 6.4413C276.903 6.46887 276.263 6.50019 275.406 6.50395C275.194 6.50395 275.289 6.53027 275.428 6.53904C275.627 6.55282 275.692 6.52651 275.583 6.47639C275.506 6.44131 275.393 6.42375 275.302 6.43252C275.255 6.43753 275.194 6.46135 275.406 6.50395C275.631 6.55156 275.618 6.57787 275.657 6.5929C275.752 6.62924 275.886 6.64428 276.025 6.63926C276.241 6.63049 276.453 6.61797 276.669 6.61045C276.73 6.60794 276.803 6.61671 276.86 6.62674C277.335 6.70442 277.34 6.70944 277.846 6.67937C278.006 6.6706 278.123 6.67059 278.248 6.6944C278.421 6.72698 278.547 6.7821 278.81 6.76456C279.161 6.74075 279.52 6.72698 279.879 6.7132C279.935 6.71069 279.996 6.73324 280.06 6.74327C280.238 6.77334 280.368 6.82972 280.631 6.80592C280.835 6.78712 281.055 6.7821 281.272 6.77834C281.328 6.77709 281.414 6.79714 281.44 6.81343C281.492 6.84224 281.427 6.87608 281.28 6.89989C281.22 6.90991 281.138 6.9074 281.068 6.91116C280.783 6.92494 280.497 6.93997 280.212 6.95125C280.06 6.95751 279.918 6.97632 279.9 7.02267C279.887 7.054 280.043 7.08156 280.19 7.07905C280.407 7.07529 280.623 7.06527 280.83 7.04898C281.198 7.02142 281.518 7.02893 281.817 7.10787C282.029 7.163 282.016 7.14296 282.241 7.30584C282.297 7.34719 282.466 7.35094 282.613 7.34844C282.967 7.34217 283.132 7.36097 283.101 7.39981C283.062 7.44743 282.937 7.46245 282.777 7.46872C282.491 7.47874 282.206 7.49504 281.921 7.50882C281.851 7.51258 281.773 7.52009 281.709 7.51758C281.644 7.51508 281.583 7.50005 281.527 7.48877C281.406 7.46496 281.302 7.42862 281.172 7.41985C281.042 7.41108 280.891 7.42988 280.748 7.43739C280.606 7.44366 280.454 7.46245 280.324 7.45368C280.195 7.44491 280.086 7.40733 279.97 7.38478C279.913 7.3735 279.844 7.35595 279.788 7.3572C279.503 7.36723 279.217 7.38352 278.932 7.39605C278.581 7.41234 278.581 7.41234 278.157 7.33466C278.036 7.3121 277.911 7.31336 277.751 7.32339C277.405 7.34343 277.4 7.33966 276.769 7.26699C276.708 7.25948 276.635 7.25071 276.574 7.25447C275.929 7.28329 275.289 7.31461 274.649 7.34468C274.1 7.37099 274.1 7.371 273.797 7.49629C273.572 7.58901 273.568 7.58901 273.788 7.63161C273.966 7.66669 274.126 7.71806 274.32 7.73685C274.502 7.75439 274.727 7.69801 274.926 7.75565C275.025 7.78447 275.155 7.81579 275.281 7.8208C275.48 7.82707 275.692 7.79073 275.882 7.84586C275.977 7.87342 276.12 7.90225 276.241 7.9035C276.453 7.90601 276.669 7.88595 276.881 7.87718C276.946 7.87468 277.02 7.87468 277.08 7.88094C277.145 7.88846 277.201 7.9035 277.257 7.91603C277.43 7.95863 277.617 7.97867 277.841 7.95737C278.209 7.92229 278.538 7.93983 278.823 8.02002C278.862 8.0313 278.957 8.03256 279.018 8.02754C279.174 8.01502 279.308 8.01376 279.425 8.03756C279.472 8.04759 279.541 8.06512 279.533 8.0764C279.52 8.09519 279.468 8.12025 279.412 8.12652C279.005 8.16912 278.568 8.17414 278.149 8.19669C278.092 8.1992 278.023 8.1829 277.967 8.17162C277.846 8.14907 277.742 8.11149 277.612 8.10272C277.482 8.09395 277.331 8.11023 277.188 8.1165C277.046 8.12276 276.894 8.14156 276.764 8.13404C276.635 8.12527 276.513 8.09394 276.41 8.06638C276.289 8.03505 276.172 8.0313 276.012 8.04383C275.804 8.06012 275.588 8.06262 275.376 8.07139C275.259 8.04759 275.142 8.02127 275.021 7.99871C274.965 7.98744 274.896 7.97366 274.835 7.97492C274.55 7.98494 274.264 7.99997 273.979 8.01375C273.693 8.02753 273.693 8.02755 273.209 7.94986C273.152 7.94109 273.079 7.93107 273.018 7.93357C272.659 7.94861 272.305 7.96739 271.946 7.98242C271.807 7.98869 271.682 7.97115 271.569 7.93732C271.461 7.90349 271.331 7.8847 271.197 7.89096C270.626 7.91727 270.055 7.94234 269.484 7.97366C269.255 7.98619 269.06 7.97492 268.905 7.92981C268.723 7.87844 268.52 7.89097 268.308 7.901C267.828 7.92605 267.823 7.92479 267.516 7.86089C267.455 7.84836 267.395 7.82455 267.339 7.82581C266.841 7.8446 266.34 7.86214 265.846 7.89222C265.587 7.9085 265.448 7.86465 265.275 7.83208C265.215 7.8208 265.15 7.79699 265.098 7.7995C264.739 7.81328 264.38 7.82581 264.03 7.85087C263.679 7.87593 263.545 7.75941 263.281 7.76066C262.922 7.76192 262.567 7.79074 262.213 7.80828C261.927 7.82206 261.642 7.83584 261.356 7.84962C261.071 7.8634 260.785 7.87467 260.5 7.89096C260.348 7.89973 260.236 7.88845 260.111 7.85713C259.951 7.81578 259.76 7.78322 259.587 7.74563C259.323 7.69175 259.323 7.69175 259.003 7.70678C258.934 7.71054 258.86 7.71304 258.791 7.7168C258.268 7.74436 258.268 7.74187 257.602 7.66293C257.571 7.65917 257.493 7.67296 257.463 7.68298C257.372 7.71556 257.29 7.75063 257.208 7.78446C257.091 7.76442 256.949 7.75314 256.871 7.72432C256.65 7.64288 256.304 7.75439 256.079 7.6742C255.997 7.64413 255.854 7.61782 255.724 7.6103C255.59 7.60278 255.439 7.62033 255.3 7.62784C254.941 7.64664 254.941 7.64539 254.634 7.7569C254.479 7.81203 254.254 7.802 254.05 7.81453C253.838 7.82832 253.635 7.83583 253.458 7.78446C253.298 7.7381 253.103 7.72683 252.874 7.74187C252.593 7.76066 252.303 7.77193 252.017 7.78321C251.957 7.78572 251.883 7.77946 251.823 7.77194C251.161 7.69801 251.161 7.69676 250.841 7.71305C250.698 7.72057 250.551 7.72307 250.412 7.73434C250.179 7.75439 250.002 7.72808 249.833 7.68798C249.777 7.67545 249.712 7.65166 249.655 7.65291C249.37 7.65918 249.089 7.67045 248.808 7.68173C248.591 7.6905 248.375 7.69551 248.167 7.71305C247.821 7.74187 247.653 7.66042 247.415 7.62283C247.06 7.63912 246.701 7.6504 246.346 7.67295C246.182 7.68297 246.074 7.67922 245.948 7.64915C245.788 7.61156 245.641 7.56896 245.382 7.58776C245.036 7.61282 244.672 7.62159 244.318 7.63662C244.08 7.59778 243.907 7.51884 243.565 7.54765C243.357 7.5652 243.137 7.56895 242.925 7.57898C242.639 7.59276 242.354 7.6053 242.068 7.62034C241.761 7.63537 241.765 7.63161 241.294 7.55769C241.021 7.51383 240.74 7.5627 240.463 7.57021C240.247 7.57648 240.139 7.63411 240.191 7.70804C240.243 7.78196 240.126 7.8396 239.927 7.84962C239.43 7.87343 238.928 7.89848 238.43 7.91978C238.37 7.92228 238.296 7.91351 238.24 7.90474C237.708 7.82581 237.708 7.82707 237.47 7.83835C237.115 7.85714 236.752 7.86716 236.402 7.89096C236.159 7.90725 235.982 7.88095 235.826 7.83835C235.705 7.80577 235.593 7.79825 235.437 7.80577C233.724 7.88972 232.011 7.9674 230.302 8.05385C230.047 8.06638 229.9 8.03005 229.727 7.99622C229.667 7.98494 229.61 7.96113 229.55 7.96113C229.407 7.96113 229.264 7.97241 229.121 7.97993C228.481 8.01 227.841 8.04633 227.197 8.06889C226.924 8.07891 226.851 8.13655 226.734 8.18416C226.643 8.2205 226.539 8.23553 226.379 8.24054C226.223 8.24555 226.111 8.23928 225.99 8.20671C225.834 8.16411 225.657 8.13779 225.414 8.15533C225.133 8.17538 224.848 8.18416 224.558 8.19794C224.411 8.20421 224.298 8.22676 224.251 8.27186C224.242 8.27938 224.333 8.29818 224.385 8.30946C224.558 8.34705 224.722 8.3909 224.917 8.41721C225.116 8.44352 225.332 8.41344 225.54 8.40592C225.613 8.40342 225.683 8.39591 225.752 8.39716C225.817 8.39841 225.895 8.40468 225.942 8.41596C226.167 8.47234 226.405 8.51118 226.716 8.47735C226.985 8.49364 227.123 8.59763 227.465 8.57007C227.672 8.55378 227.889 8.54626 228.105 8.54C228.161 8.53874 228.222 8.5613 228.282 8.57258C228.455 8.6039 228.594 8.65402 228.853 8.63272C229.13 8.61016 229.424 8.60641 229.705 8.58886C229.861 8.57884 229.974 8.58761 230.095 8.62019C230.25 8.66154 230.428 8.69285 230.67 8.6728C230.878 8.65526 231.098 8.6515 231.31 8.64022C231.587 8.62644 231.587 8.6277 232.08 8.70538C232.137 8.71415 232.21 8.72418 232.271 8.72167C232.63 8.70663 232.984 8.68784 233.343 8.6728C233.482 8.66654 233.616 8.68283 233.711 8.71916C233.75 8.7342 233.737 8.75927 233.75 8.78057C233.036 8.8144 232.322 8.84321 231.613 8.88456C231.345 8.90085 231.224 8.84948 231.046 8.82066C230.986 8.81063 230.921 8.78934 230.865 8.79184C230.363 8.81314 229.866 8.83569 229.368 8.86325C229.212 8.87202 229.096 8.86701 228.979 8.83068C228.68 8.7342 228.317 8.78682 227.98 8.80061C227.72 8.81063 227.638 8.84948 227.668 8.93217C227.707 9.0299 227.863 9.05997 228.261 9.04243C228.403 9.03617 228.546 9.02739 228.689 9.02238C228.827 9.01737 228.953 9.03366 229.065 9.06749C229.173 9.10132 229.303 9.11886 229.437 9.11384C229.723 9.10257 230.013 9.0913 230.289 9.0725C230.519 9.05747 230.709 9.06999 230.869 9.11635C231.046 9.16772 231.254 9.15644 231.462 9.14517C231.946 9.12011 231.95 9.12137 232.253 9.18402C232.314 9.19655 232.374 9.22036 232.431 9.2191C232.928 9.20031 233.43 9.18402 233.919 9.15395C234.174 9.13891 234.321 9.179 234.49 9.21158C234.55 9.22285 234.611 9.24792 234.667 9.24541C235.026 9.23163 235.385 9.21784 235.735 9.19404C235.9 9.18276 235.999 9.19027 236.133 9.22034C236.453 9.29427 236.462 9.29176 236.916 9.26795C237.055 9.26044 237.206 9.24666 237.336 9.25668C237.466 9.26671 237.57 9.30305 237.691 9.3256C237.747 9.33562 237.816 9.3494 237.877 9.34689C238.162 9.33687 238.448 9.32184 238.733 9.30806C239.001 9.29428 239.001 9.29553 239.503 9.37321C239.706 9.40579 239.918 9.37822 240.122 9.3682C240.342 9.35692 240.541 9.35693 240.71 9.40579C240.879 9.45466 241.082 9.45214 241.298 9.44212C241.502 9.43209 241.709 9.40454 241.917 9.43837C242.393 9.51605 242.393 9.51729 242.687 9.50226C243.115 9.48096 243.539 9.46091 243.972 9.44212C244.028 9.43961 244.101 9.45465 244.157 9.46468C244.279 9.48723 244.382 9.52481 244.512 9.53358C244.642 9.5436 244.793 9.52857 244.932 9.52105C245.377 9.49725 245.408 9.48848 245.706 9.57118C245.957 9.63883 246.268 9.54111 246.502 9.61879C246.636 9.66264 246.818 9.69772 247.069 9.67642C247.276 9.65888 247.493 9.65386 247.709 9.64384C248.051 9.62755 248.051 9.62882 248.483 9.704C248.539 9.71402 248.613 9.72654 248.669 9.72403C248.955 9.71401 249.245 9.70524 249.521 9.68269C249.846 9.65638 250.053 9.70399 250.296 9.75035C250.486 9.78669 250.711 9.75661 250.914 9.74408C251.135 9.73155 251.334 9.73531 251.498 9.78417C251.671 9.83429 251.874 9.82803 252.091 9.818C252.294 9.80923 252.502 9.78041 252.709 9.81549C253.155 9.89318 253.155 9.89318 253.479 9.87814C253.765 9.86436 254.05 9.84933 254.336 9.83931C254.392 9.8368 254.461 9.85309 254.517 9.86436C254.639 9.88692 254.742 9.92451 254.872 9.93328C255.002 9.94205 255.153 9.92577 255.296 9.9195C255.439 9.91323 255.59 9.89444 255.72 9.90196C255.85 9.90947 255.971 9.9408 256.075 9.96837C256.196 10.0009 256.308 10.0047 256.473 9.99217C256.68 9.97588 256.897 9.97212 257.108 9.96335C257.225 9.98716 257.346 10.011 257.459 10.0373C257.576 10.0648 257.701 10.0623 257.861 10.0536C258.393 10.0235 258.398 10.0273 258.843 10.1049C259.046 10.14 259.258 10.1112 259.462 10.1024C259.678 10.0924 259.881 10.0874 260.05 10.1375C260.214 10.1851 260.418 10.1914 260.634 10.1763C260.772 10.1663 260.919 10.1601 261.062 10.1563C261.127 10.1551 261.205 10.1601 261.253 10.1701C261.482 10.2227 261.707 10.2703 262.022 10.2365C262.299 10.2465 262.438 10.3493 262.771 10.3292C263.052 10.3117 263.346 10.3079 263.623 10.2854C263.878 10.2653 264.06 10.3004 264.19 10.3443C264.423 10.4219 264.752 10.3167 264.986 10.3931C265.12 10.437 265.293 10.4721 265.552 10.4533C265.838 10.4332 265.929 10.4595 266.011 10.5385C266.058 10.5836 266.05 10.6199 265.963 10.655C265.877 10.6913 265.782 10.6851 265.643 10.6437C265.483 10.5974 265.293 10.5886 265.063 10.5986C264.839 10.6086 264.7 10.5435 264.514 10.5184C264.328 10.4921 264.108 10.536 263.913 10.5021C263.454 10.4232 263.454 10.4232 263.143 10.4382C262.931 10.4482 262.71 10.4533 262.503 10.4708C262.256 10.4921 262.096 10.4533 261.927 10.4182C261.867 10.4056 261.806 10.3818 261.754 10.3831C261.257 10.4019 260.755 10.4194 260.262 10.4508C260.002 10.467 259.864 10.4219 259.691 10.3906C259.63 10.3793 259.565 10.3568 259.514 10.3593C259.085 10.3768 258.661 10.3994 258.233 10.4207C258.151 10.4545 258.06 10.4871 257.982 10.5234C257.9 10.561 257.788 10.5773 257.623 10.576C257.351 10.576 257.083 10.6287 256.81 10.5623C256.529 10.4946 256.507 10.4984 256.235 10.5147C255.889 10.536 255.521 10.5309 255.197 10.5798C255.14 10.5886 255.08 10.6124 255.08 10.6299C255.075 10.6412 255.166 10.6575 255.223 10.6675C255.413 10.6976 255.633 10.6537 255.824 10.6851C255.949 10.7051 256.053 10.7352 256.178 10.7565C256.23 10.7652 256.308 10.764 256.377 10.7627C256.451 10.7615 256.52 10.7527 256.589 10.754C256.654 10.7552 256.724 10.7627 256.776 10.774C257.013 10.8216 257.264 10.8655 257.476 10.9219C257.684 10.977 257.878 10.9394 258.086 10.9369C258.917 11.0246 258.917 11.0259 259.475 10.9983C259.613 10.992 259.756 10.9845 259.899 10.9858C259.959 10.9858 260.015 11.0083 260.076 11.0208C260.249 11.0584 260.413 11.0923 260.656 11.0722C260.863 11.0547 261.084 11.0509 261.296 11.0396C261.581 11.0259 261.581 11.0259 262.066 11.1048C262.187 11.1248 262.317 11.1223 262.472 11.1123C262.606 11.1035 262.745 11.1223 262.84 11.1587C262.879 11.1737 262.866 11.1988 262.879 11.2201C262.451 11.2401 262.018 11.2539 261.603 11.284C261.335 11.3028 261.214 11.2489 261.036 11.2201C260.976 11.21 260.911 11.1887 260.855 11.1912C260.431 11.21 260.007 11.2313 259.583 11.2564C259.531 11.2589 259.466 11.2877 259.462 11.3053C259.453 11.3378 259.561 11.3692 259.717 11.3679C259.924 11.3667 260.128 11.3453 260.314 11.3967C260.47 11.4418 260.664 11.4619 260.893 11.4418C261.032 11.4306 261.179 11.4306 261.317 11.4205C261.685 11.3905 262.018 11.3967 262.295 11.4819C262.507 11.5045 262.715 11.4832 262.918 11.4719C263.069 11.4631 263.216 11.4544 263.324 11.4782C263.554 11.5283 263.779 11.5784 264.094 11.5446C264.436 11.5797 264.696 11.6536 264.981 11.7137C265.115 11.7425 265.219 11.7588 265.375 11.74C265.44 11.7325 265.518 11.7325 265.587 11.7288C265.73 11.7225 265.881 11.7037 266.011 11.7112C266.141 11.72 266.249 11.7563 266.365 11.7789C266.422 11.7902 266.487 11.8089 266.543 11.8077C266.759 11.8014 266.971 11.7889 267.183 11.7789C267.395 11.7701 267.607 11.7613 267.819 11.7526C267.996 11.7851 268.178 11.8177 268.355 11.8503C268.641 11.8365 268.926 11.8227 269.207 11.8102C269.523 11.7952 269.523 11.7964 269.977 11.8741C270.181 11.9092 270.397 11.8866 270.592 11.8703C270.916 11.844 271.132 11.8916 271.362 11.9418C271.409 11.9518 271.496 11.9581 271.552 11.953C271.777 11.9355 271.971 11.9493 272.136 11.9956C272.253 12.0282 272.369 12.0433 272.512 12.037C273.01 12.0132 273.507 11.9881 274.005 11.9668C274.065 11.9643 274.134 11.9756 274.191 11.9856C274.632 12.062 274.636 12.0658 274.96 12.0458C275.25 12.0282 275.519 12.0207 275.748 12.0896C275.795 12.1046 275.869 12.1259 275.921 12.1247C276.275 12.1122 276.635 12.0984 276.985 12.0771C277.145 12.0671 277.257 12.0708 277.383 12.0996C277.543 12.136 277.686 12.1798 277.95 12.1635C278.681 12.1172 278.685 12.1247 279.55 12.2111C279.611 12.2174 279.693 12.2074 279.762 12.2024C279.909 12.1898 280.017 12.2074 280.147 12.2362C280.437 12.3014 280.445 12.2976 280.722 12.2838C280.934 12.2725 281.155 12.27 281.362 12.2512C281.683 12.2237 281.895 12.2725 282.132 12.3189C282.323 12.3552 282.543 12.3252 282.747 12.3139C282.967 12.3014 283.166 12.3051 283.331 12.3527C283.443 12.3853 283.564 12.4029 283.707 12.3966C284.204 12.374 284.702 12.349 285.199 12.3264C285.26 12.3239 285.333 12.3339 285.39 12.3427C285.883 12.4204 285.883 12.4242 286.372 12.3953C286.527 12.3866 286.657 12.3841 286.774 12.4104C286.886 12.4354 287.008 12.4592 287.124 12.483C287.336 12.4743 287.553 12.4718 287.76 12.4567C287.92 12.4455 288.033 12.4505 288.158 12.4768C288.322 12.5106 288.461 12.5695 288.72 12.5407C288.855 12.5269 289.01 12.5307 289.144 12.5181C289.304 12.5018 289.413 12.5119 289.538 12.5444C289.694 12.5833 289.854 12.6234 290.105 12.6033C290.381 12.5808 290.676 12.577 290.957 12.5595C291.112 12.5494 291.221 12.5595 291.346 12.592C291.502 12.6334 291.679 12.6597 291.921 12.6434C292.415 12.6121 292.419 12.6184 292.899 12.6973C293.02 12.7173 293.15 12.7148 293.306 12.7048C293.44 12.696 293.578 12.7148 293.673 12.7512C293.764 12.7913 293.755 12.8163 293.764 12.8376ZM255.218 1.53724C255.075 1.54351 254.933 1.55102 254.725 1.44202C254.712 1.42322 254.721 1.40067 254.691 1.38439C254.621 1.35056 254.513 1.32675 254.383 1.32299C254.15 1.31798 253.869 1.36057 253.873 1.39315C253.877 1.42072 253.951 1.44452 254.094 1.46707C254.154 1.47584 254.202 1.49088 254.258 1.5009C254.422 1.52972 254.552 1.58611 254.79 1.55729C254.747 1.47961 254.768 1.51845 254.79 1.55729C254.768 1.60491 254.833 1.63874 254.989 1.65252C255.032 1.65628 255.097 1.65377 255.132 1.64625C255.266 1.61868 255.287 1.5811 255.188 1.48212C255.171 1.49841 255.184 1.52722 255.223 1.53473C255.261 1.54225 255.357 1.536 255.404 1.52722C255.525 1.50342 255.586 1.47209 255.556 1.44578C255.538 1.432 255.456 1.41446 255.404 1.41446C255.313 1.41446 255.231 1.44202 255.218 1.53724ZM290.195 16.0677C289.88 16.0915 289.516 16.0828 289.201 16.1316C289.144 16.1404 289.088 16.163 289.084 16.1805C289.079 16.1918 289.166 16.2081 289.218 16.2168C289.335 16.2369 289.464 16.2306 289.616 16.2244C289.845 16.2156 289.979 16.2732 290.157 16.302C290.213 16.3108 290.286 16.3171 290.347 16.3146C290.697 16.2995 291.043 16.2833 291.394 16.2657C291.454 16.2619 291.519 16.2532 291.571 16.2419C291.744 16.2056 291.727 16.1818 291.558 16.1542C291.372 16.1241 291.225 16.074 291.035 16.0502C290.762 16.0164 290.485 16.0615 290.195 16.0677ZM265.63 16.9824C265.418 16.9924 265.21 17.0024 264.998 17.0125C264.929 17.0162 264.856 17.0175 264.791 17.0225C264.657 17.0313 264.557 17.0576 264.492 17.0989C264.592 17.1315 264.713 17.1503 264.847 17.1465C265.059 17.139 265.267 17.1227 265.479 17.119C265.708 17.114 265.842 17.1703 266.019 17.1992C266.076 17.2079 266.145 17.2092 266.21 17.2104C266.53 17.2154 266.724 17.1503 266.664 17.0588C266.621 16.9874 266.456 16.9448 266.257 16.9536C266.05 16.9623 265.838 16.9724 265.63 16.9824ZM291.675 14.2159C291.727 14.1946 291.783 14.1795 291.809 14.1607C291.887 14.0968 291.857 14.0492 291.714 13.9991C291.541 13.9377 291.329 13.9791 291.134 13.9853C291.087 13.9866 291.035 14.0129 291.009 14.0292C290.991 14.0405 290.991 14.0643 291.017 14.0705C291.229 14.1207 291.454 14.167 291.675 14.2159ZM254.15 10.5147C253.942 10.5247 253.73 10.5322 253.523 10.546C253.471 10.5497 253.423 10.5735 253.393 10.5898C253.337 10.6199 253.397 10.6612 253.574 10.665C253.778 10.67 253.99 10.6487 254.202 10.6387C254.47 10.6262 254.63 10.5798 254.53 10.5397C254.435 10.5009 254.306 10.4934 254.15 10.5147ZM26.4514 7.83709C26.5898 7.83083 26.7325 7.82581 26.8709 7.81704C27.0007 7.80827 27.1003 7.78071 27.1652 7.73936C27.057 7.70678 26.9359 7.68924 26.8018 7.693C26.5898 7.70052 26.3822 7.71054 26.1746 7.72307C26.0448 7.73059 25.9194 7.75815 25.8891 7.80075C25.8588 7.83333 26.1486 7.85213 26.4514 7.83709ZM235.857 7.64413C235.913 7.65541 235.969 7.67797 236.025 7.67797C236.164 7.67797 236.306 7.67044 236.436 7.65791C236.492 7.6529 236.536 7.63035 236.562 7.61281C236.579 7.60153 236.575 7.58149 236.549 7.57147C236.423 7.51133 235.921 7.53263 235.839 7.60154C235.831 7.61407 235.852 7.63035 235.857 7.64413ZM222.209 0.782963C222.222 0.80301 222.226 0.823055 222.244 0.843102C222.278 0.880691 222.373 0.908261 222.512 0.927056C222.62 0.895732 222.676 0.860655 222.672 0.823066C222.668 0.803019 222.655 0.782959 222.637 0.762911C222.603 0.725323 222.508 0.697768 222.369 0.678973C222.261 0.709044 222.209 0.744121 222.209 0.782963ZM301.671 17.2004C301.633 17.2167 301.594 17.233 301.55 17.248C301.667 17.2844 301.775 17.2956 301.858 17.2756C301.909 17.2631 301.94 17.2443 301.979 17.228C301.862 17.1916 301.758 17.1816 301.671 17.2004ZM298.981 17.3708C299.037 17.3821 299.089 17.3971 299.15 17.4046C299.249 17.4172 299.34 17.3959 299.409 17.3508C299.353 17.3395 299.301 17.3244 299.24 17.3169C299.141 17.3044 299.05 17.3257 298.981 17.3708ZM300.685 17.1415C300.655 17.1716 300.716 17.1966 300.876 17.218C300.915 17.2017 300.966 17.1866 300.992 17.1691C301.036 17.1403 300.962 17.114 300.806 17.0939C300.763 17.1089 300.724 17.1252 300.685 17.1415ZM291.554 15.7908C291.523 15.8209 291.584 15.846 291.744 15.8673C291.783 15.851 291.835 15.8359 291.861 15.8184C291.904 15.7896 291.831 15.7633 291.675 15.7432C291.632 15.7583 291.593 15.7745 291.554 15.7908ZM279.113 6.92494C279.074 6.94123 279.035 6.95752 278.992 6.97255C279.109 7.00889 279.217 7.02016 279.299 7.00011C279.351 6.98758 279.381 6.96879 279.42 6.9525C279.303 6.91617 279.2 6.90615 279.113 6.92494ZM267.196 2.22135C267.3 2.23012 267.386 2.21259 267.46 2.16623C267.404 2.15495 267.352 2.13991 267.291 2.1324C267.192 2.11987 267.101 2.14117 267.032 2.18628C267.088 2.19881 267.144 2.21007 267.196 2.22135ZM260.868 1.92691C260.829 1.9432 260.79 1.95949 260.746 1.97452C260.863 2.01086 260.971 2.02213 261.054 2.00208C261.105 1.98955 261.136 1.97076 261.175 1.95447C261.058 1.91814 260.954 1.90937 260.868 1.92691ZM217.953 0.781709C217.914 0.797997 217.875 0.814286 217.832 0.829322C217.948 0.865657 218.057 0.87693 218.139 0.856883C218.191 0.844353 218.221 0.825558 218.26 0.80927C218.143 0.772934 218.039 0.764167 217.953 0.781709ZM4.26937 10.9757C4.21314 10.9645 4.15695 10.9532 4.10505 10.9407C3.9796 10.9745 3.94068 11.0058 4.00989 11.0296C4.05315 11.0447 4.11799 11.0534 4.17422 11.0647C4.30399 11.0309 4.33426 11.0008 4.26937 10.9757Z" fill="#4F9CF9"/>
<path d="M29.3578 6.55133C28.8603 6.57514 28.3672 6.6052 27.8698 6.62024C27.6059 6.62775 27.5108 6.68163 27.4027 6.73175C27.3162 6.77185 27.2167 6.78437 27.0566 6.79189C25.707 6.85328 24.3617 6.91844 23.0164 6.98234C22.8477 6.96605 22.7655 6.93975 22.8045 6.90842C22.8261 6.88963 22.878 6.86331 22.9299 6.86081C23.8513 6.81445 24.7683 6.76683 25.694 6.7305C25.9578 6.72047 26.0314 6.66534 26.1655 6.62024C26.2088 6.6052 26.2434 6.58265 26.2996 6.57388C26.3559 6.56385 26.438 6.56511 26.5116 6.56261C27.9996 6.49119 29.4877 6.42103 30.9757 6.34961C31.1444 6.3659 31.2266 6.39221 31.1876 6.42353C31.166 6.44232 31.1141 6.46864 31.0622 6.47114C30.4912 6.49745 29.9244 6.52377 29.3578 6.55133Z" fill="#4F9CF9"/>
<path d="M301.728 13.2236C301.503 13.2386 301.218 13.2599 300.984 13.1872C300.872 13.1521 300.751 13.1409 300.604 13.1484C300.392 13.1609 300.175 13.1709 299.959 13.1785C299.903 13.1797 299.829 13.1659 299.773 13.1546C299.652 13.1321 299.548 13.0945 299.418 13.0845C299.289 13.0745 299.133 13.102 298.999 13.0958C298.821 13.087 298.748 13.0532 298.795 13.0218C298.821 13.0043 298.873 12.9792 298.93 12.9755C299.73 12.9291 299.734 12.9291 299.959 12.9742C300.132 13.0093 300.292 13.0481 300.539 13.0268C300.746 13.0093 300.967 13.0055 301.179 12.9943C301.473 12.9792 301.473 12.9805 301.949 13.0594C302.07 13.0795 302.2 13.0782 302.355 13.0669C302.49 13.0582 302.619 13.0782 302.727 13.112C302.658 13.1546 302.559 13.1822 302.425 13.1897C302.208 13.2023 301.996 13.211 301.728 13.2236Z" fill="#4F9CF9"/>
<path d="M293.766 12.8375C294.311 12.8112 294.86 12.7887 295.405 12.7586C295.63 12.7461 295.807 12.7598 295.963 12.8024C296.132 12.8488 296.322 12.845 296.53 12.8363C296.66 12.8313 296.785 12.8513 296.872 12.8864C296.906 12.9002 296.897 12.9252 296.91 12.9453C296.435 12.9678 295.954 12.9916 295.474 13.0117C295.418 13.0142 295.349 13.0017 295.297 12.9916C295.18 12.9703 295.081 12.9327 294.955 12.9252C294.687 12.9077 294.419 12.9415 294.146 12.9478C294.017 12.9503 293.891 12.9315 293.805 12.8977C293.77 12.8814 293.779 12.8576 293.766 12.8375Z" fill="#4F9CF9"/>
<path d="M96.7959 2.06458C97.3626 2.03702 97.9292 2.01072 98.4959 1.98315C98.6646 2.0007 98.7425 2.02575 98.7079 2.05707C98.6862 2.07587 98.6343 2.10218 98.5824 2.10469C97.4491 2.16107 96.3158 2.21494 95.1868 2.26882C95.0181 2.25127 94.9403 2.22622 94.9749 2.1949C94.9965 2.1761 95.0484 2.14979 95.1003 2.14728C95.6627 2.11847 96.2293 2.09215 96.7959 2.06458Z" fill="#4F9CF9"/>
<path d="M9.47787 9.02769C9.22266 9.0302 8.95452 9.07656 8.66903 9.04147C8.61279 9.03521 8.53491 9.01515 8.53924 9.00388C8.54789 8.98508 8.5998 8.96127 8.65604 8.95376C8.9026 8.92243 9.20975 8.91868 9.33519 8.83097C9.39575 8.78586 9.50822 8.77084 9.65962 8.76207C9.81967 8.75204 9.9321 8.75579 10.0575 8.7821C10.2219 8.81593 10.3604 8.87858 10.6199 8.846C10.6329 8.86605 10.6631 8.8886 10.6501 8.9074C10.6371 8.92619 10.581 8.94374 10.5291 8.95752C10.4815 8.97005 10.4166 8.98132 10.356 8.98508C10.0705 9.00012 9.78499 9.01266 9.47787 9.02769Z" fill="#4F9CF9"/>
<path d="M234.447 8.77563C234.659 8.7656 234.88 8.76059 235.087 8.74305C235.252 8.72927 235.356 8.73803 235.485 8.7681C235.706 8.82073 235.719 8.81572 236.26 8.82324C236.32 8.82449 236.394 8.84328 236.428 8.85956C236.45 8.86834 236.42 8.89216 236.394 8.90468C236.355 8.92097 236.299 8.94226 236.247 8.94226C235.905 8.94602 235.559 9.01996 235.226 8.93475C235.057 8.89215 234.871 8.87209 234.642 8.89089C234.503 8.90217 234.356 8.90718 234.214 8.91219C234.075 8.91721 233.933 8.90342 233.846 8.86584C233.721 8.81071 233.794 8.78941 234.019 8.79317C234.162 8.79568 234.305 8.78189 234.447 8.77563Z" fill="#4F9CF9"/>
<path d="M312.843 17.4124C313.116 17.3999 313.388 17.3848 313.665 17.3748C313.722 17.3723 313.791 17.3861 313.843 17.3949C314.05 17.4325 314.02 17.4963 314.029 17.5527C314.033 17.6116 313.553 17.6592 313.35 17.6191C313.125 17.574 312.921 17.5227 312.61 17.5502C312.489 17.5603 312.346 17.5377 312.268 17.5014C312.151 17.4487 312.216 17.4274 312.437 17.4312C312.567 17.4337 312.705 17.4199 312.843 17.4124Z" fill="#4F9CF9"/>
<path d="M175.514 0.358252C175.795 0.34447 176.076 0.32318 176.357 0.321927C176.522 0.320674 176.604 0.362014 176.565 0.392085C176.543 0.410879 176.491 0.437192 176.439 0.439697C175.877 0.469768 175.315 0.494832 174.752 0.522397C174.588 0.504855 174.506 0.478548 174.545 0.448477C174.566 0.429682 174.618 0.404623 174.67 0.400864C174.951 0.383323 175.232 0.372035 175.514 0.358252Z" fill="#4F9CF9"/>
<path d="M307.45 13.3339C307.722 13.3214 307.999 13.3026 308.272 13.2963C308.414 13.2938 308.527 13.3226 308.544 13.3552C308.553 13.3702 308.484 13.3965 308.427 13.4028C308.038 13.4454 307.618 13.4504 307.212 13.4717C307.082 13.478 306.944 13.4579 306.866 13.4228C306.749 13.369 306.814 13.3489 307.035 13.3527C307.173 13.3539 307.311 13.3402 307.45 13.3339Z" fill="#4F9CF9"/>
<path d="M241.592 8.94476C241.731 8.93849 241.873 8.9222 242.007 8.92721C242.15 8.93348 242.241 8.96981 242.284 9.00615C242.332 9.0475 242.327 9.08634 242.284 9.12143C242.215 9.18157 242.146 9.17906 241.986 9.13897C241.739 9.07632 241.722 9.08383 241.233 9.08634C241.177 9.08634 241.108 9.06754 241.064 9.05125C240.999 9.02619 241.034 8.98736 241.185 8.96481C241.298 8.94852 241.454 8.95102 241.592 8.94476Z" fill="#4F9CF9"/>
<path d="M297.315 12.9231C297.518 12.9131 297.721 12.8968 297.925 12.8968C298.067 12.8955 298.18 12.9243 298.193 12.9557C298.197 12.9707 298.132 12.9957 298.08 13.0033C297.834 13.0371 297.557 13.0396 297.289 13.0509C297.163 13.0559 297.025 13.0358 296.947 13.0008C296.83 12.9481 296.9 12.9243 297.111 12.9318C297.176 12.9343 297.246 12.9268 297.315 12.9231Z" fill="#4F9CF9"/>
<path d="M265.318 11.3856C265.015 11.4007 264.73 11.3819 264.751 11.3493C264.781 11.3067 264.907 11.2791 265.037 11.2716C265.244 11.2591 265.452 11.249 265.664 11.2415C265.798 11.2365 265.919 11.2553 266.027 11.2879C265.962 11.328 265.863 11.3568 265.733 11.3656C265.599 11.3743 265.456 11.3794 265.318 11.3856Z" fill="#4F9CF9"/>
<path d="M263.334 11.2252C263.538 11.2152 263.741 11.1989 263.944 11.1989C264.087 11.1976 264.199 11.2265 264.212 11.2578C264.217 11.2728 264.152 11.2979 264.1 11.3054C263.853 11.3392 263.576 11.3417 263.308 11.353C263.183 11.358 263.044 11.338 262.967 11.3029C262.85 11.2503 262.919 11.2265 263.131 11.234C263.196 11.2365 263.265 11.229 263.334 11.2252Z" fill="#4F9CF9"/>
<path d="M239.139 8.93484C239.342 8.92482 239.546 8.90852 239.749 8.90727C239.892 8.90601 240.004 8.93484 240.017 8.96617C240.021 8.9812 239.957 9.00501 239.905 9.01378C239.658 9.04761 239.381 9.05012 239.113 9.06139C238.988 9.0664 238.849 9.04635 238.771 9.01127C238.654 8.95865 238.724 8.93483 238.936 8.94235C239 8.94486 239.07 8.93735 239.139 8.93484Z" fill="#4F9CF9"/>
<path d="M238.002 8.86089C238.219 8.85087 238.288 8.8446 238.357 8.8446C238.487 8.8446 238.621 8.85964 238.699 8.89598C238.816 8.9486 238.746 8.96365 238.534 8.96615C238.262 8.96866 237.994 8.99497 237.721 8.99998C237.578 9.00249 237.466 8.97241 237.457 8.94108C237.453 8.92605 237.518 8.89974 237.57 8.89473C237.751 8.87593 237.95 8.86465 238.002 8.86089Z" fill="#4F9CF9"/>
<path d="M261.572 1.48955C261.434 1.49582 261.287 1.51336 261.157 1.50709C260.984 1.49832 260.915 1.4645 260.958 1.43317C260.984 1.41563 261.031 1.39058 261.083 1.38682C261.36 1.36927 261.641 1.35799 261.918 1.34546C262.083 1.36425 262.156 1.39056 262.113 1.42189C262.087 1.43943 262.039 1.46323 261.987 1.46825C261.853 1.48078 261.71 1.48329 261.572 1.48955Z" fill="#4F9CF9"/>
<path d="M93.6928 2.21235C93.8269 2.21109 93.948 2.22738 94.0518 2.25871C93.9869 2.2988 93.8918 2.32511 93.762 2.33639C93.6971 2.3414 93.6236 2.34515 93.5544 2.34641C93.4203 2.34891 93.2991 2.33137 93.1953 2.30005C93.2602 2.25995 93.3597 2.23364 93.4851 2.22237C93.55 2.21735 93.6236 2.21611 93.6928 2.21235Z" fill="#4F9CF9"/>
<path d="M305.973 13.329C305.968 13.2927 306.232 13.2513 306.47 13.2526C306.596 13.2538 306.725 13.2714 306.799 13.3052C306.911 13.3566 306.846 13.3766 306.634 13.3729C306.505 13.3704 306.366 13.3917 306.237 13.3879C306.089 13.3867 306.003 13.3591 305.973 13.329Z" fill="#4F9CF9"/>
<path d="M242.845 9.09644C242.841 9.08265 242.819 9.06637 242.832 9.05384C242.914 8.98493 243.412 8.96363 243.542 9.02377C243.563 9.03505 243.572 9.05384 243.555 9.06511C243.529 9.08265 243.481 9.10521 243.429 9.11022C243.295 9.12275 243.157 9.12902 243.018 9.13027C242.958 9.13027 242.901 9.10897 242.845 9.09644Z" fill="#4F9CF9"/>
<path d="M11.0173 8.82707C10.5068 8.85338 10.4982 8.85087 10.589 8.78822C10.6712 8.73184 10.8226 8.69801 11.0433 8.69801C11.1081 8.69801 11.1773 8.69551 11.2336 8.70052C11.2941 8.70679 11.3807 8.7193 11.3937 8.73434C11.4196 8.76316 11.346 8.79448 11.2162 8.81578C11.16 8.82581 11.0865 8.82331 11.0173 8.82707Z" fill="#4F9CF9"/>
<path d="M100.083 2.03605C99.9312 2.05735 99.8015 2.04983 99.7063 2.00974C99.6112 1.96964 99.7626 1.92203 100.026 1.91075C100.096 1.90824 100.169 1.89823 100.234 1.90324C100.299 1.907 100.364 1.92202 100.403 1.93706C100.472 1.96212 100.429 1.99596 100.29 2.02477C100.234 2.03605 100.152 2.03354 100.083 2.03605Z" fill="#4F9CF9"/>
<path d="M305.072 13.2347C305.11 13.2185 305.149 13.2022 305.193 13.1871C305.353 13.2084 305.422 13.2335 305.379 13.2623C305.353 13.2798 305.301 13.2949 305.262 13.3112C305.102 13.2899 305.037 13.2636 305.072 13.2347Z" fill="#4F9CF9"/>
<path d="M17.8691 23.0904C17.8691 23.0754 17.9297 23.0516 17.9773 23.0465C18.0681 23.0378 18.1805 23.0553 18.2584 23.0904C18.3665 23.1405 18.3017 23.1668 18.1027 23.153C17.9643 23.143 17.8691 23.118 17.8691 23.0904Z" fill="#4F9CF9"/>
<path d="M244.608 7.92992C244.664 7.94119 244.72 7.95247 244.772 7.965C244.699 8.01136 244.608 8.0314 244.513 8.01887C244.452 8.01135 244.4 7.99632 244.344 7.98504C244.417 7.93868 244.504 7.92115 244.608 7.92992Z" fill="#4F9CF9"/>
<path d="M243.111 7.87317C243.197 7.85438 243.301 7.86441 243.422 7.90075C243.383 7.91704 243.349 7.93583 243.301 7.94836C243.219 7.96841 243.111 7.95837 242.994 7.92078C243.029 7.90575 243.068 7.88946 243.111 7.87317Z" fill="#4F9CF9"/>
<path d="M241.963 7.9284C242.019 7.93968 242.076 7.95096 242.127 7.96349C242.054 8.00985 241.967 8.02989 241.868 8.01736C241.807 8.00984 241.755 7.9948 241.699 7.98353C241.773 7.93717 241.859 7.91838 241.963 7.9284Z" fill="#4F9CF9"/>
<path d="M241.121 7.86223C241.185 7.88729 241.151 7.91736 241.025 7.95119C240.969 7.93991 240.904 7.93115 240.861 7.91612C240.792 7.89231 240.826 7.86098 240.956 7.82715C241.008 7.83968 241.064 7.85096 241.121 7.86223Z" fill="#4F9CF9"/>
</svg>
