<svg width="410" height="49" viewBox="0 0 410 49" fill="none" xmlns="http://www.w3.org/2000/svg">
<path d="M390.305 10.0406C389.849 10.0565 389.387 10.0674 388.94 10.0912C388.649 10.1061 388.525 10.0624 388.331 10.0396C388.266 10.0316 388.197 10.0157 388.137 10.0177C387.685 10.0336 387.233 10.0515 386.781 10.0694C386.642 10.1081 386.555 10.1598 386.342 10.1787C386.135 10.1966 385.89 10.1966 385.66 10.2055C385.355 10.2165 385.051 10.2274 384.746 10.2373C384.594 10.2423 384.469 10.2612 384.419 10.2969C384.409 10.3029 384.511 10.3178 384.566 10.3268C384.751 10.3566 384.931 10.3903 385.134 10.4132C385.327 10.4351 385.567 10.3993 385.775 10.4271C386.241 10.4897 386.246 10.4887 386.601 10.4768C386.905 10.4659 387.21 10.454 387.514 10.446C387.574 10.444 387.643 10.4589 387.708 10.4669C387.902 10.4887 388.026 10.5384 388.312 10.5195C388.529 10.5046 388.769 10.5017 388.995 10.4937C389.184 10.5225 389.36 10.5553 389.563 10.5782C389.752 10.6 389.807 10.6169 389.706 10.6457C389.613 10.6726 389.484 10.6835 389.313 10.6855C389.161 10.6865 389.009 10.6954 388.857 10.7004C388.778 10.7034 388.705 10.7054 388.631 10.7083C388.34 10.7193 388.34 10.7193 387.81 10.6557C387.602 10.6308 387.367 10.6656 387.168 10.6418C387.034 10.6259 386.919 10.602 386.79 10.5851C386.735 10.5782 386.647 10.5772 386.578 10.5792C386.347 10.5861 386.116 10.5911 385.895 10.604C385.738 10.6129 385.646 10.6408 385.664 10.6686C385.669 10.6795 385.78 10.6954 385.844 10.6964C385.992 10.6984 386.149 10.6845 386.292 10.6915C386.43 10.6984 386.573 10.7183 386.675 10.7401C386.882 10.7859 387.117 10.7451 387.316 10.757C387.523 10.77 387.694 10.8097 387.893 10.8336C387.943 10.8395 388.04 10.8296 388.119 10.8266C388.345 10.8196 388.571 10.8137 388.797 10.8067C388.986 10.8355 389.189 10.8614 389.36 10.8942C389.669 10.9538 390.001 10.9766 390.402 10.9478C390.628 10.9319 390.85 10.9379 391.03 10.9766C391.214 11.0164 391.426 11.0124 391.662 11.0045C391.879 10.9965 392.1 10.9747 392.321 11.0025C392.801 11.0641 392.806 11.0671 393.373 11.0432C393.544 11.0363 393.673 11.0343 393.802 11.0571C393.922 11.078 394.051 11.0959 394.176 11.1158C394.402 11.1088 394.633 11.1019 394.859 11.0939C395.149 11.083 395.311 11.0969 395.38 11.1525C395.422 11.1863 395.44 11.2171 395.542 11.24C395.662 11.2678 395.791 11.2668 395.966 11.2589C396.132 11.2519 396.252 11.241 396.321 11.2052C396.349 11.1903 396.404 11.1764 396.455 11.1645C396.497 11.1555 396.561 11.1416 396.598 11.1436C396.667 11.1476 396.759 11.1585 396.783 11.1714C397.009 11.2917 397.009 11.2927 397.239 11.3274C397.493 11.3662 397.756 11.401 397.987 11.4447C398.194 11.4834 398.402 11.4666 398.628 11.4666C398.799 11.4666 398.909 11.4924 398.896 11.5182C398.886 11.5331 398.822 11.555 398.766 11.557C398.314 11.5768 397.858 11.5937 397.401 11.6077C397.345 11.6096 397.276 11.5918 397.212 11.5828C397.082 11.5649 396.967 11.5371 396.829 11.5311C396.69 11.5252 396.529 11.5401 396.377 11.545C396.224 11.55 396.063 11.5629 395.925 11.555C395.786 11.547 395.675 11.5182 395.546 11.4993C395.486 11.4904 395.403 11.4775 395.352 11.4805C395.016 11.5043 394.767 11.4715 394.527 11.4278C394.476 11.4189 394.388 11.4129 394.324 11.4149C393.789 11.4318 393.258 11.4516 392.723 11.4705C392.506 11.4785 392.331 11.4437 392.284 11.3851C392.261 11.3523 392.215 11.3195 392.215 11.2867C392.215 11.2271 391.962 11.1943 391.777 11.2012C391.473 11.2112 391.164 11.2191 390.864 11.234C390.619 11.2459 390.411 11.234 390.245 11.1982C390.052 11.1575 389.83 11.1655 389.609 11.1764C389.443 11.1843 389.396 11.2171 389.406 11.2996C389.415 11.3662 389.336 11.3871 389.037 11.398C388.658 11.4119 388.275 11.4258 387.893 11.4367C387.833 11.4387 387.763 11.4218 387.703 11.4129C387.574 11.395 387.459 11.3662 387.32 11.3602C387.182 11.3533 387.021 11.3682 386.868 11.3741C386.716 11.3791 386.555 11.393 386.416 11.3861C386.278 11.3791 386.162 11.3493 386.038 11.3304C385.978 11.3215 385.904 11.3085 385.844 11.3105C385.54 11.3185 385.235 11.3304 384.931 11.3413C384.589 11.3533 384.589 11.3533 384.105 11.2917C383.883 11.2638 383.662 11.2857 383.445 11.2936C383.215 11.3016 382.998 11.3056 382.818 11.2658C382.698 11.24 382.564 11.2241 382.421 11.2291C382.038 11.241 381.66 11.2559 381.277 11.2678C381.212 11.2698 381.125 11.2648 381.074 11.2559C380.829 11.2142 380.59 11.1814 380.248 11.2022C379.953 11.2201 379.635 11.2211 379.339 11.238C379.178 11.2469 379.104 11.2787 379.136 11.3036C379.155 11.3165 379.252 11.3314 379.316 11.3314C379.464 11.3324 379.625 11.3175 379.764 11.3235C380.05 11.3354 380.193 11.4188 380.566 11.396C380.788 11.3821 381.019 11.3771 381.249 11.3731C381.309 11.3721 381.374 11.391 381.438 11.401C381.623 11.4278 381.784 11.4626 382.052 11.4447C382.273 11.4308 382.509 11.4268 382.735 11.4189C383.095 11.4059 383.095 11.4069 383.561 11.4675C383.782 11.4964 384.003 11.4735 384.22 11.4666C384.382 11.4616 384.534 11.4516 384.663 11.4656C384.862 11.4864 385.005 11.5341 385.249 11.5311C385.48 11.5282 385.706 11.5142 385.936 11.5093C386.079 11.5063 386.213 11.5222 386.329 11.549C386.449 11.5759 386.578 11.5878 386.735 11.5818C386.961 11.5739 387.191 11.5639 387.422 11.559C387.487 11.558 387.56 11.5669 387.62 11.5749C387.75 11.5928 387.874 11.6136 387.999 11.6325C388.225 11.6265 388.455 11.6246 388.677 11.6126C388.848 11.6037 388.967 11.6077 389.106 11.6275C389.281 11.6544 389.424 11.7021 389.71 11.6792C389.853 11.6683 390.019 11.6713 390.162 11.6613C390.338 11.6484 390.458 11.6534 390.582 11.6832C390.817 11.7398 391.113 11.7408 391.417 11.719C391.749 11.6951 391.999 11.7229 392.248 11.7667C392.511 11.8124 392.511 11.8114 392.714 11.9217C392.774 11.9535 392.944 11.9684 393.087 11.9624C393.327 11.9525 393.535 11.9574 393.71 11.9952C393.895 12.0359 394.116 12.031 394.342 12.0201C394.642 12.0051 394.942 11.9922 395.186 12.0499C395.306 12.0777 395.436 12.0846 395.597 12.0777C396.054 12.0598 396.515 12.0489 396.963 12.027C397.235 12.0131 397.392 12.0449 397.576 12.0717C397.825 12.1085 398.097 12.1413 398.097 12.2198C398.097 12.2327 398.162 12.2476 398.217 12.2576C398.337 12.2784 398.467 12.2963 398.591 12.3162C398.776 12.346 398.955 12.3708 399.209 12.3549C399.431 12.342 399.666 12.338 399.892 12.3291C400.118 12.3202 400.326 12.3152 400.529 12.3529C400.764 12.3957 401.013 12.4364 401.281 12.4682C401.47 12.4911 401.719 12.4523 401.922 12.4831C402.047 12.502 402.166 12.5239 402.3 12.5398C402.356 12.5467 402.443 12.5417 402.517 12.5398C402.669 12.5358 402.826 12.5328 402.974 12.5229C403.145 12.5119 403.274 12.5139 403.403 12.5368C403.523 12.5577 403.643 12.5865 403.781 12.5924C403.989 12.6014 404.219 12.5616 404.427 12.6073C404.533 12.6302 404.667 12.6521 404.805 12.659C404.944 12.666 405.105 12.6511 405.253 12.6521C405.317 12.6521 405.396 12.668 405.433 12.6809C405.456 12.6878 405.424 12.7067 405.391 12.7166C405.35 12.7286 405.29 12.7445 405.23 12.7465C404.773 12.7643 404.316 12.7793 403.86 12.7961C403.587 12.8061 403.587 12.8061 403.038 12.7435C402.909 12.7286 402.766 12.7315 402.605 12.7385C402.388 12.7474 402.166 12.7643 401.94 12.7465C401.645 12.6789 401.281 12.6729 400.893 12.6988C400.732 12.7097 400.584 12.7097 400.464 12.6908C400.21 12.653 399.943 12.6183 399.717 12.5736C399.541 12.5388 399.458 12.5358 399.385 12.5835C399.362 12.5984 399.338 12.6143 399.343 12.6282C399.371 12.6779 399.421 12.7266 399.449 12.7763C399.458 12.7902 399.421 12.8061 399.398 12.821C399.325 12.8627 399.228 12.8597 399.066 12.825C398.905 12.7902 398.711 12.7673 398.453 12.7832C398.231 12.7971 397.991 12.7952 397.77 12.8101C397.428 12.8319 397.189 12.8001 396.944 12.7574C396.893 12.7484 396.806 12.7435 396.741 12.7455C396.054 12.7683 395.371 12.7942 394.684 12.817C394.536 12.822 394.402 12.8071 394.287 12.7802C394.167 12.7534 394.033 12.7395 393.885 12.7445C393.276 12.7653 392.667 12.7842 392.058 12.8101C391.809 12.821 391.611 12.8081 391.44 12.7733C391.311 12.7474 391.191 12.7395 391.03 12.7425C390.854 12.7455 390.73 12.7554 390.642 12.7842C390.559 12.812 390.619 12.8289 390.804 12.8508C391.002 12.8746 391.186 12.9055 391.376 12.9333C391.528 12.9293 391.68 12.9213 391.828 12.9223C391.892 12.9223 391.952 12.9402 392.017 12.9502C392.202 12.979 392.372 13.0078 392.635 12.9919C392.857 12.978 393.092 12.975 393.318 12.9661C393.632 12.9551 393.632 12.9551 394.139 13.0177C394.268 13.0336 394.407 13.0326 394.573 13.0237C394.716 13.0167 394.863 13.0307 394.965 13.0605C395.006 13.0724 394.993 13.0923 394.905 13.1579C394.905 13.2066 395.002 13.1847 395.034 13.1529C395.085 13.1072 394.988 13.0923 394.803 13.1171C394.674 13.135 394.61 13.1608 394.642 13.1817C394.66 13.1926 394.748 13.2066 394.905 13.1579C395.311 13.0982 395.62 13.0913 395.915 13.0754C396.091 13.0664 396.201 13.0704 396.34 13.0962C396.506 13.127 396.672 13.1599 396.944 13.144C397.239 13.1261 397.553 13.1241 397.853 13.1092C398.13 13.0952 398.273 13.139 398.448 13.1648C398.66 13.1956 398.895 13.1608 399.089 13.1787C399.292 13.1966 399.435 13.2403 399.671 13.2483C400.012 13.2215 400.229 13.2711 400.487 13.3039C400.69 13.3288 400.93 13.3069 401.147 13.296C401.391 13.2841 401.594 13.295 401.765 13.3308C401.959 13.3715 402.176 13.3626 402.397 13.3536C402.914 13.3337 402.932 13.3308 403.232 13.3854C403.449 13.4252 403.657 13.4073 403.873 13.4023C404.063 13.4291 404.247 13.458 404.445 13.4818C404.496 13.4878 404.593 13.4778 404.672 13.4749C404.898 13.4669 405.128 13.459 405.354 13.451C405.507 13.446 405.668 13.4311 405.806 13.4371C405.945 13.444 406.06 13.4729 406.185 13.4918C406.309 13.5106 406.438 13.5295 406.558 13.5494C406.743 13.5792 406.918 13.604 407.177 13.5891C407.398 13.5762 407.629 13.5722 407.859 13.5633C408.15 13.5524 408.141 13.5553 408.681 13.615C408.971 13.6478 409.271 13.608 409.566 13.604C409.714 13.6021 409.857 13.613 409.958 13.6418C410 13.6537 409.986 13.6736 410 13.6905C409.239 13.7173 408.473 13.7402 407.721 13.773C407.43 13.7859 407.278 13.7501 407.121 13.7203C406.863 13.6726 406.521 13.7422 406.277 13.6805C406.129 13.6438 405.917 13.6229 405.663 13.6408C405.516 13.6507 405.359 13.6497 405.207 13.6587C404.819 13.6806 404.464 13.6815 404.155 13.613C404.049 13.5891 403.896 13.5762 403.786 13.5534C403.657 13.5285 403.532 13.5146 403.38 13.5196C402.692 13.5434 402.01 13.5673 401.327 13.5931C401.267 13.5951 401.207 13.61 401.156 13.6209C401.027 13.6488 401.068 13.6706 401.276 13.6885C401.345 13.6945 401.401 13.7074 401.465 13.7173C401.59 13.7362 401.705 13.766 401.843 13.773C401.982 13.7799 402.143 13.766 402.296 13.761C402.448 13.7561 402.609 13.7412 402.748 13.7471C402.886 13.7541 403.001 13.7829 403.131 13.8008C403.191 13.8097 403.264 13.8246 403.324 13.8236C403.629 13.8177 403.929 13.8068 404.233 13.7978C404.422 13.8246 404.584 13.8634 404.81 13.8723C404.953 13.8783 405.105 13.8674 405.253 13.8694C405.317 13.8704 405.4 13.8853 405.433 13.8982C405.451 13.9061 405.391 13.926 405.345 13.9359C405.17 13.9737 404.93 13.9667 404.713 13.9787C404.478 13.9916 404.266 13.9876 404.086 13.9489C403.966 13.923 403.832 13.9091 403.684 13.9141C403.301 13.927 402.923 13.9419 402.54 13.9528C402.475 13.9548 402.397 13.9459 402.337 13.9389C401.853 13.8783 401.853 13.8763 401.511 13.8892C401.008 13.9081 401.009 13.9081 400.672 13.8554C400.607 13.8455 400.538 13.8266 400.483 13.8276C399.947 13.8435 399.417 13.8594 398.886 13.8823C398.711 13.8892 398.591 13.8892 398.462 13.8634C398.351 13.8415 398.222 13.8167 398.084 13.8107C397.941 13.8048 397.784 13.8197 397.631 13.8246C397.479 13.8296 397.318 13.8425 397.184 13.8346C397.046 13.8266 396.926 13.7988 396.806 13.7789C396.681 13.7581 396.547 13.7591 396.377 13.767C395.851 13.7899 395.846 13.7869 395.325 13.7253C395.265 13.7183 395.186 13.7104 395.122 13.7124C394.739 13.7243 394.361 13.7392 393.978 13.7511C393.83 13.7561 393.687 13.7432 393.585 13.7143C393.544 13.7024 393.558 13.6825 393.53 13.6438C393.498 13.6348 393.535 13.6507 393.544 13.6657C393.613 13.6637 393.696 13.6656 393.747 13.6577C393.876 13.6388 393.941 13.614 393.908 13.5931C393.89 13.5822 393.802 13.5683 393.747 13.5683C393.646 13.5683 393.558 13.5901 393.53 13.6438C393.24 13.6766 392.93 13.6835 392.63 13.6994C392.455 13.7094 392.344 13.7044 392.206 13.6786C392.04 13.6468 391.869 13.616 391.597 13.6319C391.302 13.6497 390.988 13.6527 390.684 13.6666C390.333 13.6825 390.181 13.5931 389.886 13.5951C389.581 13.5971 389.277 13.614 388.972 13.6259C388.704 13.6358 388.704 13.6358 388.151 13.5712C387.948 13.5474 387.708 13.5822 387.51 13.5573C387.376 13.5414 387.261 13.5176 387.131 13.5007C387.076 13.4937 386.988 13.4937 386.919 13.4957C386.536 13.5076 386.149 13.5156 385.78 13.5375C385.36 13.5633 385.042 13.5355 384.742 13.4768C384.363 13.4878 383.98 13.4937 383.607 13.5126C383.335 13.5265 383.178 13.4937 382.993 13.4669C382.929 13.458 382.873 13.4431 382.804 13.4391C382.735 13.4351 382.652 13.4431 382.578 13.446C382.273 13.457 381.96 13.4619 381.664 13.4798C381.3 13.5027 381.162 13.4212 380.88 13.4113C380.691 13.4599 380.59 13.5265 380.216 13.5315C379.911 13.5355 379.607 13.5514 379.302 13.5623C379.15 13.5673 378.998 13.5732 378.846 13.5782C378.601 13.5871 378.486 13.6259 378.537 13.6855C378.564 13.7183 378.587 13.7511 378.61 13.7839C378.657 13.8425 378.541 13.8922 378.347 13.8992C377.812 13.9181 377.282 13.9379 376.747 13.9548C376.604 13.9598 376.465 13.9429 376.35 13.9161C376.23 13.8892 376.096 13.8773 375.948 13.8823C375.413 13.9012 374.883 13.921 374.348 13.9379C374.288 13.9399 374.209 13.93 374.149 13.922C374.02 13.9041 373.896 13.8833 373.771 13.8644C373.466 13.8733 373.167 13.8793 372.867 13.8912C372.382 13.9091 372.382 13.9101 372.027 13.8554C371.962 13.8455 371.898 13.8266 371.838 13.8276C371.607 13.8316 371.381 13.8415 371.151 13.8505C370.472 13.8763 370.472 13.8763 370.274 13.8465C370.094 13.8187 369.933 13.7849 369.66 13.8008C369.365 13.8187 369.051 13.8246 368.747 13.8346C368.521 13.8415 368.295 13.8495 368.069 13.8515C368.009 13.8525 367.944 13.8336 367.88 13.8236C367.695 13.7928 367.515 13.768 367.261 13.7849C367.114 13.7948 366.957 13.7968 366.805 13.8018C366.408 13.8157 366.408 13.8157 365.757 13.7561C365.693 13.7501 365.614 13.7432 365.55 13.7461C365.015 13.764 364.484 13.7839 363.949 13.8008C363.884 13.8028 363.806 13.7968 363.741 13.7918C363.013 13.7342 363.012 13.7342 362.237 13.762C361.942 13.772 361.933 13.776 361.624 13.7233C361.485 13.7004 361.37 13.6895 361.209 13.6965C360.6 13.7203 359.986 13.7362 359.382 13.764C359.11 13.776 358.953 13.7461 358.768 13.7193C358.704 13.7104 358.634 13.6905 358.579 13.6915C357.97 13.7104 357.361 13.7332 356.752 13.7521C356.697 13.7541 356.628 13.7342 356.563 13.7253C356.438 13.7074 356.318 13.6806 356.18 13.6746C356.037 13.6686 355.88 13.6835 355.723 13.6885C355.34 13.7014 355.34 13.7004 354.897 13.6418C354.837 13.6339 354.759 13.6229 354.699 13.6249C354.09 13.6448 353.477 13.6617 352.872 13.6905C352.526 13.7064 352.291 13.6776 352.046 13.6358C351.996 13.6269 351.908 13.6229 351.843 13.6249C351.156 13.6478 350.473 13.6736 349.786 13.6965C349.643 13.7014 349.504 13.6845 349.389 13.6587C349.205 13.6179 348.988 13.6229 348.757 13.6319C348.227 13.6527 348.222 13.6517 347.908 13.604C347.844 13.5941 347.788 13.5812 347.719 13.5762C347.654 13.5712 347.571 13.5742 347.502 13.5762C347.198 13.5862 346.893 13.5971 346.589 13.608C346.284 13.6189 345.975 13.6249 345.675 13.6418C345.306 13.6627 345.131 13.5981 344.873 13.5683C344.494 13.5812 344.107 13.5891 343.733 13.61C343.447 13.6259 343.313 13.5822 343.124 13.5593C343.06 13.5514 342.99 13.5345 342.93 13.5365C342.243 13.5583 341.556 13.5822 340.873 13.609C340.707 13.615 340.596 13.607 340.458 13.5832C340.148 13.5295 340.135 13.5315 339.618 13.5514C339.392 13.5603 339.175 13.5683 338.981 13.5275C338.811 13.4908 338.603 13.4818 338.358 13.4937C338.059 13.5086 337.75 13.5166 337.445 13.5265C337.141 13.5375 336.836 13.5524 336.532 13.5573C336.287 13.5623 336.139 13.5156 335.946 13.4918C335.886 13.4848 335.803 13.4838 335.733 13.4858C335.429 13.4947 335.115 13.5017 334.82 13.5186C334.46 13.5394 334.262 13.4848 334.008 13.453C333.953 13.446 333.86 13.45 333.791 13.453C333.256 13.4709 332.725 13.4908 332.19 13.5096C332.001 13.4828 331.807 13.457 331.618 13.4301C331.314 13.4401 331.009 13.451 330.705 13.4609C330.474 13.4689 330.239 13.4719 330.022 13.4868C329.741 13.5067 329.602 13.4599 329.413 13.4371C329.348 13.4291 329.279 13.4123 329.219 13.4142C328.836 13.4252 328.453 13.4371 328.075 13.454C327.715 13.4709 327.572 13.3814 327.277 13.3824C326.973 13.3834 326.659 13.3964 326.364 13.4142C326.022 13.4351 325.782 13.4033 325.538 13.3606C325.487 13.3516 325.399 13.3467 325.335 13.3486C324.952 13.3606 324.574 13.3755 324.191 13.3874C324.126 13.3894 324.048 13.3844 323.983 13.3785C323.254 13.3198 323.254 13.3188 322.936 13.3308C322.71 13.3387 322.479 13.3487 322.249 13.3536C322.184 13.3556 322.105 13.3467 322.045 13.3387C321.566 13.2781 321.566 13.2771 321.22 13.289C320.915 13.3 320.611 13.3109 320.306 13.3218C320.117 13.295 319.923 13.2692 319.734 13.2423C319.356 13.2552 318.968 13.2652 318.595 13.2831C318.419 13.291 318.304 13.288 318.17 13.2632C318.004 13.2334 317.838 13.1986 317.561 13.2155C317.266 13.2334 316.952 13.2354 316.652 13.2503C316.293 13.2682 316.145 13.1777 315.854 13.1787C315.55 13.1797 315.236 13.1926 314.941 13.2105C314.599 13.2314 314.36 13.1996 314.115 13.1569C314.064 13.1479 313.977 13.143 313.912 13.1449C313.072 13.1738 312.237 13.2026 311.398 13.2334C310.881 13.2523 310.881 13.2533 309.898 13.1986C309.829 13.1946 309.755 13.1907 309.686 13.1926C309.382 13.2016 309.068 13.2085 308.773 13.2254C308.413 13.2463 308.214 13.1926 307.961 13.1598C307.905 13.1529 307.818 13.1569 307.744 13.1588C307.513 13.1658 307.287 13.1748 307.056 13.1827C306.752 13.1936 306.448 13.2046 306.143 13.2155C305.954 13.1897 305.76 13.1628 305.571 13.137C305.193 13.1499 304.805 13.1569 304.431 13.1777C304.145 13.1936 304.012 13.1519 303.822 13.128C303.758 13.1201 303.689 13.1032 303.629 13.1042C302.941 13.1261 302.254 13.1489 301.571 13.1767C301.29 13.1887 301.161 13.1439 300.971 13.1211C300.907 13.1141 300.833 13.1012 300.773 13.1032C300.316 13.1171 299.86 13.134 299.403 13.1509C299.145 13.1608 299.145 13.1608 298.582 13.0992C298.517 13.0923 298.443 13.0853 298.379 13.0873C296.93 13.137 295.486 13.1897 294.037 13.2393C293.89 13.2443 293.756 13.2294 293.641 13.2026C293.521 13.1757 293.387 13.1618 293.239 13.1668C292.63 13.1877 292.017 13.2066 291.412 13.2324C291.163 13.2433 290.965 13.2304 290.794 13.1956C290.665 13.1698 290.545 13.1598 290.384 13.1658C290.079 13.1777 289.775 13.1877 289.47 13.1986C289.166 13.2095 288.861 13.2205 288.557 13.2314C288.252 13.2423 287.943 13.2483 287.643 13.2652C287.274 13.286 287.094 13.2244 286.841 13.1936C286.384 13.2085 285.927 13.2234 285.475 13.2393C284.866 13.2602 284.257 13.2831 283.648 13.3029C283.593 13.3049 283.524 13.287 283.459 13.2781C283.27 13.2533 283.131 13.2185 282.85 13.2294C281.484 13.2821 280.11 13.3268 278.739 13.3785C278.453 13.3894 278.329 13.3467 278.135 13.3238C278.071 13.3169 277.997 13.3029 277.937 13.3049C277.176 13.3298 276.414 13.3576 275.653 13.3844C275.344 13.3954 275.344 13.3954 274.827 13.3337C274.767 13.3268 274.689 13.3178 274.624 13.3198C273.632 13.3536 272.645 13.3894 271.653 13.4242C271.506 13.4291 271.372 13.4152 271.252 13.3884C271.137 13.3616 270.998 13.3467 270.855 13.3516C269.942 13.3834 269.024 13.4142 268.115 13.449C267.87 13.459 267.667 13.45 267.492 13.4142C267.367 13.3884 267.243 13.3775 267.086 13.3834C265.716 13.4321 264.346 13.4788 262.975 13.5305C262.712 13.5404 262.528 13.5216 262.362 13.4888C262.228 13.4629 262.113 13.458 261.947 13.4619C261.771 13.4669 261.665 13.4778 261.568 13.5076C261.444 13.5464 261.365 13.5951 261.07 13.5981C260.766 13.6011 260.457 13.613 260.157 13.6299C259.871 13.6468 259.737 13.6021 259.557 13.5752C259.423 13.5563 259.299 13.5534 259.128 13.5623C258.971 13.5703 258.874 13.5871 258.782 13.6189C258.579 13.6865 258.56 13.6865 258.311 13.6438C258.178 13.6209 258.058 13.603 257.91 13.607C257.301 13.6269 256.692 13.6488 256.083 13.6716C255.732 13.6845 255.728 13.6865 255.465 13.6368C255.336 13.612 255.211 13.6001 255.059 13.606C253.384 13.6656 251.71 13.7233 250.035 13.7859C249.777 13.7958 249.601 13.775 249.417 13.7451C249.357 13.7352 249.297 13.7213 249.228 13.7173C249.158 13.7133 249.08 13.7173 249.006 13.7193C247.788 13.762 246.566 13.8028 245.352 13.8505C245.075 13.8614 244.928 13.8296 244.739 13.8038C244.674 13.7948 244.619 13.7809 244.55 13.7769C244.48 13.774 244.397 13.7809 244.323 13.7839C243.106 13.8266 241.883 13.8674 240.67 13.9151C240.379 13.926 240.254 13.8843 240.065 13.8624C240.001 13.8545 239.932 13.8395 239.872 13.8415C239.489 13.8525 239.11 13.8674 238.727 13.8803C237.814 13.9131 236.9 13.9439 235.987 13.9777C235.636 13.9906 235.484 13.9021 235.189 13.9061C234.806 13.9111 234.428 13.931 234.045 13.9449C233.74 13.9558 233.436 13.9658 233.131 13.9777C232.831 13.9886 232.831 13.9886 232.084 13.931C232.02 13.926 231.941 13.919 231.877 13.921C230.811 13.9578 229.741 13.9946 228.679 14.0343C228.435 14.0433 228.232 14.0383 228.057 14.0015C227.932 13.9757 227.803 13.9628 227.651 13.9687C226.05 14.0254 224.454 14.082 222.853 14.1377C222.793 14.1397 222.714 14.1297 222.654 14.1218C222.525 14.1039 222.401 14.083 222.276 14.0641C222.184 14.087 222.064 14.1079 222.004 14.1337C221.921 14.1685 221.81 14.1784 221.635 14.1844C221.459 14.1903 221.349 14.1883 221.21 14.1625C221.044 14.1307 220.874 14.1059 220.601 14.1158C218.927 14.1784 217.252 14.2351 215.577 14.2967C215.301 14.3066 215.171 14.2629 214.978 14.24C214.913 14.2331 214.839 14.2221 214.779 14.2241C214.092 14.247 213.409 14.2718 212.722 14.2957C210.816 14.3632 208.911 14.4278 207.01 14.4994C206.664 14.5123 206.429 14.4875 206.184 14.4447C206.134 14.4358 206.046 14.4308 205.982 14.4328C203.315 14.5262 200.648 14.6206 197.986 14.715C197.843 14.72 197.705 14.7041 197.59 14.6782C197.47 14.6514 197.336 14.6385 197.188 14.6435C195.97 14.6862 194.753 14.7289 193.535 14.7727C193.23 14.7836 193.225 14.7846 192.912 14.7369C192.847 14.7269 192.778 14.7081 192.727 14.7101C192.621 14.715 192.52 14.7399 192.446 14.7736C192.372 14.8094 192.257 14.8194 192.086 14.8263C191.911 14.8333 191.795 14.8303 191.662 14.8064C191.491 14.7766 191.334 14.7478 191.057 14.7577C187.556 14.8849 184.054 15.0072 180.552 15.1334C180.271 15.1433 180.142 15.1016 179.948 15.0787C179.883 15.0718 179.819 15.0618 179.75 15.0598C179.676 15.0578 179.597 15.0638 179.524 15.0668C173.812 15.2685 168.101 15.4712 162.39 15.673C162.048 15.6849 162.053 15.6849 161.679 15.7763C161.633 15.7872 161.573 15.8021 161.508 15.8041C159.76 15.8677 158.007 15.9293 156.254 15.9909C155.492 16.0178 154.731 16.0456 153.97 16.0714C153.698 16.0804 153.698 16.0804 153.047 16.1877C152.992 16.1967 152.927 16.2086 152.863 16.2106C149.818 16.3189 146.773 16.4272 143.724 16.5335C143.484 16.5415 143.29 16.5594 143.179 16.6071C143.101 16.6408 142.999 16.6607 142.847 16.6667C140.716 16.7422 138.584 16.8187 136.448 16.8923C136.195 16.9012 136.042 16.929 135.918 16.9708C135.876 16.9847 135.839 17.0006 135.779 17.0105C135.724 17.0194 135.641 17.0224 135.572 17.0254C133.745 17.09 131.918 17.1566 130.086 17.2182C129.814 17.2271 129.703 17.2639 129.57 17.3027C129.524 17.3156 129.491 17.3335 129.431 17.3424C129.371 17.3504 129.284 17.3504 129.21 17.3523C127.687 17.406 126.165 17.4607 124.643 17.5143C124.347 17.5093 124.283 17.567 124.14 17.6018C124.089 17.6137 124.052 17.6296 123.992 17.6375C123.928 17.6455 123.844 17.6445 123.766 17.6465C122.548 17.6892 121.33 17.7349 120.108 17.7747C119.826 17.7836 119.771 17.8343 119.619 17.8691C119.568 17.88 119.517 17.8969 119.457 17.8999C118.696 17.9287 117.935 17.9555 117.174 17.9814C116.92 17.9903 116.92 17.9893 116.472 18.0877C116.422 18.0986 116.362 18.1106 116.297 18.1135C115.157 18.1553 114.013 18.195 112.869 18.2358C112.722 18.2407 112.62 18.2646 112.546 18.2984C112.472 18.3321 112.366 18.354 112.219 18.359C111.305 18.3918 110.392 18.4256 109.478 18.4554C109.225 18.4633 109.059 18.4882 108.948 18.5329C108.865 18.5667 108.763 18.5836 108.602 18.5895C107.688 18.6213 106.775 18.6561 105.857 18.6839C105.589 18.6919 105.451 18.7257 105.34 18.7674C105.252 18.8012 105.151 18.8131 104.98 18.8191C103.306 18.8767 101.626 18.9343 99.9563 18.9979C99.6749 19.0089 99.5318 18.9741 99.3473 18.9492C99.0843 18.9145 98.8399 18.8767 98.8399 18.7992C98.8399 18.7873 98.7614 18.7734 98.7061 18.7634C98.2955 18.6889 98.2955 18.6889 98.2309 18.6094C98.194 18.5607 98.1525 18.511 98.1202 18.4613C98.0602 18.3798 97.9125 18.359 97.4881 18.3739C97.3358 18.3789 97.1836 18.3858 97.0314 18.3898C96.8053 18.3967 96.6346 18.3639 96.5931 18.3043C96.57 18.2715 96.5424 18.2387 96.5193 18.2059C96.75 18.198 96.7453 18.197 97.1513 18.0768C97.322 18.0261 97.3221 18.0261 96.9945 17.9754C96.87 17.9565 96.75 17.9356 96.6162 17.9178C96.5562 17.9098 96.4778 17.9048 96.4132 17.9068C96.0303 17.9188 95.652 17.9327 95.2737 17.9466C94.6648 17.9684 94.6647 17.9684 94.0465 17.8671C93.9958 17.8591 93.9173 17.8442 93.9265 17.8363C93.9773 17.7995 94.1018 17.7836 94.2587 17.7796C94.4894 17.7737 94.7154 17.7637 94.9415 17.7558C95.0937 17.7508 95.246 17.7449 95.3982 17.7399C95.5412 17.7021 95.6889 17.6654 95.8227 17.6266C96.0349 17.567 96.0348 17.565 95.7442 17.5233C95.5597 17.4954 95.3613 17.4706 95.1721 17.4448C94.9461 17.4527 94.7154 17.4616 94.4894 17.4686C94.2033 17.4775 94.088 17.4587 94.0142 17.3941C93.9496 17.3374 94.028 17.2887 94.2495 17.2768C94.4755 17.2649 94.6878 17.2569 94.8032 17.2063C94.9139 17.1576 95.1076 17.1387 95.3475 17.1347C95.4998 17.1317 95.652 17.1248 95.8042 17.1188C96.0026 17.1109 96.1087 17.0602 96.0672 17.0035C96.0442 16.9668 95.998 16.936 95.8181 16.928C95.02 16.8932 95.0107 16.8942 94.6139 16.8267C94.577 16.8207 94.5494 16.8028 94.5633 16.7939C94.5863 16.779 94.6371 16.7571 94.6924 16.7541C95.223 16.7323 95.7535 16.7124 96.284 16.6975C96.4594 16.6925 96.5885 16.6855 96.6485 16.6488C96.7316 16.5981 96.6947 16.5514 96.5332 16.5166C96.4824 16.5057 96.3993 16.4918 96.344 16.4928C95.735 16.5107 95.1307 16.5335 94.5217 16.5514C94.4663 16.5534 94.3649 16.5365 94.3418 16.5236C94.2957 16.4997 94.3648 16.4679 94.5263 16.457C94.7385 16.4421 94.9554 16.4411 95.0984 16.3914C95.2967 16.3209 95.5412 16.2563 95.7627 16.1887C95.7996 16.1768 95.8596 16.1539 95.8458 16.1519C95.7305 16.1301 95.5966 16.1132 95.4767 16.0923C95.2737 16.0575 95.2737 16.0088 95.3198 15.9621C95.3567 15.9244 95.4951 15.9095 95.6658 15.9095C95.7396 15.9095 95.8319 15.9095 95.8919 15.9005C96.0487 15.8787 96.0995 15.8508 96.021 15.83C95.9749 15.818 95.8919 15.8012 95.8366 15.8031C94.8493 15.8359 93.8573 15.8677 92.8747 15.9085C92.584 15.9204 92.4503 15.8826 92.275 15.8558C92.1412 15.8349 92.0166 15.827 91.8505 15.8419C91.6937 15.8558 91.5415 15.8479 91.4446 15.8151C91.3662 15.7882 91.5045 15.7654 91.8782 15.7395C91.9474 15.7346 92.0258 15.7316 92.0766 15.7216C92.6117 15.6143 92.6117 15.6133 92.9808 15.5994C93.3406 15.5865 93.3407 15.5855 93.5299 15.5279C93.6175 15.501 93.7143 15.4742 93.7974 15.4464C93.8297 15.4355 93.8851 15.4156 93.8666 15.4096C93.7651 15.3788 93.6267 15.3719 93.4652 15.3788C93.1054 15.3957 92.681 15.3818 92.4918 15.4762C92.418 15.512 92.3027 15.5219 92.1366 15.5279C90.4665 15.5855 88.7964 15.6471 87.1218 15.7028C86.8496 15.7117 86.7251 15.7485 86.619 15.7892C86.5267 15.823 86.4252 15.8329 86.2499 15.8389C86.0746 15.8449 85.9361 15.8479 85.8346 15.8151C85.7746 15.7952 85.8254 15.7674 85.9638 15.7395C86.1622 15.6998 86.1253 15.6501 86.0607 15.6034C86.0145 15.5726 85.8715 15.5507 85.7193 15.5527C85.4932 15.5567 85.2765 15.5676 85.0873 15.5279C84.9766 15.505 84.8382 15.4891 84.7136 15.4692C84.4737 15.4285 84.2338 15.3868 83.897 15.4136C83.6663 15.4037 83.5049 15.3679 83.3203 15.3401C83.0112 15.2944 82.9836 15.2874 83.205 15.2387C83.4541 15.184 83.2603 15.1125 83.3987 15.0588C83.5464 15.0012 83.7494 14.9505 83.9293 14.8969C83.9755 14.883 84.017 14.87 84.0631 14.8561C83.957 14.8362 83.8602 14.8114 83.7356 14.7975C83.5741 14.7796 83.4911 14.7577 83.5003 14.6961C83.468 14.6872 83.4818 14.71 83.5187 14.716C83.5602 14.722 83.6618 14.717 83.7125 14.7101C83.8417 14.6912 83.9062 14.6663 83.8739 14.6455C83.8555 14.6345 83.7679 14.6206 83.7125 14.6206C83.611 14.6206 83.5234 14.6425 83.4957 14.6961C82.979 14.7369 82.4438 14.7568 81.9086 14.7727C81.8532 14.7746 81.7841 14.7548 81.7195 14.7448C81.5073 14.711 81.5073 14.712 80.8844 14.7021C80.8199 14.7011 80.7323 14.6872 80.7 14.6733C80.5662 14.6127 80.5708 14.5461 80.5062 14.4815C80.6262 14.4398 80.746 14.399 80.8706 14.3583C81.1197 14.2758 81.4427 14.2033 81.6365 14.1128C81.595 14.0641 81.5396 14.0154 81.7426 13.9757C82.3193 13.926 82.3147 13.926 82.4715 13.8783C82.919 13.7432 83.3619 13.607 83.8279 13.4739C83.9524 13.4391 83.9524 13.4202 83.731 13.4053C83.6618 13.4013 83.5879 13.4003 83.5141 13.4023C83.2834 13.4093 83.0527 13.4272 82.8267 13.4232C82.6006 13.4202 82.4345 13.3765 82.25 13.3496C82.0608 13.3218 81.8717 13.293 81.6826 13.2642C81.4657 13.2672 81.2489 13.295 81.0321 13.2503C80.866 13.2155 80.6584 13.1906 80.4693 13.1618C80.6123 13.0863 80.8799 13.0287 81.0875 12.9621C81.2767 12.9015 81.2812 12.9025 81.7887 12.8558C82.0286 12.8339 82.1116 12.7216 81.9086 12.6888C81.6641 12.6491 81.4058 12.6123 81.1567 12.5745C80.9399 12.5775 80.7185 12.6044 80.5108 12.5596C80.3494 12.5259 80.1648 12.503 79.8972 12.5159C79.4451 12.5378 78.9838 12.5487 78.5271 12.5666C78.3702 12.5726 78.1995 12.5686 78.1303 12.5348C78.0841 12.511 78.2179 12.4782 78.3702 12.4712C78.6008 12.4613 78.8084 12.4493 78.9238 12.3997C79.0345 12.35 79.2374 12.3351 79.4773 12.3281C79.5419 12.3261 79.6158 12.3142 79.6481 12.3023C79.8142 12.2446 79.9987 12.1949 80.354 12.1969C80.5016 12.1771 80.58 12.1522 80.5338 12.1284C80.5061 12.1154 80.4093 12.0986 80.354 12.1005C79.971 12.1105 79.5881 12.1204 79.2145 12.1383C79.0391 12.1463 78.9053 12.1482 78.7946 12.1184C78.7161 12.0986 78.7577 12.0717 78.9053 12.0429C79.0345 12.0181 79.0714 11.9892 79.0622 11.9555C79.0391 11.877 78.9007 11.8541 78.4578 11.8591C78.1395 11.863 78.061 11.8501 77.9918 11.7825C77.9734 11.7667 77.9273 11.7448 77.9596 11.7339C78.158 11.6663 78.2872 11.5828 78.6609 11.551C78.8085 11.5391 78.9653 11.5391 79.0576 11.5133C79.1498 11.4874 79.2329 11.4576 79.3298 11.4328C79.4497 11.4029 79.5327 11.3751 79.4773 11.3563C79.3851 11.3225 79.2375 11.3195 79.0668 11.3314C78.9192 11.3413 78.7623 11.3423 78.6101 11.3483C78.3379 11.3592 78.1165 11.3334 78.0842 11.2897C77.9965 11.1744 77.9042 11.0601 77.8258 10.9449C77.8166 10.9309 77.8396 10.913 77.8765 10.9011C78.0057 10.8594 78.1441 10.8196 78.2779 10.7789C78.4348 10.7322 78.6839 10.7411 78.8962 10.7322C79.196 10.7193 79.1959 10.7203 79.5973 10.6249C79.7541 10.5871 80.0264 10.602 80.1878 10.5682C80.2386 10.5573 80.317 10.5394 80.3032 10.5295C80.2847 10.5166 80.1925 10.5066 80.1233 10.5007C80.0587 10.4947 79.9803 10.4917 79.9111 10.4947C79.0714 10.5235 78.2364 10.5543 77.3968 10.5821C77.2538 10.5871 77.0969 10.5653 77.0462 10.5344C76.9954 10.5056 77.0092 10.4708 77 10.438C77.1338 10.3973 77.286 10.3595 77.4013 10.3158C77.489 10.282 77.5905 10.2671 77.7658 10.2651C77.9965 10.2622 78.2225 10.2502 78.4809 10.2413C78.9607 10.0962 79.4312 9.94418 79.9479 9.79909C80.1555 9.74046 80.1049 9.68083 80.1464 9.61823C80.1879 9.56059 80.497 9.56955 80.7046 9.55265C80.8707 9.53874 80.9259 9.50694 80.8614 9.48507C80.8245 9.47216 80.7415 9.45725 80.6769 9.45725C80.5246 9.45725 80.3724 9.46619 80.2201 9.47116C80.0679 9.47613 79.8926 9.47316 79.768 9.49005C79.6481 9.50595 79.5696 9.53973 79.4912 9.56854C79.4035 9.60034 79.2883 9.61128 79.113 9.61327C78.8869 9.61526 78.6609 9.62419 78.4348 9.63115C78.1857 9.59239 77.9273 9.55464 77.6874 9.5139C77.6413 9.50595 77.632 9.4831 77.6366 9.46819C77.6458 9.42943 77.5766 9.40558 77.4244 9.3867C77.2952 9.3708 77.1891 9.34795 77.0692 9.32807C77.1614 9.30124 77.263 9.2754 77.3368 9.24658C77.4982 9.18596 77.7013 9.14225 78.0519 9.14424C78.1903 9.10548 78.301 9.05778 78.4809 9.03095C78.6516 9.00511 78.9422 9.03094 79.0714 8.97231C79.136 8.9435 79.2329 8.9107 79.3575 8.89878C79.5559 8.8799 79.8142 8.88985 79.9296 8.8342C79.9988 8.8024 80.1002 8.77357 80.234 8.76562C80.3862 8.75668 80.5431 8.7547 80.6538 8.73582C80.7138 8.72588 80.7783 8.70998 80.7783 8.69607C80.7783 8.68713 80.6862 8.67321 80.6216 8.66725C80.5616 8.66029 80.4831 8.65532 80.4139 8.65731C80.1832 8.66327 79.9572 8.6742 79.7265 8.68017C79.6619 8.68215 79.5881 8.6752 79.5189 8.66924C79.3159 8.65334 79.3297 8.63347 79.4912 8.59769C79.6527 8.56291 79.7681 8.51819 79.9018 8.47744C80.0495 8.47049 80.234 8.47347 80.3355 8.45459C80.5062 8.42379 80.6261 8.37907 80.7645 8.34031C80.9167 8.33435 81.0736 8.33237 81.2166 8.32144C81.2766 8.31746 81.3043 8.2956 81.355 8.28268C81.4473 8.25784 81.5258 8.22206 81.6503 8.21014C81.8533 8.19225 82.1025 8.19921 82.2224 8.14455C82.2916 8.11275 82.3977 8.07897 82.5268 8.07699C82.8867 8.07301 83.0389 8.01834 83.2235 7.96667C83.3619 7.92792 83.6571 7.9478 83.8094 7.90904C83.9109 7.8842 83.9847 7.85339 84.0862 7.82954C84.1278 7.8196 84.2154 7.81464 84.2846 7.81166C84.6629 7.79675 85.0458 7.78582 85.4241 7.76992C85.4841 7.76694 85.5395 7.75204 85.5856 7.74011C85.6825 7.71428 85.7424 7.6785 85.8623 7.66161C85.9823 7.64471 86.1529 7.64472 86.3006 7.63975C86.7758 7.62484 86.8127 7.62881 87.0295 7.54434C87.2048 7.47578 87.6339 7.52447 87.777 7.44895C87.86 7.40523 88.0122 7.36945 88.2844 7.36449C88.6673 7.35753 89.0456 7.33865 89.4285 7.32573C89.7699 7.3138 89.7653 7.3138 90.1343 7.22138C90.3004 7.17965 90.545 7.18562 90.7618 7.17767C90.9925 7.16972 91.2047 7.1578 91.3154 7.10811C91.4261 7.05942 91.6291 7.04351 91.8644 7.03655C92.0812 7.0296 92.3258 7.03457 92.4965 6.99483C92.9117 6.89943 92.9071 6.89843 93.1977 6.88849C93.6544 6.87259 94.1111 6.85669 94.5679 6.8398C94.8724 6.82887 95.1907 6.82688 95.4767 6.80502C95.6843 6.78912 95.7765 6.73348 95.9103 6.69472C96.2886 6.67981 96.6669 6.6649 97.0452 6.65099C97.5758 6.63112 98.1109 6.61323 98.646 6.59435C98.8767 6.55659 98.9091 6.47312 99.2966 6.46914C99.5273 6.46716 99.7533 6.45424 99.984 6.44629C100.367 6.43238 100.745 6.41449 101.128 6.40753C101.419 6.40257 101.469 6.3489 101.622 6.31511C101.672 6.30319 101.719 6.2863 101.779 6.28332C102.378 6.2555 102.996 6.24953 103.582 6.20879C103.642 6.20482 103.698 6.18395 103.712 6.16904C103.721 6.16109 103.642 6.14619 103.592 6.13924C103.532 6.13129 103.453 6.12334 103.389 6.12532C101.483 6.1919 99.578 6.25948 97.6727 6.32606C97.4051 6.33599 97.4051 6.33499 96.7546 6.4443C96.6993 6.45325 96.6346 6.46318 96.5654 6.46616C96.2609 6.47809 95.9518 6.48505 95.652 6.49996C95.4074 6.51188 95.2045 6.49995 95.0292 6.46417C94.9046 6.43833 94.7754 6.43039 94.6186 6.43238C94.4432 6.43536 94.328 6.44629 94.2265 6.47312C94.0927 6.50989 94.0235 6.55758 93.7421 6.56752C92.4457 6.61025 91.1492 6.65795 89.8575 6.70366C89.6776 6.68975 89.5899 6.66888 89.6361 6.64404C89.6637 6.62913 89.7191 6.60926 89.7745 6.60727C90.305 6.5864 90.8402 6.56852 91.3707 6.54865C91.4445 6.54567 91.546 6.54764 91.5875 6.53771C91.7905 6.49299 91.8644 6.42045 92.2473 6.41548C92.4688 6.4125 92.6948 6.3976 92.907 6.38369C92.967 6.37971 93.0224 6.35884 93.0362 6.34394C93.0408 6.33599 92.967 6.32108 92.9116 6.31412C92.7086 6.2853 92.4734 6.32009 92.2704 6.30022C92.2012 6.29326 92.1043 6.28332 92.0904 6.2714C92.0812 6.26047 92.1596 6.24258 92.215 6.23165C92.2657 6.22171 92.3349 6.21277 92.4041 6.20979C93.0131 6.18693 93.6221 6.16308 94.2311 6.14519C94.4802 6.13824 94.6555 6.11339 94.7662 6.06768C94.8493 6.03389 94.9507 6.01601 95.1076 6.01104C96.1733 5.97428 97.239 5.93353 98.3093 5.89975C98.5769 5.8918 98.7153 5.85901 98.826 5.81628C98.9137 5.78249 99.0152 5.77057 99.1859 5.7646C100.713 5.71293 102.231 5.6553 103.758 5.60561C104.039 5.59667 104.122 5.55394 104.265 5.51717C104.316 5.50425 104.348 5.48835 104.413 5.4804C104.477 5.47245 104.56 5.47344 104.639 5.47145C105.857 5.42872 107.075 5.38302 108.297 5.34327C108.583 5.33432 108.639 5.28463 108.786 5.24985C108.837 5.23892 108.883 5.22104 108.943 5.21806C109.857 5.18427 110.77 5.15247 111.684 5.11968C112.292 5.09782 112.901 5.07595 113.51 5.05509C113.81 5.04515 113.81 5.04415 114.216 4.94975C114.262 4.93882 114.327 4.9259 114.387 4.92291C116.14 4.85932 117.889 4.79871 119.642 4.73611C119.789 4.73114 119.895 4.70827 119.969 4.67449C120.043 4.6407 120.149 4.61784 120.292 4.61288C121.662 4.56319 123.033 4.5145 124.407 4.4678C124.656 4.45985 124.832 4.436 124.942 4.39128C125.025 4.35749 125.127 4.33961 125.284 4.33464C126.654 4.28694 128.024 4.23626 129.399 4.19055C129.662 4.1816 129.791 4.14782 129.92 4.10807C129.966 4.09416 130.003 4.0713 130.059 4.06931C130.742 4.04149 131.42 4.01267 132.107 3.99379C132.393 3.98584 132.49 3.9441 132.605 3.90435C132.698 3.87256 132.804 3.86163 132.979 3.85765C133.362 3.84871 133.74 3.83182 134.114 3.81493C134.169 3.81195 134.239 3.79008 134.243 3.77617C134.252 3.75034 134.146 3.73245 133.971 3.7235C132.144 3.78809 130.313 3.85268 128.486 3.91727C128.186 3.9282 128.186 3.92821 127.78 4.02261C127.734 4.03354 127.669 4.04646 127.604 4.04945C125.851 4.11205 124.103 4.17366 122.35 4.23626C122.202 4.24123 122.096 4.26409 122.022 4.29787C121.948 4.33166 121.842 4.35452 121.699 4.35948C120.025 4.41911 118.35 4.47973 116.671 4.53637C116.422 4.54432 116.246 4.56716 116.136 4.61288C116.052 4.64666 115.951 4.66456 115.794 4.66952C114.193 4.72517 112.597 4.7838 110.992 4.83746C110.83 4.84242 110.71 4.81361 110.719 4.78678C110.724 4.77286 110.793 4.75002 110.848 4.74803C111.683 4.71524 112.514 4.68145 113.354 4.65661C113.635 4.64866 113.718 4.60493 113.861 4.56816C113.907 4.55524 113.944 4.53835 114.004 4.5314C114.069 4.52345 114.152 4.52444 114.23 4.52246C116.209 4.4519 118.188 4.38036 120.172 4.31378C120.458 4.30384 120.514 4.25514 120.661 4.22036C120.712 4.20844 120.758 4.19056 120.818 4.18857C121.427 4.16472 122.036 4.14385 122.645 4.12298C123.711 4.08522 124.776 4.04746 125.847 4.00969C126.156 3.99876 126.156 3.99876 126.553 3.90535C126.599 3.89442 126.663 3.88052 126.723 3.87853C129.542 3.77816 132.361 3.6778 135.18 3.57842C135.327 3.57346 135.433 3.5506 135.507 3.51681C135.581 3.48402 135.687 3.46017 135.83 3.45421C139.641 3.31906 143.447 3.18391 147.258 3.05075C147.507 3.04181 147.682 3.02094 147.793 2.97424C147.871 2.94045 147.977 2.92257 148.134 2.9166C152.323 2.76854 156.512 2.62048 160.706 2.47142C163.524 2.37205 166.343 2.27069 169.162 2.17331C169.42 2.16436 169.559 2.13355 169.688 2.09281C169.729 2.0789 169.771 2.05604 169.826 2.05405C170.431 2.02921 171.035 2.00636 171.639 1.9835C171.828 2.01033 172.018 2.03617 172.207 2.063C172.35 2.02524 172.488 1.98649 172.631 1.94872C173.545 1.91991 174.444 1.87519 175.367 1.86128C175.427 1.86028 175.491 1.87917 175.556 1.8891C175.985 1.95171 176.23 1.94674 176.502 1.86327C176.599 1.83345 176.682 1.80663 176.829 1.80166C177.286 1.78377 177.748 1.77184 178.2 1.75098C178.444 1.74004 178.647 1.74998 178.822 1.78575C178.947 1.81159 179.076 1.82253 179.228 1.81656C180.068 1.78675 180.903 1.75793 181.743 1.72613C181.803 1.72415 181.858 1.70725 181.904 1.69532C182.001 1.66949 182.084 1.64167 182.176 1.61484C182.301 1.63173 182.439 1.64465 182.541 1.66651C182.67 1.69235 182.79 1.69234 182.965 1.68539C186.315 1.56515 189.669 1.44789 193.018 1.32666C193.304 1.31672 193.428 1.35846 193.622 1.38032C193.687 1.38827 193.751 1.3982 193.821 1.40019C193.894 1.40218 193.973 1.39622 194.047 1.39324C196.561 1.30381 199.075 1.21536 201.59 1.12592C201.922 1.114 201.922 1.114 202.415 1.17561C202.475 1.18356 202.554 1.1925 202.618 1.18952C203.762 1.15077 204.907 1.10904 206.046 1.06929C206.194 1.06432 206.318 1.08021 206.452 1.10307C206.715 1.14779 206.733 1.14779 206.927 1.08221C207.019 1.0514 207.116 1.03251 207.269 1.02357C207.435 1.01363 207.569 1.01662 207.698 1.03451C207.882 1.05935 208.016 1.10108 208.297 1.09015C209.515 1.04345 210.738 1.00469 211.951 0.956996C212.228 0.946066 212.376 0.97985 212.56 1.00469C212.625 1.01364 212.685 1.02755 212.754 1.03053C212.823 1.03351 212.906 1.02655 212.98 1.02357C214.502 0.969907 216.029 0.91725 217.547 0.859614C217.833 0.848683 217.958 0.891405 218.152 0.913267C218.216 0.921216 218.29 0.935136 218.35 0.933148C219.263 0.902343 220.182 0.869541 221.095 0.836748C221.423 0.824824 221.423 0.825817 221.921 0.886434C221.981 0.894384 222.059 0.902335 222.124 0.900348C223.19 0.86358 224.26 0.825818 225.326 0.788057C225.653 0.776133 225.653 0.776135 226.599 0.827808C226.668 0.831783 226.742 0.837753 226.811 0.835766C228.029 0.793036 229.251 0.751294 230.469 0.705583C230.714 0.696639 230.917 0.704587 231.092 0.740361C231.217 0.766197 231.346 0.777134 231.498 0.771172C232.868 0.72248 234.243 0.675777 235.609 0.624103C235.872 0.614166 236.042 0.636019 236.227 0.664837C236.287 0.674774 236.347 0.688689 236.416 0.692664C236.485 0.696639 236.564 0.692661 236.638 0.68968C238.008 0.640988 239.383 0.595279 240.748 0.542612C241.025 0.531681 241.173 0.565465 241.357 0.590308C241.422 0.599252 241.491 0.61714 241.546 0.616146C242.081 0.599253 242.616 0.584352 243.147 0.559509C243.433 0.545597 243.558 0.5913 243.751 0.613162C243.816 0.620118 243.89 0.635031 243.95 0.633044C245.094 0.594289 246.238 0.553549 247.378 0.511813C247.539 0.505851 247.659 0.514786 247.788 0.540622C247.959 0.575403 248.157 0.589315 248.406 0.578384C248.937 0.555529 249.472 0.539634 250.007 0.520753C250.321 0.509822 250.321 0.509825 251.281 0.561499C251.35 0.565474 251.424 0.571432 251.493 0.569444C252.406 0.537645 253.324 0.506842 254.233 0.472062C254.478 0.462125 254.681 0.471066 254.856 0.506839C254.98 0.532676 255.105 0.543613 255.262 0.53765C256.101 0.507839 256.937 0.478025 257.776 0.448213C258.081 0.437283 258.385 0.418397 258.69 0.418397C258.911 0.419391 259.073 0.467087 259.271 0.490937C259.326 0.497893 259.419 0.489952 259.492 0.487965C260.558 0.450203 261.628 0.41542 262.689 0.37269C262.966 0.361759 263.114 0.395544 263.298 0.420386C263.363 0.42933 263.432 0.447218 263.488 0.446224C263.87 0.435293 264.249 0.420386 264.632 0.407468C265.088 0.391568 265.55 0.379644 266.002 0.357782C266.371 0.339895 266.509 0.426345 266.805 0.429327C267.031 0.432308 267.261 0.415417 267.487 0.407468C267.944 0.391568 268.401 0.373683 268.857 0.359771C269.019 0.354803 269.144 0.338896 269.194 0.303122C269.204 0.296166 269.125 0.281267 269.074 0.272323C268.461 0.170964 268.461 0.170959 267.843 0.192821C267.46 0.206733 267.081 0.220648 266.698 0.232572C266.634 0.23456 266.56 0.226611 266.495 0.220648C266.311 0.203755 266.329 0.183883 266.486 0.148109C266.643 0.112335 266.763 0.0686153 266.897 0.0278729C267.086 0.0537095 267.271 0.0795369 267.46 0.105374C267.612 0.100405 267.764 0.0944514 267.916 0.0894829C268.678 0.0636462 269.439 0.0368139 270.2 0.0129647C270.255 0.0109772 270.325 0.0308545 270.389 0.0407917C270.574 0.0696095 270.74 0.0944456 271.007 0.0835147C271.69 0.0546969 272.378 0.0338289 273.06 0.00898591C273.36 -0.00194498 273.36 -0.00194401 273.886 0.0596665C273.946 0.0666225 274.025 0.0745727 274.089 0.0725853C274.777 0.0497298 275.459 0.0248898 276.147 0.00104054C276.294 -0.00392805 276.437 0.00898979 276.544 0.0378076C276.585 0.0497322 276.576 0.0696027 276.751 0.232572C277.295 0.364737 277.669 0.350832 278.047 0.338907C278.209 0.333938 278.352 0.328965 278.458 0.309091C278.513 0.29816 278.583 0.282258 278.583 0.269339C278.583 0.259402 278.481 0.2435 278.417 0.241512C277.96 0.221638 277.526 0.26338 277.079 0.272323C276.871 0.276298 276.691 0.241518 276.654 0.184876C276.645 0.168976 276.631 0.152084 276.617 0.136185C276.603 0.120285 276.594 0.103393 276.58 0.0874935C276.401 0.0825249 276.294 0.100409 276.216 0.134195C276.151 0.162019 276.059 0.193818 275.934 0.208724C275.81 0.224624 275.639 0.221648 275.487 0.226616C275.339 0.231585 275.178 0.244502 275.04 0.237546C274.901 0.229596 274.79 0.200773 274.661 0.182886C274.601 0.173943 274.527 0.16103 274.467 0.163017C273.937 0.17991 273.411 0.196797 272.885 0.218659C272.608 0.230583 272.47 0.188854 272.295 0.163017C272.156 0.143143 272.018 0.148105 271.995 0.193816C271.935 0.303125 272.147 0.348833 272.617 0.327965C273.005 0.310078 273.356 0.307107 273.66 0.374679C273.702 0.383623 273.798 0.387596 273.858 0.385609C274.237 0.373684 274.61 0.358777 274.989 0.346852C275.058 0.344865 275.132 0.348833 275.196 0.352808C276.138 0.406469 276.138 0.407468 276.456 0.395544C276.608 0.389581 276.756 0.384612 276.742 0.233567C277.032 0.0715911 277.494 0.0606621 277.941 0.0368129C278.232 0.0219071 278.356 0.0656327 278.546 0.0884882C278.61 0.0964379 278.68 0.112334 278.739 0.110347C279.731 0.0775544 280.719 0.0427694 281.706 0.00600185C281.872 3.95398e-05 281.992 0.00600282 282.121 0.0318395C282.287 0.0646322 282.472 0.0855046 282.735 0.07358C283.261 0.0497308 283.796 0.0348284 284.331 0.014954C284.603 0.00501686 284.603 0.00500667 285.152 0.0666172C285.212 0.0735732 285.29 0.0815234 285.355 0.079536C285.89 0.0626428 286.421 0.041781 286.951 0.0238941C287.099 0.0189255 287.233 0.0328361 287.348 0.0596665C287.463 0.0864969 287.602 0.100407 287.745 0.0954389C288.28 0.0775519 288.811 0.0576839 289.341 0.039797C289.406 0.0378095 289.484 0.0447651 289.544 0.0517211C290.107 0.113332 290.107 0.113321 290.365 0.103384C290.744 0.0884785 291.131 0.0815302 291.505 0.0616559C291.869 0.0417815 292.058 0.0994123 292.307 0.131211C292.99 0.108356 293.678 0.08948 294.356 0.0616559C294.633 0.0497312 294.78 0.082521 294.965 0.108358C295.029 0.117301 295.094 0.136184 295.154 0.13519C295.385 0.131215 295.611 0.120286 295.837 0.112336C296.063 0.104387 296.294 0.0964379 296.52 0.0884882C296.778 0.117306 296.949 0.184878 297.318 0.162022C297.539 0.14811 297.774 0.145129 298 0.137179C298.226 0.12923 298.457 0.121281 298.683 0.113331C298.835 0.108363 298.992 0.105377 299.14 0.0964336C299.412 0.0815278 299.546 0.130226 299.74 0.152088C299.804 0.159044 299.878 0.17096 299.938 0.168973C300.395 0.155061 300.856 0.143137 301.304 0.120282C301.65 0.102395 301.885 0.13221 302.129 0.173946C302.18 0.18289 302.268 0.187858 302.332 0.185871C302.868 0.168977 303.398 0.148103 303.929 0.130217C304.072 0.125248 304.21 0.141147 304.325 0.166984C304.445 0.193814 304.579 0.206742 304.727 0.201773C305.257 0.183887 305.792 0.164006 306.323 0.146119C306.388 0.144132 306.466 0.152083 306.526 0.160033C307.043 0.221643 307.043 0.222638 307.347 0.210713C307.421 0.207732 307.499 0.205737 307.573 0.202756C307.952 0.188844 308.344 0.183882 308.713 0.160033C309.137 0.133203 309.446 0.16699 309.746 0.223632C310.124 0.211708 310.512 0.20475 310.881 0.184876C311.158 0.16997 311.305 0.207729 311.49 0.232572C311.555 0.241516 311.624 0.259403 311.679 0.257415C312.214 0.240522 312.749 0.225622 313.275 0.200779C313.561 0.186867 313.686 0.231576 313.88 0.254431C313.944 0.262381 314.013 0.2763 314.073 0.274313C314.378 0.266363 314.683 0.254433 314.987 0.243502C315.342 0.230583 315.342 0.231576 315.813 0.292193C316.034 0.321011 316.256 0.298154 316.473 0.291198C316.703 0.283249 316.92 0.277288 317.104 0.318031C317.22 0.343867 317.358 0.359767 317.501 0.355792C317.806 0.346849 318.115 0.33791 318.415 0.323004C318.655 0.311079 318.862 0.319025 319.037 0.355792C319.162 0.381629 319.291 0.394555 319.444 0.388593C320.126 0.364744 320.814 0.339891 321.496 0.317036C321.556 0.315049 321.639 0.323995 321.695 0.332939C321.824 0.350826 321.949 0.370696 322.073 0.39057C322.373 0.381627 322.682 0.377662 322.977 0.36375C323.291 0.349838 323.577 0.344868 323.822 0.399522C323.872 0.411447 323.946 0.428331 324.006 0.427337C324.237 0.423362 324.463 0.413428 324.689 0.405478C324.915 0.397529 325.146 0.38958 325.372 0.38163C325.635 0.406473 325.801 0.47802 326.17 0.455164C326.391 0.441252 326.627 0.438271 326.853 0.430321C327.079 0.422371 327.309 0.413429 327.535 0.406473C327.609 0.404486 327.692 0.399514 327.757 0.403489C327.826 0.407464 327.886 0.421379 327.946 0.431316C328.131 0.460134 328.301 0.488955 328.564 0.472062C328.786 0.45815 329.021 0.455168 329.247 0.446224C329.556 0.435293 329.556 0.435295 330.068 0.497899C330.276 0.523736 330.511 0.489951 330.709 0.511813C330.843 0.526719 330.959 0.551556 331.088 0.568449C331.143 0.575405 331.231 0.578382 331.295 0.576395C331.6 0.567451 331.909 0.558512 332.209 0.543606C332.453 0.531682 332.656 0.543605 332.827 0.579379C332.952 0.605216 333.076 0.616152 333.233 0.61019C333.994 0.582366 334.755 0.558509 335.512 0.527704C335.77 0.516773 335.978 0.53367 336.121 0.569444C336.365 0.631055 336.711 0.558515 336.965 0.608201C337.122 0.639006 337.279 0.674782 337.565 0.659876C338.091 0.634039 338.626 0.620119 339.157 0.602232C339.346 0.629063 339.535 0.655899 339.729 0.682729C340.033 0.671798 340.338 0.660861 340.642 0.650924C340.868 0.642974 341.099 0.634031 341.325 0.627075C341.399 0.625088 341.477 0.621112 341.546 0.626081C341.615 0.631049 341.671 0.64397 341.736 0.653908C342.054 0.7026 342.054 0.703598 342.58 0.683724C342.806 0.674781 343.023 0.668818 343.212 0.708567C343.387 0.745335 343.595 0.752286 343.835 0.741355C344.287 0.721481 344.743 0.706576 345.205 0.692664C345.348 0.687696 345.482 0.704589 345.602 0.730426C345.781 0.771168 346.003 0.767194 346.229 0.756263C346.529 0.742351 346.824 0.728442 347.078 0.784091C347.129 0.796015 347.207 0.812899 347.262 0.811905C347.641 0.803956 348.024 0.797998 348.393 0.779117C348.762 0.760236 348.942 0.821845 349.195 0.851656C349.574 0.838738 349.957 0.825818 350.335 0.8129C350.409 0.809919 350.496 0.800981 350.561 0.805949C350.833 0.826817 350.99 0.901344 351.364 0.878489C351.58 0.86557 351.816 0.861601 352.042 0.858619C352.102 0.857626 352.18 0.874511 352.222 0.887429C352.245 0.894385 352.222 0.913264 352.194 0.923201C352.111 0.951025 352.009 0.97687 351.936 1.00569C351.926 1.00966 352.014 1.02754 352.065 1.03549C352.189 1.05338 352.332 1.0504 352.499 1.04245C352.642 1.0355 352.789 1.04941 352.891 1.07922C352.932 1.09115 352.918 1.11102 352.831 1.1766C352.831 1.2253 352.928 1.20343 352.96 1.17163C353.011 1.12592 352.914 1.11102 352.729 1.13586C352.6 1.15375 352.535 1.17958 352.568 1.20045C352.586 1.21138 352.674 1.2253 352.831 1.1766C353.237 1.11698 353.541 1.10606 353.846 1.09512C353.924 1.09214 354.016 1.0822 354.072 1.08816C354.27 1.11201 354.455 1.14083 354.648 1.16766C354.87 1.1617 355.077 1.14679 355.294 1.18554C355.599 1.2402 355.613 1.23523 355.908 1.2243C356.06 1.21834 356.212 1.21338 356.365 1.20841C356.517 1.20344 356.637 1.21834 356.771 1.2412C357.043 1.2879 357.066 1.2879 357.246 1.2243C357.352 1.18555 357.426 1.17263 357.559 1.19052C358.002 1.25113 358.007 1.25511 358.385 1.23722C358.699 1.22231 358.994 1.21834 359.225 1.27498C359.382 1.31473 359.432 1.30579 359.557 1.26405C359.889 1.15375 360.041 1.15573 360.664 1.23523C360.955 1.27299 361.255 1.23225 361.55 1.22728C361.799 1.22331 361.974 1.24715 361.993 1.30976C362.007 1.34851 362.048 1.37634 362.214 1.38926C362.279 1.39423 362.357 1.40118 362.422 1.3992C362.805 1.38727 363.183 1.37336 363.566 1.35944C363.76 1.35249 363.866 1.30579 363.829 1.24418C363.788 1.1786 363.861 1.15474 364.138 1.13586C364.304 1.12493 364.438 1.12692 364.572 1.14481C364.719 1.16468 364.678 1.18257 364.549 1.21834C364.24 1.30579 364.277 1.35944 364.673 1.42006C364.812 1.44093 364.922 1.45982 364.955 1.49062C364.973 1.50652 364.955 1.52739 364.996 1.53931C365.222 1.60589 365.536 1.64863 365.887 1.68043C366.223 1.6536 366.454 1.6983 366.712 1.73408C366.915 1.7619 367.155 1.73806 367.372 1.72812C367.617 1.71719 367.82 1.72514 367.995 1.76191C368.12 1.78774 368.249 1.79966 368.401 1.79469C368.705 1.78376 369.014 1.77681 369.314 1.76091C369.573 1.747 369.766 1.76688 369.928 1.80066C370.131 1.84339 370.357 1.81457 370.569 1.82053C370.855 1.82749 370.998 1.91593 371.372 1.89208C371.593 1.87816 371.824 1.8732 372.055 1.86922C372.115 1.86823 372.189 1.88512 372.239 1.89705C372.484 1.9517 372.77 1.94872 373.084 1.93282C373.3 1.92189 373.513 1.91196 373.725 1.94972C374.075 2.01332 374.463 2.06897 374.832 2.1276C374.883 2.17331 374.846 2.22696 375.109 2.25379C375.247 2.2677 375.376 2.28858 375.483 2.31143C375.612 2.33826 375.732 2.34522 375.898 2.33827C376.198 2.32435 376.511 2.32136 376.807 2.30348C377.079 2.28758 377.249 2.32038 377.415 2.35119C377.549 2.37603 377.674 2.38795 377.835 2.37006C378.001 2.35317 378.121 2.36409 378.255 2.39092C378.444 2.42769 378.458 2.42372 379.086 2.43465C379.15 2.43565 379.229 2.45055 379.265 2.46346C379.284 2.47042 379.242 2.49031 379.21 2.50024C379.169 2.51217 379.104 2.52607 379.044 2.52905C378.361 2.55489 377.674 2.57774 376.991 2.60358C376.922 2.60656 376.848 2.61353 376.797 2.62346C376.742 2.63439 376.673 2.64929 376.673 2.6632C376.673 2.67314 376.765 2.68507 376.83 2.69202C377.033 2.71488 377.273 2.6801 377.471 2.70594C377.605 2.72283 377.715 2.74667 377.849 2.76257C377.904 2.76953 377.992 2.76854 378.061 2.76655C378.292 2.7596 378.518 2.74966 378.749 2.7437C378.813 2.74271 378.887 2.75265 378.947 2.7606C379.39 2.82022 379.39 2.82022 379.773 2.8073C379.925 2.80233 380.087 2.78742 380.23 2.79338C380.368 2.79935 380.488 2.82618 380.613 2.84307C380.871 2.87884 381.115 2.91362 381.134 2.99113C381.143 3.02095 381.295 3.04678 381.448 3.04876C381.595 3.05075 381.752 3.03983 381.904 3.03387C382.264 3.02194 382.264 3.02194 382.73 3.08256C382.859 3.09945 382.998 3.10144 383.164 3.0915C383.228 3.08753 383.307 3.0915 383.376 3.09647C383.602 3.11138 383.602 3.13025 383.454 3.16603C383.247 3.2187 383.265 3.22367 383.847 3.26838C384.068 3.28528 384.239 3.31708 384.423 3.3449C384.723 3.38962 384.719 3.38961 384.52 3.44824C384.474 3.46116 384.433 3.47508 384.386 3.48899C384.253 3.52774 384.146 3.56948 383.87 3.57345C383.565 3.57743 383.261 3.59333 382.956 3.60426C382.661 3.61519 382.583 3.63903 382.61 3.70661C382.642 3.78809 382.703 3.79704 383.233 3.79604C383.385 3.79604 383.519 3.80399 383.634 3.83082C383.579 3.86262 383.478 3.88746 383.33 3.89342C382.952 3.90833 382.569 3.92125 382.19 3.93417C381.886 3.9451 381.581 3.95603 381.277 3.96696C381.088 3.97391 380.968 4.02559 381.019 4.08323C381.046 4.11602 381.069 4.14881 381.092 4.18161C381.143 4.24719 381.24 4.26409 381.549 4.26111C381.628 4.26011 381.701 4.25216 381.775 4.25414C382.075 4.2611 382.218 4.34358 382.578 4.32668C382.878 4.31277 383.192 4.30979 383.487 4.29191C383.759 4.27601 383.911 4.31179 384.1 4.33862C384.165 4.34756 384.234 4.36643 384.29 4.36544C384.672 4.35451 385.055 4.34359 385.429 4.32471C385.604 4.31676 385.71 4.32272 385.849 4.34657C386.181 4.4042 386.19 4.40122 386.684 4.38333C387.044 4.36942 387.048 4.37141 387.51 4.43202C387.639 4.44892 387.777 4.44891 387.943 4.44096C388.16 4.43103 388.386 4.41513 388.612 4.43003C388.681 4.43401 388.769 4.44594 388.792 4.45886C388.806 4.4678 388.741 4.48966 388.686 4.49662C388.28 4.54829 387.805 4.53935 387.362 4.56022C387.224 4.56618 387.085 4.5473 386.97 4.52047C386.85 4.49364 386.721 4.48271 386.564 4.48768C386.259 4.49861 385.95 4.50556 385.65 4.52146C385.392 4.53537 385.212 4.51252 385.032 4.48171C384.972 4.47177 384.903 4.45289 384.843 4.45388C384.16 4.47376 383.473 4.49364 382.795 4.52146C382.523 4.53339 382.366 4.50159 382.181 4.47476C382.117 4.46582 382.052 4.44693 381.992 4.44793C381.761 4.4519 381.535 4.46283 381.305 4.47078C380.465 4.50059 379.63 4.5304 378.79 4.55823C378.735 4.56022 378.666 4.53934 378.601 4.5304C378.477 4.51251 378.347 4.49562 378.218 4.47873C377.988 4.48668 377.762 4.49661 377.531 4.50257C377.365 4.50655 377.217 4.52047 377.194 4.55823C377.18 4.58307 377.333 4.60592 377.494 4.60394C377.651 4.60195 377.808 4.59002 377.937 4.60294C378.578 4.66654 378.578 4.66753 378.979 4.65462C379.33 4.64269 379.293 4.63275 379.602 4.6874C379.736 4.71125 379.856 4.72517 380.008 4.71921C380.387 4.7053 380.769 4.69138 381.152 4.67946C381.212 4.67747 381.291 4.68741 381.351 4.69536C381.803 4.75498 381.803 4.75697 382.177 4.74206C382.666 4.72418 382.684 4.71921 383.012 4.77983C383.238 4.82156 383.445 4.79274 383.662 4.79075C383.911 4.82951 384.183 4.8643 384.409 4.90802C384.677 4.95969 384.958 4.95074 385.263 4.93583C385.489 4.9249 385.71 4.92093 385.895 4.96167C386.07 4.99943 386.282 5.00341 386.522 4.99348C386.739 4.98453 386.961 4.96565 387.187 4.98751C387.247 4.99347 387.339 5.00838 387.334 5.01732C387.33 5.03124 387.27 5.05111 387.21 5.05708C386.785 5.09782 386.319 5.09682 385.872 5.1157C385.812 5.11868 385.734 5.10775 385.674 5.0998C385.544 5.08191 385.42 5.06105 385.295 5.04217C385.069 5.04813 384.839 5.05011 384.617 5.06204C384.446 5.07098 384.317 5.07 384.193 5.04615C384.077 5.02428 383.953 4.99745 383.814 4.99049C383.676 4.98354 383.514 4.99844 383.362 5.00441C383.21 5.01037 383.035 5.00738 382.915 5.02328C382.795 5.03918 382.721 5.07396 382.643 5.10179C382.555 5.13259 382.435 5.14254 382.26 5.14552C382.098 5.1485 381.969 5.14452 381.849 5.1167C381.798 5.10477 381.729 5.09582 381.66 5.08788C381.595 5.08092 381.521 5.06998 381.461 5.07197C380.774 5.09483 380.091 5.11968 379.404 5.14353C379.062 5.15545 379.067 5.15544 378.357 5.09682C378.292 5.09185 378.214 5.08489 378.149 5.08688C377.766 5.0988 377.388 5.11272 377.005 5.12663C376.617 5.14054 376.622 5.13856 375.962 5.07595C375.842 5.06403 375.667 5.07993 375.524 5.07794C375.224 5.07297 375.077 4.9895 374.726 5.0054C374.426 5.01931 374.112 5.02229 373.812 5.04018C373.54 5.05608 373.383 5.0213 373.199 4.99447C373.134 4.98553 373.065 4.96565 373.01 4.96764C372.322 4.9895 371.64 5.01434 370.726 5.01732C370.5 5.01732 370.602 5.0382 370.749 5.04515C370.961 5.05608 371.031 5.03521 370.915 4.99547C370.832 4.96764 370.712 4.95372 370.615 4.96068C370.565 4.96465 370.5 4.98354 370.726 5.01732C370.966 5.05509 370.952 5.07595 370.994 5.08788C371.095 5.11669 371.238 5.12862 371.386 5.12464C371.617 5.11769 371.843 5.10775 372.073 5.10179C372.138 5.0998 372.216 5.10676 372.276 5.11471C372.784 5.17632 372.788 5.1803 373.328 5.15645C373.499 5.14949 373.623 5.14949 373.757 5.16837C373.942 5.19421 374.075 5.23793 374.357 5.22401C374.731 5.20513 375.113 5.19421 375.496 5.18328C375.556 5.18129 375.621 5.19918 375.69 5.20713C375.879 5.23098 376.018 5.2757 376.299 5.25681C376.516 5.24191 376.751 5.23792 376.982 5.23494C377.042 5.23395 377.134 5.24985 377.162 5.26277C377.217 5.28563 377.148 5.31246 376.991 5.33134C376.927 5.33929 376.839 5.3373 376.765 5.34028C376.461 5.35121 376.156 5.36313 375.852 5.37208C375.69 5.37705 375.538 5.39196 375.519 5.42873C375.506 5.45357 375.672 5.47543 375.829 5.47344C376.059 5.47046 376.29 5.46251 376.511 5.44959C376.903 5.42773 377.245 5.43369 377.563 5.49629C377.789 5.54002 377.775 5.52412 378.015 5.65331C378.075 5.6861 378.255 5.68908 378.412 5.68709C378.79 5.68212 378.966 5.69703 378.933 5.72784C378.892 5.7656 378.758 5.77751 378.587 5.78248C378.283 5.79043 377.978 5.80336 377.674 5.81429C377.6 5.81727 377.517 5.82323 377.448 5.82124C377.379 5.81925 377.314 5.80733 377.254 5.79839C377.125 5.77951 377.014 5.75068 376.876 5.74373C376.737 5.73677 376.576 5.75168 376.424 5.75764C376.271 5.76261 376.11 5.77751 375.972 5.77056C375.833 5.7636 375.718 5.7338 375.593 5.71591C375.533 5.70697 375.459 5.69305 375.4 5.69404C375.095 5.70199 374.791 5.71491 374.486 5.72485C374.112 5.73777 374.112 5.73777 373.66 5.67616C373.531 5.65827 373.397 5.65927 373.227 5.66722C372.858 5.68312 372.853 5.68013 372.179 5.6225C372.115 5.61653 372.036 5.60958 371.972 5.61256C371.284 5.63542 370.602 5.66026 369.919 5.68411C369.333 5.70497 369.333 5.70498 369.01 5.80435C368.77 5.87789 368.765 5.87788 369.001 5.91167C369.19 5.9395 369.36 5.98023 369.568 5.99514C369.762 6.00905 370.002 5.96434 370.214 6.01005C370.32 6.0329 370.458 6.05775 370.592 6.06172C370.804 6.06669 371.031 6.03787 371.234 6.08159C371.335 6.10345 371.487 6.12632 371.617 6.12731C371.843 6.1293 372.073 6.11339 372.299 6.10644C372.368 6.10445 372.447 6.10445 372.512 6.10942C372.581 6.11538 372.641 6.12731 372.701 6.13725C372.885 6.17103 373.084 6.18693 373.323 6.17003C373.716 6.14221 374.066 6.15612 374.371 6.21972C374.412 6.22866 374.514 6.22966 374.578 6.22569C374.744 6.21575 374.887 6.21475 375.012 6.23363C375.063 6.24158 375.136 6.25549 375.127 6.26443C375.113 6.27934 375.058 6.29922 374.998 6.30418C374.564 6.33797 374.099 6.34195 373.651 6.35984C373.591 6.36183 373.517 6.3489 373.457 6.33996C373.328 6.32207 373.217 6.29227 373.079 6.28531C372.941 6.27835 372.779 6.29127 372.627 6.29624C372.475 6.30121 372.313 6.31611 372.175 6.31015C372.036 6.3032 371.907 6.27835 371.796 6.25649C371.667 6.23165 371.543 6.22867 371.372 6.23861C371.151 6.25153 370.92 6.25351 370.694 6.26047C370.569 6.24159 370.445 6.22071 370.316 6.20282C370.256 6.19388 370.182 6.18295 370.117 6.18395C369.813 6.1919 369.508 6.20382 369.204 6.21475C368.899 6.22568 368.899 6.22569 368.383 6.16408C368.323 6.15712 368.244 6.14917 368.179 6.15116C367.797 6.16308 367.418 6.17798 367.035 6.1899C366.888 6.19487 366.754 6.18096 366.634 6.15413C366.519 6.1273 366.38 6.1124 366.237 6.11737C365.628 6.13823 365.019 6.15811 364.41 6.18295C364.166 6.19289 363.958 6.18395 363.792 6.14818C363.598 6.10743 363.382 6.11737 363.156 6.12532C362.643 6.1452 362.639 6.1442 362.311 6.09352C362.247 6.08358 362.182 6.0647 362.122 6.06569C361.592 6.0806 361.056 6.09451 360.531 6.11836C360.254 6.13128 360.106 6.0965 359.922 6.07066C359.857 6.06172 359.788 6.04284 359.732 6.04483C359.349 6.05576 358.966 6.0657 358.593 6.08557C358.219 6.10545 358.076 6.01303 357.795 6.01403C357.412 6.01502 357.033 6.03788 356.655 6.05179C356.351 6.06272 356.046 6.07365 355.742 6.08458C355.437 6.09551 355.133 6.10445 354.828 6.11737C354.667 6.12432 354.547 6.11538 354.413 6.09053C354.242 6.05774 354.039 6.03191 353.855 6.0021C353.574 5.95937 353.573 5.95937 353.232 5.97129C353.158 5.97427 353.08 5.97626 353.006 5.97924C352.448 6.0011 352.448 5.99912 351.737 5.93651C351.705 5.93353 351.622 5.94447 351.59 5.95242C351.493 5.97825 351.405 6.00607 351.318 6.0329C351.193 6.017 351.041 6.00806 350.958 5.98521C350.722 5.92061 350.353 6.00905 350.113 5.94545C350.026 5.9216 349.873 5.90074 349.735 5.89477C349.592 5.88881 349.431 5.90272 349.283 5.90869C348.9 5.92359 348.9 5.9226 348.572 6.01104C348.406 6.05477 348.167 6.04681 347.95 6.05675C347.724 6.06768 347.507 6.07364 347.318 6.0329C347.147 5.99613 346.939 5.98719 346.695 5.99912C346.395 6.01402 346.086 6.02296 345.781 6.03191C345.717 6.03389 345.638 6.02893 345.574 6.02297C344.868 5.96434 344.868 5.96335 344.527 5.97626C344.374 5.98223 344.217 5.98421 344.07 5.99315C343.821 6.00905 343.632 5.98818 343.452 5.95638C343.392 5.94645 343.322 5.92757 343.262 5.92857C342.958 5.93354 342.658 5.94248 342.358 5.95142C342.128 5.95838 341.897 5.96235 341.675 5.97626C341.306 5.99912 341.126 5.93452 340.873 5.90471C340.494 5.91763 340.112 5.92657 339.733 5.94446C339.558 5.95241 339.443 5.94943 339.309 5.92558C339.138 5.89577 338.981 5.86199 338.704 5.87689C338.335 5.89677 337.948 5.90373 337.57 5.91565C337.316 5.88484 337.131 5.82223 336.767 5.84509C336.545 5.859 336.31 5.86198 336.084 5.86993C335.78 5.88086 335.475 5.89081 335.171 5.90273C334.843 5.91466 334.848 5.91167 334.345 5.85304C334.054 5.81826 333.754 5.85702 333.459 5.86298C333.228 5.86795 333.113 5.91366 333.168 5.97229C333.224 6.03092 333.099 6.07663 332.887 6.08458C332.356 6.10346 331.821 6.12333 331.291 6.14022C331.226 6.14221 331.148 6.13525 331.088 6.12829C330.52 6.06569 330.52 6.06669 330.267 6.07564C329.888 6.09054 329.501 6.09848 329.127 6.11737C328.869 6.13028 328.68 6.10942 328.513 6.07564C328.384 6.0498 328.264 6.04384 328.098 6.0498C326.271 6.11638 324.444 6.17799 322.622 6.24655C322.35 6.25649 322.193 6.22768 322.009 6.20085C321.944 6.1919 321.884 6.17302 321.819 6.17302C321.667 6.17302 321.515 6.18196 321.363 6.18793C320.68 6.21178 319.997 6.24059 319.31 6.25848C319.019 6.26643 318.941 6.31214 318.816 6.3499C318.719 6.37872 318.609 6.39064 318.438 6.39462C318.272 6.39859 318.152 6.39362 318.023 6.36778C317.856 6.334 317.667 6.31313 317.409 6.32704C317.109 6.34294 316.805 6.3499 316.495 6.36083C316.339 6.3658 316.219 6.38369 316.168 6.41946C316.159 6.42542 316.256 6.44033 316.311 6.44928C316.496 6.47909 316.671 6.51387 316.878 6.53473C317.091 6.5556 317.321 6.53174 317.543 6.52578C317.621 6.52379 317.695 6.51784 317.769 6.51883C317.838 6.51982 317.921 6.5248 317.972 6.53374C318.212 6.57846 318.465 6.60926 318.798 6.58243C319.084 6.59535 319.231 6.67783 319.596 6.65596C319.817 6.64305 320.048 6.63708 320.279 6.63212C320.339 6.63112 320.403 6.64901 320.468 6.65795C320.652 6.6828 320.8 6.72254 321.077 6.70565C321.372 6.68776 321.686 6.68478 321.986 6.67087C322.152 6.66292 322.271 6.66988 322.401 6.69572C322.567 6.72851 322.756 6.75334 323.014 6.73744C323.236 6.72353 323.471 6.72055 323.697 6.71161C323.992 6.70068 323.992 6.70167 324.518 6.76328C324.578 6.77024 324.657 6.77819 324.721 6.7762C325.104 6.76428 325.482 6.74937 325.865 6.73744C326.013 6.73247 326.156 6.74539 326.258 6.77421C326.299 6.78614 326.285 6.80602 326.299 6.82291C325.538 6.84974 324.777 6.8726 324.02 6.90539C323.734 6.91831 323.605 6.87756 323.416 6.85471C323.351 6.84676 323.282 6.82987 323.222 6.83185C322.687 6.84875 322.156 6.86663 321.626 6.88849C321.46 6.89545 321.335 6.89147 321.21 6.86265C320.892 6.78614 320.505 6.82787 320.145 6.8388C319.868 6.84675 319.78 6.87756 319.813 6.94315C319.854 7.02066 320.02 7.04451 320.445 7.0306C320.597 7.02563 320.749 7.01867 320.901 7.01469C321.049 7.01072 321.183 7.02364 321.303 7.05047C321.418 7.0773 321.556 7.09121 321.699 7.08723C322.004 7.07829 322.313 7.06935 322.608 7.05445C322.853 7.04252 323.056 7.05246 323.226 7.08922C323.416 7.12997 323.637 7.12102 323.859 7.11208C324.375 7.0922 324.38 7.0932 324.703 7.14289C324.767 7.15283 324.832 7.17171 324.892 7.17072C325.423 7.15581 325.958 7.14289 326.479 7.11904C326.751 7.10712 326.908 7.13891 327.088 7.16475C327.153 7.17369 327.217 7.19357 327.277 7.19158C327.66 7.18065 328.043 7.16971 328.417 7.15083C328.592 7.14189 328.698 7.14785 328.841 7.1717C329.182 7.23033 329.192 7.22834 329.676 7.20946C329.824 7.2035 329.985 7.19257 330.124 7.20052C330.262 7.20847 330.373 7.23729 330.502 7.25518C330.562 7.26313 330.636 7.27405 330.7 7.27206C331.005 7.26411 331.309 7.2522 331.614 7.24127C331.9 7.23033 331.9 7.23133 332.435 7.29294C332.652 7.31878 332.878 7.29691 333.095 7.28896C333.33 7.28002 333.542 7.28002 333.722 7.31878C333.902 7.35753 334.119 7.35554 334.349 7.34759C334.566 7.33964 334.788 7.31779 335.009 7.34462C335.517 7.40623 335.517 7.40721 335.83 7.39528C336.287 7.37839 336.739 7.36249 337.201 7.34759C337.26 7.3456 337.339 7.35753 337.399 7.36548C337.528 7.38337 337.639 7.41317 337.777 7.42013C337.916 7.42808 338.077 7.41615 338.225 7.41019C338.7 7.39131 338.732 7.38436 339.05 7.44994C339.318 7.5036 339.65 7.42609 339.899 7.48771C340.042 7.52249 340.236 7.55031 340.504 7.53341C340.725 7.5195 340.956 7.51552 341.186 7.50757C341.551 7.49466 341.551 7.49566 342.012 7.55528C342.072 7.56323 342.151 7.57316 342.211 7.57117C342.515 7.56322 342.824 7.55627 343.12 7.53839C343.466 7.51752 343.687 7.55528 343.945 7.59205C344.148 7.62087 344.388 7.59701 344.605 7.58708C344.84 7.57714 345.052 7.58012 345.228 7.61887C345.412 7.65862 345.629 7.65365 345.86 7.6457C346.077 7.63875 346.298 7.61589 346.52 7.64371C346.995 7.70532 346.995 7.70532 347.341 7.6934C347.645 7.68247 347.95 7.67055 348.254 7.6626C348.314 7.66061 348.388 7.67353 348.448 7.68247C348.577 7.70036 348.688 7.73017 348.826 7.73713C348.965 7.74409 349.126 7.73117 349.278 7.7262C349.431 7.72123 349.592 7.70632 349.73 7.71229C349.869 7.71825 349.998 7.74309 350.109 7.76496C350.238 7.79079 350.358 7.79377 350.533 7.78383C350.755 7.77091 350.985 7.76793 351.211 7.76098C351.336 7.77986 351.465 7.79874 351.585 7.8196C351.71 7.84147 351.843 7.83948 352.014 7.83252C352.582 7.80867 352.586 7.81166 353.061 7.87327C353.278 7.90109 353.504 7.87823 353.721 7.87128C353.952 7.86333 354.169 7.85936 354.348 7.89911C354.524 7.93687 354.741 7.94183 354.971 7.9299C355.119 7.92196 355.276 7.917 355.428 7.91401C355.497 7.91302 355.58 7.91699 355.631 7.92494C355.876 7.96668 356.115 8.00444 356.452 7.97761C356.747 7.98556 356.895 8.06705 357.25 8.05115C357.55 8.03724 357.864 8.03424 358.159 8.01636C358.431 8.00046 358.625 8.02829 358.764 8.06307C359.013 8.12468 359.363 8.04121 359.612 8.10183C359.755 8.13661 359.94 8.16443 360.217 8.14952C360.521 8.13363 360.618 8.15449 360.706 8.21709C360.757 8.25286 360.747 8.28169 360.655 8.30951C360.563 8.33833 360.461 8.33336 360.314 8.30057C360.143 8.2638 359.94 8.25684 359.695 8.26479C359.456 8.27274 359.308 8.22107 359.11 8.2012C358.911 8.18033 358.676 8.21511 358.468 8.18828C357.979 8.12568 357.979 8.12568 357.647 8.1376C357.421 8.14555 357.186 8.14953 356.964 8.16344C356.701 8.18033 356.531 8.14952 356.351 8.1217C356.286 8.11176 356.221 8.09288 356.166 8.09387C355.636 8.10878 355.1 8.12269 354.575 8.14754C354.298 8.16045 354.15 8.12468 353.966 8.09984C353.901 8.0909 353.832 8.07301 353.776 8.075C353.32 8.08891 352.868 8.10679 352.411 8.12369C352.323 8.15052 352.226 8.17635 352.143 8.20517C352.056 8.23498 351.936 8.2479 351.76 8.24691C351.47 8.24691 351.184 8.28864 350.893 8.23598C350.593 8.18232 350.57 8.1853 350.28 8.19822C349.91 8.21511 349.518 8.21114 349.172 8.24989C349.112 8.25685 349.048 8.27572 349.048 8.28963C349.043 8.29857 349.14 8.3115 349.2 8.31945C349.403 8.3433 349.638 8.30852 349.841 8.33336C349.975 8.34926 350.086 8.3731 350.22 8.39C350.275 8.39695 350.358 8.39596 350.432 8.39497C350.51 8.39398 350.584 8.38703 350.658 8.38802C350.727 8.38901 350.801 8.39497 350.856 8.40391C351.11 8.44167 351.377 8.47646 351.604 8.52117C351.825 8.5649 352.033 8.53509 352.254 8.5331C353.14 8.60266 353.14 8.60365 353.735 8.58179C353.883 8.57682 354.035 8.57086 354.187 8.57185C354.252 8.57185 354.312 8.58973 354.376 8.59967C354.561 8.62948 354.736 8.65631 354.994 8.64042C355.216 8.6265 355.451 8.62352 355.677 8.61458C355.982 8.60365 355.982 8.60365 356.498 8.66625C356.628 8.68215 356.766 8.68017 356.932 8.67222C357.075 8.66527 357.223 8.68017 357.324 8.70899C357.366 8.72091 357.352 8.74079 357.366 8.75768C356.909 8.77358 356.448 8.78451 356.005 8.80836C355.719 8.82327 355.59 8.78053 355.4 8.75768C355.336 8.74973 355.267 8.73284 355.207 8.73483C354.755 8.74973 354.302 8.76661 353.85 8.78649C353.795 8.78848 353.726 8.81133 353.721 8.82524C353.712 8.85108 353.827 8.87593 353.993 8.87493C354.215 8.87394 354.432 8.85704 354.63 8.89779C354.796 8.93356 355.004 8.94947 355.248 8.93357C355.396 8.92463 355.553 8.92462 355.7 8.91667C356.092 8.89282 356.448 8.89779 356.743 8.96536C356.969 8.98325 357.19 8.96636 357.407 8.95742C357.569 8.95046 357.726 8.9435 357.841 8.96238C358.085 9.00213 358.325 9.04188 358.662 9.01505C359.027 9.04287 359.303 9.1015 359.608 9.1492C359.751 9.17205 359.862 9.18498 360.028 9.17007C360.097 9.16411 360.18 9.1641 360.254 9.16112C360.406 9.15615 360.567 9.14125 360.706 9.14721C360.844 9.15417 360.96 9.18299 361.084 9.20087C361.144 9.20982 361.213 9.22472 361.273 9.22373C361.504 9.21876 361.73 9.20882 361.956 9.20087C362.182 9.19392 362.408 9.18696 362.634 9.18001C362.823 9.20585 363.017 9.23169 363.206 9.25752C363.511 9.24659 363.815 9.23565 364.115 9.22572C364.452 9.21379 364.452 9.21479 364.936 9.2764C365.153 9.30422 365.384 9.28633 365.591 9.27341C365.937 9.25254 366.168 9.29031 366.413 9.33006C366.463 9.33801 366.556 9.34298 366.616 9.339C366.855 9.32509 367.063 9.33602 367.238 9.37278C367.363 9.39862 367.487 9.41055 367.64 9.40559C368.17 9.3867 368.701 9.36682 369.231 9.34993C369.296 9.34794 369.37 9.35689 369.43 9.36484C369.9 9.42546 369.905 9.42844 370.251 9.41254C370.56 9.39862 370.846 9.39266 371.091 9.44731C371.141 9.45924 371.22 9.47613 371.275 9.47514C371.653 9.4652 372.036 9.45427 372.41 9.43738C372.581 9.42943 372.701 9.43242 372.834 9.45527C373.005 9.48409 373.157 9.51887 373.439 9.50595C374.218 9.46918 374.223 9.47513 375.146 9.5437C375.21 9.54867 375.298 9.54073 375.372 9.53675C375.529 9.52681 375.644 9.54073 375.782 9.56358C376.091 9.61526 376.101 9.61228 376.396 9.60134C376.622 9.5924 376.857 9.59041 377.079 9.57551C377.42 9.55365 377.646 9.5924 377.9 9.62917C378.103 9.65799 378.338 9.63414 378.555 9.62519C378.79 9.61526 379.003 9.61823 379.178 9.65599C379.298 9.68183 379.427 9.69575 379.579 9.69078C380.11 9.67289 380.64 9.65301 381.171 9.63513C381.235 9.63314 381.314 9.64109 381.374 9.64805C381.9 9.70966 381.9 9.71264 382.421 9.68979C382.587 9.68283 382.726 9.68084 382.85 9.70171C382.97 9.72159 383.099 9.74046 383.224 9.75934C383.45 9.75239 383.681 9.7504 383.902 9.73848C384.073 9.72953 384.193 9.73351 384.326 9.75438C384.502 9.78121 384.649 9.8279 384.926 9.80505C385.069 9.79412 385.235 9.79711 385.378 9.78717C385.549 9.77425 385.664 9.7822 385.798 9.80803C385.964 9.83884 386.135 9.87064 386.402 9.85474C386.698 9.83685 387.011 9.83387 387.311 9.81996C387.477 9.81201 387.593 9.81996 387.727 9.8458C387.893 9.87859 388.082 9.89946 388.34 9.88654C388.866 9.8617 388.871 9.86666 389.383 9.92926C389.512 9.94516 389.65 9.94318 389.816 9.93523C389.959 9.92828 390.107 9.94318 390.208 9.972C390.305 10.0038 390.296 10.0237 390.305 10.0406ZM349.195 1.07823C349.043 1.0832 348.891 1.08916 348.669 1.0027C348.656 0.987798 348.665 0.969915 348.633 0.956996C348.559 0.930166 348.443 0.911286 348.305 0.908305C348.056 0.90433 347.756 0.93811 347.761 0.963947C347.765 0.985809 347.844 1.00469 347.996 1.02257C348.06 1.02953 348.111 1.04146 348.171 1.04941C348.346 1.07226 348.485 1.11699 348.739 1.09413C348.693 1.03252 348.716 1.06332 348.739 1.09413C348.716 1.13189 348.785 1.15872 348.951 1.16965C348.997 1.17263 349.066 1.17064 349.103 1.16468C349.246 1.14282 349.269 1.11301 349.163 1.03451C349.145 1.04743 349.158 1.07028 349.2 1.07624C349.241 1.0822 349.343 1.07724 349.394 1.07028C349.523 1.0514 349.587 1.02656 349.555 1.00569C349.537 0.994757 349.449 0.980845 349.394 0.980845C349.297 0.980845 349.209 1.0027 349.195 1.07823ZM386.499 12.6024C386.162 12.6212 385.775 12.6143 385.438 12.653C385.378 12.66 385.318 12.6779 385.314 12.6918C385.309 12.7007 385.401 12.7137 385.457 12.7206C385.581 12.7365 385.72 12.7316 385.881 12.7266C386.126 12.7196 386.269 12.7653 386.458 12.7882C386.518 12.7951 386.596 12.8001 386.661 12.7981C387.034 12.7862 387.404 12.7733 387.777 12.7594C387.842 12.7564 387.911 12.7494 387.966 12.7405C388.151 12.7117 388.132 12.6928 387.953 12.6709C387.754 12.6471 387.597 12.6073 387.394 12.5885C387.104 12.5616 386.808 12.5974 386.499 12.6024ZM360.3 13.3278C360.074 13.3357 359.852 13.3437 359.626 13.3516C359.552 13.3546 359.474 13.3556 359.405 13.3596C359.262 13.3665 359.156 13.3874 359.086 13.4202C359.193 13.446 359.322 13.4609 359.465 13.458C359.691 13.452 359.912 13.4391 360.138 13.4361C360.383 13.4321 360.526 13.4768 360.715 13.4997C360.775 13.5067 360.849 13.5076 360.918 13.5086C361.259 13.5126 361.467 13.4609 361.402 13.3884C361.356 13.3318 361.181 13.298 360.969 13.3049C360.747 13.3119 360.521 13.3198 360.3 13.3278ZM388.077 11.1336C388.132 11.1168 388.192 11.1048 388.22 11.0899C388.303 11.0393 388.271 11.0015 388.119 10.9617C387.934 10.913 387.708 10.9458 387.5 10.9508C387.45 10.9518 387.394 10.9727 387.367 10.9856C387.348 10.9945 387.348 11.0134 387.376 11.0184C387.602 11.0581 387.842 11.0949 388.077 11.1336ZM348.056 8.19822C347.834 8.20617 347.608 8.21213 347.387 8.22306C347.332 8.22604 347.281 8.24492 347.249 8.25784C347.189 8.28169 347.253 8.31448 347.442 8.31746C347.659 8.32143 347.885 8.30454 348.111 8.29659C348.397 8.28666 348.568 8.24988 348.462 8.21809C348.36 8.18728 348.222 8.18132 348.056 8.19822ZM105.211 6.07464C105.359 6.06967 105.511 6.0657 105.658 6.05874C105.797 6.05178 105.903 6.02992 105.972 5.99713C105.857 5.97129 105.728 5.95738 105.585 5.96036C105.359 5.96632 105.137 5.97427 104.916 5.98421C104.777 5.99017 104.644 6.01203 104.611 6.04582C104.579 6.07166 104.888 6.08657 105.211 6.07464ZM328.546 5.92161C328.606 5.93055 328.666 5.94844 328.726 5.94844C328.873 5.94844 329.026 5.94247 329.164 5.93254C329.224 5.92856 329.27 5.91068 329.298 5.89676C329.316 5.88782 329.312 5.87192 329.284 5.86397C329.15 5.81628 328.615 5.83317 328.527 5.88782C328.518 5.89776 328.541 5.91068 328.546 5.92161ZM313.99 0.480007C314.004 0.495907 314.009 0.511804 314.027 0.527704C314.064 0.557515 314.166 0.579381 314.313 0.594287C314.429 0.569444 314.489 0.541624 314.484 0.511813C314.48 0.495913 314.466 0.480004 314.447 0.464104C314.41 0.434293 314.309 0.412439 314.161 0.397533C314.046 0.421382 313.99 0.449202 313.99 0.480007ZM398.739 13.5007C398.697 13.5136 398.656 13.5265 398.609 13.5385C398.734 13.5673 398.849 13.5762 398.937 13.5603C398.992 13.5504 399.025 13.5355 399.066 13.5226C398.942 13.4937 398.831 13.4858 398.739 13.5007ZM395.869 13.6358C395.929 13.6448 395.984 13.6567 396.049 13.6627C396.155 13.6726 396.252 13.6557 396.326 13.6199C396.266 13.611 396.211 13.5991 396.146 13.5931C396.04 13.5832 395.943 13.6001 395.869 13.6358ZM397.687 13.454C397.654 13.4778 397.719 13.4977 397.89 13.5146C397.931 13.5017 397.987 13.4898 398.014 13.4758C398.061 13.453 397.982 13.4321 397.816 13.4162C397.77 13.4282 397.728 13.4411 397.687 13.454ZM387.948 12.3828C387.916 12.4066 387.98 12.4265 388.151 12.4434C388.192 12.4305 388.248 12.4185 388.275 12.4046C388.322 12.3818 388.243 12.3609 388.077 12.345C388.031 12.3569 387.989 12.3698 387.948 12.3828ZM374.68 5.35121C374.638 5.36413 374.597 5.37705 374.551 5.38897C374.675 5.41779 374.79 5.42673 374.878 5.41083C374.933 5.4009 374.966 5.38599 375.007 5.37307C374.883 5.34425 374.772 5.33631 374.68 5.35121ZM361.97 1.62079C362.081 1.62775 362.173 1.61384 362.251 1.57708C362.191 1.56813 362.136 1.55621 362.071 1.55024C361.965 1.54031 361.868 1.5572 361.795 1.59298C361.855 1.60292 361.914 1.61185 361.97 1.62079ZM355.22 1.38727C355.179 1.40019 355.137 1.41311 355.091 1.42503C355.216 1.45385 355.331 1.46279 355.419 1.44689C355.474 1.43696 355.507 1.42205 355.548 1.40913C355.423 1.38031 355.313 1.37336 355.22 1.38727ZM309.451 0.479012C309.409 0.491931 309.368 0.50485 309.322 0.516774C309.446 0.545592 309.562 0.554533 309.649 0.538633C309.705 0.528696 309.737 0.51379 309.778 0.500871C309.654 0.472053 309.543 0.4651 309.451 0.479012ZM81.5534 8.5639C81.4934 8.55495 81.4335 8.54602 81.3781 8.53608C81.2443 8.56291 81.2028 8.58775 81.2766 8.60663C81.3228 8.61856 81.3919 8.62552 81.4519 8.63446C81.5903 8.60763 81.6226 8.58377 81.5534 8.5639Z" fill="#FFE492"/>
<path d="M18.6473 35.2514C18.2127 35.2699 17.7819 35.2934 17.3474 35.3051C17.1169 35.311 17.0338 35.353 16.9393 35.3921C16.8637 35.4234 16.7768 35.4331 16.637 35.439C15.458 35.4869 14.2828 35.5377 13.1075 35.5876C12.9602 35.5749 12.8884 35.5543 12.9224 35.5299C12.9413 35.5152 12.9866 35.4947 13.032 35.4928C13.8369 35.4566 14.6379 35.4195 15.4466 35.3911C15.6771 35.3833 15.7414 35.3403 15.8585 35.3051C15.8963 35.2934 15.9266 35.2758 15.9757 35.2689C16.0248 35.2611 16.0966 35.2621 16.1609 35.2601C17.4608 35.2044 18.7607 35.1497 20.0606 35.094C20.208 35.1067 20.2798 35.1272 20.2458 35.1517C20.2269 35.1663 20.1815 35.1868 20.1362 35.1888C19.6374 35.2093 19.1423 35.2299 18.6473 35.2514Z" fill="#FFE492"/>
<path d="M256.836 40.4559C256.64 40.4676 256.39 40.4842 256.186 40.4275C256.088 40.4002 255.982 40.3914 255.854 40.3972C255.668 40.407 255.48 40.4148 255.291 40.4207C255.241 40.4217 255.177 40.4109 255.128 40.4021C255.022 40.3845 254.932 40.3552 254.818 40.3474C254.705 40.3396 254.569 40.3611 254.452 40.3562C254.297 40.3493 254.233 40.323 254.274 40.2985C254.297 40.2848 254.342 40.2653 254.391 40.2624C255.09 40.2262 255.094 40.2262 255.291 40.2614C255.442 40.2887 255.582 40.319 255.797 40.3024C255.978 40.2887 256.171 40.2858 256.356 40.277C256.613 40.2653 256.613 40.2663 257.029 40.3278C257.135 40.3435 257.248 40.3425 257.384 40.3337C257.501 40.3269 257.615 40.3425 257.709 40.3689C257.649 40.4021 257.562 40.4236 257.444 40.4295C257.256 40.4393 257.07 40.4461 256.836 40.4559Z" fill="#FFE492"/>
<path d="M249.482 40.1549C249.959 40.1343 250.438 40.1168 250.915 40.0933C251.111 40.0835 251.266 40.0943 251.402 40.1275C251.549 40.1637 251.716 40.1607 251.897 40.1539C252.01 40.15 252.12 40.1656 252.196 40.193C252.226 40.2037 252.218 40.2233 252.23 40.2389C251.814 40.2565 251.395 40.2751 250.975 40.2907C250.926 40.2927 250.865 40.2829 250.82 40.2751C250.718 40.2585 250.631 40.2292 250.522 40.2233C250.287 40.2096 250.053 40.236 249.815 40.2409C249.702 40.2428 249.592 40.2282 249.516 40.2018C249.486 40.1891 249.494 40.1705 249.482 40.1549Z" fill="#FFE492"/>
<path d="M77.4358 31.7513C77.9308 31.7298 78.4258 31.7092 78.9209 31.6877C79.0682 31.7014 79.1362 31.721 79.106 31.7454C79.0871 31.7601 79.0418 31.7806 78.9964 31.7825C78.0064 31.8265 77.0164 31.8686 76.0301 31.9106C75.8827 31.8969 75.8147 31.8774 75.8449 31.8529C75.8638 31.8383 75.9092 31.8177 75.9545 31.8158C76.4458 31.7933 76.9408 31.7728 77.4358 31.7513Z" fill="#FFE492"/>
<path d="M0.988092 37.1824C0.765142 37.1843 0.530904 37.2205 0.281502 37.1931C0.232378 37.1882 0.164341 37.1726 0.16812 37.1638C0.175677 37.1491 0.22103 37.1306 0.270155 37.1247C0.485547 37.1003 0.753869 37.0973 0.863454 37.0289C0.916358 36.9937 1.01461 36.982 1.14687 36.9752C1.28668 36.9674 1.3849 36.9703 1.49449 36.9908C1.63808 37.0172 1.75902 37.0661 1.98575 37.0407C1.99709 37.0563 2.02347 37.0739 2.01214 37.0885C2.0008 37.1032 1.95176 37.1169 1.90641 37.1276C1.86484 37.1374 1.80811 37.1462 1.7552 37.1491C1.5058 37.1609 1.25639 37.1707 0.988092 37.1824Z" fill="#FFE492"/>
<path d="M197.489 36.9862C197.674 36.9784 197.866 36.9745 198.048 36.9608C198.191 36.95 198.282 36.9569 198.395 36.9803C198.588 37.0214 198.6 37.0175 199.072 37.0233C199.125 37.0243 199.189 37.039 199.219 37.0517C199.238 37.0585 199.212 37.0771 199.189 37.0869C199.155 37.0996 199.106 37.1162 199.061 37.1162C198.762 37.1191 198.46 37.1768 198.169 37.1103C198.021 37.0771 197.859 37.0614 197.659 37.0761C197.538 37.0849 197.409 37.0888 197.285 37.0927C197.164 37.0966 197.039 37.0859 196.963 37.0566C196.854 37.0135 196.918 36.9969 197.114 36.9999C197.239 37.0018 197.364 36.9911 197.489 36.9862Z" fill="#FFE492"/>
<path d="M265.965 43.7236C266.203 43.7139 266.441 43.7021 266.683 43.6943C266.732 43.6924 266.792 43.7031 266.838 43.71C267.019 43.7393 266.993 43.7891 267 43.8331C267.004 43.879 266.584 43.9162 266.407 43.8849C266.21 43.8497 266.033 43.8097 265.761 43.8312C265.655 43.839 265.53 43.8214 265.462 43.793C265.36 43.752 265.417 43.7354 265.609 43.7383C265.723 43.7403 265.844 43.7295 265.965 43.7236Z" fill="#FFE492"/>
<path d="M145.991 30.42C146.237 30.4092 146.483 30.3926 146.728 30.3916C146.872 30.3906 146.944 30.4229 146.91 30.4464C146.891 30.461 146.845 30.4815 146.8 30.4835C146.309 30.5069 145.818 30.5265 145.326 30.548C145.183 30.5343 145.111 30.5138 145.145 30.4903C145.164 30.4757 145.209 30.4561 145.255 30.4532C145.5 30.4395 145.746 30.4307 145.991 30.42Z" fill="#FFE492"/>
<path d="M261.193 40.5419C261.431 40.5321 261.673 40.5175 261.911 40.5126C262.036 40.5106 262.134 40.5331 262.149 40.5585C262.157 40.5702 262.096 40.5908 262.047 40.5956C261.707 40.6289 261.34 40.6328 260.985 40.6494C260.872 40.6543 260.751 40.6387 260.683 40.6113C260.581 40.5693 260.638 40.5536 260.83 40.5566C260.951 40.5575 261.072 40.5468 261.193 40.5419Z" fill="#FFE492"/>
<path d="M203.771 37.1182C203.892 37.1133 204.017 37.1006 204.134 37.1045C204.259 37.1094 204.338 37.1377 204.376 37.1661C204.418 37.1983 204.414 37.2286 204.376 37.256C204.315 37.3029 204.255 37.301 204.115 37.2697C203.9 37.2208 203.885 37.2267 203.458 37.2286C203.409 37.2286 203.348 37.214 203.31 37.2013C203.254 37.1817 203.284 37.1514 203.416 37.1338C203.514 37.1211 203.65 37.1231 203.771 37.1182Z" fill="#FFE492"/>
<path d="M253.038 40.2212C253.216 40.2134 253.394 40.2007 253.571 40.2007C253.696 40.1997 253.794 40.2222 253.806 40.2466C253.809 40.2584 253.753 40.2779 253.707 40.2838C253.492 40.3102 253.25 40.3121 253.016 40.3209C252.906 40.3248 252.785 40.3092 252.717 40.2818C252.615 40.2408 252.676 40.2222 252.861 40.2281C252.918 40.23 252.978 40.2242 253.038 40.2212Z" fill="#FFE492"/>
<path d="M224.488 39.0222C224.224 39.0339 223.974 39.0193 223.993 38.9939C224.02 38.9606 224.129 38.9391 224.243 38.9333C224.424 38.9235 224.605 38.9157 224.79 38.9098C224.908 38.9059 225.013 38.9206 225.108 38.946C225.051 38.9772 224.964 38.9997 224.851 39.0066C224.734 39.0134 224.609 39.0173 224.488 39.0222Z" fill="#FFE492"/>
<path d="M222.771 38.897C222.949 38.8892 223.126 38.8765 223.304 38.8765C223.428 38.8755 223.527 38.898 223.538 38.9224C223.542 38.9342 223.485 38.9537 223.44 38.9596C223.224 38.986 222.982 38.9879 222.748 38.9967C222.639 39.0006 222.518 38.985 222.45 38.9576C222.348 38.9166 222.408 38.898 222.593 38.9039C222.65 38.9058 222.71 38.8999 222.771 38.897Z" fill="#FFE492"/>
<path d="M202.06 37.1104C202.238 37.1026 202.415 37.0899 202.593 37.0889C202.717 37.0879 202.816 37.1104 202.827 37.1348C202.831 37.1466 202.774 37.1651 202.729 37.172C202.513 37.1984 202.272 37.2003 202.037 37.2091C201.928 37.213 201.807 37.1974 201.739 37.17C201.637 37.129 201.697 37.1104 201.882 37.1163C201.939 37.1182 202 37.1124 202.06 37.1104Z" fill="#FFE492"/>
<path d="M200.574 37.0525C200.763 37.0447 200.823 37.0398 200.884 37.0398C200.997 37.0398 201.114 37.0515 201.182 37.0799C201.284 37.1209 201.224 37.1327 201.039 37.1346C200.801 37.1366 200.566 37.1571 200.328 37.161C200.204 37.163 200.105 37.1395 200.098 37.1151C200.094 37.1033 200.151 37.0828 200.196 37.0789C200.355 37.0642 200.529 37.0554 200.574 37.0525Z" fill="#FFE492"/>
<path d="M221.354 31.3026C221.233 31.3075 221.105 31.3212 220.991 31.3163C220.84 31.3094 220.78 31.283 220.818 31.2586C220.84 31.2449 220.882 31.2254 220.927 31.2224C221.169 31.2088 221.415 31.2 221.656 31.1902C221.8 31.2048 221.864 31.2254 221.827 31.2498C221.804 31.2635 221.762 31.2821 221.717 31.286C221.6 31.2957 221.475 31.2977 221.354 31.3026Z" fill="#FFE492"/>
<path d="M74.6807 31.8665C74.7979 31.8655 74.9036 31.8782 74.9943 31.9027C74.9376 31.9339 74.8545 31.9545 74.7411 31.9633C74.6845 31.9672 74.6202 31.9701 74.5598 31.9711C74.4426 31.973 74.3368 31.9594 74.2461 31.9349C74.3028 31.9036 74.3897 31.8831 74.4992 31.8743C74.5559 31.8704 74.6203 31.8694 74.6807 31.8665Z" fill="#FFE492"/>
<path d="M260.633 40.5379C260.629 40.5096 260.86 40.4773 261.068 40.4783C261.177 40.4793 261.29 40.493 261.355 40.5193C261.453 40.5594 261.396 40.5751 261.211 40.5721C261.098 40.5702 260.977 40.5868 260.863 40.5838C260.735 40.5829 260.659 40.5614 260.633 40.5379Z" fill="#FFE492"/>
<path d="M204.892 37.2363C204.888 37.2255 204.869 37.2128 204.881 37.203C204.952 37.1493 205.387 37.1327 205.5 37.1796C205.519 37.1884 205.527 37.203 205.512 37.2118C205.489 37.2255 205.447 37.2431 205.402 37.247C205.285 37.2568 205.164 37.2617 205.043 37.2627C204.99 37.2627 204.941 37.2461 204.892 37.2363Z" fill="#FFE492"/>
<path d="M2.97123 37.0262C2.52533 37.0467 2.51778 37.0448 2.59714 36.9959C2.66893 36.9519 2.80121 36.9255 2.99393 36.9255C3.05061 36.9255 3.11105 36.9236 3.16018 36.9275C3.21308 36.9324 3.2887 36.9421 3.30004 36.9539C3.32271 36.9764 3.25841 37.0008 3.14505 37.0174C3.09592 37.0252 3.0317 37.0233 2.97123 37.0262Z" fill="#FFE492"/>
<path d="M80.176 31.7287C80.0437 31.7453 79.9304 31.7395 79.8472 31.7082C79.7641 31.6769 79.8964 31.6398 80.1269 31.631C80.1873 31.629 80.2516 31.6212 80.3083 31.6251C80.3649 31.628 80.4217 31.6398 80.4557 31.6515C80.5161 31.671 80.4783 31.6974 80.3574 31.7199C80.3083 31.7287 80.2364 31.7267 80.176 31.7287Z" fill="#FFE492"/>
<path d="M259.844 40.4646C259.878 40.4519 259.912 40.4392 259.95 40.4275C260.089 40.4441 260.15 40.4637 260.112 40.4861C260.089 40.4998 260.044 40.5115 260.01 40.5243C259.87 40.5076 259.814 40.4871 259.844 40.4646Z" fill="#FFE492"/>
<path d="M8.92969 48.1524C8.92969 48.1407 8.98259 48.1221 9.02416 48.1182C9.10351 48.1114 9.20173 48.125 9.26974 48.1524C9.36421 48.1915 9.30758 48.212 9.13376 48.2013C9.01284 48.1935 8.92969 48.1739 8.92969 48.1524Z" fill="#FFE492"/>
<path d="M206.699 36.3264C206.748 36.3352 206.798 36.344 206.843 36.3538C206.779 36.3899 206.699 36.4056 206.616 36.3958C206.563 36.3899 206.518 36.3782 206.469 36.3694C206.533 36.3332 206.609 36.3196 206.699 36.3264Z" fill="#FFE492"/>
<path d="M205.774 36.2826C205.849 36.268 205.94 36.2758 206.046 36.3041C206.012 36.3168 205.982 36.3315 205.94 36.3413C205.868 36.3569 205.774 36.3491 205.672 36.3198C205.702 36.308 205.736 36.2953 205.774 36.2826Z" fill="#FFE492"/>
<path d="M204.311 36.3253C204.36 36.3341 204.409 36.3429 204.454 36.3527C204.39 36.3888 204.314 36.4045 204.227 36.3947C204.175 36.3888 204.129 36.3771 204.08 36.3683C204.144 36.3321 204.22 36.3175 204.311 36.3253Z" fill="#FFE492"/>
<path d="M203.54 36.2735C203.597 36.293 203.567 36.3165 203.457 36.3429C203.408 36.3341 203.351 36.3272 203.314 36.3155C203.253 36.2969 203.283 36.2725 203.397 36.2461C203.442 36.2559 203.491 36.2647 203.54 36.2735Z" fill="#FFE492"/>
</svg>
