<svg width="482" height="27" viewBox="0 0 482 27" fill="none" xmlns="http://www.w3.org/2000/svg">
<path d="M452.242 6.97638C451.586 7.00899 450.923 7.03748 450.281 7.07661C449.865 7.10153 449.679 7.06868 449.397 7.05679C449.302 7.05255 449.2 7.04158 449.114 7.04577C448.465 7.07819 447.816 7.11234 447.167 7.14649C446.973 7.18585 446.854 7.23435 446.551 7.25948C446.254 7.28357 445.901 7.29363 445.57 7.3109C445.133 7.33292 444.696 7.35496 444.258 7.37612C444.04 7.38671 443.863 7.40823 443.795 7.4414C443.782 7.44696 443.931 7.45573 444.012 7.46122C444.282 7.47952 444.546 7.50146 444.841 7.51296C445.124 7.52398 445.465 7.48303 445.768 7.49866C446.448 7.53386 446.454 7.53281 446.965 7.50783C447.402 7.4858 447.839 7.46291 448.277 7.44348C448.363 7.43928 448.465 7.44938 448.559 7.45363C448.841 7.46464 449.028 7.50268 449.437 7.47451C449.748 7.45263 450.093 7.44017 450.418 7.42396C450.694 7.44121 450.952 7.46248 451.247 7.47398C451.523 7.48519 451.605 7.49759 451.463 7.5268C451.334 7.5539 451.149 7.56872 450.903 7.57747C450.684 7.5846 450.466 7.59863 450.247 7.60921C450.135 7.61503 450.029 7.6198 449.923 7.62543C449.505 7.64689 449.505 7.64689 448.732 7.61347C448.429 7.60044 448.095 7.64033 447.806 7.62778C447.611 7.61947 447.441 7.60351 447.252 7.59415C447.172 7.59038 447.045 7.59312 446.946 7.5977C446.614 7.61323 446.283 7.62704 445.965 7.64738C445.741 7.66161 445.611 7.68958 445.642 7.71299C445.65 7.7223 445.812 7.73155 445.905 7.72976C446.118 7.72541 446.342 7.70686 446.549 7.70702C446.75 7.70737 446.959 7.71874 447.108 7.73356C447.414 7.76472 447.747 7.71965 448.034 7.72185C448.335 7.72452 448.587 7.75203 448.876 7.76458C448.95 7.76767 449.088 7.75505 449.201 7.74923C449.526 7.73388 449.851 7.7194 450.176 7.70405C450.452 7.7213 450.749 7.73539 450.999 7.75686C451.453 7.79593 451.935 7.80211 452.509 7.76055C452.833 7.73743 453.153 7.7335 453.417 7.75977C453.689 7.7867 453.994 7.77452 454.332 7.75792C454.644 7.74209 454.96 7.71399 455.283 7.72904C455.983 7.76282 455.99 7.76522 456.804 7.72115C457.049 7.70808 457.235 7.70104 457.425 7.71558C457.6 7.72877 457.789 7.73899 457.971 7.75112C458.296 7.73578 458.628 7.72024 458.952 7.70403C459.37 7.68257 459.604 7.68801 459.712 7.73351C459.776 7.76115 459.807 7.78715 459.957 7.80283C460.133 7.82206 460.319 7.81588 460.571 7.80176C460.809 7.78888 460.981 7.77445 461.075 7.74053C461.113 7.72644 461.191 7.71207 461.263 7.69962C461.321 7.69014 461.412 7.6754 461.466 7.67561C461.566 7.67621 461.7 7.68191 461.736 7.69218C462.078 7.78733 462.078 7.7882 462.416 7.80892C462.787 7.83214 463.171 7.85153 463.509 7.88002C463.814 7.90514 464.111 7.88193 464.436 7.87262C464.682 7.8656 464.846 7.88348 464.829 7.9065C464.818 7.91983 464.728 7.94147 464.649 7.94547C464 7.98135 463.344 8.01482 462.688 8.04571C462.608 8.04971 462.506 8.03702 462.412 8.03191C462.223 8.02169 462.053 8.00226 461.853 8.00278C461.652 8.0033 461.422 8.02289 461.203 8.03347C460.984 8.04406 460.753 8.06193 460.553 8.06072C460.352 8.05951 460.189 8.03903 460 8.02795C459.912 8.02265 459.791 8.01485 459.718 8.01952C459.236 8.0541 458.872 8.03587 458.52 8.00776C458.446 8.00208 458.319 8.00051 458.226 8.00489C457.457 8.04159 456.695 8.08069 455.927 8.11912C455.616 8.13495 455.358 8.11195 455.283 8.06292C455.245 8.03538 455.174 8.00879 455.17 7.9803C455.161 7.92851 454.791 7.91046 454.526 7.9241C454.089 7.94527 453.644 7.96489 453.214 7.99018C452.864 8.01061 452.563 8.00879 452.318 7.98455C452.033 7.95713 451.715 7.97315 451.398 7.99176C451.16 8.00551 451.098 8.0359 451.122 8.10717C451.145 8.16463 451.035 8.18598 450.604 8.20782C450.061 8.23548 449.511 8.26332 448.961 8.28858C448.875 8.29277 448.773 8.28095 448.685 8.27565C448.496 8.26542 448.326 8.24513 448.126 8.24565C447.925 8.24531 447.695 8.2649 447.476 8.27635C447.258 8.28693 447.027 8.30566 446.826 8.30531C446.626 8.30497 446.455 8.28382 446.273 8.27255C446.186 8.26725 446.077 8.25906 445.991 8.26325C445.554 8.28269 445.117 8.30559 444.679 8.32761C444.189 8.35202 444.189 8.35203 443.482 8.31844C443.159 8.30338 442.843 8.33149 442.532 8.34732C442.2 8.36372 441.888 8.3761 441.624 8.34897C441.447 8.33146 441.252 8.32316 441.047 8.33336C440.497 8.35948 439.953 8.388 439.403 8.41412C439.311 8.4185 439.184 8.4178 439.109 8.41211C438.751 8.38592 438.401 8.3673 437.911 8.39949C437.488 8.42718 437.03 8.44114 436.607 8.46797C436.375 8.48238 436.273 8.51305 436.323 8.5333C436.352 8.54377 436.494 8.55273 436.587 8.55007C436.8 8.54486 437.03 8.52526 437.23 8.52474C437.644 8.52332 437.862 8.58995 438.397 8.55472C438.715 8.53352 439.046 8.51971 439.378 8.50676C439.464 8.50343 439.56 8.51718 439.655 8.52315C439.924 8.53886 440.162 8.56242 440.545 8.53587C440.862 8.51467 441.201 8.50155 441.525 8.48534C442.042 8.4593 442.042 8.46016 442.722 8.49365C443.046 8.50956 443.361 8.4806 443.673 8.46563C443.905 8.45467 444.123 8.43977 444.311 8.44654C444.6 8.4565 444.813 8.49204 445.165 8.47939C445.497 8.4673 445.82 8.44592 446.152 8.43211C446.358 8.42363 446.553 8.43194 446.723 8.4505C446.9 8.46887 447.087 8.47391 447.313 8.46227C447.637 8.44606 447.968 8.42794 448.3 8.41413C448.393 8.41061 448.501 8.41534 448.588 8.41977C448.777 8.43 448.959 8.443 449.141 8.45427C449.466 8.43979 449.799 8.42857 450.116 8.40909C450.361 8.3943 450.534 8.39282 450.736 8.40439C450.993 8.42048 451.206 8.45603 451.615 8.4244C451.819 8.40902 452.059 8.40477 452.264 8.39025C452.515 8.37181 452.688 8.37119 452.872 8.39196C453.219 8.43149 453.644 8.42019 454.08 8.38867C454.556 8.35428 454.919 8.36821 455.284 8.39594C455.669 8.42482 455.669 8.42395 455.977 8.51142C456.068 8.53658 456.316 8.54251 456.521 8.53144C456.865 8.51293 457.165 8.5087 457.423 8.53429C457.695 8.56209 458.013 8.54866 458.338 8.52986C458.768 8.50457 459.198 8.481 459.558 8.52101C459.735 8.54025 459.922 8.54096 460.154 8.52827C460.81 8.49393 461.473 8.46546 462.115 8.42805C462.505 8.40476 462.736 8.42593 463.005 8.44164C463.37 8.46333 463.767 8.48061 463.778 8.54881C463.779 8.56003 463.875 8.57032 463.956 8.57667C464.132 8.58987 464.32 8.60008 464.503 8.61222C464.773 8.63053 465.035 8.64471 465.399 8.62045C465.716 8.60011 466.055 8.58698 466.379 8.5699C466.704 8.55283 467.002 8.53996 467.3 8.56441C467.645 8.59185 468.01 8.61699 468.4 8.63361C468.676 8.64568 469.029 8.60175 469.326 8.62016C469.508 8.63144 469.684 8.64549 469.879 8.6538C469.96 8.65756 470.086 8.64963 470.192 8.64487C470.411 8.63515 470.636 8.62611 470.848 8.6114C471.092 8.59488 471.279 8.59129 471.468 8.60583C471.644 8.61902 471.821 8.63911 472.021 8.63859C472.321 8.63782 472.648 8.5938 472.954 8.62496C473.11 8.64045 473.306 8.65394 473.506 8.65428C473.707 8.65463 473.937 8.63503 474.15 8.62982C474.243 8.62716 474.358 8.63775 474.413 8.64745C474.448 8.65254 474.404 8.67027 474.359 8.68023C474.301 8.6923 474.216 8.70859 474.13 8.71278C473.475 8.74712 472.818 8.77887 472.163 8.81234C471.772 8.83218 471.772 8.83217 470.972 8.80039C470.783 8.79275 470.578 8.80122 470.346 8.81391C470.035 8.83061 469.718 8.8544 469.39 8.84817C468.955 8.80162 468.429 8.81143 467.874 8.84983C467.643 8.86597 467.43 8.87205 467.254 8.86059C466.883 8.83823 466.493 8.81903 466.161 8.78948C465.903 8.76649 465.783 8.76731 465.684 8.81179C465.653 8.82568 465.621 8.84044 465.63 8.85234C465.677 8.89436 465.757 8.93458 465.804 8.9766C465.819 8.9883 465.768 9.00364 465.737 9.01754C465.636 9.05683 465.496 9.05822 465.259 9.03465C465.021 9.01109 464.739 8.99922 464.369 9.02366C464.052 9.04486 463.706 9.05301 463.388 9.07507C462.9 9.10812 462.549 9.09036 462.191 9.06331C462.117 9.05763 461.99 9.05692 461.897 9.0613C460.909 9.10945 459.929 9.15999 458.942 9.20814C458.73 9.21853 458.535 9.21109 458.365 9.19253C458.188 9.17416 457.993 9.16759 457.781 9.17798C456.906 9.22117 456.031 9.26264 455.157 9.31015C454.8 9.3299 454.512 9.32683 454.262 9.30364C454.072 9.28651 453.898 9.28455 453.665 9.29379C453.413 9.30359 453.235 9.31735 453.113 9.346C452.997 9.37358 453.086 9.38579 453.355 9.39718C453.644 9.40974 453.914 9.42891 454.191 9.4453C454.41 9.43558 454.628 9.4224 454.841 9.41718C454.934 9.41452 455.023 9.42759 455.117 9.43357C455.387 9.45101 455.637 9.46902 456.014 9.44439C456.331 9.42319 456.67 9.41091 456.994 9.39384C457.445 9.37143 457.445 9.37143 458.185 9.40493C458.374 9.41343 458.573 9.40686 458.811 9.39226C459.016 9.38033 459.231 9.38634 459.381 9.40806C459.443 9.41671 459.426 9.43455 459.309 9.49513C459.315 9.53743 459.452 9.51445 459.494 9.4855C459.561 9.4437 459.419 9.43474 459.156 9.46392C458.973 9.48477 458.883 9.50987 458.933 9.52667C458.961 9.53541 459.089 9.54389 459.309 9.49513C459.885 9.42663 460.33 9.40785 460.753 9.38189C461.004 9.36691 461.164 9.3658 461.368 9.38255C461.611 9.40247 461.855 9.42413 462.245 9.39912C462.668 9.37143 463.12 9.35678 463.55 9.33149C463.947 9.30801 464.159 9.34011 464.416 9.35534C464.726 9.37337 465.06 9.33347 465.342 9.34104C465.637 9.34822 465.849 9.38031 466.189 9.37753C466.677 9.34017 466.997 9.37442 467.374 9.39227C467.67 9.4055 468.012 9.37663 468.323 9.35821C468.674 9.33779 468.968 9.33893 469.219 9.36298C469.504 9.3904 469.815 9.3737 470.133 9.35682C470.875 9.31829 470.901 9.31494 471.341 9.35008C471.659 9.37568 471.956 9.3516 472.268 9.33836C472.544 9.35388 472.814 9.37132 473.103 9.38387C473.177 9.38696 473.315 9.37434 473.428 9.36853C473.753 9.35232 474.084 9.33592 474.409 9.31971C474.627 9.30912 474.858 9.28953 475.058 9.28901C475.259 9.28936 475.429 9.30965 475.611 9.32092C475.793 9.3322 475.982 9.34328 476.158 9.35561C476.428 9.37391 476.684 9.38828 477.054 9.3647C477.372 9.34436 477.703 9.33141 478.035 9.31415C478.452 9.29269 478.439 9.29566 479.225 9.32524C479.649 9.34177 480.075 9.2949 480.5 9.27929C480.713 9.27149 480.92 9.2751 481.071 9.29595C481.132 9.3046 481.115 9.32244 481.137 9.33654C480.044 9.39118 478.944 9.44256 477.865 9.50199C477.447 9.52518 477.223 9.50036 476.993 9.48092C476.614 9.45012 476.132 9.5246 475.771 9.48114C475.553 9.45527 475.244 9.44589 474.881 9.47187C474.669 9.48658 474.443 9.49217 474.225 9.5062C473.67 9.54114 473.158 9.55663 472.703 9.50979C472.546 9.49344 472.325 9.48848 472.163 9.47318C471.973 9.45692 471.791 9.44995 471.573 9.46054C470.585 9.50955 469.605 9.55837 468.624 9.60891C468.538 9.61311 468.454 9.62853 468.382 9.64012C468.2 9.6696 468.263 9.68689 468.565 9.69389C468.665 9.69622 468.747 9.70515 468.841 9.71113C469.024 9.7224 469.194 9.74356 469.394 9.74391C469.595 9.74425 469.826 9.72552 470.044 9.71493C470.263 9.70435 470.494 9.68476 470.694 9.68424C470.894 9.68459 471.064 9.70488 471.253 9.7151C471.341 9.7204 471.449 9.73031 471.536 9.72698C471.974 9.70926 472.404 9.68743 472.842 9.66712C473.118 9.68265 473.356 9.70967 473.683 9.70813C473.89 9.70743 474.108 9.69166 474.321 9.68731C474.414 9.68552 474.536 9.69505 474.584 9.70495C474.612 9.71109 474.529 9.73083 474.463 9.74136C474.216 9.78138 473.869 9.7852 473.559 9.80449C473.221 9.82539 472.915 9.83068 472.65 9.80442C472.474 9.78691 472.279 9.78034 472.067 9.79073C471.517 9.81771 470.974 9.84623 470.423 9.87149C470.331 9.87587 470.216 9.87133 470.129 9.86776C469.422 9.83503 469.422 9.83331 468.932 9.85858C468.21 9.89568 468.21 9.89567 467.717 9.86378C467.623 9.85781 467.52 9.84426 467.441 9.8474C466.672 9.88324 465.909 9.91888 465.148 9.96058C464.896 9.97383 464.723 9.97878 464.534 9.96165C464.371 9.94721 464.181 9.93095 463.981 9.93146C463.774 9.93217 463.55 9.95158 463.331 9.96216C463.113 9.97274 462.882 9.99061 462.688 9.98921C462.487 9.988 462.311 9.96877 462.135 9.95644C461.952 9.94344 461.76 9.9498 461.515 9.96373C460.76 10.0052 460.753 10.0028 459.993 9.97077C459.906 9.9672 459.792 9.96352 459.699 9.9679C459.149 9.99402 458.606 10.0225 458.056 10.0487C457.843 10.0591 457.635 10.0537 457.485 10.0329C457.424 10.0242 457.441 10.0064 457.396 9.97384C457.348 9.9674 457.403 9.97971 457.418 9.99228C457.518 9.9877 457.638 9.986 457.71 9.97701C457.893 9.95529 457.983 9.93105 457.934 9.91425C457.905 9.90551 457.777 9.89703 457.697 9.89931C457.551 9.90349 457.428 9.92609 457.396 9.97384C456.981 10.0143 456.537 10.0331 456.107 10.0592C455.856 10.0751 455.695 10.0753 455.492 10.0586C455.248 10.0378 454.998 10.018 454.608 10.043C454.185 10.0707 453.733 10.0862 453.297 10.1109C452.793 10.1391 452.561 10.0677 452.136 10.0816C451.698 10.0958 451.261 10.123 450.824 10.1459C450.44 10.1656 450.44 10.1656 449.633 10.1322C449.337 10.1199 448.996 10.16 448.707 10.1465C448.512 10.1382 448.342 10.1223 448.154 10.1129C448.073 10.1091 447.947 10.1127 447.847 10.1173C447.297 10.1434 446.74 10.1663 446.211 10.2005C445.61 10.2402 445.147 10.2291 444.707 10.1905C444.163 10.2156 443.612 10.2366 443.076 10.2683C442.686 10.2916 442.455 10.2696 442.185 10.2539C442.091 10.2488 442.009 10.2381 441.909 10.2375C441.809 10.2369 441.69 10.2472 441.584 10.2528C441.147 10.2749 440.695 10.2921 440.272 10.3198C439.75 10.3547 439.539 10.2896 439.132 10.2925C438.867 10.3426 438.73 10.4046 438.192 10.4243C437.754 10.4403 437.317 10.4666 436.88 10.4887C436.661 10.4992 436.443 10.5107 436.224 10.5213C435.873 10.5391 435.712 10.5775 435.794 10.6272C435.838 10.6546 435.876 10.6821 435.914 10.7096C435.988 10.7587 435.829 10.8066 435.551 10.8206C434.782 10.859 434.021 10.8981 433.252 10.9348C433.046 10.945 432.844 10.9361 432.674 10.9175C432.498 10.8991 432.303 10.8943 432.091 10.9047C431.323 10.9431 430.561 10.9822 429.792 11.0189C429.706 11.0231 429.592 11.0177 429.504 11.0133C429.315 11.003 429.133 10.99 428.951 10.9788C428.513 10.9991 428.082 11.0166 427.651 11.0393C426.956 11.0748 426.956 11.0756 426.436 11.0428C426.342 11.0368 426.246 11.0231 426.16 11.0264C425.828 11.0393 425.504 11.0573 425.172 11.0745C424.199 11.1249 424.199 11.1249 423.909 11.1072C423.645 11.0904 423.408 11.0677 423.018 11.0927C422.595 11.1204 422.144 11.1385 421.706 11.1597C421.381 11.175 421.057 11.1912 420.731 11.2022C420.645 11.2056 420.549 11.1918 420.455 11.1859C420.185 11.1667 419.922 11.1525 419.558 11.1776C419.347 11.1923 419.121 11.2005 418.903 11.2111C418.333 11.2395 418.333 11.2395 417.387 11.2145C417.293 11.212 417.179 11.2092 417.086 11.2144C416.318 11.252 415.556 11.2911 414.787 11.3278C414.694 11.3322 414.58 11.3302 414.487 11.3285C413.428 11.3085 413.428 11.3085 412.315 11.3646C411.891 11.3853 411.878 11.3892 411.425 11.3561C411.223 11.342 411.055 11.3372 410.823 11.3499C409.949 11.3957 409.067 11.4348 408.2 11.4838C407.809 11.5054 407.579 11.4859 407.309 11.4702C407.215 11.4651 407.112 11.4507 407.033 11.4538C406.158 11.4953 405.283 11.5402 404.408 11.5817C404.329 11.5857 404.226 11.5713 404.132 11.5662C403.95 11.5558 403.773 11.5374 403.573 11.5379C403.366 11.5386 403.142 11.558 402.917 11.5688C402.367 11.5958 402.367 11.5949 401.72 11.5622C401.633 11.5578 401.518 11.5515 401.432 11.5557C400.557 11.598 399.675 11.638 398.808 11.6879C398.312 11.7159 397.969 11.7006 397.611 11.6744C397.536 11.6687 397.409 11.6688 397.316 11.6732C396.329 11.7214 395.349 11.7719 394.361 11.8201C394.156 11.8303 393.954 11.8213 393.784 11.8036C393.512 11.7758 393.201 11.789 392.87 11.8063C392.108 11.8463 392.101 11.8456 391.642 11.8171C391.548 11.8111 391.466 11.8022 391.366 11.8007C391.272 11.799 391.153 11.805 391.053 11.8096C390.616 11.8308 390.179 11.8528 389.741 11.8748C389.304 11.8969 388.859 11.9148 388.43 11.9418C387.901 11.9751 387.639 11.9262 387.262 11.9109C386.719 11.9377 386.162 11.9606 385.626 11.9941C385.216 12.0197 385.017 11.9872 384.742 11.9751C384.647 11.9709 384.545 11.9591 384.459 11.9633C383.471 12.0105 382.484 12.0596 381.504 12.111C381.265 12.123 381.105 12.1206 380.902 12.1056C380.449 12.0717 380.429 12.074 379.687 12.1125C379.363 12.1296 379.052 12.1455 378.767 12.118C378.515 12.0931 378.215 12.0939 377.864 12.1143C377.434 12.1396 376.99 12.1592 376.553 12.1804C376.115 12.2024 375.679 12.2279 375.24 12.2447C374.889 12.2591 374.669 12.2246 374.387 12.2119C374.299 12.2083 374.18 12.2109 374.08 12.2154C373.643 12.2357 373.192 12.2547 372.768 12.2815C372.253 12.3145 371.959 12.2752 371.589 12.258C371.508 12.2542 371.376 12.2615 371.276 12.2669C370.508 12.3045 369.746 12.3436 368.977 12.382C368.701 12.3665 368.418 12.352 368.142 12.3365C367.704 12.3577 367.267 12.3797 366.83 12.4008C366.498 12.4172 366.16 12.4295 365.849 12.4514C365.447 12.4802 365.241 12.4454 364.965 12.4333C364.871 12.429 364.769 12.4172 364.682 12.4214C364.132 12.4467 363.582 12.4728 363.039 12.503C362.523 12.5325 362.304 12.4607 361.879 12.4737C361.44 12.4871 360.99 12.5113 360.567 12.5389C360.078 12.5711 359.728 12.5534 359.369 12.5263C359.295 12.5206 359.168 12.5199 359.075 12.5243C358.525 12.5504 357.982 12.579 357.432 12.6051C357.339 12.6095 357.225 12.6084 357.131 12.6058C356.073 12.5849 356.072 12.5841 355.615 12.6075C355.291 12.6237 354.96 12.6419 354.628 12.6557C354.535 12.66 354.421 12.6555 354.333 12.6511C353.633 12.6182 353.633 12.6173 353.136 12.6419C352.699 12.6639 352.262 12.6859 351.824 12.708C351.548 12.6925 351.265 12.678 350.989 12.6625C350.445 12.6893 349.888 12.7138 349.352 12.7448C349.101 12.7589 348.934 12.761 348.738 12.745C348.494 12.7259 348.25 12.7025 347.854 12.7286C347.431 12.7563 346.979 12.7709 346.549 12.7962C346.033 12.8266 345.807 12.7541 345.388 12.7669C344.95 12.7803 344.5 12.8044 344.077 12.8321C343.587 12.8643 343.237 12.8466 342.879 12.8195C342.804 12.8138 342.677 12.8131 342.585 12.8175C341.379 12.8771 340.179 12.9365 338.974 12.9978C338.232 13.0355 338.232 13.0363 336.808 13.0293C336.708 13.0287 336.601 13.0283 336.501 13.0329C336.064 13.0532 335.613 13.0721 335.189 13.099C334.674 13.1319 334.38 13.0934 334.01 13.0754C333.929 13.0716 333.804 13.0787 333.697 13.0835C333.366 13.099 333.041 13.1161 332.71 13.1325C332.273 13.1545 331.836 13.1765 331.398 13.1986C331.122 13.1839 330.839 13.1686 330.563 13.1539C330.02 13.1807 329.462 13.2027 328.926 13.2362C328.516 13.2618 328.318 13.231 328.042 13.2181C327.948 13.2139 327.846 13.202 327.759 13.2054C326.772 13.2526 325.784 13.3008 324.804 13.3531C324.4 13.375 324.208 13.3415 323.932 13.3294C323.838 13.326 323.73 13.3178 323.644 13.322C322.987 13.3529 322.332 13.3864 321.676 13.4199C321.305 13.4391 321.305 13.4391 320.485 13.4088C320.391 13.4054 320.284 13.4024 320.191 13.4068C318.11 13.5095 316.037 13.6147 313.956 13.7175C313.744 13.7279 313.549 13.7205 313.379 13.7019C313.202 13.6835 313.008 13.677 312.796 13.6874C311.921 13.7306 311.039 13.7722 310.172 13.8195C309.814 13.8393 309.527 13.8362 309.276 13.813C309.086 13.7959 308.912 13.7922 308.68 13.804C308.243 13.8269 307.805 13.8481 307.368 13.8701C306.931 13.8921 306.494 13.9142 306.056 13.9362C305.619 13.9582 305.175 13.9761 304.745 14.0031C304.216 14.0365 303.948 13.9904 303.578 13.974C302.922 14.0058 302.265 14.0375 301.616 14.0699C300.741 14.1131 299.867 14.1581 298.992 14.2004C298.913 14.2044 298.811 14.1917 298.716 14.1866C298.44 14.1728 298.236 14.1483 297.832 14.1694C295.871 14.2713 293.896 14.3668 291.929 14.468C291.518 14.4893 291.333 14.4573 291.05 14.4454C290.956 14.442 290.848 14.433 290.762 14.4372C289.668 14.4901 288.575 14.5456 287.482 14.6002C287.038 14.6225 287.038 14.6225 286.285 14.5902C286.197 14.5866 286.083 14.5821 285.99 14.5865C284.565 14.6567 283.148 14.7284 281.723 14.7994C281.511 14.8098 281.316 14.8032 281.14 14.7848C280.97 14.7663 280.768 14.759 280.563 14.7692C279.251 14.8345 277.932 14.899 276.627 14.9666C276.276 14.9853 275.982 14.9859 275.725 14.9621C275.541 14.9447 275.361 14.9404 275.135 14.952C273.168 15.0507 271.199 15.1477 269.232 15.249C268.854 15.2684 268.586 15.2596 268.342 15.2379C268.146 15.221 267.979 15.2214 267.74 15.2317C267.488 15.2433 267.337 15.2571 267.201 15.287C267.027 15.3258 266.921 15.3713 266.496 15.3861C266.057 15.4012 265.614 15.4243 265.184 15.4513C264.774 15.4777 264.575 15.4444 264.312 15.4285C264.116 15.4176 263.936 15.4201 263.692 15.4349C263.467 15.4483 263.329 15.467 263.201 15.4984C262.918 15.5654 262.891 15.5662 262.526 15.5393C262.33 15.525 262.155 15.5144 261.943 15.5239C261.068 15.5662 260.193 15.6103 259.319 15.6552C258.815 15.6809 258.809 15.6828 258.423 15.6504C258.234 15.6342 258.052 15.6289 257.834 15.6404C255.429 15.7611 253.023 15.8801 250.619 16.0034C250.248 16.0227 249.992 16.0118 249.722 15.9935C249.634 15.9873 249.546 15.9777 249.446 15.9771C249.345 15.9765 249.233 15.9832 249.127 15.9879C247.378 16.0752 245.621 16.1609 243.879 16.2523C243.482 16.2732 243.265 16.2516 242.989 16.237C242.894 16.2318 242.813 16.222 242.712 16.2214C242.612 16.2217 242.493 16.2311 242.388 16.2368C240.638 16.324 238.882 16.4097 237.14 16.5011C236.723 16.5226 236.538 16.4914 236.262 16.4802C236.168 16.476 236.066 16.4659 235.98 16.4701C235.43 16.4953 234.886 16.5239 234.336 16.5508C233.025 16.6169 231.712 16.6813 230.401 16.7482C229.897 16.7739 229.665 16.7033 229.24 16.7189C228.689 16.739 228.147 16.7718 227.597 16.7997C227.16 16.8217 226.722 16.8429 226.285 16.8658C225.855 16.8876 225.855 16.8876 224.77 16.8683C224.676 16.8666 224.562 16.8638 224.469 16.8682C222.938 16.944 221.401 17.02 219.877 17.0982C219.526 17.116 219.233 17.1201 218.975 17.0954C218.792 17.078 218.604 17.0721 218.386 17.0836C216.087 17.1987 213.794 17.3136 211.495 17.4278C211.409 17.432 211.294 17.4266 211.207 17.4222C211.018 17.4119 210.836 17.3989 210.653 17.3877C210.524 17.4113 210.354 17.4344 210.271 17.4593C210.156 17.4929 209.998 17.5061 209.746 17.5185C209.494 17.5309 209.335 17.5337 209.131 17.517C208.888 17.4962 208.638 17.4816 208.247 17.5015C205.843 17.6248 203.437 17.7429 201.032 17.8654C200.635 17.8854 200.443 17.8527 200.16 17.8409C200.066 17.8375 199.958 17.831 199.872 17.8352C198.885 17.8834 197.904 17.933 196.917 17.9821C194.18 18.1192 191.444 18.2537 188.715 18.3941C188.218 18.4196 187.875 18.4077 187.517 18.3806C187.442 18.3749 187.315 18.3742 187.223 18.3786C183.393 18.5695 179.563 18.7613 175.74 18.9528C175.535 18.963 175.333 18.9549 175.163 18.9372C174.987 18.9189 174.792 18.9131 174.58 18.9235C172.831 19.0108 171.082 19.098 169.332 19.1862C168.895 19.2082 168.889 19.2092 168.43 19.1807C168.335 19.1747 168.233 19.1612 168.16 19.165C168.008 19.1737 167.865 19.1994 167.764 19.2318C167.662 19.2659 167.497 19.2793 167.252 19.2924C167.001 19.3056 166.834 19.3078 166.638 19.2926C166.388 19.2737 166.158 19.2551 165.76 19.2752C160.732 19.5298 155.703 19.7801 150.674 20.0338C150.27 20.0541 150.078 20.0231 149.795 20.0112C149.701 20.0079 149.607 20.0019 149.507 20.003C149.4 20.0043 149.288 20.0127 149.182 20.0184C140.979 20.4287 132.777 20.8398 124.575 21.2502C124.084 21.2746 124.091 21.2744 123.565 21.3692C123.5 21.3806 123.416 21.396 123.323 21.4004C120.812 21.5276 118.294 21.6533 115.777 21.779C114.683 21.8336 113.59 21.8891 112.497 21.9429C112.106 21.9618 112.106 21.9618 111.183 22.0819C111.105 22.0919 111.013 22.1049 110.921 22.1093C106.548 22.3287 102.175 22.5481 97.7951 22.766C97.4505 22.7828 97.1739 22.8063 97.021 22.8523C96.9127 22.8849 96.7692 22.9063 96.5507 22.9178C93.4896 23.0711 90.4288 23.2253 87.3609 23.3771C86.9965 23.3953 86.7809 23.4258 86.6072 23.4671C86.5493 23.4809 86.4984 23.4963 86.4133 23.5074C86.3348 23.5174 86.2156 23.5234 86.1163 23.5289C83.4925 23.6602 80.8691 23.7932 78.2383 23.9221C77.8473 23.9411 77.6928 23.9776 77.5054 24.0168C77.4407 24.0299 77.3967 24.0467 77.3115 24.057C77.2262 24.0664 77.0999 24.07 76.9938 24.0747C74.8073 24.184 72.621 24.2941 70.4345 24.4034C70.0083 24.4113 69.9233 24.464 69.7221 24.5001C69.6506 24.5125 69.5998 24.5279 69.5144 24.5372C69.4225 24.5468 69.3025 24.5494 69.1898 24.5543C67.4405 24.6416 65.6918 24.7314 63.9355 24.8163C63.5312 24.8356 63.4585 24.8819 63.244 24.9184C63.1724 24.93 63.1017 24.9467 63.0157 24.9518C61.9227 25.0082 60.8295 25.0628 59.7361 25.1166C59.3717 25.1348 59.3716 25.1339 58.7405 25.2378C58.6689 25.2494 58.584 25.2622 58.4914 25.2675C56.855 25.3506 55.2118 25.4322 53.5687 25.5147C53.3566 25.5251 53.2138 25.55 53.1121 25.5824C53.0105 25.6148 52.8607 25.6382 52.6486 25.6485C51.3368 25.7146 50.025 25.7816 48.7128 25.8451C48.3482 25.8624 48.1124 25.8908 47.9591 25.9342C47.8442 25.967 47.7003 25.9859 47.4685 25.9977C46.1565 26.0629 44.845 26.1307 43.5259 26.1927C43.1414 26.2106 42.9466 26.2457 42.7929 26.2865C42.6713 26.3194 42.5267 26.334 42.2815 26.3462C39.8762 26.4652 37.4643 26.5843 35.0664 26.7083C34.6624 26.7294 34.4514 26.7051 34.1819 26.6911C33.7981 26.6717 33.4405 26.649 33.4296 26.5816C33.4279 26.5713 33.3129 26.5624 33.2318 26.5561C32.6296 26.5082 32.6295 26.5082 32.5253 26.4418C32.4653 26.401 32.3985 26.3596 32.345 26.3178C32.2471 26.2494 32.0313 26.2374 31.4217 26.2678C31.203 26.2784 30.9846 26.2907 30.7658 26.3004C30.441 26.3158 30.1904 26.2943 30.1222 26.2442C30.0844 26.2167 30.0399 26.1893 30.0021 26.1618C30.3334 26.1454 30.3265 26.1447 30.8947 26.0235C31.1336 25.9725 31.1337 25.9725 30.6545 25.9419C30.4724 25.9307 30.2965 25.9175 30.1012 25.9074C30.0136 25.903 29.9 25.9019 29.8072 25.9063C29.257 25.9324 28.7138 25.9601 28.1706 25.9877C27.296 26.0318 27.2959 26.0318 26.3908 25.9692C26.3165 25.9644 26.2014 25.9546 26.2136 25.9474C26.2816 25.9133 26.4588 25.8944 26.6843 25.8845C27.0159 25.8698 27.3403 25.8519 27.6649 25.8357C27.8836 25.8251 28.1022 25.8136 28.3209 25.8031C28.5217 25.7644 28.7294 25.7263 28.9168 25.6872C29.2142 25.6266 29.2138 25.6249 28.7891 25.6006C28.5193 25.584 28.2299 25.5706 27.9537 25.556C27.629 25.5722 27.2979 25.5894 26.9731 25.6048C26.5621 25.6243 26.3932 25.6127 26.2778 25.5596C26.1767 25.513 26.2829 25.4675 26.6004 25.4481C26.9245 25.4284 27.2294 25.4127 27.3885 25.364C27.5412 25.3171 27.8177 25.2927 28.1629 25.2794C28.3819 25.2706 28.6003 25.2582 28.8189 25.2468C29.1036 25.2317 29.2495 25.1833 29.1817 25.1358C29.1433 25.1048 29.0724 25.08 28.812 25.0805C27.6569 25.0831 27.6437 25.0844 27.0625 25.042C27.0084 25.0383 26.9661 25.0239 26.9848 25.0156C27.016 25.0017 27.086 24.9806 27.1654 24.9757C27.9269 24.9349 28.6887 24.8958 29.4512 24.861C29.7031 24.8495 29.8883 24.8381 29.9696 24.8037C30.0821 24.7563 30.0224 24.7172 29.7848 24.6937C29.7101 24.6863 29.5884 24.6776 29.5088 24.6807C28.6337 24.7213 27.766 24.7661 26.8909 24.8067C26.8114 24.8107 26.6628 24.8002 26.6277 24.7899C26.5579 24.7711 26.6531 24.7406 26.8843 24.7245C27.188 24.7028 27.5003 24.693 27.6995 24.6439C27.9754 24.5745 28.3187 24.5083 28.6284 24.4405C28.6799 24.4286 28.7632 24.4063 28.743 24.4051C28.5737 24.3909 28.3785 24.3817 28.2027 24.3685C27.9053 24.3467 27.8984 24.3044 27.9583 24.2619C28.0062 24.2276 28.2036 24.2089 28.4495 24.2019C28.5559 24.1989 28.6889 24.1951 28.7741 24.1848C28.997 24.1594 29.0663 24.1331 28.9503 24.1182C28.8822 24.1098 28.7602 24.0985 28.6807 24.1025C27.2625 24.1716 25.8374 24.2401 24.427 24.3159C24.0098 24.3382 23.8118 24.3109 23.5554 24.2948C23.3597 24.2822 23.1789 24.2804 22.9417 24.3002C22.7176 24.3188 22.4972 24.3181 22.3529 24.2936C22.2361 24.2736 22.4323 24.248 22.9673 24.2102C23.0663 24.203 23.1788 24.1972 23.2506 24.1865C24.0067 24.0712 24.0066 24.0704 24.5365 24.0431C25.0533 24.017 25.0533 24.0162 25.3178 23.9583C25.4403 23.9314 25.5761 23.9041 25.6918 23.8765C25.7368 23.8657 25.8139 23.8462 25.7865 23.8417C25.6359 23.8192 25.4354 23.8188 25.2037 23.8315C24.6874 23.861 24.0739 23.8664 23.8146 23.9562C23.7132 23.9903 23.5484 24.0037 23.3099 24.0157C20.9112 24.1345 18.513 24.2567 16.1074 24.374C15.7164 24.393 15.5421 24.4301 15.3949 24.4698C15.2667 24.503 15.1218 24.5158 14.87 24.5282C14.6182 24.5406 14.4191 24.5489 14.2682 24.5245C14.179 24.5097 14.2482 24.4835 14.4438 24.4536C14.7241 24.4109 14.6639 24.3693 14.5642 24.3314C14.4934 24.3065 14.2843 24.2934 14.0651 24.3014C13.7399 24.3141 13.429 24.3326 13.1509 24.3058C12.9881 24.2905 12.7864 24.2824 12.6041 24.2703C12.2526 24.2447 11.901 24.2184 11.4194 24.2555C11.0856 24.2564 10.8479 24.232 10.5781 24.2154C10.1262 24.1884 10.0853 24.1835 10.3976 24.1321C10.749 24.0743 10.4596 24.0202 10.6515 23.9678C10.8562 23.9117 11.1417 23.8593 11.3935 23.8053C11.458 23.7913 11.5161 23.7784 11.5806 23.7644C11.4249 23.7515 11.2818 23.7339 11.1003 23.727C10.8651 23.7181 10.7424 23.7025 10.747 23.6486C10.6992 23.6421 10.7222 23.6614 10.7763 23.6651C10.8369 23.6686 10.9826 23.6601 11.0548 23.6519C11.2383 23.6302 11.3278 23.606 11.2783 23.5892C11.2502 23.5804 11.122 23.572 11.0422 23.5742C10.896 23.5784 10.7727 23.601 10.7404 23.6488C10.0014 23.7054 9.23288 23.7447 8.46388 23.7806C8.38438 23.7846 8.28192 23.7702 8.18744 23.7642C7.87686 23.7436 7.87696 23.7444 6.97801 23.7614C6.88479 23.7632 6.75658 23.7547 6.70809 23.744C6.50677 23.6968 6.50412 23.6388 6.40197 23.5854C6.56897 23.5442 6.73598 23.5038 6.90977 23.4633C7.25721 23.3814 7.71253 23.3051 7.97907 23.2186C7.91239 23.178 7.82576 23.138 8.11271 23.0951C8.93681 23.0282 8.93021 23.0284 9.14956 22.9805C9.7755 22.8446 10.3946 22.7081 11.0474 22.5733C11.222 22.5379 11.2194 22.5215 10.8982 22.5177C10.7979 22.5171 10.6912 22.5193 10.5851 22.524C10.2537 22.5396 9.92378 22.5646 9.59745 22.5705C9.27125 22.5772 9.02576 22.546 8.75605 22.5303C8.47955 22.5139 8.20293 22.4967 7.92629 22.4794C7.61423 22.491 7.30571 22.524 6.98695 22.4941C6.74272 22.4707 6.44006 22.4577 6.16343 22.4405C6.35893 22.369 6.73651 22.3079 7.02634 22.2415C7.29042 22.181 7.29706 22.1817 8.02185 22.1203C8.3645 22.0914 8.46841 21.9904 8.17127 21.9703C7.81332 21.9458 7.43591 21.9245 7.07159 21.902C6.75952 21.9135 6.44423 21.9459 6.13876 21.9156C5.90132 21.8929 5.63211 21.8806 5.24831 21.9029C4.59982 21.9405 3.93652 21.969 3.28083 22.0033C3.05561 22.0149 2.80899 22.0185 2.70452 21.992C2.63468 21.9732 2.8229 21.9392 3.04132 21.9269C3.37236 21.9088 3.66983 21.8899 3.82907 21.842C3.98166 21.7942 4.27207 21.7729 4.61682 21.757C4.70962 21.7526 4.8144 21.7392 4.85926 21.7275C5.09052 21.6706 5.3495 21.6199 5.86172 21.607C6.07169 21.5836 6.18115 21.5588 6.11132 21.54C6.06961 21.5299 5.92769 21.5192 5.84819 21.5232C5.29775 21.5476 4.74734 21.572 4.21132 21.6029C3.95979 21.6171 3.76715 21.6243 3.6034 21.603C3.48759 21.5889 3.54365 21.5639 3.75236 21.5328C3.93503 21.5059 3.98423 21.4793 3.96619 21.4504C3.92192 21.3831 3.71922 21.369 3.08165 21.3915C2.62346 21.4081 2.50861 21.4001 2.3994 21.3442C2.37057 21.3312 2.30113 21.3141 2.34614 21.3032C2.62254 21.2364 2.79699 21.1585 3.33106 21.1155C3.54214 21.0991 3.7681 21.0927 3.89744 21.0664C4.02678 21.0402 4.14233 21.0108 4.27846 20.9853C4.44713 20.9544 4.56279 20.9269 4.48035 20.9127C4.34264 20.8872 4.12954 20.8907 3.88521 20.9081C3.67386 20.9228 3.44795 20.9301 3.22938 20.9415C2.83865 20.9622 2.51597 20.9489 2.46329 20.9122C2.32078 20.8157 2.17172 20.7202 2.04251 20.6233C2.02726 20.6116 2.0579 20.5951 2.10941 20.5832C2.28971 20.5417 2.48367 20.5014 2.67075 20.4605C2.89025 20.4135 3.25058 20.411 3.55516 20.3945C3.9855 20.371 3.98549 20.3718 4.55052 20.2724C4.77127 20.2332 5.16565 20.2349 5.3936 20.1989C5.4652 20.1873 5.57572 20.1686 5.55438 20.1605C5.52597 20.15 5.39167 20.1452 5.29111 20.1429C5.19719 20.1404 5.08377 20.141 4.98446 20.1464C3.77847 20.206 2.57944 20.2672 1.37331 20.3259C1.1679 20.3361 0.938776 20.3236 0.861316 20.2989C0.784135 20.2759 0.799131 20.2451 0.781229 20.217C0.968316 20.1761 1.18233 20.1371 1.34241 20.0943C1.46398 20.0614 1.60819 20.0443 1.86055 20.0353C2.19256 20.0232 2.5167 20.0036 2.88776 19.9852C3.55884 19.8394 4.2156 19.6879 4.93986 19.5406C5.23082 19.4812 5.14943 19.4314 5.20047 19.3753C5.25222 19.3236 5.6989 19.3186 5.99571 19.2954C6.23311 19.2765 6.30832 19.2466 6.21217 19.2302C6.15717 19.2205 6.03547 19.211 5.94239 19.2137C5.72298 19.2199 5.50484 19.234 5.28614 19.2445C5.06744 19.2551 4.81439 19.2598 4.63725 19.2796C4.46662 19.2983 4.35827 19.3309 4.24929 19.3592C4.12743 19.3904 3.96287 19.4046 3.71051 19.4136C3.38501 19.4246 3.0605 19.4417 2.7357 19.457C2.37123 19.4336 1.99354 19.4114 1.64209 19.3859C1.57449 19.3809 1.55791 19.3614 1.56247 19.3483C1.57032 19.3143 1.46727 19.2964 1.24522 19.2862C1.05682 19.2777 0.900685 19.2623 0.725032 19.2499C0.854235 19.2228 0.996927 19.1962 1.09926 19.1681C1.32344 19.1088 1.60988 19.0625 2.11544 19.0498C2.30946 19.0104 2.46228 18.9644 2.71781 18.9337C2.96018 18.9042 3.38268 18.9147 3.56061 18.8585C3.64964 18.8308 3.78474 18.7983 3.96257 18.7828C4.24581 18.7582 4.61952 18.7563 4.77792 18.7032C4.87318 18.6727 5.01534 18.6435 5.20703 18.6311C5.42518 18.617 5.6509 18.6089 5.80781 18.5879C5.89285 18.5768 5.98371 18.5603 5.98175 18.5482C5.9805 18.5405 5.84568 18.5322 5.75176 18.5297C5.66435 18.5261 5.5505 18.525 5.45105 18.5296C5.11946 18.5442 4.79522 18.563 4.46363 18.5777C4.37083 18.5821 4.26351 18.5791 4.16294 18.5768C3.86817 18.5713 3.88529 18.5535 4.11297 18.5158C4.34078 18.4789 4.50081 18.4353 4.68789 18.3944C4.89967 18.3823 5.16599 18.3773 5.30961 18.3567C5.55128 18.3229 5.71782 18.2791 5.91183 18.2398C6.1304 18.2283 6.35616 18.2201 6.56073 18.2047C6.6466 18.1988 6.68345 18.1787 6.75477 18.1654C6.88426 18.14 6.99235 18.1057 7.17019 18.0902C7.46021 18.0663 7.8202 18.0621 7.98539 18.0097C8.08066 17.9792 8.22877 17.9455 8.41465 17.9385C8.93268 17.9202 9.14441 17.8664 9.4031 17.814C9.59711 17.7746 10.0254 17.7797 10.2394 17.7398C10.3822 17.714 10.4843 17.6842 10.6272 17.6593C10.6856 17.649 10.8112 17.6411 10.9105 17.6356C11.4536 17.6071 12.0039 17.5818 12.5468 17.5525C12.6329 17.5474 12.7106 17.5322 12.7754 17.5199C12.9114 17.4935 12.9927 17.4599 13.1632 17.4403C13.3337 17.4207 13.5797 17.4137 13.7917 17.4033C14.4744 17.3708 14.5282 17.3727 14.8289 17.2904C15.0719 17.2236 15.6971 17.2483 15.8926 17.1768C16.0061 17.1354 16.2204 17.098 16.612 17.0825C17.1628 17.0607 17.7054 17.0287 18.2554 17.0018C18.7457 16.9774 18.7391 16.9775 19.258 16.8821C19.4915 16.839 19.8447 16.8341 20.1561 16.8183C20.4874 16.8019 20.7915 16.7828 20.9441 16.735C21.0969 16.6882 21.3871 16.666 21.7252 16.6503C22.0367 16.6353 22.3899 16.6296 22.6303 16.588C23.2153 16.4881 23.2085 16.4874 23.626 16.4668C24.2819 16.4342 24.9379 16.4016 25.5937 16.3681C26.031 16.3461 26.4894 16.3312 26.8986 16.3005C27.1955 16.2781 27.3207 16.226 27.508 16.1868C28.0511 16.1583 28.5942 16.1298 29.1374 16.1021C29.8992 16.063 30.6679 16.0254 31.4365 15.987C31.7636 15.9447 31.7985 15.8709 32.3564 15.8515C32.6886 15.8402 33.0126 15.8197 33.3439 15.8033C33.8937 15.7755 34.4364 15.7444 34.9873 15.7226C35.4054 15.7063 35.4709 15.6576 35.6856 15.622C35.757 15.6095 35.8212 15.5929 35.9072 15.5879C36.7676 15.539 37.6576 15.5084 38.4963 15.4489C38.5821 15.443 38.659 15.4226 38.6769 15.409C38.689 15.4018 38.5739 15.392 38.4998 15.3881C38.4123 15.3837 38.2982 15.38 38.2054 15.3844C35.4689 15.5206 32.7326 15.6577 29.9961 15.794C29.6118 15.8136 29.6117 15.8128 28.6896 15.9345C28.6111 15.9446 28.5193 15.9558 28.42 15.9613C27.9828 15.9842 27.5384 16.003 27.1083 16.0282C26.7576 16.0487 26.4635 16.0466 26.2058 16.0228C26.0227 16.0055 25.8353 16.0039 25.6096 16.0121C25.3573 16.0219 25.1928 16.0361 25.0502 16.0636C24.8626 16.1011 24.7695 16.1453 24.3654 16.1655C22.5031 16.256 20.6415 16.3508 18.7863 16.4437C18.525 16.439 18.3958 16.4245 18.4588 16.401C18.4966 16.3869 18.5736 16.3674 18.6531 16.3634C19.4148 16.3234 20.1835 16.2859 20.9453 16.2468C21.0512 16.2411 21.1978 16.2387 21.2562 16.2283C21.5425 16.1811 21.6388 16.1151 22.1899 16.095C22.5086 16.0833 22.8323 16.061 23.1361 16.0402C23.222 16.0343 23.2989 16.0139 23.3167 16.0004C23.3223 15.9933 23.2138 15.9834 23.133 15.9796C22.8364 15.9629 22.5023 16.0028 22.207 15.9939C22.1063 15.9907 21.9652 15.9861 21.9436 15.9763C21.9287 15.9672 22.0393 15.9484 22.1175 15.9366C22.1892 15.9259 22.2877 15.9153 22.387 15.9098C23.2614 15.8649 24.1358 15.8191 25.0109 15.7785C25.3689 15.7622 25.618 15.7334 25.7711 15.6892C25.8861 15.6564 26.0298 15.6367 26.2552 15.6259C27.7858 15.5501 29.3159 15.4709 30.8536 15.3975C31.2381 15.3795 31.433 15.3454 31.5866 15.3037C31.7082 15.2707 31.8528 15.2562 32.098 15.244C34.2914 15.1362 36.4706 15.0237 38.6643 14.9177C39.0686 14.8983 39.1823 14.8578 39.3833 14.82C39.4546 14.8066 39.4988 14.7915 39.5908 14.7819C39.6827 14.7724 39.8025 14.7698 39.9153 14.7649C41.6645 14.6776 43.4134 14.5878 45.1697 14.5029C45.5807 14.4834 45.6533 14.4379 45.8612 14.4017C45.9328 14.3901 45.9968 14.3726 46.0828 14.3676C47.3945 14.3006 48.7064 14.2354 50.0182 14.1693C50.8928 14.1253 51.7673 14.0812 52.642 14.038C53.0727 14.017 53.0726 14.0162 53.6444 13.9175C53.7094 13.9061 53.8007 13.8922 53.8867 13.8871C56.4043 13.7597 58.9155 13.6351 61.4331 13.5086C61.6452 13.4982 61.7949 13.4739 61.8965 13.4415C61.9981 13.4092 62.148 13.3849 62.3534 13.3747C64.321 13.2752 66.2888 13.1765 68.2635 13.0793C68.6214 13.0622 68.8706 13.0342 69.0239 12.9908C69.1388 12.9581 69.2826 12.9383 69.5079 12.9276C71.4759 12.8297 73.4435 12.7293 75.4183 12.633C75.796 12.6144 75.9774 12.5798 76.1579 12.5399C76.2225 12.5259 76.2725 12.5045 76.352 12.5005C77.3321 12.4483 78.3053 12.3953 79.2933 12.3506C79.7044 12.3319 79.8382 12.2917 79.9989 12.2524C80.1274 12.221 80.2788 12.2071 80.5309 12.1965C81.0814 12.1729 81.6242 12.1427 82.1604 12.1126C82.2397 12.1078 82.3364 12.0859 82.3411 12.0737C82.3508 12.0508 82.1953 12.0397 81.9414 12.0391C79.3176 12.1704 76.6873 12.3019 74.0636 12.4332C73.6329 12.455 73.6329 12.4551 73.0611 12.5538C72.9961 12.5652 72.9048 12.5791 72.8121 12.5843C70.2945 12.7108 67.7834 12.8363 65.2657 12.9629C65.0537 12.9733 64.904 12.9975 64.8024 13.0299C64.7007 13.0623 64.5509 13.0865 64.3455 13.0967C61.9404 13.2174 59.5356 13.339 57.1235 13.4573C56.7656 13.4745 56.5162 13.5015 56.363 13.5458C56.2481 13.5786 56.1043 13.5983 55.879 13.6091C53.5798 13.7233 51.2875 13.8399 48.9813 13.9526C48.7493 13.9636 48.5725 13.9435 48.582 13.9198C48.5867 13.9075 48.6831 13.8848 48.7626 13.8808C49.9614 13.818 51.1535 13.7544 52.3601 13.6983C52.7645 13.6798 52.8779 13.6384 53.0789 13.6006C53.1436 13.5875 53.1944 13.5713 53.2799 13.5628C53.3718 13.5532 53.4916 13.5506 53.6044 13.5457C56.4467 13.4029 59.289 13.2593 62.1385 13.1198C62.5493 13.0994 62.6222 13.0548 62.83 13.0186C62.9015 13.0061 62.9655 12.9887 63.0517 12.9845C63.9259 12.9387 64.8006 12.8955 65.6753 12.8523C67.2058 12.7756 68.7363 12.699 70.2734 12.6221C70.7173 12.5999 70.7173 12.5999 71.276 12.5024C71.341 12.491 71.4322 12.4763 71.5183 12.4721C75.5665 12.2689 79.6147 12.0657 83.663 11.8633C83.8751 11.8529 84.0248 11.8287 84.1264 11.7963C84.2282 11.7648 84.3777 11.7397 84.583 11.7286C90.0557 11.4544 95.5218 11.1803 100.995 10.9078C101.353 10.8898 101.602 10.8644 101.755 10.8193C101.864 10.7867 102.014 10.7668 102.239 10.7552C108.255 10.4542 114.271 10.1531 120.294 9.85103C124.342 9.64868 128.39 9.44461 132.439 9.24399C132.81 9.22559 133.005 9.19313 133.185 9.15241C133.243 9.13862 133.3 9.11705 133.38 9.11305C134.247 9.06659 135.115 9.02187 135.982 8.97714C136.259 8.99266 136.535 9.00732 136.811 9.02285C137.012 8.98416 137.206 8.94479 137.407 8.9061C138.719 8.84347 140.01 8.76759 141.337 8.71753C141.424 8.7142 141.519 8.72795 141.614 8.73392C142.241 8.77065 142.593 8.75627 142.973 8.67255C143.109 8.64266 143.225 8.61594 143.437 8.60555C144.092 8.57121 144.756 8.54186 145.404 8.50512C145.755 8.48556 146.049 8.48584 146.307 8.5097C146.49 8.52702 146.677 8.5312 146.896 8.51975C148.102 8.4593 149.301 8.39989 150.507 8.33771C150.593 8.33351 150.67 8.31656 150.735 8.3043C150.871 8.27787 150.987 8.25028 151.116 8.22318C151.298 8.23272 151.499 8.23825 151.649 8.25307C151.838 8.27019 152.011 8.26525 152.263 8.25199C157.073 8.00968 161.89 7.76977 166.7 7.5266C167.111 7.5062 167.296 7.53733 167.578 7.54834C167.672 7.55259 167.767 7.55856 167.867 7.55744C167.974 7.55613 168.086 7.54773 168.192 7.5421C171.803 7.36092 175.414 7.1806 179.025 6.99942C179.502 6.97538 179.502 6.97538 180.222 7.00859C180.309 7.01303 180.423 7.01757 180.516 7.01232C182.16 6.93156 183.802 6.84822 185.439 6.76679C185.651 6.7564 185.833 6.76508 186.029 6.77942C186.414 6.80745 186.441 6.8067 186.711 6.74175C186.839 6.71119 186.976 6.69079 187.194 6.67675C187.432 6.66129 187.626 6.65837 187.814 6.6686C188.084 6.68258 188.283 6.71333 188.687 6.69225C190.435 6.60155 192.192 6.51756 193.934 6.42619C194.331 6.4053 194.548 6.42857 194.818 6.44256C194.912 6.44767 195.001 6.45729 195.101 6.45703C195.201 6.45677 195.32 6.4473 195.425 6.44168C197.612 6.3324 199.805 6.2238 201.984 6.11126C202.395 6.08999 202.581 6.12198 202.863 6.133C202.957 6.13724 203.065 6.1463 203.152 6.1421C204.464 6.07775 205.782 6.01146 207.094 5.94538C207.564 5.92153 207.564 5.9224 208.291 5.95455C208.379 5.95899 208.493 5.96267 208.586 5.95828C210.116 5.88248 211.653 5.80562 213.184 5.72896C213.654 5.70511 213.654 5.70512 215.025 5.71108C215.125 5.71168 215.232 5.71383 215.331 5.70926C217.081 5.62201 218.837 5.53543 220.585 5.44559C220.937 5.42776 221.23 5.4263 221.488 5.45017C221.671 5.46748 221.859 5.47167 222.077 5.46022C224.045 5.36153 226.02 5.26437 227.981 5.16327C228.358 5.14382 228.607 5.15578 228.877 5.17322C228.965 5.17938 229.053 5.189 229.154 5.1896C229.254 5.19021 229.366 5.18353 229.472 5.1779C231.44 5.0792 233.415 4.98291 235.376 4.88095C235.773 4.86006 235.99 4.88334 236.26 4.89732C236.354 4.90243 236.456 4.91513 236.536 4.91198C237.305 4.87528 238.074 4.84031 238.835 4.79689C239.245 4.77304 239.431 4.80761 239.714 4.81863C239.808 4.82201 239.916 4.83193 240.002 4.82773C241.646 4.74698 243.289 4.66449 244.925 4.58133C245.157 4.56951 245.331 4.57233 245.521 4.58946C245.772 4.61265 246.06 4.61657 246.417 4.59682C247.179 4.55513 247.948 4.5193 248.716 4.48087C249.167 4.45846 249.167 4.45846 250.557 4.46386C250.657 4.46446 250.764 4.4666 250.864 4.46202C252.176 4.3968 253.494 4.33226 254.799 4.26464C255.15 4.24594 255.444 4.24535 255.702 4.26921C255.885 4.28653 256.066 4.29091 256.291 4.27927C257.497 4.21881 258.696 4.15854 259.902 4.09808C260.34 4.07606 260.776 4.04712 261.214 4.03459C261.534 4.02633 261.773 4.06112 262.062 4.07368C262.143 4.07744 262.275 4.06675 262.381 4.06198C263.912 3.98531 265.449 3.91104 266.972 3.83025C267.37 3.80936 267.587 3.83263 267.857 3.84662C267.951 3.85173 268.053 3.86443 268.133 3.86128C268.683 3.83603 269.226 3.80751 269.776 3.78052C270.432 3.74791 271.095 3.71857 271.744 3.68097C272.273 3.65024 272.485 3.71964 272.911 3.71008C273.237 3.70336 273.567 3.6792 273.892 3.66299C274.548 3.63038 275.203 3.59604 275.86 3.56516C276.091 3.5542 276.269 3.53525 276.337 3.50208C276.349 3.49566 276.234 3.48594 276.16 3.48026C275.261 3.41746 275.261 3.41746 274.373 3.4619C273.824 3.48974 273.28 3.5174 272.73 3.54352C272.637 3.54791 272.53 3.54404 272.436 3.54152C272.168 3.53444 272.191 3.51641 272.413 3.47888C272.634 3.44135 272.8 3.39843 272.987 3.35753C273.263 3.37219 273.533 3.38703 273.809 3.40169C274.028 3.39111 274.247 3.37967 274.465 3.36908C275.559 3.31531 276.652 3.26067 277.746 3.20862C277.825 3.20462 277.928 3.21904 278.022 3.22501C278.292 3.24245 278.535 3.25719 278.919 3.23668C279.899 3.18354 280.887 3.13712 281.867 3.08744C282.298 3.0656 282.298 3.0656 283.064 3.09747C283.152 3.10105 283.266 3.10473 283.359 3.10034C284.346 3.0522 285.327 3.00252 286.314 2.9535C286.526 2.94311 286.734 2.94844 286.891 2.96911C286.952 2.97776 286.942 2.99541 287.217 3.12976C288.02 3.22217 288.557 3.19471 289.101 3.16878C289.333 3.15782 289.538 3.14761 289.688 3.12598C289.766 3.11421 289.864 3.09754 289.862 3.08632C289.861 3.07769 289.712 3.06805 289.619 3.06898C288.958 3.07051 288.339 3.12463 287.695 3.15082C287.396 3.16281 287.132 3.14 287.071 3.09232C287.056 3.07888 287.033 3.06478 287.011 3.05154C286.989 3.0383 286.973 3.024 286.951 3.01075C286.691 3.01384 286.541 3.03375 286.432 3.06633C286.343 3.09316 286.215 3.12458 286.037 3.14266C285.86 3.1616 285.614 3.16604 285.395 3.17662C285.183 3.18701 284.952 3.20488 284.751 3.20453C284.551 3.20332 284.387 3.18284 284.199 3.17262C284.111 3.16732 284.003 3.15914 283.917 3.16333C283.154 3.19984 282.399 3.23616 281.644 3.2768C281.247 3.29855 281.041 3.268 280.785 3.25277C280.583 3.2412 280.384 3.25121 280.357 3.29187C280.286 3.38929 280.598 3.42027 281.274 3.38277C281.83 3.35128 282.335 3.33427 282.783 3.38044C282.844 3.3865 282.984 3.38596 283.07 3.38177C283.614 3.35584 284.15 3.32751 284.694 3.30158C284.793 3.297 284.9 3.29741 284.994 3.2982C286.358 3.30608 286.358 3.30695 286.815 3.28349C287.033 3.27205 287.245 3.26166 287.204 3.13101C287.6 2.97833 288.264 2.94985 288.905 2.91071C289.322 2.8858 289.508 2.91866 289.783 2.93073C289.878 2.93498 289.98 2.94594 290.066 2.94174C291.491 2.87243 292.908 2.80158 294.326 2.729C294.565 2.71699 294.738 2.71723 294.928 2.73436C295.172 2.75601 295.441 2.76655 295.818 2.74537C296.573 2.703 297.342 2.66803 298.11 2.62874C298.501 2.6089 298.501 2.60889 299.301 2.63982C299.389 2.64339 299.503 2.64707 299.595 2.64269C300.364 2.60599 301.126 2.56602 301.888 2.52865C302.1 2.51825 302.295 2.52484 302.465 2.5434C302.635 2.56196 302.836 2.56834 303.042 2.55814C303.81 2.52058 304.572 2.48148 305.334 2.4441C305.427 2.43972 305.541 2.44254 305.628 2.44611C306.448 2.47647 306.448 2.47646 306.819 2.45719C307.362 2.42867 307.92 2.40669 308.455 2.37404C308.978 2.34177 309.259 2.38405 309.622 2.40142C310.603 2.35347 311.591 2.30878 312.564 2.25669C312.961 2.23494 313.179 2.25735 313.448 2.2722C313.543 2.27731 313.638 2.29106 313.725 2.28772C314.057 2.27478 314.381 2.25597 314.706 2.23976C315.03 2.22355 315.362 2.20715 315.686 2.19094C316.063 2.20535 316.318 2.25702 316.847 2.22198C317.164 2.20077 317.503 2.1885 317.827 2.17229C318.152 2.15608 318.483 2.13968 318.808 2.12347C319.027 2.11289 319.252 2.10384 319.464 2.08999C319.854 2.06584 320.054 2.10264 320.336 2.11366C320.43 2.11704 320.538 2.12436 320.624 2.12016C321.28 2.08928 321.944 2.05993 322.585 2.02166C323.081 1.99188 323.425 2.00809 323.783 2.03429C323.857 2.03997 323.984 2.04068 324.077 2.03629C324.846 1.99959 325.608 1.95962 326.37 1.92225C326.575 1.91204 326.777 1.92016 326.947 1.93785C327.123 1.95622 327.318 1.96195 327.53 1.95156C328.292 1.91418 329.06 1.87488 329.823 1.83751C329.915 1.83312 330.029 1.8368 330.117 1.84124C330.87 1.8735 330.87 1.87436 331.308 1.85147C331.414 1.84584 331.526 1.84088 331.632 1.83525C332.175 1.80759 332.74 1.78714 333.268 1.75124C333.876 1.71046 334.327 1.72709 334.767 1.76395C335.31 1.73802 335.868 1.71603 336.397 1.68357C336.794 1.65923 337.012 1.68596 337.281 1.69994C337.375 1.70505 337.478 1.71775 337.557 1.71374C338.326 1.67704 339.095 1.64207 339.85 1.59884C340.26 1.57498 340.446 1.60869 340.728 1.62057C340.822 1.62482 340.924 1.63407 341.01 1.62987C341.448 1.61043 341.885 1.58753 342.322 1.5655C342.832 1.53966 342.832 1.54053 343.519 1.57382C343.842 1.58974 344.158 1.56076 344.47 1.5458C344.801 1.5294 345.113 1.5153 345.384 1.5431C345.554 1.56079 345.756 1.56891 345.961 1.55957C346.399 1.53927 346.843 1.51878 347.273 1.49349C347.617 1.47325 347.918 1.47161 348.175 1.49634C348.358 1.51366 348.547 1.51957 348.765 1.50812C349.746 1.4593 350.733 1.40942 351.714 1.36146C351.8 1.35727 351.921 1.36162 352.002 1.36711C352.19 1.37734 352.373 1.38947 352.555 1.40161C352.986 1.3815 353.431 1.36533 353.854 1.34109C354.304 1.31609 354.716 1.3 355.076 1.33742C355.151 1.34569 355.26 1.35732 355.346 1.35399C355.678 1.34104 356.002 1.32311 356.327 1.3069C356.651 1.29069 356.983 1.27429 357.307 1.25808C357.69 1.26883 357.939 1.32415 358.468 1.2891C358.785 1.2679 359.124 1.25563 359.449 1.23942C359.773 1.22321 360.104 1.20595 360.429 1.1906C360.535 1.18583 360.654 1.1781 360.748 1.17889C360.848 1.1795 360.936 1.18912 361.024 1.19528C361.294 1.21272 361.544 1.23073 361.921 1.20523C362.238 1.18403 362.577 1.17176 362.901 1.15469C363.345 1.13247 363.345 1.13247 364.092 1.16578C364.395 1.17968 364.729 1.14065 365.018 1.15147C365.213 1.15891 365.383 1.17574 365.571 1.1851C365.652 1.18887 365.779 1.18785 365.872 1.18346C366.309 1.16316 366.753 1.14267 367.183 1.11738C367.534 1.09696 367.828 1.09896 368.079 1.12301C368.262 1.14033 368.443 1.1447 368.669 1.13307C369.762 1.07757 370.856 1.02551 371.942 0.967605C372.312 0.947476 372.614 0.953614 372.825 0.978805C373.186 1.02226 373.674 0.945003 374.047 0.977723C374.277 0.998029 374.509 1.02265 374.919 0.997929C375.673 0.953838 376.442 0.91972 377.204 0.882344C377.481 0.897867 377.757 0.913396 378.04 0.928728C378.477 0.9067 378.915 0.884667 379.352 0.863502C379.677 0.847291 380.008 0.830029 380.333 0.814681C380.439 0.809917 380.551 0.803235 380.652 0.804703C380.752 0.806172 380.834 0.815115 380.928 0.82109C381.394 0.850287 381.394 0.851158 382.149 0.812246C382.473 0.795172 382.785 0.781066 383.063 0.807811C383.321 0.832536 383.621 0.830033 383.965 0.810664C384.614 0.77479 385.27 0.743039 385.933 0.711965C386.139 0.701763 386.334 0.710934 386.51 0.728442C386.775 0.75643 387.094 0.743862 387.418 0.725061C387.848 0.700633 388.272 0.676401 388.645 0.7143C388.72 0.722571 388.836 0.734007 388.915 0.730865C389.459 0.708389 390.01 0.687453 390.54 0.65586C391.069 0.624268 391.337 0.670383 391.707 0.685838C392.25 0.659045 392.8 0.632061 393.343 0.605269C393.449 0.599641 393.574 0.588268 393.668 0.589927C394.063 0.596851 394.3 0.655139 394.835 0.619903C395.146 0.599756 395.484 0.586624 395.81 0.57473C395.896 0.571398 396.011 0.582836 396.073 0.59235C396.107 0.597443 396.077 0.614794 396.038 0.624566C395.922 0.652156 395.78 0.678786 395.677 0.706858C395.665 0.710691 395.794 0.722615 395.868 0.727432C396.05 0.737845 396.255 0.729375 396.494 0.715634C396.699 0.703704 396.914 0.709712 397.064 0.731432C397.126 0.740082 397.108 0.757918 396.991 0.8185C396.998 0.8608 397.135 0.837816 397.177 0.808863C397.243 0.767064 397.102 0.758104 396.839 0.787281C396.656 0.808136 396.566 0.833239 396.616 0.850038C396.644 0.858775 396.772 0.867257 396.991 0.8185C397.568 0.749995 398.005 0.727968 398.443 0.705939C398.555 0.700122 398.687 0.687686 398.767 0.690587C399.057 0.70314 399.327 0.720584 399.61 0.735917C399.928 0.721623 400.225 0.700125 400.543 0.724867C400.989 0.759815 401.009 0.754929 401.433 0.733281C401.651 0.721834 401.87 0.71126 402.089 0.700677C402.307 0.690095 402.482 0.698106 402.678 0.712454C403.077 0.741824 403.11 0.740871 403.361 0.678216C403.508 0.640182 403.613 0.625925 403.808 0.635958C404.455 0.670388 404.462 0.673647 405.005 0.642538C405.455 0.616677 405.88 0.601071 406.22 0.640783C406.452 0.668857 406.524 0.659001 406.697 0.617617C407.16 0.508123 407.38 0.503582 408.289 0.547009C408.713 0.56785 409.139 0.520114 409.564 0.503646C409.923 0.489939 410.179 0.503439 410.214 0.557065C410.239 0.590163 410.303 0.612629 410.544 0.617016C410.638 0.618674 410.752 0.621487 410.845 0.617102C411.395 0.590984 411.938 0.563325 412.488 0.53548C412.766 0.521461 412.913 0.476527 412.851 0.424524C412.782 0.369258 412.885 0.345495 413.281 0.3177C413.519 0.301368 413.712 0.297592 413.907 0.307624C414.123 0.318813 414.066 0.336061 413.885 0.372455C413.451 0.461145 413.512 0.506234 414.092 0.542563C414.295 0.554994 414.457 0.566849 414.508 0.592281C414.537 0.605334 414.513 0.624219 414.574 0.632869C414.91 0.681404 415.368 0.705617 415.877 0.71881C416.359 0.681641 416.698 0.710985 417.075 0.73143C417.372 0.747246 417.714 0.716661 418.025 0.699104C418.376 0.679544 418.669 0.67809 418.927 0.702816C419.11 0.720133 419.298 0.725174 419.517 0.714591C419.954 0.692563 420.399 0.673802 420.829 0.647647C421.199 0.624928 421.481 0.634219 421.718 0.656924C422.017 0.68569 422.339 0.651343 422.645 0.647788C423.059 0.642059 423.277 0.713001 423.812 0.676902C424.13 0.655702 424.461 0.641893 424.793 0.628946C424.879 0.625614 424.988 0.637256 425.063 0.645526C425.423 0.682942 425.835 0.668576 426.285 0.641852C426.596 0.623432 426.9 0.60607 427.211 0.63014C427.725 0.670958 428.292 0.703351 428.832 0.739092C428.911 0.776714 428.866 0.824843 429.248 0.837328C429.45 0.843717 429.639 0.856535 429.795 0.872022C429.985 0.890013 430.159 0.891123 430.397 0.878245C430.827 0.853816 431.279 0.838302 431.702 0.810611C432.092 0.785596 432.343 0.80707 432.586 0.826995C432.783 0.84307 432.964 0.848294 433.194 0.826109C433.431 0.804598 433.605 0.809155 433.802 0.826957C434.08 0.851112 434.099 0.847094 435.005 0.830766C435.098 0.828971 435.213 0.838687 435.268 0.84839C435.296 0.853673 435.239 0.872655 435.194 0.882617C435.136 0.894685 435.044 0.909424 434.958 0.914482C433.978 0.96503 432.991 1.01318 432.01 1.06372C431.911 1.06916 431.806 1.07825 431.734 1.08897C431.656 1.10074 431.558 1.11653 431.56 1.12862C431.561 1.13725 431.696 1.14382 431.79 1.1472C432.086 1.1587 432.426 1.11861 432.716 1.13289C432.911 1.14206 433.074 1.15822 433.269 1.16653C433.35 1.17029 433.476 1.16582 433.576 1.16125C433.907 1.14571 434.231 1.12777 434.563 1.1131C434.656 1.10958 434.764 1.11518 434.851 1.11962C435.498 1.15318 435.498 1.15318 436.048 1.1262C436.267 1.11561 436.497 1.09602 436.704 1.09531C436.904 1.0948 437.081 1.11317 437.263 1.12271C437.64 1.14316 437.998 1.16331 438.035 1.22988C438.052 1.2554 438.275 1.27158 438.495 1.26704C438.708 1.26269 438.933 1.24675 439.151 1.2353C439.668 1.21013 439.668 1.21013 440.348 1.24361C440.537 1.25297 440.736 1.249 440.974 1.23353C441.067 1.22742 441.181 1.22764 441.281 1.22911C441.609 1.23275 441.612 1.24915 441.404 1.28631C441.112 1.3406 441.139 1.34417 441.983 1.35909C442.305 1.36465 442.555 1.38525 442.825 1.40183C443.263 1.42833 443.257 1.42851 442.979 1.48761C442.915 1.50073 442.857 1.51453 442.792 1.52851C442.605 1.56768 442.458 1.60831 442.059 1.62316C441.621 1.63914 441.185 1.66549 440.747 1.68752C440.323 1.70917 440.214 1.73311 440.263 1.79067C440.321 1.86013 440.409 1.86543 441.173 1.84273C441.393 1.83646 441.586 1.83786 441.756 1.85642C441.681 1.88633 441.538 1.91208 441.326 1.92334C440.783 1.95186 440.233 1.97884 439.69 2.00564C439.253 2.02766 438.815 2.04969 438.378 2.07172C438.107 2.08554 437.941 2.13538 438.022 2.18336C438.067 2.21071 438.104 2.23824 438.142 2.26578C438.225 2.32067 438.367 2.33136 438.812 2.31605C438.925 2.31196 439.03 2.30201 439.136 2.3007C439.57 2.2944 439.787 2.36016 440.303 2.33067C440.734 2.30625 441.185 2.29074 441.608 2.26305C441.999 2.23803 442.223 2.26286 442.499 2.27838C442.594 2.28349 442.696 2.29703 442.776 2.29389C443.326 2.26864 443.876 2.24339 444.412 2.21161C444.664 2.19748 444.817 2.1983 445.02 2.21332C445.507 2.24971 445.52 2.24674 446.229 2.21089C446.745 2.18399 446.752 2.18553 447.426 2.2192C447.614 2.22855 447.814 2.22286 448.052 2.20911C448.363 2.19156 448.686 2.16844 449.014 2.17209C449.115 2.17269 449.243 2.17944 449.278 2.18972C449.299 2.19692 449.209 2.21857 449.13 2.22689C448.552 2.28849 447.866 2.30028 447.231 2.33664C447.032 2.34751 446.83 2.33681 446.66 2.31825C446.483 2.29988 446.296 2.2957 446.071 2.30647C445.633 2.3285 445.189 2.34726 444.759 2.37342C444.388 2.39613 444.126 2.38368 443.862 2.36433C443.774 2.35816 443.672 2.34461 443.586 2.34794C442.605 2.39331 441.617 2.43887 440.643 2.49095C440.253 2.51251 440.022 2.49135 439.753 2.47564C439.658 2.47053 439.563 2.45678 439.476 2.46011C439.144 2.47306 438.82 2.49186 438.489 2.50826C437.283 2.56871 436.084 2.62898 434.878 2.68771C434.798 2.69172 434.695 2.67643 434.601 2.67132C434.419 2.66091 434.23 2.65155 434.042 2.64219C433.711 2.65859 433.386 2.67653 433.055 2.6912C432.816 2.70149 432.605 2.71966 432.577 2.75341C432.561 2.77556 432.783 2.78915 433.016 2.78077C433.242 2.77259 433.466 2.75578 433.654 2.76168C434.587 2.79054 434.587 2.7914 435.164 2.76366C435.667 2.73887 435.613 2.73176 436.066 2.76651C436.262 2.78172 436.437 2.78888 436.655 2.77743C437.199 2.74977 437.749 2.72193 438.299 2.69581C438.385 2.69161 438.499 2.69702 438.587 2.70146C439.247 2.73465 439.247 2.73637 439.783 2.70804C440.486 2.67237 440.512 2.6673 440.992 2.70647C441.324 2.73343 441.619 2.69985 441.931 2.6892C442.296 2.71261 442.693 2.73162 443.025 2.7603C443.418 2.79418 443.822 2.77482 444.258 2.74934C444.583 2.73054 444.901 2.71797 445.173 2.74577C445.431 2.77136 445.737 2.76609 446.082 2.74758C446.393 2.73089 446.709 2.70536 447.038 2.71505C447.126 2.71776 447.261 2.72692 447.255 2.73488C447.25 2.74715 447.167 2.76689 447.081 2.77454C446.475 2.8274 445.804 2.84571 445.161 2.88053C445.075 2.88559 444.961 2.87932 444.873 2.87488C444.685 2.86466 444.502 2.85166 444.32 2.84039C443.995 2.85487 443.663 2.86609 443.345 2.88556C443.101 2.90035 442.914 2.90482 442.731 2.88923C442.562 2.87498 442.379 2.85679 442.179 2.85645C441.978 2.8561 441.748 2.8757 441.529 2.88714C441.31 2.89859 441.057 2.90321 440.887 2.92196C440.716 2.94071 440.615 2.97396 440.505 3.00136C440.383 3.03173 440.212 3.04531 439.96 3.05511C439.727 3.06435 439.541 3.06621 439.364 3.04697C439.289 3.0387 439.188 3.03378 439.087 3.02972C438.993 3.02634 438.885 3.01988 438.799 3.02407C437.812 3.07222 436.831 3.12191 435.844 3.17092C435.354 3.19533 435.36 3.19513 434.328 3.17344C434.234 3.17179 434.12 3.16897 434.028 3.17336C433.478 3.19948 432.934 3.22713 432.384 3.25498C431.828 3.28302 431.834 3.2811 430.875 3.25387C430.7 3.24844 430.45 3.26947 430.243 3.27363C429.811 3.28166 429.586 3.21522 429.083 3.24347C428.653 3.26789 428.201 3.2834 427.771 3.31128C427.381 3.33629 427.151 3.31254 426.881 3.29682C426.786 3.29171 426.684 3.2773 426.604 3.2813C425.617 3.32859 424.636 3.37827 423.32 3.41846C422.995 3.42776 423.144 3.44171 423.358 3.44168C423.665 3.44244 423.762 3.42146 423.59 3.39168C423.466 3.37093 423.291 3.36377 423.153 3.3738C423.08 3.37934 422.99 3.39841 423.32 3.41846C423.671 3.44139 423.654 3.46008 423.716 3.46873C423.866 3.48959 424.074 3.49406 424.286 3.48453C424.618 3.46899 424.942 3.45106 425.274 3.43638C425.366 3.432 425.48 3.43482 425.568 3.43925C426.308 3.47189 426.315 3.47515 427.09 3.43222C427.335 3.41915 427.514 3.41402 427.71 3.42492C427.979 3.43977 428.178 3.47224 428.582 3.44857C429.118 3.41679 429.668 3.39154 430.218 3.36628C430.304 3.36209 430.4 3.37497 430.501 3.37903C430.777 3.39196 430.983 3.42511 431.385 3.39713C431.696 3.37525 432.034 3.36211 432.366 3.35002C432.453 3.34669 432.588 3.35671 432.629 3.36679C432.712 3.38437 432.617 3.41053 432.393 3.43339C432.301 3.44295 432.175 3.44483 432.069 3.45046C431.631 3.47249 431.194 3.49537 430.757 3.51568C430.525 3.52664 430.307 3.54586 430.286 3.57856C430.27 3.60071 430.512 3.61286 430.738 3.60468C431.07 3.5926 431.401 3.5762 431.718 3.55586C432.28 3.52073 432.773 3.51185 433.241 3.55314C433.573 3.58182 433.55 3.56858 433.914 3.67093C434.005 3.69695 434.265 3.69213 434.491 3.68395C435.035 3.66406 435.29 3.6698 435.248 3.69789C435.193 3.7324 435.002 3.74826 434.757 3.7596C434.319 3.77904 433.882 3.8028 433.445 3.82483C433.339 3.83046 433.22 3.83905 433.12 3.84017C433.02 3.84129 432.925 3.83359 432.838 3.82829C432.649 3.81721 432.485 3.79673 432.285 3.79638C432.084 3.79604 431.854 3.81563 431.635 3.82708C431.417 3.83766 431.186 3.85725 430.986 3.85691C430.785 3.85656 430.615 3.83542 430.433 3.82501C430.345 3.8197 430.237 3.81065 430.15 3.81398C429.713 3.83342 429.276 3.85718 428.838 3.87834C428.302 3.90495 428.302 3.90495 427.641 3.87003C427.453 3.85981 427.26 3.86618 427.015 3.88011C426.486 3.90912 426.478 3.90671 425.5 3.88437C425.406 3.88184 425.292 3.87904 425.199 3.88428C424.212 3.93243 423.231 3.98211 422.25 4.03093C421.409 4.07318 421.409 4.07318 420.958 4.1728C420.622 4.24656 420.616 4.24674 420.959 4.26641C421.236 4.2828 421.488 4.31116 421.789 4.31557C422.07 4.31968 422.41 4.27096 422.722 4.30193C422.878 4.31742 423.081 4.33331 423.274 4.33125C423.581 4.32684 423.902 4.29249 424.201 4.32212C424.351 4.33693 424.573 4.35053 424.759 4.34608C425.086 4.3385 425.416 4.31518 425.741 4.29984C425.84 4.29526 425.953 4.29204 426.047 4.2937C426.147 4.29603 426.235 4.30392 426.323 4.31009C426.594 4.33184 426.882 4.33748 427.225 4.31293C427.787 4.27262 428.294 4.27028 428.742 4.31299C428.803 4.31905 428.949 4.31574 429.042 4.30963C429.28 4.29417 429.485 4.28741 429.668 4.29869C429.742 4.30351 429.85 4.31255 429.838 4.3207C429.82 4.33422 429.743 4.35376 429.658 4.36055C429.037 4.40775 428.366 4.43038 427.724 4.46434C427.638 4.46853 427.53 4.46034 427.442 4.45504C427.253 4.44482 427.09 4.42349 426.889 4.42314C426.689 4.42279 426.458 4.44066 426.239 4.45124C426.02 4.46182 425.79 4.48142 425.59 4.48194C425.389 4.48159 425.199 4.46532 425.037 4.45089C424.847 4.43463 424.667 4.43717 424.423 4.45282C424.105 4.47316 423.773 4.48438 423.448 4.49973C423.266 4.48845 423.084 4.47544 422.895 4.46522C422.807 4.45992 422.7 4.45347 422.607 4.45699C422.169 4.47643 421.732 4.49932 421.294 4.52135C420.857 4.54337 420.857 4.54338 420.104 4.51112C420.017 4.50755 419.902 4.50387 419.81 4.50826C419.259 4.53438 418.716 4.56289 418.166 4.58901C417.954 4.5994 417.759 4.59282 417.583 4.57445C417.413 4.55589 417.211 4.54864 417.006 4.55884C416.131 4.60203 415.256 4.64437 414.382 4.69101C414.031 4.70971 413.731 4.71049 413.486 4.68625C413.201 4.65883 412.89 4.67638 412.566 4.69259C411.83 4.73094 411.824 4.73026 411.344 4.69971C411.25 4.69374 411.154 4.67999 411.068 4.68332C410.306 4.71811 409.536 4.75222 408.782 4.79459C408.385 4.8172 408.167 4.79307 407.897 4.77822C407.803 4.77311 407.701 4.75955 407.621 4.76356C407.071 4.78881 406.52 4.81321 405.985 4.84586C405.449 4.8785 405.23 4.80411 404.824 4.81656C404.273 4.83318 403.731 4.8686 403.187 4.89626C402.75 4.91829 402.313 4.94031 401.876 4.96234C401.438 4.98437 401.001 5.00467 400.564 5.02842C400.332 5.04111 400.158 5.03827 399.962 5.0222C399.711 5.00074 399.415 4.98666 399.145 4.96835C398.733 4.94282 398.733 4.94281 398.243 4.96722C398.137 4.97285 398.024 4.9778 397.918 4.98343C397.117 5.0254 397.117 5.02368 396.084 4.99853C396.037 4.99727 395.919 5.01019 395.873 5.01843C395.737 5.04486 395.615 5.07263 395.493 5.09955C395.311 5.09086 395.09 5.08936 394.967 5.07292C394.619 5.02649 394.1 5.11851 393.745 5.07314C393.615 5.05603 393.393 5.04417 393.193 5.04468C392.986 5.04539 392.755 5.06412 392.543 5.07538C391.993 5.10409 391.993 5.10323 391.533 5.19354C391.3 5.23836 390.954 5.24132 390.642 5.25888C390.318 5.27768 390.006 5.29179 389.728 5.26418C389.477 5.23926 389.177 5.24004 388.826 5.26046C388.396 5.28575 387.952 5.30624 387.514 5.32654C387.421 5.33093 387.308 5.32984 387.214 5.32732C386.188 5.30544 386.188 5.30458 385.698 5.32986C385.479 5.3413 385.253 5.34948 385.042 5.36332C384.685 5.38739 384.41 5.37704 384.146 5.35682C384.058 5.35066 383.956 5.33712 383.869 5.34045C383.431 5.3573 383 5.37741 382.57 5.39752C382.238 5.41306 381.906 5.426 381.589 5.4472C381.06 5.48225 380.792 5.43353 380.422 5.41808C379.879 5.44487 379.328 5.4684 378.786 5.49951C378.534 5.51363 378.367 5.51579 378.171 5.50058C377.921 5.48171 377.69 5.45882 377.293 5.48316C376.764 5.51562 376.207 5.53761 375.663 5.56354C375.293 5.54722 375.019 5.50042 374.497 5.53528C374.179 5.55648 373.841 5.56875 373.516 5.58496C373.079 5.60699 372.641 5.62816 372.204 5.65106C371.734 5.6749 371.74 5.67212 371.007 5.64188C370.584 5.62363 370.157 5.66964 369.732 5.68697C369.4 5.70078 369.241 5.74524 369.329 5.79389C369.417 5.84254 369.243 5.88738 368.939 5.90302C368.177 5.94126 367.408 5.98055 366.646 6.01706C366.553 6.02145 366.439 6.01863 366.352 6.01506C365.525 5.98403 365.526 5.9849 365.161 6.00311C364.618 6.03163 364.061 6.05448 363.525 6.08626C363.154 6.10812 362.879 6.09778 362.635 6.07527C362.445 6.05814 362.271 6.05789 362.033 6.06991C359.409 6.20294 356.785 6.33166 354.168 6.46623C353.778 6.48606 353.548 6.46748 353.278 6.45177C353.184 6.44666 353.094 6.43273 353.001 6.43539C352.782 6.44165 352.564 6.45569 352.345 6.46714C351.365 6.51596 350.385 6.56909 349.396 6.61292C348.979 6.63179 348.872 6.67473 348.698 6.71266C348.562 6.74169 348.405 6.75659 348.159 6.76707C347.92 6.77736 347.747 6.77798 347.557 6.76086C347.313 6.73834 347.037 6.72799 346.667 6.75071C346.237 6.77686 345.799 6.79545 345.355 6.81767C345.13 6.82844 344.959 6.84891 344.891 6.88208C344.879 6.88764 345.021 6.8966 345.102 6.90209C345.372 6.9204 345.629 6.9434 345.931 6.95298C346.24 6.96237 346.569 6.93215 346.888 6.91786C347 6.91291 347.106 6.90469 347.212 6.90252C347.312 6.90053 347.433 6.90143 347.507 6.90711C347.859 6.93608 348.229 6.9524 348.704 6.91542C349.118 6.91487 349.342 6.98044 349.865 6.94645C350.182 6.92611 350.513 6.91144 350.845 6.89763C350.931 6.8943 351.027 6.90718 351.121 6.91229C351.391 6.92628 351.609 6.95473 352.006 6.92866C352.429 6.90097 352.88 6.88547 353.311 6.86104C353.549 6.8473 353.723 6.84841 353.912 6.86554C354.156 6.88719 354.432 6.90098 354.803 6.87653C355.12 6.85533 355.458 6.84306 355.783 6.82598C356.207 6.80434 356.207 6.8052 356.974 6.83708C357.061 6.84065 357.175 6.84433 357.268 6.83994C357.818 6.81382 358.361 6.7853 358.911 6.75918C359.123 6.74879 359.331 6.75413 359.482 6.77498C359.543 6.78363 359.526 6.80148 359.548 6.81559C358.455 6.87023 357.361 6.92141 356.275 6.98104C355.865 7.00403 355.673 6.97395 355.397 6.96188C355.303 6.95764 355.201 6.94581 355.115 6.95C354.346 6.98671 353.584 7.02408 352.823 7.0649C352.584 7.07778 352.404 7.07945 352.221 7.05955C351.751 7.00618 351.198 7.05839 350.681 7.08269C350.284 7.10099 350.162 7.13137 350.217 7.18701C350.288 7.25264 350.531 7.26652 351.14 7.23697C351.359 7.22638 351.578 7.21407 351.796 7.20435C352.009 7.19482 352.203 7.20054 352.38 7.21891C352.55 7.23747 352.751 7.24386 352.957 7.23452C353.394 7.21422 353.838 7.19373 354.262 7.16863C354.613 7.14821 354.907 7.14848 355.158 7.1734C355.436 7.201 355.754 7.18412 356.072 7.16723C356.814 7.1287 356.82 7.12938 357.293 7.15925C357.387 7.16523 357.483 7.17897 357.569 7.17564C358.332 7.14085 359.101 7.1076 359.849 7.06543C360.24 7.04387 360.47 7.06503 360.733 7.08007C360.828 7.08518 360.923 7.09979 361.01 7.0956C361.56 7.07034 362.11 7.04508 362.646 7.0133C362.897 6.99831 363.051 6.99912 363.261 7.01396C363.761 7.05084 363.774 7.04873 364.469 7.01239C364.681 7.00114 364.912 6.985 365.113 6.98621C365.314 6.98742 365.477 7.0079 365.666 7.01812C365.753 7.02256 365.861 7.02901 365.954 7.02462C366.392 7.00519 366.829 6.9823 367.266 6.96027C367.677 6.939 367.677 6.93987 368.457 6.97136C368.773 6.98488 369.096 6.95658 369.407 6.94075C369.745 6.9233 370.051 6.91457 370.315 6.94083C370.58 6.96709 370.892 6.95643 371.224 6.94003C371.535 6.9242 371.851 6.8961 372.174 6.9103C372.914 6.94293 372.914 6.94379 373.365 6.92052C374.02 6.88704 374.67 6.85462 375.333 6.82269C375.419 6.81849 375.533 6.82563 375.621 6.83007C375.81 6.84029 375.973 6.86162 376.174 6.86197C376.374 6.86318 376.605 6.84617 376.817 6.83492C377.499 6.79896 377.545 6.79159 378.013 6.83546C378.406 6.87106 378.874 6.79006 379.242 6.83332C379.453 6.85765 379.736 6.87385 380.119 6.84816C380.436 6.82696 380.768 6.81401 381.099 6.79761C381.623 6.77139 381.623 6.77226 382.296 6.80507C382.384 6.80951 382.498 6.8149 382.584 6.81071C383.022 6.79127 383.466 6.7725 383.889 6.74481C384.385 6.71244 384.709 6.73614 385.087 6.75745C385.384 6.77413 385.726 6.74353 386.037 6.72597C386.375 6.70765 386.681 6.70151 386.939 6.72796C387.211 6.75489 387.522 6.74165 387.854 6.72525C388.165 6.71029 388.481 6.68132 388.804 6.69637C389.498 6.73034 389.498 6.73034 389.995 6.70574C390.432 6.68371 390.869 6.66082 391.307 6.64138C391.393 6.63719 391.501 6.64537 391.589 6.65067C391.777 6.66089 391.941 6.68224 392.142 6.68258C392.342 6.68293 392.573 6.66506 392.792 6.65448C393.01 6.6439 393.241 6.6243 393.441 6.62379C393.641 6.62327 393.831 6.63953 393.994 6.65397C394.184 6.6711 394.357 6.66875 394.608 6.6529C394.925 6.63256 395.257 6.62048 395.582 6.60513C395.764 6.61641 395.953 6.62749 396.129 6.64068C396.312 6.65455 396.504 6.64731 396.749 6.63425C397.563 6.59017 397.571 6.59257 398.264 6.62654C398.58 6.64179 398.903 6.61262 399.215 6.59765C399.546 6.58125 399.858 6.56888 400.123 6.59601C400.381 6.62159 400.694 6.61698 401.025 6.59713C401.236 6.58414 401.462 6.57338 401.681 6.56452C401.78 6.56081 401.9 6.56085 401.975 6.56566C402.333 6.59186 402.684 6.61479 403.165 6.57762C403.592 6.57237 403.816 6.63708 404.326 6.60865C404.756 6.58422 405.208 6.56871 405.631 6.54102C406.021 6.51601 406.304 6.53221 406.508 6.55673C406.876 6.6 407.37 6.51305 407.737 6.55545C407.948 6.57978 408.218 6.59636 408.615 6.57202C409.051 6.54567 409.194 6.55981 409.329 6.61059C409.407 6.63957 409.398 6.66499 409.269 6.69296C409.14 6.72179 408.993 6.72166 408.776 6.69925C408.525 6.67433 408.231 6.67663 407.88 6.6936C407.535 6.71038 407.315 6.67158 407.026 6.66248C406.738 6.65252 406.403 6.69241 406.1 6.67765C405.387 6.64339 405.387 6.64339 404.91 6.66742C404.585 6.68363 404.247 6.69677 403.93 6.71797C403.553 6.74347 403.303 6.72373 403.039 6.70696C402.945 6.70099 402.849 6.68725 402.769 6.69039C402.007 6.72517 401.238 6.75929 400.483 6.80252C400.086 6.82513 399.869 6.80013 399.599 6.78614C399.505 6.78103 399.402 6.76835 399.323 6.77235C398.667 6.80323 398.018 6.83738 397.362 6.87085C397.239 6.89777 397.103 6.9242 396.988 6.95265C396.865 6.98216 396.694 6.99832 396.442 7.00467C396.023 7.01663 395.616 7.06467 395.19 7.03088C394.75 6.9966 394.718 7.00014 394.301 7.02332C393.771 7.05319 393.205 7.06588 392.712 7.11379C392.627 7.1223 392.536 7.14135 392.538 7.15344C392.533 7.1614 392.674 7.16864 392.762 7.17307C393.058 7.18544 393.392 7.14554 393.688 7.15877C393.883 7.16707 394.046 7.18323 394.241 7.1924C394.322 7.19616 394.441 7.19189 394.548 7.18798C394.66 7.18389 394.766 7.17482 394.872 7.17264C394.972 7.17066 395.08 7.17279 395.161 7.17828C395.532 7.20064 395.922 7.21985 396.254 7.24939C396.579 7.27826 396.874 7.24382 397.193 7.23298C398.479 7.25695 398.48 7.25781 399.334 7.21432C399.546 7.20393 399.765 7.19248 399.984 7.18708C400.078 7.18442 400.166 7.19749 400.261 7.20346C400.531 7.22176 400.787 7.23786 401.158 7.21341C401.475 7.19221 401.813 7.17994 402.138 7.16286C402.575 7.14083 402.575 7.14084 403.329 7.17395C403.517 7.18245 403.716 7.17503 403.954 7.16129C404.16 7.14936 404.374 7.15624 404.525 7.17709C404.586 7.18574 404.569 7.20358 404.591 7.21768C403.935 7.25029 403.272 7.27878 402.637 7.31772C402.227 7.34245 402.035 7.31064 401.759 7.29857C401.665 7.29432 401.563 7.2825 401.477 7.28669C400.827 7.31825 400.178 7.35152 399.529 7.3874C399.45 7.3914 399.353 7.41411 399.349 7.42638C399.339 7.44921 399.508 7.46605 399.748 7.45835C400.067 7.44837 400.377 7.42476 400.668 7.45199C400.913 7.47624 401.214 7.48152 401.564 7.45764C401.776 7.44379 402.002 7.43733 402.214 7.42435C402.775 7.38749 403.288 7.37719 403.723 7.42374C404.051 7.42997 404.368 7.40618 404.679 7.38949C404.911 7.3768 405.136 7.3643 405.305 7.37595C405.663 7.40042 406.014 7.42508 406.496 7.38791C407.025 7.39708 407.432 7.43661 407.878 7.46552C408.087 7.47949 408.248 7.48616 408.485 7.46638C408.584 7.45835 408.704 7.45492 408.81 7.44929C409.029 7.43871 409.259 7.41912 409.46 7.4186C409.66 7.41895 409.83 7.43924 410.012 7.44965C410.1 7.45495 410.202 7.46505 410.288 7.46172C410.62 7.44791 410.944 7.42997 411.269 7.41376C411.594 7.39841 411.918 7.38307 412.243 7.36772C412.519 7.38238 412.802 7.39686 413.079 7.41152C413.516 7.38949 413.953 7.36745 414.384 7.34647C414.868 7.32225 414.868 7.32312 415.574 7.35671C415.891 7.37195 416.221 7.34691 416.518 7.32715C417.014 7.29478 417.352 7.31809 417.71 7.34256C417.784 7.34738 417.917 7.34789 418.003 7.34197C418.347 7.32001 418.648 7.32096 418.906 7.34569C419.089 7.36301 419.27 7.36824 419.489 7.35766C420.251 7.31942 421.012 7.28032 421.775 7.2438C421.867 7.23942 421.975 7.24415 422.063 7.24859C422.749 7.28188 422.756 7.28428 423.253 7.25623C423.696 7.23142 424.108 7.21446 424.468 7.25188C424.542 7.26015 424.658 7.2716 424.737 7.26846C425.281 7.24426 425.832 7.219 426.368 7.18894C426.613 7.17501 426.786 7.17267 426.982 7.18702C427.232 7.20502 427.456 7.22897 427.86 7.20617C428.978 7.14214 428.986 7.14712 430.325 7.1687C430.419 7.17036 430.544 7.15985 430.65 7.15336C430.875 7.13827 431.043 7.14562 431.245 7.15977C431.698 7.19194 431.711 7.18897 432.135 7.16732C432.46 7.15025 432.798 7.13884 433.115 7.11678C433.604 7.08373 433.936 7.1081 434.306 7.12959C434.603 7.14627 434.939 7.11587 435.25 7.09918C435.588 7.08086 435.894 7.07471 436.152 7.1003C436.328 7.1178 436.516 7.12458 436.735 7.114C437.497 7.07663 438.259 7.03752 439.021 7.00014C439.114 6.99576 439.228 6.99943 439.315 7.00301C440.082 7.03488 440.082 7.03748 440.831 6.99617C441.069 6.98329 441.268 6.97587 441.451 6.98887C441.626 7.0012 441.815 7.01228 441.997 7.02355C442.322 7.0082 442.654 6.99699 442.972 6.97751C443.216 6.96272 443.39 6.96124 443.585 6.97386C443.842 6.98995 444.061 7.02444 444.457 6.99319C444.661 6.97781 444.901 6.97357 445.106 6.95905C445.35 6.9408 445.518 6.94295 445.714 6.95989C445.958 6.97982 446.208 7.00042 446.591 6.97559C447.014 6.9479 447.466 6.9324 447.896 6.90797C448.134 6.89423 448.302 6.89639 448.498 6.91333C448.742 6.93498 449.018 6.94532 449.388 6.92347C450.143 6.88024 450.15 6.88437 450.897 6.91767C451.085 6.92617 451.284 6.91875 451.523 6.90501C451.728 6.89308 451.943 6.89995 452.093 6.92081C452.237 6.94445 452.226 6.96209 452.242 6.97638ZM391.738 0.882664C391.52 0.893247 391.301 0.904694 390.97 0.838705C390.948 0.826326 390.959 0.810407 390.91 0.800514C390.8 0.780244 390.631 0.768589 390.431 0.771696C390.072 0.778496 389.644 0.820188 389.655 0.842443C389.664 0.861245 389.78 0.874415 390.002 0.883688C390.096 0.887073 390.171 0.895342 390.258 0.89978C390.514 0.91242 390.72 0.945577 391.082 0.915278C391.007 0.863654 391.045 0.889467 391.082 0.915278C391.055 0.949032 391.158 0.969493 391.399 0.972153C391.466 0.972844 391.565 0.968263 391.618 0.961565C391.821 0.936686 391.85 0.909847 391.686 0.846017C391.661 0.857999 391.684 0.877276 391.745 0.880746C391.805 0.884217 391.951 0.87573 392.023 0.867598C392.207 0.84588 392.296 0.821636 392.247 0.804837C392.219 0.7961 392.09 0.787624 392.011 0.789902C391.871 0.79389 391.748 0.816487 391.738 0.882664ZM447.117 9.35853C446.634 9.38879 446.075 9.3987 445.595 9.44623C445.509 9.45474 445.425 9.47275 445.421 9.48502C445.415 9.49298 445.55 9.50041 445.631 9.50417C445.813 9.51286 446.011 9.50284 446.243 9.49188C446.595 9.47577 446.807 9.5096 447.083 9.52167C447.171 9.52524 447.284 9.52633 447.377 9.52194C447.914 9.4962 448.444 9.4698 448.98 9.44234C449.073 9.43709 449.172 9.42819 449.251 9.41814C449.512 9.38551 449.483 9.36987 449.221 9.35829C448.932 9.34573 448.7 9.31765 448.405 9.3096C447.982 9.29826 447.562 9.34149 447.117 9.35853ZM409.462 11.0671C409.137 11.0833 408.819 11.0993 408.494 11.1155C408.388 11.1211 408.275 11.1252 408.176 11.1315C407.971 11.1435 407.821 11.1659 407.726 11.1973C407.882 11.2154 408.071 11.223 408.276 11.2145C408.601 11.2 408.919 11.1797 409.244 11.1678C409.596 11.1543 409.808 11.1872 410.084 11.1993C410.171 11.2029 410.278 11.2007 410.378 11.1987C410.87 11.1881 411.162 11.1347 411.059 11.0743C410.985 11.027 410.727 11.0049 410.422 11.0197C410.104 11.0348 409.78 11.051 409.462 11.0671ZM449.184 8.01768C449.262 8.00073 449.347 7.9879 449.384 7.97382C449.497 7.92637 449.445 7.8949 449.22 7.86663C448.947 7.83193 448.626 7.86972 448.328 7.88258C448.255 7.88553 448.178 7.90594 448.14 7.9183C448.114 7.92683 448.117 7.94324 448.158 7.94641C448.489 7.97164 448.84 7.9937 449.184 8.01768ZM391.096 7.11485C390.778 7.13087 390.453 7.14535 390.136 7.16396C390.056 7.16883 389.986 7.18732 389.941 7.19987C389.858 7.22306 389.955 7.24889 390.228 7.24369C390.542 7.23822 390.865 7.21424 391.19 7.19803C391.6 7.17763 391.841 7.13866 391.684 7.1154C391.533 7.09282 391.333 7.09334 391.096 7.11485ZM40.8244 15.2653C41.0364 15.2549 41.2553 15.2452 41.467 15.2331C41.6655 15.2214 41.8155 15.198 41.9106 15.1667C41.7408 15.149 41.5526 15.1422 41.3469 15.1507C41.022 15.1652 40.704 15.1812 40.3863 15.1989C40.1876 15.2098 39.998 15.2343 39.9562 15.265C39.9132 15.2887 40.3607 15.289 40.8244 15.2653ZM362.66 5.94013C362.747 5.94543 362.836 5.9585 362.923 5.95603C363.135 5.94996 363.354 5.9385 363.552 5.92417C363.638 5.91825 363.702 5.90082 363.74 5.8876C363.765 5.87907 363.756 5.86545 363.715 5.85968C363.516 5.82375 362.747 5.86045 362.628 5.91154C362.616 5.92055 362.651 5.93082 362.66 5.94013ZM340.919 1.81198C340.941 1.82522 340.95 1.83884 340.979 1.85189C341.037 1.87627 341.186 1.89109 341.401 1.89797C341.563 1.87164 341.646 1.845 341.635 1.81929C341.626 1.80567 341.604 1.79242 341.575 1.77937C341.518 1.75499 341.369 1.74018 341.154 1.7333C340.991 1.75877 340.915 1.78522 340.919 1.81198ZM464.882 9.63516C464.824 9.64809 464.765 9.66103 464.701 9.67329C464.884 9.69319 465.052 9.69621 465.176 9.67879C465.254 9.66788 465.299 9.6536 465.357 9.64067C465.173 9.62076 465.012 9.61842 464.882 9.63516ZM460.765 9.87067C460.853 9.87597 460.934 9.88405 461.028 9.88657C461.183 9.89084 461.32 9.87217 461.421 9.83806C461.333 9.83276 461.252 9.82467 461.158 9.82215C461.004 9.81789 460.867 9.83656 460.765 9.87067ZM463.359 9.63789C463.316 9.65993 463.412 9.67454 463.66 9.68219C463.718 9.66926 463.796 9.65662 463.834 9.64339C463.898 9.62164 463.782 9.60674 463.54 9.59977C463.475 9.61202 463.417 9.62496 463.359 9.63789ZM449.174 9.10813C449.13 9.13018 449.226 9.14478 449.475 9.15243C449.533 9.1395 449.611 9.12686 449.649 9.11364C449.712 9.09188 449.596 9.07698 449.355 9.07C449.29 9.08226 449.232 9.0952 449.174 9.10813ZM429.065 3.54578C429.007 3.55871 428.949 3.57164 428.884 3.5839C429.068 3.60381 429.235 3.60683 429.359 3.58941C429.438 3.5785 429.482 3.56422 429.54 3.55129C429.357 3.53138 429.196 3.52903 429.065 3.54578ZM410.224 0.828217C410.385 0.829703 410.516 0.813822 410.624 0.778653C410.536 0.773353 410.455 0.765273 410.361 0.762752C410.206 0.758486 410.069 0.777152 409.968 0.811266C410.056 0.817431 410.143 0.822726 410.224 0.828217ZM400.465 0.903149C400.407 0.91608 400.349 0.929013 400.284 0.941271C400.468 0.961179 400.635 0.964199 400.759 0.946779C400.837 0.935868 400.882 0.921589 400.94 0.908657C400.756 0.88875 400.596 0.887266 400.465 0.903149ZM334.377 1.99796C334.319 2.01089 334.261 2.02382 334.196 2.03608C334.38 2.05599 334.547 2.05901 334.671 2.04159C334.75 2.03068 334.794 2.0164 334.852 2.00347C334.669 1.98356 334.508 1.98207 334.377 1.99796ZM7.08011 18.4015C6.99242 18.3962 6.90481 18.3909 6.82363 18.3846C6.63459 18.4134 6.57826 18.4367 6.68729 18.45C6.75545 18.4585 6.85608 18.4617 6.94376 18.467C7.13945 18.438 7.18262 18.4159 7.08011 18.4015Z" fill="#FFE492"/>
</svg>
