<svg width="37" height="30" viewBox="0 0 37 30" fill="none" xmlns="http://www.w3.org/2000/svg">
<g id="Logo Icon" clip-path="url(#clip0_9_2762)">
<g id="Group">
<g id="Group_2">
<path id="Vector" d="M0 3.34181V10.0948C0 12.1515 2.50611 13.2484 4.03763 11.8087L11.3471 5.05576C12.9483 3.58176 11.904 0.976562 9.71119 0.976562H2.40169C1.07902 0.976562 0 2.03921 0 3.34181Z" fill="white"/>
<path id="Vector_2" d="M34.5983 0.976562H27.2888C25.1308 0.976562 24.0517 3.58176 25.6529 5.05576L32.9624 11.8087C34.4939 13.2142 37 12.1515 37 10.0948V3.34181C37 2.03921 35.921 0.976562 34.5983 0.976562Z" fill="white"/>
</g>
<path id="Vector_3" d="M20.1533 17.4649L32.9624 29.3255C34.4939 30.7309 37 29.6682 37 27.6115V20.79C37 20.1387 36.7215 19.5217 36.2342 19.0761L20.1533 4.1647C19.2135 3.30773 17.7865 3.30773 16.8467 4.1647L0.765757 19.0761C0.278457 19.5217 0 20.1387 0 20.79V27.6115C0 29.6682 2.50611 30.7652 4.03763 29.3255L16.8467 17.4649C17.7865 16.608 19.2135 16.608 20.1533 17.4649Z" fill="white"/>
</g>
</g>
<defs>
<clipPath id="clip0_9_2762">
<rect width="37" height="29" fill="white" transform="translate(0 0.976562)"/>
</clipPath>
</defs>
</svg>
