<svg width="258" height="48" viewBox="0 0 258 48" fill="none" xmlns="http://www.w3.org/2000/svg">
<path d="M241.322 25.2575C240.97 25.2973 240.615 25.3248 240.27 25.3846C240.046 25.422 239.95 25.3123 239.801 25.255C239.751 25.235 239.698 25.1951 239.652 25.2001C239.304 25.24 238.955 25.2849 238.607 25.3298C238.501 25.427 238.433 25.5566 238.27 25.604C238.11 25.6489 237.921 25.6489 237.744 25.6713C237.509 25.6987 237.275 25.7262 237.04 25.7511C236.923 25.7636 236.827 25.8109 236.788 25.9007C236.781 25.9156 236.859 25.953 236.902 25.9755C237.044 26.0503 237.182 26.135 237.339 26.1924C237.488 26.2472 237.673 26.1575 237.833 26.2273C238.192 26.3843 238.195 26.3818 238.469 26.3519C238.703 26.3245 238.938 26.2946 239.172 26.2747C239.218 26.2697 239.272 26.3071 239.321 26.327C239.471 26.3818 239.567 26.5065 239.787 26.4591C239.954 26.4217 240.139 26.4143 240.313 26.3943C240.459 26.4666 240.594 26.5489 240.75 26.6062C240.896 26.6611 240.938 26.7035 240.86 26.7758C240.789 26.8431 240.69 26.8705 240.558 26.8755C240.441 26.878 240.324 26.9004 240.206 26.9129C240.146 26.9203 240.089 26.9254 240.032 26.9328C239.808 26.9603 239.808 26.9603 239.4 26.8007C239.24 26.7384 239.059 26.8256 238.906 26.7658C238.803 26.7259 238.714 26.6661 238.614 26.6237C238.572 26.6062 238.504 26.6037 238.451 26.6087C238.273 26.6262 238.096 26.6386 237.925 26.671C237.804 26.6935 237.733 26.7633 237.747 26.8331C237.751 26.8605 237.836 26.9004 237.886 26.9029C238 26.9079 238.12 26.873 238.231 26.8904C238.337 26.9079 238.447 26.9578 238.526 27.0126C238.685 27.1273 238.867 27.0251 239.019 27.055C239.179 27.0874 239.311 27.1871 239.464 27.247C239.503 27.2619 239.577 27.237 239.638 27.2295C239.812 27.212 239.986 27.1971 240.16 27.1796C240.306 27.2519 240.462 27.3168 240.594 27.399C240.832 27.5486 241.088 27.6059 241.397 27.5336C241.571 27.4938 241.741 27.5087 241.88 27.606C242.022 27.7057 242.186 27.6957 242.367 27.6758C242.534 27.6558 242.704 27.601 242.875 27.6708C243.245 27.8254 243.248 27.8328 243.685 27.773C243.817 27.7556 243.916 27.7506 244.016 27.8079C244.108 27.8603 244.207 27.9051 244.303 27.955C244.478 27.9375 244.655 27.9201 244.829 27.9002C245.053 27.8727 245.178 27.9076 245.231 28.0472C245.263 28.132 245.277 28.2093 245.355 28.2666C245.448 28.3364 245.547 28.3339 245.682 28.314C245.81 28.2965 245.902 28.2691 245.956 28.1794C245.977 28.142 246.02 28.1071 246.059 28.0772C246.091 28.0547 246.141 28.0198 246.169 28.0248C246.222 28.0348 246.293 28.0622 246.311 28.0946C246.485 28.3963 246.485 28.3988 246.663 28.486C246.858 28.5833 247.061 28.6705 247.239 28.7802C247.398 28.8774 247.558 28.8351 247.732 28.8351C247.864 28.8351 247.949 28.8999 247.939 28.9647C247.932 29.0021 247.882 29.0569 247.839 29.0619C247.491 29.1118 247.139 29.1542 246.787 29.1891C246.745 29.1941 246.691 29.1492 246.642 29.1267C246.542 29.0819 246.453 29.0121 246.347 28.9971C246.24 28.9821 246.116 29.0195 245.998 29.032C245.881 29.0445 245.757 29.0769 245.65 29.057C245.544 29.037 245.458 28.9647 245.359 28.9173C245.313 28.8949 245.249 28.8625 245.21 28.87C244.95 28.9298 244.758 28.8475 244.574 28.7378C244.534 28.7154 244.467 28.7004 244.417 28.7054C244.005 28.7478 243.596 28.7976 243.184 28.845C243.017 28.865 242.882 28.7777 242.846 28.6306C242.829 28.5483 242.793 28.4661 242.793 28.3838C242.793 28.2342 242.598 28.1519 242.456 28.1694C242.221 28.1943 241.983 28.2143 241.752 28.2517C241.564 28.2816 241.404 28.2517 241.276 28.1619C241.127 28.0597 240.956 28.0796 240.786 28.1071C240.658 28.127 240.622 28.2093 240.629 28.4162C240.636 28.5833 240.576 28.6356 240.345 28.663C240.053 28.6979 239.759 28.7328 239.464 28.7603C239.417 28.7652 239.364 28.7229 239.318 28.7004C239.218 28.6556 239.13 28.5832 239.023 28.5683C238.916 28.5508 238.792 28.5882 238.675 28.6032C238.557 28.6157 238.433 28.6506 238.327 28.6331C238.22 28.6157 238.131 28.5409 238.035 28.4935C237.989 28.4711 237.932 28.4386 237.886 28.4436C237.651 28.4636 237.417 28.4935 237.182 28.5209C236.919 28.5508 236.919 28.5508 236.546 28.3963C236.376 28.3265 236.205 28.3813 236.038 28.4013C235.86 28.4212 235.693 28.4312 235.555 28.3315C235.462 28.2666 235.359 28.2267 235.249 28.2392C234.954 28.2691 234.663 28.3065 234.368 28.3364C234.318 28.3414 234.251 28.329 234.212 28.3065C234.023 28.2018 233.839 28.1195 233.576 28.1719C233.348 28.2168 233.103 28.2193 232.876 28.2616C232.751 28.2841 232.694 28.3639 232.719 28.4262C232.733 28.4586 232.808 28.496 232.858 28.496C232.971 28.4985 233.096 28.4611 233.202 28.476C233.423 28.506 233.533 28.7154 233.821 28.658C233.991 28.6231 234.169 28.6107 234.347 28.6007C234.393 28.5982 234.443 28.6456 234.492 28.6705C234.634 28.7378 234.759 28.8251 234.965 28.7802C235.136 28.7453 235.317 28.7353 235.491 28.7154C235.768 28.683 235.768 28.6855 236.127 28.8376C236.298 28.9099 236.468 28.8525 236.635 28.8351C236.759 28.8226 236.877 28.7977 236.976 28.8326C237.129 28.8849 237.239 29.0046 237.427 28.9971C237.605 28.9896 237.779 28.9547 237.957 28.9423C238.067 28.9348 238.17 28.9747 238.259 29.042C238.351 29.1093 238.451 29.1392 238.572 29.1242C238.746 29.1043 238.923 29.0794 239.101 29.0669C239.151 29.0644 239.208 29.0869 239.254 29.1068C239.353 29.1517 239.449 29.204 239.545 29.2514C239.719 29.2364 239.897 29.2315 240.068 29.2015C240.199 29.1791 240.292 29.1891 240.398 29.2389C240.533 29.3063 240.643 29.4259 240.864 29.3686C240.974 29.3412 241.102 29.3486 241.212 29.3237C241.347 29.2913 241.439 29.3037 241.535 29.3785C241.717 29.5206 241.944 29.5231 242.178 29.4683C242.434 29.4085 242.626 29.4783 242.818 29.588C243.021 29.7027 243.021 29.7002 243.177 29.9769C243.223 30.0567 243.355 30.0941 243.465 30.0791C243.65 30.0542 243.81 30.0666 243.945 30.1614C244.087 30.2636 244.257 30.2511 244.431 30.2237C244.662 30.1863 244.893 30.1539 245.082 30.2985C245.174 30.3683 245.274 30.3857 245.398 30.3683C245.75 30.3234 246.105 30.296 246.45 30.2412C246.659 30.2063 246.78 30.286 246.922 30.3534C247.114 30.4456 247.324 30.5279 247.324 30.7248C247.324 30.7572 247.374 30.7946 247.416 30.8196C247.509 30.8719 247.608 30.9168 247.704 30.9666C247.846 31.0414 247.985 31.1038 248.18 31.0639C248.351 31.0315 248.532 31.0215 248.706 30.9991C248.88 30.9766 249.04 30.9641 249.197 31.0589C249.378 31.1661 249.57 31.2683 249.776 31.3481C249.921 31.4054 250.113 31.3082 250.27 31.3855C250.366 31.4329 250.458 31.4877 250.561 31.5276C250.604 31.545 250.671 31.5326 250.728 31.5276C250.845 31.5176 250.966 31.5102 251.08 31.4852C251.211 31.4578 251.311 31.4628 251.41 31.5201C251.503 31.5725 251.595 31.6448 251.702 31.6597C251.862 31.6822 252.039 31.5824 252.199 31.6971C252.281 31.7545 252.384 31.8093 252.491 31.8268C252.597 31.8442 252.722 31.8068 252.835 31.8093C252.885 31.8093 252.945 31.8492 252.974 31.8816C252.992 31.8991 252.967 31.9464 252.942 31.9714C252.91 32.0013 252.864 32.0412 252.817 32.0462C252.466 32.091 252.114 32.1284 251.762 32.1708C251.552 32.1958 251.552 32.1958 251.13 32.0387C251.03 32.0013 250.92 32.0088 250.796 32.0262C250.629 32.0486 250.458 32.091 250.284 32.0462C250.057 31.8766 249.776 31.8617 249.477 31.9265C249.353 31.9539 249.239 31.9539 249.147 31.9065C248.951 31.8118 248.745 31.7246 248.571 31.6124C248.436 31.5251 248.372 31.5176 248.315 31.6373C248.298 31.6747 248.28 31.7146 248.283 31.7495C248.305 31.8741 248.344 31.9963 248.365 32.1209C248.372 32.1558 248.344 32.1958 248.326 32.2332C248.269 32.3379 248.195 32.3304 248.07 32.2431C247.946 32.1558 247.796 32.0985 247.597 32.1384C247.427 32.1733 247.242 32.1683 247.072 32.2057C246.809 32.2606 246.624 32.1808 246.436 32.0736C246.396 32.0512 246.329 32.0387 246.279 32.0437C245.75 32.101 245.224 32.1658 244.694 32.2232C244.581 32.2356 244.478 32.1982 244.389 32.1309C244.296 32.0636 244.193 32.0287 244.08 32.0412C243.61 32.0935 243.141 32.1409 242.672 32.2057C242.48 32.2332 242.328 32.2007 242.196 32.1135C242.097 32.0486 242.004 32.0287 241.88 32.0362C241.745 32.0437 241.649 32.0686 241.582 32.1409C241.518 32.2107 241.564 32.2531 241.706 32.3079C241.859 32.3678 242.001 32.4451 242.146 32.5149C242.264 32.5049 242.381 32.4849 242.495 32.4874C242.544 32.4874 242.591 32.5323 242.64 32.5572C242.783 32.6295 242.914 32.7018 243.117 32.662C243.287 32.6271 243.468 32.6196 243.642 32.5971C243.884 32.5697 243.884 32.5697 244.275 32.7268C244.374 32.7667 244.481 32.7642 244.609 32.7417C244.719 32.7243 244.833 32.7592 244.911 32.834C244.943 32.8639 244.932 32.9138 244.865 33.0783C244.865 33.2005 244.939 33.1456 244.964 33.0658C245.003 32.9512 244.929 32.9138 244.787 32.9761C244.687 33.021 244.637 33.0858 244.662 33.1381C244.677 33.1656 244.744 33.2005 244.865 33.0783C245.178 32.9287 245.416 32.9113 245.643 32.8714C245.778 32.8489 245.863 32.8589 245.97 32.9237C246.098 33.001 246.226 33.0833 246.436 33.0434C246.663 32.9985 246.905 32.9935 247.136 32.9561C247.349 32.9212 247.459 33.0309 247.594 33.0958C247.757 33.173 247.939 33.0858 248.088 33.1307C248.244 33.1755 248.354 33.2852 248.536 33.3052C248.799 33.2379 248.966 33.3625 249.165 33.4448C249.321 33.5071 249.506 33.4523 249.673 33.4248C249.861 33.3949 250.017 33.4224 250.149 33.5121C250.298 33.6143 250.465 33.5919 250.636 33.5694C251.034 33.5196 251.048 33.5121 251.279 33.6492C251.446 33.7489 251.606 33.7041 251.773 33.6916C251.918 33.7589 252.061 33.8312 252.213 33.891C252.253 33.906 252.327 33.8811 252.388 33.8736C252.562 33.8537 252.739 33.8337 252.913 33.8138C253.031 33.8013 253.155 33.7639 253.262 33.7789C253.368 33.7963 253.457 33.8686 253.553 33.916C253.649 33.9634 253.749 34.0107 253.841 34.0606C253.983 34.1354 254.118 34.1977 254.317 34.1603C254.488 34.1279 254.665 34.1179 254.843 34.0955C255.067 34.0681 255.06 34.0755 255.475 34.2251C255.699 34.3074 255.93 34.2077 256.158 34.1977C256.271 34.1927 256.382 34.2201 256.46 34.2924C256.492 34.3224 256.481 34.3722 256.492 34.4146C255.905 34.4819 255.316 34.5393 254.736 34.6215C254.512 34.6539 254.395 34.5642 254.274 34.4894C254.075 34.3697 253.812 34.5442 253.624 34.3897C253.51 34.2974 253.347 34.2451 253.152 34.29C253.038 34.3149 252.917 34.3124 252.8 34.3348C252.501 34.3897 252.228 34.3922 251.99 34.2201C251.908 34.1603 251.791 34.1279 251.705 34.0706C251.606 34.0082 251.51 33.9733 251.393 33.9858C250.863 34.0456 250.337 34.1054 249.811 34.1703C249.765 34.1752 249.719 34.2127 249.68 34.2401C249.58 34.3099 249.612 34.3647 249.772 34.4096C249.825 34.4246 249.868 34.457 249.918 34.4819C250.014 34.5293 250.103 34.6041 250.209 34.6215C250.316 34.639 250.44 34.6041 250.558 34.5916C250.675 34.5791 250.799 34.5417 250.906 34.5567C251.012 34.5742 251.101 34.6465 251.201 34.6913C251.247 34.7138 251.304 34.7512 251.35 34.7487C251.584 34.7337 251.815 34.7063 252.05 34.6839C252.196 34.7512 252.32 34.8484 252.494 34.8708C252.604 34.8858 252.722 34.8584 252.835 34.8633C252.885 34.8658 252.949 34.9032 252.974 34.9357C252.988 34.9556 252.942 35.0055 252.906 35.0304C252.771 35.1251 252.587 35.1077 252.42 35.1376C252.238 35.17 252.075 35.16 251.936 35.0628C251.844 34.998 251.741 34.9631 251.627 34.9756C251.332 35.008 251.041 35.0454 250.746 35.0728C250.696 35.0778 250.636 35.0553 250.589 35.0379C250.216 34.8858 250.216 34.8808 249.953 34.9132C249.566 34.9606 249.566 34.9606 249.307 34.8284C249.257 34.8035 249.204 34.7562 249.161 34.7587C248.749 34.7985 248.34 34.8384 247.932 34.8958C247.796 34.9132 247.704 34.9132 247.605 34.8484C247.519 34.7936 247.42 34.7312 247.313 34.7163C247.203 34.7013 247.082 34.7387 246.965 34.7512C246.848 34.7636 246.723 34.796 246.62 34.7761C246.514 34.7562 246.421 34.6864 246.329 34.6365C246.233 34.5841 246.13 34.5866 245.998 34.6066C245.593 34.6639 245.59 34.6564 245.188 34.5019C245.142 34.4844 245.082 34.4645 245.032 34.4695C244.737 34.4994 244.446 34.5368 244.151 34.5667C244.037 34.5792 243.927 34.5467 243.849 34.4744C243.817 34.4445 243.827 34.3946 243.806 34.2974C243.781 34.275 243.809 34.3149 243.817 34.3523C243.87 34.3473 243.934 34.3523 243.973 34.3323C244.072 34.285 244.122 34.2226 244.097 34.1703C244.083 34.1428 244.016 34.1079 243.973 34.1079C243.895 34.1079 243.827 34.1628 243.806 34.2974C243.582 34.3797 243.344 34.3972 243.113 34.437C242.978 34.462 242.893 34.4495 242.786 34.3847C242.658 34.3049 242.527 34.2276 242.317 34.2675C242.09 34.3124 241.848 34.3199 241.613 34.3548C241.343 34.3947 241.226 34.1703 240.999 34.1753C240.764 34.1802 240.53 34.2226 240.295 34.2526C240.089 34.2775 240.089 34.2775 239.663 34.1154C239.506 34.0556 239.322 34.1428 239.169 34.0805C239.066 34.0406 238.977 33.9808 238.877 33.9384C238.835 33.921 238.767 33.921 238.714 33.9259C238.419 33.9559 238.12 33.9758 237.836 34.0307C237.513 34.0955 237.268 34.0257 237.037 33.8786C236.745 33.906 236.45 33.921 236.163 33.9683C235.953 34.0032 235.832 33.921 235.69 33.8537C235.64 33.8312 235.598 33.7938 235.544 33.7839C235.491 33.7739 235.427 33.7938 235.37 33.8013C235.135 33.8287 234.894 33.8412 234.666 33.8861C234.386 33.9434 234.279 33.739 234.062 33.714C233.917 33.8362 233.839 34.0032 233.551 34.0157C233.316 34.0257 233.082 34.0656 232.847 34.093C232.73 34.1055 232.613 34.1204 232.495 34.1329C232.307 34.1553 232.218 34.2525 232.257 34.4021C232.279 34.4844 232.296 34.5667 232.314 34.6489C232.35 34.796 232.261 34.9207 232.112 34.9382C231.699 34.9855 231.291 35.0354 230.878 35.0778C230.768 35.0902 230.662 35.0478 230.573 34.9805C230.48 34.9132 230.377 34.8833 230.264 34.8958C229.852 34.9431 229.443 34.993 229.031 35.0354C228.985 35.0404 228.924 35.0154 228.878 34.9955C228.778 34.9506 228.682 34.8983 228.587 34.8509C228.352 34.8733 228.121 34.8883 227.89 34.9182C227.517 34.9631 227.517 34.9656 227.243 34.8284C227.194 34.8035 227.144 34.7562 227.098 34.7587C226.92 34.7686 226.746 34.7936 226.568 34.816C226.046 34.8808 226.046 34.8808 225.893 34.806C225.754 34.7362 225.63 34.6515 225.42 34.6913C225.193 34.7362 224.951 34.7512 224.717 34.7761C224.543 34.7935 224.369 34.8135 224.194 34.8185C224.148 34.821 224.099 34.7736 224.049 34.7487C223.907 34.6714 223.768 34.6091 223.573 34.6514C223.459 34.6764 223.338 34.6814 223.221 34.6938C222.915 34.7287 222.915 34.7287 222.414 34.5791C222.364 34.5642 222.304 34.5467 222.254 34.5542C221.842 34.5991 221.433 34.649 221.021 34.6913C220.971 34.6963 220.911 34.6813 220.861 34.6689C220.3 34.5243 220.3 34.5243 219.703 34.5941C219.475 34.619 219.468 34.629 219.23 34.4969C219.124 34.4395 219.035 34.4121 218.91 34.4296C218.441 34.4894 217.969 34.5293 217.503 34.5991C217.294 34.629 217.173 34.5542 217.031 34.4869C216.981 34.4645 216.928 34.4146 216.885 34.4171C216.416 34.4645 215.947 34.5218 215.478 34.5692C215.435 34.5742 215.382 34.5243 215.332 34.5019C215.236 34.457 215.144 34.3897 215.037 34.3747C214.927 34.3598 214.806 34.3972 214.685 34.4096C214.39 34.442 214.39 34.4395 214.049 34.2924C214.003 34.2725 213.943 34.2451 213.897 34.2501C213.427 34.2999 212.955 34.3423 212.489 34.4146C212.223 34.4545 212.042 34.3822 211.853 34.2775C211.814 34.255 211.747 34.2451 211.697 34.2501C211.167 34.3074 210.642 34.3722 210.112 34.4296C210.002 34.442 209.895 34.3996 209.806 34.3348C209.664 34.2326 209.497 34.2451 209.32 34.2675C208.911 34.3199 208.907 34.3174 208.666 34.1977C208.616 34.1728 208.573 34.1404 208.52 34.1279C208.47 34.1154 208.406 34.1229 208.353 34.1279C208.119 34.1528 207.884 34.1802 207.65 34.2077C207.415 34.2351 207.177 34.2501 206.946 34.2924C206.662 34.3448 206.527 34.1827 206.328 34.1079C206.036 34.1403 205.738 34.1603 205.45 34.2127C205.23 34.2525 205.127 34.1428 204.981 34.0855C204.931 34.0656 204.878 34.0232 204.832 34.0282C204.302 34.083 203.773 34.1428 203.247 34.2102C203.119 34.2251 203.034 34.2052 202.927 34.1453C202.689 34.0107 202.678 34.0157 202.28 34.0656C202.106 34.088 201.939 34.108 201.79 34.0057C201.658 33.9135 201.499 33.891 201.31 33.921C201.079 33.9583 200.841 33.9783 200.607 34.0032C200.372 34.0307 200.138 34.068 199.903 34.0805C199.715 34.093 199.601 33.9758 199.452 33.916C199.406 33.8985 199.342 33.896 199.288 33.901C199.054 33.9235 198.812 33.9409 198.585 33.9833C198.308 34.0356 198.155 33.8985 197.959 33.8188C197.917 33.8013 197.846 33.8113 197.792 33.8188C197.38 33.8636 196.971 33.9135 196.559 33.9608C196.414 33.8935 196.264 33.8287 196.119 33.7614C195.884 33.7864 195.65 33.8138 195.415 33.8387C195.237 33.8586 195.056 33.8661 194.889 33.9035C194.672 33.9534 194.566 33.8362 194.42 33.7789C194.37 33.7589 194.317 33.7165 194.271 33.7215C193.976 33.7489 193.681 33.7789 193.39 33.8213C193.112 33.8636 193.002 33.6392 192.775 33.6417C192.54 33.6442 192.299 33.6766 192.071 33.7215C191.808 33.7739 191.623 33.6941 191.435 33.5869C191.396 33.5644 191.329 33.552 191.279 33.557C190.984 33.5869 190.693 33.6243 190.398 33.6542C190.348 33.6592 190.287 33.6467 190.238 33.6318C189.676 33.4847 189.676 33.4822 189.431 33.5121C189.257 33.5321 189.079 33.557 188.902 33.5694C188.852 33.5744 188.791 33.552 188.745 33.532C188.376 33.38 188.376 33.3775 188.109 33.4074C187.875 33.4348 187.64 33.4622 187.406 33.4897C187.26 33.4223 187.111 33.3575 186.965 33.2902C186.674 33.3226 186.375 33.3475 186.087 33.3924C185.952 33.4124 185.863 33.4049 185.76 33.3426C185.632 33.2678 185.504 33.1805 185.291 33.2229C185.064 33.2678 184.822 33.2728 184.591 33.3102C184.314 33.355 184.2 33.1282 183.976 33.1307C183.742 33.1332 183.5 33.1656 183.273 33.2104C183.01 33.2628 182.825 33.183 182.637 33.0758C182.598 33.0534 182.53 33.0409 182.48 33.0459C181.834 33.1182 181.191 33.1905 180.544 33.2678C180.146 33.3151 180.146 33.3176 179.389 33.1805C179.336 33.1705 179.279 33.1606 179.225 33.1656C178.991 33.188 178.749 33.2054 178.522 33.2478C178.245 33.3002 178.092 33.1656 177.896 33.0833C177.854 33.0658 177.786 33.0758 177.729 33.0808C177.552 33.0982 177.378 33.1207 177.2 33.1406C176.965 33.1681 176.731 33.1955 176.496 33.2229C176.351 33.1581 176.201 33.0908 176.056 33.0259C175.764 33.0583 175.466 33.0758 175.178 33.1282C174.958 33.1681 174.855 33.0633 174.709 33.0035C174.659 32.9836 174.606 32.9412 174.56 32.9437C174.03 32.9985 173.501 33.0559 172.975 33.1257C172.758 33.1556 172.659 33.0434 172.513 32.986C172.463 32.9686 172.406 32.9362 172.36 32.9412C172.008 32.9761 171.657 33.0185 171.305 33.0608C171.106 33.0858 171.106 33.0858 170.672 32.9312C170.623 32.9137 170.566 32.8963 170.516 32.9013C169.4 33.0259 168.288 33.1581 167.172 33.2827C167.058 33.2952 166.955 33.2578 166.867 33.1905C166.774 33.1232 166.671 33.0883 166.557 33.1007C166.088 33.1531 165.616 33.2005 165.15 33.2653C164.958 33.2927 164.806 33.2603 164.674 33.173C164.575 33.1082 164.482 33.0833 164.358 33.0983C164.123 33.1282 163.889 33.1531 163.654 33.1805C163.42 33.2079 163.185 33.2354 162.951 33.2628C162.716 33.2902 162.478 33.3052 162.247 33.3476C161.963 33.3999 161.824 33.2453 161.629 33.1681C161.277 33.2055 160.925 33.2428 160.577 33.2827C160.108 33.3351 159.639 33.3924 159.17 33.4423C159.127 33.4473 159.074 33.4024 159.024 33.38C158.878 33.3176 158.772 33.2304 158.555 33.2578C157.503 33.3899 156.444 33.5021 155.389 33.6318C155.169 33.6592 155.073 33.552 154.923 33.4946C154.874 33.4772 154.817 33.4423 154.771 33.4473C154.184 33.5096 153.598 33.5794 153.012 33.6467C152.774 33.6741 152.774 33.6741 152.376 33.5196C152.329 33.5021 152.269 33.4797 152.219 33.4847C151.455 33.5694 150.695 33.6592 149.931 33.7464C149.817 33.7589 149.714 33.724 149.622 33.6567C149.533 33.5894 149.426 33.552 149.316 33.5645C148.612 33.6442 147.905 33.7215 147.205 33.8088C147.017 33.8337 146.861 33.8113 146.726 33.7215C146.63 33.6567 146.534 33.6293 146.413 33.6442C145.358 33.7664 144.302 33.8836 143.247 34.0132C143.044 34.0382 142.902 33.9908 142.774 33.9085C142.671 33.8437 142.582 33.8312 142.454 33.8412C142.319 33.8537 142.238 33.8811 142.163 33.9559C142.067 34.0531 142.007 34.1753 141.779 34.1827C141.545 34.1902 141.307 34.2202 141.076 34.2625C140.855 34.3049 140.752 34.1927 140.614 34.1254C140.511 34.078 140.415 34.0706 140.283 34.093C140.162 34.1129 140.088 34.1553 140.017 34.2351C139.86 34.4046 139.846 34.4046 139.654 34.2974C139.551 34.2401 139.459 34.1952 139.345 34.2052C138.876 34.255 138.407 34.3099 137.938 34.3672C137.668 34.3996 137.664 34.4046 137.462 34.28C137.362 34.2176 137.266 34.1877 137.149 34.2027C135.859 34.3523 134.569 34.4969 133.279 34.6539C133.08 34.6789 132.945 34.6265 132.803 34.5517C132.757 34.5268 132.711 34.4919 132.658 34.4819C132.604 34.4719 132.544 34.4819 132.487 34.4869C131.549 34.5941 130.607 34.6963 129.673 34.816C129.459 34.8434 129.346 34.7636 129.2 34.6988C129.15 34.6764 129.108 34.6415 129.054 34.6315C129.001 34.624 128.937 34.6415 128.88 34.6489C127.942 34.7561 127 34.8584 126.066 34.9781C125.842 35.0055 125.746 34.9008 125.6 34.8459C125.551 34.826 125.497 34.7885 125.451 34.7935C125.156 34.821 124.865 34.8584 124.57 34.8908C123.866 34.973 123.163 35.0504 122.459 35.1351C122.189 35.1675 122.072 34.9456 121.844 34.9556C121.549 34.9681 121.258 35.0179 120.963 35.0528C120.729 35.0802 120.494 35.1052 120.259 35.1351C120.029 35.1625 120.028 35.1625 119.453 35.0179C119.403 35.0055 119.343 34.988 119.293 34.993C118.472 35.0852 117.648 35.1775 116.83 35.2772C116.642 35.2996 116.486 35.2872 116.351 35.195C116.255 35.1301 116.155 35.0977 116.038 35.1127C114.805 35.2548 113.575 35.3969 112.342 35.5365C112.296 35.5415 112.236 35.5165 112.19 35.4966C112.09 35.4517 111.994 35.3994 111.898 35.352C111.827 35.4094 111.735 35.4617 111.689 35.5265C111.625 35.6138 111.539 35.6387 111.404 35.6537C111.269 35.6686 111.184 35.6637 111.077 35.5988C110.949 35.5191 110.818 35.4567 110.608 35.4816C109.318 35.6387 108.028 35.7808 106.739 35.9354C106.525 35.9603 106.426 35.8506 106.277 35.7933C106.227 35.7758 106.17 35.7484 106.124 35.7534C105.594 35.8107 105.068 35.8731 104.539 35.9329C103.071 36.1024 101.604 36.2645 100.14 36.444C99.8734 36.4764 99.6921 36.4141 99.5038 36.3069C99.4647 36.2844 99.3972 36.272 99.3475 36.2769C97.2936 36.5113 95.2396 36.7481 93.1893 36.985C93.0791 36.9974 92.9725 36.9576 92.8837 36.8927C92.7913 36.8254 92.6883 36.793 92.5746 36.8055C91.6364 36.9127 90.6984 37.0199 89.7603 37.1296C89.5257 37.157 89.5221 37.1595 89.2805 37.0398C89.2308 37.0149 89.1775 36.9675 89.1384 36.9725C89.0567 36.985 88.9785 37.0473 88.9216 37.1321C88.8647 37.2218 88.7759 37.2467 88.6444 37.2642C88.5094 37.2817 88.4206 37.2742 88.3175 37.2144C88.1861 37.1396 88.0652 37.0673 87.852 37.0922C85.1549 37.4113 82.4579 37.7179 79.7608 38.0346C79.544 38.0595 79.4445 37.9548 79.2953 37.8975C79.2455 37.88 79.1958 37.8551 79.1425 37.8501C79.0856 37.8451 79.0252 37.8601 78.9684 37.8675C74.5692 38.3736 70.1701 38.8822 65.7709 39.3883C65.5079 39.4182 65.5115 39.4182 65.2236 39.6476C65.1881 39.675 65.1419 39.7124 65.0921 39.7174C63.7454 39.877 62.3951 40.0315 61.0448 40.1861C60.4585 40.2534 59.8722 40.3232 59.2858 40.3881C59.0762 40.4105 59.0762 40.4105 58.5751 40.6798C58.5325 40.7022 58.4827 40.7321 58.433 40.7371C56.0877 41.0088 53.7424 41.2806 51.3935 41.5473C51.2088 41.5673 51.0595 41.6122 50.9743 41.7318C50.9139 41.8166 50.8357 41.8665 50.7184 41.8814C49.0767 42.0709 47.4351 42.2629 45.7898 42.4473C45.5944 42.4698 45.4771 42.5396 45.3811 42.6443C45.3492 42.6792 45.3207 42.7191 45.2745 42.744C45.2319 42.7665 45.1679 42.7739 45.1146 42.7814C43.7075 42.9435 42.3003 43.1105 40.8896 43.2651C40.68 43.2875 40.5946 43.3798 40.4916 43.477C40.456 43.5094 40.4312 43.5543 40.385 43.5767C40.3388 43.5967 40.2713 43.5967 40.2144 43.6017C39.0418 43.7363 37.8692 43.8734 36.6965 44.008C36.4691 43.9956 36.4193 44.1402 36.3092 44.2274C36.2701 44.2573 36.2417 44.2972 36.1955 44.3172C36.1458 44.3371 36.0817 44.3346 36.0213 44.3396C35.0832 44.4468 34.1451 44.5615 33.2034 44.6612C32.9867 44.6837 32.944 44.8108 32.8268 44.8981C32.7877 44.9255 32.7486 44.9679 32.7024 44.9754C32.1161 45.0477 31.5298 45.115 30.9435 45.1798C30.7481 45.2022 30.748 45.1997 30.4034 45.4465C30.3643 45.474 30.318 45.5039 30.2683 45.5114C29.3906 45.6161 28.5094 45.7158 27.6281 45.818C27.5144 45.8305 27.4362 45.8903 27.3794 45.9751C27.3225 46.0598 27.2408 46.1147 27.1271 46.1272C26.4235 46.2094 25.7199 46.2942 25.0163 46.369C24.8208 46.3889 24.6929 46.4513 24.6077 46.5634C24.5437 46.6482 24.4655 46.6906 24.3412 46.7055C23.6376 46.7853 22.934 46.8726 22.2269 46.9424C22.0208 46.9624 21.9141 47.0471 21.8288 47.1518C21.7613 47.2366 21.6831 47.2665 21.5517 47.2815C20.2618 47.4261 18.9683 47.5706 17.682 47.7302C17.4652 47.7576 17.355 47.6704 17.2129 47.608C17.0104 47.5208 16.8221 47.426 16.8221 47.2316C16.8221 47.2017 16.7617 47.1668 16.719 47.1418C16.4028 46.9549 16.4027 46.9549 16.353 46.7554C16.3246 46.6333 16.2926 46.5086 16.2677 46.384C16.2215 46.1795 16.1078 46.1272 15.7809 46.1646C15.6636 46.177 15.5463 46.1945 15.4291 46.2044C15.2549 46.2219 15.1235 46.1396 15.0915 45.99C15.0737 45.9078 15.0524 45.8255 15.0347 45.7432C15.2124 45.7233 15.2088 45.7208 15.5215 45.4191C15.6529 45.292 15.653 45.292 15.4007 45.1648C15.3048 45.1175 15.2123 45.0651 15.1093 45.0202C15.0631 45.0003 15.0027 44.9878 14.953 44.9928C14.658 45.0227 14.3666 45.0576 14.0753 45.0925C13.6062 45.1474 13.6062 45.1474 13.13 44.8931C13.0909 44.8731 13.0305 44.8357 13.0376 44.8158C13.0767 44.7235 13.1726 44.6836 13.2934 44.6737C13.4711 44.6587 13.6452 44.6338 13.8193 44.6138C13.9366 44.6014 14.0539 44.5864 14.1711 44.574C14.2813 44.4792 14.3951 44.387 14.4981 44.2898C14.6616 44.1402 14.6615 44.1352 14.4376 44.0305C14.2955 43.9607 14.1427 43.8983 13.997 43.8335C13.8229 43.8534 13.6452 43.8759 13.4711 43.8933C13.2508 43.9158 13.1619 43.8684 13.1051 43.7063C13.0553 43.5642 13.1158 43.4421 13.2863 43.4122C13.4604 43.3823 13.624 43.3623 13.7128 43.2352C13.7981 43.113 13.9473 43.0656 14.1321 43.0557C14.2494 43.0482 14.3666 43.0307 14.4839 43.0158C14.6367 42.9958 14.7184 42.8687 14.6864 42.7266C14.6687 42.6343 14.6331 42.557 14.4945 42.5371C13.8798 42.4498 13.8727 42.4523 13.5671 42.2828C13.5386 42.2678 13.5174 42.223 13.528 42.2005C13.5458 42.1631 13.5849 42.1083 13.6275 42.1008C14.0362 42.046 14.4448 41.9961 14.8534 41.9587C14.9885 41.9463 15.088 41.9288 15.1342 41.8365C15.1981 41.7094 15.1697 41.5922 15.0454 41.505C15.0063 41.4775 14.9422 41.4426 14.8996 41.4451C14.4305 41.49 13.9651 41.5473 13.496 41.5922C13.4534 41.5972 13.3752 41.5548 13.3575 41.5224C13.3219 41.4626 13.3752 41.3828 13.4996 41.3554C13.663 41.318 13.83 41.3155 13.9402 41.1908C14.093 41.0138 14.2813 40.8518 14.4519 40.6823C14.4803 40.6523 14.5265 40.595 14.5159 40.59C14.4271 40.5351 14.324 40.4928 14.2316 40.4404C14.0752 40.3531 14.0752 40.231 14.1107 40.1138C14.1392 40.0191 14.2458 39.9817 14.3773 39.9817C14.4341 39.9817 14.5052 39.9817 14.5514 39.9592C14.6722 39.9044 14.7113 39.8346 14.6509 39.7822C14.6153 39.7523 14.5514 39.7099 14.5088 39.7149C13.7483 39.7972 12.9843 39.877 12.2274 39.9792C12.0035 40.0091 11.9006 39.9144 11.7655 39.847C11.6625 39.7947 11.5665 39.7747 11.4385 39.8121C11.3177 39.847 11.2005 39.8271 11.1259 39.7448C11.0655 39.6775 11.1721 39.6202 11.4599 39.5554C11.5132 39.5429 11.5736 39.5354 11.6127 39.5105C12.0249 39.2412 12.0248 39.2387 12.3091 39.2038C12.5863 39.1714 12.5864 39.1689 12.732 39.0243C12.7996 38.957 12.8741 38.8897 12.9381 38.8199C12.963 38.7925 13.0057 38.7426 12.9914 38.7276C12.9133 38.6504 12.8066 38.6329 12.6823 38.6504C12.4051 38.6928 12.0782 38.6578 11.9325 38.8947C11.8757 38.9844 11.7868 39.0094 11.6589 39.0243C10.3726 39.1689 9.08616 39.3235 7.79625 39.4631C7.5866 39.4856 7.49071 39.5778 7.40898 39.68C7.33791 39.7648 7.25972 39.7897 7.12469 39.8047C6.98966 39.8196 6.883 39.8271 6.80483 39.7448C6.75863 39.695 6.79773 39.6252 6.90433 39.5554C7.05713 39.4556 7.02869 39.331 6.97894 39.2138C6.94341 39.1365 6.83325 39.0817 6.71599 39.0867C6.54187 39.0966 6.3749 39.1241 6.22921 39.0243C6.14393 38.967 6.03731 38.9271 5.94136 38.8772C5.75658 38.775 5.5718 38.6703 5.31239 38.7376C5.13472 38.7127 5.01035 38.6229 4.86821 38.5531C4.63013 38.4385 4.60881 38.421 4.77938 38.2988C4.97126 38.1617 4.82199 37.9822 4.92859 37.8476C5.0423 37.703 5.19871 37.5759 5.33729 37.4412C5.37283 37.4063 5.40482 37.3739 5.44036 37.339C5.35863 37.2891 5.28402 37.2268 5.18808 37.1919C5.0637 37.147 4.99974 37.0922 5.00685 36.9376C4.98197 36.9152 4.99256 36.9725 5.02099 36.9875C5.05297 37.0024 5.1312 36.99 5.17029 36.9725C5.26979 36.9252 5.31948 36.8628 5.29461 36.8105C5.2804 36.783 5.21293 36.7481 5.17029 36.7481C5.09212 36.7481 5.02461 36.803 5.00329 36.9376C4.6053 37.0398 4.19304 37.0897 3.78084 37.1296C3.73819 37.1346 3.68492 37.0847 3.63518 37.0598C3.47172 36.975 3.4717 36.9775 2.99198 36.9526C2.94223 36.9501 2.87475 36.9152 2.84988 36.8803C2.74683 36.7282 2.75041 36.5612 2.70066 36.3991C2.79305 36.2944 2.88537 36.1922 2.98131 36.09C3.1732 35.883 3.42199 35.701 3.57124 35.4742C3.53926 35.352 3.49661 35.2299 3.65296 35.1301C4.09714 35.0055 4.09362 35.0055 4.21443 34.8858C4.55912 34.5467 4.90023 34.2052 5.25913 33.8711C5.35507 33.7838 5.35508 33.7365 5.18452 33.6991C5.13122 33.6891 5.07429 33.6866 5.01743 33.6916C4.83976 33.7091 4.66209 33.7539 4.48797 33.744C4.31385 33.7365 4.18593 33.6268 4.04379 33.5595C3.8981 33.4897 3.75241 33.4174 3.60672 33.3451C3.43971 33.3525 3.27273 33.4223 3.10571 33.3102C2.97779 33.2229 2.81789 33.1606 2.6722 33.0883C2.78236 32.8988 2.98849 32.7542 3.1484 32.5872C3.29409 32.4351 3.29756 32.4376 3.68844 32.3204C3.87322 32.2656 3.93719 31.9838 3.78084 31.9016C3.5925 31.8018 3.39355 31.7096 3.20166 31.6148C3.03465 31.6223 2.86412 31.6897 2.70422 31.5775C2.57984 31.4927 2.43768 31.4353 2.23158 31.4678C1.88334 31.5226 1.52801 31.55 1.17621 31.5949C1.0554 31.6099 0.92388 31.5999 0.870579 31.5151C0.835044 31.4553 0.938101 31.373 1.05537 31.3556C1.23304 31.3306 1.39293 31.3007 1.48176 31.1761C1.56704 31.0514 1.72338 31.014 1.90816 30.9966C1.95791 30.9916 2.0148 30.9617 2.03968 30.9317C2.1676 30.7871 2.30975 30.6625 2.58337 30.6675C2.69708 30.6176 2.75745 30.5553 2.72191 30.4954C2.70059 30.463 2.62601 30.4207 2.58337 30.4257C2.28843 30.4506 1.9935 30.4755 1.70567 30.5204C1.57064 30.5403 1.46754 30.5453 1.38225 30.4705C1.32185 30.4207 1.35382 30.3533 1.46753 30.281C1.56703 30.2187 1.59549 30.1464 1.58838 30.0616C1.57062 29.8647 1.46399 29.8074 1.12286 29.8198C0.877672 29.8298 0.817259 29.7974 0.763958 29.6279C0.749744 29.588 0.714272 29.5331 0.739146 29.5057C0.891944 29.3362 0.991448 29.1268 1.27928 29.047C1.39299 29.0171 1.51376 29.0171 1.58483 28.9522C1.6559 28.8874 1.71989 28.8126 1.79451 28.7503C1.8869 28.6755 1.9508 28.6057 1.90816 28.5583C1.83709 28.4736 1.72342 28.4661 1.59194 28.496C1.47823 28.5209 1.35742 28.5234 1.24015 28.5384C1.0305 28.5658 0.85997 28.501 0.835096 28.3913C0.767581 28.1021 0.696491 27.8154 0.636082 27.5262C0.628975 27.4913 0.646694 27.4464 0.675121 27.4165C0.774618 27.3118 0.881263 27.212 0.984313 27.1098C1.10513 26.9927 1.29705 27.0151 1.46051 26.9927C1.69148 26.9603 1.6914 26.9627 2.00055 26.7234C2.12137 26.6287 2.33103 26.6661 2.4554 26.5813C2.49449 26.5539 2.5549 26.509 2.54424 26.4841C2.53003 26.4517 2.459 26.4267 2.40569 26.4118C2.35595 26.3968 2.29555 26.3893 2.24225 26.3968C1.59552 26.4691 0.952364 26.5464 0.305635 26.6162C0.195478 26.6287 0.0746572 26.5738 0.0355692 26.4965C-0.00351875 26.4242 0.00710691 26.337 0 26.2547C0.10305 26.1525 0.220269 26.0577 0.309105 25.948C0.376621 25.8633 0.454811 25.8259 0.589842 25.8209C0.767515 25.8134 0.941651 25.7835 1.14064 25.7611C1.5102 25.3971 1.87263 25.0156 2.27062 24.6516C2.43052 24.5046 2.3915 24.355 2.42348 24.1979C2.45546 24.0533 2.69353 24.0757 2.85343 24.0334C2.98136 23.9985 3.02394 23.9187 2.97419 23.8638C2.94577 23.8314 2.88184 23.794 2.83209 23.794C2.71483 23.794 2.59757 23.8164 2.4803 23.8289C2.36304 23.8414 2.22801 23.8339 2.13207 23.8763C2.03968 23.9162 1.97924 24.0009 1.91883 24.0732C1.85131 24.153 1.76254 24.1805 1.62751 24.1854C1.45339 24.1904 1.27928 24.2128 1.10516 24.2303C0.913276 24.1331 0.714241 24.0383 0.529461 23.9361C0.493926 23.9162 0.486781 23.8589 0.490335 23.8215C0.497442 23.7242 0.444154 23.6644 0.32689 23.617C0.227393 23.5771 0.145657 23.5198 0.0532671 23.4699C0.124336 23.4026 0.20254 23.3378 0.259395 23.2655C0.383766 23.1134 0.540135 23.0037 0.810198 23.0087C0.916801 22.9115 1.00206 22.7918 1.14064 22.7245C1.27212 22.6597 1.496 22.7245 1.5955 22.5774C1.64525 22.5051 1.71991 22.4228 1.81585 22.3929C1.96865 22.3455 2.16764 22.3705 2.25648 22.2309C2.30978 22.1511 2.38792 22.0788 2.49097 22.0588C2.60824 22.0364 2.72902 22.0314 2.81431 21.984C2.8605 21.9591 2.91026 21.9192 2.91026 21.8843C2.91026 21.8619 2.83924 21.827 2.7895 21.812C2.7433 21.7946 2.68282 21.7821 2.62952 21.7871C2.45185 21.802 2.27773 21.8295 2.10006 21.8444C2.05031 21.8494 1.99347 21.832 1.94017 21.817C1.78382 21.7771 1.79446 21.7273 1.91883 21.6375C2.0432 21.5502 2.13209 21.438 2.23514 21.3358C2.34885 21.3184 2.49096 21.3259 2.56914 21.2785C2.70062 21.2012 2.79298 21.089 2.89959 20.9918C3.01685 20.9768 3.13766 20.9718 3.24782 20.9444C3.29401 20.9344 3.31535 20.8796 3.35444 20.8472C3.42551 20.7849 3.48597 20.6951 3.58191 20.6652C3.73826 20.6203 3.93014 20.6378 4.02253 20.5006C4.07583 20.4209 4.15753 20.3361 4.25703 20.3311C4.5342 20.3212 4.65147 20.184 4.7936 20.0544C4.90021 19.9571 5.12764 20.007 5.2449 19.9098C5.32308 19.8475 5.37997 19.7702 5.45814 19.7103C5.49012 19.6854 5.55761 19.6729 5.61092 19.6655C5.9023 19.6281 6.19723 19.6006 6.48861 19.5607C6.5348 19.5533 6.57748 19.5159 6.61301 19.486C6.68764 19.4211 6.73378 19.3314 6.82617 19.289C6.91856 19.2466 7.05002 19.2466 7.16373 19.2342C7.52974 19.1968 7.55819 19.2067 7.7252 18.9948C7.86023 18.8228 8.19075 18.9449 8.3009 18.7555C8.36487 18.6458 8.48208 18.556 8.69173 18.5436C8.98667 18.5261 9.27804 18.4787 9.57298 18.4463C9.83594 18.4164 9.83239 18.4164 10.1167 18.1845C10.2446 18.0798 10.433 18.0948 10.6 18.0749C10.7776 18.0549 10.9411 18.025 11.0264 17.9004C11.1117 17.7782 11.268 17.7383 11.4492 17.7208C11.6162 17.7034 11.8046 17.7159 11.9361 17.6161C12.2559 17.3768 12.2523 17.3743 12.4762 17.3494C12.828 17.3095 13.1798 17.2696 13.5316 17.2272C13.7661 17.1998 14.0113 17.1948 14.2316 17.14C14.3915 17.1001 14.4625 16.9605 14.5656 16.8632C14.857 16.8258 15.1484 16.7884 15.4397 16.7535C15.8484 16.7036 16.2606 16.6588 16.6728 16.6114C16.8504 16.5167 16.8754 16.3073 17.1739 16.2973C17.3515 16.2923 17.5257 16.2599 17.7033 16.24C17.9983 16.205 18.2896 16.1602 18.5846 16.1427C18.8084 16.1303 18.8475 15.9956 18.9647 15.9108C19.0038 15.8809 19.0394 15.8386 19.0856 15.8311C19.5475 15.7613 20.0237 15.7463 20.475 15.6441C20.5211 15.6341 20.5638 15.5818 20.5745 15.5444C20.5816 15.5244 20.5212 15.487 20.4821 15.4696C20.4359 15.4496 20.3755 15.4297 20.3257 15.4347C18.8582 15.6017 17.3906 15.7713 15.923 15.9383C15.7169 15.9632 15.7169 15.9607 15.2159 16.235C15.1733 16.2574 15.1235 16.2823 15.0702 16.2898C14.8356 16.3197 14.5976 16.3372 14.3666 16.3746C14.1783 16.4045 14.022 16.3746 13.8869 16.2848C13.791 16.22 13.6914 16.2001 13.5706 16.205C13.4356 16.2125 13.3468 16.24 13.2686 16.3073C13.1656 16.3995 13.1123 16.5192 12.8955 16.5441C11.897 16.6513 10.8984 16.771 9.90343 16.8857C9.76484 16.8507 9.69733 16.7984 9.73287 16.7361C9.75419 16.6987 9.79685 16.6488 9.83949 16.6438C10.2481 16.5915 10.6603 16.5466 11.069 16.4967C11.1258 16.4893 11.204 16.4942 11.236 16.4693C11.3923 16.3571 11.4492 16.1751 11.7442 16.1627C11.9147 16.1552 12.0888 16.1178 12.2523 16.0829C12.2985 16.0729 12.3411 16.0206 12.3518 15.9832C12.3554 15.9632 12.2985 15.9258 12.2559 15.9084C12.0995 15.8361 11.9183 15.9233 11.762 15.8735C11.7087 15.856 11.634 15.8311 11.6233 15.8012C11.6162 15.7737 11.6766 15.7289 11.7193 15.7014C11.7584 15.6765 11.8116 15.6541 11.8649 15.6466C12.334 15.5893 12.8031 15.5294 13.2722 15.4845C13.4641 15.4671 13.5991 15.4048 13.6844 15.2901C13.7483 15.2053 13.8265 15.1604 13.9473 15.148C14.7681 15.0557 15.589 14.9535 16.4134 14.8688C16.6195 14.8488 16.7261 14.7665 16.8114 14.6593C16.8789 14.5746 16.9571 14.5447 17.0886 14.5297C18.2648 14.4001 19.4338 14.2555 20.61 14.1308C20.8268 14.1084 20.8908 14.0012 21.0009 13.9089C21.04 13.8765 21.0648 13.8366 21.1146 13.8167C21.1643 13.7967 21.2283 13.7992 21.2887 13.7942C22.2268 13.687 23.165 13.5723 24.1067 13.4726C24.327 13.4502 24.3695 13.3255 24.4833 13.2383C24.5223 13.2108 24.5579 13.166 24.6041 13.1585C25.3077 13.0737 26.0112 12.9939 26.7148 12.9117C27.1839 12.8568 27.6529 12.802 28.122 12.7496C28.353 12.7247 28.353 12.7222 28.6657 12.4853C28.7012 12.4579 28.751 12.4255 28.7972 12.418C30.1475 12.2585 31.4942 12.1064 32.8445 11.9493C32.9583 11.9369 33.04 11.8795 33.0968 11.7947C33.1537 11.71 33.2355 11.6526 33.3456 11.6402C34.401 11.5155 35.4564 11.3934 36.5153 11.2762C36.7072 11.2562 36.8422 11.1964 36.9275 11.0842C36.9914 10.9995 37.0696 10.9546 37.1904 10.9421C38.2458 10.8225 39.3012 10.6953 40.3601 10.5806C40.5627 10.5582 40.6621 10.4734 40.7616 10.3737C40.7972 10.3388 40.8256 10.2814 40.8683 10.2765C41.3942 10.2067 41.9165 10.1344 42.446 10.087C42.6663 10.067 42.7409 9.96232 42.8298 9.8626C42.9008 9.78282 42.9826 9.7554 43.1176 9.74543C43.4126 9.72299 43.7039 9.68063 43.9918 9.63824C44.0344 9.63076 44.0877 9.57591 44.0913 9.54101C44.0984 9.47619 44.0166 9.43131 43.8816 9.40887C42.4744 9.57092 41.0637 9.73296 39.6566 9.89501C39.4256 9.92243 39.4256 9.92245 39.1129 10.1593C39.0773 10.1867 39.0275 10.2191 38.9778 10.2266C37.6275 10.3837 36.2808 10.5382 34.9305 10.6953C34.8167 10.7078 34.735 10.7651 34.6782 10.8499C34.6213 10.9346 34.5395 10.992 34.4294 11.0045C33.1395 11.154 31.8496 11.3061 30.5561 11.4482C30.3643 11.4682 30.2292 11.5255 30.144 11.6402C30.08 11.7249 30.0018 11.7698 29.881 11.7823C28.648 11.9219 27.4184 12.069 26.1818 12.2036C26.0574 12.2161 25.9651 12.1438 25.9722 12.0765C25.9758 12.0416 26.029 11.9842 26.0716 11.9793C26.7148 11.897 27.3545 11.8122 28.0012 11.7499C28.218 11.7299 28.2819 11.6202 28.3921 11.528C28.4276 11.4956 28.456 11.4532 28.5022 11.4358C28.552 11.4158 28.6159 11.4183 28.6763 11.4133C30.2008 11.2363 31.7253 11.0568 33.2532 10.8898C33.4736 10.8649 33.5161 10.7427 33.6298 10.6554C33.6689 10.6255 33.7045 10.5806 33.7507 10.5757C34.2197 10.5158 34.6888 10.4635 35.1578 10.4111C35.9787 10.3164 36.7995 10.2216 37.6239 10.1269C37.862 10.0995 37.862 10.0994 38.1676 9.86509C38.2031 9.83767 38.2529 9.80279 38.2991 9.79781C40.4703 9.546 42.6415 9.2942 44.8126 9.04489C44.9263 9.03242 45.0081 8.97508 45.0649 8.89032C45.1218 8.80804 45.2035 8.74821 45.3136 8.73325C48.2488 8.39419 51.1804 8.05511 54.1155 7.72104C54.3074 7.6986 54.4424 7.64624 54.5277 7.52907C54.5881 7.4443 54.6698 7.39944 54.7907 7.38448C58.0172 7.01301 61.2437 6.64154 64.4738 6.26758C66.645 6.01827 68.8162 5.76397 70.9873 5.51965C71.1863 5.49721 71.2929 5.41991 71.3924 5.31769C71.4244 5.28279 71.4564 5.22545 71.499 5.22046C71.9645 5.15813 72.43 5.1008 72.8955 5.04346C73.0412 5.11077 73.1869 5.17561 73.3326 5.24292C73.4427 5.14818 73.5494 5.05094 73.6595 4.95621C74.3631 4.88391 75.056 4.77172 75.7667 4.73681C75.8129 4.73432 75.8626 4.7817 75.9124 4.80663C76.2428 4.96369 76.4312 4.95122 76.6408 4.7418C76.7155 4.66701 76.7794 4.5997 76.8931 4.58723C77.2449 4.54236 77.6003 4.51244 77.9486 4.46008C78.1369 4.43266 78.2932 4.45758 78.4282 4.54734C78.5242 4.61216 78.6237 4.6396 78.741 4.62464C79.3877 4.54984 80.0309 4.47754 80.6776 4.39776C80.7238 4.39277 80.7664 4.35037 80.8019 4.32046C80.8765 4.25564 80.9405 4.18584 81.0116 4.11853C81.1076 4.16091 81.2142 4.19333 81.2923 4.24818C81.3918 4.313 81.4842 4.31298 81.6192 4.29553C84.199 3.99387 86.7824 3.69969 89.3622 3.39553C89.5825 3.3706 89.6785 3.47532 89.8277 3.53016C89.8775 3.55011 89.9272 3.57503 89.9805 3.58001C90.0374 3.585 90.0978 3.57006 90.1546 3.56258C92.0913 3.3382 94.0279 3.1163 95.9646 2.89192C96.2204 2.862 96.2204 2.862 96.6006 3.01657C96.6468 3.03652 96.7072 3.05896 96.757 3.05148C97.6382 2.95425 98.5195 2.84955 99.3972 2.74983C99.5109 2.73736 99.6069 2.77724 99.7099 2.83458C99.9125 2.94677 99.9266 2.94678 100.076 2.78224C100.147 2.70495 100.222 2.65756 100.339 2.63512C100.467 2.61019 100.57 2.6177 100.669 2.66257C100.811 2.7249 100.915 2.82959 101.131 2.80217C102.069 2.68499 103.011 2.58777 103.946 2.4681C104.159 2.44068 104.273 2.52544 104.415 2.58777C104.464 2.61021 104.511 2.64511 104.564 2.65259C104.617 2.66007 104.681 2.6426 104.738 2.63512C105.911 2.50049 107.087 2.36839 108.256 2.22379C108.476 2.19636 108.572 2.30354 108.721 2.35839C108.771 2.37834 108.828 2.41326 108.874 2.40827C109.578 2.33099 110.285 2.24869 110.989 2.16642C111.241 2.1365 111.241 2.139 111.625 2.29107C111.671 2.31102 111.731 2.33097 111.781 2.32598C112.602 2.23374 113.426 2.139 114.247 2.04426C114.499 2.01434 114.499 2.01435 115.228 2.14399C115.281 2.15396 115.338 2.16894 115.391 2.16395C116.329 2.05675 117.271 1.95203 118.209 1.83734C118.397 1.81491 118.554 1.83485 118.689 1.9246C118.785 1.98942 118.884 2.01686 119.002 2.0019C120.057 1.87974 121.116 1.76256 122.168 1.63292C122.37 1.60799 122.502 1.66282 122.644 1.73512C122.69 1.76005 122.736 1.79496 122.79 1.80493C122.843 1.81491 122.903 1.80493 122.96 1.79745C124.016 1.67528 125.074 1.56061 126.126 1.42847C126.339 1.40105 126.453 1.48581 126.595 1.54814C126.645 1.57057 126.698 1.61545 126.741 1.61296C127.153 1.57058 127.565 1.53319 127.974 1.47087C128.194 1.43596 128.29 1.55063 128.44 1.60547C128.489 1.62292 128.546 1.66034 128.592 1.65535C129.474 1.55812 130.355 1.45591 131.233 1.3512C131.357 1.33624 131.449 1.35866 131.549 1.42348C131.68 1.51074 131.833 1.54564 132.025 1.51822C132.434 1.46088 132.846 1.421 133.258 1.37363C133.5 1.34621 133.5 1.34622 134.239 1.47586C134.292 1.48583 134.349 1.50078 134.402 1.49579C135.106 1.41601 135.813 1.33873 136.513 1.25147C136.701 1.22654 136.858 1.24897 136.993 1.33873C137.089 1.40355 137.185 1.43098 137.305 1.41603C137.952 1.34123 138.595 1.26643 139.242 1.19164C139.477 1.16422 139.711 1.11684 139.946 1.11684C140.116 1.11933 140.241 1.23899 140.393 1.29883C140.436 1.31628 140.507 1.29636 140.564 1.29137C141.385 1.19663 142.209 1.10937 143.026 1.00216C143.24 0.97474 143.353 1.0595 143.496 1.12183C143.545 1.14427 143.599 1.18914 143.641 1.18665C143.936 1.15923 144.228 1.12183 144.522 1.08942C144.874 1.04953 145.23 1.01961 145.578 0.964761C145.862 0.919886 145.969 1.13678 146.196 1.14426C146.37 1.15174 146.548 1.10936 146.722 1.08942C147.074 1.04953 147.426 1.00466 147.777 0.969752C147.902 0.957287 147.998 0.91738 148.037 0.827629C148.044 0.810177 147.984 0.772797 147.944 0.750359C147.472 0.496063 147.472 0.496051 146.996 0.550899C146.701 0.585803 146.409 0.620712 146.114 0.650629C146.065 0.655615 146.008 0.635672 145.958 0.620713C145.816 0.578331 145.83 0.528474 145.951 0.438722C146.072 0.348971 146.164 0.239284 146.267 0.137068C146.413 0.201888 146.555 0.266685 146.701 0.331506C146.818 0.31904 146.935 0.304104 147.053 0.291638C147.639 0.226818 148.225 0.159499 148.812 0.0996651C148.854 0.0946789 148.907 0.144548 148.957 0.169479C149.099 0.241779 149.227 0.304089 149.433 0.276665C149.959 0.204365 150.489 0.15201 151.015 0.089683C151.246 0.062259 151.246 0.0622614 151.651 0.216833C151.697 0.234285 151.757 0.254231 151.807 0.249245C152.337 0.191904 152.862 0.129583 153.392 0.0697492C153.506 0.0572838 153.616 0.0896928 153.698 0.161992C153.729 0.19191 153.722 0.241762 153.857 0.650629C154.277 0.982211 154.565 0.947324 154.856 0.917407C154.98 0.904942 155.09 0.892464 155.172 0.842602C155.215 0.815178 155.268 0.775283 155.268 0.742872C155.268 0.717941 155.19 0.678045 155.14 0.673058C154.788 0.623197 154.454 0.727921 154.11 0.750359C153.95 0.760331 153.811 0.673072 153.783 0.530965C153.776 0.491076 153.765 0.448696 153.754 0.408806C153.744 0.368917 153.737 0.326537 153.726 0.286647C153.587 0.274182 153.506 0.31905 153.445 0.403815C153.395 0.473622 153.324 0.553401 153.228 0.590797C153.132 0.630687 153.001 0.623221 152.884 0.635686C152.77 0.648152 152.646 0.680558 152.539 0.663107C152.432 0.643162 152.347 0.57085 152.248 0.525974C152.201 0.503537 152.145 0.471139 152.098 0.476125C151.69 0.518507 151.285 0.560874 150.88 0.615722C150.666 0.645639 150.56 0.540945 150.425 0.476125C150.318 0.426263 150.212 0.438712 150.194 0.553395C150.148 0.827635 150.311 0.942311 150.674 0.889956C150.972 0.845081 151.242 0.837625 151.477 1.00715C151.509 1.02959 151.583 1.03956 151.629 1.03458C151.921 1.00466 152.209 0.967258 152.5 0.937341C152.553 0.932355 152.61 0.942311 152.66 0.952284C153.385 1.08691 153.385 1.08942 153.63 1.0595C153.747 1.04454 153.861 1.03207 153.85 0.653125C154.074 0.24675 154.43 0.219331 154.774 0.159497C154.998 0.122101 155.094 0.231802 155.24 0.289143C155.289 0.309087 155.343 0.34897 155.389 0.343983C156.153 0.261711 156.913 0.174441 157.674 0.0821964C157.802 0.0672379 157.894 0.0821989 157.994 0.147019C158.121 0.229291 158.264 0.281657 158.466 0.25174C158.871 0.191906 159.283 0.154518 159.696 0.104656C159.905 0.0797253 159.905 0.0796997 160.328 0.234272C160.374 0.251723 160.435 0.271669 160.485 0.266683C160.897 0.2243 161.305 0.171961 161.714 0.127086C161.828 0.11462 161.931 0.14952 162.02 0.216833C162.109 0.284147 162.215 0.319046 162.325 0.306581C162.738 0.261705 163.146 0.211859 163.555 0.166984C163.605 0.161997 163.665 0.179448 163.711 0.196899C164.145 0.351471 164.145 0.351446 164.344 0.326515C164.635 0.289118 164.934 0.271686 165.221 0.221824C165.502 0.171962 165.648 0.31655 165.84 0.396329C166.366 0.338988 166.895 0.291631 167.417 0.221824C167.631 0.191907 167.744 0.274172 167.886 0.338992C167.936 0.36143 167.986 0.408804 168.032 0.406311C168.21 0.396338 168.384 0.368919 168.558 0.348974C168.732 0.32903 168.91 0.309087 169.084 0.289143C169.283 0.361442 169.414 0.53097 169.699 0.473629C169.869 0.438726 170.05 0.431247 170.225 0.411302C170.399 0.391357 170.576 0.371415 170.751 0.35147C170.868 0.339005 170.989 0.331514 171.102 0.309076C171.312 0.27168 171.415 0.393856 171.564 0.448704C171.614 0.466156 171.671 0.496054 171.717 0.491067C172.069 0.456164 172.424 0.426249 172.769 0.368908C173.035 0.324033 173.217 0.398835 173.405 0.503545C173.444 0.525983 173.512 0.538447 173.561 0.533461C173.973 0.491078 174.382 0.438709 174.791 0.393833C174.901 0.381368 175.008 0.421256 175.096 0.486076C175.189 0.55339 175.292 0.585824 175.405 0.573359C175.814 0.528483 176.226 0.478607 176.635 0.433731C176.685 0.428745 176.745 0.448693 176.791 0.468638C177.189 0.62321 177.189 0.625705 177.424 0.595788C177.481 0.588309 177.541 0.583303 177.598 0.575824C177.889 0.540921 178.191 0.528472 178.476 0.468638C178.803 0.401325 179.041 0.486093 179.272 0.6282C179.563 0.598283 179.862 0.580827 180.146 0.530965C180.359 0.493569 180.473 0.588302 180.615 0.650629C180.665 0.673067 180.718 0.717943 180.761 0.712956C181.173 0.670574 181.585 0.633191 181.99 0.570863C182.21 0.53596 182.306 0.648129 182.456 0.70547C182.505 0.725415 182.559 0.760336 182.605 0.75535C182.839 0.735405 183.074 0.705474 183.308 0.67805C183.582 0.645639 183.582 0.64813 183.944 0.800209C184.115 0.872508 184.286 0.815165 184.453 0.797713C184.63 0.777768 184.797 0.762815 184.939 0.865032C185.028 0.929852 185.135 0.969743 185.245 0.95977C185.48 0.937332 185.718 0.914906 185.949 0.877509C186.133 0.847592 186.293 0.867526 186.428 0.95977C186.524 1.02459 186.624 1.05702 186.741 1.04206C187.267 0.982228 187.796 0.919877 188.322 0.862536C188.369 0.85755 188.432 0.879996 188.475 0.902434C188.575 0.94731 188.671 0.997161 188.767 1.04702C188.997 1.02458 189.236 1.01464 189.463 0.979735C189.705 0.944831 189.925 0.932362 190.113 1.06948C190.152 1.0994 190.209 1.14176 190.255 1.13927C190.433 1.12929 190.607 1.10437 190.781 1.08443C190.955 1.06448 191.133 1.04454 191.307 1.02459C191.51 1.08692 191.638 1.26642 191.922 1.20908C192.093 1.17418 192.274 1.1667 192.448 1.14675C192.622 1.12681 192.8 1.10437 192.974 1.08692C193.031 1.08193 193.095 1.06946 193.144 1.07943C193.198 1.08941 193.244 1.12432 193.29 1.14925C193.432 1.22155 193.564 1.29386 193.766 1.25147C193.937 1.21657 194.118 1.20909 194.292 1.18665C194.53 1.15923 194.53 1.15923 194.925 1.3163C195.085 1.38112 195.266 1.29636 195.419 1.3512C195.522 1.3886 195.61 1.45091 195.71 1.4933C195.753 1.51075 195.82 1.51822 195.87 1.51323C196.104 1.49079 196.342 1.46837 196.573 1.43097C196.762 1.40105 196.918 1.43097 197.05 1.52072C197.146 1.58554 197.241 1.61298 197.362 1.59802C197.949 1.52821 198.535 1.46836 199.118 1.39107C199.317 1.36365 199.477 1.40604 199.587 1.49579C199.775 1.65036 200.042 1.46837 200.237 1.59303C200.358 1.67031 200.479 1.76007 200.699 1.72267C201.104 1.65785 201.516 1.62293 201.925 1.57805C202.071 1.64537 202.216 1.71269 202.366 1.78001C202.6 1.75258 202.835 1.72514 203.069 1.70021C203.243 1.68027 203.421 1.65783 203.595 1.64038C203.652 1.63539 203.712 1.62542 203.766 1.63788C203.819 1.65035 203.862 1.68277 203.911 1.7077C204.157 1.82986 204.156 1.83237 204.562 1.7825C204.736 1.76007 204.903 1.74511 205.048 1.84483C205.183 1.93708 205.343 1.95452 205.528 1.92709C205.876 1.87723 206.228 1.83984 206.584 1.80493C206.694 1.79247 206.797 1.83485 206.889 1.89967C207.028 2.00189 207.198 1.99192 207.372 1.96449C207.603 1.92959 207.831 1.8947 208.026 2.03431C208.065 2.06423 208.126 2.10659 208.168 2.10409C208.46 2.08415 208.755 2.0692 209.039 2.02183C209.323 1.97446 209.462 2.12903 209.657 2.20382C209.949 2.17141 210.244 2.139 210.535 2.10659C210.592 2.09911 210.659 2.07668 210.709 2.08915C210.919 2.1415 211.04 2.32848 211.327 2.27114C211.494 2.23873 211.676 2.22877 211.85 2.22129C211.896 2.2188 211.956 2.26116 211.988 2.29357C212.006 2.31102 211.988 2.35839 211.967 2.38332C211.903 2.45312 211.825 2.51796 211.768 2.59026C211.761 2.60024 211.828 2.64509 211.868 2.66504C211.963 2.70991 212.074 2.70245 212.202 2.68251C212.312 2.66506 212.425 2.69996 212.504 2.77475C212.536 2.80467 212.525 2.85452 212.457 3.01907C212.457 3.14123 212.532 3.08637 212.557 3.00659C212.596 2.89191 212.521 2.85452 212.379 2.91684C212.28 2.96172 212.23 3.02655 212.255 3.0789C212.269 3.10632 212.337 3.14123 212.457 3.01907C212.77 2.86948 213.005 2.84207 213.239 2.81465C213.3 2.80717 213.371 2.78222 213.413 2.79718C213.566 2.85701 213.708 2.92933 213.857 2.99664C214.028 2.98168 214.188 2.94427 214.355 3.0415C214.589 3.17862 214.6 3.16616 214.828 3.13873C214.945 3.12377 215.062 3.11133 215.179 3.09886C215.297 3.0864 215.389 3.12378 215.492 3.18113C215.702 3.2983 215.719 3.29829 215.858 3.13873C215.94 3.0415 215.997 3.0091 216.1 3.05398C216.441 3.20605 216.444 3.21602 216.736 3.17114C216.977 3.13375 217.205 3.12378 217.382 3.26588C217.503 3.36561 217.542 3.34317 217.638 3.23846C217.894 2.96173 218.011 2.9667 218.491 3.16615C218.715 3.26089 218.946 3.15868 219.173 3.14622C219.365 3.13625 219.5 3.19607 219.515 3.35313C219.525 3.45036 219.557 3.52018 219.685 3.55259C219.735 3.56506 219.795 3.5825 219.845 3.57752C220.14 3.5476 220.431 3.51269 220.726 3.47779C220.875 3.46034 220.957 3.34318 220.929 3.18861C220.897 3.02407 220.954 2.96421 221.167 2.91684C221.295 2.88942 221.398 2.89443 221.501 2.9393C221.615 2.98916 221.583 3.03404 221.483 3.12379C221.245 3.34318 221.274 3.47779 221.579 3.62986C221.686 3.68222 221.771 3.72961 221.796 3.80689C221.81 3.84678 221.796 3.89914 221.828 3.92905C222.002 4.09609 222.244 4.2033 222.514 4.28308C222.773 4.21577 222.951 4.32794 223.15 4.41769C223.306 4.4875 223.491 4.42768 223.658 4.40275C223.846 4.37532 224.003 4.39526 224.138 4.4875C224.234 4.55232 224.333 4.58223 224.45 4.56977C224.685 4.54234 224.923 4.5249 225.154 4.48501C225.353 4.45011 225.502 4.49997 225.626 4.58474C225.783 4.69194 225.957 4.61963 226.12 4.63459C226.341 4.65204 226.451 4.87392 226.739 4.81408C226.909 4.77918 227.087 4.76672 227.265 4.75675C227.311 4.75425 227.368 4.79664 227.407 4.82656C227.595 4.96368 227.815 4.9562 228.057 4.91631C228.224 4.88889 228.387 4.86397 228.551 4.9587C228.821 5.11826 229.12 5.25788 229.404 5.40498C229.443 5.51966 229.414 5.65426 229.617 5.72157C229.724 5.75648 229.823 5.80885 229.905 5.86619C230.004 5.93351 230.097 5.95096 230.225 5.93351C230.456 5.89861 230.697 5.8911 230.925 5.84623C231.134 5.80634 231.266 5.88864 231.394 5.96592C231.497 6.02825 231.593 6.05815 231.717 6.01328C231.845 5.97089 231.937 5.99831 232.04 6.06562C232.186 6.15787 232.197 6.14791 232.68 6.17533C232.73 6.17783 232.79 6.2152 232.819 6.24761C232.833 6.26506 232.801 6.31496 232.776 6.33989C232.744 6.3698 232.694 6.40469 232.648 6.41217C232.122 6.47699 231.593 6.53433 231.067 6.59915C231.014 6.60663 230.957 6.6241 230.918 6.64903C230.875 6.67645 230.822 6.71382 230.822 6.74873C230.822 6.77366 230.893 6.80358 230.942 6.82104C231.099 6.87838 231.284 6.79112 231.436 6.85594C231.539 6.89833 231.625 6.95815 231.728 6.99804C231.77 7.01549 231.838 7.013 231.891 7.00802C232.069 6.99057 232.243 6.96564 232.421 6.95068C232.47 6.94819 232.527 6.97313 232.573 6.99308C232.915 7.14266 232.915 7.14265 233.21 7.11024C233.327 7.09778 233.451 7.06038 233.561 7.07534C233.668 7.0903 233.76 7.15761 233.856 7.19999C234.055 7.28974 234.244 7.377 234.258 7.57146C234.265 7.64625 234.382 7.71106 234.499 7.71605C234.613 7.72103 234.734 7.69363 234.851 7.67868C235.128 7.64876 235.128 7.64876 235.487 7.80084C235.587 7.84322 235.693 7.8482 235.821 7.82326C235.871 7.81329 235.932 7.82328 235.985 7.83574C236.159 7.87314 236.159 7.9205 236.045 8.01025C235.885 8.14238 235.899 8.15485 236.347 8.26704C236.518 8.30943 236.649 8.38921 236.791 8.45902C237.022 8.57121 237.019 8.57118 236.866 8.71828C236.831 8.75069 236.799 8.7856 236.763 8.8205C236.66 8.91773 236.578 9.02244 236.365 9.03241C236.13 9.04238 235.896 9.08229 235.661 9.10971C235.434 9.13713 235.374 9.19695 235.395 9.36648C235.42 9.57091 235.466 9.59335 235.875 9.59086C235.992 9.59086 236.095 9.6108 236.184 9.67811C236.141 9.75789 236.063 9.82022 235.949 9.83518C235.658 9.87257 235.363 9.90499 235.072 9.9374C234.837 9.96483 234.603 9.99224 234.368 10.0197C234.222 10.0371 234.13 10.1668 234.169 10.3114C234.19 10.3936 234.208 10.4759 234.226 10.5582C234.265 10.7227 234.34 10.7651 234.578 10.7576C234.638 10.7551 234.695 10.7352 234.752 10.7402C234.983 10.7576 235.093 10.9645 235.37 10.9222C235.601 10.8873 235.843 10.8798 236.07 10.8349C236.28 10.795 236.397 10.8848 236.543 10.9521C236.592 10.9745 236.646 11.0219 236.688 11.0194C236.983 10.992 237.278 10.9646 237.566 10.9172C237.701 10.8973 237.783 10.9122 237.889 10.972C238.145 11.1166 238.152 11.1092 238.533 11.0643C238.81 11.0294 238.813 11.0344 239.169 11.1864C239.268 11.2288 239.375 11.2288 239.503 11.2089C239.67 11.1839 239.844 11.1441 240.018 11.1815C240.071 11.1914 240.139 11.2214 240.157 11.2538C240.167 11.2762 240.118 11.3311 240.075 11.3485C239.762 11.4781 239.396 11.4557 239.055 11.5081C238.948 11.523 238.842 11.4756 238.753 11.4083C238.661 11.341 238.561 11.3136 238.44 11.3261C238.206 11.3535 237.968 11.3709 237.737 11.4108C237.538 11.4457 237.399 11.3884 237.26 11.3111C237.214 11.2862 237.161 11.2388 237.115 11.2413C236.589 11.2911 236.059 11.341 235.537 11.4108C235.327 11.4407 235.207 11.361 235.064 11.2937C235.015 11.2712 234.965 11.2239 234.919 11.2263C234.741 11.2363 234.567 11.2637 234.389 11.2837C233.743 11.3585 233.099 11.4333 232.453 11.5031C232.41 11.5081 232.357 11.4557 232.307 11.4333C232.211 11.3884 232.112 11.346 232.012 11.3036C231.834 11.3236 231.66 11.3485 231.483 11.3634C231.355 11.3734 231.241 11.4083 231.223 11.5031C231.212 11.5654 231.33 11.6227 231.454 11.6177C231.575 11.6128 231.696 11.5828 231.795 11.6153C232.289 11.7748 232.289 11.7773 232.598 11.7449C232.868 11.715 232.84 11.69 233.078 11.8272C233.181 11.887 233.274 11.9219 233.391 11.907C233.682 11.8721 233.977 11.8371 234.272 11.8072C234.318 11.8022 234.379 11.8272 234.425 11.8471C234.773 11.9967 234.773 12.0017 235.061 11.9643C235.438 11.9194 235.452 11.9069 235.704 12.059C235.878 12.1637 236.038 12.0914 236.205 12.0864C236.397 12.1837 236.607 12.271 236.781 12.3806C236.987 12.5103 237.204 12.4878 237.438 12.4504C237.612 12.423 237.783 12.413 237.925 12.5153C238.06 12.61 238.223 12.62 238.408 12.595C238.575 12.5726 238.746 12.5252 238.92 12.5801C238.966 12.595 239.037 12.6324 239.034 12.6549C239.03 12.6898 238.984 12.7397 238.938 12.7546C238.611 12.8568 238.252 12.8543 237.907 12.9017C237.861 12.9092 237.801 12.8817 237.754 12.8618C237.655 12.8169 237.559 12.7646 237.463 12.7172C237.289 12.7322 237.111 12.7371 236.941 12.7671C236.809 12.7895 236.71 12.787 236.614 12.7272C236.525 12.6723 236.429 12.605 236.322 12.5876C236.216 12.5701 236.091 12.6075 235.974 12.6225C235.857 12.6374 235.722 12.6299 235.629 12.6698C235.537 12.7097 235.48 12.797 235.42 12.8668C235.352 12.9441 235.26 12.969 235.125 12.9765C235 12.984 234.901 12.974 234.809 12.9042C234.77 12.8743 234.716 12.8518 234.663 12.8319C234.613 12.8144 234.556 12.787 234.51 12.792C233.981 12.8493 233.455 12.9117 232.925 12.9715C232.662 13.0014 232.666 13.0014 232.119 12.8543C232.069 12.8418 232.008 12.8244 231.959 12.8294C231.664 12.8593 231.372 12.8942 231.077 12.9291C230.779 12.964 230.783 12.959 230.274 12.802C230.182 12.772 230.047 12.8119 229.937 12.807C229.706 12.7945 229.592 12.5851 229.322 12.625C229.091 12.6599 228.849 12.6673 228.618 12.7122C228.409 12.7521 228.288 12.6649 228.146 12.5975C228.096 12.5751 228.043 12.5252 228 12.5302C227.471 12.5851 226.945 12.6474 226.241 12.6549C226.067 12.6549 226.145 12.7072 226.259 12.7247C226.422 12.7521 226.476 12.6998 226.387 12.6C226.323 12.5302 226.231 12.4953 226.156 12.5128C226.117 12.5227 226.067 12.5701 226.241 12.6549C226.426 12.7496 226.415 12.802 226.447 12.8319C226.526 12.9042 226.636 12.9341 226.749 12.9241C226.927 12.9067 227.101 12.8817 227.279 12.8668C227.329 12.8618 227.389 12.8793 227.435 12.8992C227.826 13.0538 227.83 13.0638 228.245 13.0039C228.377 12.9865 228.473 12.9865 228.576 13.0338C228.718 13.0987 228.821 13.2083 229.038 13.1734C229.326 13.1261 229.621 13.0987 229.916 13.0712C229.962 13.0663 230.011 13.1111 230.065 13.1311C230.21 13.1909 230.317 13.3031 230.534 13.2557C230.701 13.2183 230.882 13.2083 231.06 13.2009C231.106 13.1984 231.177 13.2383 231.198 13.2707C231.241 13.328 231.188 13.3953 231.067 13.4427C231.017 13.4627 230.95 13.4577 230.893 13.4651C230.658 13.4926 230.424 13.5225 230.189 13.5449C230.065 13.5574 229.948 13.5948 229.933 13.687C229.923 13.7494 230.051 13.8042 230.171 13.7992C230.349 13.7917 230.527 13.7718 230.697 13.7394C230.999 13.6845 231.262 13.6995 231.507 13.8565C231.682 13.9662 231.671 13.9264 231.856 14.2505C231.902 14.3327 232.04 14.3402 232.161 14.3352C232.453 14.3228 232.588 14.3602 232.563 14.4374C232.531 14.5322 232.428 14.5621 232.296 14.5746C232.062 14.5945 231.827 14.6269 231.593 14.6543C231.536 14.6618 231.472 14.6768 231.419 14.6718C231.365 14.6668 231.316 14.6369 231.269 14.6144C231.17 14.5671 231.085 14.4948 230.978 14.4773C230.871 14.4599 230.747 14.4973 230.63 14.5122C230.512 14.5247 230.388 14.5621 230.282 14.5446C230.175 14.5272 230.086 14.4524 229.99 14.4075C229.944 14.3851 229.887 14.3502 229.841 14.3527C229.606 14.3726 229.372 14.405 229.137 14.43C228.849 14.4624 228.849 14.4624 228.501 14.3078C228.402 14.2629 228.299 14.2654 228.167 14.2854C227.883 14.3253 227.879 14.3178 227.361 14.1732C227.311 14.1582 227.25 14.1408 227.201 14.1482C226.671 14.2056 226.145 14.2679 225.619 14.3277C225.168 14.3801 225.168 14.3801 224.919 14.6294C224.735 14.8139 224.731 14.8139 224.912 14.8987C225.058 14.9685 225.189 15.0707 225.349 15.1081C225.499 15.143 225.683 15.0308 225.847 15.1455C225.929 15.2028 226.035 15.2652 226.138 15.2751C226.302 15.2876 226.476 15.2153 226.632 15.325C226.71 15.3798 226.828 15.4372 226.927 15.4397C227.101 15.4447 227.279 15.4048 227.453 15.3873C227.506 15.3823 227.567 15.3823 227.616 15.3948C227.67 15.4097 227.716 15.4397 227.762 15.4646C227.904 15.5494 228.057 15.5892 228.242 15.5469C228.544 15.4771 228.814 15.512 229.048 15.6715C229.08 15.694 229.159 15.6965 229.208 15.6865C229.336 15.6616 229.446 15.6591 229.542 15.7064C229.581 15.7264 229.638 15.7613 229.631 15.7837C229.621 15.8211 229.578 15.871 229.532 15.8834C229.198 15.9682 228.839 15.9782 228.494 16.0231C228.448 16.028 228.391 15.9956 228.345 15.9732C228.245 15.9283 228.16 15.8535 228.053 15.8361C227.947 15.8186 227.823 15.851 227.705 15.8635C227.588 15.876 227.464 15.9134 227.357 15.8984C227.25 15.8809 227.151 15.8186 227.066 15.7638C226.966 15.7014 226.87 15.694 226.739 15.7189C226.568 15.7513 226.391 15.7563 226.216 15.7737C226.12 15.7264 226.024 15.674 225.925 15.6291C225.879 15.6067 225.822 15.5793 225.772 15.5818C225.538 15.6017 225.303 15.6316 225.069 15.659C224.834 15.6865 224.834 15.6865 224.436 15.5319C224.39 15.5145 224.329 15.4945 224.28 15.4995C223.985 15.5294 223.693 15.5668 223.398 15.5967C223.285 15.6092 223.182 15.5743 223.089 15.507C223.001 15.4397 222.894 15.4023 222.784 15.4147C222.315 15.4671 221.846 15.5169 221.377 15.5793C221.188 15.6042 221.028 15.5818 220.9 15.492C220.751 15.3898 220.584 15.4147 220.41 15.4347C220.016 15.4845 220.012 15.482 219.76 15.3549C219.71 15.33 219.66 15.2826 219.614 15.2851C219.205 15.3225 218.793 15.3574 218.388 15.4172C218.175 15.4496 218.061 15.3624 217.919 15.2976C217.869 15.2751 217.816 15.2277 217.773 15.2327C217.478 15.2602 217.183 15.2851 216.896 15.335C216.608 15.3848 216.498 15.153 216.281 15.1555C215.986 15.158 215.695 15.2153 215.403 15.2502C215.169 15.2776 214.934 15.305 214.7 15.3325C214.465 15.3599 214.231 15.3823 213.996 15.4147C213.872 15.4322 213.779 15.4097 213.676 15.3474C213.545 15.2651 213.388 15.2003 213.246 15.1255C213.03 15.0183 213.029 15.0183 212.767 15.0482C212.71 15.0557 212.649 15.0607 212.592 15.0682C212.162 15.123 212.162 15.1181 211.615 14.961C211.59 14.9535 211.526 14.9809 211.501 15.0009C211.427 15.0657 211.359 15.1355 211.292 15.2028C211.196 15.1629 211.079 15.1405 211.015 15.0832C210.833 14.9211 210.549 15.143 210.364 14.9834C210.297 14.9236 210.18 14.8712 210.073 14.8563C209.963 14.8413 209.838 14.8762 209.725 14.8912C209.43 14.9286 209.43 14.9261 209.178 15.148C209.05 15.2577 208.865 15.2377 208.698 15.2626C208.524 15.2901 208.357 15.305 208.211 15.2028C208.08 15.1106 207.92 15.0881 207.731 15.1181C207.5 15.1555 207.262 15.1779 207.028 15.2003C206.978 15.2053 206.918 15.1929 206.868 15.1779C206.324 15.0308 206.324 15.0283 206.061 15.0607C205.944 15.0757 205.823 15.0806 205.709 15.1031C205.517 15.143 205.372 15.0906 205.233 15.0108C205.187 14.9859 205.134 14.9386 205.087 14.9411C204.853 14.9535 204.622 14.976 204.391 14.9984C204.213 15.0158 204.036 15.0258 203.865 15.0607C203.581 15.1181 203.442 14.956 203.247 14.8812C202.955 14.9136 202.661 14.9361 202.369 14.9809C202.234 15.0009 202.145 14.9934 202.042 14.9336C201.911 14.8588 201.79 14.774 201.577 14.8114C201.292 14.8613 200.994 14.8787 200.703 14.9086C200.507 14.8314 200.365 14.6743 200.084 14.7316C199.914 14.7665 199.732 14.774 199.558 14.7939C199.324 14.8214 199.089 14.8463 198.855 14.8762C198.603 14.9062 198.606 14.8987 198.219 14.7516C197.995 14.6643 197.764 14.7615 197.536 14.7765C197.359 14.789 197.27 14.9036 197.313 15.0507C197.355 15.1978 197.259 15.3125 197.096 15.3325C196.687 15.3798 196.275 15.4297 195.866 15.4721C195.817 15.477 195.756 15.4596 195.71 15.4421C195.273 15.2851 195.273 15.2876 195.077 15.31C194.786 15.3474 194.488 15.3674 194.2 15.4147C194.001 15.4471 193.855 15.3948 193.727 15.31C193.628 15.2452 193.535 15.2303 193.407 15.2452C192 15.4122 190.593 15.5668 189.189 15.7388C188.98 15.7638 188.859 15.6915 188.717 15.6242C188.667 15.6017 188.621 15.5544 188.571 15.5544C188.454 15.5544 188.337 15.5768 188.219 15.5918C187.693 15.6516 187.167 15.7239 186.638 15.7688C186.414 15.7887 186.354 15.9034 186.258 15.9981C186.183 16.0704 186.098 16.1003 185.966 16.1103C185.839 16.1203 185.746 16.1078 185.647 16.043C185.519 15.9582 185.373 15.9059 185.174 15.9408C184.943 15.9807 184.708 15.9981 184.47 16.0255C184.35 16.038 184.257 16.0829 184.218 16.1726C184.211 16.1876 184.286 16.225 184.328 16.2474C184.47 16.3222 184.605 16.4095 184.765 16.4618C184.929 16.5142 185.106 16.4543 185.277 16.4394C185.337 16.4344 185.394 16.4194 185.451 16.4219C185.504 16.4244 185.568 16.4369 185.608 16.4593C185.792 16.5715 185.988 16.6488 186.244 16.5815C186.464 16.6139 186.578 16.8208 186.858 16.766C187.029 16.7336 187.207 16.7186 187.384 16.7062C187.43 16.7037 187.48 16.7485 187.53 16.771C187.672 16.8333 187.786 16.933 187.999 16.8906C188.226 16.8458 188.468 16.8383 188.699 16.8034C188.827 16.7834 188.919 16.8009 189.019 16.8657C189.147 16.948 189.292 17.0103 189.491 16.9704C189.662 16.9355 189.843 16.928 190.017 16.9056C190.245 16.8782 190.245 16.8807 190.65 17.0352C190.696 17.0527 190.756 17.0726 190.806 17.0676C191.101 17.0377 191.393 17.0003 191.687 16.9704C191.801 16.9579 191.911 16.9904 191.99 17.0627C192.021 17.0926 192.011 17.1425 192.021 17.1848C191.435 17.2522 190.849 17.3095 190.266 17.3918C190.046 17.4242 189.946 17.3219 189.801 17.2646C189.751 17.2447 189.698 17.2023 189.651 17.2073C189.239 17.2497 188.83 17.2945 188.422 17.3494C188.294 17.3668 188.198 17.3568 188.102 17.2845C187.857 17.0926 187.558 17.1973 187.281 17.2247C187.068 17.2447 187 17.322 187.025 17.4865C187.057 17.681 187.185 17.7408 187.512 17.7059C187.629 17.6934 187.747 17.676 187.864 17.666C187.978 17.656 188.081 17.6884 188.173 17.7557C188.262 17.8231 188.368 17.858 188.479 17.848C188.713 17.8255 188.951 17.8031 189.179 17.7657C189.367 17.7358 189.523 17.7607 189.655 17.853C189.801 17.9552 189.971 17.9327 190.142 17.9103C190.54 17.8604 190.543 17.863 190.792 17.9876C190.842 18.0125 190.892 18.0599 190.938 18.0574C191.346 18.02 191.759 17.9876 192.16 17.9278C192.37 17.8979 192.491 17.9776 192.629 18.0425C192.679 18.0649 192.729 18.1148 192.775 18.1098C193.07 18.0823 193.365 18.0549 193.653 18.0075C193.788 17.9851 193.869 18.0001 193.979 18.0599C194.242 18.207 194.249 18.202 194.623 18.1546C194.736 18.1397 194.861 18.1123 194.967 18.1322C195.074 18.1521 195.159 18.2245 195.259 18.2693C195.305 18.2893 195.362 18.3167 195.411 18.3117C195.646 18.2918 195.88 18.2619 196.115 18.2344C196.335 18.207 196.335 18.2095 196.748 18.3641C196.915 18.4289 197.089 18.374 197.256 18.3541C197.437 18.3317 197.6 18.3317 197.739 18.4289C197.878 18.5261 198.045 18.5211 198.222 18.5012C198.389 18.4812 198.56 18.4264 198.73 18.4937C199.121 18.6483 199.121 18.6508 199.363 18.6208C199.715 18.5785 200.063 18.5386 200.418 18.5012C200.464 18.4962 200.525 18.5261 200.571 18.5461C200.671 18.5909 200.756 18.6657 200.862 18.6832C200.969 18.7031 201.093 18.6732 201.207 18.6582C201.573 18.6109 201.598 18.5934 201.843 18.758C202.049 18.8926 202.305 18.6981 202.497 18.8527C202.607 18.94 202.756 19.0098 202.963 18.9674C203.133 18.9325 203.311 18.9225 203.488 18.9026C203.769 18.8701 203.769 18.8727 204.125 19.0223C204.171 19.0422 204.231 19.0671 204.277 19.0621C204.512 19.0422 204.75 19.0247 204.977 18.9799C205.244 18.9275 205.414 19.0223 205.613 19.1145C205.77 19.1868 205.955 19.1269 206.122 19.102C206.303 19.0771 206.466 19.0846 206.601 19.1818C206.743 19.2815 206.91 19.269 207.088 19.2491C207.255 19.2316 207.426 19.1743 207.596 19.2441C207.962 19.3987 207.962 19.3987 208.229 19.3688C208.463 19.3413 208.698 19.3114 208.932 19.2915C208.979 19.2865 209.035 19.3189 209.082 19.3413C209.181 19.3862 209.266 19.461 209.373 19.4785C209.48 19.4959 209.604 19.4635 209.721 19.4511C209.838 19.4386 209.963 19.4012 210.069 19.4161C210.176 19.4311 210.276 19.4934 210.361 19.5483C210.46 19.6131 210.553 19.6206 210.688 19.5956C210.858 19.5632 211.036 19.5558 211.21 19.5383C211.306 19.5857 211.406 19.633 211.498 19.6854C211.594 19.7402 211.697 19.7353 211.828 19.7178C212.265 19.658 212.269 19.6655 212.635 19.82C212.802 19.8898 212.976 19.8325 213.143 19.815C213.321 19.7951 213.488 19.7851 213.626 19.8849C213.761 19.9796 213.929 19.992 214.106 19.9621C214.22 19.9422 214.341 19.9297 214.458 19.9223C214.511 19.9198 214.575 19.9297 214.614 19.9497C214.803 20.0544 214.987 20.1491 215.247 20.0818C215.474 20.1018 215.588 20.3062 215.862 20.2663C216.093 20.2314 216.334 20.2239 216.562 20.179C216.771 20.1391 216.921 20.209 217.027 20.2962C217.219 20.4508 217.489 20.2414 217.681 20.3935C217.791 20.4807 217.933 20.5505 218.146 20.5131C218.381 20.4732 218.456 20.5256 218.523 20.6826C218.562 20.7724 218.555 20.8447 218.484 20.9145C218.413 20.9868 218.335 20.9743 218.221 20.8921C218.09 20.7998 217.933 20.7823 217.745 20.8023C217.56 20.8222 217.446 20.6926 217.294 20.6428C217.141 20.5904 216.96 20.6777 216.8 20.6104C216.423 20.4533 216.423 20.4533 216.167 20.4832C215.993 20.5031 215.812 20.5131 215.641 20.548C215.439 20.5904 215.307 20.5131 215.169 20.4433C215.119 20.4184 215.069 20.371 215.026 20.3735C214.618 20.4109 214.206 20.4458 213.801 20.5081C213.587 20.5405 213.474 20.4508 213.332 20.3885C213.282 20.366 213.228 20.3211 213.186 20.3261C212.834 20.361 212.486 20.4059 212.134 20.4483C212.066 20.5156 211.992 20.5804 211.928 20.6527C211.86 20.7275 211.768 20.7599 211.633 20.7574C211.409 20.7574 211.189 20.8621 210.965 20.73C210.734 20.5954 210.716 20.6029 210.492 20.6353C210.208 20.6777 209.906 20.6677 209.639 20.7649C209.593 20.7824 209.544 20.8297 209.544 20.8646C209.54 20.8871 209.615 20.9195 209.661 20.9394C209.817 20.9993 209.998 20.912 210.155 20.9743C210.258 21.0142 210.343 21.074 210.446 21.1164C210.489 21.1339 210.553 21.1314 210.61 21.1289C210.67 21.1264 210.727 21.109 210.784 21.1115C210.837 21.114 210.894 21.1289 210.937 21.1513C211.132 21.2461 211.338 21.3333 211.512 21.4455C211.683 21.5552 211.843 21.4804 212.013 21.4754C212.695 21.65 212.696 21.6525 213.154 21.5976C213.268 21.5851 213.385 21.5702 213.502 21.5727C213.552 21.5727 213.598 21.6175 213.648 21.6425C213.79 21.7173 213.925 21.7846 214.124 21.7447C214.295 21.7098 214.476 21.7023 214.65 21.6799C214.884 21.6524 214.884 21.6524 215.282 21.8095C215.382 21.8494 215.488 21.8444 215.616 21.8245C215.727 21.807 215.84 21.8444 215.918 21.9167C215.95 21.9466 215.94 21.9965 215.95 22.0389C215.599 22.0788 215.243 22.1062 214.902 22.166C214.682 22.2034 214.582 22.0962 214.437 22.0389C214.387 22.0189 214.334 21.9766 214.287 21.9816C213.939 22.0189 213.591 22.0613 213.243 22.1112C213.2 22.1162 213.147 22.1735 213.143 22.2084C213.136 22.2732 213.225 22.3356 213.353 22.3331C213.523 22.3306 213.69 22.2882 213.843 22.3904C213.971 22.4801 214.131 22.5201 214.319 22.4802C214.433 22.4577 214.554 22.4577 214.668 22.4378C214.97 22.3779 215.243 22.3904 215.471 22.5599C215.645 22.6048 215.815 22.5624 215.982 22.54C216.107 22.5226 216.228 22.5051 216.316 22.5525C216.505 22.6522 216.69 22.7519 216.949 22.6846C217.23 22.7544 217.443 22.9015 217.677 23.0212C217.788 23.0785 217.873 23.1109 218.001 23.0735C218.054 23.0586 218.118 23.0585 218.175 23.0511C218.292 23.0386 218.417 23.0012 218.523 23.0162C218.63 23.0336 218.719 23.1059 218.815 23.1508C218.861 23.1732 218.914 23.2106 218.96 23.2081C219.138 23.1957 219.312 23.1707 219.486 23.1508C219.66 23.1333 219.834 23.1159 220.008 23.0985C220.154 23.1633 220.303 23.2281 220.449 23.2929C220.684 23.2655 220.918 23.2381 221.149 23.2131C221.409 23.1832 221.408 23.1857 221.782 23.3403C221.949 23.4101 222.126 23.3652 222.286 23.3328C222.553 23.2804 222.73 23.3752 222.919 23.4749C222.958 23.4949 223.029 23.5073 223.075 23.4973C223.26 23.4624 223.42 23.4899 223.555 23.5821C223.651 23.6469 223.747 23.6769 223.864 23.6644C224.273 23.617 224.681 23.5671 225.09 23.5248C225.14 23.5198 225.196 23.5422 225.243 23.5622C225.605 23.7142 225.609 23.7217 225.875 23.6818C226.113 23.6469 226.334 23.632 226.522 23.7691C226.561 23.799 226.621 23.8414 226.664 23.8389C226.955 23.814 227.25 23.7865 227.538 23.7442C227.67 23.7242 227.762 23.7317 227.865 23.789C227.997 23.8613 228.114 23.9486 228.331 23.9162C228.931 23.824 228.935 23.8389 229.645 24.0109C229.695 24.0234 229.763 24.0034 229.82 23.9935C229.94 23.9685 230.029 24.0034 230.136 24.0608C230.374 24.1904 230.381 24.1829 230.608 24.1555C230.783 24.1331 230.964 24.1281 231.134 24.0907C231.397 24.0359 231.571 24.1331 231.767 24.2253C231.923 24.2976 232.104 24.2378 232.271 24.2154C232.453 24.1904 232.616 24.1979 232.751 24.2926C232.844 24.3574 232.943 24.3924 233.06 24.3799C233.469 24.335 233.878 24.2852 234.286 24.2403C234.336 24.2353 234.396 24.2552 234.443 24.2727C234.848 24.4273 234.848 24.4348 235.249 24.3774C235.377 24.36 235.484 24.355 235.58 24.4073C235.672 24.4572 235.772 24.5045 235.868 24.5519C236.042 24.5345 236.219 24.5295 236.39 24.4996C236.521 24.4771 236.614 24.4871 236.717 24.5395C236.852 24.6068 236.966 24.7239 237.179 24.6666C237.289 24.6392 237.417 24.6467 237.527 24.6217C237.658 24.5893 237.747 24.6093 237.85 24.6741C237.978 24.7514 238.11 24.8311 238.316 24.7912C238.543 24.7464 238.785 24.7389 239.016 24.704C239.144 24.684 239.233 24.704 239.336 24.7688C239.464 24.8511 239.609 24.9035 239.808 24.871C240.213 24.8087 240.217 24.8212 240.611 24.9782C240.711 25.0181 240.818 25.0131 240.945 24.9932C241.056 24.9757 241.169 25.0131 241.247 25.0854C241.322 25.1652 241.315 25.2151 241.322 25.2575ZM209.657 2.77225C209.54 2.78472 209.423 2.79968 209.252 2.58278C209.241 2.54538 209.249 2.50051 209.224 2.4681C209.167 2.40079 209.078 2.35342 208.971 2.34595C208.78 2.33597 208.549 2.42072 208.552 2.48554C208.556 2.54039 208.616 2.58775 208.733 2.63263C208.783 2.65008 208.822 2.68 208.868 2.69994C209.003 2.75729 209.11 2.86949 209.305 2.81215C209.27 2.65758 209.288 2.73487 209.305 2.81215C209.288 2.90689 209.341 2.97421 209.469 3.00163C209.504 3.00911 209.558 3.00411 209.586 2.98915C209.696 2.9343 209.714 2.85953 209.632 2.66257C209.618 2.69498 209.629 2.7523 209.661 2.76726C209.693 2.78222 209.771 2.76977 209.81 2.75232C209.91 2.70495 209.959 2.64262 209.934 2.59026C209.92 2.56284 209.853 2.52794 209.81 2.52794C209.735 2.52794 209.668 2.58278 209.657 2.77225ZM238.39 31.6847C238.131 31.732 237.833 31.7146 237.573 31.8118C237.527 31.8293 237.481 31.8741 237.477 31.909C237.474 31.9315 237.545 31.9639 237.587 31.9813C237.683 32.0212 237.79 32.0088 237.914 31.9963C238.103 31.9788 238.213 32.0935 238.359 32.1509C238.405 32.1683 238.465 32.1808 238.515 32.1758C238.803 32.1459 239.087 32.1135 239.375 32.0786C239.424 32.0711 239.478 32.0536 239.521 32.0312C239.663 31.9589 239.648 31.9115 239.51 31.8567C239.357 31.7969 239.236 31.6971 239.08 31.6497C238.856 31.5824 238.629 31.6722 238.39 31.6847ZM218.21 33.5046C218.036 33.5246 217.866 33.5445 217.692 33.5645C217.635 33.5719 217.574 33.5744 217.521 33.5844C217.411 33.6018 217.329 33.6542 217.276 33.7365C217.358 33.8013 217.457 33.8387 217.567 33.8312C217.741 33.8162 217.912 33.7838 218.086 33.7764C218.274 33.7664 218.385 33.8786 218.53 33.9359C218.576 33.9534 218.633 33.9559 218.687 33.9584C218.95 33.9683 219.109 33.8387 219.06 33.6567C219.024 33.5146 218.889 33.4298 218.726 33.4473C218.555 33.4647 218.381 33.4847 218.21 33.5046ZM239.606 27.9999C239.648 27.9575 239.695 27.9276 239.716 27.8902C239.78 27.763 239.755 27.6683 239.638 27.5686C239.496 27.4464 239.322 27.5287 239.162 27.5411C239.123 27.5436 239.08 27.596 239.059 27.6284C239.044 27.6508 239.044 27.6982 239.066 27.7107C239.24 27.8104 239.425 27.9026 239.606 27.9999ZM208.78 20.6353C208.609 20.6552 208.435 20.6702 208.264 20.6976C208.222 20.7051 208.183 20.7524 208.158 20.7849C208.112 20.8447 208.161 20.927 208.307 20.9344C208.474 20.9444 208.648 20.902 208.822 20.8821C209.042 20.8572 209.174 20.7649 209.092 20.6851C209.014 20.6078 208.908 20.5929 208.78 20.6353ZM21.7293 15.3075C21.843 15.2951 21.9603 15.2851 22.074 15.2676C22.1806 15.2502 22.2624 15.1953 22.3157 15.1131C22.2269 15.0482 22.1273 15.0133 22.0172 15.0208C21.8431 15.0358 21.6725 15.0557 21.5019 15.0807C21.3953 15.0956 21.2923 15.1505 21.2675 15.2352C21.2426 15.3 21.4806 15.3375 21.7293 15.3075ZM193.752 14.9236C193.798 14.946 193.844 14.9909 193.891 14.9909C194.004 14.9909 194.122 14.9759 194.228 14.951C194.274 14.941 194.31 14.8962 194.331 14.8613C194.345 14.8388 194.342 14.7989 194.321 14.779C194.218 14.6593 193.805 14.7017 193.738 14.8388C193.731 14.8638 193.748 14.8962 193.752 14.9236ZM182.541 1.27141C182.552 1.3113 182.555 1.35118 182.569 1.39107C182.598 1.46586 182.676 1.52072 182.79 1.55812C182.878 1.49579 182.925 1.426 182.921 1.3512C182.918 1.31131 182.907 1.2714 182.893 1.23151C182.864 1.15672 182.786 1.10189 182.672 1.06449C182.584 1.12433 182.541 1.19412 182.541 1.27141ZM247.818 33.9384C247.786 33.9708 247.754 34.0032 247.718 34.0332C247.814 34.1055 247.903 34.1279 247.971 34.088C248.013 34.0631 248.038 34.0257 248.07 33.9933C247.974 33.921 247.889 33.901 247.818 33.9384ZM245.608 34.2775C245.654 34.2999 245.696 34.3298 245.746 34.3448C245.828 34.3697 245.902 34.3273 245.959 34.2376C245.913 34.2151 245.871 34.1852 245.821 34.1703C245.739 34.1453 245.664 34.1877 245.608 34.2775ZM247.008 33.8213C246.983 33.8811 247.033 33.9309 247.164 33.9733C247.196 33.9409 247.239 33.911 247.26 33.8761C247.295 33.8188 247.235 33.7664 247.107 33.7265C247.072 33.7564 247.04 33.7888 247.008 33.8213ZM239.506 31.1337C239.481 31.1935 239.531 31.2434 239.663 31.2858C239.695 31.2534 239.737 31.2234 239.759 31.1885C239.794 31.1312 239.734 31.0788 239.606 31.039C239.57 31.0689 239.538 31.1013 239.506 31.1337ZM229.287 13.4926C229.255 13.525 229.223 13.5574 229.187 13.5873C229.283 13.6596 229.372 13.682 229.439 13.6421C229.482 13.6172 229.507 13.5798 229.539 13.5474C229.443 13.4751 229.358 13.4552 229.287 13.4926ZM219.497 4.13347C219.582 4.15093 219.653 4.11604 219.714 4.02379C219.667 4.00135 219.625 3.97143 219.575 3.95647C219.493 3.93154 219.419 3.97394 219.362 4.06369C219.408 4.08862 219.454 4.11104 219.497 4.13347ZM214.298 3.5476C214.266 3.58001 214.234 3.61242 214.199 3.64234C214.295 3.71464 214.383 3.73707 214.451 3.69718C214.494 3.67225 214.518 3.63485 214.55 3.60244C214.454 3.53014 214.369 3.5127 214.298 3.5476ZM179.044 1.26891C179.012 1.30132 178.98 1.33373 178.945 1.36365C179.041 1.43595 179.13 1.45838 179.197 1.41849C179.24 1.39356 179.265 1.35616 179.297 1.32375C179.201 1.25145 179.115 1.23401 179.044 1.26891ZM3.50721 21.5527C3.46102 21.5303 3.41486 21.5079 3.37222 21.4829C3.26917 21.5502 3.2372 21.6126 3.29406 21.6599C3.32959 21.6899 3.38285 21.7073 3.42905 21.7297C3.53565 21.6624 3.56051 21.6026 3.50721 21.5527Z" fill="#FFE492"/>
<path d="M24.1169 12.7495C23.7082 12.7969 23.3031 12.8567 22.8945 12.8866C22.6777 12.9016 22.5996 13.0088 22.5108 13.1085C22.4397 13.1883 22.358 13.2132 22.2265 13.2282C21.1178 13.3503 20.0127 13.48 18.9075 13.6071C18.7689 13.5747 18.7014 13.5224 18.7334 13.4601C18.7512 13.4227 18.7938 13.3703 18.8365 13.3653C19.5934 13.2731 20.3467 13.1783 21.1071 13.106C21.3239 13.0861 21.3843 12.9764 21.4945 12.8866C21.53 12.8567 21.5584 12.8118 21.6046 12.7944C21.6508 12.7744 21.7183 12.7769 21.7788 12.772C23.0011 12.6299 24.2236 12.4903 25.4459 12.3481C25.5845 12.3806 25.652 12.4329 25.6201 12.4952C25.6023 12.5326 25.5596 12.585 25.517 12.59C25.0479 12.6423 24.5824 12.6947 24.1169 12.7495Z" fill="#FFE492"/>
<path d="M247.864 26.0253C247.679 26.0552 247.445 26.0976 247.253 25.953C247.161 25.8832 247.061 25.8607 246.94 25.8757C246.766 25.9006 246.589 25.9206 246.411 25.9355C246.365 25.938 246.304 25.9106 246.258 25.8882C246.159 25.8433 246.073 25.7685 245.967 25.7486C245.86 25.7286 245.732 25.7835 245.622 25.771C245.476 25.7535 245.416 25.6862 245.455 25.6239C245.476 25.589 245.519 25.5391 245.565 25.5317C246.223 25.4394 246.226 25.4394 246.411 25.5292C246.553 25.599 246.684 25.6762 246.887 25.6339C247.058 25.5989 247.239 25.5915 247.413 25.569C247.655 25.5391 247.655 25.5416 248.045 25.6987C248.145 25.7386 248.252 25.7361 248.379 25.7136C248.49 25.6962 248.596 25.7361 248.685 25.8034C248.628 25.8882 248.546 25.943 248.436 25.958C248.259 25.9829 248.085 26.0004 247.864 26.0253Z" fill="#FFE492"/>
<path d="M241.322 25.2572C241.77 25.2048 242.221 25.16 242.669 25.1001C242.854 25.0752 243 25.1026 243.127 25.1874C243.266 25.2796 243.422 25.2722 243.593 25.2547C243.7 25.2447 243.803 25.2846 243.874 25.3544C243.902 25.3818 243.895 25.4317 243.906 25.4716C243.515 25.5165 243.12 25.5638 242.726 25.6037C242.68 25.6087 242.623 25.5838 242.58 25.5639C242.484 25.5215 242.403 25.4467 242.299 25.4317C242.079 25.3968 241.859 25.4641 241.635 25.4766C241.528 25.4816 241.425 25.4442 241.354 25.3769C241.326 25.3445 241.333 25.2971 241.322 25.2572Z" fill="#FFE492"/>
<path d="M79.5163 3.82145C79.9818 3.7666 80.4473 3.71427 80.9128 3.65942C81.0514 3.69433 81.1153 3.74418 81.0869 3.80651C81.0691 3.8439 81.0265 3.89626 80.9838 3.90125C80.0528 4.01344 79.1219 4.12062 78.1944 4.22783C78.0558 4.19292 77.9919 4.14307 78.0203 4.08074C78.0381 4.04335 78.0807 3.99099 78.1234 3.986C78.5853 3.92866 79.0508 3.8763 79.5163 3.82145Z" fill="#FFE492"/>
<path d="M7.78586 17.6759C7.57621 17.6809 7.35594 17.7731 7.12141 17.7033C7.07522 17.6909 7.01124 17.651 7.01479 17.6285C7.0219 17.5911 7.06455 17.5438 7.11074 17.5288C7.31329 17.4665 7.56561 17.459 7.66866 17.2845C7.71841 17.1947 7.8108 17.1648 7.93517 17.1474C8.06664 17.1274 8.15901 17.1349 8.26206 17.1872C8.39709 17.2546 8.51081 17.3792 8.72402 17.3144C8.73468 17.3543 8.75949 17.3992 8.74883 17.4365C8.73817 17.4739 8.69205 17.5089 8.64941 17.5363C8.61033 17.5612 8.55697 17.5836 8.50722 17.5911C8.2727 17.621 8.03816 17.646 7.78586 17.6759Z" fill="#FFE492"/>
<path d="M192.594 17.1744C192.768 17.1544 192.949 17.1445 193.12 17.1096C193.255 17.0821 193.34 17.0996 193.447 17.1594C193.628 17.2641 193.638 17.2542 194.083 17.2691C194.132 17.2716 194.193 17.309 194.221 17.3414C194.239 17.3589 194.214 17.4063 194.193 17.4312C194.161 17.4636 194.115 17.506 194.072 17.506C193.791 17.5134 193.507 17.6605 193.233 17.491C193.095 17.4063 192.942 17.3663 192.754 17.4037C192.64 17.4262 192.519 17.4362 192.402 17.4461C192.288 17.4561 192.171 17.4287 192.1 17.3539C191.997 17.2442 192.057 17.2018 192.242 17.2093C192.359 17.2143 192.476 17.1869 192.594 17.1744Z" fill="#FFE492"/>
<path d="M256.996 34.3603C257.22 34.3354 257.444 34.3055 257.671 34.2855C257.717 34.2805 257.774 34.308 257.817 34.3254C257.988 34.4002 257.963 34.5273 257.97 34.6395C257.973 34.7567 257.579 34.8514 257.412 34.7716C257.227 34.6819 257.06 34.5797 256.804 34.6345C256.705 34.6545 256.588 34.6096 256.524 34.5373C256.428 34.4326 256.481 34.3902 256.662 34.3977C256.769 34.4027 256.882 34.3752 256.996 34.3603Z" fill="#FFE492"/>
<path d="M144.182 0.426582C144.413 0.399158 144.644 0.356796 144.875 0.354303C145.01 0.35181 145.077 0.434067 145.045 0.493901C145.027 0.531297 144.985 0.583653 144.942 0.58864C144.48 0.648474 144.018 0.698344 143.556 0.753192C143.421 0.718289 143.354 0.665943 143.386 0.606108C143.404 0.568712 143.446 0.518849 143.489 0.51137C143.72 0.476466 143.951 0.454006 144.182 0.426582Z" fill="#FFE492"/>
<path d="M252.565 26.2445C252.789 26.2196 253.016 26.1822 253.24 26.1697C253.357 26.1648 253.45 26.2221 253.464 26.2869C253.471 26.3168 253.414 26.3692 253.368 26.3816C253.048 26.4664 252.703 26.4764 252.369 26.5188C252.263 26.5312 252.149 26.4913 252.085 26.4215C251.989 26.3143 252.042 26.2745 252.224 26.2819C252.337 26.2844 252.451 26.257 252.565 26.2445Z" fill="#FFE492"/>
<path d="M198.464 17.5116C198.578 17.4992 198.695 17.4668 198.805 17.4767C198.922 17.4892 198.997 17.5615 199.033 17.6338C199.072 17.7161 199.068 17.7934 199.033 17.8632C198.976 17.9828 198.919 17.9779 198.787 17.8981C198.585 17.7734 198.571 17.7884 198.169 17.7934C198.123 17.7934 198.066 17.756 198.03 17.7235C197.977 17.6737 198.006 17.5964 198.13 17.5515C198.222 17.5191 198.35 17.5241 198.464 17.5116Z" fill="#FFE492"/>
<path d="M244.24 25.4267C244.407 25.4067 244.574 25.3743 244.741 25.3743C244.858 25.3719 244.951 25.4292 244.961 25.4915C244.965 25.5214 244.912 25.5713 244.869 25.5863C244.666 25.6536 244.439 25.6586 244.219 25.681C244.116 25.691 244.002 25.6511 243.938 25.5813C243.842 25.4766 243.899 25.4292 244.073 25.4441C244.126 25.4491 244.183 25.4342 244.24 25.4267Z" fill="#FFE492"/>
<path d="M217.955 22.3681C217.706 22.3981 217.471 22.3607 217.489 22.2959C217.514 22.2111 217.617 22.1562 217.724 22.1413C217.894 22.1163 218.065 22.0964 218.239 22.0814C218.349 22.0715 218.449 22.1089 218.537 22.1737C218.484 22.2535 218.402 22.3108 218.296 22.3282C218.186 22.3457 218.068 22.3557 217.955 22.3681Z" fill="#FFE492"/>
<path d="M216.324 22.049C216.491 22.0291 216.658 21.9967 216.825 21.9967C216.942 21.9942 217.035 22.0515 217.045 22.1138C217.049 22.1437 216.996 22.1936 216.953 22.2086C216.75 22.2759 216.523 22.2809 216.303 22.3033C216.2 22.3133 216.086 22.2734 216.022 22.2036C215.926 22.0989 215.983 22.0515 216.157 22.0665C216.21 22.0715 216.267 22.0565 216.324 22.049Z" fill="#FFE492"/>
<path d="M196.449 17.4915C196.616 17.4715 196.783 17.4391 196.95 17.4366C197.067 17.4341 197.16 17.4915 197.17 17.5538C197.174 17.5837 197.121 17.6311 197.078 17.6485C196.875 17.7159 196.648 17.7208 196.428 17.7433C196.325 17.7533 196.211 17.7134 196.147 17.6435C196.051 17.5388 196.108 17.4915 196.282 17.5064C196.335 17.5114 196.392 17.4965 196.449 17.4915Z" fill="#FFE492"/>
<path d="M195.514 17.3444C195.692 17.3245 195.749 17.312 195.806 17.312C195.912 17.312 196.022 17.3419 196.086 17.4142C196.182 17.5189 196.126 17.5489 195.951 17.5539C195.728 17.5589 195.507 17.6112 195.283 17.6212C195.166 17.6262 195.074 17.5663 195.067 17.504C195.063 17.4741 195.116 17.4217 195.159 17.4117C195.308 17.3743 195.472 17.3519 195.514 17.3444Z" fill="#FFE492"/>
<path d="M214.877 2.67758C214.763 2.69005 214.643 2.72495 214.536 2.71249C214.394 2.69504 214.337 2.62773 214.373 2.5654C214.394 2.5305 214.433 2.48064 214.476 2.47316C214.703 2.43826 214.934 2.4158 215.161 2.39087C215.296 2.42827 215.357 2.48062 215.321 2.54294C215.3 2.57785 215.261 2.62522 215.218 2.63519C215.108 2.66012 214.991 2.66512 214.877 2.67758Z" fill="#FFE492"/>
<path d="M76.9673 4.1161C77.0774 4.11361 77.1769 4.14602 77.2622 4.20834C77.2089 4.28812 77.1307 4.34048 77.0241 4.36291C76.9708 4.37289 76.9104 4.38036 76.8536 4.38285C76.7434 4.38783 76.6439 4.35293 76.5586 4.2906C76.6119 4.21083 76.6936 4.15847 76.7966 4.13603C76.8499 4.12606 76.9104 4.12358 76.9673 4.1161Z" fill="#FFE492"/>
<path d="M251.351 26.2346C251.347 26.1624 251.564 26.0801 251.759 26.0826C251.862 26.0851 251.969 26.12 252.029 26.1873C252.122 26.2895 252.068 26.3294 251.894 26.3219C251.788 26.3169 251.674 26.3593 251.567 26.3518C251.447 26.3493 251.376 26.2945 251.351 26.2346Z" fill="#FFE492"/>
<path d="M199.494 17.8131C199.49 17.7857 199.472 17.7533 199.483 17.7284C199.55 17.5912 199.959 17.5489 200.066 17.6685C200.083 17.691 200.091 17.7283 200.076 17.7508C200.055 17.7857 200.016 17.8306 199.973 17.8405C199.863 17.8655 199.749 17.8779 199.636 17.8804C199.586 17.8804 199.54 17.838 199.494 17.8131Z" fill="#FFE492"/>
<path d="M9.05014 17.2768C8.63083 17.3292 8.62373 17.3242 8.69835 17.1995C8.76587 17.0873 8.89026 17.02 9.07148 17.02C9.12478 17.02 9.18162 17.0151 9.22781 17.025C9.27756 17.0375 9.34867 17.0624 9.35933 17.0923C9.38065 17.1497 9.32019 17.212 9.21359 17.2544C9.16739 17.2743 9.107 17.2694 9.05014 17.2768Z" fill="#FFE492"/>
<path d="M82.2164 3.76457C82.092 3.80695 81.9855 3.792 81.9073 3.71222C81.8291 3.63244 81.9535 3.53769 82.1702 3.51526C82.2271 3.51027 82.2875 3.49034 82.3408 3.50031C82.3941 3.50779 82.4474 3.53768 82.4794 3.5676C82.5363 3.61746 82.5007 3.6848 82.387 3.74214C82.3408 3.76457 82.2732 3.75958 82.2164 3.76457Z" fill="#FFE492"/>
<path d="M250.61 26.0471C250.642 26.0147 250.674 25.9823 250.709 25.9524C250.841 25.9948 250.898 26.0446 250.862 26.102C250.841 26.1369 250.798 26.1668 250.766 26.1992C250.635 26.1568 250.582 26.1045 250.61 26.0471Z" fill="#FFE492"/>
<path d="M14.6797 45.6584C14.6797 45.6284 14.7294 45.5811 14.7685 45.5711C14.8431 45.5536 14.9355 45.5885 14.9995 45.6584C15.0883 45.7581 15.035 45.8104 14.8716 45.783C14.7579 45.7631 14.6797 45.7132 14.6797 45.6584Z" fill="#FFE492"/>
<path d="M200.94 15.4921C200.987 15.5146 201.033 15.537 201.076 15.5619C201.015 15.6542 200.94 15.6941 200.862 15.6691C200.813 15.6542 200.77 15.6243 200.724 15.6018C200.784 15.5096 200.855 15.4747 200.94 15.4921Z" fill="#FFE492"/>
<path d="M199.711 15.3803C199.782 15.3429 199.868 15.3629 199.967 15.4352C199.935 15.4676 199.907 15.505 199.868 15.5299C199.8 15.5698 199.711 15.5498 199.615 15.475C199.644 15.4451 199.676 15.4127 199.711 15.3803Z" fill="#FFE492"/>
<path d="M198.769 15.4898C198.816 15.5123 198.862 15.5347 198.905 15.5597C198.844 15.6519 198.773 15.6918 198.691 15.6668C198.642 15.6519 198.599 15.622 198.553 15.5995C198.613 15.5073 198.684 15.4699 198.769 15.4898Z" fill="#FFE492"/>
<path d="M198.076 15.3577C198.129 15.4075 198.101 15.4673 197.998 15.5347C197.951 15.5122 197.898 15.4948 197.863 15.4649C197.806 15.4175 197.834 15.3552 197.941 15.2878C197.983 15.3128 198.03 15.3352 198.076 15.3577Z" fill="#FFE492"/>
</svg>
