<svg width="357" height="30" viewBox="0 0 357 30" fill="none" xmlns="http://www.w3.org/2000/svg">
<path d="M333.961 15.9458C333.475 15.9703 332.983 15.9872 332.506 16.0239C332.196 16.0469 332.063 15.9795 331.857 15.9443C331.788 15.932 331.714 15.9075 331.65 15.9106C331.168 15.9351 330.686 15.9627 330.204 15.9902C330.057 16.05 329.964 16.1296 329.737 16.1587C329.516 16.1863 329.255 16.1863 329.01 16.2001C328.685 16.2169 328.36 16.2338 328.036 16.2491C327.874 16.2568 327.741 16.2859 327.687 16.341C327.677 16.3502 327.785 16.3732 327.844 16.387C328.041 16.4329 328.232 16.485 328.449 16.5202C328.655 16.5539 328.911 16.4988 329.132 16.5417C329.629 16.6382 329.634 16.6367 330.013 16.6183C330.337 16.6014 330.662 16.5831 330.986 16.5708C331.05 16.5677 331.124 16.5907 331.193 16.603C331.399 16.6367 331.532 16.7133 331.837 16.6842C332.068 16.6612 332.324 16.6566 332.565 16.6443C332.767 16.6887 332.953 16.7393 333.17 16.7745C333.371 16.8082 333.43 16.8343 333.322 16.8787C333.224 16.9201 333.086 16.9369 332.904 16.94C332.742 16.9415 332.58 16.9553 332.417 16.9629C332.334 16.9675 332.255 16.9706 332.176 16.9752C331.867 16.9921 331.867 16.992 331.301 16.894C331.08 16.8557 330.829 16.9093 330.618 16.8726C330.475 16.8481 330.352 16.8113 330.214 16.7853C330.155 16.7745 330.062 16.773 329.988 16.7761C329.742 16.7868 329.496 16.7944 329.26 16.8144C329.093 16.8281 328.995 16.871 329.014 16.9139C329.019 16.9308 329.137 16.9553 329.206 16.9568C329.364 16.9599 329.531 16.9384 329.683 16.9492C329.831 16.9599 329.983 16.9905 330.091 17.0242C330.313 17.0947 330.563 17.0319 330.775 17.0503C330.996 17.0702 331.178 17.1314 331.39 17.1682C331.444 17.1774 331.547 17.1621 331.631 17.1575C331.871 17.1468 332.113 17.1376 332.353 17.1269C332.555 17.1713 332.771 17.2111 332.953 17.2617C333.283 17.3536 333.637 17.3888 334.065 17.3444C334.306 17.3198 334.542 17.329 334.734 17.3888C334.93 17.4501 335.156 17.4439 335.407 17.4317C335.638 17.4194 335.874 17.3857 336.11 17.4286C336.622 17.5236 336.627 17.5282 337.232 17.4914C337.414 17.4807 337.551 17.4776 337.689 17.5129C337.817 17.545 337.955 17.5726 338.087 17.6032C338.328 17.5925 338.574 17.5818 338.815 17.5695C339.125 17.5527 339.297 17.5741 339.371 17.6599C339.415 17.712 339.435 17.7595 339.543 17.7947C339.671 17.8376 339.808 17.8361 339.995 17.8238C340.172 17.8131 340.3 17.7963 340.374 17.7411C340.403 17.7181 340.462 17.6967 340.517 17.6783C340.561 17.6645 340.63 17.6431 340.669 17.6461C340.743 17.6523 340.841 17.6691 340.866 17.689C341.107 17.8744 341.107 17.8759 341.353 17.9295C341.623 17.9893 341.903 18.0429 342.149 18.1103C342.371 18.17 342.592 18.144 342.833 18.144C343.015 18.144 343.133 18.1838 343.118 18.2236C343.108 18.2466 343.039 18.2803 342.98 18.2834C342.498 18.314 342.012 18.34 341.525 18.3615C341.466 18.3645 341.392 18.337 341.323 18.3232C341.185 18.2956 341.062 18.2527 340.915 18.2435C340.767 18.2343 340.595 18.2573 340.433 18.265C340.271 18.2726 340.099 18.2926 339.951 18.2803C339.804 18.2681 339.686 18.2236 339.548 18.1945C339.484 18.1807 339.395 18.1608 339.341 18.1654C338.982 18.2022 338.717 18.1516 338.461 18.0842C338.407 18.0704 338.314 18.0613 338.245 18.0643C337.674 18.0904 337.109 18.121 336.538 18.1501C336.307 18.1623 336.12 18.1087 336.071 18.0184C336.046 17.9678 335.997 17.9173 335.997 17.8667C335.997 17.7748 335.727 17.7243 335.53 17.735C335.206 17.7503 334.876 17.7625 334.557 17.7855C334.296 17.8039 334.075 17.7855 333.898 17.7304C333.691 17.6676 333.455 17.6798 333.219 17.6967C333.042 17.7089 332.993 17.7595 333.003 17.8866C333.012 17.9893 332.929 18.0214 332.609 18.0383C332.206 18.0597 331.798 18.0812 331.39 18.098C331.326 18.1011 331.252 18.075 331.188 18.0613C331.05 18.0337 330.927 17.9893 330.78 17.9801C330.632 17.9693 330.46 17.9923 330.298 18.0015C330.136 18.0092 329.963 18.0306 329.816 18.0199C329.668 18.0092 329.545 17.9632 329.413 17.9341C329.349 17.9203 329.27 17.9004 329.206 17.9035C328.882 17.9157 328.557 17.9341 328.233 17.951C327.869 17.9694 327.869 17.9694 327.352 17.8744C327.116 17.8315 326.88 17.8652 326.649 17.8774C326.403 17.8897 326.172 17.8958 325.98 17.8345C325.852 17.7947 325.71 17.7702 325.557 17.7779C325.149 17.7963 324.746 17.8192 324.338 17.8376C324.269 17.8407 324.176 17.833 324.122 17.8192C323.861 17.7549 323.605 17.7043 323.241 17.7365C322.927 17.7641 322.587 17.7656 322.272 17.7917C322.1 17.8054 322.022 17.8545 322.056 17.8928C322.076 17.9127 322.179 17.9357 322.248 17.9357C322.405 17.9372 322.577 17.9142 322.725 17.9234C323.03 17.9418 323.182 18.0704 323.581 18.0352C323.817 18.0138 324.062 18.0061 324.308 18C324.372 17.9984 324.441 18.0276 324.51 18.0429C324.707 18.0842 324.879 18.1378 325.164 18.1103C325.4 18.0888 325.651 18.0827 325.892 18.0705C326.275 18.0505 326.275 18.0521 326.772 18.1455C327.008 18.1899 327.244 18.1547 327.475 18.144C327.647 18.1363 327.81 18.121 327.947 18.1424C328.159 18.1746 328.311 18.2481 328.572 18.2435C328.818 18.2389 329.059 18.2175 329.305 18.2098C329.457 18.2052 329.6 18.2298 329.723 18.2711C329.85 18.3125 329.988 18.3308 330.155 18.3217C330.396 18.3094 330.642 18.2941 330.888 18.2864C330.957 18.2849 331.036 18.2987 331.099 18.3109C331.237 18.3385 331.37 18.3707 331.503 18.3998C331.744 18.3906 331.99 18.3875 332.226 18.3692C332.408 18.3554 332.535 18.3615 332.683 18.3921C332.87 18.4335 333.022 18.507 333.327 18.4718C333.48 18.4549 333.657 18.4595 333.809 18.4442C333.996 18.4243 334.124 18.432 334.257 18.4779C334.507 18.5652 334.822 18.5667 335.147 18.533C335.501 18.4963 335.766 18.5392 336.032 18.6066C336.312 18.6771 336.312 18.6755 336.529 18.8455C336.592 18.8946 336.774 18.9175 336.927 18.9084C337.182 18.893 337.404 18.9007 337.591 18.9589C337.787 19.0217 338.023 19.014 338.264 18.9972C338.584 18.9742 338.904 18.9543 339.164 19.0432C339.292 19.086 339.43 19.0968 339.602 19.086C340.089 19.0585 340.581 19.0416 341.058 19.0079C341.348 18.9865 341.515 19.0355 341.712 19.0769C341.977 19.1335 342.267 19.1841 342.267 19.3051C342.267 19.325 342.336 19.348 342.395 19.3633C342.523 19.3955 342.661 19.423 342.793 19.4537C342.99 19.4996 343.182 19.5379 343.452 19.5134C343.688 19.4935 343.939 19.4874 344.18 19.4736C344.421 19.4598 344.642 19.4521 344.859 19.5103C345.11 19.5762 345.375 19.639 345.66 19.688C345.862 19.7233 346.128 19.6635 346.344 19.711C346.477 19.7401 346.604 19.7738 346.747 19.7983C346.806 19.8091 346.9 19.8014 346.978 19.7983C347.141 19.7922 347.308 19.7876 347.465 19.7723C347.647 19.7555 347.785 19.7585 347.922 19.7937C348.05 19.8259 348.178 19.8703 348.326 19.8795C348.547 19.8933 348.793 19.832 349.014 19.9025C349.127 19.9377 349.27 19.9714 349.417 19.9822C349.565 19.9929 349.737 19.9699 349.894 19.9714C349.963 19.9714 350.047 19.9959 350.086 20.0159C350.111 20.0266 350.076 20.0557 350.042 20.071C349.998 20.0894 349.934 20.1139 349.87 20.117C349.383 20.1445 348.896 20.1675 348.409 20.1936C348.119 20.2089 348.119 20.2089 347.534 20.1124C347.396 20.0894 347.244 20.094 347.072 20.1047C346.841 20.1185 346.605 20.1445 346.364 20.117C346.049 20.0128 345.66 20.0036 345.247 20.0434C345.075 20.0603 344.918 20.0603 344.79 20.0312C344.519 19.973 344.234 19.9194 343.993 19.8504C343.806 19.7968 343.718 19.7922 343.639 19.8657C343.615 19.8887 343.59 19.9132 343.595 19.9347C343.624 20.0113 343.679 20.0863 343.708 20.1629C343.718 20.1844 343.679 20.2089 343.654 20.2318C343.575 20.2962 343.472 20.2916 343.3 20.238C343.128 20.1843 342.921 20.1491 342.646 20.1736C342.41 20.1951 342.154 20.192 341.918 20.215C341.554 20.2487 341.298 20.1997 341.038 20.1338C340.984 20.12 340.89 20.1124 340.822 20.1154C340.089 20.1507 339.361 20.1905 338.628 20.2257C338.471 20.2334 338.328 20.2104 338.205 20.169C338.077 20.1277 337.935 20.1062 337.777 20.1139C337.128 20.1461 336.479 20.1752 335.83 20.215C335.565 20.2318 335.353 20.2119 335.171 20.1583C335.034 20.1185 334.906 20.1062 334.734 20.1108C334.547 20.1154 334.414 20.1307 334.321 20.1752C334.232 20.2181 334.296 20.2441 334.493 20.2778C334.704 20.3146 334.901 20.3621 335.102 20.4049C335.265 20.3988 335.427 20.3865 335.584 20.3881C335.653 20.3881 335.717 20.4157 335.786 20.431C335.983 20.4754 336.165 20.5198 336.445 20.4953C336.681 20.4739 336.932 20.4693 337.173 20.4555C337.507 20.4386 337.507 20.4386 338.048 20.5351C338.186 20.5597 338.333 20.5581 338.51 20.5443C338.663 20.5336 338.82 20.555 338.928 20.601C338.972 20.6194 338.958 20.65 338.864 20.7511C338.864 20.8262 338.968 20.7925 339.002 20.7435C339.056 20.673 338.953 20.65 338.756 20.6883C338.618 20.7159 338.55 20.7557 338.584 20.7879C338.604 20.8047 338.697 20.8262 338.864 20.7511C339.297 20.6592 339.627 20.6485 339.941 20.624C340.128 20.6102 340.246 20.6163 340.394 20.6561C340.571 20.7036 340.748 20.7542 341.038 20.7297C341.353 20.7021 341.687 20.699 342.007 20.6761C342.302 20.6546 342.454 20.722 342.641 20.7619C342.867 20.8093 343.118 20.7557 343.324 20.7833C343.541 20.8109 343.693 20.8783 343.944 20.8905C344.308 20.8492 344.539 20.9258 344.815 20.9763C345.031 21.0146 345.287 20.9809 345.518 20.964C345.778 20.9457 345.995 20.9625 346.177 21.0177C346.383 21.0805 346.614 21.0667 346.85 21.0529C347.401 21.0223 347.421 21.0177 347.74 21.1019C347.972 21.1632 348.193 21.1356 348.424 21.128C348.626 21.1693 348.822 21.2137 349.034 21.2505C349.088 21.2597 349.191 21.2444 349.275 21.2398C349.516 21.2275 349.762 21.2153 350.003 21.203C350.165 21.1954 350.337 21.1724 350.484 21.1816C350.632 21.1923 350.755 21.2367 350.888 21.2658C351.021 21.2949 351.158 21.324 351.286 21.3547C351.483 21.4006 351.67 21.4389 351.945 21.4159C352.181 21.396 352.427 21.3899 352.673 21.3761C352.983 21.3593 352.973 21.3639 353.548 21.4558C353.858 21.5063 354.178 21.445 354.492 21.4389C354.65 21.4359 354.802 21.4527 354.91 21.4971C354.955 21.5155 354.94 21.5461 354.955 21.5722C354.143 21.6135 353.327 21.6488 352.525 21.6993C352.215 21.7192 352.053 21.6641 351.886 21.6181C351.611 21.5446 351.247 21.6518 350.986 21.5569C350.829 21.5002 350.602 21.468 350.332 21.4956C350.175 21.5109 350.007 21.5094 349.845 21.5232C349.432 21.5569 349.053 21.5584 348.724 21.4527C348.611 21.4159 348.449 21.396 348.331 21.3608C348.193 21.3225 348.06 21.301 347.898 21.3087C347.165 21.3455 346.437 21.3822 345.71 21.4221C345.646 21.4251 345.582 21.4481 345.528 21.4649C345.39 21.5078 345.434 21.5415 345.655 21.5691C345.729 21.5783 345.788 21.5982 345.857 21.6135C345.99 21.6426 346.113 21.6886 346.26 21.6993C346.408 21.71 346.58 21.6886 346.742 21.6809C346.905 21.6733 347.077 21.6503 347.224 21.6595C347.372 21.6702 347.495 21.7146 347.632 21.7422C347.696 21.756 347.775 21.779 347.839 21.7774C348.163 21.7683 348.483 21.7514 348.808 21.7376C349.009 21.779 349.181 21.8387 349.422 21.8525C349.575 21.8617 349.737 21.8448 349.894 21.8479C349.963 21.8494 350.052 21.8724 350.086 21.8923C350.106 21.9046 350.042 21.9352 349.993 21.9505C349.806 22.0088 349.55 21.998 349.319 22.0164C349.068 22.0363 348.842 22.0302 348.65 21.9705C348.522 21.9306 348.38 21.9092 348.222 21.9168C347.814 21.9368 347.411 21.9597 347.003 21.9766C346.934 21.9797 346.85 21.9659 346.786 21.9551C346.27 21.8617 346.27 21.8586 345.906 21.8786C345.37 21.9077 345.37 21.9076 345.011 21.8265C344.942 21.8111 344.869 21.782 344.81 21.7836C344.239 21.8081 343.674 21.8326 343.108 21.8678C342.921 21.8785 342.793 21.8786 342.656 21.8387C342.538 21.805 342.4 21.7667 342.252 21.7575C342.1 21.7483 341.933 21.7713 341.771 21.779C341.608 21.7866 341.436 21.8065 341.294 21.7943C341.146 21.782 341.018 21.7392 340.89 21.7085C340.758 21.6764 340.615 21.6779 340.433 21.6901C339.872 21.7254 339.867 21.7208 339.312 21.6258C339.248 21.6151 339.164 21.6028 339.095 21.6059C338.687 21.6243 338.284 21.6472 337.876 21.6656C337.719 21.6733 337.566 21.6534 337.458 21.609C337.414 21.5906 337.428 21.5599 337.399 21.5002C337.364 21.4864 337.404 21.5109 337.414 21.5339C337.487 21.5308 337.576 21.5339 337.63 21.5216C337.768 21.4925 337.836 21.4542 337.802 21.4221C337.782 21.4052 337.689 21.3838 337.63 21.3838C337.522 21.3838 337.428 21.4175 337.399 21.5002C337.089 21.5507 336.76 21.5615 336.44 21.586C336.253 21.6013 336.135 21.5936 335.988 21.5538C335.81 21.5048 335.629 21.4573 335.338 21.4818C335.024 21.5094 334.689 21.514 334.365 21.5354C333.991 21.5599 333.829 21.4221 333.514 21.4251C333.189 21.4282 332.865 21.4542 332.54 21.4726C332.255 21.4879 332.255 21.4879 331.665 21.3884C331.449 21.3516 331.193 21.4052 330.981 21.3669C330.839 21.3424 330.716 21.3056 330.578 21.2796C330.519 21.2689 330.426 21.2689 330.352 21.2719C329.944 21.2903 329.531 21.3026 329.137 21.3363C328.69 21.3761 328.351 21.3332 328.031 21.2428C327.628 21.2597 327.22 21.2689 326.821 21.298C326.531 21.3194 326.364 21.2689 326.167 21.2275C326.098 21.2137 326.039 21.1908 325.966 21.1846C325.892 21.1785 325.803 21.1908 325.725 21.1953C325.4 21.2122 325.066 21.2199 324.751 21.2474C324.362 21.2827 324.215 21.1571 323.915 21.1417C323.713 21.2168 323.605 21.3194 323.207 21.3271C322.882 21.3332 322.558 21.3577 322.233 21.3746C322.071 21.3822 321.909 21.3914 321.746 21.3991C321.486 21.4129 321.363 21.4726 321.417 21.5645C321.446 21.6151 321.471 21.6656 321.495 21.7162C321.545 21.8065 321.422 21.8831 321.215 21.8939C320.645 21.923 320.079 21.9536 319.509 21.9796C319.356 21.9873 319.209 21.9613 319.086 21.9199C318.958 21.8785 318.815 21.8602 318.658 21.8678C318.088 21.8969 317.522 21.9276 316.952 21.9536C316.888 21.9567 316.804 21.9413 316.74 21.9291C316.603 21.9015 316.47 21.8694 316.337 21.8403C316.012 21.854 315.693 21.8632 315.373 21.8816C314.857 21.9092 314.857 21.9107 314.478 21.8265C314.409 21.8111 314.34 21.782 314.277 21.7836C314.031 21.7897 313.79 21.805 313.544 21.8188C312.821 21.8586 312.821 21.8586 312.609 21.8127C312.418 21.7698 312.245 21.7177 311.955 21.7422C311.641 21.7698 311.306 21.779 310.982 21.7943C310.741 21.805 310.5 21.8173 310.259 21.8203C310.195 21.8219 310.126 21.7928 310.057 21.7774C309.861 21.73 309.669 21.6917 309.398 21.7177C309.241 21.733 309.074 21.7361 308.911 21.7438C308.488 21.7652 308.488 21.7652 307.795 21.6733C307.726 21.6641 307.643 21.6534 307.574 21.658C307.003 21.6855 306.438 21.7162 305.867 21.7422C305.799 21.7453 305.715 21.7361 305.646 21.7284C304.869 21.6396 304.869 21.6396 304.043 21.6825C303.728 21.6978 303.718 21.7039 303.389 21.6227C303.241 21.5875 303.119 21.5706 302.946 21.5814C302.297 21.6181 301.643 21.6427 300.999 21.6855C300.709 21.7039 300.542 21.658 300.345 21.6166C300.276 21.6028 300.202 21.5722 300.143 21.5737C299.494 21.6028 298.845 21.6381 298.196 21.6672C298.137 21.6702 298.063 21.6396 297.994 21.6258C297.862 21.5982 297.734 21.5569 297.586 21.5477C297.434 21.5385 297.267 21.5615 297.099 21.5691C296.691 21.589 296.691 21.5875 296.219 21.4971C296.155 21.4849 296.072 21.468 296.008 21.4711C295.359 21.5017 294.705 21.5278 294.06 21.5722C293.692 21.5967 293.441 21.5523 293.18 21.4879C293.126 21.4741 293.033 21.468 292.964 21.4711C292.231 21.5063 291.503 21.5461 290.771 21.5814C290.618 21.589 290.471 21.563 290.348 21.5232C290.151 21.4604 289.92 21.468 289.674 21.4818C289.108 21.514 289.103 21.5124 288.769 21.4389C288.7 21.4236 288.641 21.4037 288.568 21.396C288.499 21.3884 288.41 21.393 288.336 21.396C288.012 21.4113 287.687 21.4282 287.363 21.445C287.038 21.4619 286.709 21.4711 286.389 21.4971C285.996 21.5293 285.809 21.4297 285.533 21.3838C285.13 21.4037 284.717 21.4159 284.319 21.4481C284.014 21.4726 283.871 21.4052 283.67 21.37C283.601 21.3577 283.527 21.3317 283.463 21.3347C282.73 21.3684 281.998 21.4052 281.27 21.4466C281.093 21.4558 280.975 21.4435 280.827 21.4067C280.498 21.324 280.483 21.3271 279.932 21.3577C279.691 21.3715 279.46 21.3838 279.254 21.321C279.072 21.2643 278.85 21.2505 278.59 21.2689C278.27 21.2918 277.941 21.3041 277.616 21.3194C277.292 21.3363 276.967 21.3593 276.642 21.3669C276.382 21.3746 276.224 21.3026 276.018 21.2658C275.954 21.2551 275.865 21.2536 275.792 21.2566C275.467 21.2704 275.133 21.2811 274.818 21.3072C274.434 21.3393 274.223 21.2551 273.953 21.2061C273.894 21.1954 273.795 21.2015 273.721 21.2061C273.151 21.2337 272.585 21.2643 272.015 21.2934C271.813 21.252 271.607 21.2122 271.405 21.1709C271.081 21.1862 270.756 21.203 270.431 21.2183C270.186 21.2306 269.935 21.2352 269.704 21.2582C269.404 21.2888 269.256 21.2168 269.055 21.1816C268.986 21.1693 268.912 21.1433 268.848 21.1463C268.44 21.1632 268.032 21.1816 267.628 21.2076C267.245 21.2337 267.092 21.0958 266.778 21.0973C266.453 21.0988 266.119 21.1188 265.804 21.1463C265.44 21.1785 265.184 21.1295 264.924 21.0636C264.87 21.0498 264.776 21.0422 264.707 21.0452C264.299 21.0636 263.896 21.0866 263.488 21.105C263.419 21.108 263.336 21.1004 263.267 21.0912C262.49 21.0008 262.49 20.9993 262.15 21.0177C261.909 21.0299 261.664 21.0452 261.418 21.0529C261.349 21.056 261.265 21.0422 261.201 21.0299C260.69 20.9365 260.69 20.9349 260.321 20.9533C259.996 20.9702 259.672 20.987 259.347 21.0039C259.146 20.9625 258.939 20.9227 258.737 20.8813C258.334 20.9013 257.921 20.9166 257.523 20.9441C257.336 20.9564 257.213 20.9518 257.07 20.9135C256.893 20.8675 256.716 20.8139 256.421 20.84C256.107 20.8675 255.772 20.8706 255.453 20.8936C255.069 20.9212 254.912 20.7818 254.602 20.7833C254.277 20.7848 253.943 20.8047 253.628 20.8323C253.264 20.8645 253.009 20.8155 252.748 20.7496C252.694 20.7358 252.6 20.7282 252.532 20.7312C251.637 20.7756 250.747 20.8201 249.852 20.8675C249.301 20.8966 249.301 20.8982 248.253 20.8139C248.18 20.8078 248.101 20.8017 248.027 20.8047C247.702 20.8185 247.368 20.8292 247.053 20.8553C246.67 20.8875 246.458 20.8047 246.188 20.7542C246.129 20.7435 246.035 20.7496 245.957 20.7527C245.711 20.7634 245.47 20.7772 245.224 20.7894C244.899 20.8063 244.575 20.8231 244.25 20.84C244.049 20.8001 243.842 20.7588 243.641 20.719C243.237 20.7389 242.824 20.7496 242.426 20.7818C242.121 20.8063 241.978 20.7419 241.777 20.7052C241.708 20.6929 241.634 20.6669 241.57 20.6684C240.838 20.7021 240.105 20.7373 239.377 20.7802C239.077 20.7986 238.939 20.7297 238.738 20.6944C238.669 20.6837 238.59 20.6638 238.526 20.6669C238.04 20.6883 237.553 20.7144 237.066 20.7404C236.79 20.7557 236.79 20.7557 236.191 20.6607C236.122 20.65 236.043 20.6393 235.974 20.6424C234.43 20.719 232.891 20.8001 231.347 20.8767C231.189 20.8844 231.047 20.8614 230.924 20.8201C230.796 20.7787 230.653 20.7573 230.496 20.7649C229.847 20.7971 229.193 20.8262 228.549 20.866C228.283 20.8829 228.072 20.8629 227.89 20.8093C227.752 20.7695 227.624 20.7542 227.452 20.7634C227.127 20.7818 226.803 20.7971 226.478 20.8139C226.154 20.8308 225.829 20.8476 225.505 20.8645C225.18 20.8813 224.851 20.8905 224.531 20.9166C224.138 20.9487 223.946 20.8538 223.675 20.8063C223.189 20.8293 222.702 20.8522 222.22 20.8767C221.571 20.9089 220.921 20.9441 220.272 20.9748C220.213 20.9778 220.14 20.9503 220.071 20.9365C219.869 20.8982 219.722 20.8446 219.422 20.8614C217.966 20.9426 216.501 21.0115 215.04 21.0912C214.735 21.108 214.602 21.0422 214.396 21.0069C214.327 20.9962 214.248 20.9748 214.184 20.9778C213.373 21.0161 212.562 21.059 211.75 21.1004C211.421 21.1172 211.421 21.1172 210.87 21.0223C210.806 21.0115 210.722 20.9977 210.654 21.0008C209.596 21.0529 208.544 21.108 207.487 21.1617C207.329 21.1693 207.187 21.1479 207.059 21.1065C206.936 21.0652 206.788 21.0422 206.636 21.0498C205.662 21.0989 204.684 21.1463 203.715 21.1999C203.454 21.2153 203.238 21.2015 203.051 21.1463C202.918 21.1065 202.786 21.0897 202.618 21.0988C201.158 21.1739 199.697 21.2459 198.237 21.3256C197.956 21.3409 197.76 21.3118 197.583 21.2612C197.44 21.2214 197.317 21.2137 197.14 21.2199C196.953 21.2275 196.84 21.2444 196.737 21.2903C196.604 21.3501 196.521 21.4251 196.206 21.4297C195.881 21.4343 195.552 21.4527 195.232 21.4787C194.927 21.5048 194.785 21.4359 194.593 21.3945C194.45 21.3654 194.317 21.3608 194.136 21.3746C193.968 21.3868 193.865 21.4129 193.767 21.4619C193.55 21.566 193.531 21.566 193.265 21.5002C193.123 21.4649 192.995 21.4374 192.837 21.4435C192.188 21.4741 191.539 21.5078 190.89 21.5431C190.516 21.563 190.511 21.5661 190.231 21.4895C190.093 21.4512 189.96 21.4328 189.798 21.442C188.013 21.5339 186.228 21.6227 184.443 21.7192C184.168 21.7346 183.981 21.7024 183.784 21.6564C183.72 21.6411 183.656 21.6197 183.582 21.6135C183.509 21.6074 183.425 21.6135 183.346 21.6166C182.048 21.6825 180.745 21.7453 179.452 21.8188C179.157 21.8357 178.999 21.7866 178.798 21.7468C178.729 21.733 178.67 21.7116 178.596 21.7055C178.522 21.7009 178.434 21.7116 178.355 21.7162C177.057 21.782 175.754 21.8449 174.46 21.9184C174.151 21.9352 174.018 21.8709 173.816 21.8372C173.747 21.8249 173.674 21.8019 173.61 21.805C173.201 21.8219 172.798 21.8448 172.39 21.8648C171.416 21.9153 170.443 21.9628 169.469 22.0149C169.095 22.0348 168.933 21.8985 168.618 21.9046C168.21 21.9122 167.807 21.9429 167.399 21.9643C167.074 21.9812 166.75 21.9965 166.425 22.0149C166.105 22.0317 166.105 22.0317 165.309 21.9429C165.24 21.9352 165.156 21.9245 165.087 21.9276C163.952 21.9842 162.811 22.0409 161.68 22.1022C161.419 22.116 161.203 22.1083 161.016 22.0516C160.883 22.0118 160.745 21.9919 160.583 22.0011C158.877 22.0884 157.175 22.1757 155.469 22.2615C155.405 22.2646 155.321 22.2492 155.257 22.237C155.12 22.2094 154.987 22.1773 154.854 22.1482C154.756 22.1834 154.628 22.2155 154.564 22.2554C154.475 22.309 154.357 22.3243 154.171 22.3335C153.984 22.3427 153.866 22.3396 153.718 22.2998C153.541 22.2508 153.359 22.2125 153.069 22.2278C151.284 22.3243 149.499 22.4116 147.714 22.5066C147.419 22.5219 147.281 22.4545 147.074 22.4193C147.006 22.4085 146.927 22.3917 146.863 22.3948C146.13 22.43 145.402 22.4683 144.67 22.5051C142.639 22.6092 140.608 22.7088 138.582 22.8191C138.213 22.839 137.962 22.8007 137.702 22.7348C137.647 22.721 137.554 22.7134 137.485 22.7165C134.643 22.8604 131.801 23.006 128.963 23.1515C128.811 23.1591 128.663 23.1346 128.54 23.0948C128.412 23.0534 128.27 23.0335 128.112 23.0412C126.814 23.1071 125.516 23.1729 124.218 23.2403C123.893 23.2572 123.888 23.2587 123.554 23.1852C123.485 23.1699 123.411 23.1408 123.357 23.1438C123.244 23.1515 123.136 23.1898 123.057 23.2419C122.978 23.297 122.855 23.3123 122.673 23.323C122.487 23.3338 122.364 23.3292 122.221 23.2924C122.039 23.2465 121.872 23.202 121.577 23.2174C117.844 23.4134 114.112 23.6018 110.38 23.7964C110.08 23.8117 109.942 23.7474 109.735 23.7121C109.667 23.7014 109.598 23.6861 109.524 23.683C109.445 23.68 109.362 23.6892 109.283 23.6938C103.195 24.0047 97.1071 24.3172 91.0192 24.6282C90.6553 24.6465 90.6602 24.6465 90.2619 24.7875C90.2127 24.8043 90.1487 24.8273 90.0799 24.8303C88.2161 24.9284 86.3475 25.0234 84.4788 25.1183C83.6674 25.1597 82.8561 25.2026 82.0447 25.2424C81.7545 25.2562 81.7545 25.2562 81.0611 25.4216C81.0021 25.4354 80.9332 25.4538 80.8644 25.4569C77.6188 25.6238 74.3732 25.7908 71.1226 25.9547C70.8669 25.967 70.6604 25.9945 70.5424 26.0681C70.4588 26.1202 70.3506 26.1508 70.1884 26.16C67.9164 26.2764 65.6446 26.3943 63.3678 26.5077C63.0973 26.5215 62.9349 26.5644 62.8022 26.6287C62.7579 26.6502 62.7185 26.6747 62.6546 26.69C62.5956 26.7038 62.5071 26.7084 62.4334 26.713C60.486 26.8125 58.5387 26.9152 56.5864 27.0101C56.2963 27.0239 56.1782 27.0806 56.0356 27.1403C55.9864 27.1603 55.952 27.1878 55.888 27.2016C55.8241 27.2139 55.7307 27.2139 55.652 27.2169C54.0292 27.2997 52.4065 27.3839 50.7837 27.4666C50.469 27.459 50.4001 27.5478 50.2476 27.6014C50.1935 27.6198 50.1543 27.6443 50.0903 27.6566C50.0215 27.6688 49.9329 27.6673 49.8493 27.6703C48.551 27.7362 47.2528 27.8067 45.9497 27.868C45.6497 27.8817 45.5907 27.9599 45.4284 28.0135C45.3743 28.0303 45.3203 28.0564 45.2563 28.061C44.4449 28.1054 43.6336 28.1467 42.8222 28.1866C42.5517 28.2004 42.5517 28.1988 42.0747 28.3505C42.0206 28.3673 41.9566 28.3857 41.8878 28.3903C40.6731 28.4546 39.4536 28.5159 38.234 28.5787C38.0767 28.5864 37.9685 28.6231 37.8898 28.6752C37.8112 28.7273 37.6981 28.761 37.5407 28.7687C36.567 28.8192 35.5933 28.8713 34.6196 28.9172C34.3491 28.9295 34.1721 28.9678 34.0541 29.0367C33.9656 29.0888 33.8574 29.1148 33.6853 29.124C32.7116 29.1731 31.738 29.2267 30.7594 29.2696C30.4742 29.2818 30.3266 29.3339 30.2086 29.3982C30.1151 29.4503 30.0069 29.4687 29.825 29.4779C28.0399 29.5667 26.25 29.6556 24.4698 29.7536C24.1698 29.7705 24.0173 29.7169 23.8206 29.6786C23.5403 29.6249 23.2798 29.5667 23.2798 29.4472C23.2798 29.4289 23.1962 29.4074 23.1372 29.3921C22.6995 29.2772 22.6995 29.2772 22.6306 29.1547C22.5913 29.0796 22.547 29.003 22.5126 28.9264C22.4487 28.8008 22.2913 28.7687 21.8389 28.7916C21.6766 28.7993 21.5143 28.81 21.352 28.8161C21.1111 28.8269 20.9291 28.7763 20.8849 28.6844C20.8603 28.6339 20.8308 28.5833 20.8062 28.5328C21.0521 28.5205 21.0471 28.519 21.4799 28.3336C21.6618 28.2555 21.6619 28.2555 21.3128 28.1774C21.18 28.1483 21.0521 28.1161 20.9095 28.0885C20.8456 28.0763 20.762 28.0686 20.6931 28.0717C20.285 28.0901 19.8818 28.1115 19.4785 28.133C18.8294 28.1667 18.8293 28.1666 18.1704 28.0104C18.1163 27.9981 18.0327 27.9752 18.0425 27.9629C18.0966 27.9063 18.2294 27.8817 18.3966 27.8756C18.6424 27.8664 18.8834 27.8511 19.1243 27.8388C19.2866 27.8312 19.4489 27.822 19.6112 27.8143C19.7636 27.7561 19.9211 27.6995 20.0637 27.6397C20.2899 27.5478 20.2898 27.5447 19.98 27.4804C19.7833 27.4375 19.5718 27.3992 19.3702 27.3594C19.1293 27.3716 18.8834 27.3854 18.6424 27.3961C18.3375 27.4099 18.2146 27.3808 18.1359 27.2813C18.0671 27.1939 18.1507 27.1189 18.3867 27.1005C18.6277 27.0821 18.854 27.0699 18.9769 26.9918C19.0949 26.9167 19.3014 26.8876 19.5572 26.8815C19.7194 26.8769 19.8817 26.8662 20.044 26.857C20.2554 26.8447 20.3686 26.7666 20.3243 26.6793C20.2997 26.6226 20.2505 26.5751 20.0588 26.5628C19.208 26.5092 19.1981 26.5108 18.7752 26.4066C18.7359 26.3974 18.7064 26.3698 18.7212 26.3561C18.7458 26.3331 18.7999 26.2994 18.8589 26.2948C19.4244 26.2611 19.9899 26.2304 20.5554 26.2075C20.7423 26.1998 20.88 26.1891 20.9439 26.1324C21.0325 26.0543 20.9931 25.9823 20.821 25.9287C20.7669 25.9118 20.6783 25.8904 20.6193 25.8919C19.9702 25.9195 19.326 25.9547 18.6769 25.9823C18.6179 25.9853 18.5097 25.9593 18.4852 25.9394C18.436 25.9026 18.5097 25.8536 18.6818 25.8368C18.908 25.8138 19.1391 25.8122 19.2916 25.7357C19.503 25.6269 19.7636 25.5273 19.9997 25.4232C20.039 25.4048 20.103 25.3695 20.0883 25.3665C19.9654 25.3328 19.8227 25.3067 19.6949 25.2746C19.4785 25.221 19.4784 25.1459 19.5276 25.0739C19.567 25.0157 19.7145 24.9927 19.8964 24.9927C19.9751 24.9927 20.0735 24.9927 20.1374 24.9789C20.3046 24.9452 20.3587 24.9023 20.2751 24.8702C20.2259 24.8518 20.1375 24.8258 20.0784 24.8288C19.0261 24.8794 17.9687 24.9284 16.9213 24.9912C16.6115 25.0096 16.469 24.9514 16.2821 24.91C16.1395 24.8778 16.0066 24.8656 15.8296 24.8886C15.6624 24.91 15.5002 24.8978 15.3969 24.8472C15.3133 24.8059 15.4608 24.7706 15.8591 24.7308C15.9329 24.7231 16.0165 24.7185 16.0706 24.7032C16.641 24.5378 16.641 24.5362 17.0344 24.5148C17.418 24.4949 17.418 24.4934 17.6197 24.4045C17.7131 24.3632 17.8163 24.3218 17.9048 24.2789C17.9392 24.262 17.9983 24.2314 17.9786 24.2222C17.8705 24.1747 17.7229 24.164 17.5508 24.1747C17.1672 24.2008 16.7148 24.1793 16.5132 24.3249C16.4345 24.38 16.3116 24.3953 16.1346 24.4045C14.3544 24.4934 12.5742 24.5883 10.7891 24.6741C10.499 24.6879 10.3663 24.7446 10.2532 24.8074C10.1548 24.8595 10.0466 24.8748 9.85974 24.884C9.67287 24.8932 9.52527 24.8978 9.41708 24.8472C9.35316 24.8166 9.40726 24.7737 9.55479 24.7308C9.76625 24.6695 9.72689 24.5929 9.65804 24.5209C9.60886 24.4735 9.45642 24.4397 9.29414 24.4428C9.05318 24.4489 8.82212 24.4658 8.6205 24.4045C8.50248 24.3693 8.35492 24.3448 8.22215 24.3141C7.96644 24.2513 7.71071 24.187 7.35173 24.2284C7.10585 24.213 6.93374 24.1579 6.73704 24.115C6.40756 24.0445 6.37805 24.0338 6.6141 23.9588C6.87965 23.8745 6.67307 23.7642 6.8206 23.6815C6.97796 23.5926 7.1944 23.5145 7.38619 23.4318C7.43536 23.4104 7.47964 23.3905 7.52882 23.369C7.41571 23.3384 7.31246 23.3001 7.17969 23.2786C7.00757 23.2511 6.91905 23.2174 6.92889 23.1224C6.89447 23.1086 6.90912 23.1438 6.94846 23.153C6.99272 23.1622 7.10098 23.1546 7.15508 23.1438C7.29277 23.1147 7.36154 23.0764 7.32712 23.0443C7.30745 23.0274 7.21409 23.006 7.15508 23.006C7.04689 23.006 6.95347 23.0397 6.92397 23.1224C6.3732 23.1852 5.80267 23.2158 5.23223 23.2403C5.17322 23.2434 5.0995 23.2128 5.03066 23.1974C4.80445 23.1454 4.80442 23.1469 4.14055 23.1316C4.0717 23.13 3.97832 23.1086 3.94389 23.0872C3.80129 22.9937 3.80624 22.8911 3.7374 22.7915C3.86525 22.7272 3.99301 22.6644 4.12578 22.6016C4.39133 22.4744 4.73564 22.3626 4.94217 22.2232C4.89792 22.1482 4.8389 22.0731 5.05527 22.0118C5.66996 21.9352 5.66508 21.9352 5.83228 21.8617C6.30929 21.6534 6.78134 21.4435 7.27802 21.2382C7.41079 21.1846 7.41081 21.1555 7.17477 21.1326C7.101 21.1264 7.02222 21.1249 6.94354 21.128C6.69766 21.1387 6.45178 21.1662 6.21082 21.1601C5.96986 21.1555 5.79283 21.0881 5.59613 21.0468C5.39451 21.0039 5.1929 20.9595 4.99128 20.915C4.76015 20.9196 4.52907 20.9625 4.29794 20.8936C4.12091 20.84 3.89964 20.8017 3.69802 20.7573C3.85046 20.6408 4.13572 20.552 4.35701 20.4494C4.55863 20.3559 4.56344 20.3575 5.10437 20.2855C5.36009 20.2518 5.44861 20.0787 5.23223 20.0281C4.9716 19.9668 4.69628 19.9102 4.43073 19.8519C4.1996 19.8565 3.96361 19.8979 3.74232 19.829C3.5702 19.7769 3.37346 19.7417 3.08824 19.7616C2.60632 19.7953 2.11458 19.8121 1.62774 19.8397C1.46054 19.8489 1.27854 19.8428 1.20478 19.7907C1.1556 19.7539 1.29822 19.7034 1.4605 19.6926C1.70638 19.6773 1.92765 19.6589 2.05059 19.5824C2.16861 19.5058 2.38496 19.4828 2.64067 19.4721C2.70951 19.469 2.78825 19.4506 2.82268 19.4322C2.99971 19.3434 3.19643 19.2668 3.57508 19.2699C3.73244 19.2392 3.81599 19.2009 3.76681 19.1642C3.7373 19.1442 3.63409 19.1182 3.57508 19.1213C3.16692 19.1366 2.75878 19.1519 2.36045 19.1795C2.17359 19.1917 2.0309 19.1948 1.91288 19.1488C1.82928 19.1182 1.87353 19.0768 2.0309 19.0324C2.16859 18.9941 2.20797 18.9497 2.19814 18.8976C2.17355 18.7766 2.02599 18.7414 1.55391 18.749C1.21459 18.7552 1.13099 18.7353 1.05723 18.6311C1.03756 18.6066 0.988468 18.5729 1.02289 18.556C1.23435 18.4519 1.37205 18.3232 1.77037 18.2742C1.92773 18.2558 2.09486 18.2558 2.19321 18.216C2.29156 18.1761 2.38012 18.1302 2.48339 18.0919C2.61125 18.0459 2.69968 18.0031 2.64067 17.9739C2.54232 17.9219 2.38501 17.9173 2.20306 17.9357C2.0457 17.951 1.8785 17.9525 1.71622 17.9617C1.42609 17.9785 1.1901 17.9387 1.15568 17.8713C1.06224 17.6936 0.963861 17.5175 0.880263 17.3398C0.870428 17.3183 0.894948 17.2907 0.934289 17.2724C1.07198 17.208 1.21957 17.1468 1.36217 17.084C1.52937 17.012 1.79496 17.0258 2.02117 17.012C2.34081 16.9921 2.3407 16.9936 2.76853 16.8465C2.93573 16.7883 3.22588 16.8113 3.39799 16.7592C3.45209 16.7424 3.53568 16.7148 3.52093 16.6995C3.50126 16.6796 3.40296 16.6642 3.3292 16.655C3.26035 16.6458 3.17677 16.6413 3.10301 16.6459C2.20801 16.6903 1.31796 16.7378 0.422963 16.7807C0.270519 16.7883 0.103317 16.7546 0.0492236 16.7071C-0.00486954 16.6627 0.00983512 16.6091 0 16.5585C0.142609 16.4957 0.304826 16.4375 0.427765 16.3701C0.521199 16.318 0.629405 16.2951 0.816272 16.292C1.06215 16.2874 1.30313 16.269 1.57852 16.2552C2.08994 16.0316 2.5915 15.7972 3.14227 15.5736C3.36356 15.4832 3.30955 15.3913 3.35381 15.2948C3.39807 15.2059 3.72753 15.2197 3.94882 15.1937C4.12585 15.1723 4.18478 15.1232 4.11594 15.0895C4.0766 15.0696 3.98813 15.0466 3.91928 15.0466C3.757 15.0466 3.59473 15.0604 3.43245 15.0681C3.27017 15.0757 3.08331 15.0712 2.95054 15.0972C2.82268 15.1217 2.73903 15.1738 2.65544 15.2182C2.562 15.2672 2.43915 15.2841 2.25228 15.2871C2.01132 15.2902 1.77038 15.304 1.52941 15.3147C1.26387 15.255 0.988425 15.1968 0.732712 15.134C0.683536 15.1217 0.673648 15.0865 0.678566 15.0635C0.688401 15.0038 0.614657 14.967 0.452377 14.9379C0.314686 14.9134 0.201572 14.8781 0.0737154 14.8475C0.172067 14.8061 0.280291 14.7663 0.358972 14.7219C0.531087 14.6284 0.747484 14.5611 1.12122 14.5641C1.26875 14.5044 1.38673 14.4309 1.57852 14.3895C1.76047 14.3497 2.07029 14.3895 2.20798 14.2991C2.27683 14.2547 2.38015 14.2041 2.51293 14.1857C2.72438 14.1566 2.99976 14.172 3.1227 14.0862C3.19646 14.0372 3.30461 13.9927 3.44722 13.9805C3.6095 13.9667 3.77665 13.9637 3.89467 13.9345C3.9586 13.9192 4.02745 13.8947 4.02745 13.8733C4.02745 13.8595 3.92918 13.838 3.86033 13.8288C3.79641 13.8181 3.71271 13.8105 3.63895 13.8135C3.39307 13.8227 3.15211 13.8396 2.90624 13.8488C2.83739 13.8518 2.75873 13.8411 2.68497 13.8319C2.4686 13.8074 2.48332 13.7768 2.65544 13.7216C2.82755 13.668 2.95056 13.5991 3.09317 13.5363C3.25053 13.5255 3.4472 13.5301 3.55539 13.501C3.73734 13.4535 3.86516 13.3846 4.01269 13.3249C4.17497 13.3157 4.34215 13.3126 4.4946 13.2958C4.55853 13.2896 4.58806 13.2559 4.64215 13.236C4.7405 13.1977 4.82417 13.1426 4.95694 13.1242C5.17331 13.0966 5.43886 13.1074 5.56671 13.0231C5.64048 12.9741 5.75354 12.922 5.89123 12.919C6.2748 12.9128 6.43708 12.8286 6.63379 12.7489C6.78131 12.6892 7.09605 12.7198 7.25833 12.6601C7.36651 12.6218 7.44524 12.5743 7.55343 12.5375C7.59769 12.5222 7.69109 12.5145 7.76485 12.5099C8.16809 12.487 8.57623 12.4701 8.97947 12.4456C9.0434 12.441 9.10246 12.418 9.15164 12.3997C9.25491 12.3598 9.31876 12.3047 9.44662 12.2786C9.57447 12.2526 9.7564 12.2526 9.91376 12.2449C10.4203 12.222 10.4597 12.2281 10.6908 12.0979C10.8776 11.9922 11.335 12.0672 11.4875 11.9508C11.576 11.8834 11.7382 11.8283 12.0283 11.8206C12.4365 11.8099 12.8397 11.7808 13.2479 11.7609C13.6118 11.7425 13.6069 11.7425 14.0003 11.6C14.1773 11.5357 14.438 11.5449 14.6691 11.5326C14.915 11.5204 15.1412 11.502 15.2592 11.4254C15.3772 11.3504 15.5936 11.3258 15.8444 11.3151C16.0755 11.3044 16.3362 11.3121 16.5181 11.2508C16.9607 11.1037 16.9558 11.1022 17.2656 11.0869C17.7525 11.0624 18.2393 11.0379 18.7261 11.0118C19.0507 10.995 19.39 10.9919 19.6949 10.9582C19.9162 10.9337 20.0145 10.8479 20.1571 10.7882C20.5603 10.7652 20.9635 10.7422 21.3668 10.7208C21.9323 10.6901 22.5027 10.6626 23.0732 10.6335C23.319 10.5753 23.3535 10.4466 23.7666 10.4405C24.0125 10.4374 24.2535 10.4175 24.4993 10.4052C24.9075 10.3838 25.3107 10.3562 25.7189 10.3455C26.0287 10.3378 26.0827 10.2551 26.245 10.203C26.2991 10.1846 26.3483 10.1586 26.4122 10.154C27.0515 10.1111 27.7104 10.1019 28.3349 10.0391C28.3989 10.033 28.4579 10.0008 28.4726 9.97785C28.4825 9.9656 28.3989 9.94263 28.3448 9.93191C28.2808 9.91965 28.1973 9.9074 28.1284 9.91046C26.0975 10.0131 24.0666 10.1173 22.0356 10.2199C21.7504 10.2352 21.7504 10.2337 21.057 10.4022C20.998 10.416 20.9291 10.4313 20.8553 10.4359C20.5308 10.4542 20.2013 10.465 19.8817 10.488C19.621 10.5063 19.4047 10.4879 19.2179 10.4328C19.0851 10.393 18.9473 10.3807 18.7801 10.3838C18.5933 10.3884 18.4704 10.4052 18.3622 10.4466C18.2196 10.5033 18.1458 10.5768 17.8459 10.5921C16.464 10.658 15.0821 10.7315 13.7052 10.802C13.5134 10.7805 13.42 10.7484 13.4692 10.7101C13.4987 10.6871 13.5577 10.6565 13.6167 10.6534C14.1822 10.6212 14.7526 10.5937 15.3182 10.563C15.3968 10.5584 15.505 10.5615 15.5493 10.5461C15.7656 10.4772 15.8444 10.3654 16.2526 10.3577C16.4886 10.3531 16.7295 10.3302 16.9557 10.3087C17.0197 10.3026 17.0787 10.2704 17.0935 10.2475C17.0984 10.2352 17.0197 10.2122 16.9607 10.2015C16.7443 10.1571 16.4936 10.2107 16.2772 10.1801C16.2034 10.1693 16.1001 10.154 16.0853 10.1356C16.0755 10.1188 16.1591 10.0912 16.2181 10.0744C16.2722 10.059 16.3459 10.0453 16.4197 10.0407C17.0688 10.0054 17.718 9.96866 18.3671 9.94109C18.6327 9.93037 18.8195 9.89207 18.9375 9.8216C19.0261 9.76952 19.1342 9.74196 19.3014 9.7343C20.4374 9.67762 21.5733 9.61482 22.7142 9.56273C22.9994 9.55048 23.147 9.49993 23.265 9.43407C23.3584 9.38198 23.4667 9.3636 23.6486 9.35441C25.2763 9.27475 26.8941 9.18591 28.5219 9.10932C28.8218 9.09554 28.9104 9.02966 29.0628 8.97299C29.1169 8.95307 29.1513 8.92857 29.2201 8.91631C29.289 8.90406 29.3775 8.90557 29.4611 8.90251C30.7593 8.83664 32.0576 8.76619 33.3608 8.70492C33.6657 8.69113 33.7246 8.61453 33.882 8.56092C33.936 8.54407 33.9853 8.5165 34.0492 8.51191C35.0229 8.45983 35.9965 8.41081 36.9702 8.36026C37.6193 8.32656 38.2684 8.29286 38.9175 8.26069C39.2372 8.24537 39.2372 8.24383 39.6699 8.09831C39.7191 8.08146 39.788 8.06154 39.8519 8.05694C41.7206 7.95891 43.5843 7.86549 45.453 7.76898C45.6104 7.76132 45.7234 7.72607 45.8021 7.67399C45.8808 7.62191 45.994 7.58668 46.1464 7.57902C47.607 7.50243 49.0674 7.42737 50.5329 7.35538C50.7984 7.34312 50.9852 7.30636 51.1033 7.23743C51.1918 7.18534 51.3 7.15778 51.4672 7.15012C52.9277 7.07659 54.3883 6.99846 55.8537 6.928C56.134 6.91421 56.2716 6.86213 56.4093 6.80086C56.4585 6.77942 56.4979 6.74418 56.5569 6.74112C57.2847 6.69823 58.0075 6.6538 58.7403 6.6247C59.0451 6.61244 59.1485 6.5481 59.2714 6.48683C59.3697 6.43781 59.4829 6.42097 59.6697 6.41484C60.0779 6.40105 60.4811 6.37502 60.8794 6.34898C60.9385 6.34439 61.0122 6.31069 61.0172 6.28924C61.027 6.24941 60.9138 6.22184 60.727 6.20805C58.7796 6.30762 56.8274 6.40718 54.88 6.50675C54.5604 6.5236 54.5604 6.52361 54.1276 6.66913C54.0785 6.68598 54.0096 6.70589 53.9407 6.71049C52.072 6.80699 50.2083 6.90197 48.3397 6.99847C48.1823 7.00613 48.0692 7.04136 47.9905 7.09344C47.9119 7.14553 47.7987 7.18076 47.6462 7.18842C45.8611 7.28033 44.0761 7.37377 42.2861 7.46108C42.0206 7.47334 41.8337 7.50855 41.7157 7.57902C41.6272 7.6311 41.519 7.65868 41.3518 7.66634C39.6454 7.75212 37.9439 7.84249 36.2326 7.92521C36.0605 7.93287 35.9327 7.88845 35.9425 7.84709C35.9474 7.82564 36.0211 7.79043 36.0801 7.78736C36.9702 7.73681 37.8554 7.68472 38.7504 7.64643C39.0504 7.63417 39.1388 7.56677 39.2913 7.51009C39.3405 7.49018 39.3798 7.46414 39.4437 7.45342C39.5126 7.44116 39.6011 7.4427 39.6847 7.43964C41.7943 7.33088 43.904 7.22059 46.0186 7.11796C46.3235 7.10264 46.3824 7.02757 46.5398 6.97396C46.5939 6.95558 46.6431 6.92801 46.707 6.92495C47.3561 6.88818 48.0052 6.85601 48.6543 6.82384C49.7903 6.76563 50.9262 6.70742 52.0671 6.64921C52.3966 6.63236 52.3966 6.63236 52.8195 6.48837C52.8687 6.47152 52.9376 6.45009 53.0015 6.44702C56.0061 6.29231 59.0108 6.13759 62.0154 5.98441C62.1728 5.97675 62.2859 5.94152 62.3646 5.88944C62.4432 5.83889 62.5563 5.80212 62.7088 5.79293C66.7707 5.58461 70.8277 5.37627 74.8896 5.17101C75.1551 5.15722 75.3419 5.12505 75.46 5.05305C75.5436 5.00097 75.6567 4.9734 75.8239 4.96421C80.289 4.73597 84.7542 4.50774 89.2242 4.27796C92.2289 4.12478 95.2335 3.96854 98.2382 3.81842C98.5135 3.80463 98.661 3.75714 98.7987 3.69433C98.843 3.67289 98.8872 3.63765 98.9463 3.63459C99.5905 3.59629 100.235 3.56107 100.879 3.52583C101.08 3.56719 101.282 3.60703 101.484 3.64839C101.636 3.59018 101.784 3.53043 101.936 3.47222C102.91 3.4278 103.869 3.35887 104.852 3.33742C104.916 3.33589 104.985 3.365 105.054 3.38032C105.511 3.47682 105.772 3.46916 106.062 3.34049C106.165 3.29454 106.254 3.25318 106.411 3.24552C106.898 3.21795 107.39 3.19956 107.872 3.16739C108.132 3.15054 108.349 3.16586 108.535 3.221C108.668 3.26083 108.806 3.27769 108.968 3.2685C109.863 3.22255 110.753 3.17812 111.648 3.1291C111.712 3.12604 111.771 3.09999 111.82 3.0816C111.924 3.04178 112.012 2.9989 112.111 2.95754C112.243 2.98358 112.391 3.00349 112.499 3.03719C112.637 3.07702 112.765 3.07701 112.951 3.06629C116.522 2.88094 120.097 2.70019 123.667 2.51331C123.972 2.49799 124.105 2.56233 124.311 2.59603C124.38 2.60828 124.449 2.62359 124.522 2.62666C124.601 2.62972 124.685 2.62054 124.763 2.61594C127.444 2.47808 130.124 2.34174 132.804 2.20388C133.158 2.18549 133.158 2.18549 133.684 2.28047C133.748 2.29272 133.831 2.30651 133.9 2.30191C135.12 2.24217 136.339 2.17784 137.554 2.11657C137.711 2.10891 137.844 2.13341 137.987 2.16865C138.267 2.23758 138.287 2.23758 138.493 2.13648C138.592 2.089 138.695 2.05988 138.857 2.04609C139.034 2.03078 139.177 2.03539 139.315 2.06296C139.511 2.10126 139.654 2.16558 139.954 2.14873C141.252 2.07674 142.555 2.017 143.849 1.94347C144.144 1.92662 144.301 1.9787 144.498 2.017C144.567 2.03078 144.63 2.05223 144.704 2.05683C144.778 2.06142 144.866 2.05069 144.945 2.04609C146.568 1.96338 148.196 1.8822 149.813 1.79336C150.118 1.77651 150.251 1.84236 150.458 1.87606C150.527 1.88832 150.605 1.90978 150.669 1.90671C151.643 1.85923 152.622 1.80866 153.595 1.75811C153.944 1.73973 153.944 1.74126 154.475 1.8347C154.539 1.84696 154.623 1.85921 154.692 1.85615C155.828 1.79947 156.969 1.74126 158.105 1.68305C158.454 1.66467 158.454 1.66468 159.462 1.74433C159.536 1.75046 159.614 1.75966 159.688 1.7566C160.986 1.69073 162.289 1.62638 163.588 1.55592C163.848 1.54213 164.065 1.55438 164.252 1.60953C164.384 1.64936 164.522 1.66622 164.684 1.65702C166.145 1.58197 167.61 1.50997 169.066 1.43032C169.346 1.415 169.528 1.44869 169.725 1.49311C169.789 1.50843 169.853 1.52988 169.926 1.536C170 1.54213 170.084 1.536 170.162 1.5314C171.623 1.45635 173.088 1.38589 174.544 1.3047C174.839 1.28785 174.996 1.33993 175.193 1.37822C175.262 1.39201 175.336 1.41958 175.395 1.41805C175.965 1.39201 176.536 1.36904 177.101 1.33075C177.406 1.3093 177.539 1.37975 177.745 1.41345C177.814 1.42417 177.893 1.44716 177.957 1.4441C179.176 1.38436 180.396 1.32156 181.611 1.25722C181.783 1.24803 181.91 1.26181 182.048 1.30163C182.23 1.35525 182.442 1.37669 182.707 1.35984C183.273 1.32461 183.843 1.30011 184.414 1.271C184.748 1.25415 184.748 1.25416 185.771 1.33381C185.845 1.33994 185.923 1.34912 185.997 1.34606C186.971 1.29704 187.949 1.24956 188.918 1.19595C189.179 1.18063 189.395 1.19441 189.582 1.24956C189.715 1.28938 189.847 1.30624 190.015 1.29705C190.91 1.2511 191.8 1.20514 192.695 1.15918C193.019 1.14233 193.344 1.11322 193.668 1.11322C193.904 1.11475 194.077 1.18828 194.288 1.22504C194.347 1.23576 194.445 1.22352 194.524 1.22046C195.66 1.16225 196.801 1.10863 197.932 1.04276C198.227 1.02591 198.384 1.07799 198.581 1.11629C198.65 1.13007 198.724 1.15765 198.783 1.15612C199.191 1.13927 199.594 1.11629 200.002 1.09637C200.489 1.07186 200.981 1.05348 201.463 1.01978C201.856 0.99221 202.004 1.12547 202.318 1.13007C202.559 1.13466 202.805 1.10863 203.046 1.09637C203.533 1.07186 204.02 1.0443 204.507 1.02285C204.679 1.01519 204.812 0.990671 204.866 0.935526C204.876 0.924803 204.792 0.901835 204.738 0.888049C204.084 0.731804 204.084 0.731796 203.425 0.765496C203.017 0.786942 202.613 0.808391 202.205 0.826773C202.136 0.829836 202.058 0.817582 201.989 0.808391C201.792 0.782351 201.812 0.751717 201.979 0.696572C202.146 0.641426 202.274 0.574032 202.417 0.511228C202.618 0.551055 202.815 0.590868 203.017 0.630695C203.179 0.623036 203.341 0.613859 203.504 0.6062C204.315 0.566372 205.126 0.52501 205.938 0.488247C205.997 0.485183 206.07 0.515824 206.139 0.531142C206.336 0.575565 206.513 0.61385 206.798 0.597C207.526 0.552577 208.259 0.520409 208.987 0.482114C209.306 0.465264 209.306 0.465265 209.867 0.560238C209.931 0.57096 210.014 0.583216 210.083 0.580152C210.816 0.54492 211.544 0.506629 212.276 0.469866C212.434 0.462207 212.586 0.48212 212.699 0.526542C212.744 0.544924 212.734 0.575554 212.921 0.826773C213.501 1.0305 213.899 1.00907 214.302 0.990687C214.475 0.983028 214.627 0.975362 214.74 0.944725C214.799 0.927875 214.873 0.903363 214.873 0.883449C214.873 0.868131 214.765 0.843617 214.696 0.840554C214.209 0.809917 213.747 0.874263 213.27 0.888049C213.048 0.894176 212.857 0.840562 212.817 0.753248C212.808 0.728739 212.793 0.7027 212.778 0.678191C212.763 0.653682 212.753 0.627642 212.739 0.603133C212.547 0.595474 212.434 0.623042 212.35 0.675124C212.281 0.718015 212.183 0.767033 212.05 0.79001C211.917 0.814519 211.735 0.809932 211.573 0.817591C211.416 0.82525 211.244 0.845162 211.096 0.834439C210.949 0.822185 210.831 0.777754 210.693 0.750182C210.629 0.736395 210.55 0.716489 210.486 0.719553C209.921 0.745594 209.36 0.771625 208.8 0.805325C208.505 0.823707 208.357 0.75938 208.17 0.719553C208.023 0.688916 207.875 0.696566 207.851 0.767029C207.787 0.935529 208.013 1.00599 208.514 0.973821C208.928 0.946248 209.301 0.941667 209.626 1.04583C209.67 1.05962 209.773 1.06574 209.837 1.06268C210.241 1.0443 210.639 1.02132 211.042 1.00294C211.116 0.999872 211.195 1.00599 211.263 1.01212C212.267 1.09483 212.267 1.09637 212.606 1.07799C212.768 1.0688 212.926 1.06114 212.911 0.828306C213.221 0.57862 213.712 0.561773 214.189 0.525009C214.499 0.502032 214.632 0.569435 214.833 0.604666C214.902 0.616921 214.976 0.641426 215.04 0.638362C216.097 0.587812 217.15 0.534191 218.202 0.477514C218.379 0.468323 218.507 0.477515 218.645 0.517342C218.822 0.567892 219.018 0.600067 219.299 0.581685C219.859 0.544922 220.43 0.52195 221 0.491313C221.29 0.475995 221.29 0.47598 221.875 0.570952C221.939 0.581675 222.023 0.59393 222.092 0.590867C222.662 0.564826 223.228 0.532667 223.793 0.505095C223.951 0.497435 224.093 0.518879 224.216 0.560238C224.339 0.601597 224.487 0.62304 224.639 0.615381C225.21 0.587808 225.775 0.557182 226.341 0.529609C226.409 0.526545 226.493 0.537267 226.557 0.54799C227.157 0.642963 227.157 0.642947 227.432 0.627629C227.836 0.604651 228.249 0.593941 228.647 0.563304C229.035 0.532668 229.237 0.621506 229.503 0.670524C230.23 0.635292 230.963 0.606195 231.686 0.563304C231.981 0.544923 232.138 0.595468 232.335 0.635295C232.404 0.649082 232.473 0.678189 232.537 0.676657C232.783 0.67053 233.024 0.653683 233.265 0.641429C233.506 0.629174 233.751 0.616921 233.992 0.604666C234.268 0.649089 234.45 0.753251 234.843 0.718019C235.079 0.696574 235.33 0.691979 235.571 0.679724C235.812 0.667469 236.058 0.655216 236.299 0.642962C236.461 0.635303 236.628 0.630701 236.786 0.616914C237.076 0.593937 237.218 0.669005 237.425 0.702705C237.494 0.713428 237.572 0.731798 237.636 0.728734C238.123 0.707288 238.615 0.688908 239.092 0.653676C239.461 0.626104 239.711 0.672064 239.972 0.7364C240.026 0.750187 240.12 0.757845 240.188 0.754782C240.759 0.728741 241.324 0.696564 241.89 0.668991C242.042 0.661332 242.19 0.68584 242.313 0.725667C242.441 0.767026 242.583 0.786955 242.741 0.779296C243.306 0.751723 243.877 0.721078 244.442 0.693505C244.511 0.690441 244.595 0.702698 244.659 0.714953C245.209 0.809926 245.209 0.811459 245.534 0.793077C245.613 0.788482 245.696 0.785406 245.775 0.78081C246.178 0.759365 246.596 0.751716 246.989 0.714953C247.442 0.673594 247.771 0.725678 248.091 0.812991C248.494 0.79461 248.907 0.783885 249.301 0.753248C249.596 0.730271 249.753 0.788477 249.95 0.826773C250.019 0.840559 250.092 0.868132 250.151 0.865068C250.722 0.839027 251.292 0.816058 251.853 0.777763C252.158 0.756317 252.291 0.825236 252.497 0.860468C252.566 0.872723 252.64 0.894179 252.704 0.891116C253.028 0.878861 253.353 0.86047 253.677 0.84362C254.056 0.823707 254.056 0.825237 254.558 0.918678C254.794 0.963101 255.03 0.927867 255.261 0.917145C255.507 0.90489 255.738 0.895702 255.935 0.958507C256.057 0.998334 256.205 1.02284 256.357 1.01672C256.682 1.00293 257.011 0.98915 257.331 0.966173C257.587 0.947791 257.808 0.960039 257.995 1.01672C258.128 1.05654 258.265 1.07647 258.428 1.06728C259.156 1.03051 259.888 0.992205 260.616 0.956973C260.68 0.95391 260.768 0.967701 260.827 0.981488C260.965 1.00906 261.098 1.03969 261.231 1.07033C261.55 1.05654 261.88 1.05043 262.195 1.02898C262.529 1.00754 262.834 0.999876 263.095 1.08413C263.149 1.10251 263.227 1.12853 263.291 1.127C263.537 1.12088 263.778 1.10556 264.019 1.09331C264.26 1.08105 264.506 1.0688 264.747 1.05655C265.027 1.09484 265.204 1.20513 265.598 1.1699C265.834 1.14845 266.084 1.14386 266.325 1.1316C266.566 1.11935 266.812 1.10556 267.053 1.09484C267.132 1.09178 267.22 1.08411 267.289 1.09024C267.363 1.09637 267.427 1.11782 267.491 1.13314C267.687 1.17756 267.869 1.22199 268.15 1.19595C268.386 1.1745 268.637 1.1699 268.878 1.15612C269.207 1.13927 269.207 1.13927 269.753 1.23577C269.974 1.2756 270.225 1.22352 270.436 1.25722C270.579 1.2802 270.702 1.31849 270.84 1.34453C270.899 1.35525 270.992 1.35984 271.061 1.35678C271.385 1.34299 271.715 1.32921 272.035 1.30623C272.295 1.28785 272.512 1.30623 272.694 1.36138C272.826 1.4012 272.959 1.41806 273.126 1.40887C273.938 1.36598 274.749 1.3292 275.556 1.28172C275.831 1.26487 276.052 1.29092 276.205 1.34606C276.465 1.44103 276.834 1.32921 277.105 1.4058C277.272 1.45329 277.439 1.50844 277.744 1.48546C278.305 1.44563 278.875 1.42418 279.44 1.3966C279.642 1.43796 279.844 1.47933 280.05 1.52069C280.375 1.50384 280.699 1.48698 281.024 1.47166C281.265 1.45941 281.511 1.44562 281.752 1.4349C281.83 1.43184 281.914 1.42571 281.988 1.43337C282.062 1.44103 282.121 1.46094 282.189 1.47626C282.529 1.55132 282.529 1.55286 283.089 1.52222C283.33 1.50844 283.561 1.49925 283.763 1.56052C283.95 1.6172 284.171 1.62791 284.427 1.61106C284.909 1.58043 285.396 1.55745 285.887 1.536C286.04 1.52835 286.182 1.55439 286.31 1.59421C286.502 1.65702 286.738 1.65089 286.979 1.63404C287.299 1.6126 287.613 1.59116 287.884 1.67694C287.938 1.69532 288.022 1.72135 288.081 1.71982C288.484 1.70756 288.892 1.69838 289.285 1.66927C289.679 1.64017 289.871 1.73514 290.141 1.78109C290.544 1.76118 290.952 1.74126 291.356 1.72135C291.434 1.71675 291.528 1.70298 291.597 1.71063C291.887 1.7428 292.054 1.85769 292.452 1.82245C292.683 1.80254 292.934 1.79642 293.175 1.79183C293.239 1.79029 293.323 1.81632 293.367 1.83624C293.392 1.84696 293.367 1.87606 293.338 1.89138C293.249 1.93427 293.141 1.97411 293.062 2.01853C293.052 2.02466 293.146 2.05222 293.2 2.06447C293.333 2.09205 293.485 2.08746 293.662 2.07521C293.814 2.06449 293.972 2.08593 294.08 2.13188C294.124 2.15027 294.11 2.1809 294.016 2.282C294.016 2.35706 294.119 2.32335 294.154 2.27433C294.208 2.20387 294.105 2.18089 293.908 2.21919C293.77 2.24676 293.701 2.28659 293.736 2.31876C293.756 2.33561 293.849 2.35706 294.016 2.282C294.449 2.19009 294.773 2.17325 295.098 2.1564C295.182 2.1518 295.28 2.13647 295.339 2.14567C295.55 2.18243 295.747 2.22686 295.954 2.26822C296.19 2.25903 296.411 2.23604 296.642 2.29578C296.967 2.38003 296.981 2.37237 297.296 2.35552C297.458 2.34633 297.621 2.33869 297.783 2.33103C297.945 2.32337 298.073 2.34634 298.216 2.38157C298.506 2.45357 298.53 2.45356 298.722 2.35552C298.835 2.29578 298.914 2.27587 299.057 2.30345C299.529 2.39689 299.534 2.40301 299.937 2.37544C300.271 2.35246 300.586 2.34633 300.832 2.43365C300.999 2.49492 301.053 2.48114 301.186 2.4168C301.54 2.24677 301.702 2.24983 302.366 2.37237C302.676 2.43058 302.996 2.36778 303.31 2.36012C303.576 2.354 303.763 2.39075 303.782 2.48726C303.797 2.547 303.841 2.5899 304.018 2.60981C304.087 2.61747 304.171 2.62819 304.24 2.62513C304.648 2.60674 305.051 2.58529 305.459 2.56385C305.666 2.55313 305.779 2.48114 305.74 2.38617C305.695 2.28507 305.774 2.24829 306.069 2.21919C306.246 2.20234 306.389 2.20542 306.531 2.23299C306.689 2.26363 306.644 2.2912 306.507 2.34634C306.177 2.48114 306.217 2.56385 306.64 2.65729C306.787 2.68946 306.905 2.71857 306.939 2.76606C306.959 2.79057 306.939 2.82273 306.984 2.84112C307.225 2.94375 307.559 3.00962 307.933 3.05864C308.292 3.01728 308.538 3.0862 308.813 3.14135C309.029 3.18424 309.285 3.14748 309.516 3.13217C309.777 3.11532 309.993 3.12757 310.18 3.18424C310.313 3.22407 310.451 3.24244 310.613 3.23479C310.937 3.21794 311.267 3.20722 311.587 3.18271C311.862 3.16126 312.068 3.1919 312.241 3.24399C312.457 3.30985 312.698 3.26542 312.924 3.27461C313.229 3.28534 313.382 3.42166 313.78 3.3849C314.016 3.36346 314.262 3.3558 314.508 3.34967C314.572 3.34814 314.65 3.37419 314.704 3.39257C314.965 3.47682 315.27 3.47222 315.604 3.44771C315.835 3.43086 316.062 3.41555 316.288 3.47376C316.661 3.57179 317.075 3.65758 317.468 3.74796C317.522 3.81842 317.483 3.90113 317.763 3.94248C317.911 3.96393 318.048 3.99611 318.161 4.03134C318.299 4.0727 318.427 4.08343 318.604 4.0727C318.924 4.05126 319.258 4.04665 319.573 4.01908C319.863 3.99457 320.045 4.04513 320.222 4.09262C320.364 4.13091 320.497 4.14929 320.669 4.12171C320.846 4.09567 320.974 4.11252 321.117 4.15388C321.318 4.21055 321.333 4.20444 322.002 4.22129C322.071 4.22282 322.154 4.24578 322.194 4.2657C322.213 4.27642 322.169 4.30707 322.135 4.32239C322.091 4.34077 322.022 4.36221 321.958 4.3668C321.23 4.40663 320.497 4.44186 319.769 4.48169C319.696 4.48628 319.617 4.49702 319.563 4.51234C319.504 4.52919 319.43 4.55215 319.43 4.57359C319.43 4.58891 319.528 4.6073 319.597 4.61802C319.814 4.65325 320.069 4.59964 320.281 4.63947C320.423 4.66551 320.541 4.70227 320.684 4.72677C320.743 4.7375 320.837 4.73597 320.91 4.73291C321.156 4.72219 321.397 4.70687 321.643 4.69768C321.712 4.69615 321.791 4.71147 321.854 4.72373C322.327 4.81564 322.327 4.81563 322.735 4.79572C322.897 4.78806 323.069 4.76508 323.222 4.77427C323.369 4.78346 323.497 4.82482 323.63 4.85086C323.905 4.90601 324.166 4.95962 324.185 5.0791C324.195 5.12505 324.357 5.16488 324.52 5.16794C324.677 5.171 324.844 5.15417 325.007 5.14498C325.39 5.12659 325.39 5.12659 325.887 5.22003C326.025 5.24608 326.172 5.24913 326.349 5.23382C326.418 5.22769 326.502 5.23382 326.575 5.24148C326.816 5.26446 326.816 5.29356 326.659 5.3487C326.438 5.42989 326.457 5.43755 327.077 5.50648C327.313 5.53252 327.495 5.58155 327.692 5.62444C328.011 5.69337 328.006 5.69336 327.795 5.78373C327.746 5.80365 327.701 5.8251 327.652 5.84654C327.51 5.90628 327.397 5.97062 327.101 5.97674C326.777 5.98287 326.452 6.00739 326.128 6.02424C325.813 6.04109 325.729 6.07784 325.759 6.182C325.793 6.30761 325.857 6.3214 326.423 6.31987C326.585 6.31987 326.728 6.33212 326.851 6.37348C326.792 6.4225 326.683 6.46079 326.526 6.46998C326.123 6.49296 325.715 6.51288 325.312 6.53279C324.987 6.54964 324.662 6.56649 324.338 6.58334C324.136 6.59406 324.008 6.67372 324.062 6.76257C324.092 6.81312 324.116 6.86366 324.141 6.91421C324.195 7.01531 324.298 7.04136 324.628 7.03677C324.712 7.03524 324.79 7.02297 324.869 7.02603C325.189 7.03676 325.341 7.1639 325.725 7.13785C326.044 7.11641 326.379 7.11182 326.693 7.08424C326.984 7.05974 327.146 7.11489 327.347 7.15625C327.416 7.17004 327.49 7.19913 327.549 7.1976C327.957 7.18075 328.365 7.16391 328.764 7.13481C328.951 7.12255 329.064 7.13174 329.211 7.1685C329.565 7.25735 329.575 7.25275 330.101 7.22518C330.485 7.20373 330.49 7.2068 330.981 7.30024C331.119 7.32628 331.267 7.32627 331.444 7.31402C331.675 7.2987 331.916 7.27419 332.157 7.29717C332.23 7.3033 332.324 7.32168 332.349 7.3416C332.363 7.35538 332.294 7.38909 332.235 7.39981C331.803 7.47946 331.296 7.46568 330.824 7.49785C330.677 7.50704 330.529 7.47793 330.406 7.43657C330.278 7.39521 330.141 7.37837 329.973 7.38603C329.649 7.40288 329.319 7.41359 329 7.4381C328.724 7.45955 328.532 7.42431 328.341 7.37683C328.277 7.36151 328.203 7.3324 328.139 7.33393C327.411 7.36457 326.679 7.39521 325.956 7.4381C325.666 7.45649 325.498 7.40747 325.302 7.36611C325.233 7.35233 325.164 7.32322 325.1 7.32475C324.854 7.33088 324.613 7.34772 324.367 7.35998C323.472 7.40593 322.582 7.45189 321.687 7.49478C321.628 7.49784 321.554 7.46567 321.486 7.45188C321.353 7.42431 321.215 7.39827 321.077 7.37223C320.832 7.38448 320.591 7.3998 320.345 7.40899C320.168 7.41512 320.01 7.43657 319.986 7.49478C319.971 7.53308 320.133 7.5683 320.305 7.56524C320.473 7.56217 320.64 7.54379 320.778 7.5637C321.461 7.66174 321.461 7.66328 321.889 7.64336C322.263 7.62498 322.223 7.60965 322.553 7.6939C322.695 7.73067 322.823 7.75212 322.986 7.74293C323.389 7.72149 323.797 7.70004 324.205 7.68166C324.269 7.67859 324.353 7.69392 324.416 7.70617C324.898 7.79808 324.898 7.80114 325.297 7.77816C325.818 7.75059 325.838 7.74293 326.187 7.83637C326.428 7.90071 326.649 7.85628 326.88 7.85322C327.146 7.91296 327.436 7.96658 327.677 8.03398C327.962 8.11364 328.262 8.09984 328.587 8.07686C328.828 8.06001 329.064 8.05388 329.26 8.11669C329.447 8.1749 329.673 8.18103 329.929 8.16572C330.16 8.15193 330.396 8.12282 330.637 8.15652C330.701 8.16571 330.799 8.18869 330.795 8.20248C330.79 8.22392 330.726 8.25456 330.662 8.26376C330.209 8.32656 329.713 8.32502 329.236 8.35413C329.172 8.35872 329.088 8.34187 329.024 8.32961C328.887 8.30204 328.754 8.26988 328.621 8.24077C328.38 8.24997 328.134 8.25302 327.898 8.2714C327.716 8.28519 327.578 8.28367 327.446 8.24691C327.323 8.21321 327.19 8.17184 327.043 8.16112C326.895 8.15039 326.723 8.17337 326.561 8.18256C326.398 8.19176 326.211 8.18715 326.084 8.21166C325.956 8.23617 325.877 8.28979 325.793 8.33268C325.7 8.38017 325.572 8.39549 325.385 8.40009C325.213 8.40468 325.075 8.39855 324.948 8.35566C324.894 8.33728 324.82 8.32349 324.746 8.31123C324.677 8.30051 324.598 8.28365 324.535 8.28672C323.802 8.32195 323.074 8.36026 322.341 8.39702C321.977 8.4154 321.982 8.41539 321.225 8.32501C321.156 8.31735 321.073 8.30663 321.004 8.3097C320.596 8.32808 320.192 8.34953 319.784 8.37098C319.371 8.39242 319.376 8.38936 318.673 8.29285C318.545 8.27447 318.358 8.29898 318.206 8.29592C317.886 8.28826 317.729 8.15959 317.355 8.1841C317.035 8.20554 316.701 8.21013 316.381 8.23771C316.091 8.26222 315.924 8.20861 315.727 8.16725C315.658 8.15346 315.585 8.12282 315.525 8.12589C314.793 8.15959 314.065 8.19788 313.091 8.20248C312.85 8.20248 312.959 8.23465 313.116 8.24537C313.342 8.26222 313.416 8.23006 313.293 8.16878C313.205 8.12589 313.077 8.10443 312.973 8.11515C312.919 8.12128 312.85 8.1504 313.091 8.20248C313.347 8.26069 313.332 8.29285 313.377 8.31123C313.485 8.35565 313.637 8.37404 313.795 8.36791C314.04 8.35719 314.281 8.34187 314.527 8.33268C314.596 8.32962 314.68 8.34034 314.744 8.35259C315.285 8.44757 315.29 8.4537 315.865 8.41694C316.047 8.40621 316.18 8.40621 316.322 8.43532C316.519 8.47515 316.662 8.54254 316.962 8.52109C317.36 8.49199 317.768 8.47515 318.176 8.4583C318.24 8.45524 318.309 8.48281 318.383 8.49506C318.584 8.53182 318.732 8.60076 319.032 8.57165C319.263 8.54867 319.514 8.54253 319.76 8.53794C319.823 8.53641 319.922 8.56092 319.951 8.58083C320.01 8.61607 319.937 8.65743 319.769 8.68654C319.701 8.69879 319.607 8.69572 319.528 8.70032C319.204 8.71717 318.879 8.73554 318.555 8.74933C318.383 8.75699 318.22 8.77998 318.201 8.83665C318.186 8.87495 318.363 8.90864 318.53 8.90558C318.776 8.90098 319.022 8.88873 319.258 8.86882C319.676 8.83512 320.04 8.8443 320.379 8.94081C320.62 9.00821 320.605 8.98371 320.861 9.18285C320.925 9.2334 321.117 9.23799 321.284 9.23492C321.687 9.22726 321.874 9.25025 321.84 9.29773C321.795 9.35594 321.653 9.37431 321.471 9.38197C321.146 9.39423 320.822 9.41415 320.497 9.431C320.419 9.4356 320.33 9.44478 320.256 9.44171C320.182 9.43865 320.114 9.42027 320.05 9.40649C319.912 9.37738 319.794 9.33295 319.646 9.32223C319.499 9.31151 319.327 9.33448 319.165 9.34368C319.002 9.35133 318.83 9.37431 318.683 9.36359C318.535 9.35287 318.412 9.30692 318.279 9.27935C318.215 9.26556 318.137 9.24411 318.073 9.24564C317.748 9.25789 317.424 9.27781 317.099 9.29313C316.701 9.31305 316.701 9.31305 316.219 9.21807C316.081 9.1905 315.939 9.19204 315.757 9.20429C315.363 9.2288 315.358 9.2242 314.64 9.13535C314.572 9.12616 314.488 9.11544 314.419 9.12004C313.686 9.15527 312.959 9.19356 312.231 9.23032C311.606 9.26249 311.606 9.2625 311.262 9.41569C311.006 9.52904 311.001 9.52903 311.252 9.58111C311.454 9.62401 311.636 9.6868 311.857 9.70978C312.064 9.73123 312.319 9.6623 312.546 9.73276C312.659 9.768 312.806 9.80629 312.949 9.81242C313.175 9.82008 313.416 9.77565 313.632 9.84305C313.74 9.87675 313.903 9.91199 314.04 9.91353C314.281 9.91659 314.527 9.89207 314.768 9.88135C314.842 9.87828 314.926 9.87829 314.994 9.88595C315.068 9.89514 315.132 9.91352 315.196 9.92884C315.393 9.98092 315.604 10.0054 315.86 9.97938C316.278 9.93649 316.652 9.95794 316.976 10.056C317.021 10.0698 317.129 10.0713 317.198 10.0652C317.375 10.0499 317.527 10.0483 317.66 10.0774C317.714 10.0897 317.793 10.1111 317.783 10.1249C317.768 10.1479 317.709 10.1785 317.645 10.1862C317.183 10.2383 316.686 10.2444 316.209 10.272C316.145 10.275 316.067 10.2551 316.003 10.2413C315.865 10.2137 315.747 10.1678 315.599 10.1571C315.452 10.1464 315.28 10.1663 315.117 10.1739C314.955 10.1816 314.783 10.2046 314.636 10.1954C314.488 10.1847 314.35 10.1464 314.232 10.1127C314.095 10.0744 313.962 10.0698 313.78 10.0851C313.544 10.105 313.298 10.1081 313.057 10.1188C312.924 10.0897 312.791 10.0575 312.654 10.0299C312.59 10.0161 312.511 9.9993 312.442 10.0008C312.118 10.0131 311.793 10.0315 311.469 10.0483C311.144 10.0652 311.144 10.0652 310.593 9.9702C310.529 9.95948 310.446 9.94722 310.377 9.95029C309.969 9.96867 309.565 9.99163 309.157 10.01C309 10.0177 308.857 9.99623 308.73 9.95487C308.607 9.91351 308.459 9.89053 308.307 9.89819C307.657 9.93036 307.008 9.961 306.359 9.9993C306.099 10.0146 305.877 10.0008 305.7 9.94569C305.494 9.88288 305.263 9.8982 305.022 9.91046C304.476 9.9411 304.471 9.93955 304.122 9.86143C304.053 9.84611 303.984 9.817 303.92 9.81854C303.355 9.84151 302.784 9.86296 302.224 9.89973C301.929 9.91964 301.771 9.86603 301.574 9.8262C301.506 9.81242 301.432 9.78331 301.373 9.78637C300.965 9.80322 300.556 9.81855 300.158 9.84918C299.76 9.87982 299.607 9.73736 299.307 9.7389C298.899 9.74043 298.496 9.77566 298.093 9.79711C297.768 9.81396 297.444 9.8308 297.119 9.84765C296.795 9.8645 296.47 9.87828 296.145 9.89819C295.973 9.90892 295.845 9.89513 295.703 9.85683C295.521 9.80628 295.305 9.76647 295.108 9.72052C294.808 9.65465 294.808 9.65464 294.444 9.67302C294.365 9.67762 294.282 9.68067 294.203 9.68527C293.608 9.71897 293.608 9.71591 292.851 9.61941C292.816 9.61481 292.728 9.63167 292.693 9.64392C292.59 9.68375 292.497 9.72663 292.403 9.76799C292.27 9.74348 292.108 9.7297 292.02 9.69447C291.769 9.5949 291.375 9.73123 291.12 9.63319C291.026 9.59643 290.864 9.56426 290.716 9.55507C290.564 9.54588 290.392 9.56732 290.235 9.57651C289.826 9.59949 289.826 9.59796 289.477 9.7343C289.3 9.8017 289.045 9.78944 288.813 9.80475C288.572 9.8216 288.341 9.8308 288.14 9.76799C287.958 9.71131 287.736 9.69753 287.476 9.71592C287.156 9.73889 286.827 9.75267 286.502 9.76646C286.433 9.76952 286.35 9.76187 286.281 9.75268C285.528 9.6623 285.528 9.66077 285.164 9.68069C285.002 9.68988 284.835 9.69293 284.678 9.70672C284.412 9.73122 284.211 9.69906 284.019 9.65004C283.955 9.63472 283.881 9.60563 283.817 9.60716C283.493 9.61482 283.173 9.6286 282.853 9.64239C282.607 9.65311 282.361 9.65924 282.125 9.68069C281.732 9.71592 281.54 9.61634 281.27 9.57038C280.867 9.5903 280.458 9.60409 280.055 9.63166C279.868 9.64391 279.745 9.63933 279.603 9.60256C279.421 9.55661 279.254 9.50453 278.959 9.5275C278.565 9.55814 278.152 9.56887 277.749 9.58725C277.478 9.53976 277.282 9.44324 276.893 9.47848C276.657 9.49992 276.406 9.50452 276.165 9.51677C275.841 9.53362 275.516 9.54895 275.192 9.56733C274.843 9.58572 274.848 9.58112 274.311 9.49074C274.002 9.43713 273.682 9.49687 273.367 9.50606C273.121 9.51372 272.998 9.58418 273.057 9.67455C273.117 9.76493 272.984 9.8354 272.757 9.84765C272.192 9.87675 271.622 9.90738 271.056 9.93342C270.987 9.93649 270.904 9.92576 270.84 9.91504C270.235 9.81854 270.235 9.82008 269.964 9.83387C269.561 9.85685 269.148 9.86909 268.75 9.89819C268.474 9.91811 268.273 9.88595 268.096 9.83387C267.958 9.79404 267.83 9.78485 267.653 9.79404C265.706 9.89667 263.758 9.99164 261.816 10.0973C261.526 10.1127 261.359 10.0682 261.162 10.0269C261.093 10.0131 261.029 9.98398 260.96 9.98398C260.798 9.98398 260.636 9.99777 260.473 10.007C259.746 10.0437 259.018 10.0881 258.285 10.1157C257.975 10.128 257.892 10.1984 257.759 10.2567C257.656 10.3011 257.538 10.3194 257.356 10.3256C257.179 10.3317 257.051 10.324 256.913 10.2842C256.736 10.2321 256.535 10.2 256.259 10.2214C255.94 10.2459 255.615 10.2566 255.285 10.2735C255.118 10.2812 254.99 10.3087 254.936 10.3639C254.926 10.3731 255.03 10.396 255.089 10.4098C255.285 10.4558 255.472 10.5094 255.694 10.5416C255.92 10.5737 256.166 10.537 256.402 10.5278C256.485 10.5247 256.564 10.5155 256.643 10.5171C256.716 10.5186 256.805 10.5262 256.859 10.54C257.115 10.609 257.385 10.6565 257.739 10.6151C258.044 10.635 258.202 10.7621 258.59 10.7284C258.826 10.7085 259.072 10.6993 259.318 10.6917C259.382 10.6902 259.451 10.7177 259.519 10.7315C259.716 10.7698 259.874 10.8311 260.169 10.805C260.483 10.7775 260.818 10.7729 261.137 10.7514C261.314 10.7392 261.442 10.7499 261.58 10.7897C261.757 10.8403 261.959 10.8786 262.234 10.854C262.47 10.8326 262.721 10.828 262.962 10.8142C263.276 10.7974 263.276 10.7989 263.837 10.8939C263.901 10.9046 263.985 10.9169 264.053 10.9138C264.462 10.8954 264.865 10.8724 265.273 10.854C265.43 10.8464 265.583 10.8663 265.691 10.9107C265.735 10.9291 265.72 10.9598 265.735 10.9858C264.924 11.0272 264.112 11.0624 263.306 11.1129C263.001 11.1328 262.863 11.07 262.662 11.0348C262.593 11.0226 262.519 10.9965 262.455 10.9996C261.885 11.0256 261.319 11.0532 260.754 11.0869C260.577 11.0976 260.444 11.0915 260.311 11.0471C259.972 10.9291 259.559 10.9934 259.175 11.0103C258.88 11.0225 258.787 11.07 258.821 11.1711C258.865 11.2906 259.042 11.3274 259.495 11.3059C259.657 11.2983 259.819 11.2876 259.982 11.2814C260.139 11.2753 260.282 11.2952 260.41 11.3366C260.532 11.3779 260.68 11.3994 260.832 11.3932C261.157 11.3795 261.486 11.3657 261.801 11.3427C262.062 11.3243 262.278 11.3396 262.46 11.3963C262.662 11.4591 262.898 11.4453 263.134 11.4315C263.685 11.4009 263.689 11.4024 264.034 11.479C264.103 11.4944 264.171 11.5235 264.235 11.5219C264.801 11.499 265.371 11.479 265.927 11.4423C266.217 11.4239 266.384 11.4729 266.576 11.5127C266.645 11.5265 266.714 11.5572 266.778 11.5541C267.186 11.5372 267.594 11.5204 267.992 11.4913C268.179 11.4775 268.292 11.4867 268.445 11.5234C268.809 11.6138 268.819 11.6108 269.335 11.5817C269.492 11.5725 269.664 11.5556 269.812 11.5679C269.959 11.5801 270.077 11.6246 270.215 11.6521C270.279 11.6644 270.358 11.6812 270.427 11.6782C270.751 11.6659 271.076 11.6475 271.4 11.6307C271.705 11.6138 271.705 11.6154 272.276 11.7103C272.507 11.7502 272.748 11.7165 272.979 11.7042C273.23 11.6904 273.456 11.6904 273.648 11.7502C273.839 11.8099 274.071 11.8068 274.316 11.7946C274.548 11.7823 274.784 11.7486 275.02 11.79C275.561 11.885 275.561 11.8865 275.895 11.8681C276.382 11.8421 276.864 11.8176 277.355 11.7946C277.419 11.7915 277.503 11.8099 277.567 11.8222C277.705 11.8497 277.823 11.8957 277.97 11.9064C278.118 11.9187 278.29 11.9003 278.447 11.8911C278.954 11.862 278.988 11.8513 279.327 11.9524C279.613 12.0351 279.967 11.9156 280.232 12.0106C280.385 12.0642 280.591 12.1071 280.876 12.081C281.112 12.0596 281.358 12.0535 281.604 12.0412C281.993 12.0213 281.993 12.0228 282.484 12.1147C282.548 12.127 282.632 12.1423 282.696 12.1392C283.02 12.127 283.35 12.1163 283.665 12.0887C284.034 12.0565 284.269 12.1147 284.545 12.1714C284.761 12.2158 285.017 12.1791 285.248 12.1638C285.499 12.1484 285.725 12.153 285.912 12.2128C286.109 12.274 286.34 12.2664 286.586 12.2541C286.817 12.2434 287.053 12.2082 287.289 12.2511C287.795 12.346 287.795 12.346 288.164 12.3277C288.489 12.3108 288.813 12.2924 289.138 12.2802C289.202 12.2771 289.28 12.297 289.344 12.3108C289.482 12.3384 289.6 12.3843 289.748 12.3951C289.895 12.4058 290.067 12.3859 290.23 12.3782C290.392 12.3706 290.564 12.3476 290.711 12.3568C290.859 12.366 290.997 12.4043 291.115 12.438C291.252 12.4778 291.38 12.4824 291.567 12.4671C291.803 12.4471 292.049 12.4425 292.29 12.4318C292.423 12.4609 292.561 12.49 292.688 12.5222C292.821 12.5559 292.964 12.5528 293.146 12.5421C293.751 12.5053 293.755 12.5099 294.262 12.6049C294.493 12.6478 294.734 12.6126 294.965 12.6019C295.211 12.5896 295.442 12.5835 295.634 12.6447C295.821 12.703 296.052 12.7106 296.298 12.6922C296.455 12.68 296.622 12.6723 296.785 12.6677C296.858 12.6662 296.947 12.6723 297.001 12.6846C297.262 12.7489 297.517 12.8071 297.876 12.7658C298.191 12.778 298.348 12.9036 298.727 12.8791C299.047 12.8577 299.381 12.8531 299.696 12.8255C299.986 12.801 300.193 12.8439 300.34 12.8975C300.606 12.9925 300.979 12.8638 301.245 12.9572C301.397 13.0109 301.594 13.0537 301.889 13.0308C302.214 13.0063 302.317 13.0384 302.41 13.1349C302.464 13.1901 302.455 13.2345 302.356 13.2774C302.258 13.3218 302.15 13.3142 301.992 13.2636C301.811 13.2069 301.594 13.1962 301.333 13.2084C301.078 13.2207 300.92 13.1411 300.709 13.1104C300.497 13.0783 300.247 13.1319 300.025 13.0905C299.504 12.994 299.504 12.994 299.15 13.0124C298.909 13.0246 298.658 13.0308 298.422 13.0522C298.142 13.0783 297.96 13.0308 297.768 12.9879C297.699 12.9726 297.63 12.9434 297.571 12.945C297.006 12.968 296.436 12.9894 295.875 13.0277C295.58 13.0476 295.423 12.9925 295.226 12.9542C295.157 12.9404 295.083 12.9128 295.024 12.9159C294.537 12.9373 294.055 12.9649 293.569 12.9909C293.475 13.0323 293.372 13.0721 293.283 13.1165C293.19 13.1625 293.062 13.1824 292.875 13.1809C292.565 13.1809 292.261 13.2452 291.951 13.164C291.631 13.0813 291.607 13.0859 291.297 13.1058C290.903 13.1319 290.485 13.1257 290.116 13.1855C290.053 13.1962 289.984 13.2253 289.984 13.2467C289.979 13.2605 290.082 13.2805 290.146 13.2927C290.362 13.3295 290.613 13.2759 290.83 13.3142C290.972 13.3387 291.09 13.3754 291.233 13.4015C291.292 13.4122 291.38 13.4107 291.459 13.4091C291.543 13.4076 291.621 13.3969 291.7 13.3984C291.774 13.3999 291.852 13.4091 291.911 13.4229C292.182 13.4811 292.467 13.5347 292.708 13.6037C292.944 13.6711 293.165 13.6251 293.401 13.6221C294.346 13.7293 294.346 13.7308 294.98 13.6971C295.137 13.6894 295.3 13.6803 295.462 13.6818C295.531 13.6818 295.595 13.7094 295.664 13.7247C295.86 13.7706 296.047 13.812 296.323 13.7875C296.559 13.766 296.809 13.7614 297.05 13.7477C297.375 13.7308 297.375 13.7308 297.926 13.8273C298.063 13.8518 298.211 13.8488 298.388 13.8365C298.54 13.8258 298.698 13.8488 298.806 13.8932C298.85 13.9116 298.835 13.9422 298.85 13.9682C298.363 13.9928 297.872 14.0096 297.399 14.0464C297.095 14.0693 296.957 14.0035 296.755 13.9682C296.686 13.956 296.613 13.93 296.549 13.933C296.067 13.956 295.585 13.982 295.103 14.0127C295.044 14.0157 294.97 14.051 294.965 14.0724C294.955 14.1122 295.078 14.1505 295.255 14.149C295.491 14.1475 295.723 14.1214 295.934 14.1842C296.111 14.2394 296.332 14.2639 296.593 14.2394C296.75 14.2256 296.918 14.2256 297.075 14.2133C297.493 14.1766 297.871 14.1842 298.186 14.2884C298.427 14.316 298.663 14.2899 298.894 14.2761C299.066 14.2654 299.234 14.2547 299.357 14.2838C299.617 14.3451 299.873 14.4063 300.232 14.365C300.62 14.4079 300.916 14.4982 301.24 14.5718C301.393 14.607 301.51 14.6269 301.688 14.604C301.761 14.5948 301.85 14.5947 301.928 14.5902C302.091 14.5825 302.263 14.5595 302.41 14.5687C302.558 14.5794 302.681 14.6239 302.814 14.6514C302.878 14.6652 302.951 14.6882 303.015 14.6867C303.261 14.679 303.502 14.6637 303.743 14.6514C303.984 14.6407 304.225 14.63 304.466 14.6193C304.668 14.6591 304.874 14.6989 305.076 14.7388C305.4 14.7219 305.725 14.705 306.045 14.6897C306.404 14.6713 306.403 14.6729 306.92 14.7678C307.151 14.8107 307.397 14.7832 307.618 14.7632C307.987 14.7311 308.233 14.7893 308.493 14.8506C308.548 14.8628 308.646 14.8705 308.71 14.8644C308.966 14.8429 309.187 14.8598 309.374 14.9164C309.506 14.9563 309.639 14.9746 309.802 14.967C310.367 14.9379 310.933 14.9072 311.498 14.8812C311.567 14.8781 311.646 14.8919 311.709 14.9042C312.211 14.9976 312.216 15.0022 312.585 14.9777C312.914 14.9563 313.219 14.9471 313.48 15.0313C313.534 15.0497 313.617 15.0757 313.676 15.0742C314.08 15.0589 314.488 15.042 314.886 15.016C315.068 15.0037 315.196 15.0083 315.339 15.0436C315.521 15.088 315.683 15.1416 315.983 15.1217C316.814 15.065 316.819 15.0742 317.802 15.1799C317.871 15.1876 317.965 15.1753 318.043 15.1692C318.211 15.1539 318.333 15.1753 318.481 15.2105C318.81 15.2902 318.82 15.2856 319.135 15.2688C319.376 15.255 319.627 15.2519 319.863 15.2289C320.227 15.1952 320.468 15.255 320.738 15.3116C320.955 15.3561 321.205 15.3193 321.436 15.3055C321.687 15.2902 321.913 15.2948 322.1 15.353C322.228 15.3928 322.366 15.4143 322.528 15.4066C323.094 15.379 323.659 15.3484 324.225 15.3208C324.294 15.3178 324.377 15.33 324.441 15.3407C325.002 15.4357 325.002 15.4403 325.557 15.4051C325.734 15.3944 325.882 15.3913 326.015 15.4235C326.143 15.4541 326.28 15.4832 326.413 15.5123C326.654 15.5016 326.9 15.4985 327.136 15.4801C327.318 15.4664 327.446 15.4725 327.588 15.5047C327.775 15.546 327.933 15.618 328.228 15.5828C328.38 15.5659 328.557 15.5705 328.71 15.5552C328.891 15.5353 329.014 15.5475 329.157 15.5874C329.334 15.6349 329.516 15.6839 329.801 15.6594C330.116 15.6318 330.45 15.6272 330.77 15.6057C330.947 15.5935 331.07 15.6057 331.213 15.6456C331.39 15.6961 331.591 15.7283 331.867 15.7084C332.427 15.6701 332.432 15.6777 332.978 15.7742C333.116 15.7988 333.263 15.7957 333.44 15.7834C333.593 15.7727 333.75 15.7957 333.858 15.8401C333.961 15.8891 333.952 15.9198 333.961 15.9458ZM290.141 2.13035C289.979 2.13801 289.816 2.1472 289.58 2.01393C289.566 1.99095 289.576 1.96339 289.541 1.94347C289.462 1.90211 289.34 1.87301 289.192 1.86842C288.926 1.86229 288.607 1.91436 288.612 1.95419C288.617 1.98789 288.7 2.01699 288.862 2.04456C288.931 2.05528 288.985 2.07367 289.049 2.08592C289.236 2.12115 289.384 2.1901 289.654 2.15487C289.63 2.10738 289.605 2.05989 289.654 2.15487C289.63 2.21307 289.703 2.25443 289.88 2.27128C289.93 2.27588 290.003 2.27281 290.043 2.26362C290.195 2.22992 290.22 2.18397 290.107 2.06296C290.087 2.08287 290.102 2.11809 290.146 2.12728C290.19 2.13648 290.298 2.12883 290.353 2.1181C290.49 2.089 290.559 2.0507 290.525 2.01853C290.505 2.00168 290.412 1.98024 290.353 1.98024C290.249 1.98024 290.156 2.01393 290.141 2.13035ZM329.904 19.8948C329.545 19.9239 329.132 19.9132 328.773 19.973C328.71 19.9837 328.646 20.0113 328.641 20.0327C328.636 20.0465 328.734 20.0664 328.793 20.0771C328.926 20.1016 329.073 20.094 329.246 20.0863C329.506 20.0756 329.659 20.1461 329.86 20.1813C329.924 20.192 330.008 20.1997 330.077 20.1966C330.475 20.1782 330.868 20.1583 331.267 20.1369C331.335 20.1323 331.409 20.1215 331.468 20.1078C331.665 20.0633 331.645 20.0342 331.454 20.0005C331.242 19.9638 331.075 19.9025 330.859 19.8734C330.549 19.832 330.234 19.8872 329.904 19.8948ZM301.978 21.0131C301.737 21.0253 301.501 21.0376 301.26 21.0498C301.181 21.0544 301.097 21.056 301.024 21.0621C300.871 21.0728 300.758 21.105 300.684 21.1555C300.797 21.1953 300.935 21.2183 301.088 21.2137C301.329 21.2045 301.565 21.1846 301.806 21.18C302.066 21.1739 302.219 21.2428 302.42 21.2781C302.484 21.2888 302.563 21.2903 302.637 21.2919C303 21.298 303.222 21.2183 303.153 21.1065C303.104 21.0192 302.917 20.9671 302.691 20.9778C302.455 20.9886 302.214 21.0008 301.978 21.0131ZM331.586 17.6308C331.645 17.6048 331.709 17.5864 331.739 17.5634C331.827 17.4853 331.793 17.4271 331.631 17.3658C331.434 17.2907 331.193 17.3413 330.972 17.349C330.918 17.3505 330.859 17.3827 330.829 17.4026C330.809 17.4164 330.809 17.4455 330.839 17.4531C331.08 17.5144 331.336 17.5711 331.586 17.6308ZM288.926 13.1058C288.69 13.1181 288.449 13.1273 288.213 13.1441C288.154 13.1487 288.1 13.1778 288.066 13.1977C288.002 13.2345 288.071 13.285 288.272 13.2896C288.504 13.2958 288.744 13.2697 288.985 13.2575C289.29 13.2422 289.472 13.1855 289.359 13.1365C289.251 13.089 289.104 13.0798 288.926 13.1058ZM30.0708 9.83234C30.2282 9.82468 30.3905 9.81854 30.5478 9.80782C30.6954 9.7971 30.8086 9.7634 30.8823 9.71285C30.7594 9.67302 30.6216 9.65158 30.4692 9.65617C30.2282 9.66536 29.9922 9.67762 29.7562 9.69293C29.6086 9.70213 29.4661 9.73582 29.4317 9.78791C29.3972 9.82773 29.7266 9.85072 30.0708 9.83234ZM268.13 9.59643C268.194 9.61022 268.258 9.63779 268.322 9.63779C268.479 9.63779 268.642 9.6286 268.789 9.61328C268.853 9.60715 268.902 9.57958 268.932 9.55813C268.951 9.54435 268.946 9.51985 268.917 9.50759C268.774 9.43406 268.204 9.4601 268.11 9.54435C268.101 9.55967 268.125 9.57958 268.13 9.59643ZM252.615 1.20819C252.63 1.2327 252.635 1.25721 252.655 1.28172C252.694 1.32767 252.802 1.36138 252.959 1.38436C253.082 1.34606 253.146 1.30318 253.141 1.25722C253.136 1.23271 253.122 1.20819 253.102 1.18368C253.063 1.13772 252.955 1.10404 252.797 1.08106C252.674 1.11782 252.615 1.16071 252.615 1.20819ZM342.951 21.2796C342.906 21.2995 342.862 21.3194 342.813 21.3378C342.946 21.3822 343.069 21.396 343.162 21.3715C343.221 21.3562 343.256 21.3332 343.3 21.3133C343.167 21.2689 343.049 21.2566 342.951 21.2796ZM339.892 21.4879C339.956 21.5017 340.015 21.5201 340.084 21.5293C340.197 21.5446 340.3 21.5186 340.379 21.4634C340.315 21.4496 340.256 21.4312 340.187 21.4221C340.074 21.4067 339.971 21.4328 339.892 21.4879ZM341.83 21.2076C341.795 21.2444 341.864 21.275 342.046 21.3011C342.09 21.2811 342.149 21.2628 342.179 21.2413C342.228 21.2061 342.144 21.1739 341.967 21.1494C341.918 21.1678 341.874 21.1877 341.83 21.2076ZM331.449 19.5563C331.414 19.5931 331.483 19.6237 331.665 19.6497C331.709 19.6298 331.768 19.6115 331.798 19.59C331.847 19.5548 331.763 19.5226 331.586 19.4981C331.537 19.5165 331.493 19.5364 331.449 19.5563ZM317.306 8.71717C317.261 8.73708 317.217 8.757 317.168 8.77538C317.301 8.8198 317.424 8.83358 317.517 8.80907C317.576 8.79375 317.611 8.77078 317.655 8.75086C317.522 8.70644 317.404 8.69419 317.306 8.71717ZM303.758 2.96672C303.876 2.97744 303.974 2.956 304.058 2.89933C303.994 2.88554 303.935 2.86716 303.866 2.85796C303.753 2.84265 303.65 2.8687 303.571 2.92384C303.635 2.93916 303.699 2.95293 303.758 2.96672ZM296.563 2.60674C296.519 2.62666 296.475 2.64657 296.426 2.66495C296.559 2.70938 296.681 2.72316 296.775 2.69865C296.834 2.68333 296.868 2.66035 296.913 2.64044C296.78 2.59602 296.662 2.5853 296.563 2.60674ZM247.776 1.20666C247.732 1.22657 247.688 1.24649 247.639 1.26487C247.771 1.30929 247.894 1.32307 247.988 1.29857C248.047 1.28325 248.081 1.26027 248.125 1.24036C247.993 1.19593 247.875 1.18521 247.776 1.20666ZM4.85357 13.6695C4.78964 13.6557 4.72577 13.642 4.66676 13.6267C4.52415 13.668 4.47991 13.7063 4.55859 13.7354C4.60777 13.7538 4.68147 13.7645 4.7454 13.7783C4.89293 13.7369 4.92734 13.7002 4.85357 13.6695Z" fill="#FFE492"/>
<path d="M33.3769 8.26078C32.8114 8.28989 32.2508 8.32664 31.6853 8.34502C31.3853 8.35421 31.2772 8.42008 31.1543 8.48135C31.0559 8.53037 30.9428 8.54569 30.7609 8.55488C29.2266 8.62994 27.6972 8.70959 26.1678 8.78772C25.976 8.7678 25.8826 8.73564 25.9269 8.69734C25.9514 8.67437 26.0105 8.6422 26.0695 8.63914C27.1169 8.58246 28.1594 8.52424 29.2118 8.47982C29.5117 8.46757 29.5954 8.40016 29.7478 8.34502C29.797 8.32664 29.8364 8.29907 29.9003 8.28834C29.9642 8.27609 30.0576 8.27763 30.1412 8.27456C31.8329 8.18725 33.5246 8.10147 35.2162 8.01416C35.408 8.03407 35.5014 8.06624 35.4572 8.10453C35.4326 8.12751 35.3735 8.15968 35.3145 8.16274C34.6654 8.19491 34.0211 8.22708 33.3769 8.26078Z" fill="#FFE492"/>
<path d="M343.02 16.4178C342.764 16.4362 342.439 16.4622 342.174 16.3733C342.046 16.3305 341.908 16.3167 341.741 16.3259C341.5 16.3412 341.254 16.3534 341.008 16.3626C340.944 16.3642 340.861 16.3473 340.797 16.3335C340.659 16.3059 340.541 16.26 340.394 16.2477C340.246 16.2355 340.069 16.2692 339.917 16.2615C339.715 16.2508 339.631 16.2095 339.686 16.1712C339.715 16.1497 339.774 16.1191 339.838 16.1145C340.748 16.0578 340.753 16.0578 341.008 16.1129C341.205 16.1558 341.387 16.2033 341.667 16.1773C341.903 16.1558 342.154 16.1512 342.395 16.1374C342.73 16.1191 342.73 16.1206 343.27 16.2171C343.408 16.2416 343.556 16.2401 343.733 16.2263C343.885 16.2156 344.033 16.2401 344.156 16.2814C344.077 16.3335 343.964 16.3672 343.811 16.3764C343.565 16.3917 343.325 16.4025 343.02 16.4178Z" fill="#FFE492"/>
<path d="M333.971 15.9457C334.59 15.9135 335.215 15.8859 335.834 15.8492C336.09 15.8339 336.292 15.8507 336.469 15.9028C336.661 15.9595 336.877 15.9549 337.113 15.9442C337.261 15.938 337.403 15.9625 337.502 16.0054C337.541 16.0223 337.531 16.0529 337.546 16.0774C337.005 16.105 336.459 16.1341 335.913 16.1586C335.849 16.1617 335.771 16.1464 335.712 16.1341C335.579 16.1081 335.466 16.0621 335.323 16.0529C335.018 16.0315 334.713 16.0728 334.404 16.0805C334.256 16.0835 334.113 16.0606 334.015 16.0192C333.976 15.9993 333.985 15.9702 333.971 15.9457Z" fill="#FFE492"/>
<path d="M110.045 2.77558C110.689 2.74188 111.333 2.70973 111.977 2.67603C112.169 2.69747 112.258 2.7281 112.218 2.7664C112.194 2.78937 112.135 2.82154 112.076 2.82461C110.787 2.89354 109.499 2.9594 108.215 3.02527C108.024 3.00382 107.935 2.97319 107.975 2.93489C107.999 2.91192 108.058 2.87975 108.117 2.87668C108.756 2.84145 109.401 2.80928 110.045 2.77558Z" fill="#FFE492"/>
<path d="M10.7802 11.287C10.49 11.2901 10.1852 11.3468 9.86064 11.3039C9.79671 11.2962 9.70817 11.2717 9.71309 11.2579C9.72292 11.235 9.78194 11.2058 9.84587 11.1967C10.1262 11.1584 10.4754 11.1538 10.618 11.0465C10.6868 10.9914 10.8147 10.973 10.9868 10.9623C11.1687 10.95 11.2965 10.9546 11.4392 10.9868C11.626 11.0282 11.7834 11.1047 12.0785 11.0649C12.0932 11.0894 12.1276 11.117 12.1128 11.14C12.098 11.163 12.0342 11.1844 11.9752 11.2013C11.9211 11.2166 11.8473 11.2304 11.7784 11.2349C11.4539 11.2533 11.1293 11.2687 10.7802 11.287Z" fill="#FFE492"/>
<path d="M266.525 10.9792C266.766 10.967 267.016 10.9609 267.252 10.9394C267.439 10.9226 267.557 10.9333 267.705 10.97C267.956 11.0344 267.97 11.0283 268.585 11.0374C268.654 11.039 268.738 11.0619 268.777 11.0819C268.802 11.0926 268.767 11.1217 268.738 11.137C268.693 11.1569 268.629 11.183 268.57 11.183C268.182 11.1876 267.789 11.2779 267.41 11.1738C267.218 11.1217 267.007 11.0972 266.746 11.1202C266.589 11.1339 266.421 11.1401 266.259 11.1462C266.102 11.1523 265.94 11.1355 265.841 11.0895C265.699 11.0221 265.782 10.9961 266.038 11.0007C266.2 11.0037 266.362 10.9869 266.525 10.9792Z" fill="#FFE492"/>
<path d="M355.652 21.539C355.962 21.5237 356.272 21.5053 356.586 21.493C356.65 21.49 356.729 21.5068 356.788 21.5176C357.024 21.5635 356.99 21.6416 357 21.7105C357.005 21.7825 356.459 21.8408 356.228 21.7917C355.972 21.7366 355.741 21.6738 355.387 21.7075C355.249 21.7198 355.087 21.6922 354.998 21.6478C354.865 21.5834 354.939 21.5574 355.19 21.562C355.337 21.565 355.495 21.5482 355.652 21.539Z" fill="#FFE492"/>
<path d="M199.529 0.688731C199.849 0.671881 200.168 0.645853 200.488 0.644321C200.675 0.642789 200.768 0.69333 200.724 0.730093C200.699 0.75307 200.64 0.785239 200.581 0.788303C199.942 0.825067 199.303 0.855708 198.663 0.889408C198.477 0.867963 198.383 0.8358 198.427 0.799036C198.452 0.776059 198.511 0.745422 198.57 0.740826C198.89 0.719381 199.209 0.705581 199.529 0.688731Z" fill="#FFE492"/>
<path d="M349.515 16.5523C349.824 16.5369 350.139 16.5139 350.449 16.5063C350.611 16.5032 350.739 16.5385 350.759 16.5783C350.769 16.5967 350.69 16.6288 350.626 16.6365C350.183 16.6886 349.706 16.6947 349.244 16.7207C349.097 16.7284 348.939 16.7039 348.851 16.661C348.718 16.5951 348.792 16.5706 349.043 16.5752C349.2 16.5768 349.357 16.5599 349.515 16.5523Z" fill="#FFE492"/>
<path d="M274.662 11.1864C274.819 11.1788 274.981 11.1588 275.134 11.165C275.296 11.1726 275.399 11.2171 275.449 11.2615C275.503 11.312 275.498 11.3595 275.449 11.4024C275.37 11.4759 275.291 11.4729 275.109 11.4239C274.829 11.3473 274.809 11.3565 274.254 11.3595C274.19 11.3595 274.111 11.3365 274.062 11.3166C273.988 11.286 274.027 11.2385 274.199 11.2109C274.327 11.191 274.504 11.1941 274.662 11.1864Z" fill="#FFE492"/>
<path d="M337.987 16.0493C338.218 16.037 338.449 16.0171 338.68 16.0171C338.843 16.0156 338.971 16.0508 338.985 16.0891C338.99 16.1075 338.916 16.1381 338.857 16.1473C338.577 16.1887 338.262 16.1918 337.958 16.2055C337.815 16.2117 337.658 16.1872 337.569 16.1443C337.436 16.0799 337.515 16.0508 337.756 16.06C337.83 16.0631 337.908 16.0539 337.987 16.0493Z" fill="#FFE492"/>
<path d="M301.621 14.1703C301.276 14.1887 300.952 14.1657 300.976 14.1259C301.011 14.0738 301.153 14.0401 301.301 14.0309C301.537 14.0156 301.773 14.0033 302.014 13.9941C302.166 13.988 302.304 14.011 302.427 14.0508C302.353 14.0998 302.24 14.1351 302.093 14.1458C301.94 14.1565 301.778 14.1627 301.621 14.1703Z" fill="#FFE492"/>
<path d="M299.364 13.9746C299.595 13.9623 299.826 13.9424 300.057 13.9424C300.22 13.9409 300.348 13.9761 300.362 14.0144C300.367 14.0328 300.293 14.0634 300.234 14.0726C299.954 14.114 299.639 14.1171 299.334 14.1308C299.192 14.137 299.034 14.1125 298.946 14.0696C298.813 14.0052 298.892 13.9761 299.133 13.9853C299.207 13.9884 299.285 13.9792 299.364 13.9746Z" fill="#FFE492"/>
<path d="M271.864 11.1744C272.095 11.1621 272.326 11.1422 272.557 11.1407C272.72 11.1391 272.847 11.1744 272.862 11.2127C272.867 11.2311 272.793 11.2602 272.734 11.2709C272.454 11.3123 272.139 11.3153 271.834 11.3291C271.692 11.3352 271.535 11.3107 271.446 11.2678C271.313 11.2035 271.392 11.1744 271.633 11.1836C271.707 11.1866 271.785 11.1775 271.864 11.1744Z" fill="#FFE492"/>
<path d="M270.572 11.0834C270.818 11.0711 270.897 11.0635 270.975 11.0635C271.123 11.0635 271.275 11.0819 271.364 11.1263C271.497 11.1906 271.418 11.209 271.177 11.2121C270.867 11.2151 270.562 11.2473 270.252 11.2534C270.09 11.2565 269.962 11.2197 269.952 11.1814C269.947 11.163 270.021 11.1309 270.08 11.1248C270.287 11.1018 270.513 11.088 270.572 11.0834Z" fill="#FFE492"/>
<path d="M297.36 2.07191C297.203 2.07957 297.035 2.10102 296.888 2.09336C296.691 2.08264 296.613 2.04129 296.662 2.00299C296.691 1.98154 296.745 1.95091 296.804 1.94631C297.119 1.92487 297.439 1.91107 297.753 1.89575C297.94 1.91873 298.024 1.9509 297.975 1.98919C297.945 2.01064 297.891 2.03974 297.832 2.04587C297.68 2.06119 297.517 2.06426 297.36 2.07191Z" fill="#FFE492"/>
<path d="M106.525 2.95565C106.677 2.95412 106.815 2.97403 106.933 3.01233C106.859 3.06134 106.751 3.09351 106.603 3.1073C106.529 3.11342 106.446 3.11801 106.367 3.11954C106.215 3.12261 106.077 3.10116 105.959 3.06287C106.033 3.01385 106.146 2.98168 106.288 2.9679C106.362 2.96177 106.446 2.96024 106.525 2.95565Z" fill="#FFE492"/>
<path d="M347.833 16.5466C347.828 16.5022 348.128 16.4516 348.399 16.4532C348.541 16.4547 348.689 16.4761 348.772 16.5175C348.9 16.5803 348.826 16.6048 348.585 16.6002C348.438 16.5971 348.28 16.6232 348.133 16.6186C347.966 16.6171 347.867 16.5834 347.833 16.5466Z" fill="#FFE492"/>
<path d="M276.067 11.3719C276.062 11.3551 276.038 11.3352 276.053 11.3198C276.146 11.2356 276.712 11.2096 276.859 11.2831C276.884 11.2969 276.893 11.3198 276.874 11.3336C276.844 11.3551 276.79 11.3826 276.731 11.3888C276.579 11.4041 276.421 11.4117 276.264 11.4133C276.195 11.4133 276.131 11.3872 276.067 11.3719Z" fill="#FFE492"/>
<path d="M12.5155 11.0423C11.9352 11.0745 11.9254 11.0714 12.0287 10.9948C12.1221 10.9259 12.2942 10.8846 12.545 10.8846C12.6188 10.8846 12.6975 10.8815 12.7614 10.8876C12.8302 10.8953 12.9286 10.9106 12.9434 10.929C12.9729 10.9642 12.8892 11.0025 12.7417 11.0285C12.6778 11.0408 12.5942 11.0377 12.5155 11.0423Z" fill="#FFE492"/>
<path d="M113.773 2.74072C113.601 2.76676 113.454 2.75757 113.345 2.70855C113.237 2.65954 113.409 2.60132 113.709 2.58753C113.788 2.58447 113.872 2.57223 113.945 2.57835C114.019 2.58295 114.093 2.60131 114.137 2.6197C114.216 2.65033 114.167 2.6917 114.009 2.72693C113.945 2.74072 113.852 2.73765 113.773 2.74072Z" fill="#FFE492"/>
<path d="M346.829 16.4315C346.873 16.4116 346.916 16.3917 346.965 16.3733C347.144 16.3993 347.222 16.43 347.173 16.4652C347.144 16.4866 347.086 16.505 347.042 16.5249C346.863 16.4989 346.79 16.4667 346.829 16.4315Z" fill="#FFE492"/>
<path d="M20.3184 28.4807C20.3184 28.4623 20.3863 28.4332 20.4396 28.427C20.5415 28.4163 20.6675 28.4378 20.7548 28.4807C20.8761 28.5419 20.8034 28.5741 20.5803 28.5572C20.4251 28.545 20.3184 28.5144 20.3184 28.4807Z" fill="#FFE492"/>
<path d="M278.078 9.9458C278.141 9.95969 278.204 9.97359 278.262 9.98902C278.18 10.0461 278.078 10.0708 277.971 10.0554C277.903 10.0461 277.845 10.0276 277.782 10.0137C277.864 9.9566 277.961 9.935 278.078 9.9458Z" fill="#FFE492"/>
<path d="M276.363 9.87666C276.46 9.85351 276.576 9.86587 276.712 9.91063C276.668 9.93069 276.63 9.95384 276.576 9.96927C276.484 9.99396 276.363 9.9816 276.232 9.93531C276.271 9.91679 276.314 9.89673 276.363 9.87666Z" fill="#FFE492"/>
<path d="M275.062 9.94415C275.125 9.95804 275.188 9.97193 275.246 9.98736C275.164 10.0445 275.067 10.0691 274.955 10.0537C274.887 10.0445 274.829 10.0259 274.766 10.012C274.849 9.95494 274.946 9.9318 275.062 9.94415Z" fill="#FFE492"/>
<path d="M274.121 9.86321C274.193 9.89384 274.155 9.9306 274.014 9.97196C273.951 9.95817 273.878 9.94747 273.83 9.92908C273.752 9.89998 273.791 9.86167 273.936 9.82031C273.995 9.83563 274.058 9.84942 274.121 9.86321Z" fill="#FFE492"/>
</svg>
