<svg width="371" height="45" viewBox="0 0 371 45" fill="none" xmlns="http://www.w3.org/2000/svg">
<path d="M352.117 9.94474C351.689 9.95955 351.257 9.96973 350.838 9.99195C350.565 10.0058 350.449 9.96511 350.267 9.94382C350.207 9.93641 350.142 9.92159 350.086 9.92344C349.662 9.93826 349.238 9.95492 348.815 9.97159C348.685 10.0077 348.603 10.0558 348.404 10.0734C348.21 10.0901 347.981 10.0901 347.764 10.0984C347.479 10.1086 347.194 10.1188 346.909 10.1281C346.766 10.1327 346.649 10.1503 346.602 10.1836C346.593 10.1892 346.688 10.203 346.74 10.2114C346.913 10.2391 347.081 10.2706 347.272 10.2919C347.453 10.3123 347.678 10.279 347.873 10.3049C348.309 10.3632 348.313 10.3623 348.646 10.3512C348.932 10.341 349.217 10.3299 349.502 10.3225C349.558 10.3206 349.623 10.3345 349.684 10.3419C349.865 10.3623 349.982 10.4086 350.25 10.391C350.453 10.3771 350.678 10.3743 350.89 10.3669C351.067 10.3938 351.231 10.4243 351.421 10.4456C351.599 10.466 351.65 10.4817 351.555 10.5086C351.469 10.5336 351.348 10.5437 351.188 10.5456C351.045 10.5465 350.903 10.5548 350.76 10.5595C350.686 10.5623 350.617 10.5641 350.548 10.5669C350.276 10.5771 350.276 10.5771 349.779 10.5178C349.584 10.4947 349.364 10.5271 349.178 10.5049C349.053 10.49 348.944 10.4678 348.823 10.4521C348.772 10.4456 348.689 10.4447 348.625 10.4465C348.409 10.453 348.192 10.4576 347.985 10.4697C347.838 10.478 347.752 10.5039 347.769 10.5299C347.773 10.54 347.877 10.5549 347.937 10.5558C348.076 10.5576 348.223 10.5447 348.357 10.5511C348.486 10.5576 348.62 10.5761 348.715 10.5965C348.91 10.6391 349.13 10.6011 349.316 10.6123C349.511 10.6243 349.671 10.6613 349.857 10.6835C349.904 10.6891 349.995 10.6798 350.068 10.6771C350.28 10.6706 350.492 10.665 350.704 10.6585C350.881 10.6854 351.071 10.7095 351.231 10.74C351.521 10.7956 351.832 10.8168 352.208 10.79C352.42 10.7752 352.627 10.7807 352.796 10.8169C352.969 10.8539 353.168 10.8502 353.388 10.8428C353.591 10.8354 353.799 10.815 354.006 10.8409C354.456 10.8983 354.46 10.9011 354.992 10.8789C355.152 10.8724 355.273 10.8706 355.394 10.8918C355.506 10.9113 355.627 10.928 355.744 10.9465C355.956 10.94 356.172 10.9335 356.383 10.9261C356.656 10.9159 356.807 10.9289 356.872 10.9807C356.911 11.0122 356.928 11.0409 357.023 11.0622C357.136 11.0881 357.257 11.0872 357.421 11.0798C357.576 11.0733 357.689 11.0631 357.754 11.0298C357.78 11.0159 357.831 11.0029 357.879 10.9918C357.918 10.9835 357.978 10.9705 358.013 10.9724C358.078 10.9761 358.164 10.9863 358.186 10.9983C358.398 11.1103 358.398 11.1113 358.614 11.1437C358.852 11.1798 359.098 11.2122 359.314 11.2529C359.509 11.289 359.703 11.2733 359.915 11.2733C360.075 11.2733 360.179 11.2974 360.166 11.3214C360.157 11.3353 360.096 11.3557 360.045 11.3575C359.621 11.376 359.193 11.3918 358.765 11.4047C358.713 11.4066 358.648 11.3899 358.588 11.3816C358.467 11.3649 358.359 11.339 358.229 11.3334C358.099 11.3279 357.948 11.3418 357.806 11.3464C357.663 11.351 357.512 11.3631 357.382 11.3557C357.252 11.3483 357.149 11.3214 357.027 11.3038C356.971 11.2955 356.894 11.2835 356.846 11.2862C356.53 11.3085 356.297 11.2779 356.072 11.2372C356.025 11.2288 355.943 11.2233 355.882 11.2251C355.381 11.2409 354.884 11.2594 354.382 11.277C354.179 11.2844 354.015 11.252 353.971 11.1974C353.95 11.1668 353.907 11.1363 353.907 11.1057C353.907 11.0502 353.669 11.0196 353.496 11.0261C353.211 11.0353 352.921 11.0427 352.64 11.0566C352.411 11.0677 352.217 11.0566 352.061 11.0233C351.879 10.9853 351.672 10.9928 351.465 11.0029C351.309 11.0103 351.266 11.0409 351.274 11.1177C351.283 11.1798 351.209 11.1992 350.928 11.2094C350.574 11.2224 350.215 11.2353 349.857 11.2455C349.8 11.2474 349.736 11.2316 349.679 11.2233C349.558 11.2066 349.45 11.1798 349.321 11.1742C349.191 11.1677 349.04 11.1816 348.897 11.1872C348.754 11.1918 348.603 11.2048 348.473 11.1983C348.344 11.1918 348.236 11.164 348.119 11.1464C348.063 11.1381 347.994 11.1261 347.937 11.1279C347.652 11.1353 347.367 11.1464 347.082 11.1566C346.762 11.1677 346.762 11.1677 346.308 11.1103C346.1 11.0844 345.893 11.1048 345.69 11.1122C345.474 11.1196 345.27 11.1233 345.102 11.0863C344.989 11.0622 344.864 11.0474 344.73 11.052C344.371 11.0631 344.017 11.077 343.658 11.0881C343.598 11.09 343.516 11.0853 343.468 11.077C343.239 11.0381 343.014 11.0076 342.694 11.027C342.418 11.0437 342.119 11.0446 341.843 11.0603C341.691 11.0687 341.622 11.0983 341.652 11.1214C341.67 11.1335 341.761 11.1474 341.821 11.1474C341.959 11.1483 342.111 11.1344 342.24 11.14C342.508 11.1511 342.642 11.2288 342.992 11.2075C343.2 11.1946 343.416 11.19 343.632 11.1862C343.688 11.1853 343.749 11.2029 343.809 11.2122C343.982 11.2372 344.134 11.2696 344.384 11.2529C344.592 11.2399 344.812 11.2362 345.024 11.2288C345.361 11.2168 345.361 11.2177 345.798 11.2742C346.005 11.3011 346.213 11.2798 346.416 11.2733C346.567 11.2687 346.71 11.2594 346.831 11.2724C347.017 11.2918 347.151 11.3362 347.38 11.3334C347.596 11.3307 347.808 11.3177 348.024 11.3131C348.158 11.3103 348.283 11.3251 348.391 11.3501C348.504 11.3751 348.625 11.3862 348.772 11.3807C348.983 11.3733 349.199 11.364 349.416 11.3594C349.476 11.3584 349.545 11.3668 349.602 11.3742C349.723 11.3909 349.839 11.4103 349.956 11.4279C350.168 11.4223 350.384 11.4205 350.591 11.4094C350.751 11.401 350.864 11.4047 350.993 11.4233C351.158 11.4483 351.292 11.4927 351.56 11.4714C351.694 11.4612 351.849 11.464 351.983 11.4547C352.147 11.4427 352.26 11.4473 352.377 11.4751C352.597 11.5279 352.874 11.5288 353.159 11.5084C353.47 11.4862 353.704 11.5121 353.937 11.5529C354.183 11.5955 354.183 11.5945 354.374 11.6973C354.43 11.7269 354.59 11.7408 354.724 11.7353C354.948 11.726 355.143 11.7306 355.307 11.7658C355.48 11.8038 355.688 11.7991 355.899 11.789C356.18 11.7751 356.461 11.763 356.69 11.8167C356.803 11.8427 356.924 11.8491 357.075 11.8426C357.503 11.826 357.935 11.8158 358.355 11.7954C358.61 11.7825 358.756 11.8121 358.929 11.8371C359.163 11.8713 359.418 11.9019 359.418 11.975C359.418 11.9871 359.478 12.001 359.53 12.0102C359.643 12.0297 359.764 12.0463 359.88 12.0648C360.053 12.0926 360.222 12.1158 360.46 12.1009C360.667 12.0889 360.887 12.0852 361.099 12.0769C361.311 12.0685 361.506 12.0639 361.696 12.0991C361.916 12.1389 362.15 12.1769 362.4 12.2065C362.578 12.2278 362.811 12.1917 363.001 12.2204C363.118 12.238 363.23 12.2583 363.356 12.2731C363.407 12.2796 363.49 12.275 363.559 12.2731C363.701 12.2694 363.848 12.2667 363.987 12.2574C364.147 12.2472 364.268 12.2491 364.389 12.2704C364.501 12.2898 364.613 12.3167 364.743 12.3222C364.938 12.3306 365.154 12.2935 365.348 12.3361C365.448 12.3574 365.573 12.3778 365.703 12.3843C365.832 12.3907 365.984 12.3768 366.122 12.3778C366.182 12.3778 366.256 12.3926 366.291 12.4046C366.312 12.4111 366.282 12.4287 366.252 12.4379C366.213 12.4491 366.157 12.4639 366.1 12.4657C365.672 12.4824 365.245 12.4963 364.817 12.512C364.562 12.5213 364.562 12.5213 364.047 12.4629C363.926 12.4491 363.792 12.4518 363.641 12.4583C363.438 12.4666 363.23 12.4824 363.018 12.4657C362.742 12.4028 362.4 12.3972 362.037 12.4213C361.886 12.4315 361.748 12.4315 361.635 12.4139C361.397 12.3787 361.147 12.3463 360.935 12.3046C360.771 12.2722 360.693 12.2694 360.624 12.3139C360.602 12.3278 360.581 12.3426 360.585 12.3555C360.611 12.4018 360.658 12.4472 360.684 12.4935C360.693 12.5065 360.658 12.5213 360.637 12.5352C360.568 12.574 360.477 12.5713 360.326 12.5389C360.174 12.5065 359.993 12.4852 359.751 12.5C359.543 12.5129 359.318 12.5111 359.111 12.525C358.791 12.5453 358.566 12.5157 358.337 12.4759C358.29 12.4676 358.208 12.4629 358.147 12.4648C357.503 12.4861 356.863 12.5102 356.219 12.5315C356.081 12.5361 355.956 12.5222 355.847 12.4972C355.735 12.4722 355.61 12.4592 355.471 12.4639C354.901 12.4833 354.33 12.5009 353.76 12.525C353.526 12.5352 353.34 12.5231 353.181 12.4907C353.06 12.4666 352.947 12.4592 352.796 12.462C352.632 12.4648 352.515 12.4741 352.433 12.5009C352.355 12.5268 352.411 12.5426 352.584 12.5629C352.77 12.5851 352.943 12.6139 353.12 12.6398C353.263 12.6361 353.405 12.6287 353.544 12.6296C353.604 12.6296 353.66 12.6462 353.721 12.6555C353.894 12.6824 354.054 12.7092 354.3 12.6944C354.507 12.6814 354.728 12.6787 354.94 12.6703C355.234 12.6601 355.234 12.6601 355.709 12.7185C355.83 12.7333 355.96 12.7323 356.115 12.724C356.249 12.7175 356.388 12.7305 356.483 12.7583C356.522 12.7694 356.509 12.7879 356.427 12.849C356.427 12.8944 356.517 12.874 356.548 12.8444C356.595 12.8018 356.504 12.7879 356.332 12.811C356.211 12.8277 356.15 12.8518 356.18 12.8712C356.198 12.8814 356.28 12.8944 356.427 12.849C356.807 12.7935 357.097 12.787 357.373 12.7722C357.538 12.7638 357.641 12.7675 357.771 12.7916C357.927 12.8203 358.082 12.8509 358.337 12.836C358.614 12.8194 358.908 12.8175 359.189 12.8036C359.448 12.7907 359.582 12.8314 359.746 12.8555C359.945 12.8842 360.166 12.8518 360.347 12.8684C360.537 12.8851 360.671 12.9258 360.892 12.9332C361.212 12.9083 361.415 12.9545 361.657 12.9851C361.847 13.0082 362.072 12.9879 362.275 12.9777C362.504 12.9666 362.694 12.9768 362.854 13.0101C363.036 13.0481 363.239 13.0397 363.446 13.0314C363.931 13.0129 363.948 13.0101 364.229 13.061C364.432 13.098 364.626 13.0814 364.83 13.0768C365.007 13.1018 365.18 13.1286 365.366 13.1508C365.413 13.1564 365.504 13.1471 365.577 13.1443C365.789 13.1369 366.005 13.1295 366.217 13.1221C366.36 13.1175 366.511 13.1036 366.641 13.1092C366.77 13.1156 366.878 13.1425 366.995 13.1601C367.112 13.1777 367.233 13.1953 367.345 13.2138C367.518 13.2415 367.682 13.2647 367.924 13.2508C368.132 13.2388 368.348 13.2351 368.564 13.2267C368.836 13.2166 368.828 13.2193 369.334 13.2749C369.606 13.3054 369.887 13.2684 370.163 13.2647C370.302 13.2628 370.436 13.273 370.531 13.2999C370.57 13.311 370.557 13.3295 370.57 13.3452C369.857 13.3702 369.139 13.3915 368.434 13.4221C368.162 13.4341 368.02 13.4008 367.873 13.373C367.631 13.3286 367.311 13.3934 367.082 13.336C366.943 13.3017 366.744 13.2823 366.507 13.299C366.368 13.3082 366.221 13.3073 366.079 13.3156C365.716 13.336 365.383 13.3369 365.093 13.273C364.994 13.2508 364.851 13.2388 364.747 13.2175C364.626 13.1943 364.51 13.1814 364.367 13.186C363.723 13.2082 363.083 13.2304 362.444 13.2545C362.387 13.2564 362.331 13.2702 362.284 13.2804C362.163 13.3063 362.201 13.3267 362.396 13.3434C362.461 13.3489 362.513 13.361 362.573 13.3702C362.69 13.3878 362.798 13.4156 362.928 13.4221C363.057 13.4286 363.209 13.4156 363.351 13.411C363.494 13.4063 363.645 13.3925 363.775 13.398C363.905 13.4045 364.013 13.4313 364.134 13.448C364.19 13.4563 364.259 13.4702 364.315 13.4693C364.601 13.4637 364.881 13.4536 365.167 13.4452C365.344 13.4702 365.495 13.5063 365.707 13.5147C365.841 13.5202 365.984 13.51 366.122 13.5119C366.182 13.5128 366.26 13.5267 366.291 13.5387C366.308 13.5461 366.252 13.5647 366.208 13.5739C366.044 13.6091 365.819 13.6026 365.616 13.6137C365.396 13.6258 365.197 13.6221 365.028 13.5859C364.916 13.5619 364.791 13.5489 364.652 13.5535C364.294 13.5656 363.939 13.5795 363.58 13.5897C363.52 13.5915 363.446 13.5832 363.39 13.5767C362.936 13.5202 362.936 13.5184 362.616 13.5304C362.145 13.548 362.145 13.548 361.83 13.4989C361.769 13.4897 361.704 13.4721 361.653 13.473C361.151 13.4878 360.654 13.5026 360.157 13.5239C359.993 13.5304 359.88 13.5304 359.759 13.5063C359.656 13.486 359.535 13.4628 359.405 13.4573C359.271 13.4517 359.124 13.4656 358.981 13.4702C358.839 13.4749 358.687 13.4869 358.562 13.4795C358.432 13.4721 358.32 13.4462 358.208 13.4276C358.091 13.4082 357.966 13.4091 357.806 13.4165C357.313 13.4378 357.308 13.435 356.82 13.3776C356.764 13.3712 356.69 13.3638 356.63 13.3656C356.271 13.3767 355.917 13.3906 355.558 13.4017C355.42 13.4063 355.286 13.3943 355.19 13.3675C355.152 13.3563 355.165 13.3378 355.139 13.3017C355.108 13.2934 355.143 13.3082 355.152 13.3221C355.216 13.3202 355.294 13.3221 355.342 13.3147C355.463 13.2971 355.523 13.2739 355.493 13.2545C355.476 13.2443 355.394 13.2314 355.342 13.2314C355.247 13.2314 355.165 13.2517 355.139 13.3017C354.866 13.3323 354.577 13.3388 354.296 13.3536C354.131 13.3628 354.028 13.3582 353.898 13.3341C353.742 13.3045 353.582 13.2758 353.327 13.2906C353.051 13.3073 352.757 13.3101 352.472 13.323C352.143 13.3378 352 13.2545 351.724 13.2564C351.439 13.2582 351.153 13.274 350.868 13.2851C350.617 13.2943 350.617 13.2943 350.099 13.2341C349.908 13.2119 349.684 13.2443 349.498 13.2212C349.372 13.2064 349.264 13.1841 349.143 13.1684C349.091 13.1619 349.009 13.1619 348.945 13.1638C348.586 13.1749 348.223 13.1823 347.877 13.2027C347.484 13.2267 347.185 13.2008 346.904 13.1462C346.55 13.1564 346.191 13.1619 345.841 13.1795C345.586 13.1925 345.439 13.1619 345.266 13.1369C345.206 13.1286 345.154 13.1147 345.089 13.111C345.024 13.1073 344.946 13.1147 344.877 13.1175C344.592 13.1277 344.298 13.1323 344.021 13.149C343.68 13.1703 343.55 13.0943 343.286 13.0851C343.109 13.1304 343.014 13.1925 342.664 13.1971C342.379 13.2008 342.093 13.2156 341.808 13.2258C341.665 13.2304 341.523 13.236 341.38 13.2406C341.151 13.249 341.043 13.2851 341.091 13.3406C341.117 13.3712 341.138 13.4017 341.16 13.4323C341.203 13.4869 341.095 13.5332 340.913 13.5397C340.412 13.5572 339.915 13.5758 339.413 13.5915C339.279 13.5961 339.15 13.5804 339.042 13.5554C338.929 13.5304 338.804 13.5193 338.666 13.5239C338.164 13.5415 337.667 13.56 337.166 13.5758C337.11 13.5776 337.036 13.5684 336.98 13.561C336.859 13.5443 336.742 13.5248 336.625 13.5073C336.34 13.5156 336.059 13.5211 335.778 13.5322C335.324 13.5489 335.324 13.5498 334.992 13.4989C334.931 13.4897 334.871 13.4721 334.814 13.473C334.598 13.4767 334.386 13.486 334.17 13.4943C333.535 13.5184 333.535 13.5184 333.349 13.4906C333.18 13.4647 333.029 13.4332 332.774 13.448C332.497 13.4647 332.204 13.4702 331.918 13.4795C331.706 13.486 331.495 13.4934 331.283 13.4952C331.227 13.4961 331.166 13.4786 331.106 13.4693C330.933 13.4406 330.764 13.4174 330.526 13.4332C330.388 13.4424 330.241 13.4443 330.099 13.4489C329.727 13.4619 329.727 13.4619 329.117 13.4063C329.057 13.4008 328.983 13.3943 328.923 13.3971C328.421 13.4137 327.924 13.4323 327.423 13.448C327.362 13.4499 327.289 13.4443 327.228 13.4397C326.546 13.386 326.546 13.386 325.819 13.4119C325.543 13.4212 325.534 13.4249 325.244 13.3758C325.115 13.3545 325.007 13.3443 324.855 13.3508C324.285 13.373 323.71 13.3878 323.144 13.4137C322.889 13.4249 322.742 13.3971 322.569 13.3721C322.508 13.3637 322.444 13.3452 322.392 13.3462C321.821 13.3638 321.25 13.385 320.68 13.4026C320.628 13.4045 320.563 13.386 320.503 13.3776C320.386 13.361 320.274 13.336 320.144 13.3304C320.01 13.3249 319.863 13.3388 319.716 13.3434C319.357 13.3554 319.357 13.3545 318.942 13.2999C318.886 13.2925 318.813 13.2823 318.756 13.2841C318.186 13.3027 317.611 13.3184 317.045 13.3452C316.72 13.3601 316.5 13.3332 316.271 13.2943C316.223 13.286 316.141 13.2823 316.081 13.2841C315.437 13.3054 314.797 13.3295 314.153 13.3508C314.019 13.3554 313.889 13.3397 313.781 13.3156C313.608 13.2776 313.405 13.2823 313.189 13.2906C312.692 13.3101 312.688 13.3091 312.394 13.2647C312.333 13.2554 312.281 13.2434 312.217 13.2388C312.156 13.2341 312.078 13.2369 312.013 13.2388C311.728 13.248 311.443 13.2582 311.158 13.2684C310.872 13.2786 310.583 13.2841 310.302 13.2999C309.956 13.3193 309.792 13.2591 309.549 13.2314C309.195 13.2434 308.832 13.2508 308.482 13.2702C308.214 13.2851 308.089 13.2443 307.911 13.223C307.851 13.2156 307.786 13.1999 307.73 13.2017C307.086 13.2221 306.442 13.2443 305.802 13.2693C305.646 13.2749 305.543 13.2675 305.413 13.2452C305.123 13.1953 305.11 13.1971 304.626 13.2156C304.414 13.224 304.211 13.2314 304.03 13.1934C303.87 13.1592 303.675 13.1508 303.446 13.1619C303.165 13.1758 302.876 13.1832 302.59 13.1925C302.305 13.2027 302.02 13.2165 301.735 13.2212C301.505 13.2258 301.367 13.1823 301.186 13.1601C301.129 13.1536 301.052 13.1527 300.987 13.1545C300.701 13.1629 300.408 13.1693 300.131 13.1851C299.794 13.2045 299.608 13.1536 299.37 13.124C299.318 13.1175 299.232 13.1212 299.167 13.124C298.666 13.1406 298.168 13.1591 297.667 13.1767C297.49 13.1517 297.308 13.1277 297.131 13.1027C296.846 13.1119 296.561 13.1221 296.275 13.1314C296.059 13.1388 295.839 13.1416 295.635 13.1554C295.372 13.174 295.242 13.1304 295.065 13.1092C295.004 13.1017 294.94 13.086 294.883 13.0879C294.525 13.098 294.166 13.1092 293.811 13.1249C293.474 13.1406 293.34 13.0573 293.064 13.0582C292.778 13.0592 292.484 13.0712 292.208 13.0879C291.888 13.1073 291.663 13.0777 291.434 13.0379C291.387 13.0295 291.304 13.0249 291.244 13.0268C290.885 13.0379 290.531 13.0518 290.172 13.0629C290.111 13.0647 290.038 13.0601 289.977 13.0545C289.295 12.9999 289.294 12.999 288.996 13.0101C288.784 13.0175 288.568 13.0268 288.352 13.0314C288.292 13.0332 288.218 13.0249 288.162 13.0175C287.712 12.961 287.712 12.9601 287.388 12.9712C287.103 12.9814 286.818 12.9916 286.532 13.0018C286.355 12.9768 286.174 12.9527 285.996 12.9277C285.642 12.9397 285.279 12.949 284.929 12.9656C284.764 12.9731 284.656 12.9703 284.531 12.9471C284.376 12.9194 284.22 12.887 283.961 12.9027C283.684 12.9194 283.39 12.9212 283.109 12.9351C282.772 12.9518 282.634 12.8675 282.361 12.8684C282.076 12.8694 281.782 12.8814 281.505 12.8981C281.186 12.9175 280.961 12.8879 280.732 12.8481C280.684 12.8397 280.602 12.8351 280.541 12.837C279.755 12.8638 278.972 12.8907 278.186 12.9194C277.702 12.9369 277.702 12.9379 276.781 12.887C276.716 12.8833 276.647 12.8796 276.582 12.8814C276.297 12.8897 276.003 12.8962 275.726 12.912C275.389 12.9314 275.203 12.8814 274.965 12.8509C274.914 12.8444 274.831 12.8481 274.762 12.8499C274.546 12.8564 274.334 12.8647 274.118 12.8722C273.833 12.8823 273.548 12.8925 273.262 12.9027C273.085 12.8786 272.904 12.8536 272.726 12.8296C272.372 12.8416 272.009 12.8481 271.659 12.8675C271.391 12.8823 271.265 12.8434 271.088 12.8212C271.028 12.8138 270.963 12.7981 270.907 12.799C270.263 12.8194 269.619 12.8407 268.979 12.8666C268.715 12.8777 268.594 12.836 268.417 12.8147C268.356 12.8083 268.287 12.7962 268.231 12.7981C267.803 12.811 267.375 12.8268 266.947 12.8425C266.705 12.8518 266.705 12.8518 266.178 12.7944C266.117 12.7879 266.048 12.7814 265.988 12.7833C264.631 12.8296 263.278 12.8786 261.92 12.9249C261.782 12.9295 261.657 12.9157 261.549 12.8907C261.436 12.8657 261.311 12.8527 261.172 12.8573C260.602 12.8768 260.027 12.8944 259.461 12.9184C259.227 12.9286 259.041 12.9166 258.882 12.8842C258.761 12.8601 258.648 12.8509 258.497 12.8564C258.212 12.8675 257.926 12.8768 257.641 12.887C257.356 12.8971 257.07 12.9073 256.785 12.9175C256.5 12.9277 256.21 12.9333 255.929 12.949C255.584 12.9684 255.415 12.911 255.177 12.8823C254.749 12.8962 254.321 12.9101 253.898 12.9249C253.327 12.9444 252.757 12.9657 252.186 12.9842C252.134 12.986 252.069 12.9694 252.009 12.961C251.832 12.9379 251.702 12.9055 251.438 12.9157C250.159 12.9647 248.871 13.0064 247.587 13.0545C247.319 13.0647 247.202 13.0249 247.021 13.0036C246.96 12.9971 246.891 12.9842 246.835 12.986C246.122 13.0092 245.408 13.0351 244.695 13.0601C244.406 13.0703 244.406 13.0703 243.922 13.0129C243.865 13.0064 243.792 12.9981 243.731 12.9999C242.802 13.0314 241.877 13.0647 240.948 13.0971C240.809 13.1017 240.684 13.0888 240.572 13.0638C240.464 13.0388 240.334 13.0249 240.2 13.0295C239.344 13.0592 238.484 13.0879 237.632 13.1203C237.403 13.1295 237.213 13.1212 237.049 13.0879C236.932 13.0638 236.815 13.0536 236.668 13.0592C235.385 13.1045 234.101 13.148 232.817 13.1962C232.571 13.2054 232.398 13.1878 232.242 13.1573C232.117 13.1332 232.009 13.1286 231.853 13.1323C231.689 13.1369 231.59 13.1471 231.499 13.1749C231.382 13.211 231.309 13.2564 231.032 13.2591C230.747 13.2619 230.457 13.273 230.176 13.2888C229.908 13.3045 229.783 13.2628 229.614 13.2378C229.489 13.2203 229.372 13.2175 229.212 13.2258C229.065 13.2332 228.974 13.2489 228.888 13.2786C228.698 13.3415 228.681 13.3415 228.447 13.3017C228.322 13.2804 228.209 13.2638 228.071 13.2675C227.5 13.286 226.93 13.3064 226.359 13.3276C226.031 13.3397 226.027 13.3415 225.78 13.2952C225.659 13.2721 225.542 13.261 225.4 13.2665C223.831 13.3221 222.262 13.3758 220.693 13.4341C220.451 13.4434 220.286 13.4239 220.113 13.3962C220.057 13.3869 220.001 13.3739 219.936 13.3702C219.871 13.3665 219.798 13.3702 219.729 13.3721C218.588 13.4119 217.442 13.4499 216.305 13.4943C216.046 13.5045 215.908 13.4749 215.73 13.4508C215.67 13.4425 215.618 13.4295 215.553 13.4258C215.488 13.423 215.411 13.4295 215.341 13.4323C214.2 13.4721 213.055 13.51 211.918 13.5545C211.646 13.5647 211.529 13.5258 211.352 13.5054C211.291 13.498 211.226 13.4841 211.17 13.486C210.811 13.4961 210.457 13.51 210.098 13.5221C209.242 13.5526 208.386 13.5813 207.531 13.6128C207.202 13.6248 207.059 13.5424 206.783 13.5461C206.424 13.5508 206.07 13.5693 205.711 13.5822C205.426 13.5924 205.14 13.6017 204.855 13.6128C204.574 13.623 204.574 13.623 203.874 13.5693C203.813 13.5646 203.74 13.5582 203.679 13.56C202.681 13.5943 201.678 13.6285 200.684 13.6656C200.455 13.6739 200.265 13.6693 200.1 13.635C199.984 13.6109 199.863 13.5989 199.72 13.6045C198.22 13.6572 196.724 13.71 195.225 13.7619C195.168 13.7637 195.095 13.7544 195.039 13.747C194.918 13.7304 194.801 13.7109 194.684 13.6933C194.598 13.7146 194.486 13.7341 194.429 13.7581C194.352 13.7906 194.248 13.7998 194.083 13.8054C193.919 13.8109 193.816 13.8091 193.686 13.785C193.53 13.7554 193.37 13.7322 193.115 13.7415C191.546 13.7998 189.977 13.8526 188.408 13.91C188.149 13.9192 188.028 13.8785 187.846 13.8572C187.786 13.8507 187.716 13.8405 187.66 13.8424C187.016 13.8637 186.376 13.8868 185.732 13.9091C183.947 13.972 182.162 14.0322 180.381 14.0989C180.057 14.1109 179.837 14.0877 179.608 14.0479C179.56 14.0396 179.478 14.035 179.417 14.0368C176.919 14.1238 174.421 14.2118 171.927 14.2997C171.793 14.3044 171.663 14.2896 171.555 14.2655C171.442 14.2405 171.317 14.2285 171.179 14.2331C170.038 14.2729 168.897 14.3127 167.755 14.3534C167.47 14.3636 167.466 14.3645 167.172 14.3201C167.111 14.3109 167.046 14.2933 166.999 14.2951C166.9 14.2998 166.804 14.3229 166.735 14.3544C166.666 14.3877 166.558 14.397 166.398 14.4034C166.234 14.4099 166.126 14.4071 166 14.3849C165.84 14.3571 165.694 14.3303 165.434 14.3396C162.153 14.4581 158.873 14.5719 155.592 14.6895C155.328 14.6988 155.207 14.6599 155.026 14.6386C154.965 14.6321 154.905 14.6228 154.84 14.621C154.771 14.6191 154.697 14.6247 154.628 14.6275C149.277 14.8154 143.926 15.0043 138.574 15.1922C138.255 15.2033 138.259 15.2033 137.909 15.2885C137.866 15.2987 137.809 15.3126 137.749 15.3144C136.111 15.3737 134.468 15.4311 132.826 15.4885C132.112 15.5135 131.399 15.5394 130.686 15.5635C130.431 15.5718 130.431 15.5718 129.821 15.6718C129.77 15.6801 129.709 15.6912 129.648 15.6931C126.796 15.794 123.943 15.8949 121.086 15.994C120.861 16.0014 120.679 16.018 120.576 16.0625C120.502 16.094 120.407 16.1125 120.264 16.118C118.267 16.1884 116.27 16.2597 114.269 16.3282C114.031 16.3365 113.889 16.3625 113.772 16.4013C113.733 16.4143 113.699 16.4291 113.642 16.4384C113.59 16.4467 113.513 16.4495 113.448 16.4522C111.736 16.5124 110.024 16.5745 108.308 16.6319C108.053 16.6402 107.95 16.6744 107.824 16.7106C107.781 16.7226 107.751 16.7393 107.695 16.7476C107.638 16.755 107.556 16.755 107.487 16.7568C106.061 16.8068 104.634 16.8578 103.208 16.9077C102.931 16.9031 102.871 16.9568 102.737 16.9892C102.689 17.0003 102.655 17.0151 102.599 17.0225C102.538 17.03 102.46 17.029 102.387 17.0309C101.245 17.0707 100.104 17.1133 98.9589 17.1503C98.6953 17.1586 98.6434 17.2059 98.5007 17.2383C98.4532 17.2484 98.4057 17.2642 98.3495 17.267C97.6363 17.2938 96.9231 17.3188 96.2099 17.3429C95.9722 17.3512 95.9722 17.3503 95.5529 17.4419C95.5053 17.4521 95.4491 17.4632 95.3886 17.466C94.3209 17.5049 93.249 17.5419 92.177 17.5799C92.0387 17.5845 91.9436 17.6067 91.8745 17.6382C91.8053 17.6697 91.7059 17.6901 91.5676 17.6947C90.7117 17.7252 89.8558 17.7567 88.9999 17.7845C88.7622 17.7919 88.6066 17.815 88.5029 17.8567C88.4251 17.8882 88.33 17.9039 88.1787 17.9095C87.3229 17.9391 86.467 17.9715 85.6069 17.9974C85.3562 18.0048 85.2264 18.0363 85.1227 18.0752C85.0406 18.1067 84.9455 18.1178 84.7855 18.1233C83.2165 18.177 81.6432 18.2307 80.0784 18.29C79.8148 18.3002 79.6807 18.2678 79.5078 18.2446C79.2614 18.2122 79.0324 18.177 79.0324 18.1048C79.0324 18.0937 78.9589 18.0807 78.9071 18.0715C78.5224 18.0021 78.5223 18.0021 78.4618 17.928C78.4272 17.8826 78.3883 17.8363 78.3581 17.79C78.3019 17.7141 78.1635 17.6947 77.7659 17.7086C77.6232 17.7132 77.4806 17.7197 77.3379 17.7234C77.1261 17.7299 76.9662 17.6993 76.9273 17.6438C76.9057 17.6132 76.8798 17.5827 76.8582 17.5521C77.0743 17.5447 77.07 17.5438 77.4503 17.4318C77.6103 17.3845 77.6103 17.3845 77.3034 17.3373C77.1867 17.3197 77.0743 17.3003 76.949 17.2836C76.8928 17.2762 76.8193 17.2716 76.7588 17.2734C76.4 17.2845 76.0456 17.2975 75.6912 17.3105C75.1206 17.3308 75.1205 17.3308 74.5413 17.2364C74.4938 17.229 74.4203 17.2151 74.4289 17.2077C74.4765 17.1735 74.5932 17.1586 74.7401 17.1549C74.9563 17.1494 75.1681 17.1401 75.3799 17.1327C75.5225 17.1281 75.6651 17.1225 75.8078 17.1179C75.9418 17.0827 76.0802 17.0485 76.2055 17.0124C76.4043 16.9568 76.4043 16.955 76.132 16.9161C75.9591 16.8902 75.7732 16.867 75.596 16.8429C75.3842 16.8503 75.1681 16.8587 74.9563 16.8652C74.6883 16.8735 74.5802 16.8559 74.511 16.7957C74.4505 16.7429 74.524 16.6976 74.7315 16.6865C74.9433 16.6754 75.1422 16.668 75.2503 16.6208C75.354 16.5754 75.5355 16.5578 75.7603 16.5541C75.9029 16.5513 76.0456 16.5448 76.1882 16.5393C76.3741 16.5319 76.4735 16.4847 76.4346 16.4319C76.413 16.3976 76.3698 16.3689 76.2012 16.3615C75.4534 16.3291 75.4447 16.33 75.073 16.2671C75.0384 16.2615 75.0125 16.2449 75.0255 16.2365C75.0471 16.2227 75.0947 16.2023 75.1465 16.1995C75.6436 16.1791 76.1407 16.1606 76.6378 16.1467C76.802 16.1421 76.9231 16.1356 76.9792 16.1014C77.0571 16.0541 77.0225 16.0106 76.8712 15.9782C76.8236 15.9681 76.7458 15.9551 76.6939 15.956C76.1233 15.9727 75.5571 15.994 74.9865 16.0106C74.9347 16.0125 74.8396 15.9968 74.818 15.9847C74.7748 15.9625 74.8396 15.9329 74.9909 15.9227C75.1897 15.9088 75.3929 15.9079 75.5269 15.8616C75.7127 15.7958 75.9418 15.7357 76.1493 15.6727C76.1838 15.6616 76.2401 15.6403 76.2271 15.6385C76.1191 15.6181 75.9937 15.6024 75.8813 15.5829C75.6911 15.5505 75.6911 15.5052 75.7343 15.4616C75.7689 15.4265 75.8986 15.4126 76.0585 15.4126C76.1277 15.4126 76.2141 15.4126 76.2703 15.4042C76.4173 15.3839 76.4648 15.3579 76.3913 15.3385C76.3481 15.3274 76.2704 15.3117 76.2185 15.3135C75.2935 15.3441 74.3641 15.3737 73.4434 15.4116C73.1711 15.4228 73.0458 15.3876 72.8816 15.3626C72.7562 15.3431 72.6394 15.3357 72.4838 15.3496C72.3369 15.3626 72.1943 15.3552 72.1035 15.3246C72.03 15.2996 72.1597 15.2783 72.5098 15.2543C72.5746 15.2496 72.6481 15.2468 72.6956 15.2376C73.197 15.1376 73.197 15.1367 73.5428 15.1237C73.88 15.1117 73.88 15.1108 74.0573 15.0571C74.1394 15.0321 74.2301 15.0071 74.3079 14.9811C74.3381 14.971 74.3901 14.9524 74.3728 14.9469C74.2777 14.9182 74.148 14.9117 73.9967 14.9182C73.6595 14.9339 73.2619 14.921 73.0847 15.0089C73.0155 15.0422 72.9075 15.0515 72.7519 15.0571C71.1871 15.1108 69.6223 15.1682 68.0533 15.22C67.7983 15.2283 67.6816 15.2626 67.5822 15.3005C67.4958 15.332 67.4006 15.3413 67.2364 15.3468C67.0721 15.3524 66.9424 15.3552 66.8473 15.3246C66.7911 15.3061 66.8387 15.2802 66.9683 15.2543C67.1542 15.2172 67.1196 15.1709 67.0591 15.1274C67.0159 15.0987 66.8819 15.0784 66.7392 15.0802C66.5274 15.0839 66.3243 15.0941 66.1471 15.0571C66.0434 15.0358 65.9137 15.0209 65.797 15.0024C65.5722 14.9645 65.3474 14.9256 65.0319 14.9506C64.8158 14.9413 64.6645 14.908 64.4916 14.8821C64.202 14.8395 64.176 14.833 64.3835 14.7876C64.6169 14.7367 64.4354 14.6701 64.565 14.6201C64.7033 14.5664 64.8936 14.5192 65.0622 14.4692C65.1054 14.4562 65.1443 14.4442 65.1875 14.4312C65.0881 14.4127 64.9974 14.3896 64.8807 14.3766C64.7294 14.3599 64.6516 14.3396 64.6602 14.2822C64.63 14.2738 64.6428 14.2951 64.6774 14.3007C64.7163 14.3062 64.8115 14.3016 64.859 14.2951C64.9801 14.2775 65.0405 14.2544 65.0103 14.2349C64.993 14.2248 64.9109 14.2118 64.859 14.2118C64.7639 14.2118 64.6818 14.2322 64.6559 14.2822C64.1718 14.3201 63.6703 14.3386 63.1689 14.3534C63.117 14.3553 63.0522 14.3368 62.9917 14.3275C62.7929 14.296 62.7928 14.297 62.2093 14.2877C62.1488 14.2868 62.0667 14.2738 62.0365 14.2609C61.9111 14.2044 61.9155 14.1424 61.8549 14.0822C61.9673 14.0433 62.0796 14.0053 62.1963 13.9674C62.4297 13.8905 62.7324 13.823 62.9139 13.7387C62.875 13.6933 62.8231 13.648 63.0133 13.6109C63.5536 13.5647 63.5494 13.5647 63.6963 13.5202C64.1156 13.3943 64.5305 13.2675 64.9671 13.1434C65.0838 13.111 65.0838 13.0934 64.8763 13.0795C64.8115 13.0758 64.7423 13.0749 64.6731 13.0768C64.457 13.0832 64.2408 13.0999 64.029 13.0962C63.8172 13.0934 63.6616 13.0527 63.4887 13.0277C63.3115 13.0018 63.1343 12.9749 62.9571 12.9481C62.7539 12.9508 62.5508 12.9768 62.3477 12.9351C62.192 12.9027 61.9975 12.8796 61.8203 12.8527C61.9543 12.7823 62.2051 12.7286 62.3996 12.6666C62.5768 12.6101 62.581 12.6111 63.0565 12.5676C63.2813 12.5472 63.3591 12.4426 63.1689 12.412C62.9398 12.375 62.6978 12.3407 62.4644 12.3055C62.2612 12.3083 62.0538 12.3333 61.8593 12.2917C61.708 12.2602 61.535 12.2389 61.2843 12.2509C60.8607 12.2713 60.4285 12.2815 60.0006 12.2981C59.8536 12.3037 59.6936 12.3 59.6288 12.2685C59.5856 12.2463 59.7109 12.2158 59.8536 12.2093C60.0697 12.2 60.2642 12.1889 60.3723 12.1426C60.476 12.0963 60.6662 12.0824 60.8909 12.0759C60.9514 12.0741 61.0207 12.063 61.0509 12.0519C61.2065 11.9982 61.3794 11.9519 61.7123 11.9537C61.8506 11.9352 61.924 11.9121 61.8808 11.8899C61.8549 11.8778 61.7641 11.8621 61.7123 11.8639C61.3535 11.8732 60.9947 11.8825 60.6446 11.8991C60.4804 11.9065 60.355 11.9084 60.2512 11.8806C60.1777 11.8621 60.2166 11.8371 60.355 11.8102C60.476 11.7871 60.5106 11.7602 60.502 11.7288C60.4803 11.6556 60.3506 11.6343 59.9357 11.639C59.6374 11.6427 59.5639 11.6306 59.4991 11.5677C59.4818 11.5529 59.4387 11.5325 59.4689 11.5223C59.6548 11.4594 59.7758 11.3816 60.126 11.352C60.2643 11.3409 60.4112 11.3409 60.4976 11.3168C60.5841 11.2927 60.6619 11.2649 60.7527 11.2418C60.8651 11.214 60.9428 11.1881 60.8909 11.1705C60.8045 11.139 60.6662 11.1363 60.5063 11.1474C60.368 11.1566 60.221 11.1575 60.0784 11.1631C59.8233 11.1733 59.6159 11.1492 59.5856 11.1085C59.5035 11.0011 59.417 10.8946 59.3436 10.7872C59.3349 10.7743 59.3565 10.7576 59.3911 10.7465C59.5121 10.7076 59.6418 10.6706 59.7672 10.6326C59.9141 10.5891 60.1476 10.5974 60.3464 10.5891C60.6274 10.5771 60.6273 10.578 61.0033 10.4891C61.1503 10.4539 61.4053 10.4678 61.5566 10.4363C61.6042 10.4262 61.6776 10.4095 61.6647 10.4002C61.6474 10.3882 61.561 10.3789 61.4961 10.3734C61.4356 10.3678 61.3622 10.3651 61.2973 10.3678C60.5106 10.3947 59.7283 10.4234 58.9416 10.4493C58.8076 10.4539 58.6606 10.4336 58.6131 10.4049C58.5655 10.378 58.5785 10.3456 58.5698 10.3151C58.6952 10.2771 58.8378 10.2419 58.9458 10.2012C59.028 10.1697 59.1231 10.1558 59.2873 10.154C59.5034 10.1512 59.7153 10.1401 59.9573 10.1318C60.4069 9.99658 60.8477 9.85494 61.3318 9.71977C61.5263 9.66515 61.4789 9.60959 61.5178 9.55127C61.5567 9.49757 61.8463 9.50591 62.0408 9.49017C62.1964 9.47721 62.2482 9.44758 62.1877 9.42721C62.1531 9.41518 62.0753 9.40129 62.0148 9.40129C61.8722 9.40129 61.7295 9.40962 61.5869 9.41425C61.4443 9.41888 61.28 9.41611 61.1633 9.43185C61.0509 9.44666 60.9774 9.47813 60.9039 9.50498C60.8218 9.5346 60.7138 9.54479 60.5495 9.54665C60.3377 9.5485 60.126 9.55682 59.9142 9.5633C59.6807 9.5272 59.4386 9.49202 59.2139 9.45406C59.1706 9.44666 59.162 9.42537 59.1663 9.41148C59.1749 9.37537 59.1101 9.35315 58.9675 9.33556C58.8464 9.32075 58.747 9.29945 58.6346 9.28094C58.7211 9.25594 58.8162 9.23186 58.8854 9.20502C59.0366 9.14854 59.2269 9.10781 59.5554 9.10967C59.685 9.07356 59.7887 9.02912 59.9573 9.00412C60.1173 8.98005 60.3896 9.00412 60.5106 8.94949C60.5711 8.92264 60.6619 8.89209 60.7787 8.88098C60.9645 8.86339 61.2066 8.87266 61.3146 8.82082C61.3795 8.79119 61.4745 8.76433 61.5999 8.75693C61.7425 8.7486 61.8894 8.74675 61.9932 8.72916C62.0494 8.7199 62.1099 8.70509 62.1099 8.69213C62.1099 8.68379 62.0235 8.67083 61.963 8.66527C61.9068 8.65879 61.8332 8.65417 61.7684 8.65602C61.5523 8.66157 61.3405 8.67175 61.1244 8.67731C61.0638 8.67916 60.9947 8.67268 60.9299 8.66713C60.7397 8.65231 60.7526 8.6338 60.9039 8.60047C61.0552 8.56807 61.1633 8.5264 61.2887 8.48844C61.427 8.48196 61.5999 8.48474 61.695 8.46715C61.8549 8.43845 61.9672 8.39679 62.0969 8.36068C62.2396 8.35512 62.3865 8.35328 62.5205 8.34309C62.5767 8.33939 62.6027 8.31902 62.6502 8.30699C62.7367 8.28384 62.8102 8.25051 62.9269 8.2394C63.1171 8.22274 63.3505 8.22922 63.4629 8.1783C63.5277 8.14867 63.6271 8.1172 63.7481 8.11535C64.0853 8.11165 64.2279 8.06072 64.4008 8.01257C64.5305 7.97647 64.8071 7.99499 64.9498 7.95888C65.0449 7.93574 65.1141 7.90703 65.2092 7.88481C65.2481 7.87555 65.3302 7.87093 65.395 7.86815C65.7495 7.85427 66.1082 7.84408 66.4627 7.82927C66.5188 7.82649 66.5708 7.81261 66.614 7.8015C66.7048 7.77743 66.7609 7.74409 66.8733 7.72836C66.9857 7.71262 67.1456 7.71262 67.2839 7.70799C67.7291 7.6941 67.7637 7.6978 67.9669 7.61911C68.1311 7.55522 68.5332 7.60059 68.6672 7.53023C68.745 7.4895 68.8875 7.45617 69.1426 7.45154C69.5013 7.44506 69.8558 7.42747 70.2145 7.41543C70.5344 7.40432 70.5301 7.40432 70.8759 7.31822C71.0315 7.27933 71.2606 7.28489 71.4638 7.27749C71.6799 7.27008 71.8787 7.25898 71.9825 7.21269C72.0862 7.16732 72.2764 7.1525 72.4968 7.14602C72.7 7.13954 72.9291 7.14417 73.089 7.10714C73.4781 7.01826 73.4737 7.01733 73.7461 7.00807C74.174 6.99326 74.6019 6.97845 75.0298 6.96271C75.3151 6.95253 75.6133 6.95068 75.8813 6.93031C76.0758 6.9155 76.1623 6.86365 76.2876 6.82755C76.6421 6.81366 76.9965 6.79977 77.3509 6.7868C77.848 6.76829 78.3494 6.75163 78.8508 6.73404C79.0669 6.69886 79.0973 6.62109 79.4603 6.61739C79.6765 6.61553 79.8883 6.6035 80.1044 6.59609C80.4631 6.58313 80.8176 6.56647 81.1763 6.55999C81.4487 6.55536 81.4961 6.50536 81.6388 6.47388C81.6863 6.46277 81.7296 6.44704 81.7858 6.44426C82.3477 6.41834 82.9269 6.41278 83.4758 6.37483C83.532 6.37112 83.5839 6.35168 83.5969 6.33779C83.6055 6.33038 83.532 6.3165 83.4845 6.31002C83.4283 6.30262 83.3548 6.29521 83.2943 6.29706C81.5091 6.35909 79.724 6.42205 77.9388 6.48408C77.6881 6.49333 77.6881 6.4924 77.0787 6.59424C77.0268 6.60257 76.9662 6.61183 76.9014 6.61461C76.6161 6.62572 76.3265 6.6322 76.0455 6.64609C75.8164 6.6572 75.6263 6.64608 75.4621 6.61275C75.3454 6.58868 75.2243 6.58128 75.0773 6.58313C74.913 6.58591 74.805 6.5961 74.71 6.62109C74.5846 6.65535 74.5197 6.69978 74.2561 6.70904C73.0415 6.74885 71.8268 6.79329 70.6165 6.83588C70.4479 6.82291 70.3658 6.80347 70.409 6.78033C70.4349 6.76644 70.4868 6.74793 70.5387 6.74607C71.0358 6.72663 71.5372 6.70997 72.0343 6.69145C72.1034 6.68868 72.1985 6.69052 72.2374 6.68126C72.4276 6.6396 72.4968 6.57202 72.8556 6.56739C73.0631 6.56461 73.2748 6.55073 73.4737 6.53777C73.5299 6.53406 73.5818 6.51462 73.5947 6.50073C73.599 6.49333 73.5299 6.47944 73.478 6.47295C73.2878 6.44611 73.0674 6.47852 72.8772 6.46C72.8124 6.45352 72.7216 6.44426 72.7086 6.43315C72.7 6.42297 72.7734 6.4063 72.8253 6.39612C72.8729 6.38686 72.9377 6.37853 73.0025 6.37575C73.5731 6.35446 74.1437 6.33224 74.7143 6.31557C74.9477 6.30909 75.1119 6.28594 75.2156 6.24336C75.2935 6.21188 75.3885 6.19522 75.5355 6.19059C76.534 6.15633 77.5325 6.11838 78.5353 6.0869C78.786 6.07949 78.9157 6.04894 79.0194 6.00913C79.1016 5.97766 79.1967 5.96655 79.3566 5.96099C80.7873 5.91285 82.2094 5.85915 83.6401 5.81286C83.9038 5.80453 83.9816 5.76472 84.1156 5.73047C84.1632 5.71843 84.1934 5.70362 84.2539 5.69621C84.3144 5.6888 84.3922 5.68972 84.4657 5.68787C85.6068 5.64806 86.748 5.60548 87.8935 5.56845C88.1615 5.56012 88.2133 5.51382 88.3516 5.48142C88.3991 5.47123 88.4424 5.45457 88.4986 5.4518C89.3544 5.42032 90.2103 5.39069 91.0661 5.36014C91.6367 5.33977 92.2072 5.3194 92.7778 5.29996C93.0587 5.2907 93.0588 5.28977 93.4391 5.20182C93.4824 5.19164 93.5429 5.1796 93.5991 5.17682C95.2416 5.11757 96.8798 5.06111 98.5224 5.00278C98.6607 4.99815 98.7601 4.97685 98.8292 4.94537C98.8984 4.91389 98.9979 4.8926 99.1319 4.88797C100.416 4.84168 101.699 4.79632 102.987 4.75281C103.221 4.7454 103.385 4.72318 103.489 4.68152C103.567 4.65004 103.662 4.63338 103.809 4.62875C105.092 4.58431 106.376 4.53709 107.664 4.4945C107.911 4.48617 108.032 4.4547 108.153 4.41766C108.196 4.4047 108.231 4.38341 108.283 4.38156C108.922 4.35563 109.558 4.32878 110.202 4.31119C110.47 4.30379 110.56 4.2649 110.669 4.22787C110.755 4.19824 110.854 4.18806 111.019 4.18436C111.377 4.17603 111.732 4.16029 112.082 4.14456C112.134 4.14178 112.199 4.12141 112.203 4.10845C112.212 4.08438 112.112 4.06771 111.948 4.05938C110.236 4.11955 108.52 4.17973 106.809 4.2399C106.528 4.25009 106.528 4.25009 106.147 4.33805C106.104 4.34823 106.043 4.36027 105.983 4.36304C104.34 4.42137 102.702 4.47877 101.06 4.5371C100.921 4.54173 100.822 4.56302 100.753 4.5945C100.684 4.62597 100.584 4.64727 100.45 4.6519C98.8811 4.70745 97.3121 4.76392 95.7387 4.81669C95.5053 4.8241 95.3411 4.84538 95.2373 4.88797C95.1595 4.91945 95.0644 4.93612 94.9175 4.94075C93.4176 4.99259 91.9219 5.04721 90.4177 5.0972C90.2664 5.10183 90.1541 5.07498 90.1628 5.04999C90.1671 5.03703 90.2318 5.01574 90.2837 5.01389C91.0661 4.98334 91.8442 4.95186 92.6309 4.92871C92.8946 4.92131 92.9723 4.88057 93.1063 4.84631C93.1495 4.83428 93.1841 4.81854 93.2403 4.81206C93.3008 4.80465 93.3786 4.80558 93.4521 4.80373C95.3064 4.738 97.1608 4.67134 99.0195 4.60931C99.2875 4.60005 99.3393 4.55468 99.4776 4.52228C99.5252 4.51117 99.5684 4.49451 99.6246 4.49266C100.195 4.47044 100.766 4.451 101.336 4.43155C102.335 4.39637 103.333 4.36119 104.336 4.32601C104.626 4.31583 104.626 4.31582 104.997 4.2288C105.041 4.21861 105.101 4.20566 105.157 4.20381C107.798 4.1103 110.439 4.01679 113.081 3.92421C113.219 3.91958 113.318 3.89829 113.387 3.86681C113.457 3.83626 113.556 3.81404 113.69 3.80849C117.26 3.68258 120.826 3.55666 124.397 3.4326C124.63 3.42427 124.794 3.40483 124.898 3.36131C124.972 3.32984 125.071 3.31318 125.218 3.30762C129.143 3.16968 133.068 3.03173 136.997 2.89286C139.638 2.80028 142.279 2.70585 144.92 2.61512C145.162 2.60679 145.291 2.57808 145.412 2.54012C145.451 2.52716 145.49 2.50587 145.542 2.50401C146.108 2.48087 146.675 2.45958 147.241 2.43828C147.418 2.46328 147.595 2.48736 147.773 2.51235C147.907 2.47717 148.036 2.44106 148.17 2.40588C149.026 2.37904 149.869 2.33737 150.733 2.32441C150.79 2.32349 150.85 2.34108 150.911 2.35034C151.313 2.40866 151.542 2.40403 151.797 2.32627C151.888 2.29849 151.965 2.2735 152.104 2.26887C152.532 2.2522 152.964 2.24109 153.388 2.22165C153.617 2.21147 153.807 2.22072 153.971 2.25405C154.088 2.27812 154.209 2.28831 154.351 2.28276C155.138 2.25498 155.92 2.22813 156.707 2.1985C156.763 2.19665 156.815 2.18091 156.858 2.1698C156.949 2.14573 157.027 2.11981 157.113 2.09481C157.23 2.11055 157.36 2.12259 157.455 2.14296C157.576 2.16703 157.688 2.16702 157.853 2.16054C160.991 2.04852 164.133 1.93928 167.271 1.82633C167.539 1.81707 167.656 1.85596 167.837 1.87632C167.898 1.88373 167.958 1.89298 168.023 1.89484C168.092 1.89669 168.166 1.89114 168.235 1.88836C170.591 1.80504 172.947 1.72263 175.302 1.63931C175.614 1.6282 175.614 1.6282 176.076 1.6856C176.132 1.69301 176.206 1.70134 176.266 1.69856C177.338 1.66246 178.41 1.62358 179.478 1.58655C179.616 1.58192 179.733 1.59673 179.858 1.61802C180.105 1.65968 180.122 1.65969 180.303 1.59858C180.39 1.56988 180.481 1.55228 180.623 1.54395C180.779 1.53469 180.904 1.53748 181.025 1.55414C181.198 1.57729 181.324 1.61617 181.587 1.60598C182.728 1.56247 183.874 1.52637 185.011 1.48193C185.27 1.47174 185.408 1.50322 185.581 1.52637C185.642 1.5347 185.698 1.54766 185.763 1.55044C185.828 1.55322 185.905 1.54673 185.975 1.54395C187.401 1.49396 188.832 1.4449 190.254 1.3912C190.522 1.38102 190.638 1.42082 190.82 1.44119C190.881 1.44859 190.95 1.46156 191.006 1.45971C191.862 1.43101 192.722 1.40045 193.578 1.3699C193.885 1.35879 193.885 1.35971 194.351 1.41619C194.408 1.4236 194.481 1.431 194.542 1.42915C195.54 1.3949 196.543 1.35972 197.541 1.32453C197.848 1.31342 197.848 1.31343 198.734 1.36157C198.799 1.36527 198.868 1.37083 198.933 1.36898C200.074 1.32917 201.22 1.29028 202.361 1.2477C202.59 1.23936 202.78 1.24677 202.945 1.2801C203.061 1.30417 203.182 1.31436 203.325 1.3088C204.609 1.26344 205.897 1.21993 207.176 1.17179C207.423 1.16253 207.583 1.18289 207.755 1.20974C207.812 1.21899 207.868 1.23196 207.933 1.23566C207.998 1.23936 208.071 1.23566 208.14 1.23288C209.424 1.18752 210.712 1.14493 211.991 1.09586C212.251 1.08568 212.389 1.11715 212.562 1.1403C212.623 1.14863 212.687 1.1653 212.739 1.16437C213.241 1.14863 213.742 1.13475 214.239 1.11161C214.507 1.09864 214.624 1.14122 214.805 1.16159C214.866 1.16807 214.935 1.18197 214.991 1.18011C216.063 1.14401 217.135 1.10605 218.203 1.06717C218.354 1.06161 218.466 1.06994 218.588 1.09401C218.747 1.12641 218.933 1.13937 219.167 1.12919C219.664 1.1079 220.165 1.09309 220.667 1.0755C220.961 1.06531 220.961 1.06532 221.86 1.11346C221.924 1.11716 221.994 1.12271 222.058 1.12086C222.914 1.09124 223.774 1.06254 224.626 1.03013C224.855 1.02088 225.045 1.02921 225.21 1.06253C225.326 1.08661 225.443 1.0968 225.59 1.09124C226.377 1.06347 227.159 1.03569 227.946 1.00792C228.231 0.997731 228.516 0.980137 228.802 0.980137C229.009 0.981062 229.16 1.0255 229.346 1.04772C229.398 1.0542 229.485 1.0468 229.554 1.04495C230.552 1.00977 231.555 0.977363 232.549 0.937553C232.808 0.927369 232.947 0.958845 233.12 0.98199C233.18 0.990322 233.245 1.00699 233.297 1.00606C233.656 0.995878 234.01 0.98199 234.369 0.969954C234.797 0.955141 235.229 0.944031 235.653 0.923664C235.998 0.906999 236.128 0.987542 236.405 0.990319C236.617 0.993097 236.833 0.97736 237.044 0.969954C237.472 0.955141 237.9 0.938478 238.328 0.925517C238.479 0.920888 238.596 0.906069 238.644 0.87274C238.652 0.866259 238.579 0.852378 238.531 0.844045C237.957 0.749613 237.956 0.749608 237.377 0.769976C237.019 0.782937 236.664 0.795901 236.305 0.807011C236.245 0.808862 236.176 0.801456 236.115 0.795902C235.942 0.780163 235.96 0.761648 236.106 0.728319C236.253 0.69499 236.366 0.654258 236.491 0.6163C236.668 0.640371 236.841 0.664434 237.019 0.688505C237.161 0.683876 237.304 0.678329 237.447 0.6737C238.16 0.649629 238.873 0.62463 239.586 0.602411C239.638 0.600559 239.703 0.619078 239.763 0.628336C239.936 0.655185 240.092 0.678323 240.343 0.66814C240.982 0.641291 241.626 0.621849 242.266 0.598704C242.547 0.58852 242.547 0.588521 243.04 0.645921C243.096 0.652402 243.169 0.659809 243.23 0.657957C243.874 0.636663 244.514 0.613521 245.158 0.591301C245.296 0.586672 245.43 0.598707 245.529 0.625556C245.568 0.636666 245.56 0.655178 245.724 0.807011C246.234 0.930143 246.584 0.917188 246.939 0.906079C247.09 0.90145 247.224 0.896816 247.323 0.8783C247.375 0.868116 247.44 0.853301 247.44 0.841265C247.44 0.832007 247.345 0.817192 247.284 0.81534C246.857 0.796824 246.45 0.835713 246.031 0.844045C245.836 0.847749 245.668 0.815345 245.633 0.762574C245.625 0.747761 245.612 0.732023 245.599 0.71721C245.586 0.702397 245.577 0.686659 245.564 0.671846C245.396 0.667217 245.296 0.683879 245.223 0.715357C245.162 0.741279 245.076 0.770905 244.959 0.784792C244.842 0.799605 244.682 0.796833 244.54 0.801462C244.401 0.806091 244.25 0.818125 244.12 0.811644C243.991 0.804238 243.887 0.777385 243.766 0.76072C243.71 0.752388 243.641 0.740357 243.584 0.742209C243.087 0.757947 242.595 0.77368 242.102 0.794048C241.842 0.805158 241.713 0.76628 241.549 0.742209C241.419 0.723693 241.289 0.728316 241.268 0.770903C241.211 0.872742 241.41 0.915327 241.851 0.895885C242.214 0.87922 242.543 0.876451 242.828 0.939406C242.867 0.947739 242.958 0.951441 243.014 0.949589C243.368 0.938479 243.718 0.924591 244.073 0.913481C244.138 0.911629 244.207 0.915327 244.267 0.91903C245.149 0.969024 245.149 0.969954 245.447 0.958845C245.59 0.95329 245.728 0.94866 245.715 0.807937C245.988 0.657031 246.42 0.646849 246.839 0.624629C247.112 0.610742 247.228 0.651479 247.405 0.672773C247.466 0.68018 247.531 0.69499 247.587 0.693138C248.516 0.662586 249.441 0.630179 250.366 0.595924C250.522 0.590369 250.634 0.595925 250.755 0.619996C250.911 0.650547 251.084 0.669993 251.33 0.658884C251.823 0.636664 252.324 0.62278 252.826 0.604264C253.081 0.595006 253.081 0.594997 253.595 0.652397C253.651 0.658877 253.725 0.666284 253.785 0.664433C254.287 0.648694 254.784 0.629258 255.281 0.612593C255.419 0.607964 255.545 0.620924 255.653 0.645921C255.761 0.670918 255.89 0.683878 256.024 0.679249C256.526 0.662584 257.023 0.644074 257.52 0.627409C257.581 0.625558 257.654 0.632038 257.71 0.638519C258.238 0.695919 258.238 0.695909 258.48 0.686651C258.834 0.672764 259.197 0.666291 259.547 0.647774C259.889 0.629258 260.066 0.682951 260.299 0.712577C260.939 0.691283 261.583 0.673697 262.218 0.647774C262.478 0.636665 262.616 0.667214 262.789 0.691285C262.85 0.699617 262.91 0.717209 262.966 0.716283C263.182 0.71258 263.394 0.702398 263.606 0.694992C263.818 0.687585 264.034 0.68018 264.246 0.672773C264.488 0.699622 264.648 0.762576 264.994 0.741282C265.201 0.728321 265.421 0.725543 265.633 0.718137C265.845 0.71073 266.061 0.703325 266.273 0.695918C266.416 0.691289 266.563 0.688508 266.701 0.680175C266.956 0.666288 267.081 0.711658 267.263 0.732026C267.323 0.738507 267.393 0.749609 267.449 0.747758C267.877 0.734796 268.309 0.723688 268.728 0.702394C269.052 0.685729 269.273 0.713507 269.502 0.752391C269.549 0.760724 269.632 0.765352 269.692 0.7635C270.193 0.747762 270.691 0.728314 271.188 0.71165C271.322 0.707021 271.451 0.721833 271.559 0.745904C271.672 0.770901 271.797 0.782946 271.935 0.778317C272.432 0.761652 272.934 0.74313 273.431 0.726466C273.492 0.724614 273.565 0.732022 273.621 0.739429C274.105 0.796829 274.105 0.797755 274.391 0.786646C274.46 0.783868 274.533 0.782009 274.602 0.779232C274.957 0.766271 275.324 0.761648 275.67 0.739429C276.068 0.714432 276.357 0.745911 276.638 0.798682C276.993 0.787572 277.356 0.78109 277.702 0.762574C277.961 0.748687 278.099 0.783866 278.272 0.807011C278.333 0.815343 278.397 0.832008 278.449 0.830156C278.951 0.814417 279.452 0.800535 279.945 0.77739C280.213 0.764429 280.33 0.806082 280.511 0.827376C280.572 0.834782 280.637 0.84775 280.693 0.845899C280.978 0.838492 281.263 0.827377 281.549 0.817193C281.881 0.805158 281.881 0.806083 282.322 0.862557C282.53 0.889405 282.737 0.868111 282.94 0.86163C283.157 0.854224 283.36 0.848671 283.533 0.886629C283.641 0.9107 283.77 0.925513 283.904 0.92181C284.19 0.913478 284.479 0.90515 284.76 0.891263C284.985 0.880153 285.179 0.887555 285.344 0.92181C285.46 0.945881 285.581 0.957924 285.724 0.952369C286.364 0.93015 287.008 0.906996 287.648 0.885702C287.704 0.883851 287.782 0.892186 287.833 0.900518C287.954 0.917183 288.071 0.935695 288.188 0.954211C288.469 0.945879 288.758 0.942185 289.035 0.929224C289.329 0.916263 289.597 0.911632 289.826 0.962552C289.874 0.973661 289.943 0.989391 289.999 0.988466C290.215 0.984762 290.427 0.975507 290.639 0.968101C290.85 0.960694 291.067 0.953289 291.278 0.945882C291.525 0.969027 291.68 1.03568 292.026 1.01439C292.234 1.00143 292.454 0.998652 292.666 0.991246C292.878 0.983839 293.094 0.975508 293.306 0.969027C293.375 0.967176 293.453 0.962544 293.513 0.966247C293.578 0.96995 293.634 0.982914 293.69 0.992173C293.863 1.01902 294.023 1.04587 294.27 1.03013C294.477 1.01717 294.698 1.01439 294.909 1.00606C295.199 0.995878 295.199 0.99588 295.679 1.05421C295.873 1.07828 296.094 1.0468 296.28 1.06717C296.405 1.08106 296.513 1.1042 296.634 1.11993C296.686 1.12642 296.768 1.12919 296.829 1.12734C297.114 1.119 297.403 1.11068 297.684 1.09679C297.913 1.08568 298.104 1.09679 298.264 1.13012C298.38 1.15419 298.497 1.16438 298.644 1.15882C299.357 1.1329 300.07 1.11067 300.779 1.08197C301.021 1.07179 301.216 1.08753 301.35 1.12086C301.579 1.17826 301.903 1.11068 302.141 1.15697C302.288 1.18567 302.435 1.219 302.703 1.20511C303.196 1.18104 303.697 1.16807 304.194 1.15141C304.371 1.17641 304.548 1.20141 304.73 1.2264C305.015 1.21622 305.301 1.20603 305.586 1.19677C305.798 1.18937 306.014 1.18103 306.226 1.17455C306.295 1.1727 306.368 1.169 306.433 1.17363C306.498 1.17826 306.55 1.19029 306.61 1.19955C306.909 1.24492 306.908 1.24585 307.401 1.22733C307.613 1.219 307.816 1.21344 307.993 1.25048C308.158 1.28473 308.352 1.29121 308.577 1.28102C309.001 1.26251 309.429 1.24862 309.861 1.23566C309.995 1.23103 310.12 1.24677 310.232 1.27084C310.401 1.3088 310.609 1.3051 310.82 1.29491C311.101 1.28195 311.378 1.26899 311.616 1.32084C311.663 1.33195 311.737 1.34768 311.789 1.34675C312.143 1.33935 312.502 1.3338 312.848 1.31621C313.193 1.29862 313.362 1.35601 313.6 1.38379C313.954 1.37175 314.313 1.35972 314.667 1.34768C314.736 1.3449 314.819 1.33658 314.879 1.3412C315.134 1.36065 315.281 1.43008 315.631 1.40879C315.834 1.39675 316.055 1.39305 316.267 1.39027C316.323 1.38935 316.396 1.40508 316.435 1.41712C316.457 1.4236 316.435 1.44119 316.409 1.45044C316.331 1.47637 316.236 1.50044 316.167 1.52729C316.159 1.531 316.241 1.54765 316.288 1.55506C316.405 1.57172 316.539 1.56895 316.695 1.56155C316.829 1.55507 316.967 1.56803 317.062 1.5958C317.101 1.60691 317.088 1.62543 317.006 1.68653C317.006 1.73189 317.097 1.71152 317.127 1.6819C317.174 1.63931 317.084 1.62542 316.911 1.64857C316.79 1.66523 316.729 1.68931 316.759 1.70875C316.777 1.71893 316.859 1.73189 317.006 1.68653C317.386 1.63098 317.671 1.6208 317.957 1.61062C318.03 1.60784 318.117 1.59858 318.169 1.60413C318.354 1.62635 318.527 1.6532 318.709 1.6782C318.916 1.67264 319.111 1.65875 319.314 1.69486C319.599 1.74578 319.612 1.74115 319.889 1.73097C320.032 1.72541 320.174 1.72079 320.317 1.71616C320.459 1.71153 320.572 1.72542 320.697 1.74671C320.952 1.79022 320.974 1.79022 321.142 1.73097C321.242 1.69486 321.311 1.68283 321.436 1.69949C321.851 1.75597 321.856 1.75967 322.21 1.743C322.504 1.72911 322.781 1.72541 322.997 1.77818C323.144 1.81522 323.191 1.80688 323.308 1.768C323.619 1.66524 323.762 1.66708 324.345 1.74115C324.618 1.77633 324.899 1.73838 325.175 1.73375C325.409 1.73004 325.573 1.75226 325.59 1.81058C325.603 1.84669 325.642 1.87262 325.798 1.88465C325.858 1.88928 325.932 1.89576 325.992 1.89391C326.351 1.8828 326.705 1.86984 327.064 1.85687C327.246 1.85039 327.345 1.80689 327.311 1.74949C327.272 1.68839 327.341 1.66616 327.6 1.64857C327.756 1.63838 327.881 1.64024 328.007 1.65691C328.145 1.67542 328.106 1.69209 327.985 1.72542C327.695 1.80689 327.73 1.85687 328.102 1.91335C328.231 1.93279 328.335 1.95039 328.365 1.97909C328.383 1.9939 328.365 2.01334 328.404 2.02445C328.616 2.08648 328.91 2.12629 329.238 2.15592C329.554 2.13092 329.77 2.17258 330.012 2.20591C330.202 2.23183 330.427 2.20962 330.63 2.20036C330.859 2.19017 331.049 2.19758 331.214 2.23183C331.33 2.2559 331.451 2.26701 331.594 2.26238C331.879 2.2522 332.169 2.24572 332.45 2.2309C332.692 2.21794 332.874 2.23646 333.025 2.26794C333.215 2.30775 333.427 2.2809 333.626 2.28645C333.894 2.29293 334.028 2.37533 334.378 2.35311C334.585 2.34015 334.801 2.33552 335.018 2.33181C335.074 2.33089 335.143 2.34663 335.19 2.35774C335.419 2.40866 335.688 2.40588 335.981 2.39107C336.185 2.38088 336.383 2.37163 336.582 2.40681C336.911 2.46606 337.274 2.51791 337.62 2.57253C337.667 2.61512 337.633 2.66511 337.879 2.6901C338.009 2.70306 338.13 2.72251 338.229 2.74381C338.35 2.7688 338.462 2.77529 338.618 2.76881C338.899 2.75584 339.193 2.75306 339.47 2.73639C339.725 2.72158 339.885 2.75214 340.04 2.78084C340.166 2.80399 340.282 2.81509 340.434 2.79843C340.589 2.78269 340.702 2.79287 340.827 2.81786C341.004 2.85212 341.017 2.84842 341.605 2.85861C341.665 2.85953 341.739 2.87341 341.773 2.88545C341.791 2.89193 341.752 2.91045 341.722 2.91971C341.683 2.93082 341.622 2.94378 341.566 2.94655C340.926 2.97062 340.282 2.99192 339.643 3.01599C339.578 3.01877 339.509 3.02525 339.461 3.03451C339.409 3.0447 339.344 3.05857 339.344 3.07153C339.344 3.08079 339.431 3.09191 339.491 3.09839C339.681 3.11968 339.906 3.08728 340.092 3.11135C340.217 3.12709 340.321 3.1493 340.446 3.16412C340.498 3.1706 340.581 3.16967 340.645 3.16782C340.862 3.16134 341.073 3.15209 341.289 3.14653C341.35 3.14561 341.419 3.15487 341.475 3.16227C341.89 3.21782 341.89 3.21782 342.249 3.20578C342.392 3.20115 342.543 3.18727 342.677 3.19282C342.807 3.19838 342.919 3.22337 343.036 3.23911C343.278 3.27244 343.507 3.30484 343.524 3.37706C343.533 3.40483 343.675 3.4289 343.818 3.43075C343.956 3.4326 344.103 3.42243 344.246 3.41687C344.583 3.40576 344.583 3.40576 345.02 3.46223C345.141 3.47797 345.27 3.47982 345.426 3.47056C345.486 3.46686 345.56 3.47057 345.625 3.4752C345.837 3.48908 345.837 3.50667 345.698 3.54C345.504 3.58907 345.521 3.5937 346.066 3.63536C346.273 3.6511 346.433 3.68073 346.606 3.70665C346.887 3.74831 346.883 3.7483 346.697 3.80293C346.654 3.81496 346.615 3.82793 346.571 3.84089C346.446 3.87699 346.347 3.91588 346.087 3.91958C345.802 3.92328 345.517 3.9381 345.231 3.94828C344.955 3.95847 344.881 3.98068 344.907 4.04363C344.938 4.11955 344.994 4.12788 345.491 4.12696C345.634 4.12696 345.759 4.13436 345.867 4.15936C345.815 4.18899 345.72 4.21213 345.582 4.21769C345.227 4.23157 344.868 4.24361 344.514 4.25565C344.229 4.26583 343.943 4.27601 343.658 4.2862C343.481 4.29268 343.369 4.34082 343.416 4.39452C343.442 4.42507 343.464 4.45562 343.485 4.48617C343.533 4.54728 343.624 4.56302 343.913 4.56024C343.987 4.55932 344.056 4.5519 344.125 4.55376C344.406 4.56024 344.54 4.63708 344.877 4.62134C345.158 4.60838 345.452 4.6056 345.729 4.58894C345.984 4.57412 346.126 4.60746 346.303 4.63246C346.364 4.64079 346.429 4.65837 346.481 4.65745C346.84 4.64726 347.198 4.63709 347.548 4.6195C347.713 4.61209 347.812 4.61764 347.942 4.63986C348.253 4.69356 348.262 4.69078 348.724 4.67411C349.061 4.66115 349.066 4.663 349.498 4.71948C349.619 4.73522 349.748 4.73521 349.904 4.72781C350.107 4.71855 350.319 4.70374 350.531 4.71763C350.596 4.72133 350.678 4.73244 350.699 4.74448C350.712 4.75281 350.652 4.77318 350.6 4.77966C350.22 4.8278 349.774 4.81947 349.359 4.83891C349.23 4.84447 349.1 4.82687 348.992 4.80188C348.88 4.77688 348.759 4.7667 348.612 4.77133C348.326 4.78151 348.037 4.78799 347.756 4.8028C347.514 4.81576 347.345 4.79447 347.177 4.76577C347.12 4.75651 347.056 4.73892 346.999 4.73984C346.36 4.75836 345.716 4.77688 345.08 4.8028C344.825 4.81391 344.678 4.78429 344.505 4.75929C344.445 4.75096 344.384 4.73337 344.328 4.73429C344.112 4.738 343.9 4.74818 343.684 4.75559C342.897 4.78336 342.115 4.81114 341.328 4.83706C341.276 4.83891 341.212 4.81947 341.151 4.81113C341.034 4.79447 340.913 4.77873 340.792 4.76299C340.576 4.7704 340.364 4.77965 340.148 4.78521C339.993 4.78891 339.854 4.80188 339.833 4.83706C339.82 4.8602 339.962 4.88149 340.114 4.87964C340.261 4.87779 340.408 4.86668 340.529 4.87872C341.13 4.93797 341.13 4.93889 341.506 4.92686C341.834 4.91575 341.799 4.90649 342.089 4.95741C342.214 4.97963 342.327 4.99259 342.469 4.98704C342.824 4.97408 343.183 4.96111 343.541 4.95C343.598 4.94815 343.671 4.95741 343.727 4.96482C344.151 5.02037 344.151 5.02222 344.501 5.00833C344.959 4.99167 344.977 4.98704 345.283 5.04351C345.495 5.0824 345.69 5.05555 345.893 5.05369C346.126 5.0898 346.381 5.12221 346.593 5.16294C346.844 5.21109 347.107 5.20275 347.393 5.18886C347.605 5.17867 347.812 5.17497 347.985 5.21293C348.149 5.24811 348.348 5.25182 348.573 5.24256C348.776 5.23423 348.983 5.21663 349.195 5.237C349.251 5.24256 349.338 5.25645 349.333 5.26478C349.329 5.27774 349.273 5.29626 349.217 5.30182C348.819 5.33977 348.383 5.33884 347.963 5.35644C347.907 5.35921 347.834 5.34903 347.777 5.34162C347.656 5.32495 347.54 5.30552 347.423 5.28793C347.211 5.29348 346.995 5.29533 346.788 5.30644C346.628 5.31477 346.507 5.31385 346.39 5.29163C346.282 5.27127 346.165 5.24626 346.035 5.23978C345.906 5.2333 345.755 5.24719 345.612 5.25275C345.469 5.2583 345.305 5.25552 345.193 5.27033C345.08 5.28514 345.011 5.31755 344.938 5.34347C344.855 5.37217 344.743 5.38144 344.579 5.38421C344.427 5.38699 344.307 5.38328 344.194 5.35736C344.147 5.34625 344.082 5.33792 344.017 5.33051C343.956 5.32403 343.887 5.31384 343.831 5.31569C343.187 5.33699 342.547 5.36014 341.903 5.38236C341.583 5.39347 341.588 5.39346 340.922 5.33884C340.861 5.33421 340.788 5.32773 340.728 5.32958C340.369 5.34069 340.014 5.35366 339.656 5.36662C339.292 5.37958 339.297 5.37773 338.679 5.3194C338.566 5.30829 338.402 5.32311 338.268 5.32125C337.987 5.31663 337.849 5.23886 337.52 5.25367C337.239 5.26663 336.945 5.26941 336.664 5.28607C336.409 5.30089 336.262 5.26849 336.09 5.24349C336.029 5.23516 335.964 5.21664 335.912 5.21849C335.268 5.23886 334.628 5.262 333.773 5.26478C333.561 5.26478 333.656 5.28423 333.794 5.29071C333.993 5.30089 334.058 5.28145 333.95 5.24442C333.872 5.21849 333.76 5.20552 333.669 5.212C333.621 5.21571 333.561 5.2333 333.773 5.26478C333.997 5.29996 333.984 5.3194 334.023 5.33051C334.118 5.35736 334.252 5.36847 334.391 5.36476C334.607 5.35828 334.819 5.34903 335.035 5.34347C335.095 5.34162 335.169 5.3481 335.225 5.35551C335.7 5.41291 335.705 5.41662 336.211 5.3944C336.37 5.38792 336.487 5.38792 336.613 5.40551C336.785 5.42958 336.911 5.47031 337.174 5.45735C337.525 5.43975 337.883 5.42958 338.242 5.4194C338.298 5.41754 338.359 5.43421 338.424 5.44161C338.601 5.46383 338.731 5.50549 338.994 5.4879C339.197 5.47402 339.418 5.47031 339.634 5.46753C339.69 5.4666 339.776 5.48142 339.802 5.49345C339.854 5.51475 339.79 5.53975 339.643 5.55734C339.582 5.56475 339.5 5.56289 339.431 5.56567C339.145 5.57585 338.86 5.58696 338.575 5.59529C338.424 5.59992 338.281 5.61381 338.264 5.64807C338.251 5.67121 338.406 5.69158 338.553 5.68972C338.769 5.68695 338.986 5.67954 339.193 5.66751C339.56 5.64714 339.88 5.65269 340.179 5.71102C340.39 5.75175 340.377 5.73695 340.602 5.8573C340.658 5.88785 340.827 5.89063 340.974 5.88878C341.328 5.88415 341.493 5.89804 341.462 5.92674C341.423 5.96192 341.298 5.97302 341.138 5.97765C340.853 5.98506 340.568 5.9971 340.282 6.00728C340.213 6.01006 340.135 6.01561 340.07 6.01376C340.006 6.01191 339.945 6.0008 339.889 5.99247C339.768 5.97487 339.664 5.94802 339.534 5.94154C339.405 5.93506 339.254 5.94895 339.111 5.9545C338.968 5.95913 338.817 5.97302 338.687 5.96654C338.558 5.96006 338.45 5.93229 338.333 5.91563C338.277 5.9073 338.208 5.89433 338.151 5.89525C337.866 5.90266 337.581 5.9147 337.296 5.92396C336.945 5.93599 336.945 5.93599 336.522 5.87859C336.401 5.86193 336.275 5.86286 336.115 5.87026C335.77 5.88508 335.765 5.88229 335.134 5.8286C335.074 5.82304 335 5.81656 334.94 5.81934C334.296 5.84063 333.656 5.86378 333.016 5.88599C332.467 5.90544 332.467 5.90544 332.165 5.99803C331.94 6.06654 331.936 6.06653 332.156 6.09801C332.333 6.12393 332.493 6.16189 332.688 6.17577C332.869 6.18874 333.094 6.14708 333.293 6.18966C333.392 6.21096 333.522 6.2341 333.647 6.23781C333.846 6.24244 334.058 6.21558 334.248 6.25632C334.343 6.27669 334.486 6.29799 334.607 6.29891C334.819 6.30077 335.035 6.28594 335.247 6.27946C335.311 6.27761 335.385 6.27762 335.445 6.28224C335.51 6.2878 335.566 6.29891 335.623 6.30817C335.796 6.33965 335.981 6.35446 336.206 6.33872C336.574 6.31279 336.902 6.32576 337.187 6.38501C337.226 6.39334 337.321 6.39427 337.382 6.39057C337.538 6.38131 337.672 6.38038 337.788 6.39797C337.836 6.40538 337.905 6.41833 337.896 6.42666C337.883 6.44055 337.831 6.45907 337.775 6.4637C337.369 6.49518 336.932 6.49888 336.513 6.51555C336.457 6.5174 336.388 6.50536 336.332 6.49703C336.211 6.48036 336.107 6.45259 335.977 6.44611C335.847 6.43963 335.696 6.45167 335.554 6.4563C335.411 6.46093 335.26 6.47481 335.13 6.46926C335 6.46278 334.879 6.43963 334.775 6.41926C334.654 6.39612 334.538 6.39335 334.378 6.4026C334.17 6.41464 333.954 6.41649 333.742 6.42297C333.626 6.40538 333.509 6.38593 333.388 6.36926C333.332 6.36093 333.263 6.35075 333.202 6.35168C332.917 6.35909 332.631 6.37019 332.346 6.38037C332.061 6.39056 332.061 6.39057 331.577 6.33317C331.521 6.32669 331.447 6.31928 331.387 6.32113C331.028 6.33224 330.673 6.34612 330.315 6.35723C330.176 6.36186 330.051 6.3489 329.939 6.3239C329.831 6.2989 329.701 6.28502 329.567 6.28965C328.996 6.30909 328.426 6.32761 327.855 6.35075C327.626 6.36001 327.432 6.35168 327.276 6.31835C327.094 6.28039 326.891 6.28965 326.679 6.29706C326.2 6.31558 326.195 6.31464 325.888 6.26743C325.828 6.25817 325.767 6.24058 325.711 6.2415C325.214 6.25539 324.713 6.26835 324.22 6.29057C323.961 6.30261 323.822 6.27021 323.649 6.24614C323.589 6.2378 323.524 6.22021 323.472 6.22206C323.113 6.23225 322.755 6.24151 322.405 6.26003C322.054 6.27854 321.92 6.19244 321.657 6.19337C321.298 6.1943 320.944 6.21559 320.589 6.22855C320.304 6.23874 320.019 6.24891 319.733 6.2591C319.448 6.26928 319.163 6.27761 318.877 6.28965C318.726 6.29613 318.614 6.28779 318.488 6.26465C318.328 6.2341 318.138 6.21003 317.965 6.18226C317.702 6.14245 317.702 6.14245 317.382 6.15356C317.313 6.15633 317.239 6.15818 317.17 6.16096C316.647 6.18133 316.647 6.17948 315.981 6.12115C315.951 6.11838 315.873 6.12856 315.843 6.13597C315.752 6.16004 315.67 6.18596 315.588 6.21095C315.471 6.19614 315.329 6.18781 315.251 6.16652C315.03 6.10634 314.685 6.18874 314.46 6.12948C314.378 6.10726 314.235 6.08782 314.105 6.08227C313.971 6.07671 313.82 6.08967 313.682 6.09523C313.323 6.10912 313.323 6.10819 313.016 6.19059C312.861 6.23133 312.636 6.22392 312.433 6.23317C312.221 6.24336 312.018 6.24891 311.84 6.21095C311.68 6.1767 311.486 6.16837 311.257 6.17948C310.976 6.19337 310.686 6.2017 310.401 6.21003C310.341 6.21188 310.267 6.20725 310.207 6.2017C309.545 6.14708 309.545 6.14615 309.225 6.15819C309.083 6.16374 308.936 6.16559 308.797 6.17392C308.564 6.18873 308.387 6.16929 308.218 6.13967C308.162 6.13041 308.097 6.11283 308.041 6.11375C307.756 6.11838 307.475 6.12671 307.194 6.13504C306.978 6.14152 306.762 6.14523 306.554 6.15819C306.208 6.17948 306.04 6.1193 305.802 6.09152C305.448 6.10356 305.089 6.11189 304.734 6.12856C304.57 6.13596 304.462 6.13319 304.337 6.11097C304.177 6.0832 304.03 6.05172 303.77 6.06561C303.425 6.08412 303.062 6.09061 302.707 6.10172C302.469 6.07302 302.296 6.01468 301.955 6.03598C301.748 6.04894 301.527 6.05171 301.315 6.05912C301.03 6.0693 300.745 6.07857 300.459 6.08968C300.153 6.10079 300.157 6.09801 299.686 6.04339C299.413 6.01099 299.132 6.04709 298.856 6.05265C298.64 6.05727 298.532 6.09986 298.583 6.15448C298.635 6.2091 298.519 6.25169 298.32 6.2591C297.823 6.27669 297.321 6.2952 296.824 6.31094C296.764 6.31279 296.69 6.30631 296.634 6.29983C296.102 6.2415 296.102 6.24244 295.865 6.25077C295.51 6.26466 295.147 6.27206 294.797 6.28965C294.555 6.30168 294.378 6.28225 294.222 6.25077C294.101 6.2267 293.989 6.22114 293.833 6.2267C292.121 6.28873 290.41 6.34613 288.702 6.41001C288.447 6.41926 288.3 6.39242 288.127 6.36742C288.067 6.35909 288.011 6.3415 287.95 6.3415C287.807 6.3415 287.665 6.34983 287.522 6.35539C286.882 6.37761 286.243 6.40445 285.599 6.42112C285.326 6.42852 285.253 6.47111 285.136 6.50629C285.045 6.53314 284.942 6.54425 284.782 6.54795C284.626 6.55165 284.514 6.54702 284.393 6.52295C284.237 6.49147 284.06 6.47203 283.818 6.48499C283.537 6.4998 283.252 6.50629 282.962 6.51648C282.815 6.5211 282.703 6.53777 282.655 6.5711C282.646 6.57665 282.737 6.59054 282.789 6.59887C282.962 6.62665 283.126 6.65905 283.321 6.67849C283.52 6.69793 283.736 6.67571 283.943 6.67015C284.017 6.6683 284.086 6.66275 284.155 6.66368C284.22 6.6646 284.298 6.66923 284.345 6.67757C284.57 6.71923 284.808 6.74793 285.119 6.72293C285.387 6.73496 285.525 6.81181 285.867 6.79144C286.074 6.7794 286.29 6.77385 286.507 6.76922C286.563 6.76829 286.623 6.78496 286.684 6.79329C286.857 6.81644 286.995 6.85347 287.254 6.83773C287.531 6.82106 287.825 6.81829 288.106 6.80533C288.261 6.79792 288.374 6.8044 288.495 6.82847C288.65 6.85902 288.828 6.88216 289.07 6.86735C289.277 6.85439 289.498 6.85161 289.709 6.84328C289.986 6.83309 289.986 6.83402 290.479 6.89142C290.535 6.8979 290.608 6.90531 290.669 6.90346C291.028 6.89235 291.382 6.87846 291.741 6.86735C291.879 6.86272 292.013 6.87476 292.108 6.9016C292.147 6.91271 292.134 6.93124 292.147 6.94698C291.434 6.97198 290.721 6.99327 290.012 7.02382C289.744 7.03585 289.623 6.99789 289.446 6.9766C289.385 6.96919 289.32 6.95346 289.264 6.95531C288.763 6.97105 288.266 6.98771 287.769 7.00807C287.613 7.01455 287.496 7.01085 287.38 6.984C287.081 6.91271 286.718 6.9516 286.381 6.96178C286.122 6.96919 286.04 6.99789 286.07 7.059C286.109 7.13121 286.264 7.15343 286.662 7.14047C286.805 7.13584 286.947 7.12936 287.09 7.12565C287.228 7.12195 287.354 7.13398 287.466 7.15898C287.574 7.18398 287.704 7.19694 287.838 7.19324C288.123 7.1849 288.413 7.17658 288.689 7.16269C288.918 7.15158 289.109 7.16083 289.269 7.19509C289.446 7.23305 289.653 7.22471 289.861 7.21638C290.345 7.19787 290.349 7.1988 290.652 7.24509C290.712 7.25434 290.773 7.27194 290.829 7.27101C291.326 7.25712 291.827 7.24509 292.316 7.22287C292.571 7.21176 292.718 7.24138 292.886 7.26545C292.947 7.27378 293.007 7.2923 293.064 7.29045C293.422 7.28027 293.781 7.27008 294.131 7.25249C294.296 7.24416 294.395 7.24971 294.529 7.27193C294.849 7.32655 294.857 7.3247 295.311 7.30711C295.45 7.30155 295.601 7.29137 295.731 7.29878C295.86 7.30619 295.964 7.33304 296.085 7.3497C296.141 7.35711 296.21 7.36729 296.271 7.36544C296.556 7.35803 296.841 7.34692 297.127 7.33674C297.395 7.32656 297.395 7.32748 297.896 7.38488C298.099 7.40896 298.311 7.38858 298.514 7.38118C298.735 7.37285 298.934 7.37285 299.102 7.40896C299.271 7.44506 299.474 7.4432 299.69 7.4358C299.893 7.42839 300.101 7.40803 300.308 7.43303C300.784 7.49043 300.784 7.49134 301.078 7.48023C301.505 7.4645 301.929 7.44968 302.361 7.4358C302.417 7.43395 302.491 7.44506 302.547 7.45247C302.668 7.46913 302.772 7.4969 302.902 7.50338C303.031 7.51079 303.183 7.49968 303.321 7.49412C303.766 7.47653 303.796 7.47006 304.095 7.53116C304.345 7.58115 304.657 7.50894 304.89 7.56634C305.024 7.59874 305.205 7.62466 305.456 7.60892C305.664 7.59596 305.88 7.59226 306.096 7.58485C306.437 7.57282 306.437 7.57375 306.87 7.6293C306.926 7.63671 306.999 7.64596 307.055 7.6441C307.341 7.6367 307.63 7.63022 307.907 7.61356C308.231 7.59411 308.439 7.6293 308.681 7.66355C308.871 7.6904 309.096 7.66818 309.299 7.65892C309.519 7.64966 309.718 7.65243 309.882 7.68854C310.055 7.72557 310.258 7.72095 310.475 7.71354C310.678 7.70706 310.885 7.68576 311.093 7.71169C311.538 7.76909 311.538 7.76909 311.862 7.75798C312.147 7.74779 312.433 7.73669 312.718 7.72928C312.774 7.72743 312.843 7.73946 312.899 7.74779C313.02 7.76446 313.124 7.79224 313.254 7.79872C313.384 7.8052 313.535 7.79316 313.677 7.78854C313.82 7.78391 313.971 7.77002 314.101 7.77557C314.231 7.78113 314.352 7.80428 314.456 7.82464C314.577 7.84871 314.689 7.85149 314.853 7.84223C315.061 7.83019 315.277 7.82742 315.489 7.82094C315.605 7.83853 315.726 7.85611 315.839 7.87556C315.955 7.89592 316.081 7.89407 316.241 7.88759C316.772 7.86537 316.777 7.86815 317.222 7.92555C317.425 7.95148 317.637 7.93018 317.84 7.9237C318.056 7.91629 318.259 7.91259 318.428 7.94963C318.592 7.98481 318.795 7.98943 319.011 7.97832C319.15 7.97091 319.297 7.96629 319.439 7.96352C319.504 7.96259 319.582 7.96629 319.63 7.9737C319.859 8.01258 320.083 8.04776 320.399 8.02277C320.676 8.03017 320.814 8.10609 321.147 8.09128C321.428 8.07832 321.722 8.07553 321.998 8.05886C322.253 8.04405 322.435 8.06998 322.564 8.10239C322.798 8.15979 323.126 8.08202 323.36 8.13849C323.494 8.1709 323.667 8.19682 323.926 8.18293C324.211 8.16812 324.302 8.18755 324.384 8.24588C324.432 8.27921 324.423 8.30606 324.337 8.33198C324.25 8.35883 324.155 8.35421 324.017 8.32366C323.857 8.2894 323.667 8.28291 323.438 8.29032C323.213 8.29772 323.075 8.24959 322.889 8.23108C322.703 8.21163 322.482 8.24404 322.288 8.21904C321.83 8.16071 321.83 8.16071 321.518 8.17182C321.307 8.17923 321.086 8.18293 320.879 8.19589C320.632 8.21163 320.472 8.18293 320.304 8.15701C320.243 8.14775 320.183 8.13015 320.131 8.13108C319.634 8.14497 319.132 8.15793 318.64 8.18108C318.38 8.19311 318.242 8.15979 318.069 8.13664C318.009 8.12831 317.944 8.11164 317.892 8.1135C317.464 8.12646 317.04 8.14312 316.612 8.15886C316.53 8.18386 316.44 8.20792 316.362 8.23477C316.28 8.26255 316.167 8.27458 316.003 8.27366C315.731 8.27366 315.463 8.31254 315.19 8.26348C314.909 8.21348 314.888 8.21626 314.616 8.22829C314.27 8.24403 313.902 8.24033 313.578 8.27644C313.522 8.28292 313.461 8.3005 313.461 8.31346C313.457 8.32179 313.548 8.33383 313.604 8.34124C313.794 8.36346 314.015 8.33106 314.205 8.3542C314.33 8.36902 314.434 8.39123 314.559 8.40697C314.611 8.41345 314.689 8.41253 314.758 8.4116C314.832 8.41068 314.901 8.4042 314.97 8.40513C315.035 8.40605 315.104 8.4116 315.156 8.41993C315.394 8.45511 315.644 8.48752 315.856 8.52918C316.063 8.56992 316.258 8.54214 316.465 8.54029C317.295 8.6051 317.295 8.60602 317.853 8.58566C317.991 8.58103 318.134 8.57547 318.277 8.5764C318.337 8.5764 318.393 8.59306 318.454 8.60231C318.627 8.63009 318.791 8.65509 319.033 8.64028C319.241 8.62731 319.461 8.62454 319.673 8.6162C319.958 8.60602 319.958 8.60602 320.442 8.66435C320.563 8.67916 320.693 8.67731 320.848 8.66991C320.982 8.66343 321.121 8.67731 321.216 8.70416C321.255 8.71527 321.242 8.73379 321.255 8.74953C320.827 8.76434 320.395 8.77452 319.98 8.79674C319.712 8.81063 319.591 8.77082 319.413 8.74953C319.353 8.74212 319.288 8.72638 319.232 8.72823C318.808 8.74212 318.385 8.75785 317.961 8.77637C317.909 8.77822 317.844 8.79951 317.84 8.81247C317.831 8.83654 317.939 8.85969 318.095 8.85876C318.302 8.85784 318.506 8.8421 318.692 8.88006C318.847 8.91339 319.042 8.92821 319.271 8.9134C319.409 8.90506 319.556 8.90506 319.694 8.89765C320.062 8.87543 320.395 8.88006 320.671 8.94302C320.883 8.95968 321.091 8.94395 321.294 8.93561C321.445 8.92913 321.592 8.92265 321.7 8.94024C321.929 8.97727 322.154 9.0143 322.469 8.98931C322.811 9.01523 323.07 9.06985 323.356 9.11429C323.49 9.13558 323.593 9.14763 323.749 9.13374C323.814 9.12818 323.891 9.12818 323.961 9.1254C324.103 9.12077 324.255 9.10688 324.384 9.11244C324.514 9.11892 324.622 9.14577 324.739 9.16243C324.795 9.17076 324.86 9.18465 324.916 9.18372C325.132 9.1791 325.344 9.16984 325.556 9.16243C325.767 9.15595 325.979 9.14948 326.191 9.14299C326.368 9.16707 326.55 9.19114 326.727 9.21521C327.012 9.20503 327.298 9.19484 327.579 9.18558C327.894 9.17447 327.894 9.1754 328.348 9.23279C328.551 9.25872 328.767 9.24205 328.962 9.23001C329.286 9.21057 329.502 9.24576 329.731 9.28279C329.779 9.2902 329.865 9.29482 329.921 9.29112C330.146 9.27816 330.341 9.28834 330.505 9.3226C330.622 9.34667 330.738 9.35778 330.881 9.35315C331.378 9.33556 331.875 9.31704 332.372 9.3013C332.433 9.29945 332.502 9.30779 332.558 9.31519C332.999 9.37167 333.003 9.37444 333.327 9.35963C333.617 9.34667 333.885 9.34111 334.114 9.39203C334.162 9.40314 334.235 9.41888 334.287 9.41796C334.641 9.4087 335 9.39851 335.35 9.38278C335.51 9.37537 335.623 9.37815 335.748 9.39944C335.908 9.42629 336.051 9.4587 336.314 9.44666C337.045 9.41241 337.049 9.41795 337.914 9.48183C337.974 9.48646 338.056 9.47906 338.125 9.47536C338.272 9.4661 338.38 9.47906 338.51 9.50035C338.8 9.5485 338.808 9.54572 339.085 9.53554C339.297 9.5272 339.517 9.52535 339.725 9.51146C340.045 9.4911 340.256 9.52721 340.494 9.56146C340.684 9.58831 340.905 9.56609 341.108 9.55775C341.328 9.5485 341.527 9.55127 341.691 9.58645C341.804 9.61052 341.925 9.62349 342.067 9.61886C342.564 9.6022 343.062 9.58368 343.559 9.56701C343.619 9.56516 343.693 9.57257 343.749 9.57905C344.242 9.63645 344.242 9.63923 344.73 9.61793C344.886 9.61145 345.015 9.6096 345.132 9.62904C345.244 9.64756 345.366 9.66515 345.482 9.68274C345.694 9.67626 345.91 9.67441 346.118 9.6633C346.278 9.65497 346.39 9.65867 346.515 9.67811C346.68 9.70311 346.818 9.74661 347.077 9.72532C347.211 9.71514 347.367 9.71792 347.501 9.70866C347.661 9.69663 347.769 9.70403 347.894 9.7281C348.05 9.7568 348.21 9.78642 348.46 9.77161C348.737 9.75495 349.031 9.75217 349.312 9.73921C349.467 9.7318 349.576 9.73921 349.701 9.76328C349.857 9.79383 350.034 9.81328 350.276 9.80124C350.769 9.7781 350.773 9.78272 351.253 9.84105C351.374 9.85586 351.503 9.85401 351.659 9.84661C351.793 9.84013 351.931 9.85401 352.026 9.88086C352.117 9.91049 352.108 9.929 352.117 9.94474ZM313.6 1.59487C313.457 1.5995 313.314 1.60506 313.107 1.52451C313.094 1.51063 313.103 1.49396 313.072 1.48193C313.003 1.45693 312.895 1.43934 312.765 1.43657C312.532 1.43286 312.251 1.46433 312.255 1.4884C312.26 1.50877 312.333 1.52636 312.476 1.54302C312.536 1.5495 312.584 1.56062 312.64 1.56802C312.804 1.58932 312.934 1.63098 313.172 1.60969C313.129 1.55229 313.15 1.58099 313.172 1.60969C313.15 1.64487 313.215 1.66987 313.371 1.68005C313.414 1.68283 313.479 1.68097 313.513 1.67542C313.647 1.65505 313.669 1.62728 313.569 1.55414C313.552 1.56618 313.565 1.58747 313.604 1.59302C313.643 1.59858 313.738 1.59395 313.786 1.58747C313.907 1.56988 313.967 1.54673 313.937 1.52729C313.92 1.51711 313.837 1.50415 313.786 1.50415C313.695 1.50415 313.613 1.52451 313.6 1.59487ZM348.551 12.3315C348.236 12.3491 347.873 12.3426 347.557 12.3787C347.501 12.3852 347.445 12.4018 347.44 12.4148C347.436 12.4231 347.522 12.4352 347.574 12.4417C347.691 12.4565 347.821 12.4518 347.972 12.4472C348.201 12.4407 348.335 12.4833 348.512 12.5046C348.568 12.5111 348.642 12.5157 348.702 12.5139C349.053 12.5027 349.398 12.4907 349.748 12.4778C349.809 12.475 349.874 12.4685 349.926 12.4602C350.099 12.4333 350.081 12.4157 349.913 12.3954C349.727 12.3731 349.58 12.3361 349.39 12.3185C349.117 12.2935 348.841 12.3268 348.551 12.3315ZM324.004 13.0073C323.792 13.0147 323.585 13.0221 323.373 13.0295C323.304 13.0323 323.23 13.0332 323.165 13.0369C323.031 13.0434 322.932 13.0629 322.867 13.0934C322.966 13.1175 323.088 13.1314 323.221 13.1286C323.433 13.123 323.641 13.111 323.853 13.1082C324.082 13.1045 324.216 13.1462 324.393 13.1675C324.449 13.174 324.518 13.1749 324.583 13.1758C324.903 13.1795 325.097 13.1314 325.037 13.0638C324.994 13.011 324.829 12.9795 324.631 12.986C324.423 12.9925 324.211 12.9999 324.004 13.0073ZM350.029 10.9631C350.081 10.9474 350.138 10.9363 350.163 10.9224C350.241 10.8752 350.211 10.84 350.068 10.803C349.895 10.7576 349.684 10.7882 349.489 10.7928C349.442 10.7937 349.39 10.8131 349.364 10.8252C349.346 10.8335 349.346 10.8511 349.372 10.8557C349.584 10.8928 349.809 10.927 350.029 10.9631ZM312.532 8.22829C312.325 8.2357 312.113 8.24126 311.905 8.25144C311.853 8.25422 311.806 8.27181 311.776 8.28384C311.719 8.30606 311.78 8.33661 311.957 8.33939C312.16 8.34309 312.372 8.32736 312.584 8.31995C312.852 8.31069 313.012 8.27643 312.912 8.24681C312.817 8.21811 312.688 8.21256 312.532 8.22829ZM85.0017 6.24984C85.14 6.24521 85.2826 6.24151 85.4209 6.23503C85.5506 6.22855 85.6501 6.20818 85.7149 6.17763C85.6069 6.15356 85.4858 6.1406 85.3518 6.14337C85.14 6.14893 84.9326 6.15633 84.7251 6.16559C84.5954 6.17115 84.4701 6.19151 84.4398 6.22299C84.4096 6.24706 84.6991 6.26095 85.0017 6.24984ZM294.252 6.10726C294.309 6.1156 294.365 6.13226 294.421 6.13226C294.559 6.13226 294.702 6.12671 294.832 6.11745C294.888 6.11374 294.931 6.09708 294.957 6.08412C294.974 6.07579 294.97 6.06098 294.944 6.05357C294.819 6.00913 294.317 6.02487 294.235 6.07579C294.226 6.08505 294.248 6.09708 294.252 6.10726ZM280.615 1.03754C280.628 1.05235 280.632 1.06716 280.65 1.08197C280.684 1.10975 280.779 1.13012 280.917 1.14401C281.026 1.12086 281.082 1.09494 281.077 1.06717C281.073 1.05236 281.06 1.03753 281.043 1.02272C281.008 0.994946 280.913 0.974585 280.775 0.960698C280.667 0.982918 280.615 1.00884 280.615 1.03754ZM360.019 13.1684C359.98 13.1804 359.941 13.1925 359.898 13.2036C360.014 13.2304 360.122 13.2388 360.205 13.224C360.256 13.2147 360.287 13.2008 360.326 13.1888C360.209 13.1619 360.105 13.1545 360.019 13.1684ZM357.33 13.2943C357.386 13.3026 357.438 13.3138 357.499 13.3193C357.598 13.3286 357.689 13.3128 357.758 13.2795C357.702 13.2712 357.65 13.2601 357.589 13.2545C357.49 13.2452 357.399 13.261 357.33 13.2943ZM359.033 13.1249C359.003 13.1471 359.063 13.1656 359.223 13.1814C359.262 13.1693 359.314 13.1582 359.34 13.1453C359.383 13.124 359.31 13.1045 359.154 13.0897C359.111 13.1008 359.072 13.1129 359.033 13.1249ZM349.908 12.1269C349.878 12.1491 349.939 12.1676 350.099 12.1833C350.137 12.1713 350.189 12.1602 350.215 12.1472C350.259 12.1259 350.185 12.1065 350.029 12.0917C349.986 12.1028 349.947 12.1148 349.908 12.1269ZM337.477 5.57585C337.438 5.58789 337.399 5.59992 337.356 5.61103C337.473 5.63788 337.581 5.64621 337.663 5.6314C337.715 5.62214 337.745 5.60825 337.784 5.59622C337.667 5.56937 337.563 5.56196 337.477 5.57585ZM325.569 2.10036C325.672 2.10684 325.759 2.09389 325.832 2.05963C325.776 2.0513 325.724 2.04019 325.664 2.03463C325.564 2.02538 325.474 2.04112 325.404 2.07445C325.461 2.08371 325.517 2.09203 325.569 2.10036ZM319.245 1.8828C319.206 1.89484 319.167 1.90687 319.124 1.91798C319.241 1.94483 319.349 1.95316 319.431 1.93835C319.483 1.92909 319.513 1.9152 319.552 1.90316C319.435 1.87632 319.331 1.86984 319.245 1.8828ZM276.362 1.03661C276.323 1.04865 276.284 1.06068 276.241 1.07179C276.357 1.09864 276.465 1.10697 276.548 1.09216C276.599 1.0829 276.63 1.06901 276.669 1.05697C276.552 1.03013 276.448 1.02365 276.362 1.03661ZM62.836 8.56899C62.7799 8.56065 62.7237 8.55233 62.6718 8.54307C62.5465 8.56807 62.5076 8.59121 62.5768 8.6088C62.62 8.61991 62.6848 8.62639 62.741 8.63473C62.8706 8.60973 62.9009 8.5875 62.836 8.56899Z" fill="#FFE492"/>
<path d="M13.9984 32.2954C13.6692 32.3129 13.3428 32.3349 13.0136 32.346C12.839 32.3515 12.7761 32.3911 12.7045 32.4279C12.6473 32.4573 12.5814 32.4665 12.4755 32.4721C11.5824 32.5171 10.6921 32.565 9.80185 32.6119C9.69021 32.6 9.63582 32.5806 9.66158 32.5576C9.6759 32.5438 9.71026 32.5245 9.74461 32.5227C10.3543 32.4886 10.9612 32.4536 11.5738 32.427C11.7484 32.4196 11.7971 32.3791 11.8858 32.346C11.9144 32.3349 11.9374 32.3184 11.9746 32.3119C12.0118 32.3046 12.0662 32.3055 12.1148 32.3037C13.0996 32.2512 14.0843 32.1997 15.069 32.1472C15.1807 32.1592 15.235 32.1785 15.2093 32.2015C15.195 32.2153 15.1606 32.2346 15.1263 32.2365C14.7484 32.2558 14.3733 32.2751 13.9984 32.2954Z" fill="#FFE492"/>
<path d="M194.435 37.1957C194.286 37.2067 194.097 37.2223 193.942 37.169C193.868 37.1432 193.788 37.1349 193.69 37.1404C193.55 37.1496 193.407 37.157 193.264 37.1625C193.227 37.1634 193.178 37.1533 193.141 37.145C193.061 37.1285 192.992 37.1009 192.906 37.0935C192.82 37.0861 192.717 37.1064 192.628 37.1018C192.511 37.0953 192.462 37.0705 192.494 37.0475C192.511 37.0346 192.545 37.0162 192.582 37.0134C193.112 36.9794 193.115 36.9794 193.264 37.0125C193.378 37.0383 193.484 37.0668 193.647 37.0512C193.785 37.0383 193.931 37.0355 194.071 37.0272C194.266 37.0162 194.266 37.0171 194.581 37.0751C194.661 37.0898 194.747 37.0889 194.85 37.0806C194.938 37.0742 195.024 37.0889 195.096 37.1137C195.05 37.145 194.984 37.1653 194.895 37.1708C194.752 37.18 194.612 37.1864 194.435 37.1957Z" fill="#FFE492"/>
<path d="M188.864 36.9121C189.224 36.8927 189.588 36.8762 189.949 36.8541C190.098 36.8449 190.215 36.855 190.318 36.8863C190.43 36.9203 190.556 36.9176 190.693 36.9111C190.779 36.9075 190.862 36.9222 190.919 36.9479C190.942 36.9581 190.936 36.9765 190.945 36.9912C190.63 37.0078 190.312 37.0252 189.995 37.04C189.957 37.0418 189.911 37.0326 189.877 37.0253C189.8 37.0096 189.734 36.982 189.651 36.9765C189.473 36.9636 189.296 36.9884 189.116 36.993C189.03 36.9949 188.947 36.9811 188.89 36.9562C188.867 36.9443 188.872 36.9268 188.864 36.9121Z" fill="#FFE492"/>
<path d="M58.5332 29C58.9082 28.9797 59.2832 28.9604 59.6582 28.9402C59.7698 28.9531 59.8214 28.9715 59.7985 28.9945C59.7841 29.0083 59.7498 29.0276 59.7154 29.0294C58.9654 29.0709 58.2155 29.1104 57.4684 29.15C57.3567 29.1371 57.3052 29.1187 57.3281 29.0957C57.3424 29.0819 57.3768 29.0626 57.4111 29.0607C57.7833 29.0396 58.1582 29.0202 58.5332 29Z" fill="#FFE492"/>
<path d="M0.62127 34.1136C0.452378 34.1155 0.274935 34.1495 0.0860054 34.1238C0.048792 34.1192 -0.00274832 34.1044 0.000114251 34.0961C0.0058394 34.0823 0.0401959 34.0649 0.0774093 34.0593C0.240576 34.0363 0.443838 34.0336 0.526853 33.9692C0.566929 33.936 0.641356 33.925 0.741546 33.9185C0.847461 33.9112 0.921865 33.9139 1.00488 33.9333C1.11366 33.9581 1.20527 34.0041 1.37703 33.9802C1.38562 33.9949 1.4056 34.0115 1.39702 34.0253C1.38843 34.0391 1.35128 34.052 1.31693 34.0621C1.28544 34.0713 1.24246 34.0796 1.20238 34.0823C1.01345 34.0934 0.824513 34.1026 0.62127 34.1136Z" fill="#FFE492"/>
<path d="M149.477 33.9287C149.617 33.9214 149.763 33.9177 149.9 33.9048C150.009 33.8947 150.078 33.9011 150.164 33.9232C150.31 33.9619 150.318 33.9582 150.676 33.9637C150.716 33.9646 150.765 33.9784 150.788 33.9904C150.802 33.9968 150.782 34.0143 150.765 34.0235C150.739 34.0355 150.702 34.0511 150.668 34.0511C150.441 34.0539 150.212 34.1082 149.992 34.0456C149.88 34.0143 149.757 33.9996 149.606 34.0134C149.514 34.0217 149.417 34.0254 149.322 34.029C149.231 34.0327 149.136 34.0226 149.079 33.995C148.996 33.9545 149.045 33.9389 149.193 33.9416C149.288 33.9435 149.382 33.9333 149.477 33.9287Z" fill="#FFE492"/>
<path d="M201.349 40.2722C201.53 40.263 201.71 40.252 201.893 40.2446C201.93 40.2428 201.976 40.2529 202.011 40.2593C202.148 40.2869 202.128 40.3339 202.134 40.3753C202.136 40.4185 201.819 40.4535 201.684 40.424C201.535 40.3909 201.401 40.3532 201.195 40.3734C201.115 40.3808 201.02 40.3642 200.969 40.3375C200.891 40.2989 200.934 40.2833 201.08 40.286C201.166 40.2879 201.258 40.2777 201.349 40.2722Z" fill="#FFE492"/>
<path d="M110.465 27.7467C110.651 27.7365 110.838 27.7209 111.024 27.72C111.132 27.7191 111.187 27.7494 111.161 27.7715C111.147 27.7853 111.112 27.8046 111.078 27.8065C110.706 27.8286 110.334 27.847 109.962 27.8672C109.853 27.8543 109.798 27.835 109.824 27.8129C109.839 27.7991 109.873 27.7807 109.907 27.778C110.093 27.7651 110.279 27.7568 110.465 27.7467Z" fill="#FFE492"/>
<path d="M197.735 37.2767C197.915 37.2675 198.098 37.2537 198.279 37.2491C198.373 37.2473 198.448 37.2685 198.459 37.2924C198.465 37.3034 198.419 37.3228 198.382 37.3274C198.124 37.3586 197.846 37.3623 197.577 37.378C197.492 37.3826 197.4 37.3678 197.348 37.3421C197.271 37.3025 197.314 37.2878 197.46 37.2906C197.552 37.2915 197.643 37.2813 197.735 37.2767Z" fill="#FFE492"/>
<path d="M154.236 34.0529C154.327 34.0483 154.422 34.0363 154.51 34.04C154.605 34.0446 154.665 34.0713 154.694 34.098C154.725 34.1283 154.722 34.1569 154.694 34.1826C154.648 34.2268 154.602 34.225 154.496 34.1955C154.333 34.1495 154.321 34.155 153.998 34.1569C153.961 34.1569 153.915 34.1431 153.886 34.1311C153.843 34.1127 153.866 34.0842 153.967 34.0676C154.041 34.0556 154.144 34.0575 154.236 34.0529Z" fill="#FFE492"/>
<path d="M191.557 36.9749C191.692 36.9676 191.826 36.9556 191.961 36.9556C192.055 36.9547 192.13 36.9758 192.138 36.9988C192.141 37.0099 192.098 37.0283 192.064 37.0338C191.901 37.0587 191.717 37.0605 191.54 37.0688C191.457 37.0725 191.365 37.0577 191.314 37.032C191.236 36.9933 191.282 36.9758 191.423 36.9814C191.465 36.9832 191.511 36.9777 191.557 36.9749Z" fill="#FFE492"/>
<path d="M169.93 35.8457C169.73 35.8567 169.541 35.8429 169.555 35.819C169.575 35.7877 169.658 35.7675 169.744 35.7619C169.881 35.7527 170.019 35.7454 170.159 35.7398C170.248 35.7362 170.328 35.75 170.399 35.7739C170.356 35.8033 170.291 35.8245 170.205 35.831C170.116 35.8374 170.022 35.8411 169.93 35.8457Z" fill="#FFE492"/>
<path d="M168.629 35.7278C168.763 35.7205 168.898 35.7085 169.032 35.7085C169.127 35.7076 169.201 35.7288 169.21 35.7518C169.213 35.7628 169.17 35.7812 169.135 35.7867C168.972 35.8116 168.789 35.8134 168.612 35.8217C168.529 35.8254 168.437 35.8107 168.385 35.7849C168.308 35.7463 168.354 35.7288 168.494 35.7343C168.537 35.7361 168.583 35.7306 168.629 35.7278Z" fill="#FFE492"/>
<path d="M152.939 34.0459C153.074 34.0386 153.208 34.0266 153.343 34.0257C153.437 34.0247 153.512 34.0459 153.52 34.0689C153.523 34.08 153.48 34.0975 153.446 34.1039C153.283 34.1287 153.1 34.1306 152.922 34.1389C152.839 34.1425 152.748 34.1278 152.696 34.1021C152.619 34.0634 152.665 34.0459 152.805 34.0514C152.848 34.0533 152.894 34.0478 152.939 34.0459Z" fill="#FFE492"/>
<path d="M151.814 33.9912C151.957 33.9838 152.003 33.9792 152.049 33.9792C152.135 33.9792 152.223 33.9903 152.275 34.017C152.352 34.0556 152.306 34.0667 152.166 34.0685C151.986 34.0704 151.808 34.0897 151.628 34.0934C151.533 34.0952 151.459 34.0731 151.453 34.0501C151.45 34.0391 151.493 34.0197 151.528 34.0161C151.648 34.0023 151.78 33.994 151.814 33.9912Z" fill="#FFE492"/>
<path d="M167.555 28.5778C167.464 28.5824 167.366 28.5952 167.281 28.5906C167.166 28.5842 167.12 28.5594 167.149 28.5363C167.166 28.5235 167.198 28.5051 167.232 28.5023C167.415 28.4894 167.601 28.4811 167.784 28.4719C167.893 28.4857 167.942 28.5051 167.913 28.5281C167.896 28.5409 167.865 28.5584 167.83 28.5621C167.741 28.5713 167.647 28.5732 167.555 28.5778Z" fill="#FFE492"/>
<path d="M56.4459 29.1087C56.5347 29.1078 56.6148 29.1197 56.6835 29.1427C56.6405 29.1722 56.5776 29.1915 56.4917 29.1998C56.4488 29.2035 56.4001 29.2062 56.3543 29.2072C56.2656 29.209 56.1854 29.1961 56.1167 29.1731C56.1596 29.1437 56.2255 29.1243 56.3085 29.116C56.3514 29.1124 56.4001 29.1115 56.4459 29.1087Z" fill="#FFE492"/>
<path d="M197.311 37.273C197.308 37.2463 197.482 37.2159 197.64 37.2168C197.723 37.2177 197.809 37.2306 197.857 37.2555C197.932 37.2932 197.889 37.3079 197.748 37.3052C197.663 37.3033 197.571 37.319 197.485 37.3162C197.388 37.3153 197.331 37.295 197.311 37.273Z" fill="#FFE492"/>
<path d="M155.085 34.1642C155.082 34.1541 155.067 34.1421 155.076 34.1329C155.13 34.0823 155.46 34.0667 155.545 34.1108C155.56 34.1191 155.565 34.1329 155.554 34.1412C155.537 34.1541 155.505 34.1707 155.471 34.1743C155.382 34.1835 155.291 34.1881 155.199 34.1891C155.159 34.1891 155.122 34.1734 155.085 34.1642Z" fill="#FFE492"/>
<path d="M2.12314 33.9666C1.78535 33.9859 1.77963 33.9841 1.83974 33.9381C1.89413 33.8966 1.99434 33.8718 2.14033 33.8718C2.18327 33.8718 2.22905 33.87 2.26626 33.8736C2.30634 33.8782 2.36363 33.8874 2.37221 33.8985C2.38939 33.9196 2.34068 33.9426 2.2548 33.9583C2.21759 33.9657 2.16894 33.9638 2.12314 33.9666Z" fill="#FFE492"/>
<path d="M60.6088 28.9789C60.5086 28.9946 60.4227 28.9891 60.3597 28.9596C60.2968 28.9302 60.397 28.8952 60.5716 28.8869C60.6174 28.8851 60.666 28.8777 60.709 28.8814C60.7519 28.8841 60.7949 28.8952 60.8206 28.9062C60.8665 28.9246 60.8378 28.9495 60.7462 28.9706C60.709 28.9789 60.6546 28.9771 60.6088 28.9789Z" fill="#FFE492"/>
<path d="M196.713 37.2037C196.738 37.1917 196.764 37.1797 196.793 37.1687C196.899 37.1843 196.944 37.2027 196.916 37.2239C196.899 37.2368 196.864 37.2478 196.838 37.2598C196.733 37.2442 196.69 37.2248 196.713 37.2037Z" fill="#FFE492"/>
<path d="M6.63721 44.4421C6.63721 44.431 6.67728 44.4135 6.70877 44.4098C6.76889 44.4034 6.84328 44.4163 6.89481 44.4421C6.96637 44.4789 6.92348 44.4982 6.7918 44.4881C6.70019 44.4807 6.63721 44.4623 6.63721 44.4421Z" fill="#FFE492"/>
<path d="M156.454 33.3078C156.491 33.316 156.528 33.3243 156.563 33.3335C156.514 33.3676 156.454 33.3823 156.391 33.3731C156.351 33.3676 156.317 33.3565 156.279 33.3482C156.328 33.3142 156.385 33.3013 156.454 33.3078Z" fill="#FFE492"/>
<path d="M155.753 33.2663C155.81 33.2525 155.879 33.2599 155.959 33.2866C155.933 33.2986 155.91 33.3124 155.879 33.3216C155.824 33.3363 155.753 33.3289 155.675 33.3013C155.698 33.2903 155.724 33.2783 155.753 33.2663Z" fill="#FFE492"/>
<path d="M154.645 33.3066C154.682 33.3149 154.719 33.3232 154.754 33.3324C154.705 33.3664 154.648 33.3811 154.582 33.3719C154.542 33.3664 154.507 33.3554 154.47 33.3471C154.519 33.313 154.576 33.2993 154.645 33.3066Z" fill="#FFE492"/>
<path d="M154.061 33.2577C154.103 33.2761 154.081 33.2982 153.998 33.323C153.96 33.3148 153.917 33.3083 153.889 33.2973C153.843 33.2798 153.866 33.2568 153.952 33.2319C153.986 33.2411 154.023 33.2494 154.061 33.2577Z" fill="#FFE492"/>
</svg>
