<svg width="235" height="39" viewBox="0 0 235 39" fill="none" xmlns="http://www.w3.org/2000/svg">
<path d="M219.175 19.7732C218.856 19.8067 218.534 19.8305 218.221 19.8795C218.018 19.9102 217.93 19.8252 217.795 19.7814C217.749 19.7662 217.701 19.7354 217.659 19.7396C217.343 19.773 217.027 19.8104 216.711 19.8477C216.615 19.9243 216.555 20.026 216.406 20.0641C216.262 20.1002 216.091 20.1014 215.929 20.1201C215.717 20.1431 215.504 20.166 215.291 20.1871C215.185 20.1976 215.098 20.2352 215.063 20.3055C215.057 20.3173 215.128 20.3459 215.167 20.3632C215.296 20.4206 215.422 20.4859 215.565 20.5296C215.7 20.5714 215.868 20.5001 216.013 20.5536C216.34 20.6738 216.343 20.6718 216.591 20.6467C216.804 20.6237 217.017 20.5988 217.229 20.5817C217.271 20.5775 217.32 20.6063 217.365 20.6216C217.501 20.6634 217.589 20.7601 217.788 20.7216C217.94 20.6913 218.107 20.6843 218.265 20.6675C218.398 20.723 218.521 20.7863 218.663 20.8301C218.796 20.8719 218.835 20.9048 218.764 20.9617C218.7 21.0147 218.61 21.0368 218.49 21.0416C218.384 21.0443 218.278 21.0626 218.171 21.0731C218.117 21.0793 218.065 21.0836 218.013 21.0898C217.81 21.1127 217.81 21.1127 217.439 20.9909C217.293 20.9433 217.129 21.0126 216.99 20.9669C216.896 20.9364 216.815 20.8903 216.725 20.8579C216.686 20.8445 216.625 20.843 216.576 20.8473C216.415 20.8621 216.254 20.873 216.099 20.8994C215.99 20.9178 215.926 20.9727 215.939 21.0271C215.943 21.0485 216.02 21.0791 216.065 21.0807C216.169 21.0839 216.278 21.0558 216.378 21.0687C216.475 21.0816 216.575 21.1198 216.646 21.1621C216.792 21.2506 216.956 21.1696 217.095 21.1919C217.24 21.2162 217.36 21.2932 217.499 21.3389C217.535 21.3503 217.602 21.3303 217.657 21.3241C217.815 21.3093 217.973 21.2965 218.131 21.2817C218.264 21.3372 218.406 21.3867 218.526 21.4501C218.743 21.5653 218.975 21.6084 219.255 21.5499C219.413 21.5176 219.568 21.5281 219.694 21.6031C219.824 21.68 219.972 21.6712 220.137 21.6544C220.288 21.6377 220.443 21.5938 220.598 21.6471C220.934 21.7653 220.937 21.7712 221.334 21.7216C221.453 21.7071 221.543 21.7025 221.634 21.7466C221.718 21.7869 221.808 21.8213 221.896 21.8595C222.054 21.8448 222.215 21.83 222.373 21.8132C222.576 21.7903 222.689 21.8168 222.738 21.9254C222.768 21.9914 222.781 22.0516 222.852 22.0959C222.936 22.1498 223.027 22.1471 223.149 22.1307C223.265 22.1162 223.349 22.0942 223.397 22.0238C223.416 21.9944 223.454 21.9669 223.49 21.9433C223.519 21.9255 223.564 21.898 223.589 21.9017C223.638 21.9091 223.703 21.93 223.719 21.9552C223.879 22.1896 223.879 22.1915 224.04 22.2585C224.218 22.3331 224.403 22.3999 224.564 22.4843C224.71 22.5592 224.855 22.5251 225.013 22.5239C225.132 22.523 225.21 22.5731 225.201 22.6237C225.195 22.653 225.15 22.6961 225.111 22.7003C224.795 22.7415 224.476 22.777 224.157 22.8066C224.118 22.8107 224.07 22.776 224.025 22.7589C223.934 22.7245 223.853 22.6706 223.756 22.6596C223.659 22.6486 223.547 22.6786 223.44 22.6892C223.334 22.6997 223.221 22.7258 223.124 22.7109C223.027 22.6961 222.95 22.6402 222.859 22.6039C222.817 22.5867 222.759 22.5618 222.723 22.5679C222.488 22.6163 222.314 22.5534 222.145 22.4689C222.11 22.4517 222.048 22.4405 222.003 22.4447C221.629 22.4805 221.259 22.5221 220.885 22.5618C220.733 22.5785 220.61 22.5113 220.577 22.3967C220.561 22.3326 220.528 22.2686 220.527 22.2043C220.527 22.0876 220.349 22.0246 220.22 22.0392C220.007 22.0602 219.791 22.0774 219.582 22.1081C219.411 22.1327 219.266 22.1104 219.149 22.0412C219.013 21.9624 218.858 21.9791 218.704 22.0016C218.588 22.018 218.556 22.0825 218.563 22.244C218.571 22.3744 218.516 22.4157 218.307 22.4386C218.043 22.4678 217.775 22.497 217.507 22.5204C217.466 22.5246 217.417 22.4918 217.375 22.4746C217.284 22.4402 217.203 22.3844 217.107 22.3734C217.01 22.3605 216.897 22.3905 216.791 22.403C216.684 22.4135 216.572 22.4415 216.475 22.4286C216.378 22.4157 216.297 22.3579 216.209 22.3216C216.167 22.3044 216.116 22.2794 216.074 22.2836C215.861 22.3007 215.648 22.3257 215.436 22.3486C215.197 22.3737 215.197 22.3737 214.858 22.2555C214.702 22.2022 214.548 22.2461 214.396 22.2628C214.235 22.2796 214.084 22.2884 213.957 22.2115C213.873 22.1615 213.779 22.1311 213.68 22.1415C213.412 22.1668 213.148 22.198 212.88 22.2233C212.835 22.2275 212.774 22.2182 212.738 22.201C212.567 22.1205 212.398 22.0574 212.16 22.1001C211.954 22.1366 211.731 22.1402 211.525 22.1748C211.412 22.1931 211.361 22.2558 211.384 22.3043C211.397 22.3295 211.465 22.3582 211.51 22.3579C211.614 22.3591 211.726 22.329 211.823 22.34C212.023 22.3619 212.124 22.5247 212.385 22.478C212.54 22.4496 212.701 22.4387 212.862 22.4297C212.904 22.4275 212.95 22.4641 212.995 22.4833C213.124 22.5349 213.238 22.6022 213.424 22.5658C213.579 22.5374 213.744 22.5284 213.901 22.5117C214.153 22.4845 214.153 22.4865 214.479 22.6028C214.635 22.6582 214.789 22.6123 214.941 22.5975C215.053 22.587 215.16 22.5667 215.25 22.5933C215.389 22.6332 215.49 22.7259 215.661 22.7188C215.822 22.7118 215.98 22.6834 216.141 22.6724C216.241 22.6659 216.335 22.6963 216.416 22.7483C216.5 22.8002 216.59 22.8229 216.7 22.8104C216.858 22.7937 217.019 22.7731 217.18 22.7622C217.225 22.7599 217.277 22.777 217.319 22.7923C217.41 22.8267 217.497 22.8669 217.584 22.9033C217.742 22.8904 217.904 22.8854 218.058 22.8609C218.177 22.8425 218.261 22.8497 218.358 22.8879C218.481 22.9395 218.582 23.0322 218.782 22.986C218.881 22.9639 218.998 22.9689 219.097 22.9487C219.22 22.9225 219.304 22.9316 219.391 22.9893C219.557 23.0991 219.763 23.0995 219.976 23.0551C220.207 23.0067 220.382 23.06 220.557 23.1443C220.741 23.2325 220.741 23.2306 220.885 23.4456C220.927 23.5076 221.046 23.5359 221.146 23.5235C221.314 23.5028 221.459 23.5115 221.582 23.5845C221.712 23.6634 221.867 23.6525 222.024 23.63C222.234 23.5992 222.443 23.5724 222.615 23.6841C222.699 23.7379 222.79 23.7509 222.903 23.7364C223.222 23.6991 223.544 23.6753 223.857 23.6302C224.047 23.6016 224.157 23.663 224.286 23.7147C224.461 23.7854 224.651 23.8482 224.653 24.002C224.653 24.0273 224.698 24.0562 224.737 24.0754C224.821 24.1156 224.912 24.15 224.999 24.1883C225.128 24.2457 225.255 24.2935 225.432 24.261C225.586 24.2346 225.751 24.2256 225.909 24.207C226.067 24.1883 226.212 24.1775 226.354 24.2504C226.519 24.3329 226.694 24.4114 226.881 24.4724C227.014 24.5162 227.188 24.439 227.33 24.4983C227.417 24.5346 227.501 24.5768 227.595 24.6073C227.634 24.6206 227.695 24.6105 227.747 24.6062C227.853 24.5976 227.963 24.591 228.066 24.5708C228.185 24.5485 228.275 24.5517 228.366 24.5958C228.45 24.6361 228.534 24.6919 228.631 24.7029C228.776 24.7193 228.937 24.6403 229.083 24.7288C229.157 24.773 229.251 24.8152 229.348 24.8281C229.445 24.841 229.558 24.811 229.661 24.8122C229.706 24.8118 229.761 24.8426 229.787 24.8677C229.803 24.8812 229.781 24.9183 229.759 24.938C229.73 24.9615 229.688 24.993 229.646 24.9972C229.327 25.0346 229.008 25.0661 228.689 25.1015C228.499 25.1224 228.499 25.1224 228.114 25.0026C228.024 24.974 227.924 24.9806 227.811 24.995C227.659 25.0137 227.505 25.0479 227.346 25.014C227.139 24.8832 226.884 24.8733 226.614 24.9259C226.501 24.9481 226.398 24.9489 226.314 24.9125C226.136 24.8399 225.948 24.7731 225.79 24.6867C225.666 24.6195 225.608 24.614 225.557 24.7078C225.542 24.7372 225.526 24.7684 225.529 24.7956C225.549 24.8928 225.585 24.9879 225.605 25.0851C225.612 25.1123 225.586 25.1437 225.57 25.173C225.519 25.2551 225.452 25.2498 225.338 25.1825C225.225 25.1152 225.089 25.0714 224.909 25.1039C224.754 25.1322 224.586 25.1296 224.432 25.1599C224.193 25.2045 224.025 25.1434 223.854 25.061C223.818 25.0437 223.757 25.0344 223.712 25.0386C223.231 25.0869 222.754 25.141 222.274 25.1893C222.171 25.1998 222.077 25.1713 221.996 25.1193C221.912 25.0674 221.818 25.0408 221.715 25.0513C221.29 25.0953 220.864 25.1354 220.439 25.1891C220.265 25.2118 220.126 25.1875 220.006 25.1202C219.916 25.0703 219.832 25.0553 219.719 25.062C219.596 25.0687 219.509 25.0888 219.448 25.1457C219.391 25.2006 219.433 25.2334 219.562 25.2753C219.701 25.321 219.831 25.3804 219.963 25.4339C220.07 25.4254 220.176 25.409 220.279 25.4102C220.324 25.4099 220.367 25.4446 220.412 25.4637C220.541 25.5192 220.661 25.5748 220.845 25.5423C220.999 25.514 221.164 25.5069 221.322 25.4882C221.541 25.4652 221.541 25.4652 221.896 25.5853C221.987 25.6157 222.084 25.6131 222.2 25.5947C222.299 25.5804 222.403 25.6068 222.474 25.6647C222.503 25.6879 222.494 25.7269 222.434 25.8558C222.434 25.9512 222.502 25.9079 222.524 25.8454C222.559 25.7556 222.491 25.7269 222.362 25.7765C222.272 25.8122 222.227 25.8631 222.25 25.9039C222.263 25.9252 222.325 25.952 222.434 25.8558C222.717 25.7369 222.933 25.7217 223.139 25.6891C223.261 25.6707 223.339 25.6779 223.436 25.7278C223.552 25.7873 223.669 25.8507 223.859 25.8181C224.065 25.7816 224.284 25.7761 224.494 25.7453C224.687 25.7167 224.788 25.8016 224.911 25.8513C225.06 25.9106 225.224 25.8412 225.359 25.8753C225.501 25.9093 225.602 25.9942 225.767 26.0086C226.005 25.9543 226.157 26.0505 226.338 26.1134C226.48 26.161 226.648 26.117 226.799 26.0944C226.97 26.0698 227.112 26.0902 227.232 26.1594C227.368 26.2382 227.52 26.2196 227.674 26.201C228.035 26.1594 228.048 26.1534 228.258 26.259C228.41 26.3357 228.555 26.2996 228.707 26.2888C228.84 26.3404 228.969 26.3959 229.108 26.4416C229.144 26.453 229.211 26.433 229.266 26.4268C229.424 26.4101 229.585 26.3933 229.743 26.3766C229.849 26.3661 229.962 26.3361 230.059 26.347C230.156 26.3599 230.237 26.4158 230.324 26.4522C230.411 26.4885 230.502 26.5248 230.586 26.5631C230.715 26.6206 230.838 26.6684 231.019 26.6378C231.173 26.6114 231.335 26.6024 231.496 26.5837C231.699 26.5608 231.692 26.5667 232.071 26.6808C232.274 26.7435 232.483 26.6641 232.69 26.6548C232.793 26.6502 232.893 26.6709 232.964 26.7268C232.993 26.7499 232.984 26.7889 232.994 26.822C232.462 26.8784 231.927 26.9271 231.402 26.9952C231.199 27.0219 231.092 26.9526 230.982 26.895C230.801 26.8029 230.563 26.9409 230.391 26.8215C230.287 26.7502 230.139 26.7105 229.962 26.7468C229.859 26.767 229.749 26.7659 229.643 26.7842C229.372 26.829 229.124 26.8327 228.907 26.7C228.832 26.6538 228.725 26.6293 228.648 26.5851C228.557 26.5371 228.47 26.5105 228.363 26.521C227.883 26.5712 227.406 26.6214 226.929 26.6755C226.887 26.6797 226.846 26.7092 226.81 26.7309C226.72 26.786 226.75 26.8287 226.895 26.8626C226.944 26.874 226.982 26.899 227.028 26.9181C227.115 26.9545 227.196 27.0123 227.293 27.0252C227.39 27.0381 227.503 27.01 227.609 26.9995C227.715 26.989 227.828 26.959 227.925 26.97C228.022 26.9829 228.103 27.0387 228.193 27.0731C228.235 27.0903 228.287 27.1191 228.329 27.1169C228.542 27.1037 228.751 27.0807 228.964 27.0616C229.097 27.1132 229.21 27.1883 229.368 27.2047C229.468 27.2156 229.575 27.1934 229.678 27.1966C229.723 27.1982 229.781 27.227 229.804 27.2521C229.817 27.2676 229.775 27.3068 229.743 27.3265C229.621 27.4014 229.453 27.389 229.302 27.4134C229.138 27.4399 228.989 27.4333 228.863 27.3583C228.779 27.3083 228.685 27.2817 228.582 27.2922C228.314 27.3194 228.05 27.3506 227.782 27.3739C227.737 27.3782 227.682 27.3611 227.64 27.3477C227.301 27.2315 227.301 27.2276 227.062 27.2546C226.711 27.2942 226.711 27.2942 226.475 27.1927C226.43 27.1736 226.381 27.137 226.342 27.1392C225.968 27.1731 225.598 27.2069 225.227 27.2544C225.105 27.2689 225.021 27.2696 224.93 27.2196C224.852 27.1773 224.762 27.1293 224.665 27.1184C224.565 27.1074 224.455 27.1374 224.349 27.1479C224.243 27.1584 224.13 27.1846 224.036 27.1697C223.939 27.1548 223.855 27.1009 223.771 27.0626C223.684 27.0224 223.59 27.025 223.471 27.0414C223.104 27.0889 223.1 27.0831 222.735 26.9651C222.693 26.9518 222.638 26.9366 222.593 26.9408C222.325 26.9661 222.061 26.9973 221.794 27.0226C221.691 27.0331 221.59 27.0085 221.519 26.9526C221.49 26.9294 221.499 26.8904 221.479 26.8146C221.457 26.7973 221.483 26.8282 221.489 26.8574C221.538 26.8531 221.596 26.8566 221.631 26.8408C221.721 26.8031 221.766 26.7541 221.743 26.7134C221.73 26.6921 221.669 26.6653 221.63 26.6656C221.559 26.6661 221.498 26.7094 221.479 26.8146C221.277 26.8803 221.061 26.8956 220.851 26.9282C220.729 26.9486 220.651 26.9394 220.554 26.8895C220.438 26.8281 220.318 26.7686 220.128 26.8011C219.922 26.8377 219.702 26.8452 219.49 26.874C219.245 26.9069 219.137 26.7325 218.931 26.7379C218.718 26.7433 218.505 26.778 218.293 26.8029C218.106 26.8237 218.106 26.8237 217.718 26.7C217.575 26.6543 217.408 26.7237 217.269 26.676C217.175 26.6456 217.094 26.5995 217.004 26.567C216.965 26.5537 216.904 26.5541 216.856 26.5584C216.588 26.5837 216.317 26.6013 216.059 26.646C215.766 26.6987 215.543 26.6459 215.333 26.5325C215.069 26.5559 214.801 26.5695 214.54 26.6084C214.35 26.6371 214.24 26.5736 214.11 26.522C214.065 26.5048 214.026 26.4759 213.978 26.4685C213.929 26.461 213.871 26.477 213.82 26.4833C213.607 26.5062 213.388 26.5176 213.182 26.5541C212.927 26.6007 212.829 26.4418 212.632 26.4238C212.501 26.5201 212.431 26.6511 212.17 26.6627C211.957 26.6721 211.744 26.7048 211.532 26.7277C211.425 26.7382 211.319 26.7507 211.213 26.7612C211.042 26.78 210.962 26.8565 210.998 26.973C211.018 27.0371 211.034 27.1012 211.051 27.1653C211.084 27.2799 211.004 27.3779 210.869 27.3925C210.495 27.4322 210.124 27.4738 209.75 27.5096C209.65 27.5201 209.553 27.4877 209.472 27.4358C209.388 27.3838 209.294 27.3611 209.191 27.3716C208.817 27.4113 208.447 27.453 208.073 27.4888C208.031 27.493 207.976 27.474 207.934 27.4587C207.843 27.4243 207.756 27.3841 207.669 27.3477C207.456 27.3668 207.246 27.38 207.037 27.4049C206.699 27.4424 206.699 27.4444 206.449 27.3391C206.404 27.32 206.359 27.2833 206.317 27.2856C206.156 27.2946 205.998 27.3152 205.837 27.3339C205.363 27.3879 205.363 27.3879 205.224 27.3306C205.098 27.277 204.984 27.2116 204.794 27.2442C204.588 27.2807 204.369 27.294 204.156 27.315C203.998 27.3298 203.84 27.3465 203.682 27.3516C203.64 27.3538 203.595 27.3172 203.55 27.298C203.42 27.2386 203.294 27.1909 203.117 27.2253C203.014 27.2455 202.904 27.2502 202.798 27.2607C202.521 27.29 202.521 27.29 202.065 27.1765C202.02 27.1652 201.965 27.1519 201.92 27.1581C201.546 27.1959 201.175 27.2375 200.801 27.2734C200.756 27.2776 200.701 27.2663 200.656 27.2569C200.146 27.1477 200.146 27.1477 199.604 27.2062C199.398 27.2272 199.392 27.235 199.175 27.1334C199.078 27.0893 198.997 27.0685 198.884 27.083C198.459 27.1328 198.03 27.1671 197.608 27.2247C197.418 27.2494 197.308 27.1918 197.178 27.1402C197.133 27.123 197.084 27.0845 197.046 27.0867C196.62 27.1268 196.195 27.1747 195.769 27.2148C195.731 27.2189 195.682 27.1804 195.637 27.1632C195.549 27.1288 195.465 27.0768 195.368 27.0659C195.268 27.0549 195.159 27.0849 195.049 27.0954C194.782 27.1227 194.782 27.1208 194.471 27.0082C194.429 26.9929 194.374 26.9719 194.332 26.9761C193.907 27.0181 193.478 27.0544 193.056 27.1139C192.814 27.1468 192.649 27.0916 192.478 27.0111C192.442 26.9938 192.381 26.9865 192.336 26.9907C191.856 27.039 191.379 27.0931 190.898 27.1413C190.799 27.1518 190.701 27.1194 190.621 27.0694C190.491 26.9905 190.339 27.0014 190.178 27.0201C189.808 27.0637 189.804 27.0618 189.584 26.9699C189.539 26.9508 189.5 26.9258 189.452 26.9164C189.407 26.907 189.349 26.9133 189.3 26.9175C189.088 26.9385 188.875 26.9615 188.662 26.9844C188.449 27.0074 188.233 27.0207 188.024 27.0553C187.766 27.0981 187.643 26.9724 187.462 26.9154C187.197 26.9426 186.927 26.9602 186.666 27.0029C186.466 27.0355 186.372 26.9506 186.239 26.9068C186.194 26.8915 186.145 26.8588 186.103 26.863C185.623 26.9093 185.143 26.9596 184.666 27.0156C184.55 27.0281 184.473 27.0131 184.375 26.9671C184.159 26.8636 184.149 26.8676 183.788 26.9091C183.63 26.9278 183.479 26.9445 183.343 26.8657C183.223 26.7945 183.078 26.7781 182.907 26.8027C182.697 26.8334 182.481 26.8506 182.269 26.8716C182.056 26.8945 181.843 26.9253 181.63 26.9366C181.46 26.9476 181.356 26.8568 181.22 26.8111C181.178 26.7978 181.12 26.7963 181.071 26.8005C180.859 26.8196 180.64 26.8348 180.433 26.8694C180.182 26.9121 180.043 26.8061 179.865 26.7451C179.826 26.7318 179.761 26.74 179.713 26.7462C179.339 26.784 178.969 26.8256 178.595 26.8653C178.462 26.8137 178.326 26.7641 178.194 26.7126C177.981 26.7336 177.768 26.7565 177.556 26.7775C177.394 26.7943 177.23 26.8013 177.079 26.8316C176.882 26.872 176.785 26.7812 176.652 26.7374C176.607 26.7222 176.558 26.6895 176.516 26.6937C176.249 26.717 175.981 26.7423 175.717 26.7774C175.466 26.8123 175.365 26.6378 175.158 26.6413C174.945 26.6448 174.726 26.6717 174.52 26.7083C174.282 26.7509 174.113 26.6898 173.942 26.6074C173.906 26.5901 173.845 26.5808 173.8 26.585C173.532 26.6104 173.268 26.6415 173.001 26.6668C172.955 26.671 172.901 26.6617 172.855 26.6504C172.345 26.5392 172.345 26.5373 172.123 26.5623C171.965 26.579 171.804 26.5996 171.642 26.6106C171.597 26.6148 171.542 26.5977 171.5 26.5824C171.164 26.4661 171.164 26.4642 170.922 26.4893C170.709 26.5123 170.497 26.5352 170.284 26.5582C170.151 26.5066 170.016 26.457 169.883 26.4054C169.619 26.4326 169.348 26.4541 169.087 26.491C168.964 26.5075 168.884 26.5022 168.79 26.4543C168.673 26.3967 168.557 26.3294 168.364 26.3639C168.157 26.4005 167.938 26.406 167.729 26.4367C167.477 26.4736 167.373 26.2972 167.17 26.3007C166.957 26.3042 166.738 26.3311 166.532 26.3676C166.293 26.4102 166.125 26.3492 165.953 26.2667C165.918 26.2495 165.857 26.2402 165.811 26.2444C165.225 26.3051 164.641 26.3658 164.055 26.4305C163.694 26.4701 163.694 26.472 163.006 26.37C162.958 26.3626 162.906 26.3552 162.858 26.3594C162.645 26.3785 162.426 26.3937 162.22 26.4283C161.968 26.471 161.829 26.3669 161.651 26.304C161.612 26.2907 161.551 26.2989 161.499 26.3032C161.338 26.318 161.18 26.3367 161.019 26.3534C160.807 26.3764 160.594 26.3993 160.381 26.4223C160.249 26.3727 160.113 26.3211 159.98 26.2714C159.716 26.2987 159.445 26.3143 159.184 26.3571C158.984 26.3897 158.89 26.3086 158.758 26.2629C158.712 26.2476 158.664 26.2149 158.622 26.2171C158.142 26.2635 157.661 26.3118 157.184 26.3697C156.988 26.3945 156.897 26.3076 156.764 26.2638C156.719 26.2505 156.667 26.2256 156.625 26.2298C156.306 26.2594 155.987 26.2948 155.668 26.3302C155.488 26.351 155.488 26.351 155.093 26.2332C155.048 26.2199 154.996 26.2067 154.951 26.2109C153.939 26.3156 152.93 26.4262 151.918 26.5309C151.815 26.5414 151.722 26.5129 151.641 26.4609C151.556 26.4089 151.463 26.3824 151.359 26.3929C150.934 26.4369 150.505 26.477 150.083 26.5307C149.909 26.5534 149.77 26.529 149.65 26.4618C149.56 26.4118 149.476 26.393 149.363 26.4055C149.15 26.4304 148.938 26.4514 148.725 26.4744C148.512 26.4974 148.299 26.5204 148.087 26.5433C147.874 26.5663 147.658 26.5795 147.449 26.6142C147.191 26.6569 147.064 26.5372 146.886 26.4781C146.567 26.5097 146.248 26.5412 145.932 26.5746C145.507 26.6186 145.082 26.6665 144.656 26.7085C144.617 26.7127 144.569 26.678 144.524 26.6609C144.391 26.6132 144.294 26.5457 144.097 26.5686C143.143 26.6787 142.183 26.7733 141.226 26.8816C141.026 26.9044 140.938 26.8214 140.802 26.7776C140.757 26.7643 140.705 26.7374 140.663 26.7416C140.132 26.7942 139.6 26.8526 139.068 26.909C138.852 26.932 138.852 26.932 138.49 26.814C138.448 26.8006 138.393 26.7835 138.348 26.7877C137.655 26.859 136.965 26.9341 136.272 27.0073C136.169 27.0178 136.075 26.9912 135.991 26.9393C135.91 26.8873 135.813 26.8588 135.713 26.8693C135.075 26.9363 134.434 27.0013 133.799 27.0741C133.628 27.0948 133.486 27.0783 133.363 27.0091C133.275 26.9591 133.188 26.9384 133.079 26.9508C132.121 27.0532 131.164 27.1517 130.207 27.2599C130.023 27.2808 129.894 27.2447 129.777 27.1813C129.684 27.1314 129.603 27.1222 129.487 27.1309C129.364 27.1415 129.29 27.1635 129.223 27.2223C129.136 27.2989 129.082 27.3947 128.876 27.402C128.663 27.4094 128.447 27.4344 128.238 27.469C128.038 27.5035 127.944 27.4166 127.818 27.365C127.724 27.3287 127.637 27.3235 127.518 27.3419C127.408 27.3583 127.341 27.3918 127.277 27.4546C127.136 27.588 127.123 27.5881 126.948 27.5057C126.854 27.4616 126.77 27.4271 126.667 27.4357C126.241 27.4777 125.816 27.5237 125.39 27.5715C125.146 27.5986 125.142 27.6026 124.958 27.5066C124.867 27.4586 124.78 27.4359 124.674 27.4483C123.504 27.5737 122.334 27.6951 121.164 27.8263C120.983 27.8471 120.86 27.8071 120.731 27.7497C120.689 27.7305 120.647 27.7035 120.598 27.6961C120.55 27.6887 120.495 27.6969 120.444 27.7011C119.593 27.7911 118.739 27.8771 117.891 27.9768C117.698 27.9996 117.594 27.9381 117.462 27.8884C117.416 27.8712 117.377 27.8443 117.329 27.8368C117.28 27.8313 117.222 27.8454 117.171 27.8516C116.32 27.9415 115.466 28.0276 114.618 28.1272C114.415 28.1501 114.328 28.069 114.195 28.0271C114.15 28.0119 114.101 27.983 114.059 27.9872C113.792 28.0106 113.528 28.0417 113.26 28.069C112.622 28.1379 111.984 28.2029 111.346 28.2738C111.101 28.3009 110.993 28.1284 110.787 28.1377C110.519 28.1494 110.255 28.1902 109.987 28.2194C109.775 28.2424 109.562 28.2635 109.349 28.2884C109.14 28.3113 109.14 28.3113 108.616 28.2022C108.571 28.1928 108.516 28.1796 108.471 28.1838C107.727 28.2613 106.979 28.3388 106.238 28.4221C106.067 28.4408 105.925 28.4321 105.802 28.361C105.714 28.311 105.624 28.2864 105.518 28.2988C104.399 28.418 103.284 28.5371 102.166 28.6543C102.124 28.6585 102.069 28.6394 102.027 28.6241C101.936 28.5898 101.849 28.5495 101.761 28.5132C101.697 28.5584 101.614 28.5999 101.572 28.6508C101.515 28.7194 101.437 28.7394 101.315 28.752C101.192 28.7645 101.115 28.7612 101.018 28.7113C100.901 28.6499 100.782 28.6021 100.591 28.6229C99.4215 28.7541 98.2515 28.8736 97.0816 29.0029C96.8882 29.0238 96.7974 28.9388 96.6616 28.895C96.6163 28.8817 96.5645 28.8607 96.5226 28.8649C96.0424 28.9132 95.5654 28.9653 95.0852 29.0155C93.7541 29.1576 92.423 29.2939 91.0952 29.4437C90.8535 29.4708 90.6886 29.4233 90.5171 29.3409C90.4815 29.3236 90.4202 29.3144 90.3751 29.3186C88.5122 29.5152 86.6493 29.7137 84.7896 29.9122C84.6897 29.9227 84.5927 29.8923 84.5117 29.8422C84.4275 29.7903 84.3338 29.7657 84.2307 29.7762C83.3798 29.8661 82.529 29.956 81.6781 30.0479C81.4654 30.0709 81.4621 30.0728 81.2422 29.981C81.1969 29.9618 81.1483 29.9252 81.1128 29.9294C81.0387 29.9397 80.9681 29.9888 80.9169 30.0554C80.8658 30.1258 80.7853 30.1459 80.6661 30.1604C80.5436 30.1749 80.463 30.1697 80.3691 30.1236C80.2494 30.0661 80.1393 30.0105 79.9459 30.0313C77.4997 30.2984 75.0535 30.5557 72.6073 30.8208C72.4107 30.8417 72.3198 30.7606 72.184 30.7168C72.1387 30.7035 72.0935 30.6844 72.0451 30.6808C71.9934 30.6773 71.9387 30.6894 71.8871 30.6956C67.8971 31.12 63.9071 31.5462 59.9171 31.9705C59.6785 31.9956 59.6818 31.9956 59.4218 32.1766C59.3897 32.1983 59.3479 32.2277 59.3028 32.232C58.0813 32.3655 56.8566 32.4951 55.6319 32.6248C55.1001 32.6812 54.5683 32.7396 54.0365 32.7941C53.8464 32.813 53.8464 32.813 53.3931 33.0266C53.3545 33.0444 53.3095 33.068 53.2643 33.0723C51.1372 33.3 49.01 33.5277 46.8796 33.7516C46.712 33.7684 46.5768 33.8044 46.5001 33.8984C46.4457 33.965 46.3751 34.0044 46.2687 34.0169C44.7797 34.1757 43.2907 34.3365 41.7985 34.4914C41.6212 34.5102 41.5151 34.5655 41.4286 34.6479C41.3998 34.6754 41.3742 34.7067 41.3324 34.7264C41.2938 34.7443 41.2358 34.7505 41.1875 34.7567C39.9112 34.8926 38.6349 35.0323 37.3554 35.1624C37.1652 35.1813 37.0883 35.2539 36.9953 35.3305C36.9632 35.356 36.9409 35.3912 36.8991 35.409C36.8572 35.4249 36.796 35.4253 36.7444 35.4296C35.6808 35.5425 34.6173 35.6573 33.5537 35.7702C33.3472 35.762 33.3028 35.8752 33.2033 35.9441C33.168 35.9677 33.1425 35.999 33.1007 36.0149C33.0556 36.0308 32.9975 36.0293 32.9427 36.0336C32.0918 36.1235 31.241 36.2193 30.3869 36.3034C30.1903 36.3223 30.1522 36.4219 30.0463 36.4908C30.011 36.5125 29.9758 36.5458 29.9339 36.552C29.4021 36.6123 28.8703 36.6687 28.3385 36.7232C28.1613 36.742 28.1613 36.7401 27.8498 36.9351C27.8144 36.9568 27.7726 36.9804 27.7275 36.9866C26.9315 37.0742 26.1322 37.1579 25.3329 37.2435C25.2298 37.254 25.1591 37.3013 25.108 37.3678C25.0569 37.4344 24.983 37.4777 24.8799 37.4882C24.2417 37.5571 23.6035 37.628 22.9654 37.691C22.7881 37.7079 22.6724 37.7574 22.5956 37.8456C22.538 37.9122 22.4673 37.9458 22.3545 37.9583C21.7163 38.0252 21.0782 38.098 20.4368 38.1572C20.2498 38.1742 20.1535 38.241 20.0767 38.3234C20.0158 38.39 19.945 38.4139 19.8258 38.4264C18.6558 38.5479 17.4827 38.6693 16.316 38.8024C16.1194 38.8253 16.019 38.7579 15.8896 38.7102C15.7053 38.6434 15.5339 38.5707 15.5328 38.4189C15.5326 38.3955 15.4776 38.3687 15.4388 38.3495C15.1507 38.2056 15.1507 38.2056 15.1044 38.0502C15.078 37.955 15.0482 37.8579 15.025 37.7608C14.9819 37.6015 14.8784 37.5613 14.5819 37.5927C14.4755 37.6032 14.3692 37.6176 14.2628 37.6262C14.1049 37.6409 13.9851 37.5776 13.9552 37.461C13.9387 37.3969 13.9189 37.3328 13.9023 37.2687C14.0634 37.2519 14.0602 37.25 14.3423 37.0124C14.461 36.9123 14.461 36.9123 14.2313 36.8147C14.144 36.7783 14.0598 36.7381 13.966 36.7037C13.924 36.6884 13.8691 36.6791 13.824 36.6833C13.5565 36.7087 13.2922 36.7378 13.0279 36.767C12.6025 36.813 12.6024 36.813 12.1688 36.6176C12.1333 36.6023 12.0782 36.5735 12.0846 36.5579C12.1195 36.4856 12.2064 36.4538 12.316 36.4452C12.4772 36.4323 12.6351 36.4117 12.793 36.395C12.8993 36.3845 13.0057 36.372 13.1121 36.3615C13.2115 36.2868 13.3143 36.2141 13.4073 36.1375C13.5548 36.0196 13.5547 36.0157 13.351 35.9354C13.2216 35.8819 13.0825 35.8342 12.9499 35.7846C12.792 35.8013 12.6309 35.82 12.4729 35.8348C12.2731 35.8538 12.1922 35.8174 12.1397 35.6912C12.0938 35.5806 12.1479 35.4848 12.3026 35.4603C12.4604 35.4358 12.6088 35.4192 12.6887 35.3193C12.7654 35.2234 12.9006 35.1854 13.0683 35.1764C13.1746 35.1698 13.281 35.1554 13.3873 35.1429C13.5259 35.1263 13.5994 35.0265 13.5696 34.9158C13.553 34.8439 13.5203 34.7838 13.3944 34.7691C12.8359 34.7051 12.8295 34.7071 12.5511 34.5767C12.5253 34.5652 12.5057 34.5304 12.5153 34.5128C12.5312 34.4835 12.5664 34.4404 12.605 34.4342C12.9756 34.3887 13.3462 34.3471 13.7169 34.3152C13.8394 34.3045 13.9296 34.2902 13.9711 34.2179C14.0284 34.1182 14.002 34.0269 13.8886 33.9596C13.853 33.9385 13.7947 33.9117 13.756 33.9139C13.3305 33.952 12.9083 33.9999 12.4828 34.038C12.4442 34.0422 12.373 34.0097 12.3567 33.9845C12.3241 33.938 12.372 33.8753 12.4848 33.8531C12.6329 33.8228 12.7845 33.8198 12.8838 33.7217C13.0215 33.5825 13.1915 33.4547 13.3454 33.3213C13.371 33.2977 13.4127 33.2526 13.403 33.2488C13.3221 33.2066 13.2283 33.1742 13.1441 33.1339C13.0018 33.0668 13.001 32.9714 13.0327 32.8797C13.0579 32.8056 13.1545 32.7757 13.2738 32.7748C13.3254 32.7744 13.3899 32.7739 13.4317 32.7561C13.5411 32.7125 13.5762 32.6577 13.5211 32.6172C13.4886 32.5941 13.4304 32.5615 13.3917 32.5656C12.702 32.6349 12.0089 32.7023 11.3225 32.7871C11.1195 32.8119 11.0255 32.7387 10.9026 32.687C10.8088 32.6468 10.7215 32.6319 10.6056 32.6619C10.4961 32.69 10.3896 32.6752 10.3215 32.6115C10.2663 32.5593 10.3627 32.5138 10.6236 32.4613C10.6719 32.4512 10.7266 32.445 10.762 32.4252C11.1346 32.2123 11.1346 32.2103 11.3924 32.1812C11.6438 32.1541 11.6439 32.1521 11.7753 32.0383C11.8362 31.9853 11.9035 31.9322 11.9612 31.8773C11.9836 31.8557 12.0221 31.8165 12.0091 31.8049C11.9377 31.7451 11.8408 31.7322 11.728 31.7466C11.4767 31.7816 11.1798 31.7565 11.0489 31.9423C10.9978 32.0128 10.9173 32.0329 10.8013 32.0454C9.63453 32.1668 8.46782 32.296 7.29783 32.4136C7.10766 32.4325 7.02114 32.5052 6.94753 32.5855C6.88349 32.6522 6.81266 32.6721 6.69018 32.6847C6.5677 32.6973 6.47094 32.7038 6.39953 32.6401C6.35733 32.6015 6.39243 32.5467 6.4888 32.4915C6.62694 32.4127 6.60043 32.3155 6.55464 32.2244C6.52196 32.1643 6.42168 32.1222 6.31527 32.1268C6.15729 32.1358 6.0059 32.1583 5.87311 32.0814C5.79539 32.0372 5.69839 32.0068 5.61104 31.9685C5.44276 31.8899 5.27447 31.8094 5.0394 31.8636C4.878 31.8454 4.76462 31.7761 4.63522 31.7226C4.4185 31.6346 4.39905 31.6211 4.55319 31.5246C4.7266 31.4163 4.59012 31.2771 4.68614 31.1713C4.78855 31.0576 4.9298 30.9574 5.05484 30.8513C5.0869 30.8238 5.11576 30.7983 5.14782 30.7708C5.07337 30.7324 5.00531 30.6843 4.91803 30.6577C4.8049 30.6235 4.74654 30.5811 4.75214 30.4603C4.72944 30.443 4.73937 30.4877 4.76525 30.4992C4.79436 30.5106 4.8653 30.5004 4.90068 30.4865C4.99073 30.4489 5.03549 30.3999 5.01262 30.3592C4.99957 30.3378 4.93815 30.311 4.89944 30.3113C4.82849 30.3118 4.76752 30.3551 4.74891 30.4604C4.38825 30.5428 4.01434 30.5845 3.64043 30.6183C3.60176 30.6225 3.55313 30.5839 3.50784 30.5648C3.35902 30.4997 3.35901 30.5016 2.92347 30.4854C2.8783 30.4838 2.81686 30.457 2.79409 30.4299C2.69972 30.3118 2.70205 30.1814 2.656 30.0552C2.73928 29.9728 2.82251 29.8924 2.90902 29.812C3.08204 29.6491 3.30686 29.5054 3.44107 29.3273C3.41136 29.2321 3.37198 29.137 3.51334 29.0581C3.91581 28.9579 3.91261 28.9579 4.0216 28.8637C4.33258 28.5967 4.6403 28.3277 4.96421 28.0645C5.05081 27.9957 5.05056 27.9588 4.89554 27.9307C4.84711 27.9233 4.79542 27.9217 4.74384 27.926C4.58268 27.9408 4.42167 27.977 4.26358 27.9703C4.1055 27.9657 3.98879 27.8809 3.85941 27.8293C3.72679 27.7757 3.59416 27.7202 3.46153 27.6648C3.30998 27.6717 3.15881 27.7273 3.0066 27.6408C2.89002 27.5736 2.74455 27.526 2.61191 27.4705C2.71085 27.3218 2.89714 27.2076 3.04136 27.0761C3.17275 26.9564 3.17592 26.9583 3.53005 26.8642C3.69746 26.8202 3.75396 26.5998 3.6116 26.5366C3.44011 26.46 3.25903 26.3893 3.08434 26.3166C2.9328 26.3235 2.77839 26.3773 2.63263 26.2907C2.51928 26.2254 2.38993 26.1815 2.20305 26.2082C1.88728 26.2533 1.56492 26.2771 1.24587 26.3145C1.13629 26.327 1.01687 26.3201 0.968023 26.2542C0.935441 26.2077 1.02852 26.1428 1.13486 26.1284C1.29598 26.1078 1.44094 26.0834 1.52088 25.9855C1.5976 25.8876 1.73929 25.8573 1.9069 25.8425C1.95203 25.8382 2.00351 25.8145 2.02592 25.791C2.14123 25.6772 2.26956 25.579 2.51793 25.5811C2.62086 25.5414 2.67531 25.4923 2.64273 25.4458C2.6232 25.4207 2.55527 25.3881 2.5166 25.3923C2.24904 25.4137 1.98149 25.4351 1.7205 25.4721C1.59805 25.4885 1.50449 25.4931 1.42667 25.4353C1.37157 25.3967 1.40022 25.344 1.50303 25.2868C1.59299 25.2374 1.61843 25.1808 1.61151 25.1147C1.5943 24.961 1.4972 24.917 1.18765 24.929C0.965165 24.9384 0.910154 24.9135 0.86084 24.7815C0.847719 24.7504 0.815221 24.7078 0.837647 24.6862C0.975396 24.5529 1.06455 24.3887 1.32536 24.3245C1.4284 24.3004 1.53801 24.2996 1.60216 24.2485C1.66631 24.1974 1.72398 24.1386 1.79136 24.0895C1.87481 24.0305 1.93242 23.9755 1.89345 23.9388C1.82848 23.8731 1.72527 23.8681 1.6061 23.8923C1.50303 23.9125 1.39339 23.9152 1.28704 23.9277C1.0969 23.9505 0.941769 23.901 0.918587 23.8155C0.855713 23.5902 0.789608 23.3668 0.733184 23.1414C0.726541 23.1142 0.742375 23.0791 0.768012 23.0555C0.857741 22.9731 0.953985 22.8946 1.04695 22.8141C1.15596 22.7218 1.33028 22.738 1.47852 22.7194C1.68798 22.6926 1.68792 22.6945 1.96719 22.5056C2.07633 22.4309 2.26683 22.4587 2.37925 22.3917C2.41457 22.37 2.46916 22.3346 2.45934 22.3152C2.44626 22.2899 2.38165 22.2709 2.33319 22.2596C2.28796 22.2483 2.2331 22.2428 2.18476 22.249C1.59817 22.3098 1.01485 22.3744 0.42824 22.4332C0.328327 22.4436 0.218364 22.4016 0.18246 22.3415C0.146583 22.2854 0.155746 22.2171 0.148842 22.153C0.24181 22.0725 0.347679 21.9977 0.427704 21.9115C0.488516 21.8449 0.559278 21.8151 0.681809 21.8104C0.843029 21.8033 1.00092 21.7788 1.1814 21.76C1.51482 21.4734 1.84167 21.1732 2.20089 20.8863C2.34521 20.7704 2.30896 20.6539 2.33712 20.531C2.36535 20.4179 2.58156 20.4339 2.72646 20.3997C2.84237 20.3716 2.88058 20.3091 2.83513 20.2666C2.80915 20.2415 2.75092 20.2127 2.70577 20.213C2.59933 20.2138 2.49303 20.2321 2.38666 20.2426C2.2803 20.2531 2.15771 20.2482 2.07086 20.2819C1.98722 20.3137 1.93283 20.3802 1.8784 20.4371C1.81756 20.4998 1.73714 20.5218 1.61461 20.5266C1.4566 20.5317 1.2987 20.5503 1.14076 20.5651C0.966057 20.4905 0.784884 20.4178 0.616609 20.3393C0.584247 20.3239 0.577445 20.2792 0.580464 20.25C0.586378 20.174 0.537682 20.1276 0.430989 20.0914C0.340462 20.061 0.265959 20.0167 0.181828 19.9784C0.245962 19.9254 0.316584 19.8743 0.367789 19.8174C0.479833 19.6979 0.621154 19.6112 0.866299 19.6133C0.962519 19.5367 1.03924 19.4427 1.16466 19.3892C1.28363 19.3377 1.48719 19.3868 1.57668 19.2713C1.62144 19.2146 1.68875 19.1498 1.77567 19.1258C1.91409 19.0878 2.09484 19.106 2.1747 18.9964C2.22264 18.9338 2.29316 18.8768 2.38659 18.8605C2.49289 18.8423 2.6025 18.8376 2.67964 18.8C2.72143 18.7803 2.76637 18.7488 2.76618 18.7215C2.76605 18.704 2.70141 18.6772 2.65617 18.6659C2.61415 18.6526 2.55919 18.6432 2.51084 18.6475C2.34966 18.6603 2.19178 18.6829 2.0306 18.6957C1.98547 18.7 1.93379 18.6867 1.88533 18.6754C1.7432 18.6453 1.75258 18.6063 1.86497 18.5354C1.97737 18.4665 2.05742 18.3783 2.15039 18.2978C2.2535 18.2834 2.38253 18.2883 2.45323 18.2508C2.57213 18.1896 2.65535 18.1014 2.75157 18.0247C2.85792 18.0123 2.96754 18.0076 3.06737 17.9855C3.10925 17.9774 3.12831 17.9344 3.16361 17.9088C3.22777 17.8597 3.28215 17.7892 3.36907 17.7652C3.51073 17.7292 3.68498 17.7415 3.76808 17.6338C3.81602 17.5712 3.88971 17.5045 3.97998 17.4999C4.2315 17.4903 4.33718 17.3825 4.46547 17.2803C4.56169 17.2037 4.76839 17.2411 4.87428 17.1644C4.94489 17.1152 4.9961 17.0545 5.06673 17.0073C5.09562 16.9876 5.15681 16.9774 5.20514 16.9713C5.46941 16.9401 5.73694 16.9167 6.00119 16.8837C6.04307 16.8775 6.0816 16.8481 6.11369 16.8245C6.18106 16.7734 6.22245 16.703 6.30607 16.6693C6.38969 16.6356 6.50901 16.6347 6.61215 16.6242C6.94414 16.5926 6.97002 16.6002 7.12044 16.4336C7.24205 16.2984 7.54271 16.3916 7.64164 16.2429C7.69909 16.1569 7.80498 16.086 7.9952 16.0749C8.2628 16.0593 8.527 16.0204 8.79452 15.9931C9.03302 15.968 9.0298 15.9681 9.28654 15.7851C9.40207 15.7025 9.57313 15.713 9.7246 15.6963C9.88575 15.6796 10.0339 15.6551 10.1107 15.5572C10.1874 15.4613 10.3291 15.4291 10.4934 15.4143C10.6449 15.3995 10.816 15.408 10.9348 15.3293C11.2237 15.1403 11.2205 15.1384 11.4235 15.1174C11.7426 15.084 12.0617 15.0505 12.3807 15.0151C12.5935 14.9921 12.816 14.9866 13.0156 14.9423C13.1605 14.9101 13.2242 14.8006 13.3172 14.724C13.5815 14.6929 13.8458 14.6617 14.11 14.6326C14.4807 14.5909 14.8545 14.5532 15.2284 14.5134C15.3891 14.4383 15.4106 14.2746 15.6815 14.2649C15.8427 14.2598 16.0006 14.2333 16.1617 14.2166C16.4292 14.1874 16.6934 14.1504 16.961 14.1348C17.1641 14.1236 17.1988 14.0182 17.3048 13.9513C17.3401 13.9277 17.3721 13.8943 17.414 13.8882C17.8329 13.8306 18.265 13.8158 18.674 13.733C18.7159 13.7249 18.7543 13.6837 18.7638 13.6545C18.7701 13.6388 18.7151 13.6101 18.6795 13.5967C18.6375 13.5814 18.5826 13.5663 18.5374 13.5705C17.2063 13.7106 15.8753 13.8527 14.5442 13.9929C14.3573 14.0137 14.3573 14.0118 13.904 14.2292C13.8654 14.247 13.8204 14.2668 13.772 14.273C13.5593 14.2979 13.3434 14.3131 13.1339 14.3438C12.9631 14.3684 12.8211 14.3461 12.6981 14.2769C12.6106 14.227 12.5202 14.2121 12.4105 14.2168C12.288 14.2235 12.2076 14.2455 12.137 14.2986C12.044 14.3713 11.9962 14.465 11.7996 14.4859C10.8939 14.5763 9.98826 14.6763 9.08583 14.7725C8.95986 14.7461 8.89829 14.7057 8.9302 14.6568C8.94935 14.6275 8.98779 14.5883 9.02647 14.5841C9.39708 14.5405 9.77095 14.5027 10.1416 14.4611C10.1931 14.4549 10.2641 14.4582 10.293 14.4386C10.4343 14.3499 10.4849 14.2075 10.7526 14.1958C10.9073 14.1888 11.0651 14.1585 11.2133 14.1301C11.2552 14.122 11.2936 14.0809 11.3031 14.0516C11.3062 14.036 11.2544 14.0072 11.2156 13.9938C11.0733 13.9384 10.9093 14.0078 10.7671 13.9699C10.7186 13.9566 10.6507 13.9376 10.6409 13.9143C10.6343 13.893 10.6889 13.8575 10.7274 13.8358C10.7628 13.8161 10.811 13.7983 10.8593 13.7921C11.2847 13.7442 11.7102 13.6944 12.1357 13.6562C12.3098 13.6413 12.4319 13.5917 12.5087 13.5016C12.5663 13.435 12.637 13.3995 12.7466 13.389C13.4911 13.3115 14.2356 13.2262 14.9833 13.1546C15.1703 13.1377 15.2666 13.0727 15.3435 12.9885C15.4043 12.9218 15.4751 12.8979 15.5943 12.8854C16.6612 12.7764 17.7214 12.6557 18.7883 12.5506C18.9849 12.5316 19.0424 12.4475 19.1419 12.3748C19.1772 12.3492 19.1995 12.3179 19.2445 12.302C19.2896 12.2861 19.3476 12.2876 19.4024 12.2833C20.2533 12.1934 21.1042 12.0976 21.9583 12.0135C22.1581 11.9946 22.1961 11.8969 22.2988 11.8281C22.3342 11.8064 22.3662 11.7711 22.4081 11.765C23.0462 11.6941 23.6843 11.6272 24.3225 11.5583C24.7479 11.5123 25.1733 11.4664 25.5988 11.4224C25.8083 11.4014 25.8083 11.3995 26.0908 11.2125C26.1229 11.1908 26.1679 11.1652 26.2098 11.159C27.4345 11.0255 28.656 10.8979 29.8807 10.7663C29.9838 10.7558 30.0577 10.7105 30.1088 10.6439C30.16 10.5773 30.2339 10.532 30.3338 10.5216C31.291 10.4172 32.2482 10.3149 33.2087 10.2164C33.3827 10.1995 33.5049 10.1519 33.5817 10.0637C33.6393 9.99715 33.71 9.9616 33.8196 9.95107C34.7768 9.85063 35.7341 9.74435 36.6945 9.64779C36.8783 9.62892 36.9681 9.56209 37.0578 9.48357C37.0899 9.45609 37.1154 9.41113 37.1541 9.40695C37.631 9.34896 38.1047 9.28905 38.585 9.24855C38.7848 9.23152 38.852 9.14927 38.9321 9.07082C38.9962 9.00806 39.0702 8.98611 39.1927 8.97743C39.4603 8.95796 39.7245 8.92295 39.9855 8.88795C40.0242 8.88182 40.0723 8.83865 40.0753 8.81137C40.0814 8.76072 40.0069 8.72622 39.8843 8.7096C38.608 8.84545 37.3285 8.98132 36.0522 9.11718C35.8427 9.14012 35.8427 9.14013 35.5602 9.32712C35.5281 9.34877 35.483 9.37441 35.4379 9.38058C34.2132 9.51216 32.9917 9.64178 31.767 9.77336C31.6639 9.78385 31.59 9.82916 31.5389 9.89572C31.4878 9.96227 31.4138 10.0076 31.3139 10.018C30.144 10.1434 28.9741 10.2707 27.8009 10.3902C27.6268 10.4071 27.5046 10.4527 27.4279 10.5428C27.3703 10.6094 27.2996 10.645 27.19 10.6555C26.0716 10.7727 24.9564 10.8957 23.8348 11.009C23.722 11.0196 23.6378 10.9637 23.6439 10.9111C23.6469 10.8838 23.6949 10.8387 23.7336 10.8346C24.3169 10.7661 24.897 10.6956 25.4836 10.6427C25.6803 10.6257 25.7377 10.5396 25.8371 10.4669C25.8692 10.4413 25.8948 10.408 25.9366 10.3941C25.9817 10.3782 26.0397 10.3797 26.0945 10.3754C27.4772 10.2271 28.8599 10.0769 30.2458 9.93632C30.4456 9.9154 30.4836 9.81972 30.5863 9.75084C30.6216 9.72723 30.6537 9.69197 30.6956 9.68777C31.121 9.63794 31.5464 9.59394 31.9718 9.54996C32.7163 9.47054 33.4608 9.39113 34.2086 9.3117C34.4245 9.2887 34.4245 9.2887 34.7006 9.1037C34.7327 9.08205 34.7777 9.05449 34.8196 9.05029C36.7888 8.8393 38.7581 8.62829 40.7273 8.41924C40.8304 8.40876 40.9043 8.36345 40.9554 8.29689C41.0066 8.23228 41.0804 8.18502 41.1803 8.17261C43.8425 7.88842 46.5014 7.60424 49.1636 7.32394C49.3377 7.30515 49.4599 7.26337 49.5367 7.17132C49.591 7.10474 49.6649 7.06917 49.7745 7.05669C52.701 6.74526 55.6274 6.43384 58.5571 6.12044C60.5263 5.91138 62.4956 5.69844 64.4648 5.49328C64.6453 5.47444 64.7416 5.41338 64.8314 5.33292C64.8602 5.30546 64.8889 5.26047 64.9276 5.2563C65.3498 5.20455 65.7719 5.1567 66.1941 5.10884C66.3267 5.16043 66.4593 5.21008 66.5919 5.26167C66.6914 5.18697 66.7877 5.11035 66.8871 5.03565C67.5253 4.97453 68.1536 4.88235 68.7984 4.85038C68.8404 4.84813 68.8857 4.88479 68.931 4.90392C69.2319 5.02435 69.4027 5.01337 69.5919 4.84848C69.6592 4.78959 69.7169 4.73661 69.82 4.72612C70.139 4.68875 70.4615 4.66304 70.7773 4.61985C70.948 4.59719 71.09 4.61561 71.2131 4.68479C71.3005 4.73476 71.391 4.75552 71.4974 4.74307C72.084 4.68038 72.6673 4.61966 73.2539 4.55308C73.2958 4.54888 73.3342 4.5155 73.3663 4.49191C73.4336 4.4408 73.4913 4.38589 73.5555 4.33286C73.6428 4.36532 73.7397 4.38992 73.811 4.43222C73.9017 4.48217 73.9855 4.48154 74.108 4.46702C76.4478 4.21438 78.7909 3.96756 81.1308 3.71298C81.3306 3.69205 81.4183 3.77318 81.554 3.81501C81.5993 3.83025 81.6446 3.84937 81.693 3.85291C81.7446 3.85643 81.7993 3.84436 81.8509 3.83814C83.6074 3.65011 85.364 3.46402 87.1205 3.27599C87.3525 3.25093 87.3526 3.25093 87.6985 3.36909C87.7405 3.38435 87.7955 3.40147 87.8406 3.3953C88.6399 3.31355 89.4392 3.22596 90.2353 3.14227C90.3384 3.13179 90.4257 3.16229 90.5196 3.20637C90.704 3.29262 90.7169 3.29253 90.8514 3.16308C90.9155 3.10226 90.983 3.06477 91.0893 3.04647C91.2052 3.02616 91.2989 3.03134 91.3894 3.06571C91.5188 3.11343 91.6129 3.19449 91.8095 3.17164C92.6603 3.07393 93.5144 2.99178 94.362 2.89214C94.5554 2.86932 94.6591 2.93474 94.7884 2.98246C94.8337 2.99965 94.8758 3.02659 94.9242 3.03208C94.9726 3.03756 95.0306 3.0235 95.0821 3.01728C96.1457 2.9044 97.2125 2.79345 98.2728 2.6728C98.4726 2.64992 98.5603 2.73297 98.6961 2.7748C98.7413 2.79004 98.7931 2.81693 98.835 2.81273C99.4732 2.74772 100.115 2.67878 100.753 2.60988C100.982 2.58485 100.982 2.58679 101.331 2.70298C101.373 2.71825 101.428 2.73342 101.473 2.7292C102.217 2.65173 102.965 2.5723 103.71 2.49288C103.938 2.46785 103.938 2.46786 104.6 2.56424C104.649 2.57167 104.7 2.58299 104.749 2.57874C105.6 2.48882 106.454 2.40081 107.305 2.30505C107.475 2.28628 107.617 2.30081 107.74 2.36999C107.828 2.41996 107.918 2.44072 108.025 2.42826C108.982 2.32589 109.942 2.22738 110.896 2.11918C111.08 2.09838 111.2 2.14031 111.329 2.19581C111.371 2.21497 111.413 2.24192 111.462 2.24935C111.51 2.25679 111.565 2.24859 111.617 2.24238C112.574 2.14 113.534 2.04344 114.488 1.9333C114.681 1.91047 114.785 1.97589 114.915 2.02361C114.96 2.0408 115.008 2.07548 115.047 2.07326C115.421 2.03743 115.795 2.00551 116.165 1.95414C116.365 1.92542 116.453 2.01431 116.589 2.05614C116.634 2.06944 116.686 2.09827 116.728 2.09407C117.527 2.01231 118.326 1.92667 119.122 1.83909C119.235 1.82659 119.319 1.84348 119.41 1.89342C119.53 1.96068 119.669 1.98691 119.843 1.96423C120.213 1.91675 120.587 1.88288 120.961 1.84316C121.18 1.82015 121.18 1.82016 121.852 1.91647C121.9 1.9239 121.952 1.93519 122 1.93095C122.638 1.86399 123.28 1.79896 123.914 1.72619C124.085 1.70548 124.227 1.72195 124.35 1.79113C124.438 1.8411 124.525 1.86189 124.635 1.84941C125.221 1.78672 125.805 1.72406 126.391 1.66137C126.604 1.63841 126.816 1.59986 127.029 1.5983C127.184 1.59912 127.298 1.69172 127.437 1.73742C127.476 1.75076 127.54 1.73474 127.591 1.73047C128.336 1.65105 129.084 1.57745 129.825 1.48833C130.018 1.46551 130.122 1.53093 130.251 1.57864C130.297 1.59583 130.345 1.63052 130.384 1.62829C130.651 1.60492 130.916 1.57379 131.183 1.54653C131.502 1.51305 131.825 1.48733 132.14 1.4422C132.398 1.40528 132.496 1.57391 132.703 1.57824C132.861 1.58292 133.022 1.54866 133.18 1.53193C133.499 1.49846 133.818 1.46109 134.137 1.4315C134.25 1.42095 134.337 1.38915 134.372 1.31882C134.378 1.30515 134.323 1.27637 134.287 1.25911C133.857 1.0637 133.857 1.06369 133.425 1.10968C133.158 1.13888 132.893 1.16807 132.626 1.19339C132.581 1.19761 132.529 1.18241 132.484 1.17107C132.354 1.13892 132.367 1.0999 132.476 1.02903C132.585 0.958151 132.669 0.871902 132.762 0.791414C132.894 0.841055 133.024 0.890701 133.156 0.940342C133.263 0.929832 133.369 0.917392 133.475 0.906882C134.007 0.852384 134.539 0.795936 135.071 0.745331C135.109 0.741155 135.158 0.779736 135.203 0.798871C135.333 0.854375 135.449 0.902174 135.636 0.879396C136.113 0.819459 136.593 0.775071 137.07 0.72292C137.28 0.699976 137.28 0.699978 137.648 0.817971C137.69 0.83129 137.745 0.846462 137.79 0.842239C138.271 0.793957 138.748 0.741812 139.228 0.691584C139.331 0.681097 139.431 0.705669 139.506 0.761574C139.535 0.78472 139.529 0.823689 139.654 1.14201C140.036 1.39811 140.297 1.36896 140.561 1.34367C140.674 1.33311 140.774 1.32264 140.848 1.28317C140.886 1.26148 140.935 1.22997 140.934 1.20467C140.934 1.18521 140.863 1.15457 140.818 1.15101C140.498 1.11442 140.196 1.1984 139.883 1.2182C139.738 1.22705 139.612 1.15984 139.585 1.04908C139.578 1.01798 139.569 0.984968 139.559 0.953895C139.549 0.922822 139.542 0.889781 139.532 0.858709C139.406 0.849896 139.332 0.885469 139.278 0.952049C139.233 1.00688 139.169 1.06964 139.082 1.09947C138.995 1.13125 138.876 1.1263 138.77 1.13681C138.667 1.14729 138.554 1.17342 138.457 1.1605C138.36 1.14564 138.282 1.08975 138.192 1.05537C138.15 1.03816 138.098 1.01324 138.056 1.01744C137.685 1.05324 137.318 1.08901 136.951 1.13452C136.757 1.15929 136.66 1.07826 136.537 1.02854C136.44 0.990322 136.343 1.00075 136.328 1.0904C136.287 1.30482 136.436 1.39327 136.765 1.34999C137.036 1.31297 137.281 1.30536 137.495 1.43616C137.524 1.45347 137.591 1.46076 137.633 1.45656C137.898 1.43127 138.159 1.40016 138.423 1.37487C138.471 1.37062 138.523 1.37802 138.568 1.38547C139.227 1.48577 139.227 1.48773 139.449 1.46274C139.556 1.45029 139.659 1.4398 139.647 1.14401C139.848 0.825249 140.17 0.801484 140.483 0.752482C140.686 0.7218 140.774 0.806812 140.906 0.850614C140.951 0.865856 141 0.896639 141.042 0.89244C141.735 0.823138 142.425 0.749957 143.114 0.672892C143.23 0.660365 143.314 0.671433 143.405 0.721381C143.521 0.784765 143.651 0.824706 143.834 0.800005C144.202 0.750602 144.576 0.718677 144.95 0.677013C145.14 0.656157 145.14 0.656137 145.524 0.774012C145.566 0.787331 145.621 0.802503 145.666 0.79828C146.04 0.762455 146.411 0.71888 146.782 0.681132C146.885 0.670646 146.978 0.69721 147.059 0.749175C147.14 0.80114 147.237 0.82768 147.337 0.817217C147.711 0.779445 148.082 0.737817 148.452 0.70007C148.498 0.695847 148.553 0.70907 148.595 0.722389C148.989 0.840193 148.989 0.840173 149.169 0.819388C149.434 0.788258 149.704 0.772668 149.965 0.731829C150.22 0.691037 150.353 0.802956 150.528 0.863969C151.005 0.815711 151.485 0.775225 151.959 0.717259C152.152 0.692487 152.256 0.755959 152.385 0.805624C152.43 0.822812 152.476 0.859469 152.518 0.857216C152.679 0.848251 152.837 0.825688 152.995 0.808961C153.153 0.792235 153.314 0.775486 153.472 0.758759C153.653 0.813886 153.773 0.945371 154.031 0.898717C154.185 0.870334 154.35 0.863293 154.508 0.846566C154.666 0.829839 154.827 0.81309 154.985 0.796363C155.091 0.785853 155.201 0.779203 155.304 0.760931C155.494 0.730343 155.588 0.825047 155.724 0.866879C155.769 0.880174 155.821 0.903139 155.863 0.89894C156.182 0.869355 156.504 0.843642 156.817 0.796587C157.058 0.759782 157.223 0.816981 157.395 0.897483C157.43 0.914742 157.492 0.924025 157.537 0.919802C157.911 0.883978 158.281 0.840379 158.652 0.802632C158.752 0.792169 158.849 0.822603 158.93 0.872622C159.014 0.924563 159.108 0.949203 159.211 0.938716C159.581 0.900969 159.955 0.859293 160.326 0.821545C160.371 0.817322 160.426 0.832496 160.468 0.847761C160.83 0.965801 160.83 0.967749 161.043 0.942836C161.095 0.936619 161.149 0.93231 161.201 0.926094C161.465 0.89691 161.739 0.885187 161.997 0.836586C162.293 0.781862 162.51 0.846465 162.72 0.955881C162.985 0.93059 163.255 0.914982 163.513 0.874166C163.706 0.843555 163.81 0.916762 163.939 0.96448C163.985 0.981668 164.033 1.01635 164.072 1.01218C164.446 0.976351 164.82 0.944429 165.187 0.89308C165.387 0.864368 165.475 0.951306 165.61 0.995084C165.656 1.01033 165.704 1.03724 165.746 1.03304C165.959 1.01591 166.172 0.990984 166.384 0.968017C166.633 0.940898 166.633 0.942843 166.962 1.05917C167.118 1.11449 167.272 1.06859 167.424 1.05385C167.585 1.0371 167.736 1.02432 167.866 1.10318C167.947 1.1532 168.044 1.18364 168.144 1.17512C168.356 1.15604 168.572 1.13696 168.782 1.10623C168.949 1.08164 169.095 1.09615 169.218 1.16727C169.305 1.21724 169.396 1.2419 169.502 1.22944C169.979 1.17924 170.459 1.12705 170.936 1.07879C170.978 1.07459 171.036 1.09169 171.075 1.10892C171.166 1.1433 171.253 1.18158 171.34 1.21988C171.55 1.20083 171.766 1.19148 171.972 1.16272C172.191 1.13387 172.391 1.12267 172.563 1.22848C172.598 1.25157 172.65 1.28427 172.692 1.28202C172.853 1.27305 173.011 1.25244 173.169 1.23571C173.327 1.21898 173.488 1.20223 173.646 1.18551C173.83 1.23283 173.948 1.37212 174.205 1.32546C174.36 1.29708 174.524 1.29004 174.682 1.27331C174.84 1.25659 175.001 1.23789 175.159 1.22311C175.211 1.21884 175.269 1.20868 175.314 1.21613C175.362 1.22357 175.405 1.25052 175.447 1.26967C175.576 1.32518 175.696 1.38076 175.879 1.34633C176.034 1.31794 176.198 1.3109 176.356 1.29223C176.572 1.26924 176.572 1.26924 176.931 1.38925C177.077 1.4388 177.241 1.37142 177.38 1.41323C177.473 1.44174 177.554 1.4898 177.645 1.52223C177.684 1.53557 177.745 1.54096 177.79 1.53673C178.003 1.51766 178.219 1.49857 178.428 1.46784C178.599 1.44323 178.741 1.46555 178.861 1.53475C178.948 1.58472 179.036 1.60551 179.145 1.59303C179.677 1.53464 180.209 1.48402 180.737 1.41981C180.918 1.39708 181.063 1.42912 181.164 1.49846C181.335 1.61789 181.576 1.47403 181.754 1.57006C181.864 1.6296 181.975 1.69887 182.174 1.66821C182.542 1.61492 182.916 1.58492 183.286 1.54717C183.419 1.59876 183.551 1.65036 183.687 1.70192C183.9 1.67895 184.113 1.65597 184.325 1.63495C184.483 1.61823 184.645 1.59953 184.802 1.58475C184.854 1.58048 184.909 1.57229 184.957 1.58167C185.006 1.59105 185.045 1.61607 185.09 1.63521C185.313 1.72896 185.313 1.73092 185.681 1.6893C185.838 1.67062 185.99 1.65784 186.123 1.73473C186.246 1.80585 186.391 1.81841 186.559 1.79577C186.874 1.75453 187.194 1.723 187.516 1.69339C187.616 1.68293 187.709 1.71534 187.794 1.76533C187.92 1.84422 188.075 1.8353 188.233 1.81274C188.442 1.78395 188.648 1.7552 188.827 1.86291C188.862 1.886 188.917 1.91867 188.956 1.91644C189.22 1.89894 189.488 1.88531 189.746 1.84644C190.003 1.80758 190.13 1.92733 190.308 1.98443C190.572 1.95719 190.84 1.92993 191.104 1.90269C191.155 1.89647 191.217 1.87852 191.262 1.88792C191.452 1.92741 191.563 2.07259 191.824 2.02591C191.975 1.99949 192.14 1.99052 192.298 1.98352C192.34 1.98127 192.395 2.01394 192.424 2.03903C192.44 2.05254 192.424 2.08964 192.405 2.10924C192.348 2.16417 192.277 2.21531 192.226 2.27214C192.219 2.27997 192.281 2.31454 192.316 2.32986C192.404 2.36425 192.504 2.3577 192.62 2.34128C192.72 2.32692 192.823 2.35342 192.894 2.41129C192.924 2.43444 192.914 2.47343 192.854 2.60235C192.854 2.69772 192.922 2.6544 192.944 2.59195C192.979 2.50215 192.911 2.47345 192.782 2.52305C192.692 2.55875 192.647 2.60969 192.67 2.6504C192.683 2.67172 192.745 2.69853 192.854 2.60235C193.137 2.48349 193.35 2.46053 193.562 2.43756C193.617 2.43132 193.681 2.41137 193.72 2.42277C193.859 2.46847 193.989 2.52398 194.124 2.57555C194.279 2.56274 194.424 2.53246 194.576 2.60727C194.79 2.71277 194.799 2.70297 195.006 2.68005C195.112 2.66759 195.218 2.6571 195.325 2.64659C195.431 2.63608 195.515 2.66465 195.609 2.70874C195.8 2.79883 195.816 2.7987 195.941 2.67321C196.015 2.59676 196.066 2.57108 196.16 2.60543C196.47 2.72191 196.474 2.72966 196.738 2.69269C196.957 2.66189 197.163 2.6526 197.325 2.76237C197.436 2.83942 197.471 2.82165 197.557 2.73926C197.788 2.52151 197.895 2.52461 198.331 2.67715C198.535 2.74963 198.744 2.6683 198.95 2.65706C199.124 2.648 199.247 2.69381 199.261 2.81634C199.271 2.89218 199.301 2.94648 199.417 2.97094C199.462 2.98034 199.517 2.99356 199.562 2.98934C199.83 2.96402 200.094 2.93483 200.361 2.90563C200.497 2.89101 200.57 2.799 200.544 2.67851C200.514 2.55026 200.565 2.50315 200.758 2.46475C200.874 2.44249 200.968 2.44572 201.062 2.48007C201.165 2.51824 201.136 2.55349 201.046 2.62422C200.832 2.79709 200.858 2.90199 201.136 3.0187C201.233 3.05887 201.311 3.0953 201.334 3.15548C201.347 3.18653 201.335 3.22749 201.364 3.25064C201.523 3.3799 201.743 3.462 201.988 3.52249C202.223 3.46822 202.385 3.55461 202.566 3.62337C202.709 3.67683 202.876 3.6289 203.027 3.60833C203.198 3.58567 203.34 3.6002 203.463 3.67132C203.551 3.72129 203.641 3.74398 203.747 3.73347C203.96 3.7105 204.176 3.6953 204.386 3.66263C204.566 3.63406 204.702 3.672 204.815 3.73735C204.958 3.82002 205.115 3.7624 205.264 3.773C205.464 3.78516 205.565 3.95766 205.826 3.90903C205.981 3.88065 206.142 3.86974 206.303 3.86078C206.345 3.85853 206.397 3.89125 206.432 3.91434C206.604 4.02015 206.804 4.01285 207.023 3.9801C207.174 3.95758 207.323 3.93704 207.472 4.00992C207.718 4.1327 207.989 4.23973 208.248 4.35269C208.284 4.44196 208.259 4.54724 208.443 4.59845C208.54 4.62499 208.631 4.66522 208.705 4.70945C208.796 4.76135 208.88 4.77436 208.996 4.75989C209.205 4.7311 209.425 4.72364 209.631 4.6871C209.821 4.65456 209.941 4.71794 210.057 4.77744C210.151 4.82541 210.238 4.84812 210.351 4.81226C210.467 4.77832 210.551 4.79911 210.645 4.85098C210.778 4.92204 210.787 4.91419 211.226 4.9324C211.271 4.93401 211.326 4.96279 211.352 4.98791C211.365 5.00144 211.336 5.0406 211.314 5.06023C211.285 5.0838 211.24 5.11137 211.198 5.11751C210.721 5.17161 210.241 5.21989 209.764 5.27399C209.716 5.28018 209.664 5.2942 209.629 5.31392C209.59 5.33562 209.542 5.36515 209.542 5.3924C209.543 5.41186 209.607 5.43476 209.652 5.44805C209.795 5.49178 209.962 5.42243 210.101 5.47203C210.195 5.50443 210.272 5.55057 210.366 5.58103C210.405 5.59438 210.466 5.59199 210.515 5.58774C210.676 5.57294 210.834 5.55232 210.995 5.53946C211.04 5.53719 211.092 5.55628 211.134 5.57155C211.444 5.68607 211.444 5.68607 211.712 5.65881C211.818 5.6483 211.931 5.61827 212.031 5.62922C212.128 5.64019 212.212 5.69213 212.299 5.72458C212.48 5.79334 212.652 5.86021 212.666 6.01194C212.673 6.07029 212.779 6.12011 212.886 6.12322C212.989 6.12636 213.099 6.10417 213.205 6.09171C213.456 6.06652 213.456 6.06651 213.783 6.18287C213.873 6.2153 213.97 6.21848 214.086 6.19816C214.131 6.19005 214.186 6.19744 214.235 6.20682C214.393 6.23486 214.393 6.27183 214.29 6.34266C214.146 6.44688 214.159 6.45653 214.566 6.54115C214.721 6.57311 214.841 6.63452 214.97 6.68808C215.18 6.77414 215.177 6.77415 215.039 6.89C215.007 6.91554 214.978 6.94301 214.946 6.9705C214.853 7.04709 214.78 7.12938 214.586 7.13858C214.373 7.14792 214.161 7.18064 213.948 7.2036C213.742 7.22652 213.687 7.27362 213.708 7.40584C213.731 7.56528 213.773 7.5825 214.144 7.57784C214.251 7.57706 214.344 7.59195 214.425 7.64391C214.387 7.70648 214.317 7.75566 214.213 7.7681C213.949 7.79923 213.682 7.82649 213.417 7.85373C213.205 7.8767 212.992 7.89966 212.779 7.92262C212.647 7.93721 212.564 8.03905 212.6 8.15169C212.62 8.21578 212.637 8.27989 212.653 8.34401C212.689 8.47222 212.757 8.50482 212.974 8.4974C213.028 8.49505 213.08 8.47909 213.131 8.48261C213.341 8.4947 213.442 8.65552 213.694 8.62059C213.903 8.59181 214.122 8.58437 214.329 8.54783C214.519 8.51529 214.626 8.5846 214.758 8.63619C214.803 8.65338 214.852 8.68999 214.891 8.68776C215.158 8.66439 215.426 8.64104 215.687 8.60215C215.809 8.58568 215.884 8.59681 215.981 8.64282C216.214 8.75402 216.22 8.74813 216.565 8.71057C216.816 8.68148 216.82 8.68535 217.143 8.80172C217.233 8.83415 217.33 8.83344 217.446 8.81702C217.598 8.79645 217.755 8.76415 217.914 8.79219C217.962 8.79963 218.024 8.82254 218.04 8.84773C218.05 8.86518 218.005 8.90833 217.966 8.92224C217.683 9.02553 217.351 9.01044 217.041 9.05358C216.945 9.06597 216.848 9.02969 216.767 8.97772C216.683 8.92578 216.592 8.90504 216.483 8.91557C216.27 8.93854 216.054 8.95374 215.844 8.98641C215.664 9.01498 215.538 8.97113 215.412 8.91171C215.37 8.89255 215.321 8.85592 215.279 8.85817C214.802 8.90059 214.322 8.94304 213.848 9.00101C213.658 9.02575 213.548 8.96428 213.418 8.91266C213.373 8.89548 213.328 8.85882 213.286 8.86107C213.125 8.87004 212.967 8.8926 212.806 8.90935C212.219 8.97203 211.636 9.0347 211.049 9.09349C211.01 9.09766 210.962 9.05714 210.916 9.03995C210.829 9.00555 210.738 8.97312 210.648 8.94069C210.487 8.95744 210.329 8.97805 210.168 8.99091C210.052 8.99955 209.949 9.02756 209.933 9.10165C209.924 9.15038 210.03 9.19436 210.143 9.18964C210.253 9.18495 210.362 9.16079 210.453 9.18543C210.902 9.30673 210.902 9.30868 211.183 9.28132C211.428 9.25617 211.402 9.23689 211.618 9.34236C211.712 9.3884 211.796 9.41505 211.903 9.40259C212.167 9.37341 212.434 9.34419 212.702 9.31888C212.744 9.31468 212.799 9.33375 212.841 9.34902C213.158 9.46349 213.158 9.46738 213.419 9.43627C213.76 9.39874 213.773 9.38891 214.003 9.50597C214.162 9.58657 214.306 9.52906 214.458 9.52406C214.633 9.59869 214.824 9.66544 214.982 9.74993C215.17 9.84978 215.367 9.8308 215.579 9.80005C215.737 9.77748 215.892 9.76857 216.021 9.84743C216.144 9.9205 216.293 9.92721 216.46 9.90652C216.612 9.8879 216.767 9.84977 216.925 9.89144C216.967 9.90281 217.032 9.93155 217.028 9.94909C217.025 9.97636 216.984 10.0156 216.942 10.0276C216.646 10.1096 216.32 10.11 216.007 10.1493C215.966 10.1554 215.911 10.1344 215.869 10.1191C215.778 10.0847 215.691 10.0445 215.603 10.0082C215.445 10.021 215.284 10.0261 215.129 10.0506C215.01 10.0689 214.92 10.0677 214.832 10.0216C214.751 9.97937 214.664 9.92744 214.567 9.91452C214.47 9.9016 214.358 9.93163 214.251 9.94408C214.145 9.95654 214.022 9.95158 213.939 9.98334C213.855 10.0151 213.804 10.0836 213.75 10.1385C213.689 10.1993 213.605 10.2194 213.482 10.2261C213.37 10.2328 213.279 10.2257 213.195 10.1718C213.159 10.1487 213.111 10.1315 213.062 10.1163C213.017 10.103 212.965 10.0819 212.923 10.0861C212.443 10.1344 211.966 10.1866 211.486 10.2368C211.248 10.2619 211.251 10.2619 210.753 10.1507C210.708 10.1413 210.653 10.128 210.608 10.1323C210.34 10.1576 210.076 10.1868 209.809 10.216C209.538 10.2452 209.541 10.2413 209.079 10.122C208.995 10.0993 208.873 10.1313 208.773 10.1282C208.563 10.12 208.459 9.95723 208.214 9.99017C208.004 10.0189 207.785 10.0264 207.576 10.063C207.386 10.0955 207.275 10.0282 207.146 9.97656C207.101 9.95937 207.052 9.92079 207.013 9.92497C206.533 9.97131 206.056 10.0235 205.418 10.034C205.26 10.0351 205.331 10.0755 205.434 10.0884C205.583 10.1087 205.631 10.0674 205.55 9.99018C205.491 9.9361 205.407 9.90945 205.339 9.92357C205.304 9.93161 205.259 9.96894 205.418 10.034C205.586 10.1067 205.576 10.1476 205.606 10.1708C205.677 10.2267 205.777 10.2493 205.88 10.2408C206.042 10.226 206.199 10.2054 206.361 10.1925C206.406 10.1883 206.461 10.2015 206.503 10.2168C206.858 10.3349 206.862 10.3426 207.239 10.2932C207.358 10.2787 207.445 10.278 207.539 10.3143C207.668 10.364 207.762 10.449 207.959 10.4203C208.22 10.3814 208.487 10.358 208.755 10.3347C208.797 10.3305 208.842 10.3652 208.891 10.3804C209.023 10.4261 209.121 10.513 209.317 10.4746C209.468 10.4443 209.633 10.4353 209.794 10.4283C209.836 10.426 209.901 10.4567 209.92 10.4818C209.959 10.5263 209.911 10.5792 209.802 10.617C209.757 10.6329 209.695 10.6295 209.644 10.6357C209.431 10.6587 209.219 10.6836 209.006 10.7026C208.893 10.7132 208.787 10.7432 208.774 10.8153C208.765 10.864 208.881 10.906 208.991 10.9013C209.152 10.8943 209.313 10.8775 209.468 10.8511C209.742 10.8063 209.981 10.8162 210.204 10.9372C210.363 11.0217 210.353 10.9906 210.522 11.2425C210.565 11.3064 210.691 11.3113 210.8 11.3066C211.065 11.2949 211.187 11.3232 211.165 11.3837C211.137 11.4579 211.043 11.4819 210.924 11.4926C210.711 11.5097 210.499 11.5366 210.286 11.5595C210.234 11.5657 210.176 11.5778 210.128 11.5743C210.079 11.5708 210.034 11.5477 209.992 11.5305C209.902 11.4942 209.824 11.4383 209.727 11.4254C209.63 11.4125 209.517 11.4425 209.411 11.4549C209.305 11.4655 209.192 11.4955 209.095 11.4826C208.998 11.4696 208.917 11.4119 208.83 11.3775C208.788 11.3602 208.736 11.3334 208.694 11.3356C208.481 11.3527 208.269 11.3796 208.056 11.4006C207.795 11.4278 207.795 11.4278 207.478 11.3095C207.387 11.2751 207.294 11.2777 207.175 11.2942C206.917 11.3272 206.914 11.3214 206.442 11.2119C206.397 11.2006 206.342 11.1874 206.297 11.1935C205.816 11.2418 205.339 11.294 204.862 11.3442C204.453 11.388 204.453 11.388 204.229 11.5843C204.062 11.7296 204.059 11.7296 204.224 11.7946C204.356 11.8481 204.476 11.9271 204.622 11.9552C204.757 11.9815 204.924 11.8926 205.073 11.9811C205.148 12.0253 205.245 12.0733 205.339 12.0804C205.487 12.089 205.645 12.0314 205.787 12.116C205.858 12.1583 205.965 12.2023 206.055 12.2036C206.214 12.2064 206.375 12.174 206.533 12.1592C206.581 12.155 206.636 12.1546 206.681 12.164C206.729 12.1753 206.771 12.1984 206.813 12.2175C206.943 12.2828 207.082 12.3129 207.249 12.2786C207.523 12.2221 207.768 12.2475 207.982 12.3705C208.011 12.3879 208.082 12.3893 208.127 12.3812C208.243 12.3609 208.343 12.3582 208.431 12.3945C208.466 12.4098 208.518 12.4367 208.512 12.4543C208.502 12.4835 208.464 12.5227 208.422 12.5328C208.119 12.6012 207.794 12.6114 207.481 12.6487C207.439 12.6529 207.387 12.6279 207.345 12.6107C207.255 12.5764 207.177 12.5185 207.08 12.5056C206.983 12.4927 206.87 12.5188 206.764 12.5293C206.658 12.5399 206.545 12.5699 206.448 12.5589C206.351 12.546 206.261 12.498 206.183 12.4557C206.092 12.4077 206.005 12.4025 205.886 12.4229C205.731 12.4493 205.57 12.4544 205.412 12.4692C205.325 12.4328 205.238 12.3925 205.147 12.3582C205.105 12.341 205.053 12.3199 205.008 12.3222C204.795 12.3393 204.583 12.3642 204.37 12.3872C204.157 12.4102 204.157 12.4102 203.795 12.2922C203.753 12.2788 203.698 12.2637 203.653 12.2679C203.385 12.2932 203.121 12.3243 202.854 12.3496C202.751 12.3601 202.657 12.3336 202.573 12.2816C202.492 12.2296 202.395 12.2012 202.295 12.2116C201.869 12.2556 201.444 12.2977 201.018 12.3494C200.848 12.3701 200.702 12.3537 200.586 12.2845C200.45 12.2057 200.298 12.2262 200.14 12.243C199.783 12.2845 199.779 12.2826 199.55 12.185C199.504 12.1658 199.459 12.1292 199.417 12.1314C199.046 12.1633 198.672 12.1933 198.305 12.2427C198.112 12.2695 198.008 12.2021 197.879 12.1524C197.833 12.1352 197.785 12.0986 197.746 12.1028C197.479 12.1261 197.211 12.1476 196.95 12.1884C196.689 12.2293 196.588 12.049 196.391 12.0524C196.123 12.0563 195.859 12.103 195.595 12.1321C195.382 12.1551 195.17 12.1781 194.957 12.201C194.744 12.224 194.531 12.2431 194.319 12.2699C194.206 12.2844 194.122 12.2675 194.028 12.2195C193.908 12.1561 193.766 12.1066 193.637 12.0491C193.439 11.9669 193.439 11.9669 193.201 11.992C193.149 11.9982 193.094 12.0025 193.043 12.0087C192.653 12.0544 192.653 12.0505 192.155 11.9315C192.133 11.9258 192.075 11.9476 192.052 11.9634C191.985 12.0145 191.924 12.0694 191.863 12.1224C191.776 12.0919 191.669 12.0752 191.611 12.0308C191.446 11.9055 191.189 12.0806 191.02 11.9573C190.959 11.911 190.852 11.8709 190.755 11.86C190.655 11.849 190.542 11.8771 190.439 11.8895C190.172 11.9207 190.172 11.9187 189.944 12.0936C189.828 12.1801 189.661 12.1658 189.509 12.1863C189.351 12.2089 189.2 12.2217 189.067 12.1429C188.947 12.0717 188.802 12.0553 188.631 12.0799C188.422 12.1106 188.206 12.1297 187.993 12.1488C187.948 12.153 187.893 12.1437 187.848 12.1323C187.353 12.0211 187.353 12.0191 187.115 12.0462C187.008 12.0587 186.899 12.0633 186.796 12.0816C186.622 12.114 186.489 12.0741 186.363 12.0127C186.321 11.9936 186.272 11.957 186.23 11.9592C186.018 11.9705 185.808 11.9896 185.599 12.0086C185.437 12.0234 185.276 12.0324 185.122 12.0608C184.864 12.1074 184.737 11.9818 184.559 11.9247C184.295 11.9519 184.028 11.9714 183.763 12.0084C183.641 12.0249 183.56 12.0196 183.466 11.9736C183.347 11.9161 183.237 11.8507 183.043 11.8813C182.785 11.9221 182.515 11.9377 182.25 11.963C182.073 11.904 181.943 11.7823 181.688 11.8289C181.534 11.8573 181.369 11.8643 181.211 11.8811C180.999 11.904 180.786 11.9251 180.573 11.95C180.344 11.975 180.347 11.9691 179.995 11.8569C179.791 11.7902 179.582 11.8677 179.376 11.8809C179.215 11.8918 179.135 11.9819 179.174 12.0964C179.214 12.211 179.127 12.3012 178.979 12.3178C178.608 12.3575 178.235 12.3992 177.864 12.435C177.819 12.4392 177.764 12.426 177.722 12.4127C177.324 12.2929 177.324 12.2949 177.147 12.3137C176.883 12.3448 176.612 12.3624 176.351 12.4013C176.171 12.4279 176.038 12.388 175.921 12.3227C175.831 12.2727 175.747 12.2617 175.631 12.2742C174.355 12.4139 173.078 12.5439 171.805 12.6876C171.615 12.7084 171.505 12.6528 171.376 12.6012C171.33 12.584 171.288 12.5473 171.243 12.5476C171.137 12.5484 171.03 12.5667 170.924 12.5792C170.447 12.6294 169.97 12.6893 169.49 12.7278C169.287 12.7449 169.232 12.8349 169.146 12.9095C169.078 12.9664 169.001 12.9903 168.882 12.999C168.766 13.0076 168.682 12.9985 168.591 12.9485C168.475 12.8832 168.342 12.8433 168.162 12.8719C167.952 12.9045 167.74 12.9197 167.524 12.9427C167.414 12.9533 167.33 12.9889 167.295 13.0592C167.289 13.071 167.357 13.0997 167.396 13.1169C167.525 13.1744 167.648 13.2416 167.794 13.2814C167.942 13.3212 168.103 13.2733 168.258 13.2605C168.313 13.2562 168.364 13.2441 168.416 13.2457C168.464 13.2473 168.523 13.2566 168.558 13.2739C168.726 13.3602 168.904 13.4193 169.136 13.365C169.336 13.3889 169.441 13.5497 169.695 13.505C169.85 13.4785 170.011 13.4657 170.172 13.4548C170.214 13.4525 170.259 13.4872 170.305 13.5044C170.434 13.5521 170.538 13.6292 170.731 13.5947C170.937 13.5582 171.157 13.5507 171.366 13.522C171.482 13.5055 171.566 13.5186 171.657 13.5685C171.773 13.6319 171.906 13.6796 172.086 13.6471C172.241 13.6187 172.405 13.6117 172.563 13.593C172.769 13.5701 172.769 13.572 173.138 13.69C173.18 13.7033 173.235 13.7185 173.28 13.7143C173.548 13.689 173.812 13.6578 174.079 13.6325C174.182 13.622 174.283 13.6466 174.354 13.7025C174.383 13.7257 174.374 13.7647 174.384 13.7977C173.852 13.8542 173.32 13.9028 172.792 13.9709C172.592 13.9977 172.501 13.9185 172.368 13.8747C172.323 13.8595 172.274 13.8268 172.233 13.831C171.859 13.8668 171.488 13.9045 171.117 13.9501C171.001 13.9645 170.914 13.9574 170.827 13.9016C170.603 13.7533 170.333 13.8371 170.081 13.8603C169.888 13.8773 169.827 13.9381 169.851 14.0664C169.881 14.218 169.997 14.2639 170.294 14.2345C170.4 14.2239 170.506 14.2095 170.613 14.201C170.716 14.1924 170.81 14.217 170.894 14.269C170.975 14.321 171.072 14.3475 171.172 14.339C171.384 14.3199 171.6 14.3008 171.807 14.2701C171.977 14.2455 172.119 14.2639 172.239 14.3351C172.372 14.4139 172.527 14.3953 172.682 14.3766C173.043 14.335 173.046 14.337 173.272 14.4326C173.317 14.4518 173.363 14.4884 173.405 14.4862C173.776 14.4543 174.149 14.4262 174.514 14.3769C174.704 14.3521 174.814 14.4136 174.94 14.4633C174.985 14.4805 175.031 14.5191 175.073 14.5149C175.34 14.4915 175.608 14.4681 175.869 14.4292C175.991 14.4108 176.065 14.4219 176.166 14.4679C176.405 14.581 176.411 14.5771 176.75 14.5376C176.853 14.5252 176.966 14.503 177.063 14.5178C177.159 14.5327 177.237 14.5886 177.328 14.623C177.37 14.6382 177.422 14.6592 177.467 14.655C177.679 14.6379 177.892 14.613 178.105 14.59C178.305 14.5671 178.305 14.5691 178.68 14.687C178.832 14.7365 178.989 14.6926 179.141 14.6759C179.305 14.6572 179.454 14.6561 179.58 14.7311C179.706 14.8061 179.858 14.8011 180.019 14.7843C180.17 14.7676 180.325 14.7237 180.48 14.7751C180.836 14.8932 180.836 14.8951 181.055 14.8702C181.374 14.8347 181.69 14.8013 182.012 14.7697C182.054 14.7655 182.109 14.7885 182.151 14.8038C182.242 14.8381 182.319 14.896 182.416 14.9089C182.513 14.9237 182.626 14.8996 182.729 14.8871C183.061 14.8477 183.083 14.8339 183.307 14.9608C183.495 15.0645 183.726 14.911 183.901 15.0304C184.001 15.0978 184.137 15.1513 184.324 15.1168C184.479 15.0885 184.64 15.0795 184.801 15.0627C185.056 15.0356 185.056 15.0375 185.379 15.152C185.421 15.1672 185.476 15.1863 185.518 15.1821C185.731 15.165 185.947 15.1498 186.153 15.1132C186.394 15.0706 186.55 15.1434 186.731 15.2141C186.873 15.2695 187.041 15.2216 187.192 15.201C187.356 15.1803 187.505 15.1851 187.628 15.2601C187.757 15.337 187.909 15.3262 188.07 15.3094C188.222 15.2947 188.376 15.2488 188.531 15.3021C188.864 15.4204 188.864 15.4204 189.106 15.3953C189.319 15.3723 189.531 15.3474 189.744 15.3303C189.786 15.3261 189.838 15.351 189.88 15.3682C189.97 15.4026 190.048 15.4604 190.145 15.4733C190.242 15.4863 190.355 15.4601 190.461 15.4496C190.567 15.4391 190.68 15.4091 190.777 15.4201C190.874 15.431 190.964 15.479 191.042 15.5213C191.133 15.5712 191.217 15.5765 191.339 15.5561C191.494 15.5297 191.655 15.5226 191.813 15.5079C191.9 15.5442 191.991 15.5805 192.075 15.6208C192.162 15.663 192.256 15.6584 192.375 15.6439C192.771 15.5943 192.775 15.6001 193.108 15.7184C193.26 15.7718 193.417 15.7258 193.569 15.7111C193.73 15.6943 193.882 15.6855 194.008 15.7624C194.131 15.8355 194.283 15.8441 194.444 15.8195C194.547 15.8032 194.656 15.7927 194.763 15.7861C194.811 15.7838 194.869 15.7911 194.905 15.8064C195.076 15.8869 195.245 15.9597 195.48 15.9054C195.686 15.9195 195.791 16.0783 196.039 16.0454C196.248 16.0166 196.467 16.0091 196.674 15.9726C196.864 15.9401 197 15.9936 197.097 16.061C197.272 16.1804 197.516 16.0151 197.691 16.1326C197.791 16.2 197.921 16.2535 198.114 16.2229C198.327 16.1902 198.395 16.2306 198.457 16.3528C198.493 16.4226 198.487 16.4791 198.423 16.5341C198.358 16.591 198.287 16.5818 198.184 16.5183C198.064 16.4471 197.922 16.4345 197.751 16.4513C197.583 16.4681 197.48 16.3677 197.341 16.3298C197.202 16.2899 197.038 16.3593 196.892 16.3078C196.549 16.1876 196.549 16.1876 196.317 16.2127C196.159 16.2294 195.995 16.2384 195.84 16.2668C195.657 16.3012 195.537 16.2417 195.411 16.1882C195.365 16.169 195.32 16.1324 195.281 16.1346C194.911 16.1665 194.537 16.1965 194.169 16.2479C193.976 16.2746 193.872 16.2053 193.743 16.1575C193.698 16.1403 193.649 16.1057 193.61 16.1098C193.291 16.1394 192.976 16.1768 192.656 16.2122C192.596 16.2652 192.528 16.3163 192.47 16.3732C192.41 16.432 192.326 16.4579 192.203 16.4569C192 16.4584 191.801 16.5416 191.597 16.4399C191.387 16.3363 191.37 16.3423 191.167 16.3691C190.91 16.404 190.635 16.3983 190.394 16.4759C190.352 16.4899 190.307 16.5272 190.308 16.5544C190.304 16.572 190.372 16.5968 190.414 16.6121C190.557 16.6577 190.721 16.5884 190.863 16.636C190.957 16.6665 191.034 16.7126 191.128 16.745C191.167 16.7584 191.225 16.756 191.277 16.7537C191.331 16.7513 191.383 16.7374 191.435 16.7389C191.483 16.7405 191.535 16.7518 191.573 16.769C191.751 16.8417 191.939 16.9085 192.098 16.9949C192.253 17.0794 192.398 17.02 192.552 17.0149C193.173 17.1467 193.173 17.1486 193.588 17.1027C193.692 17.0923 193.798 17.0798 193.904 17.081C193.95 17.0806 193.992 17.1154 194.037 17.1345C194.166 17.1919 194.289 17.2436 194.47 17.2111C194.624 17.1828 194.789 17.1757 194.947 17.157C195.159 17.1341 195.159 17.1341 195.522 17.2541C195.612 17.2845 195.709 17.28 195.825 17.2635C195.925 17.2492 196.028 17.2776 196.099 17.3336C196.129 17.3567 196.119 17.3957 196.129 17.4287C195.81 17.4622 195.488 17.486 195.178 17.5349C194.979 17.5656 194.888 17.4826 194.755 17.4388C194.71 17.4235 194.661 17.3908 194.619 17.395C194.304 17.4265 193.988 17.4619 193.672 17.5031C193.633 17.5073 193.585 17.5524 193.582 17.5797C193.576 17.6303 193.657 17.6784 193.773 17.6756C193.928 17.6725 194.079 17.6383 194.219 17.7171C194.335 17.7864 194.48 17.8165 194.651 17.7841C194.754 17.7658 194.864 17.765 194.967 17.7487C195.241 17.6999 195.489 17.7079 195.697 17.8387C195.855 17.8726 196.009 17.8384 196.161 17.8197C196.274 17.8053 196.383 17.7909 196.464 17.8272C196.636 17.9039 196.804 17.9805 197.039 17.9262C197.294 17.9789 197.489 18.0923 197.702 18.1842C197.802 18.2282 197.88 18.2529 197.996 18.2229C198.044 18.2109 198.102 18.2104 198.154 18.2042C198.26 18.1937 198.373 18.1637 198.47 18.1746C198.566 18.1876 198.647 18.2434 198.735 18.2778C198.777 18.295 198.825 18.3239 198.867 18.3216C199.029 18.3107 199.186 18.2901 199.344 18.2734C199.502 18.2586 199.66 18.2438 199.818 18.229C199.951 18.2787 200.087 18.3283 200.219 18.3779C200.432 18.355 200.645 18.332 200.854 18.311C201.089 18.2859 201.089 18.2879 201.429 18.4061C201.581 18.4595 201.742 18.4232 201.887 18.3969C202.128 18.3542 202.29 18.427 202.462 18.5036C202.497 18.519 202.562 18.5282 202.604 18.5201C202.771 18.4916 202.917 18.512 203.04 18.5831C203.127 18.6331 203.214 18.6558 203.321 18.6453C203.691 18.6056 204.062 18.564 204.433 18.5282C204.478 18.5239 204.529 18.5411 204.571 18.5563C204.901 18.6727 204.905 18.6785 205.146 18.6456C205.362 18.6167 205.562 18.6036 205.734 18.7094C205.769 18.7325 205.824 18.7652 205.863 18.763C206.127 18.7416 206.395 18.7182 206.656 18.6832C206.775 18.6668 206.859 18.672 206.953 18.7161C207.073 18.7717 207.18 18.839 207.376 18.8123C207.921 18.7363 207.924 18.7479 208.57 18.8775C208.615 18.8869 208.676 18.8709 208.728 18.8627C208.837 18.8424 208.918 18.8691 209.015 18.9132C209.232 19.0128 209.239 19.0069 209.445 18.984C209.603 18.9653 209.767 18.9602 209.922 18.9299C210.16 18.8853 210.319 18.9601 210.497 19.0308C210.639 19.0862 210.803 19.0383 210.955 19.0197C211.119 18.999 211.267 19.0038 211.39 19.0768C211.475 19.1268 211.565 19.1534 211.671 19.1429C212.042 19.1052 212.413 19.0635 212.783 19.0258C212.829 19.0216 212.884 19.0367 212.926 19.05C213.294 19.168 213.294 19.1739 213.658 19.1265C213.774 19.112 213.871 19.1074 213.958 19.1476C214.042 19.1859 214.133 19.2222 214.22 19.2586C214.378 19.2438 214.54 19.2387 214.694 19.2143C214.813 19.1959 214.897 19.203 214.991 19.2432C215.114 19.2949 215.218 19.3856 215.411 19.3394C215.511 19.3173 215.627 19.3223 215.727 19.3021C215.846 19.2759 215.927 19.2909 216.021 19.3408C216.137 19.4003 216.257 19.4617 216.444 19.4292C216.65 19.3927 216.869 19.3852 217.079 19.3564C217.195 19.34 217.276 19.355 217.369 19.4049C217.486 19.4683 217.619 19.5082 217.799 19.4816C218.166 19.4302 218.17 19.4399 218.528 19.56C218.619 19.5904 218.716 19.5858 218.832 19.5694C218.932 19.5551 219.035 19.5835 219.106 19.6394C219.174 19.7012 219.168 19.7402 219.175 19.7732ZM190.311 2.42823C190.205 2.43874 190.098 2.45119 189.942 2.28298C189.932 2.25386 189.939 2.21878 189.916 2.19364C189.864 2.14146 189.783 2.10507 189.686 2.09994C189.512 2.09343 189.303 2.16113 189.306 2.21171C189.31 2.25451 189.365 2.29109 189.472 2.32534C189.517 2.33864 189.553 2.36174 189.595 2.37701C189.717 2.42088 189.815 2.50778 189.992 2.46171C189.959 2.34127 189.975 2.40149 189.992 2.46171C189.976 2.5358 190.025 2.588 190.141 2.60856C190.174 2.61416 190.222 2.60991 190.248 2.59804C190.347 2.55449 190.363 2.49599 190.288 2.34276C190.275 2.36816 190.285 2.41284 190.314 2.42431C190.343 2.43577 190.414 2.42554 190.45 2.41165C190.54 2.37401 190.584 2.32501 190.562 2.2843C190.548 2.26298 190.487 2.23618 190.448 2.23647C190.381 2.23696 190.32 2.28023 190.311 2.42823ZM216.55 24.8107C216.314 24.8494 216.043 24.8377 215.809 24.9154C215.767 24.9293 215.725 24.9646 215.722 24.9919C215.719 25.0095 215.784 25.0343 215.822 25.0476C215.91 25.0781 216.006 25.0677 216.119 25.0571C216.29 25.0423 216.391 25.1311 216.523 25.1749C216.565 25.1882 216.62 25.1975 216.665 25.1933C216.926 25.168 217.184 25.1409 217.445 25.1117C217.49 25.1055 217.539 25.0915 217.577 25.0737C217.706 25.0163 217.693 24.9795 217.567 24.9376C217.428 24.8919 217.317 24.8148 217.175 24.7788C216.972 24.7278 216.766 24.7994 216.55 24.8107ZM198.244 26.3655C198.086 26.3822 197.931 26.3989 197.773 26.4156C197.721 26.4219 197.667 26.4242 197.618 26.4323C197.518 26.4467 197.445 26.4881 197.397 26.5527C197.471 26.6028 197.562 26.6313 197.662 26.6247C197.82 26.6119 197.974 26.5855 198.132 26.5785C198.303 26.5694 198.404 26.6563 198.536 26.7001C198.578 26.7134 198.63 26.715 198.678 26.7166C198.917 26.7226 199.061 26.6203 199.015 26.4786C198.982 26.3679 198.859 26.3026 198.711 26.3173C198.556 26.3321 198.398 26.3488 198.244 26.3655ZM217.632 21.9257C217.671 21.8924 217.713 21.8687 217.732 21.8394C217.789 21.7397 217.766 21.6659 217.659 21.5888C217.529 21.4944 217.372 21.5597 217.227 21.5705C217.191 21.5727 217.153 21.6139 217.134 21.6393C217.121 21.657 217.121 21.694 217.141 21.7035C217.299 21.7802 217.467 21.851 217.632 21.9257ZM189.613 16.3804C189.458 16.3971 189.3 16.41 189.146 16.4325C189.107 16.4386 189.072 16.4759 189.049 16.5013C189.008 16.5484 189.053 16.6123 189.186 16.6171C189.337 16.6238 189.495 16.5896 189.653 16.5729C189.853 16.5519 189.972 16.479 189.897 16.4173C189.826 16.3575 189.729 16.3465 189.613 16.3804ZM19.8107 13.4619C19.9138 13.4514 20.0202 13.4428 20.1233 13.4285C20.22 13.4141 20.2939 13.3708 20.3418 13.3062C20.2608 13.2562 20.1703 13.2296 20.0704 13.2361C19.9124 13.249 19.7577 13.2657 19.6031 13.2863C19.5064 13.2987 19.4132 13.3422 19.3911 13.4085C19.3689 13.4593 19.5851 13.4869 19.8107 13.4619ZM175.942 12.0208C175.984 12.038 176.026 12.0727 176.068 12.0724C176.171 12.0717 176.278 12.0592 176.374 12.039C176.416 12.031 176.448 11.9957 176.467 11.9683C176.48 11.9507 176.477 11.9196 176.457 11.9041C176.363 11.8114 175.989 11.8472 175.928 11.9547C175.922 11.9742 175.939 11.9994 175.942 12.0208ZM165.691 1.43637C165.701 1.46744 165.704 1.49856 165.717 1.52961C165.744 1.58781 165.815 1.63012 165.918 1.65857C165.999 1.60931 166.04 1.55452 166.037 1.49615C166.033 1.46503 166.023 1.43393 166.01 1.40288C165.984 1.34468 165.913 1.30239 165.809 1.27395C165.729 1.32125 165.691 1.37603 165.691 1.43637ZM225.119 26.5077C225.09 26.5332 225.061 26.5588 225.029 26.5824C225.116 26.6382 225.197 26.6551 225.258 26.6235C225.297 26.6037 225.319 26.5744 225.348 26.5489C225.26 26.4931 225.183 26.4781 225.119 26.5077ZM223.114 26.7871C223.156 26.8043 223.195 26.8274 223.241 26.8387C223.315 26.8577 223.382 26.8241 223.433 26.7536C223.391 26.7364 223.353 26.7133 223.307 26.702C223.233 26.6831 223.165 26.7167 223.114 26.7871ZM224.383 26.4216C224.36 26.4685 224.406 26.5071 224.525 26.5393C224.554 26.5138 224.593 26.4902 224.612 26.4628C224.644 26.4178 224.589 26.3773 224.472 26.347C224.44 26.3706 224.411 26.3961 224.383 26.4216ZM217.559 24.3731C217.537 24.42 217.582 24.4586 217.702 24.4908C217.731 24.4653 217.769 24.4416 217.789 24.4142C217.821 24.3692 217.765 24.3288 217.649 24.2985C217.617 24.3221 217.588 24.3476 217.559 24.3731ZM208.186 10.6678C208.157 10.6933 208.129 10.7188 208.096 10.7424C208.184 10.7982 208.265 10.8151 208.326 10.7835C208.364 10.7638 208.387 10.7344 208.416 10.7089C208.328 10.6531 208.251 10.6381 208.186 10.6678ZM199.249 3.4257C199.327 3.43876 199.391 3.41105 199.445 3.33863C199.403 3.32142 199.364 3.29834 199.319 3.28699C199.245 3.26807 199.177 3.30167 199.126 3.37212C199.168 3.39127 199.21 3.40847 199.249 3.4257ZM194.527 3.00278C194.499 3.0283 194.47 3.05382 194.438 3.07741C194.525 3.13322 194.606 3.15014 194.667 3.11855C194.705 3.0988 194.728 3.06944 194.757 3.04393C194.669 2.98811 194.592 2.97506 194.527 3.00278ZM162.517 1.45762C162.489 1.48314 162.46 1.50865 162.428 1.53225C162.515 1.58806 162.596 1.60498 162.657 1.57339C162.695 1.55364 162.718 1.52428 162.747 1.49876C162.659 1.44295 162.582 1.4299 162.517 1.45762ZM3.30617 18.4587C3.26411 18.4415 3.2221 18.4243 3.18326 18.4051C3.0901 18.4583 3.06143 18.5072 3.11329 18.5438C3.14571 18.5669 3.19414 18.5802 3.2362 18.5974C3.33258 18.5441 3.35482 18.4972 3.30617 18.4587Z" fill="#FFE492"/>
<path d="M21.9536 10.9272C21.583 10.9669 21.2157 11.0162 20.8449 11.0423C20.6483 11.0554 20.578 11.1396 20.4979 11.218C20.4338 11.2807 20.3598 11.3007 20.2405 11.3133C19.2349 11.416 18.2325 11.5245 17.2302 11.631C17.1042 11.6067 17.0427 11.5662 17.0713 11.5174C17.0873 11.4881 17.1257 11.4469 17.1644 11.4428C17.8508 11.3658 18.534 11.2868 19.2238 11.2254C19.4205 11.2084 19.4747 11.1223 19.5742 11.0516C19.6063 11.028 19.6319 10.9928 19.6737 10.9788C19.7155 10.963 19.7768 10.9645 19.8316 10.9602C20.9403 10.8412 22.049 10.7241 23.1577 10.6051C23.2837 10.6295 23.3453 10.6699 23.3166 10.7187C23.3007 10.748 23.2622 10.7892 23.2236 10.7934C22.7981 10.8373 22.3758 10.8813 21.9536 10.9272Z" fill="#FFE492"/>
<path d="M225.136 20.7382C224.968 20.7627 224.756 20.7974 224.581 20.6858C224.497 20.6319 224.406 20.6151 224.297 20.6275C224.139 20.6482 223.977 20.6649 223.816 20.6777C223.774 20.68 223.719 20.659 223.677 20.6418C223.587 20.6074 223.509 20.5496 223.412 20.5348C223.315 20.5199 223.199 20.5635 223.099 20.5545C222.967 20.5419 222.912 20.4898 222.947 20.4409C222.966 20.4135 223.005 20.3743 223.046 20.3681C223.643 20.2918 223.646 20.2918 223.814 20.3606C223.943 20.4141 224.063 20.4736 224.247 20.4391C224.401 20.4108 224.566 20.4037 224.724 20.385C224.943 20.3601 224.943 20.362 225.299 20.482C225.389 20.5125 225.486 20.5099 225.602 20.4915C225.702 20.4772 225.799 20.5076 225.88 20.5595C225.829 20.6261 225.755 20.6694 225.655 20.6818C225.494 20.7025 225.336 20.7172 225.136 20.7382Z" fill="#FFE492"/>
<path d="M219.197 20.1602C219.603 20.1163 220.012 20.0782 220.418 20.0285C220.586 20.0077 220.718 20.0282 220.835 20.0936C220.961 20.1648 221.103 20.1579 221.258 20.1432C221.354 20.1347 221.448 20.1651 221.513 20.2192C221.539 20.2405 221.533 20.2795 221.543 20.3106C221.188 20.3483 220.83 20.388 220.473 20.4218C220.431 20.426 220.379 20.4069 220.34 20.3916C220.253 20.3591 220.178 20.3011 220.085 20.2901C219.884 20.2643 219.685 20.3184 219.482 20.3296C219.385 20.3342 219.291 20.3057 219.226 20.2535C219.2 20.2284 219.207 20.1913 219.197 20.1602Z" fill="#FFE492"/>
<path d="M72.2085 3.61664C72.6307 3.57073 73.0529 3.5268 73.4751 3.48089C73.601 3.50722 73.6594 3.54571 73.6339 3.59456C73.618 3.62387 73.5796 3.66502 73.5409 3.6692C72.6965 3.76295 71.8521 3.8528 71.0109 3.94264C70.885 3.91631 70.8266 3.87782 70.8521 3.82897C70.868 3.79966 70.9064 3.75851 70.9451 3.75433C71.3641 3.70651 71.7863 3.66254 72.2085 3.61664Z" fill="#FFE492"/>
<path d="M7.14911 14.9143C6.95889 14.9196 6.75952 14.9938 6.54631 14.9404C6.50432 14.9309 6.44604 14.8999 6.44914 14.8822C6.45538 14.8526 6.49382 14.815 6.53566 14.8029C6.71911 14.7524 6.94804 14.7448 7.04058 14.6066C7.08523 14.5355 7.1689 14.5113 7.28167 14.4967C7.40087 14.4801 7.48472 14.4854 7.57852 14.5259C7.70143 14.5781 7.80533 14.6756 7.99844 14.623C8.00834 14.6544 8.0311 14.6896 8.02163 14.7191C8.01217 14.7487 7.97051 14.7765 7.93197 14.7984C7.89664 14.8183 7.84834 14.8364 7.80324 14.8426C7.59058 14.8678 7.37789 14.889 7.14911 14.9143Z" fill="#FFE492"/>
<path d="M174.923 13.8797C175.081 13.8629 175.246 13.8539 175.4 13.8255C175.523 13.8031 175.6 13.8162 175.697 13.8623C175.862 13.9431 175.872 13.9352 176.275 13.944C176.32 13.9456 176.375 13.9745 176.401 13.9997C176.418 14.0132 176.395 14.0505 176.376 14.0701C176.347 14.0957 176.305 14.1292 176.267 14.1295C176.012 14.1372 175.755 14.2543 175.506 14.1234C175.379 14.058 175.24 14.0277 175.07 14.0583C174.967 14.0766 174.857 14.0852 174.751 14.0938C174.647 14.1024 174.541 14.0817 174.476 14.0236C174.382 13.9384 174.436 13.9048 174.604 13.9094C174.711 13.9125 174.817 13.8903 174.923 13.8797Z" fill="#FFE492"/>
<path d="M233.464 27.3634C233.667 27.3422 233.87 27.3171 234.076 27.2999C234.118 27.2956 234.17 27.3169 234.209 27.3304C234.364 27.3882 234.342 27.4885 234.349 27.5769C234.353 27.6693 233.996 27.7466 233.844 27.6848C233.675 27.6153 233.523 27.5359 233.292 27.5809C233.201 27.5973 233.095 27.5627 233.036 27.5061C232.949 27.4242 232.997 27.3905 233.161 27.3951C233.258 27.3983 233.361 27.376 233.464 27.3634Z" fill="#FFE492"/>
<path d="M130.896 0.683183C131.106 0.66013 131.315 0.625362 131.525 0.621861C131.647 0.619002 131.709 0.683059 131.68 0.730197C131.665 0.759644 131.626 0.800989 131.587 0.805184C131.169 0.855201 130.75 0.897403 130.331 0.943508C130.208 0.91704 130.146 0.87644 130.175 0.829301C130.191 0.799855 130.229 0.760465 130.268 0.754314C130.477 0.725396 130.687 0.706236 130.896 0.683183Z" fill="#FFE492"/>
<path d="M229.409 20.905C229.612 20.884 229.818 20.8531 230.021 20.8418C230.128 20.8371 230.212 20.8815 230.225 20.9322C230.232 20.9557 230.181 20.9971 230.139 21.0072C229.849 21.0759 229.536 21.086 229.233 21.1215C229.137 21.132 229.033 21.1015 228.975 21.0471C228.887 20.9636 228.935 20.932 229.1 20.9366C229.203 20.9378 229.306 20.9156 229.409 20.905Z" fill="#FFE492"/>
<path d="M180.257 14.1261C180.36 14.1154 180.466 14.089 180.566 14.0961C180.673 14.1052 180.741 14.1618 180.774 14.2188C180.81 14.2835 180.807 14.3446 180.775 14.4001C180.724 14.4951 180.672 14.4915 180.553 14.4293C180.368 14.3322 180.355 14.3441 179.991 14.3508C179.949 14.3511 179.897 14.3219 179.865 14.2965C179.816 14.2575 179.842 14.1962 179.954 14.1599C180.038 14.1336 180.154 14.1367 180.257 14.1261Z" fill="#FFE492"/>
<path d="M221.846 20.2814C221.997 20.2646 222.149 20.238 222.3 20.2369C222.407 20.2341 222.491 20.2786 222.501 20.3276C222.504 20.3511 222.456 20.3906 222.417 20.4027C222.234 20.457 222.028 20.4624 221.828 20.4816C221.734 20.4901 221.631 20.4595 221.572 20.405C221.485 20.3233 221.536 20.2857 221.694 20.2963C221.743 20.2998 221.794 20.2877 221.846 20.2814Z" fill="#FFE492"/>
<path d="M197.969 17.9293C197.744 17.9545 197.531 17.9266 197.546 17.8756C197.569 17.8087 197.662 17.7649 197.758 17.7524C197.913 17.7317 198.068 17.7148 198.226 17.7019C198.326 17.6933 198.416 17.722 198.497 17.7724C198.449 17.8355 198.375 17.8811 198.279 17.8956C198.179 17.9101 198.072 17.9187 197.969 17.9293Z" fill="#FFE492"/>
<path d="M196.487 17.6837C196.639 17.6668 196.79 17.6402 196.942 17.6391C197.048 17.6364 197.132 17.6808 197.142 17.7298C197.146 17.7533 197.098 17.7929 197.059 17.8049C196.876 17.8592 196.669 17.8647 196.469 17.8838C196.376 17.8923 196.273 17.8617 196.214 17.8073C196.126 17.7256 196.178 17.6879 196.336 17.6985C196.384 17.7021 196.436 17.6899 196.487 17.6837Z" fill="#FFE492"/>
<path d="M178.423 14.1159C178.574 14.0991 178.726 14.0725 178.877 14.0694C178.984 14.0667 179.068 14.1112 179.078 14.1601C179.081 14.1836 179.033 14.2212 178.995 14.2352C178.811 14.2895 178.605 14.295 178.405 14.3141C178.312 14.3227 178.208 14.292 178.15 14.2376C178.062 14.1559 178.113 14.1182 178.271 14.1288C178.32 14.1324 178.371 14.1202 178.423 14.1159Z" fill="#FFE492"/>
<path d="M177.574 14.0028C177.735 13.9859 177.787 13.9758 177.838 13.9754C177.935 13.9747 178.035 13.9974 178.094 14.0539C178.181 14.1356 178.13 14.1595 177.972 14.1646C177.769 14.17 177.569 14.2127 177.366 14.2221C177.26 14.2268 177.175 14.1803 177.169 14.1313C177.165 14.1078 177.213 14.0663 177.252 14.0582C177.387 14.0277 177.535 14.009 177.574 14.0028Z" fill="#FFE492"/>
<path d="M195.092 2.23129C194.989 2.24188 194.879 2.2702 194.782 2.2611C194.653 2.24831 194.601 2.19566 194.633 2.14631C194.653 2.11866 194.688 2.07911 194.726 2.07293C194.933 2.04389 195.142 2.02463 195.348 2.00345C195.471 2.03201 195.526 2.07285 195.494 2.1222C195.475 2.14985 195.44 2.18743 195.401 2.19558C195.301 2.21597 195.195 2.2207 195.092 2.23129Z" fill="#FFE492"/>
<path d="M69.8953 3.8597C69.9952 3.85699 70.0856 3.88189 70.1634 3.93049C70.1154 3.99381 70.0448 4.03565 69.9482 4.05407C69.8999 4.0623 69.8451 4.06861 69.7935 4.07096C69.6936 4.07564 69.6031 4.04877 69.5254 4.00017C69.5733 3.93686 69.6472 3.89499 69.7405 3.87659C69.7888 3.86836 69.8437 3.86599 69.8953 3.8597Z" fill="#FFE492"/>
<path d="M228.304 20.9007C228.3 20.8436 228.497 20.7773 228.674 20.7779C228.768 20.7792 228.864 20.806 228.92 20.8587C229.004 20.9387 228.956 20.9705 228.798 20.9658C228.701 20.9626 228.598 20.9968 228.501 20.9916C228.392 20.9905 228.327 20.9477 228.304 20.9007Z" fill="#FFE492"/>
<path d="M181.19 14.3608C181.186 14.3392 181.17 14.3137 181.18 14.2939C181.24 14.185 181.611 14.1487 181.708 14.2426C181.724 14.2602 181.731 14.2898 181.718 14.3076C181.699 14.3353 181.664 14.3711 181.625 14.3793C181.525 14.3997 181.422 14.4103 181.319 14.4131C181.274 14.4134 181.232 14.3802 181.19 14.3608Z" fill="#FFE492"/>
<path d="M8.29444 14.5925C7.91426 14.6367 7.90779 14.6328 7.97481 14.5338C8.03545 14.4448 8.14794 14.3908 8.31238 14.3896C8.36074 14.3892 8.41228 14.3849 8.45425 14.3924C8.49946 14.402 8.56412 14.4211 8.57396 14.4447C8.59363 14.4898 8.53911 14.5395 8.44262 14.5737C8.40081 14.5897 8.34598 14.5862 8.29444 14.5925Z" fill="#FFE492"/>
<path d="M74.6587 3.55931C74.5461 3.59366 74.4493 3.58257 74.378 3.52002C74.3066 3.45748 74.4189 3.38172 74.6155 3.36251C74.667 3.35818 74.7217 3.34201 74.7701 3.34954C74.8185 3.35509 74.8671 3.37836 74.8963 3.40179C74.9481 3.44083 74.9163 3.49431 74.8134 3.54042C74.7716 3.55847 74.7103 3.55498 74.6587 3.55931Z" fill="#FFE492"/>
<path d="M227.632 20.7545C227.661 20.7285 227.689 20.7026 227.721 20.6786C227.84 20.7113 227.892 20.7505 227.86 20.7963C227.841 20.8242 227.803 20.8482 227.774 20.8742C227.655 20.8414 227.606 20.8002 227.632 20.7545Z" fill="#FFE492"/>
<path d="M13.5298 37.2168C13.5296 37.1931 13.5744 37.1553 13.6097 37.1471C13.6772 37.1327 13.761 37.1598 13.8193 37.2146C13.9002 37.2931 13.8523 37.3349 13.7042 37.3143C13.6012 37.2993 13.5301 37.2603 13.5298 37.2168Z" fill="#FFE492"/>
<path d="M182.492 12.5046C182.534 12.5221 182.576 12.5395 182.614 12.559C182.56 12.6324 182.493 12.6645 182.422 12.6453C182.377 12.6338 182.338 12.6104 182.296 12.5929C182.35 12.5195 182.414 12.4914 182.492 12.5046Z" fill="#FFE492"/>
<path d="M181.376 12.4198C181.44 12.3898 181.517 12.405 181.607 12.4615C181.579 12.4874 181.553 12.5172 181.518 12.5372C181.457 12.5692 181.376 12.554 181.289 12.4955C181.315 12.4716 181.344 12.4457 181.376 12.4198Z" fill="#FFE492"/>
<path d="M180.522 12.5105C180.564 12.528 180.606 12.5454 180.645 12.5649C180.59 12.6383 180.526 12.6703 180.452 12.6512C180.407 12.6397 180.368 12.6163 180.326 12.5988C180.38 12.5254 180.445 12.4953 180.522 12.5105Z" fill="#FFE492"/>
<path d="M179.889 12.407C179.937 12.4462 179.912 12.4939 179.819 12.5481C179.777 12.5306 179.729 12.5171 179.696 12.4936C179.645 12.4564 179.67 12.4067 179.766 12.3525C179.805 12.372 179.847 12.3895 179.889 12.407Z" fill="#FFE492"/>
</svg>
