<svg width="266" height="26" viewBox="0 0 266 26" fill="none" xmlns="http://www.w3.org/2000/svg">
<path d="M248.824 13.6294C248.461 13.6498 248.095 13.6637 247.739 13.6942C247.508 13.7132 247.41 13.6574 247.256 13.6282C247.204 13.618 247.149 13.5977 247.102 13.6002C246.743 13.6205 246.384 13.6434 246.025 13.6663C245.915 13.7158 245.845 13.7818 245.676 13.8059C245.512 13.8288 245.317 13.8288 245.134 13.8402C244.892 13.8542 244.651 13.8682 244.409 13.8809C244.288 13.8872 244.189 13.9113 244.149 13.957C244.141 13.9647 244.222 13.9837 244.266 13.9951C244.412 14.0332 244.555 14.0764 244.716 14.1056C244.87 14.1335 245.061 14.0878 245.226 14.1234C245.596 14.2034 245.6 14.2021 245.882 14.1868C246.123 14.1729 246.365 14.1577 246.607 14.1475C246.655 14.145 246.71 14.164 246.761 14.1742C246.915 14.2021 247.014 14.2656 247.241 14.2415C247.413 14.2224 247.604 14.2186 247.783 14.2084C247.933 14.2453 248.073 14.2872 248.234 14.3164C248.384 14.3443 248.428 14.3659 248.347 14.4027C248.274 14.437 248.172 14.451 248.036 14.4535C247.915 14.4548 247.794 14.4662 247.673 14.4725C247.611 14.4763 247.552 14.4789 247.494 14.4827C247.263 14.4967 247.263 14.4967 246.842 14.4154C246.677 14.3837 246.49 14.4281 246.332 14.3976C246.226 14.3773 246.134 14.3468 246.032 14.3253C245.988 14.3164 245.918 14.3151 245.863 14.3176C245.68 14.3265 245.497 14.3329 245.321 14.3494C245.197 14.3608 245.123 14.3964 245.138 14.4319C245.142 14.4459 245.229 14.4662 245.281 14.4675C245.398 14.47 245.523 14.4522 245.636 14.4611C245.746 14.47 245.86 14.4954 245.94 14.5233C246.105 14.5817 246.292 14.5297 246.45 14.5449C246.614 14.5614 246.75 14.6122 246.908 14.6427C246.948 14.6503 247.025 14.6376 247.087 14.6338C247.267 14.6249 247.446 14.6173 247.626 14.6084C247.776 14.6452 247.937 14.6782 248.073 14.7201C248.318 14.7963 248.582 14.8255 248.901 14.7887C249.08 14.7684 249.256 14.776 249.399 14.8255C249.546 14.8763 249.714 14.8712 249.901 14.8611C250.073 14.8509 250.249 14.823 250.425 14.8585C250.806 14.9373 250.81 14.9411 251.26 14.9106C251.396 14.9017 251.498 14.8992 251.601 14.9284C251.696 14.955 251.799 14.9779 251.898 15.0033C252.077 14.9944 252.261 14.9855 252.44 14.9754C252.671 14.9614 252.799 14.9792 252.854 15.0503C252.887 15.0934 252.902 15.1328 252.982 15.162C253.078 15.1976 253.18 15.1963 253.319 15.1861C253.451 15.1772 253.547 15.1633 253.601 15.1176C253.623 15.0985 253.667 15.0807 253.708 15.0655C253.741 15.0541 253.792 15.0363 253.821 15.0388C253.876 15.0439 253.95 15.0579 253.968 15.0744C254.147 15.228 254.147 15.2293 254.331 15.2737C254.532 15.3233 254.741 15.3677 254.924 15.4236C255.089 15.4731 255.254 15.4515 255.433 15.4515C255.569 15.4515 255.657 15.4845 255.646 15.5175C255.639 15.5366 255.587 15.5645 255.543 15.567C255.184 15.5924 254.822 15.614 254.459 15.6318C254.415 15.6343 254.36 15.6115 254.309 15.6001C254.206 15.5772 254.114 15.5416 254.005 15.534C253.895 15.5264 253.766 15.5455 253.645 15.5518C253.525 15.5582 253.396 15.5747 253.286 15.5645C253.177 15.5544 253.089 15.5175 252.986 15.4934C252.938 15.482 252.872 15.4655 252.832 15.4693C252.565 15.4998 252.367 15.4579 252.176 15.402C252.136 15.3906 252.066 15.3829 252.015 15.3855C251.59 15.4071 251.169 15.4325 250.744 15.4566C250.571 15.4667 250.432 15.4223 250.396 15.3474C250.377 15.3055 250.341 15.2636 250.341 15.2217C250.341 15.1455 250.139 15.1036 249.993 15.1125C249.751 15.1252 249.505 15.1353 249.267 15.1544C249.073 15.1696 248.908 15.1544 248.776 15.1087C248.622 15.0566 248.446 15.0668 248.271 15.0807C248.139 15.0909 248.102 15.1328 248.109 15.2382C248.117 15.3233 248.054 15.3499 247.816 15.3639C247.516 15.3817 247.212 15.3994 246.908 15.4134C246.86 15.4159 246.805 15.3944 246.757 15.3829C246.655 15.3601 246.563 15.3233 246.453 15.3156C246.343 15.3068 246.215 15.3258 246.094 15.3334C245.973 15.3398 245.845 15.3575 245.735 15.3487C245.625 15.3398 245.534 15.3017 245.435 15.2776C245.387 15.2661 245.328 15.2496 245.281 15.2522C245.039 15.2623 244.797 15.2776 244.555 15.2915C244.284 15.3068 244.284 15.3068 243.899 15.228C243.724 15.1925 243.548 15.2204 243.376 15.2306C243.192 15.2407 243.02 15.2458 242.877 15.195C242.782 15.162 242.676 15.1417 242.562 15.148C242.258 15.1633 241.958 15.1823 241.654 15.1976C241.602 15.2001 241.533 15.1938 241.492 15.1823C241.298 15.129 241.108 15.0871 240.836 15.1138C240.602 15.1366 240.349 15.1379 240.115 15.1595C239.986 15.1709 239.928 15.2115 239.953 15.2433C239.968 15.2598 240.045 15.2788 240.096 15.2788C240.214 15.2801 240.342 15.261 240.452 15.2687C240.679 15.2839 240.792 15.3906 241.089 15.3613C241.265 15.3436 241.448 15.3372 241.632 15.3321C241.679 15.3309 241.73 15.355 241.782 15.3677C241.928 15.402 242.057 15.4464 242.269 15.4236C242.445 15.4058 242.632 15.4007 242.811 15.3906C243.097 15.3741 243.097 15.3753 243.467 15.4528C243.643 15.4896 243.819 15.4604 243.991 15.4515C244.119 15.4452 244.24 15.4325 244.343 15.4502C244.5 15.4769 244.614 15.5378 244.808 15.534C244.991 15.5302 245.171 15.5124 245.354 15.5061C245.468 15.5023 245.574 15.5226 245.665 15.5569C245.761 15.5912 245.863 15.6064 245.988 15.5988C246.167 15.5886 246.351 15.5759 246.534 15.5696C246.585 15.5683 246.644 15.5797 246.691 15.5899C246.794 15.6128 246.893 15.6394 246.992 15.6635C247.171 15.6559 247.355 15.6534 247.53 15.6382C247.666 15.6267 247.761 15.6318 247.871 15.6572C248.01 15.6915 248.124 15.7524 248.351 15.7232C248.465 15.7093 248.597 15.7131 248.71 15.7004C248.849 15.6839 248.945 15.6902 249.044 15.7283C249.23 15.8007 249.465 15.8019 249.707 15.774C249.971 15.7435 250.168 15.7791 250.366 15.835C250.575 15.8934 250.575 15.8921 250.736 16.033C250.784 16.0737 250.919 16.0927 251.033 16.0851C251.224 16.0724 251.389 16.0787 251.528 16.127C251.674 16.1791 251.85 16.1727 252.03 16.1587C252.268 16.1397 252.506 16.1232 252.7 16.1968C252.795 16.2324 252.898 16.2413 253.026 16.2324C253.389 16.2095 253.755 16.1956 254.111 16.1676C254.327 16.1499 254.451 16.1905 254.598 16.2248C254.796 16.2717 255.012 16.3136 255.012 16.414C255.012 16.4305 255.063 16.4495 255.107 16.4622C255.203 16.4889 255.305 16.5117 255.404 16.5371C255.551 16.5752 255.694 16.607 255.895 16.5866C256.071 16.5701 256.258 16.5651 256.437 16.5536C256.617 16.5422 256.782 16.5358 256.943 16.5841C257.13 16.6387 257.328 16.6908 257.54 16.7314C257.69 16.7606 257.888 16.7111 258.05 16.7504C258.148 16.7746 258.244 16.8025 258.35 16.8228C258.394 16.8317 258.464 16.8253 258.522 16.8228C258.643 16.8177 258.768 16.8139 258.885 16.8012C259.02 16.7873 259.123 16.7898 259.226 16.819C259.321 16.8457 259.416 16.8825 259.526 16.8901C259.691 16.9015 259.874 16.8507 260.039 16.9092C260.123 16.9384 260.23 16.9663 260.339 16.9752C260.449 16.9841 260.578 16.965 260.695 16.9663C260.746 16.9663 260.808 16.9866 260.838 17.0031C260.856 17.012 260.83 17.0361 260.805 17.0488C260.772 17.0641 260.724 17.0844 260.677 17.0869C260.314 17.1098 259.951 17.1288 259.588 17.1504C259.372 17.1631 259.372 17.1631 258.936 17.0831C258.834 17.0641 258.72 17.0679 258.592 17.0768C258.42 17.0882 258.244 17.1098 258.064 17.0869C257.83 17.0006 257.54 16.9929 257.232 17.026C257.104 17.0399 256.987 17.0399 256.892 17.0158C256.69 16.9676 256.478 16.9231 256.298 16.866C256.159 16.8215 256.093 16.8177 256.034 16.8787C256.016 16.8977 255.998 16.918 256.001 16.9358C256.023 16.9993 256.064 17.0615 256.086 17.125C256.093 17.1428 256.064 17.1631 256.045 17.1821C255.987 17.2355 255.91 17.2317 255.782 17.1872C255.653 17.1428 255.499 17.1136 255.294 17.1339C255.118 17.1517 254.928 17.1491 254.752 17.1682C254.481 17.1961 254.29 17.1555 254.096 17.1009C254.056 17.0895 253.986 17.0831 253.935 17.0856C253.389 17.1149 252.847 17.1479 252.301 17.1771C252.184 17.1834 252.077 17.1644 251.986 17.1301C251.89 17.0958 251.784 17.078 251.667 17.0844C251.183 17.111 250.7 17.1352 250.216 17.1682C250.018 17.1822 249.861 17.1656 249.725 17.1212C249.623 17.0882 249.527 17.078 249.399 17.0818C249.26 17.0856 249.161 17.0983 249.091 17.1352C249.025 17.1707 249.073 17.1923 249.219 17.2202C249.377 17.2507 249.524 17.2901 249.674 17.3256C249.795 17.3206 249.916 17.3104 250.033 17.3116C250.084 17.3116 250.132 17.3345 250.183 17.3472C250.33 17.384 250.465 17.4209 250.674 17.4005C250.85 17.3828 251.037 17.379 251.216 17.3675C251.465 17.3536 251.465 17.3536 251.868 17.4336C251.971 17.4539 252.081 17.4526 252.213 17.4412C252.326 17.4323 252.444 17.4501 252.524 17.4881C252.557 17.5034 252.546 17.5288 252.477 17.6126C252.477 17.6748 252.554 17.6469 252.579 17.6062C252.62 17.5478 252.543 17.5288 252.396 17.5605C252.293 17.5834 252.242 17.6164 252.268 17.6431C252.283 17.657 252.352 17.6748 252.477 17.6126C252.799 17.5364 253.045 17.5275 253.279 17.5072C253.418 17.4958 253.506 17.5008 253.616 17.5339C253.748 17.5732 253.88 17.6151 254.096 17.5948C254.331 17.572 254.58 17.5694 254.818 17.5504C255.038 17.5326 255.151 17.5885 255.291 17.6215C255.459 17.6608 255.646 17.6164 255.8 17.6392C255.961 17.6621 256.075 17.718 256.261 17.7281C256.533 17.6938 256.705 17.7573 256.91 17.7992C257.071 17.831 257.262 17.803 257.434 17.7891C257.628 17.7738 257.789 17.7878 257.925 17.8335C258.079 17.8856 258.251 17.8741 258.427 17.8627C258.837 17.8373 258.852 17.8335 259.09 17.9033C259.262 17.9541 259.427 17.9313 259.599 17.9249C259.75 17.9592 259.896 17.996 260.054 18.0265C260.094 18.0341 260.171 18.0214 260.233 18.0176C260.413 18.0075 260.596 17.9973 260.775 17.9872C260.896 17.9808 261.025 17.9618 261.134 17.9694C261.244 17.9783 261.336 18.0151 261.435 18.0392C261.534 18.0633 261.637 18.0875 261.732 18.1129C261.878 18.1509 262.017 18.1827 262.223 18.1636C262.399 18.1471 262.582 18.1421 262.765 18.1306C262.996 18.1167 262.988 18.1205 263.417 18.1967C263.648 18.2386 263.886 18.1878 264.121 18.1827C264.238 18.1802 264.351 18.1941 264.432 18.2309C264.465 18.2462 264.454 18.2716 264.465 18.2932C263.86 18.3274 263.252 18.3566 262.655 18.3985C262.424 18.4151 262.303 18.3693 262.179 18.3312C261.974 18.2703 261.702 18.3592 261.508 18.2805C261.391 18.2335 261.222 18.2068 261.021 18.2297C260.904 18.2424 260.779 18.2411 260.658 18.2525C260.35 18.2805 260.068 18.2817 259.823 18.1941C259.739 18.1636 259.618 18.1471 259.53 18.1179C259.427 18.0862 259.328 18.0684 259.207 18.0748C258.661 18.1052 258.119 18.1357 257.577 18.1687C257.529 18.1713 257.482 18.1903 257.441 18.2043C257.339 18.2398 257.372 18.2678 257.537 18.2906C257.591 18.2982 257.635 18.3147 257.687 18.3274C257.786 18.3516 257.877 18.3897 257.987 18.3985C258.097 18.4074 258.225 18.3897 258.346 18.3833C258.467 18.377 258.595 18.3579 258.705 18.3655C258.815 18.3744 258.907 18.4112 259.009 18.4341C259.057 18.4455 259.116 18.4646 259.163 18.4633C259.405 18.4557 259.643 18.4417 259.885 18.4303C260.035 18.4646 260.164 18.5141 260.343 18.5255C260.457 18.5331 260.578 18.5192 260.695 18.5217C260.746 18.523 260.812 18.542 260.838 18.5585C260.852 18.5687 260.805 18.5941 260.768 18.6068C260.629 18.655 260.438 18.6461 260.266 18.6614C260.079 18.6779 259.911 18.6728 259.768 18.6233C259.673 18.5903 259.566 18.5725 259.449 18.5788C259.145 18.5954 258.845 18.6144 258.54 18.6284C258.489 18.6309 258.427 18.6195 258.379 18.6106C257.995 18.5331 257.995 18.5306 257.723 18.5471C257.324 18.5712 257.324 18.5712 257.057 18.5039C257.005 18.4912 256.95 18.4671 256.906 18.4684C256.481 18.4887 256.06 18.509 255.639 18.5382C255.499 18.5471 255.404 18.5471 255.302 18.5141C255.214 18.4862 255.111 18.4544 255.001 18.4468C254.888 18.4392 254.763 18.4582 254.642 18.4646C254.521 18.4709 254.393 18.4874 254.287 18.4773C254.177 18.4671 254.081 18.4316 253.986 18.4062C253.887 18.3795 253.781 18.3808 253.645 18.3909C253.228 18.4201 253.224 18.4163 252.81 18.3376C252.762 18.3287 252.7 18.3186 252.649 18.3211C252.345 18.3363 252.044 18.3554 251.74 18.3706C251.623 18.377 251.509 18.3605 251.429 18.3236C251.396 18.3084 251.407 18.283 251.385 18.2335C251.359 18.222 251.388 18.2424 251.396 18.2614C251.451 18.2589 251.517 18.2614 251.557 18.2513C251.66 18.2271 251.711 18.1954 251.685 18.1687C251.671 18.1547 251.601 18.137 251.557 18.137C251.476 18.137 251.407 18.1649 251.385 18.2335C251.154 18.2754 250.908 18.2843 250.67 18.3046C250.531 18.3173 250.443 18.3109 250.333 18.2779C250.201 18.2373 250.066 18.1979 249.85 18.2182C249.615 18.2411 249.366 18.2449 249.124 18.2627C248.846 18.283 248.725 18.1687 248.49 18.1713C248.249 18.1738 248.007 18.1954 247.765 18.2106C247.552 18.2233 247.552 18.2233 247.113 18.1408C246.951 18.1103 246.761 18.1548 246.603 18.123C246.497 18.1027 246.406 18.0722 246.303 18.0506C246.259 18.0418 246.189 18.0417 246.134 18.0443C245.83 18.0595 245.523 18.0697 245.229 18.0976C244.896 18.1306 244.643 18.0951 244.405 18.0202C244.105 18.0341 243.801 18.0417 243.504 18.0659C243.288 18.0837 243.163 18.0418 243.016 18.0075C242.965 17.996 242.921 17.977 242.866 17.9719C242.811 17.9668 242.745 17.977 242.687 17.9808C242.445 17.9948 242.196 18.0011 241.961 18.024C241.672 18.0532 241.562 17.9491 241.338 17.9364C241.188 17.9986 241.108 18.0836 240.811 18.09C240.569 18.0951 240.327 18.1154 240.085 18.1294C239.964 18.1357 239.844 18.1433 239.723 18.1497C239.528 18.1611 239.437 18.2106 239.477 18.2868C239.499 18.3287 239.517 18.3706 239.536 18.4125C239.572 18.4874 239.481 18.5509 239.327 18.5598C238.902 18.5839 238.481 18.6093 238.056 18.6309C237.942 18.6372 237.832 18.6157 237.74 18.5814C237.645 18.5471 237.539 18.5319 237.422 18.5382C236.997 18.5623 236.575 18.5877 236.15 18.6093C236.103 18.6119 236.04 18.5992 235.993 18.589C235.89 18.5661 235.791 18.5395 235.692 18.5154C235.45 18.5268 235.212 18.5344 234.974 18.5496C234.589 18.5725 234.589 18.5738 234.307 18.5039C234.256 18.4912 234.205 18.4671 234.157 18.4684C233.974 18.4735 233.794 18.4862 233.611 18.4976C233.073 18.5306 233.073 18.5306 232.915 18.4925C232.772 18.4569 232.644 18.4138 232.428 18.4341C232.193 18.457 231.944 18.4646 231.702 18.4773C231.523 18.4862 231.343 18.4963 231.164 18.4989C231.116 18.5001 231.065 18.476 231.013 18.4633C230.867 18.4239 230.724 18.3922 230.522 18.4138C230.405 18.4265 230.281 18.429 230.16 18.4354C229.845 18.4531 229.845 18.4531 229.328 18.377C229.277 18.3693 229.214 18.3604 229.163 18.3643C228.738 18.3871 228.317 18.4125 227.892 18.4341C227.841 18.4366 227.778 18.429 227.727 18.4227C227.148 18.349 227.148 18.349 226.533 18.3846C226.298 18.3973 226.291 18.4024 226.045 18.3351C225.935 18.3059 225.844 18.2919 225.715 18.3008C225.232 18.3312 224.745 18.3516 224.265 18.3871C224.048 18.4024 223.924 18.3643 223.777 18.33C223.726 18.3185 223.671 18.2932 223.627 18.2944C223.143 18.3186 222.66 18.3478 222.176 18.3719C222.132 18.3744 222.077 18.349 222.026 18.3376C221.927 18.3147 221.832 18.2805 221.722 18.2728C221.608 18.2652 221.484 18.2843 221.359 18.2906C221.055 18.3071 221.055 18.3059 220.703 18.2309C220.656 18.2208 220.593 18.2068 220.546 18.2094C220.062 18.2347 219.575 18.2563 219.095 18.2932C218.82 18.3135 218.633 18.2766 218.439 18.2233C218.399 18.2119 218.329 18.2068 218.278 18.2094C217.732 18.2386 217.19 18.2716 216.644 18.3008C216.53 18.3071 216.42 18.2855 216.328 18.2525C216.182 18.2005 216.01 18.2068 215.827 18.2182C215.405 18.2449 215.402 18.2436 215.152 18.1827C215.101 18.17 215.057 18.1535 215.002 18.1471C214.951 18.1408 214.885 18.1446 214.83 18.1471C214.588 18.1598 214.346 18.1738 214.105 18.1878C213.863 18.2017 213.617 18.2094 213.379 18.2309C213.086 18.2576 212.947 18.1751 212.741 18.137C212.441 18.1535 212.133 18.1636 211.837 18.1903C211.609 18.2106 211.503 18.1548 211.353 18.1255C211.302 18.1154 211.247 18.0938 211.199 18.0963C210.653 18.1243 210.107 18.1548 209.565 18.189C209.433 18.1967 209.345 18.1865 209.235 18.156C208.99 18.0875 208.979 18.09 208.568 18.1154C208.389 18.1268 208.217 18.137 208.063 18.0849C207.927 18.0379 207.762 18.0265 207.568 18.0417C207.33 18.0608 207.084 18.071 206.843 18.0837C206.601 18.0976 206.359 18.1167 206.117 18.123C205.923 18.1294 205.806 18.0697 205.652 18.0392C205.604 18.0303 205.538 18.0291 205.483 18.0316C205.242 18.043 204.992 18.0519 204.758 18.0735C204.472 18.1001 204.315 18.0303 204.113 17.9897C204.069 17.9808 203.996 17.9859 203.941 17.9897C203.516 18.0126 203.094 18.0379 202.669 18.0621C202.519 18.0278 202.365 17.9948 202.215 17.9605C201.973 17.9732 201.731 17.9872 201.49 17.9998C201.306 18.01 201.12 18.0138 200.947 18.0329C200.724 18.0583 200.614 17.9986 200.464 17.9694C200.412 17.9592 200.357 17.9376 200.31 17.9402C200.006 17.9541 199.702 17.9694 199.401 17.991C199.115 18.0126 199.002 17.8983 198.767 17.8995C198.526 17.9008 198.276 17.9173 198.042 17.9402C197.771 17.9668 197.58 17.9262 197.386 17.8716C197.346 17.8602 197.276 17.8538 197.225 17.8564C196.921 17.8716 196.62 17.8907 196.316 17.9059C196.265 17.9084 196.203 17.9021 196.151 17.8945C195.572 17.8196 195.572 17.8183 195.32 17.8335C195.14 17.8437 194.957 17.8564 194.774 17.8627C194.722 17.8653 194.66 17.8538 194.612 17.8437C194.231 17.7662 194.231 17.7649 193.957 17.7802C193.715 17.7942 193.473 17.8081 193.231 17.8221C193.081 17.7878 192.927 17.7548 192.777 17.7205C192.476 17.737 192.169 17.7497 191.872 17.7726C191.733 17.7827 191.641 17.7789 191.535 17.7472C191.403 17.7091 191.271 17.6646 191.051 17.6862C190.817 17.7091 190.568 17.7116 190.329 17.7307C190.044 17.7535 189.926 17.638 189.696 17.6392C189.454 17.6405 189.205 17.657 188.97 17.6799C188.699 17.7065 188.508 17.6659 188.314 17.6113C188.274 17.5999 188.204 17.5935 188.153 17.5961C187.486 17.6329 186.823 17.6697 186.156 17.7091C185.746 17.7332 185.746 17.7345 184.965 17.6646C184.91 17.6596 184.852 17.6545 184.797 17.657C184.555 17.6685 184.306 17.6773 184.071 17.6989C183.786 17.7256 183.628 17.657 183.427 17.6151C183.383 17.6062 183.313 17.6113 183.254 17.6138C183.071 17.6227 182.892 17.6342 182.708 17.6443C182.467 17.6583 182.225 17.6723 181.983 17.6862C181.833 17.6532 181.679 17.6189 181.529 17.5859C181.228 17.6024 180.92 17.6113 180.624 17.638C180.396 17.6583 180.29 17.605 180.14 17.5745C180.089 17.5643 180.034 17.5427 179.986 17.544C179.44 17.572 178.894 17.6012 178.352 17.6367C178.129 17.6519 178.026 17.5948 177.876 17.5656C177.824 17.5567 177.766 17.5402 177.718 17.5427C177.355 17.5605 176.993 17.5821 176.63 17.6037C176.425 17.6164 176.425 17.6164 175.978 17.5377C175.927 17.5288 175.868 17.5199 175.817 17.5224C174.666 17.5859 173.519 17.6532 172.369 17.7167C172.252 17.723 172.145 17.704 172.054 17.6697C171.959 17.6354 171.852 17.6177 171.735 17.624C171.251 17.6507 170.764 17.6748 170.284 17.7078C170.086 17.7218 169.929 17.7053 169.793 17.6608C169.691 17.6278 169.595 17.6151 169.467 17.6227C169.225 17.638 168.983 17.6507 168.742 17.6646C168.5 17.6786 168.258 17.6926 168.016 17.7065C167.774 17.7205 167.529 17.7281 167.291 17.7497C166.998 17.7764 166.855 17.6977 166.653 17.6583C166.29 17.6773 165.928 17.6964 165.569 17.7167C165.085 17.7434 164.601 17.7726 164.118 17.798C164.074 17.8005 164.019 17.7776 163.968 17.7662C163.817 17.7345 163.707 17.69 163.484 17.704C162.399 17.7713 161.308 17.8284 160.219 17.8945C159.992 17.9084 159.893 17.8538 159.739 17.8246C159.688 17.8157 159.629 17.798 159.582 17.8005C158.977 17.8322 158.373 17.8678 157.768 17.9021C157.523 17.916 157.523 17.916 157.112 17.8373C157.065 17.8284 157.002 17.817 156.951 17.8195C156.163 17.8627 155.379 17.9084 154.592 17.9529C154.474 17.9592 154.368 17.9414 154.273 17.9072C154.181 17.8729 154.071 17.8538 153.958 17.8602C153.232 17.9008 152.503 17.9402 151.781 17.9846C151.587 17.9973 151.426 17.9859 151.287 17.9402C151.188 17.9072 151.089 17.8932 150.964 17.9008C149.876 17.963 148.788 18.0227 147.7 18.0887C147.491 18.1014 147.344 18.0773 147.212 18.0354C147.106 18.0024 147.015 17.996 146.883 18.0011C146.743 18.0075 146.659 18.0214 146.582 18.0595C146.483 18.109 146.421 18.1713 146.187 18.1751C145.945 18.1789 145.699 18.1941 145.461 18.2157C145.234 18.2373 145.128 18.1802 144.985 18.1459C144.878 18.1217 144.78 18.1179 144.644 18.1294C144.519 18.1395 144.443 18.1611 144.369 18.2017C144.208 18.2881 144.193 18.2881 143.996 18.2335C143.889 18.2043 143.794 18.1814 143.677 18.1865C143.193 18.2119 142.709 18.2398 142.226 18.269C141.947 18.2855 141.944 18.2881 141.735 18.2246C141.632 18.1928 141.533 18.1776 141.412 18.1852C140.082 18.2614 138.752 18.3351 137.422 18.4151C137.217 18.4277 137.078 18.4011 136.931 18.363C136.884 18.3503 136.836 18.3325 136.781 18.3274C136.726 18.3224 136.664 18.3274 136.605 18.33C135.638 18.3846 134.667 18.4366 133.704 18.4976C133.484 18.5116 133.367 18.4709 133.216 18.4379C133.165 18.4265 133.121 18.4087 133.066 18.4036C133.011 18.3998 132.945 18.4087 132.886 18.4125C131.919 18.4671 130.948 18.5192 129.985 18.5801C129.754 18.5941 129.655 18.5408 129.505 18.5128C129.453 18.5027 129.398 18.4836 129.351 18.4861C129.047 18.5001 128.746 18.5192 128.442 18.5357C127.717 18.5776 126.991 18.6169 126.266 18.6601C125.987 18.6766 125.866 18.5636 125.632 18.5687C125.328 18.575 125.027 18.6004 124.723 18.6182C124.481 18.6322 124.24 18.6449 123.998 18.6601C123.76 18.6741 123.76 18.6741 123.166 18.6004C123.115 18.5941 123.053 18.5852 123.001 18.5877C122.155 18.6347 121.305 18.6817 120.462 18.7325C120.268 18.7439 120.107 18.7376 119.968 18.6906C119.869 18.6576 119.766 18.6411 119.645 18.6487C118.374 18.7211 117.106 18.7934 115.835 18.8645C115.787 18.8671 115.725 18.8544 115.677 18.8442C115.575 18.8214 115.476 18.7947 115.377 18.7706C115.303 18.7998 115.208 18.8264 115.161 18.8595C115.095 18.9039 115.007 18.9166 114.867 18.9242C114.728 18.9318 114.64 18.9293 114.53 18.8963C114.398 18.8557 114.263 18.8239 114.047 18.8366C112.717 18.9166 111.387 18.989 110.057 19.0677C109.837 19.0804 109.734 19.0245 109.58 18.9953C109.529 18.9864 109.47 18.9725 109.423 18.975C108.877 19.0042 108.335 19.0359 107.789 19.0664C106.275 19.1528 104.762 19.2353 103.253 19.3267C102.978 19.3432 102.791 19.3115 102.597 19.2569C102.557 19.2455 102.487 19.2391 102.436 19.2416C100.318 19.361 98.2002 19.4816 96.0862 19.6022C95.9726 19.6086 95.8626 19.5883 95.771 19.5553C95.6758 19.521 95.5695 19.5045 95.4523 19.5108C94.485 19.5654 93.5178 19.62 92.5505 19.6759C92.3087 19.6899 92.305 19.6911 92.0559 19.6302C92.0046 19.6175 91.9496 19.5934 91.9093 19.5959C91.8251 19.6023 91.7444 19.634 91.6858 19.6772C91.6272 19.7229 91.5356 19.7356 91.4 19.7445C91.2608 19.7533 91.1692 19.7495 91.0629 19.7191C90.9274 19.681 90.8028 19.6442 90.583 19.6568C87.802 19.8194 85.0211 19.9755 82.2402 20.1368C82.0167 20.1495 81.9141 20.0962 81.7602 20.067C81.7089 20.0581 81.6577 20.0454 81.6027 20.0428C81.5441 20.0403 81.4818 20.0479 81.4232 20.0517C76.8872 20.3095 72.3513 20.5685 67.8154 20.8263C67.5443 20.8415 67.5479 20.8415 67.2512 20.9583C67.2145 20.9723 67.1669 20.9913 67.1156 20.9939C65.7269 21.0751 64.3347 21.1538 62.9424 21.2326C62.3379 21.2669 61.7333 21.3024 61.1288 21.3354C60.9126 21.3469 60.9126 21.3469 60.396 21.484C60.352 21.4954 60.3007 21.5107 60.2494 21.5132C57.8312 21.6516 55.413 21.79 52.9912 21.9259C52.8006 21.936 52.6468 21.9589 52.5588 22.0198C52.4965 22.063 52.416 22.0884 52.295 22.096C50.6023 22.1925 48.9096 22.2903 47.2132 22.3842C47.0117 22.3957 46.8908 22.4312 46.7918 22.4845C46.7589 22.5023 46.7295 22.5226 46.6819 22.5353C46.6379 22.5467 46.572 22.5506 46.517 22.5544C45.0661 22.6369 43.6153 22.722 42.1607 22.8007C41.9445 22.8121 41.8565 22.8591 41.7503 22.9086C41.7136 22.9251 41.688 22.948 41.6404 22.9594C41.5927 22.9696 41.5231 22.9696 41.4645 22.9721C40.2554 23.0407 39.0463 23.1105 37.8373 23.1791C37.6028 23.1727 37.5514 23.2464 37.4379 23.2908C37.3975 23.306 37.3683 23.3264 37.3207 23.3365C37.2694 23.3467 37.2033 23.3454 37.1411 23.3479C36.1738 23.4025 35.2065 23.461 34.2356 23.5117C34.0121 23.5232 33.9681 23.5879 33.8472 23.6324C33.8069 23.6463 33.7666 23.6679 33.719 23.6717C33.1145 23.7086 32.5099 23.7428 31.9054 23.7758C31.7039 23.7873 31.7039 23.786 31.3485 23.9117C31.3082 23.9257 31.2605 23.9409 31.2092 23.9447C30.3042 23.9981 29.3956 24.0488 28.4869 24.1009C28.3697 24.1072 28.2891 24.1377 28.2305 24.1809C28.1719 24.2241 28.0876 24.252 27.9704 24.2583C27.2449 24.3002 26.5194 24.3434 25.7939 24.3815C25.5924 24.3917 25.4605 24.4234 25.3726 24.4805C25.3067 24.5237 25.2261 24.5453 25.0978 24.5529C24.3724 24.5935 23.6469 24.638 22.9178 24.6735C22.7053 24.6837 22.5953 24.7269 22.5074 24.7802C22.4378 24.8234 22.3572 24.8386 22.2216 24.8462C20.8916 24.9199 19.558 24.9935 18.2316 25.0748C18.0081 25.0887 17.8945 25.0443 17.748 25.0126C17.5391 24.9681 17.345 24.9199 17.345 24.8208C17.345 24.8056 17.2827 24.7878 17.2387 24.7751C16.9126 24.6799 16.9126 24.6799 16.8613 24.5783C16.832 24.5161 16.7991 24.4526 16.7734 24.3891C16.7258 24.285 16.6085 24.2583 16.2714 24.2774C16.1505 24.2837 16.0296 24.2926 15.9087 24.2977C15.7292 24.3066 15.5936 24.2647 15.5606 24.1885C15.5423 24.1466 15.5204 24.1047 15.502 24.0628C15.6852 24.0526 15.6815 24.0514 16.004 23.8977C16.1395 23.833 16.1396 23.833 15.8794 23.7682C15.7805 23.7441 15.6852 23.7174 15.579 23.6946C15.5313 23.6844 15.4691 23.6781 15.4178 23.6806C15.1137 23.6958 14.8132 23.7136 14.5128 23.7314C14.0292 23.7593 14.0291 23.7593 13.5381 23.6298C13.4978 23.6197 13.4356 23.6006 13.4429 23.5905C13.4832 23.5435 13.5821 23.5232 13.7067 23.5181C13.8899 23.5105 14.0694 23.4978 14.2489 23.4876C14.3698 23.4813 14.4907 23.4737 14.6116 23.4673C14.7252 23.4191 14.8425 23.3721 14.9488 23.3226C15.1173 23.2464 15.1173 23.2438 14.8864 23.1905C14.7399 23.1549 14.5823 23.1232 14.4321 23.0902C14.2526 23.1003 14.0694 23.1118 13.8899 23.1207C13.6627 23.1321 13.5711 23.108 13.5125 23.0254C13.4612 22.9531 13.5235 22.8908 13.6993 22.8756C13.8789 22.8604 14.0475 22.8502 14.1391 22.7855C14.227 22.7232 14.3809 22.6991 14.5714 22.694C14.6923 22.6902 14.8132 22.6813 14.9341 22.6737C15.0917 22.6636 15.176 22.5988 15.143 22.5264C15.1247 22.4795 15.088 22.4401 14.9451 22.4299C14.3113 22.3855 14.3039 22.3868 13.9888 22.3004C13.9595 22.2928 13.9376 22.2699 13.9485 22.2585C13.9669 22.2395 14.0072 22.2115 14.0511 22.2077C14.4725 22.1798 14.8938 22.1544 15.3152 22.1354C15.4544 22.129 15.557 22.1201 15.6046 22.0731C15.6706 22.0084 15.6413 21.9487 15.513 21.9043C15.4727 21.8903 15.4067 21.8725 15.3628 21.8738C14.8791 21.8966 14.3992 21.9258 13.9155 21.9487C13.8716 21.9512 13.791 21.9297 13.7727 21.9132C13.736 21.8827 13.791 21.842 13.9192 21.8281C14.0877 21.809 14.2599 21.8078 14.3735 21.7443C14.5311 21.6541 14.7252 21.5716 14.9011 21.4853C14.9304 21.47 14.9781 21.4408 14.9671 21.4383C14.8755 21.4103 14.7693 21.3888 14.674 21.3621C14.5128 21.3176 14.5128 21.2554 14.5494 21.1958C14.5787 21.1475 14.6886 21.1285 14.8242 21.1285C14.8828 21.1285 14.9561 21.1285 15.0037 21.117C15.1283 21.0891 15.1686 21.0535 15.1063 21.0269C15.0697 21.0116 15.0038 20.9901 14.9598 20.9926C14.1757 21.0345 13.3879 21.0751 12.6075 21.1272C12.3767 21.1424 12.2705 21.0942 12.1313 21.0599C12.025 21.0332 11.926 21.0231 11.7941 21.0421C11.6695 21.0599 11.5487 21.0497 11.4717 21.0078C11.4095 20.9736 11.5193 20.9444 11.8161 20.9113C11.8711 20.905 11.9333 20.9012 11.9736 20.8885C12.3987 20.7513 12.3986 20.7501 12.6918 20.7323C12.9775 20.7158 12.9776 20.7145 13.1278 20.6409C13.1974 20.6066 13.2743 20.5723 13.3403 20.5368C13.3659 20.5228 13.4099 20.4974 13.3953 20.4898C13.3147 20.4504 13.2047 20.4415 13.0765 20.4504C12.7907 20.472 12.4537 20.4542 12.3035 20.5749C12.2448 20.6206 12.1532 20.6333 12.0213 20.6409C10.695 20.7145 9.36861 20.7933 8.03861 20.8644C7.82244 20.8758 7.72357 20.9228 7.6393 20.9748C7.56602 21.018 7.4854 21.0307 7.34617 21.0383C7.20694 21.0459 7.09697 21.0497 7.01636 21.0078C6.96873 20.9824 7.00904 20.9469 7.11896 20.9113C7.27651 20.8606 7.24718 20.7971 7.19589 20.7374C7.15925 20.698 7.04567 20.6701 6.92476 20.6726C6.74523 20.6777 6.57307 20.6917 6.42285 20.6409C6.33492 20.6117 6.22498 20.5914 6.12605 20.566C5.93553 20.5139 5.745 20.4606 5.47753 20.4949C5.29434 20.4822 5.1661 20.4365 5.01955 20.4009C4.77406 20.3425 4.75208 20.3336 4.92795 20.2714C5.1258 20.2016 4.97189 20.1101 5.0818 20.0416C5.19905 19.9679 5.36031 19.9032 5.50321 19.8346C5.53985 19.8168 5.57284 19.8003 5.60947 19.7826C5.5252 19.7572 5.44828 19.7254 5.34935 19.7076C5.22111 19.6848 5.15516 19.6568 5.16249 19.5781C5.13684 19.5667 5.14776 19.5959 5.17707 19.6035C5.21004 19.6111 5.29071 19.6048 5.33101 19.5959C5.4336 19.5718 5.48484 19.54 5.4592 19.5134C5.44454 19.4994 5.37498 19.4816 5.33101 19.4816C5.25041 19.4816 5.1808 19.5096 5.15882 19.5781C4.74846 19.6302 4.32338 19.6556 3.89837 19.6759C3.8544 19.6784 3.79947 19.653 3.74818 19.6403C3.57964 19.5972 3.57962 19.5984 3.08499 19.5857C3.03369 19.5845 2.96411 19.5667 2.93847 19.5489C2.83221 19.4715 2.83591 19.3864 2.78461 19.3039C2.87987 19.2505 2.97506 19.1985 3.07398 19.1464C3.27184 19.041 3.52837 18.9483 3.68225 18.8328C3.64928 18.7706 3.6053 18.7084 3.76651 18.6576C4.2245 18.5941 4.22087 18.5941 4.34544 18.5331C4.70084 18.3605 5.05256 18.1865 5.42261 18.0164C5.52154 17.9719 5.52155 17.9478 5.34568 17.9288C5.29072 17.9237 5.23202 17.9224 5.1734 17.9249C4.9902 17.9338 4.80701 17.9567 4.62748 17.9516C4.44795 17.9478 4.31605 17.8919 4.16949 17.8576C4.01927 17.8221 3.86906 17.7853 3.71884 17.7484C3.54663 17.7523 3.37446 17.7878 3.20226 17.7307C3.07036 17.6862 2.90549 17.6545 2.75527 17.6177C2.86885 17.5212 3.08139 17.4475 3.24627 17.3624C3.39649 17.285 3.40007 17.2863 3.8031 17.2266C3.99362 17.1987 4.05958 17.0552 3.89837 17.0133C3.70418 16.9625 3.49904 16.9155 3.30119 16.8672C3.12899 16.8711 2.95315 16.9053 2.78828 16.8482C2.66004 16.805 2.51346 16.7758 2.30095 16.7923C1.94189 16.8203 1.5755 16.8342 1.21278 16.8571C1.0882 16.8647 0.9526 16.8596 0.897641 16.8165C0.861002 16.786 0.967263 16.7441 1.08817 16.7352C1.27137 16.7225 1.43623 16.7073 1.52782 16.6438C1.61576 16.5803 1.77695 16.5612 1.96748 16.5524C2.01877 16.5498 2.07744 16.5346 2.10308 16.5193C2.23498 16.4457 2.38155 16.3822 2.66367 16.3848C2.78092 16.3594 2.84317 16.3276 2.80653 16.2971C2.78454 16.2806 2.70764 16.2591 2.66367 16.2616C2.35957 16.2743 2.05547 16.287 1.7587 16.3098C1.61947 16.32 1.51316 16.3225 1.42522 16.2844C1.36294 16.259 1.39591 16.2248 1.51315 16.1879C1.61574 16.1562 1.64509 16.1194 1.63776 16.0762C1.61944 15.9759 1.5095 15.9467 1.15776 15.953C0.904955 15.9581 0.842665 15.9416 0.787706 15.8553C0.77305 15.835 0.736475 15.807 0.762123 15.7931C0.919671 15.7067 1.02227 15.6001 1.31904 15.5594C1.43629 15.5442 1.56081 15.5442 1.63409 15.5112C1.70737 15.4782 1.77335 15.4401 1.85029 15.4083C1.94556 15.3702 2.01144 15.3347 1.96748 15.3106C1.8942 15.2674 1.77699 15.2636 1.64143 15.2788C1.52418 15.2915 1.39961 15.2928 1.2787 15.3004C1.06253 15.3144 0.886703 15.2814 0.861056 15.2255C0.791441 15.0782 0.718142 14.9322 0.655855 14.7849C0.648527 14.7671 0.666797 14.7443 0.696108 14.729C0.798698 14.6757 0.908658 14.6249 1.01491 14.5729C1.13948 14.5132 1.33737 14.5246 1.50591 14.5132C1.74406 14.4967 1.74398 14.4979 2.06274 14.376C2.18731 14.3278 2.4035 14.3468 2.53173 14.3037C2.57204 14.2897 2.63432 14.2668 2.62333 14.2541C2.60868 14.2376 2.53544 14.2249 2.48048 14.2173C2.42918 14.2097 2.36691 14.2059 2.31195 14.2097C1.64512 14.2465 0.981968 14.2859 0.315136 14.3214C0.201555 14.3278 0.076978 14.2999 0.0366749 14.2605C-0.00362813 14.2237 0.00732783 14.1792 0 14.1373C0.106254 14.0853 0.227116 14.037 0.318714 13.9812C0.388328 13.938 0.468949 13.9189 0.608178 13.9164C0.791373 13.9126 0.970923 13.8974 1.1761 13.8859C1.55715 13.7005 1.93084 13.5063 2.3412 13.3209C2.50608 13.246 2.46584 13.1698 2.49881 13.0898C2.53179 13.0162 2.77726 13.0276 2.94213 13.006C3.07403 12.9882 3.11794 12.9476 3.06665 12.9197C3.03734 12.9032 2.97142 12.8841 2.92013 12.8841C2.79922 12.8841 2.67831 12.8955 2.55741 12.9019C2.4365 12.9082 2.29727 12.9044 2.19835 12.926C2.10309 12.9463 2.04076 12.9895 1.97848 13.0263C1.90886 13.0669 1.81733 13.0809 1.6781 13.0835C1.49857 13.086 1.31905 13.0974 1.13952 13.1063C0.941665 13.0568 0.736443 13.0085 0.54592 12.9565C0.509281 12.9463 0.501913 12.9171 0.505577 12.8981C0.512905 12.8486 0.457961 12.8181 0.337052 12.794C0.234462 12.7736 0.150185 12.7444 0.0549229 12.719C0.128201 12.6848 0.208836 12.6517 0.267459 12.6149C0.395696 12.5375 0.556926 12.4816 0.835383 12.4842C0.945301 12.4346 1.03321 12.3737 1.1761 12.3394C1.31167 12.3064 1.5425 12.3394 1.64509 12.2645C1.69639 12.2277 1.77337 12.1858 1.8723 12.1705C2.02985 12.1464 2.23502 12.1591 2.32662 12.088C2.38158 12.0474 2.46215 12.0105 2.56841 12.0004C2.68932 11.989 2.81386 11.9864 2.90179 11.9623C2.94942 11.9496 3.00072 11.9293 3.00072 11.9115C3.00072 11.9001 2.9275 11.8823 2.87621 11.8747C2.82858 11.8658 2.76622 11.8594 2.71126 11.862C2.52807 11.8696 2.34854 11.8836 2.16534 11.8912C2.11405 11.8937 2.05544 11.8848 2.00048 11.8772C1.83927 11.8569 1.85024 11.8315 1.97848 11.7858C2.10671 11.7414 2.19836 11.6842 2.30462 11.6322C2.42186 11.6233 2.5684 11.6271 2.649 11.603C2.78457 11.5636 2.8798 11.5065 2.98972 11.4569C3.11063 11.4493 3.2352 11.4468 3.34878 11.4328C3.39641 11.4277 3.41841 11.3998 3.45871 11.3833C3.53199 11.3515 3.59433 11.3058 3.69325 11.2906C3.85447 11.2677 4.05231 11.2766 4.14758 11.2068C4.20254 11.1662 4.28677 11.123 4.38936 11.1205C4.67515 11.1154 4.79606 11.0455 4.94262 10.9795C5.05253 10.93 5.28703 10.9554 5.40794 10.9059C5.48855 10.8741 5.54721 10.8348 5.62781 10.8043C5.66079 10.7916 5.73038 10.7853 5.78534 10.7814C6.08578 10.7624 6.38987 10.7484 6.69031 10.7281C6.73794 10.7243 6.78195 10.7053 6.81858 10.69C6.89553 10.657 6.9431 10.6113 7.03837 10.5897C7.13363 10.5681 7.26917 10.5681 7.38642 10.5618C7.7638 10.5427 7.79314 10.5478 7.96535 10.4399C8.10458 10.3523 8.44536 10.4145 8.55894 10.318C8.62489 10.2621 8.74575 10.2164 8.96192 10.2101C9.26603 10.2012 9.56646 10.177 9.87056 10.1605C10.1417 10.1453 10.138 10.1453 10.4312 10.0272C10.5631 9.97389 10.7573 9.98151 10.9295 9.97135C11.1127 9.9612 11.2812 9.94597 11.3691 9.88248C11.4571 9.82026 11.6183 9.79994 11.8051 9.79105C11.9773 9.78216 12.1716 9.78852 12.3071 9.73773C12.6369 9.61584 12.6332 9.61456 12.864 9.60186C13.2268 9.58154 13.5895 9.56123 13.9522 9.53964C14.194 9.52568 14.4468 9.52314 14.674 9.49521C14.8389 9.47489 14.9121 9.40379 15.0184 9.35427C15.3188 9.33522 15.6192 9.31617 15.9197 9.29839C16.341 9.273 16.766 9.25015 17.1911 9.22602C17.3743 9.17778 17.4 9.07112 17.7077 9.06604C17.8909 9.0635 18.0705 9.04699 18.2536 9.03684C18.5578 9.01906 18.8582 8.9962 19.1623 8.98732C19.3931 8.98097 19.4334 8.91239 19.5543 8.86922C19.5946 8.85399 19.6312 8.83241 19.6789 8.8286C20.1552 8.79305 20.6461 8.78543 21.1114 8.73337C21.1591 8.72829 21.203 8.70162 21.214 8.68258C21.2214 8.67242 21.1591 8.65338 21.1188 8.6445C21.0711 8.63434 21.0089 8.62418 20.9576 8.62672C19.4444 8.71179 17.9312 8.79813 16.418 8.8832C16.2055 8.8959 16.2055 8.89462 15.6889 9.03429C15.6449 9.04572 15.5936 9.05842 15.5386 9.06222C15.2968 9.07746 15.0513 9.08636 14.8132 9.10541C14.619 9.12064 14.4578 9.10539 14.3186 9.05968C14.2197 9.02667 14.117 9.01652 13.9925 9.01906C13.8532 9.02287 13.7617 9.03684 13.6811 9.07112C13.5748 9.1181 13.5199 9.17904 13.2964 9.19174C12.2668 9.24634 11.2372 9.30728 10.2113 9.36569C10.0684 9.34792 9.99878 9.32125 10.0354 9.28951C10.0574 9.27046 10.1014 9.24507 10.1454 9.24253C10.5667 9.21587 10.9917 9.19302 11.4131 9.16762C11.4717 9.16381 11.5523 9.16634 11.5853 9.15364C11.7465 9.0965 11.8052 9.00382 12.1093 8.99747C12.2851 8.99366 12.4646 8.97462 12.6332 8.95684C12.6808 8.95176 12.7248 8.9251 12.7358 8.90605C12.7394 8.89589 12.6808 8.87684 12.6368 8.86795C12.4756 8.83113 12.2888 8.87558 12.1276 8.85019C12.0726 8.8413 11.9956 8.8286 11.9846 8.81336C11.9773 8.7994 12.0396 8.77654 12.0836 8.76257C12.1239 8.74987 12.1788 8.73845 12.2338 8.73464C12.7174 8.70544 13.2011 8.67496 13.6848 8.65211C13.8826 8.64322 14.0218 8.61147 14.1097 8.55306C14.1757 8.50989 14.2563 8.48704 14.3809 8.4807C15.2272 8.43371 16.0736 8.38166 16.9236 8.33849C17.1361 8.32833 17.2461 8.28643 17.334 8.23183C17.4036 8.18866 17.4842 8.17342 17.6198 8.1658C18.8326 8.09978 20.0379 8.02614 21.2507 7.96265C21.4742 7.95122 21.5402 7.89662 21.6538 7.84964C21.6941 7.83314 21.7197 7.81282 21.771 7.80266C21.8222 7.79251 21.8882 7.79377 21.9505 7.79123C22.9178 7.73663 23.8851 7.67823 24.856 7.62744C25.0832 7.61601 25.1271 7.55252 25.2443 7.50808C25.2846 7.49411 25.3213 7.47126 25.3689 7.46745C26.0944 7.42428 26.8198 7.38365 27.5453 7.34175C28.0289 7.31382 28.5125 7.28588 28.9962 7.25922C29.2343 7.24652 29.2343 7.24524 29.5568 7.12462C29.5934 7.11065 29.6447 7.09414 29.6924 7.09033C31.0847 7.00907 32.4732 6.93163 33.8655 6.85164C33.9828 6.84529 34.067 6.81607 34.1257 6.7729C34.1843 6.72973 34.2686 6.70053 34.3822 6.69418C35.4704 6.63069 36.5585 6.56848 37.6504 6.5088C37.8482 6.49864 37.9874 6.46817 38.0754 6.41103C38.1413 6.36786 38.2219 6.34501 38.3465 6.33866C39.4347 6.27772 40.5229 6.21295 41.6148 6.15454C41.8236 6.14312 41.9262 6.09995 42.0287 6.04916C42.0654 6.03139 42.0947 6.00218 42.1387 5.99964C42.6809 5.96409 43.2195 5.92726 43.7654 5.90314C43.9926 5.89298 44.0696 5.83965 44.1612 5.78886C44.2345 5.74823 44.3187 5.73427 44.458 5.72919C44.7621 5.71776 45.0625 5.69618 45.3593 5.6746C45.4032 5.67079 45.4582 5.64285 45.4619 5.62508C45.4692 5.59206 45.3849 5.5692 45.2457 5.55778C43.7948 5.64031 42.3402 5.72284 40.8893 5.80537C40.6512 5.81933 40.6512 5.81934 40.3287 5.93997C40.2921 5.95393 40.2408 5.97044 40.1895 5.97425C38.7972 6.05424 37.4086 6.13297 36.0163 6.21296C35.8991 6.21931 35.8148 6.24851 35.7562 6.29168C35.6976 6.33485 35.6132 6.36406 35.4996 6.37041C34.1696 6.44659 32.8397 6.52405 31.506 6.59642C31.3081 6.60658 31.1689 6.63577 31.081 6.69418C31.0151 6.73735 30.9345 6.76021 30.8099 6.76656C29.5385 6.83767 28.2707 6.91257 26.9957 6.98114C26.8675 6.98749 26.7723 6.95066 26.7796 6.91638C26.7832 6.8986 26.8381 6.86941 26.8821 6.86687C27.5453 6.82497 28.2048 6.7818 28.8717 6.75005C29.0952 6.7399 29.1611 6.68403 29.2746 6.63705C29.3113 6.62054 29.3406 6.59896 29.3882 6.59007C29.4395 6.57991 29.5055 6.58118 29.5678 6.57864C31.1396 6.48849 32.7115 6.39708 34.2869 6.312C34.5141 6.29931 34.558 6.23708 34.6752 6.19264C34.7155 6.1774 34.7522 6.15456 34.7999 6.15202C35.2835 6.12154 35.7671 6.09487 36.2507 6.06821C37.0971 6.01996 37.9435 5.97171 38.7935 5.92346C39.039 5.90949 39.039 5.90949 39.3541 5.79013C39.3907 5.77617 39.4421 5.7584 39.4897 5.75586C41.7283 5.62762 43.967 5.49937 46.2057 5.3724C46.3229 5.36605 46.4072 5.33685 46.4658 5.29368C46.5244 5.25178 46.6087 5.2213 46.7222 5.21369C49.7486 5.041 52.7714 4.86831 55.7978 4.69817C55.9956 4.68674 56.1348 4.66007 56.2228 4.6004C56.285 4.55723 56.3693 4.53438 56.4939 4.52676C59.8207 4.33757 63.1475 4.14838 66.478 3.95792C68.7167 3.83095 70.9554 3.70144 73.194 3.577C73.3992 3.56558 73.5091 3.52621 73.6117 3.47415C73.6446 3.45637 73.6776 3.42717 73.7216 3.42463C74.2016 3.39288 74.6815 3.36368 75.1615 3.33448C75.3117 3.36876 75.4619 3.40178 75.6122 3.43607C75.7257 3.38782 75.8357 3.33829 75.9493 3.29004C76.6748 3.25322 77.3892 3.19608 78.122 3.17831C78.1696 3.17704 78.2209 3.20117 78.2722 3.21386C78.6129 3.29386 78.8071 3.28751 79.0233 3.18085C79.1002 3.14276 79.1662 3.10847 79.2834 3.10213C79.6461 3.07927 80.0126 3.06403 80.3717 3.03737C80.5659 3.0234 80.727 3.0361 80.8662 3.08181C80.9652 3.11482 81.0678 3.12879 81.1887 3.12118C81.8555 3.08308 82.5187 3.04626 83.1855 3.00563C83.2332 3.00309 83.2771 2.98149 83.3137 2.96626C83.3907 2.93324 83.4566 2.8977 83.5299 2.86342C83.6288 2.885 83.7388 2.90151 83.8194 2.92945C83.922 2.96246 84.0172 2.96245 84.1564 2.95356C86.8164 2.79993 89.4801 2.6501 92.1401 2.49519C92.3673 2.48249 92.4662 2.53583 92.6201 2.56376C92.6714 2.57392 92.7227 2.58661 92.7776 2.58915C92.8363 2.59169 92.8985 2.58408 92.9572 2.58027C94.954 2.46599 96.9509 2.35298 98.9477 2.2387C99.2115 2.22347 99.2115 2.22347 99.6036 2.30219C99.6512 2.31235 99.7134 2.32378 99.7647 2.31997C100.673 2.27045 101.582 2.21713 102.487 2.16634C102.604 2.15999 102.703 2.1803 102.809 2.2095C103.018 2.26664 103.033 2.26665 103.187 2.18284C103.26 2.14348 103.337 2.11935 103.458 2.10792C103.59 2.09522 103.696 2.09904 103.799 2.1219C103.945 2.15364 104.052 2.20696 104.275 2.193C105.242 2.13332 106.213 2.0838 107.177 2.02286C107.397 2.00889 107.514 2.05206 107.66 2.0838C107.712 2.09523 107.759 2.11301 107.814 2.11682C107.869 2.12062 107.935 2.11173 107.994 2.10792C109.203 2.03935 110.416 1.97207 111.621 1.89843C111.848 1.88446 111.947 1.93905 112.101 1.96698C112.152 1.97714 112.211 1.99492 112.259 1.99238C112.984 1.95302 113.713 1.91111 114.439 1.86921C114.699 1.85397 114.699 1.85524 115.095 1.9327C115.142 1.94285 115.204 1.95301 115.256 1.95047C116.102 1.90349 116.952 1.85524 117.799 1.80699C118.059 1.79176 118.059 1.79176 118.81 1.85779C118.865 1.86286 118.923 1.87049 118.978 1.86795C119.946 1.81336 120.916 1.76002 121.884 1.70161C122.078 1.69018 122.239 1.70034 122.378 1.74605C122.477 1.77906 122.58 1.79304 122.701 1.78542C123.789 1.7232 124.881 1.66353 125.965 1.5975C126.174 1.5848 126.31 1.61273 126.456 1.64955C126.504 1.66225 126.552 1.68003 126.607 1.6851C126.662 1.69018 126.724 1.6851 126.782 1.68129C127.871 1.61908 128.962 1.56067 130.047 1.49337C130.267 1.47941 130.384 1.52258 130.531 1.55432C130.582 1.56575 130.637 1.5886 130.681 1.58733C131.106 1.56575 131.531 1.54671 131.952 1.51497C132.179 1.49719 132.278 1.55559 132.432 1.58352C132.483 1.59241 132.542 1.61146 132.59 1.60892C133.498 1.5594 134.407 1.50735 135.312 1.45402C135.44 1.4464 135.536 1.45782 135.638 1.49083C135.774 1.53527 135.931 1.55305 136.129 1.53908C136.55 1.50988 136.975 1.48957 137.4 1.46544C137.65 1.45148 137.65 1.45148 138.412 1.51751C138.467 1.52259 138.525 1.5302 138.58 1.52766C139.306 1.48703 140.035 1.44767 140.757 1.40323C140.951 1.39053 141.112 1.40196 141.251 1.44767C141.35 1.48068 141.449 1.49465 141.574 1.48703C142.24 1.44894 142.904 1.41085 143.571 1.37276C143.812 1.35879 144.054 1.33466 144.296 1.33466C144.472 1.33593 144.6 1.39687 144.758 1.42735C144.802 1.43623 144.875 1.42609 144.933 1.42355C145.78 1.3753 146.63 1.33085 147.473 1.27626C147.692 1.26229 147.81 1.30546 147.956 1.3372C148.008 1.34863 148.062 1.37148 148.106 1.37021C148.411 1.35625 148.711 1.3372 149.015 1.32069C149.378 1.30038 149.744 1.28514 150.103 1.25721C150.396 1.23435 150.506 1.34481 150.741 1.34862C150.92 1.35243 151.103 1.33085 151.283 1.32069C151.646 1.30038 152.008 1.27752 152.371 1.25975C152.499 1.2534 152.598 1.23308 152.639 1.18737C152.646 1.17848 152.584 1.15944 152.543 1.14801C152.056 1.0185 152.056 1.01849 151.565 1.04643C151.261 1.0642 150.961 1.08198 150.656 1.09722C150.605 1.09976 150.547 1.0896 150.495 1.08198C150.349 1.0604 150.363 1.03501 150.488 0.989296C150.613 0.943586 150.708 0.887722 150.814 0.835664C150.964 0.868676 151.111 0.901678 151.261 0.934691C151.382 0.928342 151.503 0.920735 151.624 0.914386C152.228 0.881373 152.833 0.847088 153.437 0.816615C153.481 0.814075 153.536 0.839473 153.588 0.852171C153.734 0.888993 153.866 0.920727 154.079 0.90676C154.621 0.869938 155.167 0.843274 155.709 0.811531C155.947 0.797564 155.947 0.797565 156.365 0.876288C156.413 0.885176 156.475 0.895335 156.526 0.892795C157.072 0.863591 157.614 0.831852 158.16 0.801378C158.277 0.79503 158.391 0.811536 158.475 0.848358C158.508 0.863594 158.501 0.888984 158.64 1.09722C159.073 1.26609 159.369 1.24833 159.67 1.23309C159.798 1.22674 159.912 1.22039 159.996 1.19499C160.04 1.18102 160.095 1.16071 160.095 1.1442C160.095 1.1315 160.014 1.11118 159.963 1.10864C159.6 1.08325 159.256 1.13658 158.9 1.14801C158.735 1.15309 158.593 1.10865 158.563 1.03628C158.556 1.01596 158.545 0.994375 158.534 0.97406C158.523 0.953744 158.516 0.93216 158.505 0.911844C158.362 0.905496 158.277 0.928347 158.215 0.971518C158.164 1.00707 158.091 1.0477 157.992 1.06675C157.893 1.08706 157.757 1.08326 157.636 1.08961C157.519 1.09596 157.391 1.11246 157.281 1.10357C157.171 1.09342 157.083 1.05659 156.98 1.03373C156.933 1.02231 156.874 1.00581 156.827 1.00834C156.405 1.02993 155.988 1.05151 155.57 1.07944C155.35 1.09468 155.24 1.04136 155.101 1.00834C154.991 0.98295 154.881 0.989291 154.863 1.0477C154.815 1.18737 154.984 1.24577 155.357 1.21911C155.665 1.19625 155.944 1.19246 156.185 1.2788C156.218 1.29023 156.295 1.2953 156.343 1.29276C156.643 1.27753 156.94 1.25848 157.241 1.24324C157.295 1.2407 157.354 1.24577 157.405 1.25085C158.153 1.31942 158.153 1.32069 158.406 1.30546C158.527 1.29784 158.644 1.29149 158.633 1.09849C158.864 0.891525 159.23 0.87756 159.585 0.847087C159.816 0.828041 159.915 0.883911 160.065 0.913115C160.117 0.923273 160.172 0.943585 160.219 0.941045C161.007 0.899144 161.791 0.854698 162.575 0.807718C162.707 0.800099 162.802 0.807719 162.905 0.840732C163.037 0.882633 163.183 0.909303 163.392 0.894066C163.81 0.863593 164.235 0.844551 164.66 0.819156C164.876 0.806459 164.876 0.806446 165.312 0.885169C165.36 0.894057 165.422 0.904216 165.473 0.901676C165.898 0.880091 166.32 0.853435 166.741 0.83058C166.858 0.824231 166.965 0.842005 167.056 0.876288C167.148 0.910571 167.258 0.928345 167.371 0.921996C167.796 0.899141 168.218 0.873755 168.639 0.8509C168.69 0.84836 168.753 0.857248 168.8 0.866136C169.247 0.944859 169.247 0.944846 169.452 0.932149C169.753 0.913103 170.061 0.904225 170.357 0.87883C170.647 0.853435 170.797 0.927073 170.995 0.967705C171.537 0.938501 172.083 0.914382 172.622 0.87883C172.841 0.863593 172.959 0.905491 173.105 0.938503C173.157 0.949931 173.208 0.974058 173.255 0.972789C173.439 0.96771 173.618 0.953745 173.798 0.943587C173.977 0.93343 174.161 0.923273 174.34 0.913115C174.545 0.949937 174.681 1.03628 174.974 1.00707C175.15 0.989298 175.337 0.985488 175.516 0.975331C175.696 0.965173 175.879 0.955016 176.058 0.944858C176.179 0.93851 176.304 0.934695 176.421 0.923267C176.637 0.904221 176.744 0.966446 176.897 0.99438C176.949 1.00327 177.007 1.01849 177.055 1.01596C177.418 0.998179 177.784 0.982943 178.14 0.95374C178.414 0.930884 178.601 0.968981 178.795 1.02231C178.836 1.03374 178.905 1.04009 178.957 1.03755C179.382 1.01596 179.803 0.989289 180.224 0.966434C180.338 0.960085 180.448 0.9804 180.539 1.01341C180.635 1.0477 180.741 1.06421 180.858 1.05787C181.279 1.03501 181.705 1.00961 182.126 0.986754C182.177 0.984214 182.239 0.994374 182.287 1.00453C182.697 1.08326 182.697 1.08453 182.939 1.06929C182.998 1.06548 183.06 1.06293 183.119 1.05912C183.419 1.04135 183.731 1.03501 184.024 1.00453C184.361 0.970249 184.606 1.01342 184.844 1.0858C185.145 1.07056 185.453 1.06167 185.746 1.03628C185.966 1.01723 186.083 1.06548 186.229 1.09722C186.281 1.10865 186.336 1.1315 186.38 1.12896C186.805 1.10738 187.23 1.08834 187.647 1.0566C187.875 1.03882 187.973 1.09595 188.127 1.12515C188.179 1.13531 188.234 1.15309 188.281 1.15055C188.523 1.1404 188.765 1.12515 189.007 1.11118C189.289 1.09468 189.289 1.09595 189.662 1.1734C189.838 1.21022 190.014 1.18102 190.187 1.17213C190.37 1.16197 190.542 1.15436 190.688 1.20641C190.78 1.23943 190.89 1.25974 191.004 1.25466C191.245 1.24324 191.491 1.23182 191.729 1.21277C191.92 1.19753 192.084 1.20768 192.224 1.25466C192.322 1.28768 192.425 1.30419 192.546 1.29658C193.088 1.2661 193.634 1.23435 194.176 1.20514C194.224 1.2026 194.29 1.21404 194.334 1.22546C194.437 1.24832 194.536 1.27371 194.634 1.2991C194.873 1.28767 195.118 1.28261 195.353 1.26483C195.602 1.24706 195.829 1.24071 196.023 1.31054C196.063 1.32578 196.122 1.34735 196.17 1.34608C196.353 1.341 196.532 1.32831 196.712 1.31815C196.891 1.30799 197.075 1.29784 197.254 1.28768C197.463 1.31942 197.595 1.41084 197.888 1.38164C198.064 1.36386 198.251 1.36005 198.43 1.34989C198.61 1.33974 198.793 1.32831 198.973 1.31942C199.031 1.31688 199.097 1.31053 199.148 1.31561C199.203 1.32069 199.251 1.33847 199.299 1.35117C199.445 1.38799 199.581 1.42481 199.79 1.40323C199.965 1.38545 200.152 1.38164 200.332 1.37021C200.577 1.35625 200.577 1.35625 200.984 1.43624C201.149 1.46926 201.336 1.42609 201.493 1.45402C201.6 1.47307 201.691 1.5048 201.794 1.52639C201.838 1.53528 201.907 1.53908 201.959 1.53654C202.2 1.52511 202.446 1.51369 202.684 1.49465C202.878 1.47941 203.039 1.49464 203.175 1.54035C203.274 1.57337 203.373 1.58734 203.497 1.57972C204.102 1.54417 204.707 1.51369 205.307 1.47433C205.513 1.46036 205.677 1.48195 205.791 1.52766C205.985 1.60638 206.26 1.51369 206.462 1.57718C206.586 1.61654 206.711 1.66226 206.938 1.64321C207.356 1.6102 207.781 1.59241 208.202 1.56955C208.352 1.60384 208.502 1.63813 208.656 1.67241C208.898 1.65844 209.14 1.64447 209.382 1.63177C209.561 1.62161 209.744 1.61019 209.924 1.6013C209.983 1.59876 210.045 1.59368 210.1 1.60003C210.155 1.60638 210.199 1.62289 210.25 1.63558C210.503 1.6978 210.503 1.69908 210.921 1.67368C211.1 1.66225 211.272 1.65464 211.423 1.70542C211.562 1.7524 211.727 1.76129 211.917 1.74732C212.276 1.72193 212.639 1.70288 213.005 1.6851C213.119 1.67876 213.225 1.70034 213.32 1.73335C213.463 1.78541 213.639 1.78034 213.819 1.76637C214.057 1.74859 214.291 1.73082 214.493 1.80193C214.533 1.81716 214.596 1.83874 214.639 1.83747C214.94 1.82731 215.244 1.8197 215.537 1.79557C215.83 1.77145 215.973 1.85017 216.175 1.88826C216.475 1.87175 216.779 1.85524 217.08 1.83874C217.138 1.83493 217.208 1.82351 217.259 1.82986C217.475 1.85652 217.6 1.95175 217.897 1.92254C218.069 1.90604 218.256 1.90096 218.435 1.89715C218.483 1.89589 218.545 1.91746 218.578 1.93397C218.596 1.94285 218.578 1.96698 218.556 1.97967C218.49 2.01523 218.41 2.04825 218.351 2.08507C218.344 2.09015 218.413 2.113 218.454 2.12315C218.552 2.14601 218.666 2.14221 218.798 2.13205C218.912 2.12316 219.029 2.14094 219.109 2.17903C219.142 2.19427 219.131 2.21966 219.062 2.30346C219.062 2.36568 219.139 2.33774 219.164 2.29711C219.205 2.2387 219.128 2.21966 218.981 2.2514C218.879 2.27425 218.827 2.30727 218.853 2.33393C218.868 2.3479 218.937 2.36568 219.062 2.30346C219.384 2.22728 219.626 2.21332 219.868 2.19935C219.93 2.19554 220.003 2.18284 220.047 2.19045C220.205 2.22093 220.352 2.25776 220.505 2.29204C220.681 2.28442 220.846 2.26537 221.018 2.31489C221.26 2.38472 221.271 2.37837 221.506 2.36441C221.627 2.35679 221.747 2.35045 221.868 2.3441C221.989 2.33775 222.084 2.35679 222.191 2.386C222.407 2.44567 222.425 2.44567 222.568 2.36441C222.652 2.31489 222.711 2.29838 222.817 2.32124C223.169 2.39869 223.173 2.40377 223.473 2.38091C223.722 2.36187 223.957 2.35679 224.14 2.42916C224.265 2.47995 224.305 2.46853 224.404 2.4152C224.668 2.27426 224.788 2.27679 225.283 2.37837C225.514 2.42662 225.752 2.37457 225.987 2.36822C226.184 2.36314 226.324 2.39361 226.338 2.4736C226.349 2.52312 226.382 2.55868 226.514 2.57519C226.565 2.58153 226.628 2.59042 226.679 2.58788C226.983 2.57264 227.284 2.55486 227.588 2.53709C227.742 2.5282 227.826 2.46853 227.797 2.38981C227.764 2.30601 227.822 2.27552 228.042 2.2514C228.174 2.23743 228.28 2.23998 228.386 2.26284C228.504 2.28823 228.471 2.31109 228.368 2.3568C228.123 2.46853 228.152 2.53709 228.467 2.61454C228.577 2.6412 228.665 2.66534 228.691 2.7047C228.705 2.72502 228.691 2.75168 228.724 2.76692C228.903 2.85199 229.152 2.90659 229.431 2.94722C229.698 2.91294 229.881 2.97007 230.087 3.01578C230.248 3.05133 230.438 3.02086 230.61 3.00817C230.805 2.9942 230.966 3.00435 231.105 3.05133C231.204 3.08435 231.307 3.09958 231.427 3.09323C231.669 3.07926 231.915 3.07038 232.153 3.05006C232.358 3.03229 232.512 3.05768 232.64 3.10086C232.801 3.15545 232.981 3.11863 233.15 3.12624C233.377 3.13513 233.49 3.24813 233.787 3.21766C233.963 3.19988 234.146 3.19354 234.329 3.18846C234.377 3.18719 234.436 3.20878 234.476 3.22402C234.67 3.29385 234.897 3.29004 235.146 3.26972C235.319 3.25576 235.487 3.24306 235.656 3.29131C235.934 3.37258 236.242 3.44369 236.535 3.5186C236.575 3.57701 236.546 3.64556 236.755 3.67984C236.865 3.69762 236.967 3.72429 237.052 3.7535C237.154 3.78778 237.249 3.79667 237.381 3.78778C237.619 3.77001 237.869 3.76619 238.103 3.74333C238.319 3.72301 238.455 3.76493 238.587 3.80429C238.693 3.83603 238.792 3.85126 238.92 3.82841C239.052 3.80682 239.147 3.82078 239.254 3.85507C239.404 3.90205 239.415 3.89698 239.913 3.91094C239.964 3.91221 240.027 3.93125 240.056 3.94775C240.071 3.95664 240.038 3.98205 240.012 3.99475C239.979 4.00999 239.928 4.02775 239.88 4.03156C239.338 4.06457 238.792 4.09378 238.25 4.12679C238.195 4.1306 238.136 4.1395 238.096 4.15219C238.052 4.16616 237.997 4.18519 237.997 4.20297C237.997 4.21567 238.07 4.23091 238.121 4.2398C238.283 4.269 238.473 4.22456 238.631 4.25758C238.737 4.27916 238.825 4.30963 238.931 4.32994C238.975 4.33883 239.045 4.33757 239.1 4.33503C239.283 4.32614 239.462 4.31344 239.646 4.30583C239.697 4.30456 239.756 4.31726 239.803 4.32742C240.155 4.4036 240.155 4.4036 240.459 4.38709C240.58 4.38074 240.708 4.36169 240.822 4.36931C240.932 4.37693 241.027 4.41121 241.126 4.4328C241.331 4.47851 241.525 4.52295 241.54 4.62199C241.547 4.66008 241.668 4.69309 241.789 4.69563C241.906 4.69817 242.031 4.68421 242.152 4.67659C242.438 4.66136 242.438 4.66135 242.808 4.73881C242.91 4.76039 243.02 4.76293 243.152 4.75023C243.203 4.74515 243.266 4.75024 243.321 4.75659C243.5 4.77563 243.5 4.79975 243.383 4.84546C243.218 4.91276 243.233 4.91911 243.694 4.97625C243.87 4.99783 244.006 5.03847 244.152 5.07402C244.39 5.13116 244.387 5.13115 244.229 5.20606C244.193 5.22257 244.16 5.24035 244.123 5.25812C244.017 5.30764 243.932 5.36097 243.713 5.36605C243.471 5.37113 243.229 5.39145 242.987 5.40542C242.753 5.41938 242.69 5.44984 242.712 5.53619C242.738 5.6403 242.786 5.65173 243.207 5.65047C243.328 5.65047 243.434 5.66062 243.526 5.6949C243.482 5.73553 243.401 5.76728 243.284 5.7749C242.983 5.79394 242.679 5.81045 242.379 5.82696C242.137 5.84093 241.895 5.85489 241.654 5.86885C241.503 5.87774 241.408 5.94377 241.448 6.01742C241.47 6.05932 241.489 6.10122 241.507 6.14312C241.547 6.22692 241.624 6.24851 241.87 6.2447C241.932 6.24343 241.991 6.23327 242.049 6.23581C242.287 6.2447 242.401 6.35008 242.687 6.3285C242.925 6.31072 243.174 6.30691 243.409 6.28406C243.625 6.26374 243.746 6.30946 243.896 6.34375C243.947 6.35518 244.002 6.37929 244.046 6.37802C244.35 6.36405 244.654 6.35009 244.951 6.32597C245.09 6.31581 245.174 6.32343 245.284 6.3539C245.548 6.42754 245.556 6.42373 245.948 6.40088C246.233 6.3831 246.237 6.38564 246.603 6.46309C246.706 6.48468 246.816 6.48468 246.948 6.47452C247.12 6.46182 247.3 6.44151 247.479 6.46055C247.534 6.46563 247.604 6.48087 247.622 6.49738C247.633 6.50881 247.582 6.53674 247.538 6.54563C247.215 6.61166 246.838 6.60023 246.486 6.62689C246.376 6.63451 246.266 6.61038 246.175 6.5761C246.079 6.54182 245.977 6.52786 245.852 6.53421C245.611 6.54817 245.365 6.55706 245.127 6.57737C244.922 6.59515 244.779 6.56594 244.636 6.52658C244.588 6.51388 244.533 6.48975 244.486 6.49102C243.943 6.51642 243.398 6.54182 242.859 6.57737C242.643 6.59261 242.518 6.55198 242.372 6.5177C242.32 6.50627 242.269 6.48214 242.221 6.48341C242.038 6.48849 241.859 6.50246 241.676 6.51262C241.009 6.55071 240.345 6.5888 239.679 6.62435C239.635 6.62689 239.58 6.60022 239.528 6.5888C239.429 6.56594 239.327 6.54435 239.224 6.52277C239.041 6.53293 238.862 6.54562 238.678 6.55324C238.546 6.55832 238.429 6.5761 238.411 6.62435C238.4 6.6561 238.521 6.68529 238.649 6.68275C238.774 6.68022 238.898 6.66498 239.001 6.68148C239.51 6.76275 239.51 6.76402 239.829 6.74751C240.107 6.73228 240.078 6.71957 240.323 6.78941C240.43 6.81988 240.525 6.83767 240.646 6.83005C240.946 6.81227 241.25 6.79449 241.555 6.77926C241.602 6.77672 241.664 6.78942 241.712 6.79958C242.071 6.87576 242.071 6.87829 242.368 6.85925C242.756 6.83639 242.771 6.83005 243.031 6.9075C243.211 6.96083 243.376 6.924 243.548 6.92146C243.746 6.97098 243.962 7.01543 244.141 7.0713C244.354 7.13733 244.577 7.12589 244.819 7.10684C244.999 7.09287 245.175 7.0878 245.321 7.13985C245.46 7.1881 245.629 7.19319 245.819 7.18049C245.992 7.16907 246.167 7.14493 246.347 7.17287C246.395 7.18049 246.468 7.19954 246.464 7.21097C246.461 7.22874 246.413 7.25414 246.365 7.26176C246.028 7.31382 245.658 7.31254 245.303 7.33667C245.255 7.34048 245.193 7.32651 245.145 7.31635C245.043 7.29349 244.944 7.26683 244.845 7.24271C244.665 7.25033 244.482 7.25286 244.306 7.2681C244.171 7.27953 244.068 7.27827 243.969 7.24779C243.877 7.21986 243.779 7.18557 243.669 7.17668C243.559 7.16779 243.431 7.18684 243.31 7.19446C243.189 7.20208 243.049 7.19826 242.954 7.21858C242.859 7.23889 242.8 7.28334 242.738 7.31889C242.668 7.35825 242.573 7.37096 242.434 7.37477C242.306 7.37858 242.203 7.37349 242.108 7.33794C242.068 7.3227 242.012 7.31127 241.958 7.30111C241.906 7.29222 241.848 7.27825 241.8 7.28079C241.254 7.31 240.712 7.34175 240.166 7.37222C239.895 7.38746 239.898 7.38745 239.334 7.31254C239.283 7.30619 239.221 7.2973 239.169 7.29984C238.865 7.31508 238.565 7.33286 238.261 7.35063C237.953 7.36841 237.957 7.36587 237.433 7.28588C237.337 7.27064 237.198 7.29096 237.085 7.28842C236.846 7.28207 236.729 7.17541 236.451 7.19573C236.213 7.21351 235.963 7.21731 235.725 7.24017C235.509 7.26048 235.385 7.21605 235.238 7.18177C235.187 7.17034 235.132 7.14494 235.088 7.14748C234.542 7.17541 234 7.20716 233.274 7.21097C233.095 7.21097 233.175 7.23763 233.292 7.24652C233.461 7.26049 233.516 7.23383 233.424 7.18304C233.358 7.14748 233.263 7.12969 233.186 7.13858C233.146 7.14366 233.095 7.1678 233.274 7.21097C233.465 7.25922 233.454 7.28588 233.487 7.30111C233.567 7.33793 233.681 7.35317 233.798 7.34809C233.981 7.3392 234.161 7.32651 234.344 7.31889C234.395 7.31635 234.458 7.32524 234.505 7.3354C234.908 7.41412 234.912 7.41921 235.341 7.38873C235.476 7.37984 235.575 7.37984 235.681 7.40397C235.828 7.43698 235.934 7.49284 236.158 7.47506C236.454 7.45094 236.758 7.43698 237.063 7.42302C237.11 7.42048 237.161 7.44333 237.216 7.45349C237.367 7.48396 237.477 7.5411 237.7 7.51698C237.872 7.49793 238.059 7.49284 238.242 7.48903C238.29 7.48776 238.363 7.50808 238.385 7.52459C238.429 7.55379 238.374 7.58808 238.25 7.61221C238.198 7.62236 238.129 7.61982 238.07 7.62363C237.828 7.6376 237.587 7.65283 237.345 7.66425C237.216 7.6706 237.096 7.68966 237.081 7.73664C237.07 7.76838 237.202 7.79631 237.326 7.79377C237.51 7.78996 237.693 7.7798 237.869 7.7633C238.18 7.73536 238.451 7.74298 238.704 7.82297C238.884 7.87884 238.873 7.85853 239.063 8.0236C239.111 8.0655 239.254 8.0693 239.378 8.06676C239.679 8.06041 239.818 8.07946 239.792 8.11883C239.759 8.16708 239.653 8.1823 239.517 8.18865C239.276 8.19881 239.034 8.21532 238.792 8.22929C238.733 8.2331 238.667 8.24071 238.612 8.23817C238.557 8.23563 238.506 8.2204 238.459 8.20897C238.356 8.18485 238.268 8.14802 238.158 8.13913C238.048 8.13024 237.92 8.14929 237.799 8.15691C237.678 8.16326 237.55 8.1823 237.44 8.17342C237.33 8.16453 237.238 8.12644 237.14 8.10359C237.092 8.09216 237.033 8.07437 236.986 8.07564C236.744 8.0858 236.502 8.10232 236.26 8.11501C235.963 8.13152 235.963 8.13152 235.604 8.0528C235.502 8.02994 235.396 8.03122 235.26 8.04137C234.967 8.06169 234.963 8.05787 234.428 7.98423C234.377 7.97661 234.315 7.96772 234.263 7.97153C233.717 8.00074 233.175 8.03248 232.633 8.06295C232.168 8.08961 232.168 8.08962 231.911 8.2166C231.721 8.31056 231.717 8.31055 231.904 8.35372C232.054 8.38927 232.19 8.44133 232.354 8.46037C232.508 8.47815 232.699 8.42102 232.867 8.47942C232.952 8.50863 233.062 8.54037 233.168 8.54545C233.336 8.5518 233.516 8.51497 233.677 8.57084C233.758 8.59877 233.879 8.62799 233.981 8.62926C234.161 8.6318 234.344 8.61147 234.524 8.60258C234.578 8.60004 234.641 8.60005 234.692 8.6064C234.747 8.61402 234.795 8.62926 234.842 8.64195C234.989 8.68512 235.146 8.70543 235.337 8.68385C235.648 8.6483 235.927 8.66607 236.169 8.74733C236.202 8.75876 236.282 8.76004 236.333 8.75496C236.465 8.74226 236.579 8.74099 236.678 8.76511C236.718 8.77527 236.777 8.79304 236.769 8.80447C236.758 8.82351 236.715 8.84891 236.667 8.85526C236.322 8.89843 235.952 8.90352 235.597 8.92637C235.549 8.92891 235.491 8.91239 235.443 8.90097C235.341 8.87811 235.253 8.84003 235.143 8.83114C235.033 8.82225 234.905 8.83876 234.784 8.84511C234.663 8.85145 234.535 8.8705 234.425 8.86288C234.315 8.854 234.212 8.82225 234.124 8.79431C234.022 8.76257 233.923 8.75877 233.787 8.77147C233.611 8.78797 233.428 8.79051 233.249 8.7994C233.15 8.77527 233.051 8.7486 232.948 8.72574C232.9 8.71432 232.842 8.70036 232.791 8.70163C232.549 8.71178 232.307 8.72701 232.065 8.74098C231.823 8.75495 231.823 8.75496 231.413 8.67624C231.365 8.66735 231.303 8.65719 231.252 8.65973C230.947 8.67497 230.647 8.694 230.343 8.70924C230.226 8.71559 230.12 8.69781 230.024 8.66353C229.933 8.62925 229.823 8.6102 229.709 8.61655C229.225 8.64321 228.742 8.66861 228.258 8.70036C228.064 8.71305 227.899 8.70163 227.767 8.65592C227.613 8.60386 227.441 8.61656 227.262 8.62672C226.855 8.65211 226.851 8.65083 226.591 8.58608C226.54 8.57338 226.489 8.54925 226.441 8.55052C226.02 8.56957 225.595 8.58735 225.177 8.61782C224.957 8.63433 224.84 8.58989 224.693 8.55688C224.642 8.54545 224.587 8.52132 224.543 8.52386C224.239 8.53783 223.935 8.55053 223.638 8.57592C223.341 8.60132 223.228 8.48324 223.004 8.48451C222.7 8.48578 222.4 8.51498 222.099 8.53276C221.857 8.54673 221.616 8.56069 221.374 8.57465C221.132 8.58862 220.89 8.60004 220.648 8.61655C220.52 8.62544 220.425 8.61401 220.319 8.58226C220.183 8.54036 220.022 8.50736 219.875 8.46927C219.652 8.41467 219.652 8.41467 219.381 8.4299C219.322 8.43371 219.26 8.43625 219.201 8.44005C218.758 8.46799 218.758 8.46546 218.193 8.38547C218.168 8.38166 218.102 8.39563 218.076 8.40579C217.999 8.4388 217.93 8.47434 217.86 8.50863C217.761 8.48831 217.64 8.47688 217.574 8.44768C217.387 8.36515 217.094 8.47815 216.904 8.39689C216.834 8.36642 216.713 8.33975 216.603 8.33213C216.49 8.32451 216.361 8.34229 216.244 8.34991C215.94 8.36896 215.94 8.36769 215.68 8.4807C215.548 8.53656 215.358 8.5264 215.185 8.5391C215.006 8.55306 214.834 8.56068 214.683 8.50863C214.548 8.46165 214.383 8.45022 214.189 8.46546C213.951 8.4845 213.705 8.49593 213.463 8.50735C213.412 8.50989 213.35 8.50355 213.298 8.49593C212.738 8.42102 212.738 8.41975 212.467 8.43626C212.346 8.44388 212.221 8.44641 212.104 8.45783C211.906 8.47815 211.756 8.45149 211.613 8.41085C211.565 8.39816 211.51 8.37404 211.463 8.37531C211.221 8.38166 210.983 8.39309 210.745 8.40451C210.561 8.4134 210.378 8.41848 210.202 8.43626C209.909 8.46546 209.766 8.38292 209.565 8.34483C209.264 8.36133 208.96 8.37276 208.66 8.39562C208.521 8.40578 208.429 8.40197 208.323 8.3715C208.187 8.33341 208.063 8.29024 207.843 8.30928C207.55 8.33468 207.242 8.34357 206.942 8.35881C206.74 8.31944 206.594 8.23944 206.304 8.26864C206.128 8.28642 205.941 8.29023 205.762 8.30039C205.52 8.31435 205.278 8.32706 205.036 8.3423C204.776 8.35754 204.78 8.35373 204.381 8.27881C204.15 8.23437 203.911 8.28389 203.677 8.29151C203.494 8.29786 203.402 8.35626 203.446 8.43117C203.49 8.50609 203.391 8.5645 203.223 8.57465C202.801 8.59878 202.376 8.62417 201.955 8.64575C201.904 8.64829 201.841 8.6394 201.794 8.63051C201.343 8.55052 201.343 8.5518 201.142 8.56323C200.841 8.58228 200.533 8.59242 200.237 8.61655C200.031 8.63306 199.881 8.6064 199.749 8.56323C199.647 8.53022 199.551 8.5226 199.42 8.53022C197.969 8.61529 196.518 8.69401 195.07 8.78162C194.854 8.79432 194.73 8.7575 194.583 8.72322C194.532 8.71179 194.484 8.68766 194.433 8.68766C194.312 8.68766 194.191 8.69909 194.07 8.70671C193.528 8.73718 192.986 8.774 192.44 8.79686C192.209 8.80701 192.147 8.86543 192.048 8.91368C191.971 8.9505 191.883 8.96573 191.747 8.97081C191.615 8.97589 191.52 8.96954 191.418 8.93652C191.286 8.89335 191.135 8.86668 190.93 8.88446C190.692 8.90478 190.45 8.91367 190.205 8.92764C190.08 8.93399 189.985 8.95684 189.945 9.00255C189.937 9.01017 190.014 9.02922 190.058 9.04065C190.205 9.07874 190.344 9.12318 190.509 9.14984C190.677 9.17651 190.861 9.14602 191.036 9.13841C191.099 9.13587 191.157 9.12825 191.216 9.12952C191.271 9.13079 191.337 9.13715 191.377 9.14857C191.568 9.20571 191.769 9.24507 192.033 9.21079C192.26 9.22729 192.378 9.33268 192.667 9.30475C192.843 9.28824 193.026 9.28062 193.209 9.27427C193.257 9.27301 193.308 9.29586 193.359 9.30729C193.506 9.33903 193.623 9.38982 193.843 9.36823C194.078 9.34538 194.327 9.34157 194.565 9.3238C194.697 9.31364 194.792 9.32253 194.895 9.35554C195.026 9.39744 195.177 9.42917 195.382 9.40886C195.558 9.39108 195.745 9.38727 195.924 9.37584C196.159 9.36188 196.159 9.36315 196.576 9.44187C196.624 9.45076 196.686 9.46092 196.738 9.45838C197.042 9.44314 197.342 9.4241 197.646 9.40886C197.763 9.40251 197.877 9.41901 197.958 9.45584C197.991 9.47107 197.98 9.49648 197.991 9.51807C197.386 9.55235 196.781 9.58155 196.181 9.62345C195.953 9.63996 195.851 9.5879 195.701 9.55869C195.649 9.54854 195.594 9.52695 195.547 9.52949C195.122 9.55108 194.7 9.57393 194.279 9.60186C194.147 9.61075 194.048 9.60567 193.949 9.56884C193.697 9.47108 193.389 9.52441 193.103 9.53837C192.883 9.54853 192.814 9.5879 192.839 9.6717C192.872 9.77074 193.004 9.80121 193.341 9.78344C193.462 9.77709 193.583 9.7682 193.704 9.76312C193.821 9.75804 193.927 9.77454 194.023 9.80883C194.114 9.84311 194.224 9.86088 194.338 9.85581C194.579 9.84438 194.825 9.83296 195.059 9.81391C195.254 9.79867 195.415 9.81137 195.55 9.85835C195.701 9.91041 195.877 9.89898 196.052 9.88755C196.463 9.86215 196.466 9.86343 196.723 9.92692C196.774 9.93961 196.826 9.96374 196.873 9.96247C197.294 9.94343 197.719 9.92692 198.134 9.89645C198.35 9.88121 198.474 9.92183 198.617 9.95485C198.668 9.96628 198.72 9.99167 198.767 9.98913C199.071 9.97517 199.376 9.96119 199.672 9.93707C199.812 9.92564 199.896 9.93326 200.009 9.96373C200.281 10.0386 200.288 10.0361 200.673 10.012C200.79 10.0044 200.918 9.9904 201.028 10.0006C201.138 10.0107 201.226 10.0475 201.328 10.0704C201.376 10.0806 201.435 10.0945 201.486 10.092C201.728 10.0818 201.97 10.0666 202.211 10.0526C202.439 10.0387 202.439 10.0399 202.864 10.1186C203.036 10.1517 203.215 10.1237 203.388 10.1136C203.574 10.1021 203.743 10.1021 203.886 10.1517C204.029 10.2012 204.201 10.1986 204.384 10.1885C204.556 10.1783 204.732 10.1504 204.908 10.1847C205.311 10.2634 205.311 10.2647 205.56 10.2494C205.923 10.2278 206.282 10.2075 206.648 10.1885C206.696 10.1859 206.758 10.2012 206.806 10.2113C206.909 10.2342 206.997 10.2723 207.106 10.2812C207.216 10.2913 207.345 10.2761 207.462 10.2685C207.839 10.2443 207.865 10.2355 208.118 10.3193C208.33 10.3878 208.594 10.2888 208.792 10.3675C208.905 10.412 209.059 10.4475 209.272 10.4259C209.448 10.4081 209.631 10.4031 209.814 10.3929C210.103 10.3764 210.103 10.3777 210.47 10.4539C210.518 10.464 210.58 10.4767 210.627 10.4742C210.869 10.464 211.115 10.4551 211.349 10.4323C211.624 10.4056 211.8 10.4539 212.005 10.5008C212.166 10.5377 212.357 10.5072 212.529 10.4945C212.716 10.4818 212.884 10.4856 213.024 10.5351C213.17 10.5859 213.342 10.5795 213.526 10.5694C213.698 10.5605 213.874 10.5313 214.05 10.5668C214.427 10.6456 214.427 10.6456 214.702 10.6303C214.944 10.6164 215.185 10.6011 215.427 10.591C215.475 10.5884 215.533 10.6049 215.581 10.6164C215.684 10.6392 215.772 10.6773 215.881 10.6862C215.991 10.6951 216.12 10.6786 216.241 10.6722C216.361 10.6659 216.49 10.6469 216.6 10.6545C216.71 10.6621 216.812 10.6938 216.9 10.7218C217.003 10.7548 217.098 10.7586 217.237 10.7459C217.413 10.7294 217.596 10.7256 217.776 10.7167C217.875 10.7408 217.977 10.7649 218.073 10.7916C218.171 10.8195 218.278 10.817 218.413 10.8081C218.864 10.7776 218.868 10.7814 219.245 10.8602C219.417 10.8957 219.597 10.8665 219.769 10.8576C219.952 10.8475 220.124 10.8424 220.267 10.8932C220.406 10.9414 220.579 10.9478 220.762 10.9325C220.879 10.9224 221.004 10.916 221.125 10.9122C221.18 10.911 221.245 10.916 221.286 10.9262C221.48 10.9795 221.67 11.0278 221.938 10.9935C222.172 11.0037 222.29 11.1078 222.572 11.0875C222.81 11.0697 223.059 11.0659 223.294 11.043C223.51 11.0227 223.664 11.0582 223.774 11.1027C223.971 11.1814 224.25 11.0748 224.448 11.1522C224.561 11.1966 224.708 11.2322 224.928 11.2132C225.169 11.1928 225.246 11.2195 225.316 11.2995C225.356 11.3452 225.349 11.382 225.276 11.4176C225.203 11.4544 225.122 11.4481 225.005 11.4062C224.869 11.3592 224.708 11.3503 224.514 11.3604C224.323 11.3706 224.206 11.3046 224.048 11.2792C223.891 11.2525 223.704 11.297 223.539 11.2627C223.151 11.1827 223.151 11.1827 222.887 11.1979C222.707 11.2081 222.521 11.2132 222.345 11.2309C222.136 11.2525 222 11.2131 221.857 11.1776C221.806 11.1649 221.755 11.1408 221.711 11.142C221.289 11.1611 220.864 11.1789 220.447 11.2106C220.227 11.2271 220.11 11.1814 219.963 11.1497C219.912 11.1382 219.857 11.1154 219.813 11.1179C219.45 11.1357 219.091 11.1586 218.728 11.1801C218.659 11.2144 218.582 11.2474 218.516 11.2843C218.446 11.3223 218.351 11.3389 218.212 11.3376C217.981 11.3376 217.754 11.3909 217.523 11.3236C217.285 11.2551 217.267 11.2589 217.036 11.2754C216.743 11.297 216.431 11.2919 216.156 11.3414C216.109 11.3503 216.057 11.3744 216.057 11.3922C216.054 11.4036 216.131 11.4201 216.178 11.4303C216.34 11.4607 216.526 11.4163 216.688 11.448C216.794 11.4684 216.882 11.4988 216.988 11.5204C217.032 11.5293 217.098 11.528 217.157 11.5268C217.219 11.5255 217.277 11.5166 217.336 11.5179C217.391 11.5192 217.45 11.5268 217.494 11.5382C217.695 11.5864 217.908 11.6309 218.087 11.688C218.263 11.7439 218.428 11.7058 218.604 11.7033C219.307 11.7921 219.307 11.7934 219.78 11.7655C219.897 11.7591 220.018 11.7515 220.139 11.7528C220.19 11.7528 220.238 11.7756 220.289 11.7883C220.436 11.8264 220.575 11.8607 220.78 11.8404C220.956 11.8226 221.143 11.8188 221.322 11.8074C221.564 11.7934 221.564 11.7934 221.975 11.8734C222.077 11.8937 222.187 11.8912 222.319 11.881C222.433 11.8721 222.55 11.8912 222.63 11.928C222.663 11.9432 222.652 11.9686 222.663 11.9902C222.301 12.0105 221.934 12.0245 221.583 12.055C221.355 12.074 221.253 12.0194 221.103 11.9902C221.051 11.9801 220.996 11.9585 220.949 11.961C220.59 11.9801 220.231 12.0016 219.872 12.027C219.828 12.0296 219.773 12.0588 219.769 12.0766C219.762 12.1096 219.853 12.1413 219.985 12.14C220.161 12.1388 220.333 12.1172 220.491 12.1692C220.623 12.215 220.787 12.2353 220.982 12.215C221.099 12.2035 221.224 12.2035 221.341 12.1934C221.652 12.1629 221.934 12.1693 222.169 12.2556C222.348 12.2785 222.524 12.2569 222.696 12.2454C222.825 12.2366 222.949 12.2277 223.041 12.2518C223.235 12.3026 223.426 12.3534 223.693 12.3191C223.982 12.3546 224.202 12.4295 224.444 12.4905C224.558 12.5197 224.646 12.5362 224.777 12.5172C224.832 12.5095 224.898 12.5095 224.957 12.5057C225.078 12.4994 225.206 12.4803 225.316 12.488C225.426 12.4968 225.518 12.5337 225.617 12.5565C225.664 12.5679 225.719 12.587 225.767 12.5857C225.95 12.5794 226.129 12.5667 226.309 12.5565C226.489 12.5476 226.668 12.5387 226.848 12.5299C226.998 12.5629 227.152 12.5959 227.302 12.6289C227.544 12.6149 227.786 12.601 228.024 12.5883C228.291 12.573 228.291 12.5743 228.676 12.653C228.848 12.6886 229.031 12.6657 229.196 12.6492C229.471 12.6225 229.654 12.6708 229.848 12.7216C229.889 12.7317 229.962 12.7381 230.01 12.733C230.2 12.7152 230.365 12.7292 230.504 12.7762C230.603 12.8092 230.702 12.8244 230.823 12.8181C231.244 12.794 231.666 12.7686 232.087 12.747C232.138 12.7444 232.197 12.7559 232.245 12.766C232.618 12.8435 232.622 12.8473 232.897 12.827C233.142 12.8092 233.369 12.8016 233.564 12.8714C233.604 12.8866 233.666 12.9082 233.71 12.907C234.011 12.8943 234.315 12.8803 234.611 12.8587C234.747 12.8486 234.842 12.8524 234.949 12.8816C235.084 12.9184 235.205 12.9628 235.429 12.9463C236.048 12.8994 236.051 12.907 236.784 12.9946C236.835 13.0009 236.905 12.9908 236.964 12.9857C237.088 12.973 237.18 12.9908 237.29 13.02C237.535 13.086 237.543 13.0822 237.777 13.0682C237.957 13.0568 238.143 13.0543 238.319 13.0352C238.59 13.0073 238.77 13.0568 238.971 13.1038C239.133 13.1406 239.32 13.1101 239.492 13.0987C239.679 13.086 239.847 13.0898 239.986 13.1381C240.082 13.1711 240.184 13.1889 240.305 13.1825C240.726 13.1596 241.148 13.1342 241.569 13.1114C241.621 13.1089 241.683 13.119 241.73 13.1279C242.148 13.2066 242.148 13.2104 242.562 13.1812C242.694 13.1723 242.804 13.1698 242.903 13.1965C242.998 13.2219 243.101 13.246 243.2 13.2701C243.379 13.2612 243.562 13.2587 243.738 13.2434C243.874 13.232 243.969 13.2371 244.075 13.2638C244.215 13.2981 244.332 13.3577 244.552 13.3285C244.665 13.3145 244.797 13.3184 244.911 13.3057C245.046 13.2892 245.138 13.2993 245.244 13.3323C245.376 13.3717 245.512 13.4123 245.724 13.392C245.959 13.3691 246.208 13.3653 246.446 13.3476C246.578 13.3374 246.669 13.3476 246.776 13.3806C246.908 13.4225 247.058 13.4491 247.263 13.4326C247.681 13.4009 247.684 13.4072 248.091 13.4872C248.194 13.5075 248.304 13.505 248.435 13.4949C248.549 13.486 248.666 13.505 248.747 13.5418C248.824 13.5825 248.816 13.6079 248.824 13.6294ZM216.175 2.17776C216.054 2.18411 215.933 2.19173 215.757 2.08126C215.746 2.06221 215.753 2.03936 215.728 2.02286C215.669 1.98857 215.577 1.96445 215.468 1.96064C215.27 1.95556 215.031 1.99873 215.035 2.03174C215.039 2.05967 215.101 2.08379 215.222 2.10665C215.273 2.11554 215.314 2.13078 215.361 2.14093C215.5 2.17014 215.61 2.22728 215.812 2.19808C215.775 2.11936 215.794 2.15872 215.812 2.19808C215.794 2.24633 215.849 2.28061 215.98 2.29458C216.017 2.29839 216.072 2.29584 216.101 2.28823C216.215 2.26029 216.233 2.22221 216.149 2.1219C216.134 2.13841 216.145 2.1676 216.178 2.17522C216.211 2.18284 216.292 2.1765 216.332 2.16761C216.435 2.14348 216.486 2.11174 216.46 2.08507C216.446 2.07111 216.376 2.05333 216.332 2.05333C216.255 2.05333 216.186 2.08126 216.175 2.17776ZM245.801 16.9028C245.534 16.9269 245.226 16.918 244.958 16.9676C244.911 16.9764 244.863 16.9993 244.859 17.0171C244.856 17.0285 244.929 17.045 244.973 17.0539C245.072 17.0742 245.182 17.0679 245.31 17.0615C245.504 17.0526 245.618 17.111 245.768 17.1402C245.816 17.1491 245.878 17.1555 245.929 17.1529C246.226 17.1377 246.519 17.1212 246.816 17.1034C246.867 17.0996 246.922 17.0907 246.966 17.0793C247.113 17.0425 247.098 17.0184 246.955 16.9904C246.798 16.9599 246.673 16.9091 246.512 16.885C246.281 16.8507 246.046 16.8965 245.801 16.9028ZM224.994 17.8297C224.814 17.8399 224.638 17.85 224.459 17.8602C224.4 17.864 224.338 17.8653 224.283 17.8703C224.169 17.8792 224.085 17.9059 224.03 17.9478C224.114 17.9808 224.217 17.9998 224.331 17.996C224.51 17.9884 224.686 17.9719 224.865 17.9681C225.06 17.963 225.173 18.0202 225.323 18.0494C225.371 18.0583 225.43 18.0595 225.485 18.0608C225.756 18.0659 225.921 17.9998 225.869 17.9072C225.833 17.8348 225.693 17.7916 225.525 17.8005C225.349 17.8094 225.17 17.8195 224.994 17.8297ZM247.054 15.0261C247.098 15.0046 247.146 14.9893 247.168 14.9703C247.234 14.9055 247.208 14.8573 247.087 14.8065C246.94 14.7443 246.761 14.7862 246.596 14.7925C246.556 14.7938 246.512 14.8204 246.49 14.8369C246.475 14.8484 246.475 14.8725 246.497 14.8789C246.677 14.9296 246.867 14.9766 247.054 15.0261ZM215.27 11.2754C215.094 11.2855 214.914 11.2931 214.738 11.3071C214.694 11.3109 214.654 11.335 214.628 11.3515C214.581 11.382 214.632 11.4239 214.782 11.4277C214.955 11.4328 215.134 11.4112 215.314 11.4011C215.541 11.3884 215.676 11.3414 215.592 11.3008C215.511 11.2614 215.402 11.2538 215.27 11.2754ZM22.4048 8.56196C22.522 8.55561 22.6429 8.55053 22.7602 8.54164C22.8701 8.53275 22.9544 8.50482 23.0094 8.46292C22.9178 8.4299 22.8152 8.41213 22.7016 8.41594C22.5221 8.42356 22.3462 8.43371 22.1704 8.44641C22.0604 8.45403 21.9542 8.48196 21.9286 8.52513C21.9029 8.55815 22.1483 8.5772 22.4048 8.56196ZM199.775 8.36642C199.823 8.37784 199.87 8.4007 199.918 8.4007C200.035 8.4007 200.156 8.39308 200.266 8.38038C200.314 8.3753 200.35 8.35245 200.372 8.33467C200.387 8.32325 200.383 8.30294 200.361 8.29278C200.255 8.23183 199.83 8.25341 199.76 8.32325C199.753 8.33595 199.771 8.35245 199.775 8.36642ZM188.215 1.41338C188.226 1.4337 188.23 1.45401 188.245 1.47433C188.274 1.51242 188.354 1.54036 188.472 1.5594C188.563 1.52766 188.611 1.49211 188.607 1.45402C188.604 1.43371 188.593 1.41338 188.578 1.39306C188.549 1.35497 188.468 1.32704 188.351 1.308C188.259 1.33847 188.215 1.37402 188.215 1.41338ZM255.521 18.0506C255.488 18.0671 255.455 18.0837 255.419 18.0989C255.518 18.1357 255.609 18.1471 255.679 18.1268C255.723 18.1141 255.749 18.0951 255.782 18.0786C255.683 18.0417 255.595 18.0316 255.521 18.0506ZM253.242 18.2233C253.29 18.2347 253.334 18.25 253.385 18.2576C253.47 18.2703 253.547 18.2487 253.605 18.203C253.558 18.1916 253.514 18.1763 253.462 18.1687C253.378 18.156 253.301 18.1776 253.242 18.2233ZM254.686 17.991C254.66 18.0214 254.712 18.0468 254.847 18.0684C254.88 18.0519 254.924 18.0367 254.946 18.0189C254.983 17.9897 254.92 17.963 254.789 17.9427C254.752 17.958 254.719 17.9745 254.686 17.991ZM246.952 16.6222C246.926 16.6527 246.977 16.6781 247.113 16.6996C247.146 16.6831 247.19 16.6679 247.212 16.6501C247.248 16.6209 247.186 16.5943 247.054 16.5739C247.017 16.5892 246.984 16.6057 246.952 16.6222ZM236.414 7.63759C236.381 7.6541 236.348 7.67061 236.311 7.68584C236.41 7.72267 236.502 7.73409 236.572 7.71377C236.616 7.70108 236.641 7.68203 236.674 7.66552C236.575 7.6287 236.487 7.61855 236.414 7.63759ZM226.32 2.87103C226.408 2.87991 226.481 2.86215 226.544 2.81517C226.496 2.80374 226.452 2.7885 226.401 2.78088C226.316 2.76818 226.239 2.78978 226.181 2.83549C226.228 2.84818 226.276 2.8596 226.32 2.87103ZM220.96 2.57264C220.927 2.58915 220.894 2.60566 220.857 2.62089C220.956 2.65772 221.048 2.66914 221.117 2.64882C221.161 2.63613 221.187 2.61708 221.22 2.60057C221.121 2.56375 221.033 2.55487 220.96 2.57264ZM184.61 1.41211C184.577 1.42862 184.544 1.44512 184.507 1.46036C184.606 1.49718 184.698 1.50861 184.768 1.48829C184.812 1.47559 184.837 1.45655 184.87 1.44004C184.771 1.40322 184.683 1.39433 184.61 1.41211ZM3.61624 11.7426C3.56861 11.7312 3.52102 11.7198 3.47705 11.7071C3.3708 11.7414 3.33783 11.7731 3.39646 11.7972C3.43309 11.8125 3.48801 11.8214 3.53564 11.8328C3.64556 11.7985 3.6712 11.768 3.61624 11.7426Z" fill="#FFE492"/>
<path d="M25.2776 7.25936C24.8563 7.28348 24.4386 7.31395 24.0173 7.32918C23.7938 7.3368 23.7132 7.3914 23.6216 7.44219C23.5483 7.48282 23.464 7.49552 23.3285 7.50313C22.1853 7.56535 21.0458 7.63138 19.9064 7.69614C19.7635 7.67963 19.6939 7.65297 19.7268 7.62123C19.7451 7.60218 19.7891 7.57551 19.8331 7.57298C20.6135 7.526 21.3902 7.47774 22.1743 7.44092C22.3978 7.43076 22.4601 7.37489 22.5737 7.32918C22.6103 7.31395 22.6397 7.29109 22.6873 7.2822C22.7349 7.27204 22.8045 7.27332 22.8668 7.27078C24.1272 7.1984 25.3876 7.12731 26.648 7.05493C26.7909 7.07144 26.8605 7.0981 26.8275 7.12984C26.8092 7.14889 26.7652 7.17555 26.7213 7.17809C26.2376 7.20476 25.7576 7.23142 25.2776 7.25936Z" fill="#FFE492"/>
<path d="M255.358 14.0203C255.167 14.0356 254.926 14.0571 254.728 13.9835C254.633 13.9479 254.53 13.9365 254.405 13.9441C254.226 13.9568 254.043 13.967 253.859 13.9746C253.812 13.9759 253.749 13.9619 253.702 13.9505C253.599 13.9276 253.511 13.8895 253.401 13.8794C253.291 13.8692 253.16 13.8972 253.046 13.8908C252.896 13.8819 252.834 13.8476 252.874 13.8159C252.896 13.7981 252.94 13.7727 252.987 13.7689C253.665 13.7219 253.669 13.7219 253.859 13.7676C254.006 13.8032 254.142 13.8425 254.35 13.821C254.526 13.8032 254.713 13.7994 254.893 13.7879C255.142 13.7727 255.142 13.774 255.545 13.854C255.647 13.8743 255.757 13.873 255.889 13.8616C256.003 13.8527 256.113 13.873 256.204 13.9073C256.146 13.9505 256.061 13.9784 255.948 13.986C255.765 13.9987 255.585 14.0076 255.358 14.0203Z" fill="#FFE492"/>
<path d="M249.382 13.6294C249.843 13.6027 250.309 13.5799 250.77 13.5494C250.961 13.5367 251.111 13.5507 251.243 13.5939C251.386 13.6408 251.547 13.637 251.723 13.6281C251.833 13.6231 251.939 13.6434 252.013 13.6789C252.042 13.6929 252.035 13.7183 252.046 13.7386C251.642 13.7615 251.236 13.7856 250.829 13.8059C250.782 13.8084 250.723 13.7957 250.679 13.7856C250.58 13.764 250.496 13.7259 250.389 13.7183C250.162 13.7005 249.935 13.7348 249.704 13.7411C249.594 13.7437 249.488 13.7246 249.415 13.6904C249.386 13.6739 249.393 13.6497 249.382 13.6294Z" fill="#FFE492"/>
<path d="M81.5835 2.71252C82.0635 2.68459 82.5434 2.65794 83.0234 2.63C83.1663 2.64778 83.2322 2.67317 83.2029 2.70491C83.1846 2.72396 83.1406 2.75063 83.0967 2.75316C82.1367 2.8103 81.1768 2.86489 80.2205 2.91949C80.0776 2.90172 80.0117 2.87632 80.041 2.84458C80.0593 2.82554 80.1033 2.79887 80.1473 2.79633C80.6236 2.76713 81.1035 2.74046 81.5835 2.71252Z" fill="#FFE492"/>
<path d="M7.75466 9.76838C7.53849 9.77092 7.31137 9.81789 7.06955 9.78234C7.02192 9.77599 6.95595 9.75567 6.95962 9.74424C6.96695 9.7252 7.01092 9.70107 7.05855 9.69345C7.26739 9.66171 7.52756 9.6579 7.63381 9.56902C7.68511 9.52331 7.78037 9.50808 7.9086 9.4992C8.04417 9.48904 8.1394 9.49284 8.24566 9.5195C8.38488 9.55378 8.50215 9.61727 8.72198 9.58426C8.73297 9.60457 8.75856 9.62743 8.74757 9.64647C8.73657 9.66552 8.68902 9.6833 8.64506 9.69726C8.60475 9.70996 8.54974 9.72139 8.49844 9.7252C8.25663 9.74043 8.0148 9.75314 7.75466 9.76838Z" fill="#FFE492"/>
<path d="M198.907 9.51321C199.086 9.50305 199.273 9.49797 199.449 9.48019C199.588 9.46623 199.676 9.47511 199.786 9.50558C199.973 9.55891 199.984 9.55384 200.442 9.56146C200.493 9.56273 200.555 9.58176 200.585 9.59827C200.603 9.60716 200.577 9.6313 200.555 9.64399C200.522 9.6605 200.475 9.68208 200.431 9.68208C200.141 9.68589 199.848 9.76081 199.566 9.67447C199.423 9.6313 199.266 9.61097 199.071 9.63001C198.954 9.64144 198.83 9.64653 198.709 9.6516C198.591 9.65668 198.471 9.64272 198.397 9.60463C198.291 9.54876 198.353 9.52718 198.544 9.53099C198.665 9.53353 198.786 9.51956 198.907 9.51321Z" fill="#FFE492"/>
<path d="M264.996 18.2653C265.227 18.2526 265.458 18.2374 265.692 18.2272C265.74 18.2247 265.799 18.2387 265.843 18.2476C266.018 18.2856 265.993 18.3504 266 18.4075C266.004 18.4672 265.597 18.5155 265.425 18.4748C265.234 18.4291 265.062 18.3771 264.798 18.405C264.696 18.4152 264.575 18.3923 264.509 18.3555C264.41 18.3021 264.465 18.2806 264.652 18.2844C264.762 18.2869 264.879 18.2729 264.996 18.2653Z" fill="#FFE492"/>
<path d="M148.138 0.983129C148.377 0.969162 148.615 0.947587 148.853 0.946317C148.992 0.945048 149.062 0.986941 149.029 1.01741C149.01 1.03646 148.966 1.06312 148.922 1.06566C148.446 1.09614 147.97 1.12154 147.494 1.14947C147.354 1.13169 147.285 1.10503 147.318 1.07456C147.336 1.05552 147.38 1.03012 147.424 1.02631C147.662 1.00853 147.9 0.997096 148.138 0.983129Z" fill="#FFE492"/>
<path d="M260.363 14.1322C260.594 14.1195 260.829 14.1005 261.06 14.0941C261.18 14.0916 261.276 14.1208 261.29 14.1538C261.298 14.1691 261.239 14.1957 261.191 14.2021C260.862 14.2452 260.506 14.2503 260.162 14.2719C260.052 14.2783 259.935 14.2579 259.869 14.2224C259.77 14.1678 259.825 14.1475 260.012 14.1513C260.129 14.1526 260.246 14.1386 260.363 14.1322Z" fill="#FFE492"/>
<path d="M204.619 9.68475C204.736 9.6784 204.857 9.66189 204.971 9.66697C205.092 9.67332 205.169 9.71014 205.205 9.74697C205.245 9.78887 205.242 9.82823 205.205 9.86379C205.147 9.92473 205.088 9.9222 204.952 9.88156C204.743 9.81808 204.729 9.82569 204.315 9.82823C204.267 9.82823 204.209 9.80918 204.172 9.79267C204.117 9.76728 204.146 9.72792 204.274 9.70507C204.37 9.68856 204.502 9.6911 204.619 9.68475Z" fill="#FFE492"/>
<path d="M252.061 13.7158C252.233 13.7056 252.405 13.6891 252.577 13.6891C252.698 13.6879 252.794 13.7171 252.805 13.7488C252.808 13.764 252.753 13.7894 252.709 13.7971C252.501 13.8313 252.266 13.8339 252.039 13.8453C251.933 13.8504 251.815 13.8301 251.749 13.7945C251.651 13.7412 251.709 13.717 251.889 13.7247C251.944 13.7272 252.002 13.7196 252.061 13.7158Z" fill="#FFE492"/>
<path d="M224.345 12.1578C224.088 12.1731 223.846 12.154 223.865 12.121C223.89 12.0778 223.997 12.0499 224.107 12.0423C224.282 12.0296 224.458 12.0194 224.638 12.0118C224.751 12.0067 224.854 12.0258 224.946 12.0588C224.891 12.0994 224.806 12.1286 224.696 12.1375C224.583 12.1464 224.462 12.1515 224.345 12.1578Z" fill="#FFE492"/>
<path d="M223.063 11.9954C223.236 11.9853 223.408 11.9688 223.58 11.9688C223.701 11.9675 223.796 11.9967 223.807 12.0285C223.811 12.0437 223.756 12.0691 223.712 12.0767C223.503 12.111 223.269 12.1135 223.041 12.125C222.935 12.13 222.818 12.1097 222.752 12.0742C222.653 12.0208 222.712 11.9967 222.891 12.0043C222.946 12.0069 223.005 11.9993 223.063 11.9954Z" fill="#FFE492"/>
<path d="M202.184 9.67423C202.357 9.66407 202.529 9.64755 202.701 9.64628C202.822 9.64501 202.917 9.67423 202.928 9.70597C202.932 9.72121 202.877 9.74533 202.833 9.75422C202.624 9.7885 202.39 9.79104 202.162 9.80247C202.056 9.80755 201.939 9.78723 201.873 9.75168C201.774 9.69835 201.833 9.67422 202.012 9.68184C202.067 9.68438 202.126 9.67677 202.184 9.67423Z" fill="#FFE492"/>
<path d="M201.127 9.59927C201.311 9.58911 201.369 9.58276 201.428 9.58276C201.538 9.58276 201.651 9.598 201.717 9.63483C201.816 9.68816 201.758 9.7034 201.578 9.70594C201.347 9.70848 201.12 9.73515 200.889 9.74022C200.768 9.74276 200.673 9.71228 200.666 9.68054C200.662 9.6653 200.717 9.63863 200.761 9.63356C200.915 9.61451 201.083 9.60308 201.127 9.59927Z" fill="#FFE492"/>
<path d="M222.075 2.12954C221.958 2.13589 221.833 2.15367 221.723 2.14732C221.577 2.13843 221.518 2.10415 221.555 2.07241C221.577 2.05463 221.617 2.02924 221.661 2.02543C221.895 2.00766 222.133 1.99622 222.368 1.98352C222.507 2.00257 222.569 2.02923 222.533 2.06097C222.511 2.07875 222.471 2.10287 222.427 2.10795C222.313 2.12065 222.192 2.12319 222.075 2.12954Z" fill="#FFE492"/>
<path d="M79.2954 2.86225C79.409 2.86098 79.5115 2.87749 79.5995 2.90923C79.5445 2.94986 79.4639 2.97653 79.354 2.98795C79.2991 2.99303 79.2368 2.99684 79.1782 2.9981C79.0646 3.00064 78.962 2.98287 78.874 2.95113C78.929 2.91049 79.0132 2.88383 79.1195 2.8724C79.1744 2.86732 79.2368 2.86606 79.2954 2.86225Z" fill="#FFE492"/>
<path d="M258.661 14.1274C258.657 14.0906 258.88 14.0487 259.082 14.05C259.188 14.0512 259.298 14.069 259.36 14.1033C259.456 14.1553 259.401 14.1757 259.221 14.1718C259.111 14.1693 258.994 14.1909 258.884 14.1871C258.76 14.1858 258.686 14.1579 258.661 14.1274Z" fill="#FFE492"/>
<path d="M205.32 9.83787C205.316 9.8239 205.298 9.8074 205.309 9.79471C205.378 9.72487 205.8 9.70329 205.91 9.76423C205.928 9.77566 205.935 9.7947 205.921 9.80613C205.899 9.8239 205.858 9.84676 205.814 9.85184C205.701 9.86453 205.584 9.87089 205.466 9.87216C205.415 9.87216 205.367 9.85057 205.32 9.83787Z" fill="#FFE492"/>
<path d="M9.67939 9.56526C9.24705 9.59192 9.23972 9.58937 9.31667 9.52589C9.38628 9.46875 9.51454 9.43447 9.7014 9.43447C9.75635 9.43447 9.81496 9.43193 9.86259 9.43701C9.91388 9.44336 9.9872 9.45605 9.99819 9.47128C10.0202 9.50049 9.95783 9.53223 9.84792 9.55382C9.80029 9.56398 9.73801 9.56145 9.67939 9.56526Z" fill="#FFE492"/>
<path d="M85.0168 2.68298C84.8885 2.70457 84.7787 2.69696 84.6981 2.65632C84.6174 2.61569 84.7457 2.56744 84.9692 2.55601C85.0278 2.55347 85.0901 2.54332 85.145 2.5484C85.2 2.55221 85.255 2.56743 85.288 2.58267C85.3466 2.60806 85.31 2.64236 85.1927 2.67156C85.1451 2.68299 85.0754 2.68044 85.0168 2.68298Z" fill="#FFE492"/>
<path d="M258.668 14.032C258.702 14.0155 258.736 13.999 258.773 13.9838C258.912 14.0054 258.972 14.0307 258.935 14.0599C258.912 14.0777 258.867 14.093 258.833 14.1095C258.695 14.0879 258.638 14.0612 258.668 14.032Z" fill="#FFE492"/>
<path d="M15.0791 24.0198C15.0791 24.0046 15.131 23.9805 15.1718 23.9754C15.2497 23.9665 15.3461 23.9843 15.4129 24.0198C15.5056 24.0706 15.45 24.0973 15.2794 24.0833C15.1607 24.0732 15.0791 24.0478 15.0791 24.0198Z" fill="#FFE492"/>
<path d="M206.691 8.65602C206.739 8.66745 206.788 8.67888 206.832 8.69158C206.769 8.73856 206.691 8.75886 206.61 8.74617C206.558 8.73855 206.513 8.72331 206.465 8.71188C206.528 8.6649 206.602 8.64713 206.691 8.65602Z" fill="#FFE492"/>
<path d="M205.405 8.599C205.48 8.57996 205.569 8.59013 205.672 8.62695C205.639 8.64345 205.609 8.6625 205.569 8.6752C205.498 8.69551 205.405 8.68534 205.305 8.64725C205.335 8.63202 205.368 8.61551 205.405 8.599Z" fill="#FFE492"/>
<path d="M204.372 8.65476C204.42 8.66618 204.468 8.67762 204.513 8.69031C204.45 8.73729 204.375 8.7576 204.29 8.7449C204.238 8.73728 204.194 8.72204 204.146 8.71062C204.209 8.66364 204.283 8.6446 204.372 8.65476Z" fill="#FFE492"/>
<path d="M204.401 8.5878C204.457 8.6132 204.427 8.64367 204.318 8.67795C204.269 8.66652 204.213 8.65764 204.176 8.64241C204.116 8.61828 204.146 8.58653 204.258 8.55225C204.303 8.56494 204.352 8.57637 204.401 8.5878Z" fill="#FFE492"/>
</svg>
